<svg width="544" height="167" viewBox="0 0 544 167" fill="none" xmlns="http://www.w3.org/2000/svg">
<path d="M4 2.40177H2.40177V4V163V164.598H4H540H541.598V163V4V2.40177H540H4Z" fill="#576471" stroke="black" stroke-width="3.19647"/>
<path fill-rule="evenodd" clip-rule="evenodd" d="M4 4H539.621V163.129H4V4ZM13.7309 13.7309V153.398H529.89V13.7309H13.7309Z" fill="#A6B3BF"/>
<path fill-rule="evenodd" clip-rule="evenodd" d="M4 4H539.621V163.129H4V4ZM13.7309 13.7309V153.398H529.89V13.7309H13.7309Z" fill="url(#paint0_linear_0_16)" fill-opacity="0.2"/>
<g filter="url(#filter0_ii_0_16)">
<path d="M33.1926 25.1791L36.5984 27.2937L40.1327 29.1859L40.0043 33.1928L40.1327 37.1996L36.5984 39.0918L33.1926 41.2064L29.7868 39.0918L26.2526 37.1996L26.381 33.1928L26.2526 29.1859L29.7868 27.2937L33.1926 25.1791Z" fill="#A6B3BF"/>
<path d="M33.1926 25.1791L36.5984 27.2937L40.1327 29.1859L40.0043 33.1928L40.1327 37.1996L36.5984 39.0918L33.1926 41.2064L29.7868 39.0918L26.2526 37.1996L26.381 33.1928L26.2526 29.1859L29.7868 27.2937L33.1926 25.1791Z" fill="url(#paint1_linear_0_16)" fill-opacity="0.71"/>
</g>
<path d="M33.8249 24.1607L33.1926 23.7681L32.5603 24.1607L29.1872 26.2551L25.6868 28.1292L25.0307 28.4804L25.0545 29.2243L25.1817 33.1928L25.0545 37.1612L25.0307 37.9051L25.6868 38.2563L29.1872 40.1304L32.5603 42.2248L33.1926 42.6174L33.8249 42.2248L37.1981 40.1304L40.6984 38.2563L41.3546 37.9051L41.3307 37.1612L41.2035 33.1928L41.3307 29.2243L41.3546 28.4804L40.6984 28.1292L37.1981 26.2551L33.8249 24.1607Z" stroke="#1C2630" stroke-width="2.39735"/>
<g filter="url(#filter1_ii_0_16)">
<path d="M33.1926 121.343L36.5984 123.458L40.1327 125.35L40.0043 129.357L40.1327 133.364L36.5984 135.256L33.1926 137.37L29.7868 135.256L26.2526 133.364L26.381 129.357L26.2526 125.35L29.7868 123.458L33.1926 121.343Z" fill="#A6B3BF"/>
<path d="M33.1926 121.343L36.5984 123.458L40.1327 125.35L40.0043 129.357L40.1327 133.364L36.5984 135.256L33.1926 137.37L29.7868 135.256L26.2526 133.364L26.381 129.357L26.2526 125.35L29.7868 123.458L33.1926 121.343Z" fill="url(#paint2_linear_0_16)" fill-opacity="0.71"/>
</g>
<path d="M33.8249 120.325L33.1926 119.932L32.5603 120.325L29.1872 122.419L25.6868 124.293L25.0307 124.644L25.0545 125.388L25.1817 129.357L25.0545 133.325L25.0307 134.069L25.6868 134.42L29.1872 136.294L32.5603 138.389L33.1926 138.781L33.8249 138.389L37.1981 136.294L40.6984 134.42L41.3546 134.069L41.3307 133.325L41.2035 129.357L41.3307 125.388L41.3546 124.644L40.6984 124.293L37.1981 122.419L33.8249 120.325Z" stroke="#1C2630" stroke-width="2.39735"/>
<g filter="url(#filter2_ii_0_16)">
<path d="M507.014 121.343L510.419 123.458L513.954 125.35L513.825 129.357L513.954 133.364L510.419 135.256L507.014 137.37L503.608 135.256L500.074 133.364L500.202 129.357L500.074 125.35L503.608 123.458L507.014 121.343Z" fill="#A6B3BF"/>
<path d="M507.014 121.343L510.419 123.458L513.954 125.35L513.825 129.357L513.954 133.364L510.419 135.256L507.014 137.37L503.608 135.256L500.074 133.364L500.202 129.357L500.074 125.35L503.608 123.458L507.014 121.343Z" fill="url(#paint3_linear_0_16)" fill-opacity="0.71"/>
</g>
<path d="M507.646 120.325L507.014 119.932L506.381 120.325L503.008 122.419L499.508 124.293L498.852 124.644L498.876 125.388L499.003 129.357L498.876 133.325L498.852 134.069L499.508 134.42L503.008 136.294L506.381 138.389L507.014 138.781L507.646 138.389L511.019 136.294L514.519 134.42L515.176 134.069L515.152 133.325L515.025 129.357L515.152 125.388L515.176 124.644L514.519 124.293L511.019 122.419L507.646 120.325Z" stroke="#1C2630" stroke-width="2.39735"/>
<g filter="url(#filter3_ii_0_16)">
<path d="M507.014 25.179L510.419 27.2936L513.954 29.1858L513.825 33.1926L513.954 37.1995L510.419 39.0917L507.014 41.2063L503.608 39.0917L500.074 37.1995L500.202 33.1926L500.074 29.1858L503.608 27.2936L507.014 25.179Z" fill="#A6B3BF"/>
<path d="M507.014 25.179L510.419 27.2936L513.954 29.1858L513.825 33.1926L513.954 37.1995L510.419 39.0917L507.014 41.2063L503.608 39.0917L500.074 37.1995L500.202 33.1926L500.074 29.1858L503.608 27.2936L507.014 25.179Z" fill="url(#paint4_linear_0_16)" fill-opacity="0.71"/>
</g>
<path d="M507.646 24.1606L507.014 23.768L506.381 24.1606L503.008 26.255L499.508 28.129L498.852 28.4803L498.876 29.2242L499.003 33.1926L498.876 37.1611L498.852 37.9049L499.508 38.2562L503.008 40.1303L506.381 42.2247L507.014 42.6172L507.646 42.2247L511.019 40.1303L514.519 38.2562L515.176 37.9049L515.152 37.1611L515.025 33.1926L515.152 29.2242L515.176 28.4803L514.519 28.129L511.019 26.255L507.646 24.1606Z" stroke="#1C2630" stroke-width="2.39735"/>
<defs>
<filter id="filter0_ii_0_16" x="23.8088" y="22.3572" width="18.7676" height="21.6711" filterUnits="userSpaceOnUse" color-interpolation-filters="sRGB">
<feFlood flood-opacity="0" result="BackgroundImageFix"/>
<feBlend mode="normal" in="SourceGraphic" in2="BackgroundImageFix" result="shape"/>
<feColorMatrix in="SourceAlpha" type="matrix" values="0 0 0 0 0 0 0 0 0 0 0 0 0 0 0 0 0 0 127 0" result="hardAlpha"/>
<feOffset dy="5.59382"/>
<feComposite in2="hardAlpha" operator="arithmetic" k2="-1" k3="1"/>
<feColorMatrix type="matrix" values="0 0 0 0 1 0 0 0 0 1 0 0 0 0 1 0 0 0 1 0"/>
<feBlend mode="normal" in2="shape" result="effect1_innerShadow_0_16"/>
<feColorMatrix in="SourceAlpha" type="matrix" values="0 0 0 0 0 0 0 0 0 0 0 0 0 0 0 0 0 0 127 0" result="hardAlpha"/>
<feOffset dy="-4.7947"/>
<feComposite in2="hardAlpha" operator="arithmetic" k2="-1" k3="1"/>
<feColorMatrix type="matrix" values="0 0 0 0 0.301961 0 0 0 0 0.352941 0 0 0 0 0.403922 0 0 0 1 0"/>
<feBlend mode="normal" in2="effect1_innerShadow_0_16" result="effect2_innerShadow_0_16"/>
</filter>
<filter id="filter1_ii_0_16" x="23.8088" y="118.521" width="18.7676" height="21.6711" filterUnits="userSpaceOnUse" color-interpolation-filters="sRGB">
<feFlood flood-opacity="0" result="BackgroundImageFix"/>
<feBlend mode="normal" in="SourceGraphic" in2="BackgroundImageFix" result="shape"/>
<feColorMatrix in="SourceAlpha" type="matrix" values="0 0 0 0 0 0 0 0 0 0 0 0 0 0 0 0 0 0 127 0" result="hardAlpha"/>
<feOffset dy="5.59382"/>
<feComposite in2="hardAlpha" operator="arithmetic" k2="-1" k3="1"/>
<feColorMatrix type="matrix" values="0 0 0 0 1 0 0 0 0 1 0 0 0 0 1 0 0 0 1 0"/>
<feBlend mode="normal" in2="shape" result="effect1_innerShadow_0_16"/>
<feColorMatrix in="SourceAlpha" type="matrix" values="0 0 0 0 0 0 0 0 0 0 0 0 0 0 0 0 0 0 127 0" result="hardAlpha"/>
<feOffset dy="-4.7947"/>
<feComposite in2="hardAlpha" operator="arithmetic" k2="-1" k3="1"/>
<feColorMatrix type="matrix" values="0 0 0 0 0.301961 0 0 0 0 0.352941 0 0 0 0 0.403922 0 0 0 1 0"/>
<feBlend mode="normal" in2="effect1_innerShadow_0_16" result="effect2_innerShadow_0_16"/>
</filter>
<filter id="filter2_ii_0_16" x="497.63" y="118.521" width="18.7676" height="21.6711" filterUnits="userSpaceOnUse" color-interpolation-filters="sRGB">
<feFlood flood-opacity="0" result="BackgroundImageFix"/>
<feBlend mode="normal" in="SourceGraphic" in2="BackgroundImageFix" result="shape"/>
<feColorMatrix in="SourceAlpha" type="matrix" values="0 0 0 0 0 0 0 0 0 0 0 0 0 0 0 0 0 0 127 0" result="hardAlpha"/>
<feOffset dy="5.59382"/>
<feComposite in2="hardAlpha" operator="arithmetic" k2="-1" k3="1"/>
<feColorMatrix type="matrix" values="0 0 0 0 1 0 0 0 0 1 0 0 0 0 1 0 0 0 1 0"/>
<feBlend mode="normal" in2="shape" result="effect1_innerShadow_0_16"/>
<feColorMatrix in="SourceAlpha" type="matrix" values="0 0 0 0 0 0 0 0 0 0 0 0 0 0 0 0 0 0 127 0" result="hardAlpha"/>
<feOffset dy="-4.7947"/>
<feComposite in2="hardAlpha" operator="arithmetic" k2="-1" k3="1"/>
<feColorMatrix type="matrix" values="0 0 0 0 0.301961 0 0 0 0 0.352941 0 0 0 0 0.403922 0 0 0 1 0"/>
<feBlend mode="normal" in2="effect1_innerShadow_0_16" result="effect2_innerShadow_0_16"/>
</filter>
<filter id="filter3_ii_0_16" x="497.63" y="22.3571" width="18.7676" height="21.6711" filterUnits="userSpaceOnUse" color-interpolation-filters="sRGB">
<feFlood flood-opacity="0" result="BackgroundImageFix"/>
<feBlend mode="normal" in="SourceGraphic" in2="BackgroundImageFix" result="shape"/>
<feColorMatrix in="SourceAlpha" type="matrix" values="0 0 0 0 0 0 0 0 0 0 0 0 0 0 0 0 0 0 127 0" result="hardAlpha"/>
<feOffset dy="5.59382"/>
<feComposite in2="hardAlpha" operator="arithmetic" k2="-1" k3="1"/>
<feColorMatrix type="matrix" values="0 0 0 0 1 0 0 0 0 1 0 0 0 0 1 0 0 0 1 0"/>
<feBlend mode="normal" in2="shape" result="effect1_innerShadow_0_16"/>
<feColorMatrix in="SourceAlpha" type="matrix" values="0 0 0 0 0 0 0 0 0 0 0 0 0 0 0 0 0 0 127 0" result="hardAlpha"/>
<feOffset dy="-4.7947"/>
<feComposite in2="hardAlpha" operator="arithmetic" k2="-1" k3="1"/>
<feColorMatrix type="matrix" values="0 0 0 0 0.301961 0 0 0 0 0.352941 0 0 0 0 0.403922 0 0 0 1 0"/>
<feBlend mode="normal" in2="effect1_innerShadow_0_16" result="effect2_innerShadow_0_16"/>
</filter>
<linearGradient id="paint0_linear_0_16" x1="241.811" y1="13.7309" x2="241.811" y2="416.704" gradientUnits="userSpaceOnUse">
<stop stop-opacity="0"/>
<stop offset="1"/>
</linearGradient>
<linearGradient id="paint1_linear_0_16" x1="33.1926" y1="25.1791" x2="33.1926" y2="41.2064" gradientUnits="userSpaceOnUse">
<stop stop-color="white"/>
<stop offset="0.73" stop-color="white" stop-opacity="0"/>
</linearGradient>
<linearGradient id="paint2_linear_0_16" x1="33.1926" y1="121.343" x2="33.1926" y2="137.37" gradientUnits="userSpaceOnUse">
<stop stop-color="white"/>
<stop offset="0.73" stop-color="white" stop-opacity="0"/>
</linearGradient>
<linearGradient id="paint3_linear_0_16" x1="507.014" y1="121.343" x2="507.014" y2="137.37" gradientUnits="userSpaceOnUse">
<stop stop-color="white"/>
<stop offset="0.73" stop-color="white" stop-opacity="0"/>
</linearGradient>
<linearGradient id="paint4_linear_0_16" x1="507.014" y1="25.179" x2="507.014" y2="41.2063" gradientUnits="userSpaceOnUse">
<stop stop-color="white"/>
<stop offset="0.73" stop-color="white" stop-opacity="0"/>
</linearGradient>
</defs>
</svg>
