<svg width="672" height="290" viewBox="0 0 672 290" fill="none" xmlns="http://www.w3.org/2000/svg">
<path d="M4 2.40177H2.40177V4V286.155V287.753H4H668H669.598V286.155V4V2.40177H668H4Z" fill="#576471" stroke="black" stroke-width="3.19647"/>
<path fill-rule="evenodd" clip-rule="evenodd" d="M4 4H668V286.155H4V4ZM17.585 17.585V272.57H654.415V17.585H17.585Z" fill="#A6B3BF"/>
<path fill-rule="evenodd" clip-rule="evenodd" d="M4 4H668V286.155H4V4ZM17.585 17.585V272.57H654.415V17.585H17.585Z" fill="url(#paint0_linear_1_2)" fill-opacity="0.2"/>
<g filter="url(#filter0_ii_1_2)">
<path d="M44.755 33.5674L49.5098 36.5196L54.4438 39.1612L54.2645 44.755L54.4438 50.3488L49.5098 52.9905L44.755 55.9427L40.0003 52.9905L35.0662 50.3488L35.2455 44.755L35.0662 39.1612L40.0003 36.5196L44.755 33.5674Z" fill="#A6B3BF"/>
<path d="M44.755 33.5674L49.5098 36.5196L54.4438 39.1612L54.2645 44.755L54.4438 50.3488L49.5098 52.9905L44.755 55.9427L40.0003 52.9905L35.0662 50.3488L35.2455 44.755L35.0662 39.1612L40.0003 36.5196L44.755 33.5674Z" fill="url(#paint1_linear_1_2)" fill-opacity="0.71"/>
</g>
<path d="M45.3873 32.549L44.755 32.1565L44.1227 32.549L39.4006 35.4809L34.5005 38.1045L33.8443 38.4557L33.8682 39.1996L34.0462 44.755L33.8682 50.3104L33.8443 51.0543L34.5005 51.4056L39.4006 54.0291L44.1227 56.961L44.755 57.3536L45.3873 56.961L50.1094 54.0291L55.0096 51.4056L55.6657 51.0543L55.6419 50.3104L55.4638 44.755L55.6419 39.1996L55.6657 38.4557L55.0096 38.1045L50.1094 35.4809L45.3873 32.549Z" stroke="#1C2630" stroke-width="2.39735"/>
<g filter="url(#filter1_ii_1_2)">
<path d="M44.755 227.819L49.5098 230.771L54.4438 233.413L54.2645 239.007L54.4438 244.6L49.5098 247.242L44.755 250.194L40.0003 247.242L35.0662 244.6L35.2455 239.007L35.0662 233.413L40.0003 230.771L44.755 227.819Z" fill="#A6B3BF"/>
<path d="M44.755 227.819L49.5098 230.771L54.4438 233.413L54.2645 239.007L54.4438 244.6L49.5098 247.242L44.755 250.194L40.0003 247.242L35.0662 244.6L35.2455 239.007L35.0662 233.413L40.0003 230.771L44.755 227.819Z" fill="url(#paint2_linear_1_2)" fill-opacity="0.71"/>
</g>
<path d="M45.3873 226.801L44.755 226.408L44.1227 226.801L39.4006 229.733L34.5005 232.356L33.8443 232.707L33.8682 233.451L34.0462 239.007L33.8682 244.562L33.8443 245.306L34.5005 245.657L39.4006 248.281L44.1227 251.213L44.755 251.605L45.3873 251.213L50.1094 248.281L55.0096 245.657L55.6657 245.306L55.6419 244.562L55.4638 239.007L55.6419 233.451L55.6657 232.707L55.0096 232.356L50.1094 229.733L45.3873 226.801Z" stroke="#1C2630" stroke-width="2.39735"/>
<g filter="url(#filter2_ii_1_2)">
<path d="M627.245 227.819L632 230.771L636.934 233.413L636.755 239.007L636.934 244.6L632 247.242L627.245 250.194L622.49 247.242L617.556 244.6L617.736 239.007L617.556 233.413L622.49 230.771L627.245 227.819Z" fill="#A6B3BF"/>
<path d="M627.245 227.819L632 230.771L636.934 233.413L636.755 239.007L636.934 244.6L632 247.242L627.245 250.194L622.49 247.242L617.556 244.6L617.736 239.007L617.556 233.413L622.49 230.771L627.245 227.819Z" fill="url(#paint3_linear_1_2)" fill-opacity="0.71"/>
</g>
<path d="M627.877 226.801L627.245 226.408L626.613 226.801L621.891 229.733L616.99 232.356L616.334 232.707L616.358 233.451L616.536 239.007L616.358 244.562L616.334 245.306L616.99 245.657L621.891 248.281L626.613 251.213L627.245 251.605L627.877 251.213L632.599 248.281L637.5 245.657L638.156 245.306L638.132 244.562L637.954 239.007L638.132 233.451L638.156 232.707L637.5 232.356L632.599 229.733L627.877 226.801Z" stroke="#1C2630" stroke-width="2.39735"/>
<g filter="url(#filter3_ii_1_2)">
<path d="M627.245 33.5674L632 36.5196L636.934 39.1612L636.755 44.755L636.934 50.3488L632 52.9905L627.245 55.9427L622.49 52.9905L617.556 50.3488L617.736 44.755L617.556 39.1612L622.49 36.5196L627.245 33.5674Z" fill="#A6B3BF"/>
<path d="M627.245 33.5674L632 36.5196L636.934 39.1612L636.755 44.755L636.934 50.3488L632 52.9905L627.245 55.9427L622.49 52.9905L617.556 50.3488L617.736 44.755L617.556 39.1612L622.49 36.5196L627.245 33.5674Z" fill="url(#paint4_linear_1_2)" fill-opacity="0.71"/>
</g>
<path d="M627.877 32.549L627.245 32.1565L626.613 32.549L621.891 35.4809L616.99 38.1045L616.334 38.4557L616.358 39.1996L616.536 44.755L616.358 50.3104L616.334 51.0543L616.99 51.4056L621.891 54.0291L626.613 56.961L627.245 57.3536L627.877 56.961L632.599 54.0291L637.5 51.4056L638.156 51.0543L638.132 50.3104L637.954 44.755L638.132 39.1996L638.156 38.4557L637.5 38.1045L632.599 35.4809L627.877 32.549Z" stroke="#1C2630" stroke-width="2.39735"/>
<path d="M189.398 192.686C189.398 203.778 186.531 212.473 180.797 218.771C175.157 224.975 167.073 228.077 156.545 228.077V236.96H128.345V228.077H96.479V202.697H128.345V185.354C123.457 185.354 119.039 184.555 115.091 182.957C111.143 181.265 107.806 178.915 105.08 175.907C102.354 172.805 100.239 169.092 98.735 164.768C97.231 160.444 96.479 155.603 96.479 150.245C96.479 145.075 97.231 140.328 98.735 136.004C100.239 131.68 102.354 128.014 105.08 125.006C107.9 121.904 111.284 119.507 115.232 117.815C119.18 116.123 123.551 115.277 128.345 115.277V107.24H156.545V115.277H189.398L176.849 141.785H156.545V158.987C167.919 158.987 176.238 161.713 181.502 167.165C186.766 172.523 189.398 181.03 189.398 192.686ZM128.345 141.785C124.021 142.725 121.859 145.545 121.859 150.245C121.859 154.569 124.021 157.342 128.345 158.564V141.785ZM163.736 194.096C163.736 190.242 161.339 187.516 156.545 185.918V202.274C161.339 201.146 163.736 198.42 163.736 194.096ZM291.283 152.219C291.283 156.825 290.86 160.914 290.014 164.486C289.168 168.058 287.852 171.254 286.066 174.074C284.28 176.894 282.024 179.385 279.298 181.547C276.572 183.615 273.376 185.495 269.71 187.187C269.522 187.281 269.334 187.422 269.146 187.61C268.958 187.798 268.676 187.986 268.3 188.174L236.434 188.315L225.436 171.536V228.077H198.787V115.277H259.417C263.929 115.277 268.112 116.311 271.966 118.379C275.914 120.353 279.298 123.032 282.118 126.416C284.938 129.8 287.147 133.748 288.745 138.26C290.437 142.678 291.283 147.331 291.283 152.219ZM265.903 153.206C265.903 150.104 264.869 147.378 262.801 145.028C260.733 142.678 258.195 141.503 255.187 141.503H225.295V164.768H256.315C257.537 164.768 258.712 164.392 259.84 163.64C261.062 162.888 262.096 161.948 262.942 160.82C263.882 159.692 264.587 158.47 265.057 157.154C265.621 155.744 265.903 154.428 265.903 153.206ZM381.54 115.277L368.991 141.644H298.35V115.277H381.54ZM369.132 184.508H298.35V158.141H369.132V184.508ZM375.759 228.077H297.927V201.71H375.759V228.077ZM479.65 152.219C479.65 156.825 479.227 160.914 478.381 164.486C477.535 168.058 476.219 171.254 474.433 174.074C472.647 176.894 470.391 179.385 467.665 181.547C464.939 183.615 461.743 185.495 458.077 187.187C457.889 187.281 457.701 187.422 457.513 187.61C457.325 187.798 457.043 187.986 456.667 188.174L424.801 188.315L413.803 171.536V228.077H387.154V115.277H447.784C452.296 115.277 456.479 116.311 460.333 118.379C464.281 120.353 467.665 123.032 470.485 126.416C473.305 129.8 475.514 133.748 477.112 138.26C478.804 142.678 479.65 147.331 479.65 152.219ZM454.27 153.206C454.27 150.104 453.236 147.378 451.168 145.028C449.1 142.678 446.562 141.503 443.554 141.503H413.662V164.768H444.682C445.904 164.768 447.079 164.392 448.207 163.64C449.429 162.888 450.463 161.948 451.309 160.82C452.249 159.692 452.954 158.47 453.424 157.154C453.988 155.744 454.27 154.428 454.27 153.206ZM569.907 115.277L557.358 141.644H486.717V115.277H569.907ZM557.499 184.508H486.717V158.141H557.499V184.508ZM564.126 228.077H486.294V201.71H564.126V228.077Z" fill="white"/>
<path d="M151.617 60.094C151.617 61.3027 151.506 62.3757 151.284 63.313C151.062 64.2503 150.717 65.089 150.248 65.829C149.78 66.569 149.188 67.2227 148.472 67.79C147.757 68.3327 146.918 68.826 145.956 69.27C145.907 69.2947 145.858 69.3317 145.808 69.381C145.759 69.4303 145.685 69.4797 145.586 69.529L137.224 69.566L134.338 65.163V80H127.345V50.4H143.255C144.439 50.4 145.537 50.6713 146.548 51.214C147.584 51.732 148.472 52.435 149.212 53.323C149.952 54.211 150.532 55.247 150.951 56.431C151.395 57.5903 151.617 58.8113 151.617 60.094ZM144.957 60.353C144.957 59.539 144.686 58.8237 144.143 58.207C143.601 57.5903 142.935 57.282 142.145 57.282H134.301V63.387H142.441C142.762 63.387 143.07 63.2883 143.366 63.091C143.687 62.8937 143.958 62.647 144.18 62.351C144.427 62.055 144.612 61.7343 144.735 61.389C144.883 61.019 144.957 60.6737 144.957 60.353ZM175.302 50.4L172.009 57.319H160.724V61.648H172.046V68.567H160.724V73.081H173.785V80H153.361V50.4H175.302ZM201.444 60.094C201.444 61.3027 201.333 62.3757 201.111 63.313C200.889 64.2503 200.544 65.089 200.075 65.829C199.607 66.569 199.015 67.2227 198.299 67.79C197.584 68.3327 196.745 68.826 195.783 69.27C195.734 69.2947 195.685 69.3317 195.635 69.381C195.586 69.4303 195.512 69.4797 195.413 69.529L187.051 69.566L184.165 65.163V80H177.172V50.4H193.082C194.266 50.4 195.364 50.6713 196.375 51.214C197.411 51.732 198.299 52.435 199.039 53.323C199.779 54.211 200.359 55.247 200.778 56.431C201.222 57.5903 201.444 58.8113 201.444 60.094ZM194.784 60.353C194.784 59.539 194.513 58.8237 193.97 58.207C193.428 57.5903 192.762 57.282 191.972 57.282H184.128V63.387H192.268C192.589 63.387 192.897 63.2883 193.193 63.091C193.514 62.8937 193.785 62.647 194.007 62.351C194.254 62.055 194.439 61.7343 194.562 61.389C194.71 61.019 194.784 60.6737 194.784 60.353ZM225.526 50.4L222.233 57.319H210.948V61.648H222.27V68.567H210.948V73.081H224.009V80H203.585V50.4H225.526ZM250.624 70.713C250.624 72.119 250.426 73.4017 250.032 74.561C249.637 75.6957 249.07 76.67 248.33 77.484C247.614 78.298 246.726 78.927 245.666 79.371C244.63 79.7903 243.458 80 242.151 80H226.241V73.34H241.004C241.867 73.34 242.558 73.1427 243.076 72.748C243.618 72.3287 243.89 71.7737 243.89 71.083C243.89 70.5157 243.643 70.0223 243.15 69.603C242.656 69.159 241.941 68.8877 241.004 68.789C240.831 68.8137 240.609 68.826 240.338 68.826C240.066 68.826 239.746 68.826 239.376 68.826H236.305C234.923 68.826 233.752 68.752 232.79 68.604C231.852 68.456 231.051 68.234 230.385 67.938C229.719 67.6173 229.164 67.2103 228.72 66.717C228.276 66.199 227.869 65.5823 227.499 64.867C226.66 63.3623 226.241 61.5987 226.241 59.576C226.241 58.2193 226.438 56.9737 226.833 55.839C227.227 54.7043 227.782 53.7423 228.498 52.953C229.238 52.139 230.126 51.51 231.162 51.066C232.198 50.622 233.345 50.4 234.603 50.4H250.624L247.331 57.356L235.417 57.282C233.739 57.282 232.901 58.0467 232.901 59.576C232.901 60.242 233.147 60.797 233.641 61.241C234.159 61.6603 234.751 61.87 235.417 61.87H242.151C247.799 61.87 250.624 64.8177 250.624 70.713ZM274.812 50.4L271.519 57.319H260.234V61.648H271.556V68.567H260.234V73.081H273.295V80H252.871V50.4H274.812ZM301.028 50.4V80H288.337C287.079 80 285.883 79.8027 284.748 79.408C283.638 79.0133 282.614 78.4583 281.677 77.743C280.74 77.003 279.901 76.1273 279.161 75.116C278.421 74.08 277.817 72.9453 277.348 71.712C276.904 70.5773 276.682 69.7263 276.682 69.159V50.4H283.638V65.311C283.638 66.4703 283.761 67.531 284.008 68.493C284.255 69.4303 284.6 70.2443 285.044 70.935C285.513 71.601 286.08 72.119 286.746 72.489C287.412 72.859 288.177 73.044 289.04 73.044H293.628V50.4H301.028ZM328.382 70.713C328.382 72.119 328.184 73.4017 327.79 74.561C327.395 75.6957 326.828 76.67 326.088 77.484C325.372 78.298 324.484 78.927 323.424 79.371C322.388 79.7903 321.216 80 319.909 80H303.999V73.34H318.762C319.625 73.34 320.316 73.1427 320.834 72.748C321.376 72.3287 321.648 71.7737 321.648 71.083C321.648 70.5157 321.401 70.0223 320.908 69.603C320.414 69.159 319.699 68.8877 318.762 68.789C318.589 68.8137 318.367 68.826 318.096 68.826C317.824 68.826 317.504 68.826 317.134 68.826H314.063C312.681 68.826 311.51 68.752 310.548 68.604C309.61 68.456 308.809 68.234 308.143 67.938C307.477 67.6173 306.922 67.2103 306.478 66.717C306.034 66.199 305.627 65.5823 305.257 64.867C304.418 63.3623 303.999 61.5987 303.999 59.576C303.999 58.2193 304.196 56.9737 304.591 55.839C304.985 54.7043 305.54 53.7423 306.256 52.953C306.996 52.139 307.884 51.51 308.92 51.066C309.956 50.622 311.103 50.4 312.361 50.4H328.382L325.089 57.356L313.175 57.282C311.497 57.282 310.659 58.0467 310.659 59.576C310.659 60.242 310.905 60.797 311.399 61.241C311.917 61.6603 312.509 61.87 313.175 61.87H319.909C325.557 61.87 328.382 64.8177 328.382 70.713ZM381.207 80H373.807V65.2L368.849 80H361.449L356.528 65.2V80H349.128V50.4H359.007L365.149 68.9L371.328 50.4H381.207V80ZM407.989 80H396.038L393.522 74.82L390.71 80H383.31L399.294 50.4H407.989V80ZM400.589 73.229V61.722L394.373 73.229H400.589ZM438.628 80H430.636L424.975 71.49L419.462 80H410.952L420.794 65.2L410.952 50.4H419.462L424.975 58.91L430.636 50.4H438.628L429.045 65.2L438.628 80ZM448.775 80H441.375V50.4H448.775V80ZM488.746 80H481.346V57.8L473.946 80H466.546L459.146 57.8V80H451.746V50.4H464.067L470.246 68.9L476.425 50.4H488.746V80ZM516.054 50.4V80H503.363C502.105 80 500.909 79.8027 499.774 79.408C498.664 79.0133 497.641 78.4583 496.703 77.743C495.766 77.003 494.927 76.1273 494.187 75.116C493.447 74.08 492.843 72.9453 492.374 71.712C491.93 70.5773 491.708 69.7263 491.708 69.159V50.4H498.664V65.311C498.664 66.4703 498.788 67.531 499.034 68.493C499.281 69.4303 499.626 70.2443 500.07 70.935C500.539 71.601 501.106 72.119 501.772 72.489C502.438 72.859 503.203 73.044 504.066 73.044H508.654V50.4H516.054ZM543.408 70.713C543.408 72.119 543.211 73.4017 542.816 74.561C542.421 75.6957 541.854 76.67 541.114 77.484C540.399 78.298 539.511 78.927 538.45 79.371C537.414 79.7903 536.242 80 534.935 80H519.025V73.34H533.788C534.651 73.34 535.342 73.1427 535.86 72.748C536.403 72.3287 536.674 71.7737 536.674 71.083C536.674 70.5157 536.427 70.0223 535.934 69.603C535.441 69.159 534.725 68.8877 533.788 68.789C533.615 68.8137 533.393 68.826 533.122 68.826C532.851 68.826 532.53 68.826 532.16 68.826H529.089C527.708 68.826 526.536 68.752 525.574 68.604C524.637 68.456 523.835 68.234 523.169 67.938C522.503 67.6173 521.948 67.2103 521.504 66.717C521.06 66.199 520.653 65.5823 520.283 64.867C519.444 63.3623 519.025 61.5987 519.025 59.576C519.025 58.2193 519.222 56.9737 519.617 55.839C520.012 54.7043 520.567 53.7423 521.282 52.953C522.022 52.139 522.91 51.51 523.946 51.066C524.982 50.622 526.129 50.4 527.387 50.4H543.408L540.115 57.356L528.201 57.282C526.524 57.282 525.685 58.0467 525.685 59.576C525.685 60.242 525.932 60.797 526.425 61.241C526.943 61.6603 527.535 61.87 528.201 61.87H534.935C540.584 61.87 543.408 64.8177 543.408 70.713Z" fill="white"/>
<defs>
<filter id="filter0_ii_1_2" x="32.6226" y="30.7456" width="24.2651" height="28.0188" filterUnits="userSpaceOnUse" color-interpolation-filters="sRGB">
<feFlood flood-opacity="0" result="BackgroundImageFix"/>
<feBlend mode="normal" in="SourceGraphic" in2="BackgroundImageFix" result="shape"/>
<feColorMatrix in="SourceAlpha" type="matrix" values="0 0 0 0 0 0 0 0 0 0 0 0 0 0 0 0 0 0 127 0" result="hardAlpha"/>
<feOffset dy="5.59382"/>
<feComposite in2="hardAlpha" operator="arithmetic" k2="-1" k3="1"/>
<feColorMatrix type="matrix" values="0 0 0 0 1 0 0 0 0 1 0 0 0 0 1 0 0 0 1 0"/>
<feBlend mode="normal" in2="shape" result="effect1_innerShadow_1_2"/>
<feColorMatrix in="SourceAlpha" type="matrix" values="0 0 0 0 0 0 0 0 0 0 0 0 0 0 0 0 0 0 127 0" result="hardAlpha"/>
<feOffset dy="-4.7947"/>
<feComposite in2="hardAlpha" operator="arithmetic" k2="-1" k3="1"/>
<feColorMatrix type="matrix" values="0 0 0 0 0.301961 0 0 0 0 0.352941 0 0 0 0 0.403922 0 0 0 1 0"/>
<feBlend mode="normal" in2="effect1_innerShadow_1_2" result="effect2_innerShadow_1_2"/>
</filter>
<filter id="filter1_ii_1_2" x="32.6226" y="224.997" width="24.2651" height="28.019" filterUnits="userSpaceOnUse" color-interpolation-filters="sRGB">
<feFlood flood-opacity="0" result="BackgroundImageFix"/>
<feBlend mode="normal" in="SourceGraphic" in2="BackgroundImageFix" result="shape"/>
<feColorMatrix in="SourceAlpha" type="matrix" values="0 0 0 0 0 0 0 0 0 0 0 0 0 0 0 0 0 0 127 0" result="hardAlpha"/>
<feOffset dy="5.59382"/>
<feComposite in2="hardAlpha" operator="arithmetic" k2="-1" k3="1"/>
<feColorMatrix type="matrix" values="0 0 0 0 1 0 0 0 0 1 0 0 0 0 1 0 0 0 1 0"/>
<feBlend mode="normal" in2="shape" result="effect1_innerShadow_1_2"/>
<feColorMatrix in="SourceAlpha" type="matrix" values="0 0 0 0 0 0 0 0 0 0 0 0 0 0 0 0 0 0 127 0" result="hardAlpha"/>
<feOffset dy="-4.7947"/>
<feComposite in2="hardAlpha" operator="arithmetic" k2="-1" k3="1"/>
<feColorMatrix type="matrix" values="0 0 0 0 0.301961 0 0 0 0 0.352941 0 0 0 0 0.403922 0 0 0 1 0"/>
<feBlend mode="normal" in2="effect1_innerShadow_1_2" result="effect2_innerShadow_1_2"/>
</filter>
<filter id="filter2_ii_1_2" x="615.112" y="224.997" width="24.2651" height="28.019" filterUnits="userSpaceOnUse" color-interpolation-filters="sRGB">
<feFlood flood-opacity="0" result="BackgroundImageFix"/>
<feBlend mode="normal" in="SourceGraphic" in2="BackgroundImageFix" result="shape"/>
<feColorMatrix in="SourceAlpha" type="matrix" values="0 0 0 0 0 0 0 0 0 0 0 0 0 0 0 0 0 0 127 0" result="hardAlpha"/>
<feOffset dy="5.59382"/>
<feComposite in2="hardAlpha" operator="arithmetic" k2="-1" k3="1"/>
<feColorMatrix type="matrix" values="0 0 0 0 1 0 0 0 0 1 0 0 0 0 1 0 0 0 1 0"/>
<feBlend mode="normal" in2="shape" result="effect1_innerShadow_1_2"/>
<feColorMatrix in="SourceAlpha" type="matrix" values="0 0 0 0 0 0 0 0 0 0 0 0 0 0 0 0 0 0 127 0" result="hardAlpha"/>
<feOffset dy="-4.7947"/>
<feComposite in2="hardAlpha" operator="arithmetic" k2="-1" k3="1"/>
<feColorMatrix type="matrix" values="0 0 0 0 0.301961 0 0 0 0 0.352941 0 0 0 0 0.403922 0 0 0 1 0"/>
<feBlend mode="normal" in2="effect1_innerShadow_1_2" result="effect2_innerShadow_1_2"/>
</filter>
<filter id="filter3_ii_1_2" x="615.112" y="30.7456" width="24.2651" height="28.0188" filterUnits="userSpaceOnUse" color-interpolation-filters="sRGB">
<feFlood flood-opacity="0" result="BackgroundImageFix"/>
<feBlend mode="normal" in="SourceGraphic" in2="BackgroundImageFix" result="shape"/>
<feColorMatrix in="SourceAlpha" type="matrix" values="0 0 0 0 0 0 0 0 0 0 0 0 0 0 0 0 0 0 127 0" result="hardAlpha"/>
<feOffset dy="5.59382"/>
<feComposite in2="hardAlpha" operator="arithmetic" k2="-1" k3="1"/>
<feColorMatrix type="matrix" values="0 0 0 0 1 0 0 0 0 1 0 0 0 0 1 0 0 0 1 0"/>
<feBlend mode="normal" in2="shape" result="effect1_innerShadow_1_2"/>
<feColorMatrix in="SourceAlpha" type="matrix" values="0 0 0 0 0 0 0 0 0 0 0 0 0 0 0 0 0 0 127 0" result="hardAlpha"/>
<feOffset dy="-4.7947"/>
<feComposite in2="hardAlpha" operator="arithmetic" k2="-1" k3="1"/>
<feColorMatrix type="matrix" values="0 0 0 0 0.301961 0 0 0 0 0.352941 0 0 0 0 0.403922 0 0 0 1 0"/>
<feBlend mode="normal" in2="effect1_innerShadow_1_2" result="effect2_innerShadow_1_2"/>
</filter>
<linearGradient id="paint0_linear_1_2" x1="336" y1="77.585" x2="336" y2="640.164" gradientUnits="userSpaceOnUse">
<stop stop-opacity="0"/>
<stop offset="1"/>
</linearGradient>
<linearGradient id="paint1_linear_1_2" x1="44.755" y1="33.5674" x2="44.755" y2="55.9427" gradientUnits="userSpaceOnUse">
<stop stop-color="white"/>
<stop offset="0.73" stop-color="white" stop-opacity="0"/>
</linearGradient>
<linearGradient id="paint2_linear_1_2" x1="44.755" y1="227.819" x2="44.755" y2="250.194" gradientUnits="userSpaceOnUse">
<stop stop-color="white"/>
<stop offset="0.73" stop-color="white" stop-opacity="0"/>
</linearGradient>
<linearGradient id="paint3_linear_1_2" x1="627.245" y1="227.819" x2="627.245" y2="250.194" gradientUnits="userSpaceOnUse">
<stop stop-color="white"/>
<stop offset="0.73" stop-color="white" stop-opacity="0"/>
</linearGradient>
<linearGradient id="paint4_linear_1_2" x1="627.245" y1="33.5674" x2="627.245" y2="55.9427" gradientUnits="userSpaceOnUse">
<stop stop-color="white"/>
<stop offset="0.73" stop-color="white" stop-opacity="0"/>
</linearGradient>
</defs>
</svg>
