<svg width="1920" height="1429" viewBox="0 0 1920 1429" fill="none" xmlns="http://www.w3.org/2000/svg">
<path d="M333.739 716.984C307.444 691.323 272.893 675.302 236.453 671.871L237.73 658.315C277.259 662.035 314.733 679.409 343.249 707.238L333.739 716.984Z" fill="#15E9AC" fill-opacity="0.4"/>
<path d="M395.394 846.809L381.822 845.699C382.182 841.289 382.364 836.806 382.364 832.372C382.364 801.703 373.72 771.874 357.369 746.109L368.867 738.811C386.606 766.764 395.982 799.115 395.982 832.372C395.983 837.175 395.785 842.031 395.394 846.809Z" fill="#15E9AC" fill-opacity="0.4"/>
<path d="M221.147 863.737C203.854 863.737 189.784 849.668 189.784 832.374C189.784 815.08 203.854 801.011 221.147 801.011C238.441 801.011 252.511 815.08 252.511 832.374C252.511 849.668 238.441 863.737 221.147 863.737ZM221.147 802.371C204.604 802.371 191.146 815.83 191.146 832.374C191.146 848.918 204.604 862.376 221.147 862.376C237.69 862.376 251.149 848.917 251.149 832.374C251.149 815.831 237.69 802.371 221.147 802.371Z" fill="#15E9AC" fill-opacity="0.4"/>
<path d="M508.193 982.145L499.746 977.727C523.019 933.212 535.319 882.95 535.319 832.374C535.319 804.328 531.625 776.521 524.335 749.722L533.532 747.219C541.043 774.834 544.851 803.484 544.851 832.372C544.853 884.482 532.177 936.273 508.193 982.145Z" fill="#15E9AC" fill-opacity="0.4"/>
<path d="M483.144 658.924C455.009 616.514 416.585 581.174 372.024 556.729L376.61 548.372C422.519 573.556 462.104 609.962 491.09 653.654L483.144 658.924Z" fill="#15E9AC" fill-opacity="0.4"/>
<path d="M309.274 530.726C288.173 524.572 266.3 520.64 244.26 519.038L244.951 509.529C267.66 511.181 290.197 515.235 311.941 521.575L309.274 530.726Z" fill="#15E9AC" fill-opacity="0.4"/>
<path d="M221.264 1024.94L221.261 1022.9C226.506 1022.89 231.797 1022.67 236.992 1022.25L237.159 1024.28C231.911 1024.72 226.562 1024.94 221.264 1024.94ZM205.369 1024.3C200.087 1023.87 194.774 1023.22 189.579 1022.36L189.911 1020.35C195.052 1021.2 200.309 1021.84 205.534 1022.27L205.369 1024.3ZM252.949 1022.33L252.614 1020.31C257.779 1019.45 262.962 1018.37 268.022 1017.09L268.523 1019.07C263.408 1020.36 258.168 1021.46 252.949 1022.33ZM174 1019.13C168.881 1017.84 163.747 1016.32 158.743 1014.61L159.405 1012.67C164.355 1014.37 169.433 1015.87 174.498 1017.15L174 1019.13ZM283.772 1014.53L283.108 1012.6C288.048 1010.9 292.979 1008.97 297.762 1006.87L298.584 1008.74C293.748 1010.86 288.765 1012.81 283.772 1014.53ZM143.909 1008.82C139.069 1006.7 134.256 1004.35 129.604 1001.83L130.577 1000.04C135.179 1002.53 139.942 1004.86 144.728 1006.95L143.909 1008.82ZM312.866 1001.74L311.893 999.941C316.482 997.451 321.026 994.734 325.402 991.869L326.522 993.576C322.099 996.475 317.503 999.22 312.866 1001.74ZM115.931 993.681C111.512 990.793 107.154 987.68 102.978 984.431L104.233 982.819C108.365 986.035 112.676 989.114 117.05 991.971L115.931 993.681ZM339.458 984.319L338.203 982.707C342.318 979.5 346.357 976.074 350.21 972.524L351.594 974.028C347.7 977.614 343.618 981.077 339.458 984.319ZM90.8328 974.148C86.9428 970.572 83.1546 966.789 79.5717 962.904L81.0737 961.519C84.6182 965.362 88.3663 969.105 92.2145 972.646L90.8328 974.148ZM362.845 962.773L361.343 961.39C364.88 957.548 368.306 953.507 371.524 949.378L373.136 950.633C369.882 954.807 366.421 958.892 362.845 962.773ZM69.272 950.775C66.0161 946.606 62.8988 942.254 60.0051 937.842L61.7123 936.722C64.576 941.087 67.6599 945.393 70.8807 949.518L69.272 950.775ZM382.391 937.686L380.681 936.567C383.549 932.186 386.264 927.637 388.754 923.044L390.55 924.017C388.035 928.66 385.29 933.259 382.391 937.686ZM51.8381 924.193C49.3149 919.55 46.9585 914.747 44.8291 909.916L46.6982 909.092C48.8025 913.873 51.1372 918.624 53.6337 923.216L51.8381 924.193ZM397.552 909.717L395.683 908.896C397.787 904.102 399.713 899.166 401.41 894.221L403.341 894.884C401.626 899.882 399.678 904.873 397.552 909.717ZM39.0317 895.109C37.3095 890.111 35.7793 884.981 34.4826 879.863L36.4618 879.36C37.7468 884.425 39.2604 889.5 40.9625 894.445L39.0317 895.109ZM407.872 879.632L405.891 879.132C407.169 874.074 408.251 868.889 409.105 863.724L411.121 864.056C410.257 869.279 409.164 874.521 407.872 879.632ZM31.2134 864.29C30.3457 859.08 29.6848 853.768 29.2476 848.503L31.2819 848.336C31.7141 853.544 32.3682 858.799 33.2293 863.954L31.2134 864.29ZM413.067 848.269L411.033 848.102C411.457 842.912 411.672 837.621 411.672 832.372L411.67 831.908H413.713L413.714 832.364C413.714 837.674 413.497 843.024 413.067 848.269ZM30.6244 832.606H28.5817L28.5801 832.391C28.5801 827.162 28.792 821.892 29.2075 816.711L31.2451 816.876C30.8313 822.002 30.6227 827.217 30.6227 832.374L30.6244 832.606ZM410.994 816.18C410.555 810.96 409.895 805.707 409.03 800.563L411.043 800.226C411.917 805.423 412.585 810.735 413.029 816.01L410.994 816.18ZM33.1526 801.249L31.1367 800.919C31.9944 795.694 33.0808 790.452 34.3658 785.339L36.3466 785.836C35.075 790.896 34.0003 796.081 33.1526 801.249ZM405.778 785.162C404.488 780.102 402.966 775.029 401.257 770.083L403.188 769.415C404.917 774.415 406.453 779.542 407.757 784.656L405.778 785.162ZM40.8123 770.742L38.8782 770.083C40.5887 765.076 42.5295 760.083 44.6489 755.242L46.5213 756.062C44.4253 760.851 42.5028 765.791 40.8123 770.742ZM395.504 755.442C393.39 750.66 391.051 745.91 388.552 741.326L390.345 740.348C392.871 744.982 395.236 749.784 397.372 754.618L395.504 755.442ZM53.4301 741.904L51.6328 740.932C54.1443 736.286 56.8828 731.686 59.7748 727.255L61.4854 728.371C58.625 732.755 55.9149 737.308 53.4301 741.904ZM380.454 727.829C377.59 723.47 374.499 719.17 371.272 715.044L372.881 713.786C376.143 717.953 379.267 722.3 382.162 726.706L380.454 727.829ZM70.6304 715.548L69.0183 714.295C72.2558 710.13 75.7118 706.041 79.2914 702.141L80.7966 703.521C77.2538 707.381 73.8344 711.428 70.6304 715.548ZM361.066 703.054C357.516 699.216 353.763 695.478 349.911 691.943L351.291 690.438C355.185 694.009 358.98 697.787 362.566 701.669L361.066 703.054ZM91.9158 692.375L90.5307 690.875C94.4107 687.292 98.4892 683.825 102.651 680.569L103.909 682.177C99.7892 685.398 95.7541 688.829 91.9158 692.375ZM337.878 681.785C333.744 678.576 329.429 675.504 325.051 672.649L326.166 670.938C330.592 673.822 334.954 676.929 339.131 680.172L337.878 681.785ZM116.702 673.002L115.579 671.295C119.998 668.393 124.591 665.641 129.227 663.12L130.203 664.915C125.617 667.409 121.073 670.13 116.702 673.002ZM311.516 664.602C306.923 662.12 302.159 659.799 297.356 657.7L298.175 655.827C303.03 657.948 307.844 660.295 312.487 662.803L311.516 664.602ZM144.323 657.972L143.498 656.102C148.326 653.973 153.306 652.019 158.3 650.295L158.968 652.226C154.025 653.931 149.099 655.864 144.323 657.972ZM282.671 651.999C277.726 650.313 272.646 648.815 267.571 647.543L268.069 645.562C273.197 646.847 278.332 648.363 283.33 650.066L282.671 651.999ZM174.049 647.713L173.547 645.734C178.663 644.433 183.901 643.331 189.115 642.458L189.452 644.473C184.294 645.337 179.112 646.427 174.049 647.713ZM252.157 644.359C247 643.515 241.743 642.877 236.532 642.462L236.694 640.424C241.96 640.845 247.276 641.491 252.487 642.343L252.157 644.359ZM205.072 642.517L204.902 640.483C210.157 640.042 215.505 639.815 220.798 639.805L220.802 641.848C215.563 641.858 210.27 642.081 205.072 642.517Z" fill="#15E9AC" fill-opacity="0.4"/>
<path d="M221.421 1284.23L221.417 1279.44C233.715 1279.44 246.134 1278.92 258.329 1277.92L258.723 1282.69C246.399 1283.71 233.848 1284.23 221.421 1284.23ZM184.122 1282.74C171.749 1281.74 159.283 1280.21 147.069 1278.19L147.849 1273.46C159.932 1275.46 172.266 1276.97 184.51 1277.96L184.122 1282.74ZM295.771 1278.1L294.986 1273.37C307.095 1271.36 319.26 1268.82 331.141 1265.81L332.315 1270.46C320.307 1273.49 308.011 1276.07 295.771 1278.1ZM110.516 1270.59C98.4907 1267.57 86.4454 1264 74.7204 1259.98L76.2741 1255.45C87.8739 1259.42 99.7891 1262.95 111.688 1265.95L110.516 1270.59ZM368.099 1259.8L366.541 1255.27C378.131 1251.28 389.697 1246.76 400.921 1241.83L402.85 1246.22C391.504 1251.21 379.813 1255.78 368.099 1259.8ZM39.9027 1246.42C28.5416 1241.44 17.2488 1235.92 6.33994 1230.01L8.62283 1225.8C19.4166 1231.64 30.5875 1237.1 41.8268 1242.03L39.9027 1246.42ZM436.361 1229.79L434.074 1225.58C444.846 1219.73 455.513 1213.36 465.777 1206.63L468.402 1210.64C458.029 1217.44 447.249 1223.88 436.361 1229.79ZM-25.7443 1210.89C-36.1125 1204.11 -46.3389 1196.81 -56.1397 1189.18L-53.196 1185.4C-43.5003 1192.94 -33.3824 1200.17 -23.1226 1206.87L-25.7443 1210.89ZM498.764 1188.92L495.817 1185.14C505.491 1177.6 514.97 1169.56 523.991 1161.25L527.239 1164.77C518.122 1173.17 508.542 1181.3 498.764 1188.92ZM-84.6427 1165.05C-93.7644 1156.66 -102.654 1147.79 -111.066 1138.67L-107.542 1135.42C-99.218 1144.44 -90.4234 1153.22 -81.3969 1161.52L-84.6427 1165.05ZM553.639 1138.37L550.113 1135.12C558.427 1126.09 566.464 1116.61 574.004 1106.93L577.785 1109.88C570.165 1119.66 562.042 1129.24 553.639 1138.37ZM-135.232 1110.21C-142.859 1100.44 -150.175 1090.23 -156.977 1079.86L-152.968 1077.23C-146.238 1087.49 -139 1097.59 -131.456 1107.26L-135.232 1110.21ZM599.509 1079.49L595.499 1076.87C602.218 1066.61 608.591 1055.93 614.443 1045.14L618.656 1047.42C612.741 1058.33 606.3 1069.12 599.509 1079.49ZM-176.139 1047.83C-182.055 1036.94 -187.589 1025.67 -192.587 1014.33L-188.201 1012.39C-183.255 1023.62 -177.781 1034.77 -171.929 1045.54L-176.139 1047.83ZM635.081 1013.87L630.693 1011.94C635.629 1000.7 640.151 989.11 644.131 977.506L648.665 979.061C644.642 990.791 640.071 1002.5 635.081 1013.87ZM-206.193 979.585C-210.229 967.863 -213.822 955.826 -216.871 943.808L-212.225 942.629C-209.21 954.52 -205.655 966.428 -201.662 978.025L-206.193 979.585ZM659.299 943.27L654.653 942.097C657.654 930.205 660.188 918.04 662.193 905.939L666.922 906.722C664.896 918.953 662.333 931.248 659.299 943.27ZM-224.538 907.269C-226.574 895.059 -228.127 882.595 -229.152 870.224L-224.376 869.828C-223.361 882.067 -221.826 894.4 -219.808 906.48L-224.538 907.269ZM671.491 869.67L666.715 869.279C667.711 857.092 668.217 844.675 668.217 832.374L668.215 831.293L673.008 831.274L673.01 832.374C673.008 844.803 672.497 857.351 671.491 869.67ZM-225.923 832.916H-230.716V832.372C-230.716 820.13 -230.22 807.764 -229.242 795.62L-224.466 796.006C-225.432 808.021 -225.923 820.257 -225.923 832.372V832.916ZM666.623 794.379C665.594 782.142 664.043 769.811 662.014 757.734L666.74 756.938C668.793 769.145 670.36 781.608 671.399 793.977L666.623 794.379ZM-219.989 759.344L-224.718 758.568C-222.705 746.316 -220.155 734.015 -217.14 722.01L-212.491 723.178C-215.474 735.053 -217.998 747.222 -219.989 759.344ZM654.386 721.593C651.357 709.713 647.789 697.811 643.779 686.211L648.308 684.644C652.363 696.367 655.97 708.401 659.029 720.408L654.386 721.593ZM-202.016 687.753L-206.55 686.203C-202.538 674.461 -197.982 662.743 -193.008 651.378L-188.617 653.301C-193.538 664.543 -198.046 676.136 -202.016 687.753ZM630.275 651.855C625.314 640.633 619.825 629.487 613.963 618.73L618.17 616.437C624.097 627.309 629.645 638.575 634.659 649.916L630.275 651.855ZM-172.406 620.085L-176.622 617.805C-170.731 606.908 -164.303 596.109 -157.516 585.709L-153.502 588.329C-160.216 598.619 -166.577 609.303 -172.406 620.085ZM594.962 587.061C588.228 576.818 580.977 566.725 573.414 557.061L577.189 554.106C584.834 563.873 592.16 574.075 598.969 584.428L594.962 587.061ZM-132.043 558.244L-135.828 555.302C-128.217 545.512 -120.105 535.918 -111.716 526.784L-108.186 530.027C-116.488 539.063 -124.515 548.555 -132.043 558.244ZM549.469 528.93C541.133 519.917 532.326 511.144 523.292 502.856L526.531 499.323C535.661 507.7 544.563 516.566 552.987 525.675L549.469 528.93ZM-82.0978 503.865L-85.3503 500.344C-76.242 491.932 -66.6715 483.796 -56.904 476.16L-53.9519 479.936C-63.6176 487.493 -73.088 495.543 -82.0978 503.865ZM495.061 479.017C485.361 471.486 475.233 464.271 464.961 457.578L467.578 453.561C477.959 460.328 488.194 467.619 498 475.229L495.061 479.017ZM-23.9387 458.407L-26.5687 454.402C-16.1988 447.592 -5.42508 441.139 5.44878 435.218L7.74171 439.428C-3.02034 445.284 -13.6789 451.67 -23.9387 458.407ZM433.194 438.692C422.395 432.863 411.216 427.414 399.97 422.5L401.891 418.109C413.257 423.075 424.556 428.581 435.472 434.473L433.194 438.692ZM40.8773 423.134L38.9432 418.748C50.2759 413.75 61.9625 409.164 73.6774 405.121L75.2411 409.653C63.6513 413.652 52.0899 418.188 40.8773 423.134ZM365.509 409.124C353.911 405.168 341.993 401.65 330.083 398.668L331.247 394.018C343.284 397.032 355.333 400.588 367.056 404.587L365.509 409.124ZM110.63 399.067L109.448 394.421C121.45 391.37 133.741 388.782 145.983 386.732L146.776 391.459C134.665 393.489 122.503 396.048 110.63 399.067ZM293.908 391.192C281.816 389.212 269.479 387.714 257.241 386.738L257.622 381.961C269.991 382.948 282.459 384.463 294.681 386.462L293.908 391.192ZM183.422 386.871L183.023 382.095C195.348 381.065 207.897 380.533 220.324 380.511L220.333 385.304C208.035 385.326 195.618 385.851 183.422 386.871Z" fill="#15E9AC" fill-opacity="0.4"/>
<path d="M577.533 834.235H567.514V844.254H577.533V834.235Z" fill="#15E9AC" fill-opacity="0.4"/>
<path d="M567.514 839.244C567.514 842.011 569.757 844.254 572.524 844.254C575.29 844.254 577.533 842.011 577.533 839.244C577.533 836.478 575.29 834.235 572.524 834.235C569.757 834.235 567.514 836.478 567.514 839.244Z" fill="#15E9AC" fill-opacity="0.4"/>
<path d="M577.55 819.746H567.53V829.766H577.55V819.746Z" fill="#15E9AC" fill-opacity="0.4"/>
<path d="M567.53 824.756C567.53 827.523 569.773 829.766 572.54 829.766C575.307 829.766 577.55 827.523 577.55 824.756C577.55 821.989 575.307 819.746 572.54 819.746C569.773 819.746 567.53 821.991 567.53 824.756Z" fill="#15E9AC" fill-opacity="0.4"/>
<path d="M576.265 805.251H566.245V815.271H576.265V805.251Z" fill="#15E9AC" fill-opacity="0.4"/>
<path d="M566.245 810.261C566.245 813.028 568.488 815.271 571.255 815.271C574.022 815.271 576.265 813.028 576.265 810.261C576.265 807.494 574.022 805.251 571.255 805.251C568.488 805.251 566.245 807.494 566.245 810.261Z" fill="#15E9AC" fill-opacity="0.4"/>
<path d="M574.978 790.756H564.959V800.776H574.978V790.756Z" fill="#15E9AC" fill-opacity="0.4"/>
<path d="M564.959 795.766C564.959 798.533 567.202 800.776 569.969 800.776C572.735 800.776 574.978 798.533 574.978 795.766C574.978 792.999 572.735 790.756 569.969 790.756C567.202 790.756 564.959 792.999 564.959 795.766Z" fill="#15E9AC" fill-opacity="0.4"/>
<path d="M573.692 776.261H563.672V786.28H573.692V776.261Z" fill="#15E9AC" fill-opacity="0.4"/>
<path d="M563.672 781.271C563.672 784.037 565.915 786.28 568.682 786.28C571.449 786.28 573.692 784.037 573.692 781.271C573.692 778.504 571.449 776.261 568.682 776.261C565.915 776.261 563.672 778.504 563.672 781.271Z" fill="#15E9AC" fill-opacity="0.4"/>
<path d="M571.893 761.857H561.873V771.877H571.893V761.857Z" fill="#15E9AC" fill-opacity="0.4"/>
<path d="M561.873 766.867C561.873 769.634 564.116 771.877 566.883 771.877C569.65 771.877 571.893 769.634 571.893 766.867C571.893 764.1 569.65 761.857 566.883 761.857C564.116 761.857 561.873 764.1 561.873 766.867Z" fill="#15E9AC" fill-opacity="0.4"/>
<path d="M568.078 747.815H558.058V757.834H568.078V747.815Z" fill="#15E9AC" fill-opacity="0.4"/>
<path d="M558.058 752.824C558.058 755.591 560.301 757.834 563.068 757.834C565.835 757.834 568.078 755.591 568.078 752.824C568.078 750.058 565.835 747.815 563.068 747.815C560.301 747.815 558.058 750.058 558.058 752.824Z" fill="#15E9AC" fill-opacity="0.4"/>
<path d="M564.263 733.772H554.243V743.791H564.263V733.772Z" fill="#15E9AC" fill-opacity="0.4"/>
<path d="M554.243 738.781C554.243 741.548 556.486 743.791 559.253 743.791C562.02 743.791 564.263 741.548 564.263 738.781C564.263 736.015 562.02 733.772 559.253 733.772C556.486 733.772 554.243 736.015 554.243 738.781Z" fill="#15E9AC" fill-opacity="0.4"/>
<path d="M560.448 719.727H550.429V729.746H560.448V719.727Z" fill="#15E9AC" fill-opacity="0.4"/>
<path d="M550.429 724.737C550.429 727.504 552.671 729.746 555.438 729.746C558.205 729.746 560.448 727.504 560.448 724.737C560.448 721.97 558.205 719.727 555.438 719.727C552.671 719.727 550.429 721.97 550.429 724.737Z" fill="#15E9AC" fill-opacity="0.4"/>
<path d="M556.633 705.684H546.614V715.704H556.633V705.684Z" fill="#15E9AC" fill-opacity="0.4"/>
<path d="M546.614 710.694C546.614 713.461 548.857 715.704 551.623 715.704C554.39 715.704 556.633 713.461 556.633 710.694C556.633 707.927 554.39 705.684 551.623 705.684C548.857 705.684 546.614 707.927 546.614 710.694Z" fill="#15E9AC" fill-opacity="0.4"/>
<path d="M519.287 634.076H509.268V644.096H519.287V634.076Z" fill="#15E9AC" fill-opacity="0.4"/>
<path d="M509.268 639.086C509.268 641.853 511.51 644.096 514.277 644.096C517.044 644.096 519.287 641.853 519.287 639.086C519.287 636.319 517.044 634.076 514.277 634.076C511.51 634.076 509.268 636.319 509.268 639.086Z" fill="#15E9AC" fill-opacity="0.4"/>
<path d="M510.598 622.403H500.578V632.422H510.598V622.403Z" fill="#15E9AC" fill-opacity="0.4"/>
<path d="M500.578 627.413C500.578 630.18 502.821 632.422 505.588 632.422C508.355 632.422 510.598 630.18 510.598 627.413C510.598 624.646 508.355 622.403 505.588 622.403C502.821 622.403 500.578 624.646 500.578 627.413Z" fill="#15E9AC" fill-opacity="0.4"/>
<path d="M501.908 610.73H491.889V620.749H501.908V610.73Z" fill="#15E9AC" fill-opacity="0.4"/>
<path d="M491.889 615.74C491.889 618.507 494.132 620.749 496.899 620.749C499.665 620.749 501.908 618.507 501.908 615.74C501.908 612.973 499.665 610.73 496.899 610.73C494.132 610.73 491.889 612.973 491.889 615.74Z" fill="#15E9AC" fill-opacity="0.4"/>
<path d="M493.219 599.056H483.199V609.076H493.219V599.056Z" fill="#15E9AC" fill-opacity="0.4"/>
<path d="M483.199 604.066C483.199 606.833 485.442 609.076 488.209 609.076C490.976 609.076 493.219 606.833 493.219 604.066C493.219 601.299 490.976 599.056 488.209 599.056C485.442 599.056 483.199 601.299 483.199 604.066Z" fill="#15E9AC" fill-opacity="0.4"/>
<path d="M483.765 588.072H473.746V598.092H483.765V588.072Z" fill="#15E9AC" fill-opacity="0.4"/>
<path d="M473.746 593.082C473.746 595.849 475.988 598.092 478.755 598.092C481.522 598.092 483.765 595.849 483.765 593.082C483.765 590.315 481.522 588.072 478.755 588.072C475.988 588.072 473.746 590.315 473.746 593.082Z" fill="#15E9AC" fill-opacity="0.4"/>
<path d="M473.065 578.21H463.045V588.23H473.065V578.21Z" fill="#15E9AC" fill-opacity="0.4"/>
<path d="M463.045 583.22C463.045 585.987 465.288 588.23 468.055 588.23C470.822 588.23 473.065 585.987 473.065 583.22C473.065 580.453 470.822 578.21 468.055 578.21C465.288 578.21 463.045 580.453 463.045 583.22Z" fill="#15E9AC" fill-opacity="0.4"/>
<path d="M462.362 568.349H452.343V578.369H462.362V568.349Z" fill="#15E9AC" fill-opacity="0.4"/>
<path d="M452.343 573.359C452.343 576.126 454.586 578.369 457.353 578.369C460.12 578.369 462.362 576.126 462.362 573.359C462.362 570.592 460.12 568.349 457.353 568.349C454.586 568.349 452.343 570.592 452.343 573.359Z" fill="#15E9AC" fill-opacity="0.4"/>
<path d="M451.663 558.487H441.643V568.506H451.663V558.487Z" fill="#15E9AC" fill-opacity="0.4"/>
<path d="M441.643 563.496C441.643 566.263 443.886 568.506 446.653 568.506C449.42 568.506 451.663 566.263 451.663 563.496C451.663 560.729 449.42 558.487 446.653 558.487C443.886 558.487 441.643 560.729 441.643 563.496Z" fill="#15E9AC" fill-opacity="0.4"/>
<path d="M440.961 548.625H430.941V558.645H440.961V548.625Z" fill="#15E9AC" fill-opacity="0.4"/>
<path d="M430.941 553.635C430.941 556.402 433.184 558.645 435.951 558.645C438.718 558.645 440.961 556.402 440.961 553.635C440.961 550.868 438.718 548.625 435.951 548.625C433.184 548.625 430.941 550.868 430.941 553.635Z" fill="#15E9AC" fill-opacity="0.4"/>
<path d="M428.845 540.621H418.826V550.64H428.845V540.621Z" fill="#15E9AC" fill-opacity="0.4"/>
<path d="M418.826 545.63C418.826 548.397 421.069 550.64 423.835 550.64C426.602 550.64 428.845 548.397 428.845 545.63C428.845 542.864 426.602 540.621 423.835 540.621C421.069 540.621 418.826 542.864 418.826 545.63Z" fill="#15E9AC" fill-opacity="0.4"/>
<path d="M416.498 532.919H406.478V542.939H416.498V532.919Z" fill="#15E9AC" fill-opacity="0.4"/>
<path d="M406.478 537.93C406.478 540.697 408.721 542.94 411.488 542.94C414.255 542.94 416.498 540.697 416.498 537.93C416.498 535.163 414.255 532.92 411.488 532.92C408.721 532.92 406.478 535.162 406.478 537.93Z" fill="#15E9AC" fill-opacity="0.4"/>
<path d="M404.15 525.219H394.131V535.239H404.15V525.219Z" fill="#15E9AC" fill-opacity="0.4"/>
<path d="M394.131 530.229C394.131 532.996 396.374 535.239 399.141 535.239C401.907 535.239 404.15 532.996 404.15 530.229C404.15 527.462 401.907 525.219 399.141 525.219C396.374 525.219 394.131 527.462 394.131 530.229Z" fill="#15E9AC" fill-opacity="0.4"/>
<path d="M391.803 517.518H381.783V527.537H391.803V517.518Z" fill="#15E9AC" fill-opacity="0.4"/>
<path d="M381.783 522.528C381.783 525.294 384.026 527.537 386.793 527.537C389.56 527.537 391.803 525.294 391.803 522.528C391.803 519.761 389.56 517.518 386.793 517.518C384.026 517.518 381.783 519.761 381.783 522.528Z" fill="#15E9AC" fill-opacity="0.4"/>
<path d="M379.063 510.599H369.044V520.618H379.063V510.599Z" fill="#15E9AC" fill-opacity="0.4"/>
<path d="M369.044 515.609C369.044 518.376 371.287 520.618 374.054 520.618C376.82 520.618 379.063 518.376 379.063 515.609C379.063 512.842 376.82 510.599 374.054 510.599C371.288 510.599 369.044 512.842 369.044 515.609Z" fill="#15E9AC" fill-opacity="0.4"/>
<path d="M365.484 505.367H355.465V515.387H365.484V505.367Z" fill="#15E9AC" fill-opacity="0.4"/>
<path d="M355.465 510.377C355.465 513.144 357.708 515.387 360.475 515.387C363.242 515.387 365.484 513.144 365.484 510.377C365.484 507.61 363.242 505.367 360.475 505.367C357.708 505.367 355.465 507.61 355.465 510.377Z" fill="#15E9AC" fill-opacity="0.4"/>
<path d="M351.906 500.136H341.886V510.155H351.906V500.136Z" fill="#15E9AC" fill-opacity="0.4"/>
<path d="M341.886 505.145C341.886 507.912 344.129 510.155 346.896 510.155C349.663 510.155 351.906 507.912 351.906 505.145C351.906 502.379 349.663 500.136 346.896 500.136C344.129 500.136 341.886 502.379 341.886 505.145Z" fill="#15E9AC" fill-opacity="0.4"/>
<path d="M338.326 494.904H328.307V504.923H338.326V494.904Z" fill="#15E9AC" fill-opacity="0.4"/>
<path d="M328.307 499.914C328.307 502.68 330.55 504.923 333.317 504.923C336.084 504.923 338.326 502.68 338.326 499.914C338.326 497.147 336.084 494.904 333.317 494.904C330.55 494.904 328.307 497.147 328.307 499.914Z" fill="#15E9AC" fill-opacity="0.4"/>
<path d="M324.747 489.672H314.728V499.692H324.747V489.672Z" fill="#15E9AC" fill-opacity="0.4"/>
<path d="M314.728 494.682C314.728 497.449 316.971 499.692 319.738 499.692C322.505 499.692 324.747 497.449 324.747 494.682C324.747 491.915 322.505 489.672 319.738 489.672C316.971 489.672 314.728 491.915 314.728 494.682Z" fill="#15E9AC" fill-opacity="0.4"/>
<path d="M310.628 486.383H300.608V496.403H310.628V486.383Z" fill="#15E9AC" fill-opacity="0.4"/>
<path d="M300.608 491.393C300.608 494.16 302.851 496.403 305.618 496.403C308.385 496.403 310.628 494.16 310.628 491.393C310.628 488.626 308.385 486.383 305.618 486.383C302.853 486.383 300.608 488.628 300.608 491.393Z" fill="#15E9AC" fill-opacity="0.4"/>
<path d="M296.294 483.868H286.275V493.888H296.294V483.868Z" fill="#15E9AC" fill-opacity="0.4"/>
<path d="M286.275 488.878C286.275 491.645 288.518 493.888 291.285 493.888C294.052 493.888 296.294 491.645 296.294 488.878C296.294 486.111 294.052 483.868 291.285 483.868C288.52 483.868 286.275 486.113 286.275 488.878Z" fill="#15E9AC" fill-opacity="0.4"/>
<path d="M281.961 481.353H271.942V491.373H281.961V481.353Z" fill="#15E9AC" fill-opacity="0.4"/>
<path d="M271.942 486.363C271.942 489.13 274.185 491.373 276.951 491.373C279.718 491.373 281.961 489.13 281.961 486.363C281.961 483.596 279.718 481.353 276.951 481.353C274.186 481.353 271.942 483.596 271.942 486.363Z" fill="#15E9AC" fill-opacity="0.4"/>
<path d="M267.628 478.839H257.608V488.858H267.628V478.839Z" fill="#15E9AC" fill-opacity="0.4"/>
<path d="M257.608 483.848C257.608 486.615 259.851 488.858 262.618 488.858C265.385 488.858 267.628 486.615 267.628 483.848C267.628 481.082 265.385 478.839 262.618 478.839C259.851 478.839 257.608 481.082 257.608 483.848Z" fill="#15E9AC" fill-opacity="0.4"/>
<path d="M253.295 476.323H243.275V486.343H253.295V476.323Z" fill="#15E9AC" fill-opacity="0.4"/>
<path d="M243.275 481.333C243.275 484.1 245.518 486.343 248.285 486.343C251.052 486.343 253.295 484.1 253.295 481.333C253.295 478.566 251.052 476.323 248.285 476.323C245.518 476.323 243.275 478.566 243.275 481.333Z" fill="#15E9AC" fill-opacity="0.4"/>
<path d="M221.147 894.478C200.484 894.478 181.233 884.242 169.648 867.098L173.034 864.81C183.856 880.829 201.843 890.393 221.147 890.393C253.14 890.393 279.168 864.365 279.168 832.372C279.168 806.8 262.775 784.528 238.376 776.952L239.586 773.05C265.704 781.159 283.251 804.999 283.251 832.372C283.253 866.619 255.392 894.478 221.147 894.478Z" fill="#15E9AC" fill-opacity="0.4"/>
<path d="M295.721 878.752L287.63 873.708C295.345 861.331 299.422 847.038 299.422 832.372C299.422 806.037 286.295 781.623 264.307 767.061L269.571 759.114C294.23 775.445 308.954 802.831 308.954 832.372C308.954 848.822 304.378 864.859 295.721 878.752Z" fill="#15E9AC" fill-opacity="0.4"/>
<path d="M363.03 869.128L343.276 863.921L343.45 863.262C346.216 852.765 347.618 841.888 347.618 830.927C347.618 813.851 344.276 797.288 337.684 781.701L337.42 781.076L356.233 773.119L356.498 773.746C364.161 791.861 368.046 811.099 368.046 830.927C368.046 843.645 366.417 856.276 363.203 868.469L363.03 869.128ZM344.938 862.952L362.057 867.464C365.127 855.591 366.683 843.302 366.683 830.929C366.683 811.514 362.921 792.669 355.505 774.904L339.201 781.802C345.691 797.373 348.98 813.897 348.98 830.929C348.982 841.776 347.62 852.547 344.938 862.952Z" fill="#15E9AC" fill-opacity="0.4"/>
<path d="M329.667 765.938L329.313 765.357C325.126 758.467 320.25 751.937 314.815 745.949L314.357 745.445L329.48 731.716L329.937 732.22C336.245 739.167 341.909 746.747 346.77 754.75L347.123 755.333L329.667 765.938ZM316.28 745.539C321.437 751.283 326.091 757.509 330.123 764.067L345.252 754.875C340.633 747.354 335.299 740.215 329.387 733.64L316.28 745.539Z" fill="#15E9AC" fill-opacity="0.4"/>
<path d="M296.183 729.108L295.632 728.707C280.273 717.493 262.293 709.796 243.641 706.45L242.97 706.33L246.576 686.225L247.247 686.345C268.931 690.236 289.826 699.179 307.676 712.208L308.225 712.61L296.183 729.108ZM244.55 705.232C262.944 708.636 280.663 716.221 295.884 727.207L306.322 712.909C288.945 700.349 268.698 691.682 247.678 687.807L244.55 705.232Z" fill="#15E9AC" fill-opacity="0.4"/>
<path d="M201.981 782.758L201.299 780.867L159.784 666.04L161.718 665.353C180.781 658.569 200.775 655.13 221.147 655.13L224.32 655.158V779.293L221.773 779.236C221.566 779.23 221.358 779.221 221.147 779.221C215.262 779.221 209.453 780.191 203.884 782.105L201.981 782.758ZM165.028 668.524L204.471 777.621C209.589 776.061 214.879 775.228 220.235 775.143V659.217C201.336 659.315 182.777 662.444 165.028 668.524Z" fill="#15E9AC" fill-opacity="0.4"/>
<path d="M222.761 788.698H220.473V797.73H222.761V788.698Z" fill="#15E9AC" fill-opacity="0.4"/>
<path d="M217.122 788.894L214.852 789.181L215.984 798.141L218.254 797.854L217.122 788.894Z" fill="#15E9AC" fill-opacity="0.4"/>
<path d="M263.946 848.456L264.653 846.281L256.064 843.489L255.357 845.665L263.946 848.456Z" fill="#15E9AC" fill-opacity="0.4"/>
<path d="M265.442 843.057L265.871 840.81L256.999 839.117L256.57 841.364L265.442 843.057Z" fill="#15E9AC" fill-opacity="0.4"/>
<path d="M266.323 837.5L266.467 835.216L257.454 834.649L257.31 836.932L266.323 837.5Z" fill="#15E9AC" fill-opacity="0.4"/>
<path d="M266.467 831.867L266.323 829.584L257.31 830.151L257.454 832.434L266.467 831.867Z" fill="#15E9AC" fill-opacity="0.4"/>
<path d="M265.873 826.277L265.444 824.03L256.572 825.723L257.001 827.97L265.873 826.277Z" fill="#15E9AC" fill-opacity="0.4"/>
<path d="M264.657 820.737L263.951 818.562L255.362 821.352L256.068 823.528L264.657 820.737Z" fill="#15E9AC" fill-opacity="0.4"/>
<path d="M262.699 815.491L261.725 813.421L253.553 817.267L254.527 819.337L262.699 815.491Z" fill="#15E9AC" fill-opacity="0.4"/>
<path d="M260.126 810.472L258.9 808.54L251.275 813.379L252.501 815.311L260.126 810.472Z" fill="#15E9AC" fill-opacity="0.4"/>
<path d="M256.919 805.83L255.461 804.067L248.502 809.824L249.96 811.586L256.919 805.83Z" fill="#15E9AC" fill-opacity="0.4"/>
<path d="M253.189 801.66L251.521 800.094L245.339 806.678L247.006 808.244L253.189 801.66Z" fill="#15E9AC" fill-opacity="0.4"/>
<path d="M248.897 797.927L247.046 796.582L241.738 803.889L243.589 805.233L248.897 797.927Z" fill="#15E9AC" fill-opacity="0.4"/>
<path d="M244.199 794.798L242.194 793.696L237.843 801.61L239.848 802.713L244.199 794.798Z" fill="#15E9AC" fill-opacity="0.4"/>
<path d="M239.215 792.289L237.087 791.447L233.763 799.844L235.89 800.686L239.215 792.289Z" fill="#15E9AC" fill-opacity="0.4"/>
<path d="M233.842 790.398L231.626 789.829L229.38 798.577L231.596 799.146L233.842 790.398Z" fill="#15E9AC" fill-opacity="0.4"/>
<path d="M228.38 789.181L226.111 788.894L224.979 797.854L227.249 798.141L228.38 789.181Z" fill="#15E9AC" fill-opacity="0.4"/>
<path d="M342.984 827.692L342.596 821.528L318.266 823.059L318.654 829.223L342.984 827.692Z" fill="#15E9AC" fill-opacity="0.4"/>
<path d="M341.433 812.573L340.276 806.506L316.328 811.075L317.485 817.142L341.433 812.573Z" fill="#15E9AC" fill-opacity="0.4"/>
<path d="M337.996 797.721L336.088 791.847L312.9 799.38L314.809 805.254L337.996 797.721Z" fill="#15E9AC" fill-opacity="0.4"/>
<path d="M332.822 783.469L330.192 777.881L308.133 788.262L310.763 793.85L332.822 783.469Z" fill="#15E9AC" fill-opacity="0.4"/>
<path d="M325.83 769.922L322.521 764.708L301.937 777.77L305.247 782.985L325.83 769.922Z" fill="#15E9AC" fill-opacity="0.4"/>
<path d="M317.206 757.409L313.269 752.65L294.485 768.189L298.422 772.948L317.206 757.409Z" fill="#15E9AC" fill-opacity="0.4"/>
<path d="M269.399 720.804L263.656 718.531L254.682 741.199L260.425 743.472L269.399 720.804Z" fill="#15E9AC" fill-opacity="0.4"/>
<path d="M255.04 715.735L249.058 714.199L242.995 737.813L248.977 739.349L255.04 715.735Z" fill="#15E9AC" fill-opacity="0.4"/>
<path d="M240.199 712.482L234.071 711.708L231.016 735.895L237.144 736.668L240.199 712.482Z" fill="#15E9AC" fill-opacity="0.4"/>
<path d="M69.5839 688.417L68.4575 687.379L-69.46 560.275L-68.8375 559.192C-22.1647 478.002 116.716 419.369 216.92 438.522C216.97 438.522 217.047 438.517 217.12 438.514C217.236 438.509 217.352 438.517 217.464 438.504L218.986 438.51L223.367 623.352L221.151 623.334C163.874 623.334 110.423 646.056 70.6503 687.314L69.5839 688.417ZM-65.4966 559.673L69.4571 684.043C109.483 643.101 162.906 620.464 220.156 620.207L215.922 441.521C168.563 432.579 109.742 440.952 54.463 464.522C0.0402985 487.726 -43.5953 522.355 -65.4966 559.673Z" fill="#15E9AC" fill-opacity="0.4"/>
<path d="M373.356 689.088L372.25 687.932C352.201 666.963 328.526 650.671 301.883 639.505L300.458 638.908L332.648 558.997L334.109 559.603C371.542 575.123 404.88 597.82 433.202 627.064L434.274 628.171L373.356 689.088ZM304.515 637.219C330.49 648.323 353.653 664.26 373.403 684.614L429.878 628.139C402.46 600.113 370.342 578.244 334.37 563.104L304.515 637.219Z" fill="#15E9AC" fill-opacity="0.4"/>
<path d="M454.753 1012.8L385.49 961.557L386.47 960.292C413.739 925.099 428.824 882.959 430.089 838.425L430.132 836.903H516.275L516.243 838.5C514.957 901.641 494.015 961.49 455.686 1011.58L454.753 1012.8ZM389.921 960.941L454.136 1008.45C491.141 959.571 511.499 901.4 513.078 840.034H433.171C431.607 884.142 416.676 925.883 389.921 960.941Z" fill="#15E9AC" fill-opacity="0.4"/>
<path d="M416.74 758.802L635.617 658.315L607.959 649.731L477.297 703.141L437.239 689.789L394.321 716.493C394.321 716.493 408.157 735.914 416.74 758.802Z" fill="#15E9AC" fill-opacity="0.4"/>
<path d="M644.427 855.017L645.019 845.611L588.584 842.059L587.992 851.466L644.427 855.017Z" fill="#15E9AC" fill-opacity="0.4"/>
<path d="M643.939 801.809L643.347 792.403L586.911 795.954L587.503 805.36L643.939 801.809Z" fill="#15E9AC" fill-opacity="0.4"/>
<path d="M636.743 749.078L634.976 739.819L579.429 750.416L581.195 759.675L636.743 749.078Z" fill="#15E9AC" fill-opacity="0.4"/>
<path d="M545.206 559.134L539.198 551.872L495.627 587.916L501.635 595.178L545.206 559.134Z" fill="#15E9AC" fill-opacity="0.4"/>
<path d="M508.438 520.692L501.567 514.241L462.859 555.465L469.73 561.916L508.438 520.692Z" fill="#15E9AC" fill-opacity="0.4"/>
<path d="M467.07 487.141L459.445 481.601L426.206 527.349L433.831 532.889L467.07 487.141Z" fill="#15E9AC" fill-opacity="0.4"/>
<path d="M421.854 459.05L413.595 454.509L386.35 504.063L394.609 508.604L421.854 459.05Z" fill="#15E9AC" fill-opacity="0.4"/>
<path d="M373.51 436.837L364.746 433.367L343.93 485.946L352.694 489.416L373.51 436.837Z" fill="#15E9AC" fill-opacity="0.4"/>
<path d="M322.718 420.862L313.589 418.518L299.525 473.291L308.654 475.635L322.718 420.862Z" fill="#15E9AC" fill-opacity="0.4"/>
<path d="M1644.75 100.336C1624.3 88.125 1608.4 69.1641 1600.01 46.9441L1607.7 44.0371C1615.44 64.5249 1630.1 82.0122 1648.97 93.2749L1644.75 100.336Z" fill="#15E9AC" fill-opacity="0.4"/>
<path d="M1698.79 115.195C1688.2 115.195 1677.75 113.631 1667.71 110.547L1670.13 102.687C1679.38 105.531 1689.02 106.972 1698.79 106.972C1711.3 106.972 1723.48 104.633 1734.98 100.022L1738.04 107.653C1725.56 112.658 1712.35 115.195 1698.79 115.195Z" fill="#15E9AC" fill-opacity="0.4"/>
<path d="M1698.79 28.5639C1688.34 28.5639 1679.85 20.0681 1679.85 9.62644C1679.85 -0.816875 1688.35 -9.31104 1698.79 -9.31104C1709.23 -9.31104 1717.72 -0.815206 1717.72 9.62644C1717.73 20.0697 1709.23 28.5639 1698.79 28.5639ZM1698.79 -8.48999C1688.8 -8.48999 1680.67 -0.362963 1680.67 9.62644C1680.67 19.6158 1688.8 27.7429 1698.79 27.7429C1708.78 27.7429 1716.9 19.6158 1716.9 9.62644C1716.9 -0.362963 1708.78 -8.48999 1698.79 -8.48999Z" fill="#15E9AC" fill-opacity="0.4"/>
<path d="M1553.86 140.774C1521.27 104.788 1503.33 58.2134 1503.33 9.62643C1503.33 -35.1323 1518.05 -77.246 1545.9 -112.164L1550.4 -108.574C1523.37 -74.6877 1509.09 -33.8139 1509.09 9.62643C1509.09 56.7815 1526.5 101.984 1558.12 136.909L1553.86 140.774Z" fill="#15E9AC" fill-opacity="0.4"/>
<path d="M1615.01 186.267C1600.47 179.358 1586.78 170.64 1574.34 160.354L1578.01 155.918C1590.09 165.903 1603.37 174.363 1617.47 181.069L1615.01 186.267Z" fill="#15E9AC" fill-opacity="0.4"/>
<path d="M1698.79 205.084C1694.83 205.084 1690.83 204.964 1686.89 204.729L1687.24 198.983C1691.06 199.213 1694.94 199.328 1698.79 199.328C1742.75 199.328 1785.61 183.944 1819.45 156.01L1823.12 160.449C1788.24 189.234 1744.09 205.084 1698.79 205.084Z" fill="#15E9AC" fill-opacity="0.4"/>
<path d="M1698.86 125.902L1698.86 124.668C1702.02 124.667 1705.22 124.533 1708.36 124.276L1708.46 125.504C1705.29 125.766 1702.06 125.9 1698.86 125.902ZM1689.26 125.516C1686.07 125.259 1682.86 124.864 1679.73 124.346L1679.93 123.13C1683.03 123.644 1686.2 124.033 1689.36 124.288L1689.26 125.516ZM1717.99 124.325L1717.79 123.108C1720.91 122.591 1724.04 121.937 1727.09 121.162L1727.39 122.359C1724.3 123.138 1721.14 123.799 1717.99 124.325ZM1670.32 122.392C1667.23 121.614 1664.13 120.695 1661.11 119.662L1661.51 118.494C1664.5 119.517 1667.56 120.426 1670.62 121.196L1670.32 122.392ZM1736.6 119.614L1736.2 118.447C1739.18 117.421 1742.16 116.258 1745.05 114.988L1745.54 116.116C1742.62 117.401 1739.62 118.577 1736.6 119.614ZM1652.15 116.171C1649.23 114.891 1646.32 113.469 1643.51 111.949L1644.1 110.866C1646.88 112.371 1649.75 113.776 1652.64 115.043L1652.15 116.171ZM1754.17 111.892L1753.58 110.807C1756.35 109.304 1759.1 107.663 1761.74 105.933L1762.41 106.964C1759.74 108.715 1756.97 110.372 1754.17 111.892ZM1635.26 107.028C1632.59 105.284 1629.96 103.405 1627.43 101.442L1628.19 100.469C1630.69 102.41 1633.29 104.269 1635.93 105.995L1635.26 107.028ZM1770.22 101.374L1769.47 100.401C1771.95 98.4633 1774.39 96.3956 1776.72 94.2529L1777.55 95.1607C1775.2 97.3251 1772.74 99.4162 1770.22 101.374ZM1620.1 95.2325C1617.75 93.0731 1615.47 90.7885 1613.3 88.4438L1614.21 87.6078C1616.35 89.929 1618.61 92.1886 1620.94 94.3263L1620.1 95.2325ZM1784.35 88.3637L1783.44 87.5293C1785.57 85.2097 1787.64 82.7699 1789.59 80.2767L1790.56 81.0344C1788.59 83.5543 1786.51 86.0207 1784.35 88.3637ZM1607.08 81.1195C1605.12 78.603 1603.24 75.9746 1601.49 73.3095L1602.52 72.6337C1604.25 75.2704 1606.11 77.8687 1608.05 80.3602L1607.08 81.1195ZM1796.15 73.2177L1795.12 72.5419C1796.85 69.8969 1798.49 67.15 1799.99 64.3782L1801.07 64.9656C1799.56 67.7658 1797.9 70.5427 1796.15 73.2177ZM1596.56 65.069C1595.03 62.2655 1593.61 59.3651 1592.32 56.448L1593.45 55.9507C1594.73 58.8378 1596.13 61.7064 1597.64 64.4799L1596.56 65.069ZM1805.3 56.3296L1804.17 55.8339C1805.44 52.9386 1806.61 49.9581 1807.63 46.9726L1808.8 47.3731C1807.76 50.3903 1806.59 53.4025 1805.3 56.3296ZM1588.82 47.5083C1587.78 44.4911 1586.86 41.3922 1586.08 38.3016L1587.27 37.9979C1588.05 41.0551 1588.96 44.1207 1589.99 47.1061L1588.82 47.5083ZM1811.53 38.1631L1810.34 37.861C1811.11 34.8071 1811.76 31.6765 1812.28 28.5575L1813.49 28.7578C1812.97 31.9118 1812.32 35.0758 1811.53 38.1631ZM1584.1 28.8979C1583.58 25.7522 1583.18 22.5448 1582.92 19.3658L1584.14 19.264C1584.4 22.408 1584.8 25.582 1585.32 28.6943L1584.1 28.8979ZM1814.67 19.2256L1813.44 19.1238C1813.7 15.9898 1813.83 12.7941 1813.83 9.62669V9.34634H1815.06L1815.06 9.62168C1815.06 12.8274 1814.93 16.0582 1814.67 19.2256ZM1583.75 9.76688H1582.51V9.6367C1582.51 6.47935 1582.64 3.29863 1582.89 0.16964L1584.12 0.269768C1583.87 3.36538 1583.75 6.5144 1583.75 9.62836V9.76688ZM1813.42 -0.150772C1813.15 -3.30312 1812.76 -6.4755 1812.23 -9.57946L1813.45 -9.78305C1813.98 -6.64572 1814.38 -3.43829 1814.65 -0.252571L1813.42 -0.150772ZM1585.27 -9.1656L1584.06 -9.36419C1584.57 -12.5199 1585.23 -15.6839 1586 -18.7712L1587.2 -18.4708C1586.43 -15.4186 1585.78 -12.2862 1585.27 -9.1656ZM1810.27 -18.8796C1809.49 -21.9352 1808.57 -24.9991 1807.54 -27.9846L1808.71 -28.3868C1809.75 -25.3679 1810.68 -22.2723 1811.46 -19.1834L1810.27 -18.8796ZM1589.9 -27.5874L1588.73 -27.9863C1589.76 -31.0084 1590.93 -34.024 1592.21 -36.9477L1593.34 -36.4537C1592.08 -33.56 1590.92 -30.5762 1589.9 -27.5874ZM1804.07 -36.8242C1802.79 -39.7112 1801.38 -42.5799 1799.87 -45.3484L1800.95 -45.9391C1802.48 -43.1406 1803.9 -40.2419 1805.19 -37.3232L1804.07 -36.8242ZM1597.52 -44.9996L1596.43 -45.5854C1597.95 -48.3906 1599.6 -51.1691 1601.35 -53.8442L1602.38 -53.17C1600.65 -50.5233 1599.02 -47.7748 1597.52 -44.9996ZM1794.98 -53.4988C1793.25 -56.1305 1791.39 -58.7271 1789.44 -61.2186L1790.41 -61.9779C1792.38 -59.4614 1794.26 -56.8364 1796.01 -54.1763L1794.98 -53.4988ZM1607.9 -60.9132L1606.93 -61.6692C1608.88 -64.1841 1610.97 -66.6539 1613.13 -69.0069L1614.04 -68.1741C1611.9 -65.8445 1609.84 -63.4014 1607.9 -60.9132ZM1783.27 -68.4578C1781.13 -70.7758 1778.86 -73.032 1776.54 -75.1664L1777.37 -76.0759C1779.72 -73.9198 1782.01 -71.6386 1784.18 -69.2956L1783.27 -68.4578ZM1620.76 -74.9061L1619.92 -75.8122C1622.26 -77.975 1624.72 -80.0693 1627.24 -82.0352L1628 -81.0639C1625.51 -79.1181 1623.07 -77.0471 1620.76 -74.9061ZM1769.27 -81.2992C1766.78 -83.2367 1764.17 -85.0924 1761.53 -86.8162L1762.2 -87.8492C1764.87 -86.107 1767.51 -84.2313 1770.03 -82.2738L1769.27 -81.2992ZM1635.72 -86.6043L1635.04 -87.6356C1637.71 -89.3879 1640.48 -91.0483 1643.28 -92.5719L1643.87 -91.4872C1641.11 -89.9803 1638.36 -88.3365 1635.72 -86.6043ZM1753.35 -91.6758C1750.58 -93.1744 1747.7 -94.5761 1744.8 -95.8428L1745.3 -96.9725C1748.23 -95.6909 1751.14 -94.2741 1753.94 -92.7605L1753.35 -91.6758ZM1652.4 -95.6792L1651.9 -96.809C1654.82 -98.0939 1657.82 -99.2755 1660.84 -100.315L1661.24 -99.1486C1658.26 -98.1173 1655.28 -96.9508 1652.4 -95.6792ZM1735.94 -99.2855C1732.95 -100.303 1729.88 -101.208 1726.82 -101.976L1727.12 -103.172C1730.22 -102.396 1733.32 -101.482 1736.33 -100.452L1735.94 -99.2855ZM1670.35 -101.872L1670.05 -103.067C1673.14 -103.853 1676.3 -104.517 1679.45 -105.044L1679.65 -103.828C1676.54 -103.307 1673.4 -102.65 1670.35 -101.872ZM1717.51 -103.898C1714.4 -104.409 1711.22 -104.792 1708.08 -105.044L1708.17 -106.274C1711.35 -106.021 1714.56 -105.63 1717.71 -105.116L1717.51 -103.898ZM1689.08 -105.011L1688.98 -106.239C1692.15 -106.505 1695.38 -106.643 1698.58 -106.648L1698.58 -105.415C1695.42 -105.408 1692.22 -105.273 1689.08 -105.011Z" fill="#15E9AC" fill-opacity="0.4"/>
<path d="M1698.95 282.468L1698.95 279.574C1706.37 279.571 1713.87 279.26 1721.24 278.654L1721.48 281.538C1714.03 282.151 1706.46 282.464 1698.95 282.468ZM1676.43 281.565C1668.96 280.959 1661.43 280.036 1654.06 278.82L1654.53 275.964C1661.83 277.168 1669.27 278.082 1676.67 278.681L1676.43 281.565ZM1743.85 278.763L1743.37 275.908C1750.68 274.693 1758.03 273.158 1765.2 271.342L1765.91 274.147C1758.66 275.983 1751.24 277.535 1743.85 278.763ZM1631.99 274.231C1624.73 272.403 1617.45 270.247 1610.37 267.822L1611.31 265.084C1618.31 267.482 1625.51 269.615 1632.69 271.422L1631.99 274.231ZM1787.52 267.714L1786.58 264.977C1793.57 262.571 1800.56 259.841 1807.34 256.86L1808.5 259.51C1801.65 262.524 1794.59 265.282 1787.52 267.714ZM1589.35 259.632C1582.49 256.626 1575.67 253.292 1569.08 249.726L1570.46 247.181C1576.98 250.709 1583.72 254.006 1590.51 256.982L1589.35 259.632ZM1828.74 249.592L1827.35 247.049C1833.86 243.52 1840.3 239.671 1846.5 235.611L1848.08 238.033C1841.82 242.135 1835.31 246.025 1828.74 249.592ZM1549.71 238.178C1543.45 234.086 1537.28 229.675 1531.36 225.071L1533.14 222.788C1538.99 227.344 1545.1 231.706 1551.29 235.755L1549.71 238.178ZM1866.42 224.916L1864.64 222.633C1870.48 218.077 1876.2 213.223 1881.65 208.205L1883.61 210.332C1878.11 215.406 1872.32 220.312 1866.42 224.916ZM1514.15 210.503C1508.64 205.438 1503.27 200.078 1498.19 194.572L1500.32 192.61C1505.35 198.058 1510.66 203.362 1516.11 208.373L1514.15 210.503ZM1899.55 194.389L1897.42 192.428C1902.44 186.976 1907.29 181.25 1911.85 175.408L1914.13 177.187C1909.53 183.091 1904.62 188.878 1899.55 194.389ZM1483.6 177.387C1479 171.49 1474.58 165.323 1470.47 159.064L1472.89 157.477C1476.95 163.671 1481.32 169.771 1485.88 175.606L1483.6 177.387ZM1927.25 158.842L1924.83 157.256C1928.88 151.059 1932.73 144.614 1936.26 138.095L1938.81 139.475C1935.24 146.062 1931.35 152.577 1927.25 158.842ZM1458.9 139.721C1455.33 133.147 1451.99 126.342 1448.97 119.493L1451.62 118.325C1454.6 125.102 1457.91 131.836 1461.44 138.339L1458.9 139.721ZM1948.73 119.215L1946.08 118.051C1949.06 111.261 1951.79 104.266 1954.19 97.2583L1956.93 98.1978C1954.5 105.282 1951.74 112.353 1948.73 119.215ZM1440.75 98.5149C1438.32 91.4359 1436.15 84.1683 1434.31 76.9124L1437.11 76.2014C1438.93 83.3806 1441.08 90.5714 1443.49 97.5737L1440.75 98.5149ZM1963.35 76.5869L1960.54 75.8794C1962.36 68.6985 1963.89 61.3525 1965.1 54.0465L1967.95 54.5188C1966.73 61.9049 1965.18 69.3293 1963.35 76.5869ZM1429.68 54.8492C1428.45 47.4765 1427.51 39.9502 1426.89 32.4807L1429.77 32.2421C1430.39 39.6331 1431.31 47.0793 1432.53 54.3719L1429.68 54.8492ZM1970.71 32.1469L1967.83 31.9117C1968.43 24.5523 1968.73 17.0544 1968.73 9.62823V8.97574L1971.63 8.96408V9.62823C1971.63 17.1311 1971.32 24.7091 1970.71 32.1469ZM1428.84 9.95532H1425.95V9.62656C1425.95 2.2338 1426.24 -5.23236 1426.84 -12.565L1429.72 -12.3331C1429.13 -5.07886 1428.84 2.31058 1428.84 9.62491V9.95532ZM1967.77 -13.3143C1967.15 -20.7038 1966.21 -28.1483 1964.99 -35.4409L1967.84 -35.9215C1969.08 -28.5504 1970.03 -21.0258 1970.66 -13.5563L1967.77 -13.3143ZM1432.42 -34.4696L1429.57 -34.9386C1430.78 -42.338 1432.32 -49.7641 1434.14 -57.0134L1436.95 -56.3075C1435.15 -49.1367 1433.63 -41.789 1432.42 -34.4696ZM1960.38 -57.2637C1958.55 -64.4362 1956.4 -71.6237 1953.98 -78.6276L1956.71 -79.5738C1959.16 -72.4948 1961.34 -65.2289 1963.19 -57.9779L1960.38 -57.2637ZM1443.28 -77.6964L1440.54 -78.6326C1442.96 -85.7233 1445.71 -92.7973 1448.71 -99.6594L1451.37 -98.4979C1448.39 -91.7109 1445.67 -84.7104 1443.28 -77.6964ZM1945.83 -99.3724C1942.83 -106.149 1939.52 -112.878 1935.98 -119.375L1938.52 -120.758C1942.1 -114.193 1945.44 -107.391 1948.47 -100.542L1945.83 -99.3724ZM1461.15 -118.555L1458.61 -119.932C1462.17 -126.512 1466.05 -133.032 1470.15 -139.312L1472.57 -137.73C1468.52 -131.517 1464.67 -125.065 1461.15 -118.555ZM1924.5 -138.496C1920.43 -144.68 1916.06 -150.775 1911.49 -156.61L1913.77 -158.394C1918.39 -152.497 1922.81 -146.337 1926.92 -140.086L1924.5 -138.496ZM1485.53 -155.896L1483.24 -157.672C1487.84 -163.583 1492.73 -169.377 1497.8 -174.892L1499.93 -172.934C1494.92 -167.478 1490.07 -161.745 1485.53 -155.896ZM1897.03 -173.595C1892 -179.037 1886.68 -184.336 1881.23 -189.34L1883.18 -191.473C1888.7 -186.415 1894.07 -181.062 1899.16 -175.561L1897.03 -173.595ZM1515.68 -188.73L1513.72 -190.856C1519.22 -195.935 1525 -200.848 1530.9 -205.459L1532.68 -203.178C1526.84 -198.617 1521.12 -193.756 1515.68 -188.73ZM1864.18 -203.734C1858.32 -208.281 1852.21 -212.637 1846.01 -216.679L1847.59 -219.103C1853.85 -215.016 1860.03 -210.614 1865.96 -206.02L1864.18 -203.734ZM1550.8 -216.18L1549.21 -218.598C1555.47 -222.71 1561.98 -226.606 1568.55 -230.181L1569.93 -227.639C1563.43 -224.103 1557 -220.246 1550.8 -216.18ZM1826.82 -228.083C1820.3 -231.603 1813.55 -234.893 1806.76 -237.861L1807.92 -240.512C1814.78 -237.513 1821.61 -234.189 1828.2 -230.631L1826.82 -228.083ZM1589.94 -237.477L1588.77 -240.125C1595.61 -243.144 1602.67 -245.912 1609.74 -248.354L1610.69 -245.617C1603.69 -243.202 1596.71 -240.464 1589.94 -237.477ZM1785.95 -245.938C1778.95 -248.326 1771.76 -250.452 1764.56 -252.251L1765.27 -255.058C1772.54 -253.239 1779.81 -251.091 1786.89 -248.676L1785.95 -245.938ZM1632.06 -252.009L1631.34 -254.814C1638.59 -256.656 1646.01 -258.218 1653.4 -259.456L1653.88 -256.603C1646.57 -255.378 1639.22 -253.833 1632.06 -252.009ZM1742.72 -256.765C1735.42 -257.96 1727.97 -258.864 1720.58 -259.455L1720.81 -262.338C1728.28 -261.743 1735.81 -260.828 1743.19 -259.62L1742.72 -256.765ZM1676.01 -259.373L1675.77 -262.257C1683.21 -262.877 1690.79 -263.2 1698.29 -263.213L1698.29 -260.319C1690.87 -260.308 1683.37 -259.989 1676.01 -259.373Z" fill="#15E9AC" fill-opacity="0.4"/>
<path d="M1489.6 10.2722H1483.55V16.3216H1489.6V10.2722Z" fill="#15E9AC" fill-opacity="0.4"/>
<path d="M1486.59 16.3279C1488.26 16.3209 1489.61 14.9606 1489.6 13.2897C1489.6 11.6187 1488.24 10.2698 1486.57 10.2768C1484.89 10.2839 1483.55 11.6441 1483.55 13.3151C1483.56 14.986 1484.92 16.3349 1486.59 16.3279Z" fill="#15E9AC" fill-opacity="0.4"/>
<path d="M1490.48 19.0149H1484.43V25.0643H1490.48V19.0149Z" fill="#15E9AC" fill-opacity="0.4"/>
<path d="M1490.49 22.2488C1490.61 20.5818 1489.35 19.1366 1487.68 19.0208C1486.02 18.905 1484.57 20.1625 1484.46 21.8294C1484.34 23.4964 1485.6 24.9415 1487.27 25.0573C1488.93 25.1731 1490.38 23.9157 1490.49 22.2488Z" fill="#15E9AC" fill-opacity="0.4"/>
<path d="M1491.36 27.7578H1485.31V33.8072H1491.36V27.7578Z" fill="#15E9AC" fill-opacity="0.4"/>
<path d="M1485.31 30.7833C1485.31 32.4538 1486.66 33.8089 1488.34 33.8089C1490.01 33.8089 1491.36 32.4555 1491.36 30.7833C1491.36 29.1129 1490.01 27.7578 1488.34 27.7578C1486.66 27.7578 1485.31 29.1112 1485.31 30.7833Z" fill="#15E9AC" fill-opacity="0.4"/>
<path d="M1492.24 36.5005H1486.19V42.5499H1492.24V36.5005Z" fill="#15E9AC" fill-opacity="0.4"/>
<path d="M1486.19 39.5245C1486.19 41.195 1487.55 42.5501 1489.22 42.5501C1490.89 42.5501 1492.24 41.195 1492.24 39.5245C1492.24 37.8541 1490.89 36.499 1489.22 36.499C1487.55 36.5007 1486.19 37.8541 1486.19 39.5245Z" fill="#15E9AC" fill-opacity="0.4"/>
<path d="M1493.12 45.2417H1487.07V51.2911H1493.12V45.2417Z" fill="#15E9AC" fill-opacity="0.4"/>
<path d="M1487.07 48.2672C1487.07 49.9377 1488.43 51.2927 1490.1 51.2927C1491.77 51.2927 1493.13 49.9377 1493.13 48.2672C1493.13 46.5968 1491.77 45.2417 1490.1 45.2417C1488.43 45.2417 1487.07 46.5968 1487.07 48.2672Z" fill="#15E9AC" fill-opacity="0.4"/>
<path d="M1494.9 53.8025H1488.85V59.8519H1494.9V53.8025Z" fill="#15E9AC" fill-opacity="0.4"/>
<path d="M1491.87 59.8535C1493.55 59.8535 1494.9 58.499 1494.9 56.828C1494.9 55.1571 1493.55 53.8025 1491.87 53.8025C1490.2 53.8025 1488.85 55.1571 1488.85 56.828C1488.85 58.499 1490.2 59.8535 1491.87 59.8535Z" fill="#15E9AC" fill-opacity="0.4"/>
<path d="M1497.5 62.1948H1491.45V68.2442H1497.5V62.1948Z" fill="#15E9AC" fill-opacity="0.4"/>
<path d="M1494.48 68.2444C1496.15 68.2444 1497.51 66.8898 1497.51 65.2189C1497.51 63.5479 1496.15 62.1934 1494.48 62.1934C1492.81 62.1934 1491.45 63.5479 1491.45 65.2189C1491.45 66.8898 1492.81 68.2444 1494.48 68.2444Z" fill="#15E9AC" fill-opacity="0.4"/>
<path d="M1500.11 70.5876H1494.06V76.637H1500.11V70.5876Z" fill="#15E9AC" fill-opacity="0.4"/>
<path d="M1494.06 73.6115C1494.06 75.2819 1495.41 76.637 1497.08 76.637C1498.76 76.637 1500.11 75.2819 1500.11 73.6115C1500.11 71.941 1498.76 70.5859 1497.08 70.5859C1495.41 70.5876 1494.06 71.941 1494.06 73.6115Z" fill="#15E9AC" fill-opacity="0.4"/>
<path d="M1502.71 78.9783H1496.66V85.0276H1502.71V78.9783Z" fill="#15E9AC" fill-opacity="0.4"/>
<path d="M1496.66 82.0038C1496.66 83.6743 1498.02 85.0293 1499.69 85.0293C1501.36 85.0293 1502.72 83.6743 1502.72 82.0038C1502.72 80.3333 1501.36 78.9783 1499.69 78.9783C1498.02 78.9783 1496.66 80.3333 1496.66 82.0038Z" fill="#15E9AC" fill-opacity="0.4"/>
<path d="M1505.32 87.3706H1499.27V93.42H1505.32V87.3706Z" fill="#15E9AC" fill-opacity="0.4"/>
<path d="M1499.27 90.3961C1499.27 92.0666 1500.62 93.4217 1502.29 93.4217C1503.97 93.4217 1505.32 92.0666 1505.32 90.3961C1505.32 88.7257 1503.97 87.3706 1502.29 87.3706C1500.62 87.3706 1499.27 88.724 1499.27 90.3961Z" fill="#15E9AC" fill-opacity="0.4"/>
<path d="M1509.14 95.2505H1503.09V101.3H1509.14V95.2505Z" fill="#15E9AC" fill-opacity="0.4"/>
<path d="M1506.11 101.302C1507.78 101.302 1509.14 99.947 1509.14 98.276C1509.14 96.6051 1507.78 95.2505 1506.11 95.2505C1504.44 95.2505 1503.09 96.6051 1503.09 98.276C1503.09 99.947 1504.44 101.302 1506.11 101.302Z" fill="#15E9AC" fill-opacity="0.4"/>
<path d="M1513.33 102.974H1507.28V109.023H1513.33V102.974Z" fill="#15E9AC" fill-opacity="0.4"/>
<path d="M1507.28 105.998C1507.28 107.668 1508.63 109.023 1510.3 109.023C1511.98 109.023 1513.33 107.668 1513.33 105.998C1513.33 104.327 1511.98 102.972 1510.3 102.972C1508.63 102.972 1507.28 104.327 1507.28 105.998Z" fill="#15E9AC" fill-opacity="0.4"/>
<path d="M1517.52 110.695H1511.47V116.744H1517.52V110.695Z" fill="#15E9AC" fill-opacity="0.4"/>
<path d="M1514.5 116.746C1516.17 116.746 1517.52 115.392 1517.52 113.721C1517.52 112.05 1516.17 110.695 1514.5 110.695C1512.82 110.695 1511.47 112.05 1511.47 113.721C1511.47 115.392 1512.82 116.746 1514.5 116.746Z" fill="#15E9AC" fill-opacity="0.4"/>
<path d="M1521.71 118.419H1515.66V124.468H1521.71V118.419Z" fill="#15E9AC" fill-opacity="0.4"/>
<path d="M1515.66 121.444C1515.66 123.115 1517.02 124.47 1518.69 124.47C1520.36 124.47 1521.71 123.115 1521.71 121.444C1521.71 119.774 1520.36 118.419 1518.69 118.419C1517.02 118.419 1515.66 119.772 1515.66 121.444Z" fill="#15E9AC" fill-opacity="0.4"/>
<path d="M1526.03 126.058H1519.98V132.108H1526.03V126.058Z" fill="#15E9AC" fill-opacity="0.4"/>
<path d="M1519.98 129.082C1519.98 130.753 1521.33 132.108 1523 132.108C1524.67 132.108 1526.03 130.753 1526.03 129.082C1526.03 127.412 1524.67 126.057 1523 126.057C1521.33 126.057 1519.98 127.412 1519.98 129.082Z" fill="#15E9AC" fill-opacity="0.4"/>
<path d="M1531.62 132.835H1525.57V138.885H1531.62V132.835Z" fill="#15E9AC" fill-opacity="0.4"/>
<path d="M1525.57 135.861C1525.57 137.531 1526.92 138.886 1528.59 138.886C1530.27 138.886 1531.62 137.531 1531.62 135.861C1531.62 134.19 1530.27 132.835 1528.59 132.835C1526.92 132.835 1525.57 134.19 1525.57 135.861Z" fill="#15E9AC" fill-opacity="0.4"/>
<path d="M1537.21 139.612H1531.16V145.661H1537.21V139.612Z" fill="#15E9AC" fill-opacity="0.4"/>
<path d="M1531.16 142.638C1531.16 144.308 1532.52 145.663 1534.19 145.663C1535.86 145.663 1537.21 144.308 1537.21 142.638C1537.21 140.967 1535.86 139.612 1534.19 139.612C1532.52 139.612 1531.16 140.967 1531.16 142.638Z" fill="#15E9AC" fill-opacity="0.4"/>
<path d="M1542.8 146.391H1536.75V152.44H1542.8V146.391Z" fill="#15E9AC" fill-opacity="0.4"/>
<path d="M1539.78 152.442C1541.45 152.442 1542.8 151.087 1542.8 149.416C1542.8 147.745 1541.45 146.391 1539.78 146.391C1538.11 146.391 1536.75 147.745 1536.75 149.416C1536.75 151.087 1538.11 152.442 1539.78 152.442Z" fill="#15E9AC" fill-opacity="0.4"/>
<path d="M1548.4 153.168H1542.35V159.217H1548.4V153.168Z" fill="#15E9AC" fill-opacity="0.4"/>
<path d="M1545.37 159.219C1547.04 159.219 1548.4 157.864 1548.4 156.193C1548.4 154.523 1547.04 153.168 1545.37 153.168C1543.7 153.168 1542.35 154.523 1542.35 156.193C1542.35 157.864 1543.7 159.219 1545.37 159.219Z" fill="#15E9AC" fill-opacity="0.4"/>
<path d="M1554.52 159.417H1548.47V165.467H1554.52V159.417Z" fill="#15E9AC" fill-opacity="0.4"/>
<path d="M1548.47 162.441C1548.47 164.112 1549.82 165.467 1551.49 165.467C1553.16 165.467 1554.52 164.112 1554.52 162.441C1554.52 160.771 1553.16 159.416 1551.49 159.416C1549.82 159.417 1548.47 160.771 1548.47 162.441Z" fill="#15E9AC" fill-opacity="0.4"/>
<path d="M1561.29 165.01H1555.24V171.059H1561.29V165.01Z" fill="#15E9AC" fill-opacity="0.4"/>
<path d="M1555.24 168.033C1555.24 169.704 1556.6 171.059 1558.27 171.059C1559.94 171.059 1561.29 169.704 1561.29 168.033C1561.29 166.363 1559.94 165.008 1558.27 165.008C1556.6 165.008 1555.24 166.363 1555.24 168.033Z" fill="#15E9AC" fill-opacity="0.4"/>
<path d="M1568.07 170.602H1562.02V176.651H1568.07V170.602Z" fill="#15E9AC" fill-opacity="0.4"/>
<path d="M1562.02 173.625C1562.02 175.296 1563.38 176.651 1565.05 176.651C1566.72 176.651 1568.07 175.296 1568.07 173.625C1568.07 171.955 1566.72 170.6 1565.05 170.6C1563.38 170.6 1562.02 171.955 1562.02 173.625Z" fill="#15E9AC" fill-opacity="0.4"/>
<path d="M1574.85 176.194H1568.8V182.243H1574.85V176.194Z" fill="#15E9AC" fill-opacity="0.4"/>
<path d="M1568.8 179.217C1568.8 180.888 1570.15 182.243 1571.83 182.243C1573.5 182.243 1574.85 180.888 1574.85 179.217C1574.85 177.547 1573.5 176.192 1571.83 176.192C1570.15 176.192 1568.8 177.547 1568.8 179.217Z" fill="#15E9AC" fill-opacity="0.4"/>
<path d="M1581.63 181.786H1575.58V187.836H1581.63V181.786Z" fill="#15E9AC" fill-opacity="0.4"/>
<path d="M1575.58 184.81C1575.58 186.48 1576.93 187.835 1578.6 187.835C1580.27 187.835 1581.63 186.48 1581.63 184.81C1581.63 183.139 1580.27 181.784 1578.6 181.784C1576.93 181.786 1575.58 183.139 1575.58 184.81Z" fill="#15E9AC" fill-opacity="0.4"/>
<path d="M1589.17 186.252H1583.12V192.301H1589.17V186.252Z" fill="#15E9AC" fill-opacity="0.4"/>
<path d="M1583.12 189.276C1583.12 190.946 1584.47 192.301 1586.14 192.301C1587.81 192.301 1589.17 190.946 1589.17 189.276C1589.17 187.605 1587.81 186.25 1586.14 186.25C1584.47 186.25 1583.12 187.605 1583.12 189.276Z" fill="#15E9AC" fill-opacity="0.4"/>
<path d="M1596.89 190.442H1590.84V196.491H1596.89V190.442Z" fill="#15E9AC" fill-opacity="0.4"/>
<path d="M1590.84 193.468C1590.84 195.138 1592.19 196.493 1593.86 196.493C1595.54 196.493 1596.89 195.138 1596.89 193.468C1596.89 191.797 1595.53 190.442 1593.86 190.442C1592.19 190.442 1590.84 191.797 1590.84 193.468Z" fill="#15E9AC" fill-opacity="0.4"/>
<path d="M1604.61 194.634H1598.56V200.683H1604.61V194.634Z" fill="#15E9AC" fill-opacity="0.4"/>
<path d="M1598.56 197.659C1598.56 199.33 1599.92 200.685 1601.59 200.685C1603.26 200.685 1604.61 199.332 1604.61 197.659C1604.61 195.989 1603.26 194.634 1601.59 194.634C1599.91 194.634 1598.56 195.989 1598.56 197.659Z" fill="#15E9AC" fill-opacity="0.4"/>
<path d="M1612.33 198.826H1606.28V204.875H1612.33V198.826Z" fill="#15E9AC" fill-opacity="0.4"/>
<path d="M1606.28 201.851C1606.28 203.522 1607.64 204.877 1609.31 204.877C1610.98 204.877 1612.33 203.522 1612.33 201.851C1612.33 200.181 1610.98 198.826 1609.31 198.826C1607.64 198.826 1606.28 200.181 1606.28 201.851Z" fill="#15E9AC" fill-opacity="0.4"/>
<path d="M1620.14 202.814H1614.09V208.864H1620.14V202.814Z" fill="#15E9AC" fill-opacity="0.4"/>
<path d="M1614.09 205.84C1614.09 207.51 1615.45 208.865 1617.12 208.865C1618.79 208.865 1620.14 207.51 1620.14 205.84C1620.14 204.17 1618.79 202.814 1617.12 202.814C1615.45 202.814 1614.09 204.168 1614.09 205.84Z" fill="#15E9AC" fill-opacity="0.4"/>
<path d="M1628.53 205.419H1622.48V211.469H1628.53V205.419Z" fill="#15E9AC" fill-opacity="0.4"/>
<path d="M1622.48 208.443C1622.48 210.113 1623.84 211.469 1625.51 211.469C1627.18 211.469 1628.53 210.113 1628.53 208.443C1628.53 206.773 1627.18 205.417 1625.51 205.417C1623.84 205.417 1622.48 206.773 1622.48 208.443Z" fill="#15E9AC" fill-opacity="0.4"/>
<path d="M1636.92 208.024H1630.88V214.074H1636.92V208.024Z" fill="#15E9AC" fill-opacity="0.4"/>
<path d="M1633.9 214.075C1635.57 214.075 1636.93 212.721 1636.93 211.05C1636.93 209.379 1635.57 208.024 1633.9 208.024C1632.23 208.024 1630.88 209.379 1630.88 211.05C1630.88 212.721 1632.23 214.075 1633.9 214.075Z" fill="#15E9AC" fill-opacity="0.4"/>
<path d="M1645.32 210.629H1639.27V216.679H1645.32V210.629Z" fill="#15E9AC" fill-opacity="0.4"/>
<path d="M1639.27 213.655C1639.27 215.325 1640.62 216.68 1642.29 216.68C1643.96 216.68 1645.32 215.325 1645.32 213.655C1645.32 211.984 1643.97 210.629 1642.29 210.629C1640.62 210.629 1639.27 211.983 1639.27 213.655Z" fill="#15E9AC" fill-opacity="0.4"/>
<path d="M1653.71 213.234H1647.66V219.284H1653.71V213.234Z" fill="#15E9AC" fill-opacity="0.4"/>
<path d="M1647.66 216.258C1647.66 217.929 1649.01 219.284 1650.68 219.284C1652.36 219.284 1653.71 217.929 1653.71 216.258C1653.71 214.588 1652.35 213.233 1650.68 213.233C1649.01 213.233 1647.66 214.588 1647.66 216.258Z" fill="#15E9AC" fill-opacity="0.4"/>
<path d="M1662.23 215.195H1656.18V221.244H1662.23V215.195Z" fill="#15E9AC" fill-opacity="0.4"/>
<path d="M1656.18 218.221C1656.18 219.891 1657.54 221.246 1659.21 221.246C1660.88 221.246 1662.23 219.891 1662.23 218.221C1662.23 216.55 1660.88 215.195 1659.21 215.195C1657.54 215.195 1656.18 216.55 1656.18 218.221Z" fill="#15E9AC" fill-opacity="0.4"/>
<path d="M1670.97 216.076H1664.92V222.126H1670.97V216.076Z" fill="#15E9AC" fill-opacity="0.4"/>
<path d="M1664.92 219.102C1664.92 220.772 1666.28 222.127 1667.95 222.127C1669.62 222.127 1670.98 220.772 1670.98 219.102C1670.98 217.431 1669.62 216.076 1667.95 216.076C1666.28 216.076 1664.92 217.431 1664.92 219.102Z" fill="#15E9AC" fill-opacity="0.4"/>
<path d="M1679.72 216.959H1673.67V223.008H1679.72V216.959Z" fill="#15E9AC" fill-opacity="0.4"/>
<path d="M1673.67 219.983C1673.67 221.653 1675.02 223.008 1676.69 223.008C1678.36 223.008 1679.72 221.653 1679.72 219.983C1679.72 218.312 1678.36 216.957 1676.69 216.957C1675.02 216.957 1673.67 218.312 1673.67 219.983Z" fill="#15E9AC" fill-opacity="0.4"/>
<path d="M1688.46 217.84H1682.41V223.89H1688.46V217.84Z" fill="#15E9AC" fill-opacity="0.4"/>
<path d="M1682.41 220.864C1682.41 222.534 1683.76 223.89 1685.44 223.89C1687.11 223.89 1688.46 222.534 1688.46 220.864C1688.46 219.194 1687.11 217.839 1685.44 217.839C1683.76 217.839 1682.41 219.194 1682.41 220.864Z" fill="#15E9AC" fill-opacity="0.4"/>
<path d="M1697.2 218.721H1691.15V224.771H1697.2V218.721Z" fill="#15E9AC" fill-opacity="0.4"/>
<path d="M1691.15 221.745C1691.15 223.416 1692.51 224.771 1694.18 224.771C1695.85 224.771 1697.2 223.416 1697.2 221.745C1697.2 220.075 1695.85 218.72 1694.18 218.72C1692.51 218.72 1691.15 220.075 1691.15 221.745Z" fill="#15E9AC" fill-opacity="0.4"/>
<path d="M1705.94 218.77H1699.9V224.819H1705.94V218.77Z" fill="#15E9AC" fill-opacity="0.4"/>
<path d="M1702.92 224.819C1704.59 224.819 1705.94 223.464 1705.94 221.793C1705.94 220.122 1704.59 218.768 1702.92 218.768C1701.25 218.768 1699.89 220.122 1699.89 221.793C1699.89 223.464 1701.25 224.819 1702.92 224.819Z" fill="#15E9AC" fill-opacity="0.4"/>
<path d="M1714.69 217.889H1708.64V223.938H1714.69V217.889Z" fill="#15E9AC" fill-opacity="0.4"/>
<path d="M1708.64 220.912C1708.64 222.583 1709.99 223.938 1711.66 223.938C1713.33 223.938 1714.69 222.583 1714.69 220.912C1714.69 219.242 1713.33 217.887 1711.66 217.887C1709.99 217.887 1708.64 219.242 1708.64 220.912Z" fill="#15E9AC" fill-opacity="0.4"/>
<path d="M1723.43 217.007H1717.38V223.057H1723.43V217.007Z" fill="#15E9AC" fill-opacity="0.4"/>
<path d="M1717.38 220.031C1717.38 221.702 1718.73 223.057 1720.4 223.057C1722.07 223.057 1723.43 221.702 1723.43 220.031C1723.43 218.361 1722.08 217.006 1720.4 217.006C1718.73 217.007 1717.38 218.361 1717.38 220.031Z" fill="#15E9AC" fill-opacity="0.4"/>
<path d="M1698.79 47.126C1686.31 47.126 1674.69 40.9464 1667.69 30.5933L1669.73 29.2115C1676.27 38.8838 1687.13 44.6579 1698.79 44.6579C1718.1 44.6579 1733.82 28.9428 1733.82 9.62486C1733.82 -5.81649 1723.92 -19.2636 1709.19 -23.8395L1709.92 -26.1958C1725.69 -21.2996 1736.29 -6.90454 1736.29 9.62319C1736.29 30.3046 1719.47 47.126 1698.79 47.126Z" fill="#15E9AC" fill-opacity="0.4"/>
<path d="M1663.97 49.6139C1657.25 43.7598 1652.08 36.2686 1649.02 27.948L1654.42 25.9604C1657.15 33.3766 1661.76 40.0551 1667.75 45.2751L1663.97 49.6139Z" fill="#15E9AC" fill-opacity="0.4"/>
<path d="M1698.79 62.6458C1696.75 62.6458 1694.71 62.5306 1692.71 62.302L1693.37 56.583C1695.15 56.7866 1696.97 56.8901 1698.79 56.8901C1707.57 56.8901 1716.15 54.4637 1723.58 49.8728L1726.61 54.7707C1718.26 59.9223 1708.64 62.6458 1698.79 62.6458Z" fill="#15E9AC" fill-opacity="0.4"/>
<path d="M1654.53 86.5143L1654.18 86.3073C1637.06 76.3296 1623.62 60.723 1616.32 42.3596L1616.17 41.9775L1627.63 37.4233L1627.79 37.8055C1634.07 53.6173 1645.65 67.0578 1660.39 75.6521L1660.74 75.859L1654.53 86.5143ZM1617.24 42.4364C1624.45 60.3375 1637.57 75.5653 1654.24 85.3895L1659.62 76.1544C1645.01 67.5301 1633.51 54.1797 1627.18 38.4897L1617.24 42.4364Z" fill="#15E9AC" fill-opacity="0.4"/>
<path d="M1690.94 97.9841L1690.53 97.9457C1682.51 97.2031 1674.64 95.3758 1667.14 92.5105L1666.76 92.3636L1671.16 80.8423L1671.54 80.9891C1677.99 83.4523 1684.76 85.0243 1691.66 85.6634L1692.07 85.7018L1690.94 97.9841ZM1667.82 91.8897C1675 94.5965 1682.53 96.3437 1690.19 97.0897L1691.18 86.4461C1684.48 85.7903 1677.91 84.265 1671.63 81.9053L1667.82 91.8897Z" fill="#15E9AC" fill-opacity="0.4"/>
<path d="M1596.03 39.6413L1595.69 38.4398C1593.09 29.0945 1591.76 19.4005 1591.76 9.62804C1591.76 -21.9689 1605.63 -51.7919 1629.81 -72.1946L1630.75 -72.9856L1679.38 -15.9696L1678.41 -15.1719C1670.96 -9.04409 1666.69 -0.00590515 1666.69 9.62637C1666.69 12.2898 1667.02 14.9432 1667.67 17.5164L1667.96 18.6696L1596.03 39.6413ZM1630.47 -69.5145C1607.42 -49.6058 1594.23 -20.8325 1594.23 9.62637C1594.23 18.7563 1595.41 27.8146 1597.74 36.5724L1665.01 16.9624C1664.49 14.556 1664.23 12.0945 1664.23 9.62637C1664.23 -0.32798 1668.46 -9.69159 1675.89 -16.2616L1630.47 -69.5145Z" fill="#15E9AC" fill-opacity="0.4"/>
<path d="M1672.02 11.3639L1672.1 12.7429L1677.55 12.4004L1677.46 11.0214L1672.02 11.3639Z" fill="#15E9AC" fill-opacity="0.4"/>
<path d="M1672.32 14.7191L1672.58 16.0764L1677.94 15.0544L1677.68 13.6971L1672.32 14.7191Z" fill="#15E9AC" fill-opacity="0.4"/>
<path d="M1673.12 18.0103L1673.55 19.3245L1678.73 17.6393L1678.31 16.3251L1673.12 18.0103Z" fill="#15E9AC" fill-opacity="0.4"/>
<path d="M1674.27 21.2098L1674.86 22.4602L1679.8 20.1386L1679.21 18.8882L1674.27 21.2098Z" fill="#15E9AC" fill-opacity="0.4"/>
<path d="M1675.81 24.2645L1676.55 25.4312L1681.15 22.5086L1680.41 21.3419L1675.81 24.2645Z" fill="#15E9AC" fill-opacity="0.4"/>
<path d="M1677.74 27.0273L1678.62 28.092L1682.83 24.6159L1681.95 23.5511L1677.74 27.0273Z" fill="#15E9AC" fill-opacity="0.4"/>
<path d="M1680.02 29.6199L1681.03 30.5657L1684.76 26.59L1683.76 25.6442L1680.02 29.6199Z" fill="#15E9AC" fill-opacity="0.4"/>
<path d="M1682.6 31.8382L1683.72 32.6504L1686.92 28.2384L1685.8 27.4262L1682.6 31.8382Z" fill="#15E9AC" fill-opacity="0.4"/>
<path d="M1685.44 33.7375L1686.66 34.4031L1689.28 29.6241L1688.07 28.9585L1685.44 33.7375Z" fill="#15E9AC" fill-opacity="0.4"/>
<path d="M1688.44 35.2699L1689.73 35.7786L1691.73 30.7078L1690.45 30.1992L1688.44 35.2699Z" fill="#15E9AC" fill-opacity="0.4"/>
<path d="M1691.65 36.4115L1692.99 36.7551L1694.34 31.4728L1693 31.1291L1691.65 36.4115Z" fill="#15E9AC" fill-opacity="0.4"/>
<path d="M1695.01 37.0864L1696.38 37.2595L1697.07 31.849L1695.7 31.6758L1695.01 37.0864Z" fill="#15E9AC" fill-opacity="0.4"/>
<path d="M1698.38 37.4114H1699.76V31.9578H1698.38V37.4114Z" fill="#15E9AC" fill-opacity="0.4"/>
<path d="M1701.8 37.3103L1703.17 37.1372L1702.49 31.7267L1701.11 31.8998L1701.8 37.3103Z" fill="#15E9AC" fill-opacity="0.4"/>
<path d="M1705.12 36.7077L1706.45 36.364L1705.1 31.0816L1703.76 31.4253L1705.12 36.7077Z" fill="#15E9AC" fill-opacity="0.4"/>
<path d="M1708.39 35.7835L1709.68 35.2749L1707.67 30.2041L1706.39 30.7128L1708.39 35.7835Z" fill="#15E9AC" fill-opacity="0.4"/>
<path d="M1711.54 34.387L1712.75 33.7214L1710.12 28.9424L1708.91 29.608L1711.54 34.387Z" fill="#15E9AC" fill-opacity="0.4"/>
<path d="M1714.43 32.642L1715.55 31.8298L1712.34 27.4179L1711.23 28.2301L1714.43 32.642Z" fill="#15E9AC" fill-opacity="0.4"/>
<path d="M1717.1 30.5242L1718.1 29.5784L1714.37 25.6027L1713.36 26.5485L1717.1 30.5242Z" fill="#15E9AC" fill-opacity="0.4"/>
<path d="M1719.53 28.1281L1720.41 27.0635L1716.21 23.5873L1715.33 24.652L1719.53 28.1281Z" fill="#15E9AC" fill-opacity="0.4"/>
<path d="M1721.53 25.4529L1722.27 24.2861L1717.67 21.3641L1716.93 22.5308L1721.53 25.4529Z" fill="#15E9AC" fill-opacity="0.4"/>
<path d="M1723.28 22.5211L1723.87 21.2708L1718.94 18.9491L1718.35 20.1995L1723.28 22.5211Z" fill="#15E9AC" fill-opacity="0.4"/>
<path d="M1724.61 19.3899L1725.04 18.0757L1719.85 16.3905L1719.43 17.7047L1724.61 19.3899Z" fill="#15E9AC" fill-opacity="0.4"/>
<path d="M1725.5 16.0929L1725.76 14.7356L1720.41 13.7136L1720.15 15.0709L1725.5 16.0929Z" fill="#15E9AC" fill-opacity="0.4"/>
<path d="M1726.06 12.703L1726.15 11.324L1720.71 10.9815L1720.62 12.3605L1726.06 12.703Z" fill="#15E9AC" fill-opacity="0.4"/>
<path d="M1662.43 72.6544L1665.69 74.4514L1672.79 61.5519L1669.52 59.7549L1662.43 72.6544Z" fill="#15E9AC" fill-opacity="0.4"/>
<path d="M1670.62 76.8065L1674.09 78.1794L1679.5 64.4924L1676.04 63.1195L1670.62 76.8065Z" fill="#15E9AC" fill-opacity="0.4"/>
<path d="M1679.27 79.8722L1682.88 80.7998L1686.54 66.5416L1682.93 65.614L1679.27 79.8722Z" fill="#15E9AC" fill-opacity="0.4"/>
<path d="M1688.27 81.8474L1691.97 82.3147L1693.81 67.7106L1690.11 67.2432L1688.27 81.8474Z" fill="#15E9AC" fill-opacity="0.4"/>
<path d="M1697.41 82.626H1701.14V67.9055H1697.41V82.626Z" fill="#15E9AC" fill-opacity="0.4"/>
<path d="M1706.6 82.2501L1710.3 81.7827L1708.45 67.1786L1704.75 67.6459L1706.6 82.2501Z" fill="#15E9AC" fill-opacity="0.4"/>
<path d="M1715.63 80.7826L1719.24 79.855L1715.58 65.5968L1711.97 66.5244L1715.63 80.7826Z" fill="#15E9AC" fill-opacity="0.4"/>
<path d="M1724.43 78.1764L1727.9 76.8035L1722.48 63.1164L1719.02 64.4893L1724.43 78.1764Z" fill="#15E9AC" fill-opacity="0.4"/>
<path d="M1572.65 14.2541H1520.62L1520.6 13.3279C1520.58 12.0963 1520.56 10.8647 1520.56 9.62649C1520.56 -27.8847 1532.08 -63.7721 1553.88 -94.1591L1554.44 -94.9385L1596.26 -64.0024L1595.72 -63.2464C1580.58 -41.8642 1572.57 -16.6654 1572.57 9.62649C1572.57 10.8497 1572.59 12.0679 1572.63 13.2811L1572.65 14.2541ZM1522.48 12.3633H1570.71C1570.69 11.4538 1570.68 10.541 1570.68 9.62649C1570.68 -16.7505 1578.62 -42.0427 1593.65 -63.5818L1554.86 -92.2751C1533.65 -62.3786 1522.45 -27.1637 1522.45 9.62817C1522.45 10.541 1522.46 11.4522 1522.48 12.3633Z" fill="#15E9AC" fill-opacity="0.4"/>
<path d="M1575.49 138.316L1574.82 137.668C1546.27 110.023 1527.6 73.2194 1522.23 34.0362L1522.1 33.0799L1573.76 27.0322L1573.9 27.9417C1577.91 55.5753 1591.29 81.4733 1611.57 100.863L1612.27 101.531L1575.49 138.316ZM1524.23 34.7337C1529.67 72.8373 1547.83 108.61 1575.47 135.661L1609.57 101.561C1589.6 82.1692 1576.35 56.5148 1572.16 29.1232L1524.23 34.7337Z" fill="#15E9AC" fill-opacity="0.4"/>
<path d="M1698.79 187.857C1676.36 187.857 1654.49 183.743 1633.78 175.626L1632.9 175.277L1652.33 127.018L1653.2 127.355C1667.74 132.989 1683.08 135.844 1698.79 135.844L1700.1 135.832V187.845L1698.79 187.857ZM1635.36 174.213C1655.41 181.944 1676.55 185.898 1698.21 185.966V137.735C1682.78 137.668 1667.71 134.881 1653.39 129.452L1635.36 174.213Z" fill="#15E9AC" fill-opacity="0.4"/>
<path d="M1443.51 28.0974L1443.86 33.7766L1477.94 31.6323L1477.58 25.9531L1443.51 28.0974Z" fill="#15E9AC" fill-opacity="0.4"/>
<path d="M1447.83 59.9218L1448.9 65.5117L1482.44 59.1129L1481.37 53.523L1447.83 59.9218Z" fill="#15E9AC" fill-opacity="0.4"/>
<path d="M1456.14 90.959L1457.9 96.3713L1490.37 85.8205L1488.62 80.4082L1456.14 90.959Z" fill="#15E9AC" fill-opacity="0.4"/>
<path d="M1468.21 120.774L1470.63 125.923L1501.53 111.384L1499.1 106.235L1468.21 120.774Z" fill="#15E9AC" fill-opacity="0.4"/>
<path d="M1484 148.797L1487.04 153.602L1515.87 135.307L1512.82 130.502L1484 148.797Z" fill="#15E9AC" fill-opacity="0.4"/>
<path d="M1503.12 174.617L1506.75 179.001L1533.06 157.237L1529.43 152.852L1503.12 174.617Z" fill="#15E9AC" fill-opacity="0.4"/>
<path d="M1525.31 197.791L1529.46 201.687L1552.84 176.795L1548.69 172.9L1525.31 197.791Z" fill="#15E9AC" fill-opacity="0.4"/>
<path d="M1637.44 258.103L1642.95 259.518L1651.45 226.445L1645.93 225.03L1637.44 258.103Z" fill="#15E9AC" fill-opacity="0.4"/>
<path d="M1669.09 263.866L1674.73 264.579L1679.01 230.703L1673.36 229.99L1669.09 263.866Z" fill="#15E9AC" fill-opacity="0.4"/>
<path d="M1701.18 265.553H1706.87V231.408H1701.18V265.553Z" fill="#15E9AC" fill-opacity="0.4"/>
<path d="M1700.47 418.029C1925.53 418.029 2107.99 235.578 2107.99 10.5145C2107.99 -214.55 1925.53 -397 1700.47 -397C1475.41 -397 1292.96 -214.55 1292.96 10.5145C1292.96 235.578 1475.41 418.029 1700.47 418.029Z" stroke="#15E9AC" stroke-width="3.33759" stroke-miterlimit="10" stroke-dasharray="19.51 19.51"/>
<path d="M1563.01 426.048C1429.93 382.047 1325.13 275.893 1283 141.967" stroke="#15E9AC" stroke-width="3.58374" stroke-miterlimit="10"/>
<path d="M1405.2 109.948C1394.69 78.7231 1389 45.2838 1389 10.5144C1389 -161.508 1528.45 -300.961 1700.47 -300.961C1872.5 -300.961 2011.95 -161.508 2011.95 10.5144C2011.95 182.537 1872.5 321.99 1700.47 321.99C1638.75 321.99 1581.22 304.039 1532.83 273.071" stroke="#15E9AC" stroke-width="3.33759" stroke-miterlimit="10"/>
<path d="M1535.29 266.799C1535.29 273.303 1530.01 278.574 1523.51 278.574C1517.01 278.574 1511.74 273.303 1511.74 266.799C1511.74 260.296 1517.01 255.024 1523.51 255.024C1530.01 255.024 1535.29 260.298 1535.29 266.799Z" stroke="#15E9AC" stroke-width="3.33759" stroke-miterlimit="10"/>
<path d="M1527.5 266.8C1527.5 269.002 1525.71 270.786 1523.51 270.786C1521.31 270.786 1519.52 269.001 1519.52 266.8C1519.52 264.598 1521.31 262.813 1523.51 262.813C1525.71 262.813 1527.5 264.598 1527.5 266.8Z" fill="#15E9AC" fill-opacity="0.4"/>
<path d="M1420.76 121.349C1420.76 127.852 1415.49 133.124 1408.98 133.124C1402.48 133.124 1397.21 127.852 1397.21 121.349C1397.21 114.846 1402.48 109.574 1408.98 109.574C1415.49 109.576 1420.76 114.846 1420.76 121.349Z" stroke="#15E9AC" stroke-width="3.33759" stroke-miterlimit="10"/>
<path d="M1412.97 121.349C1412.97 123.552 1411.18 125.336 1408.98 125.336C1406.78 125.336 1405 123.55 1405 121.349C1405 119.148 1406.78 117.362 1408.98 117.362C1411.19 117.362 1412.97 119.148 1412.97 121.349Z" fill="#15E9AC" fill-opacity="0.4"/>
<path d="M1398.15 205.603C1361.8 149.402 1340.71 82.4229 1340.71 10.5146C1340.71 -188.177 1501.78 -349.249 1700.47 -349.249C1899.16 -349.249 2060.24 -188.177 2060.24 10.5146C2060.24 190.551 1927.99 339.699 1755.34 366.12" stroke="#15E9AC" stroke-width="1.92746" stroke-miterlimit="10"/>
<path d="M1416.67 214.969C1416.67 221.472 1411.39 226.744 1404.89 226.744C1398.39 226.744 1393.12 221.472 1393.12 214.969C1393.12 208.465 1398.39 203.194 1404.89 203.194C1411.39 203.195 1416.67 208.467 1416.67 214.969Z" stroke="#15E9AC" stroke-width="3.33759" stroke-miterlimit="10"/>
<path d="M1408.88 214.969C1408.88 217.17 1407.09 218.955 1404.89 218.955C1402.69 218.955 1400.91 217.17 1400.91 214.969C1400.91 212.766 1402.69 210.982 1404.89 210.982C1407.09 210.982 1408.88 212.768 1408.88 214.969Z" fill="#15E9AC" fill-opacity="0.4"/>
<path d="M386.882 347.327C335.413 330.002 280.297 320.611 222.988 320.611C-60.5553 320.611 -290.412 550.468 -290.412 834.011C-290.412 1117.55 -60.5536 1347.41 222.989 1347.41C506.533 1347.41 736.389 1117.55 736.389 834.011C736.389 732.278 706.8 637.457 655.758 557.684" stroke="#15E9AC" stroke-width="5.50135" stroke-miterlimit="10"/>
<path d="M659.136 556.054C666.716 548.474 666.716 536.186 659.136 528.607C651.557 521.027 639.269 521.027 631.689 528.607C624.11 536.186 624.11 548.474 631.689 556.054C639.269 563.633 651.557 563.633 659.136 556.054Z" stroke="#15E9AC" stroke-width="5.50135" stroke-miterlimit="10"/>
<path d="M645.42 548.903C649.049 548.903 651.991 545.96 651.991 542.331C651.991 538.701 649.049 535.759 645.42 535.759C641.79 535.759 638.848 538.701 638.848 542.331C638.848 545.96 641.79 548.903 645.42 548.903Z" fill="#15E9AC" fill-opacity="0.4"/>
<path d="M419.969 366.679C427.217 358.783 426.691 346.506 418.795 339.257C410.898 332.009 398.621 332.535 391.373 340.432C384.125 348.328 384.651 360.605 392.547 367.853C400.444 375.101 412.721 374.576 419.969 366.679Z" stroke="#15E9AC" stroke-width="5.50135" stroke-miterlimit="10"/>
<path d="M405.676 360.129C409.305 360.129 412.247 357.187 412.247 353.557C412.247 349.927 409.305 346.985 405.676 346.985C402.046 346.985 399.104 349.927 399.104 353.557C399.104 357.187 402.046 360.129 405.676 360.129Z" fill="#15E9AC" fill-opacity="0.4"/>
<path d="M544.549 335.694C451.914 275.794 341.512 241.021 222.989 241.021C-104.51 241.021 -370 506.512 -370 834.011C-370 1161.51 -104.51 1427 222.989 1427C519.738 1427 765.576 1209.03 809.126 924.453" stroke="#15E9AC" stroke-width="3.17705" stroke-miterlimit="10"/>
<path d="M573.707 360.537C581.286 352.958 581.286 340.669 573.707 333.09C566.127 325.511 553.839 325.511 546.26 333.09C538.68 340.669 538.68 352.958 546.26 360.537C553.839 368.116 566.127 368.116 573.707 360.537Z" stroke="#15E9AC" stroke-width="5.50135" stroke-miterlimit="10"/>
<path d="M559.987 353.383C563.617 353.383 566.559 350.441 566.559 346.812C566.559 343.182 563.617 340.24 559.987 340.24C556.358 340.24 553.416 343.182 553.416 346.812C553.416 350.441 556.358 353.383 559.987 353.383Z" fill="#15E9AC" fill-opacity="0.4"/>
<path d="M611.371 542.357L588.076 552.943L598.662 576.238L621.957 565.652L611.371 542.357Z" stroke="#15E9AC" stroke-width="3.33759" stroke-miterlimit="10"/>
<path d="M631.722 586.69L607.682 595.459L616.451 619.498L640.491 610.729L631.722 586.69Z" stroke="#15E9AC" stroke-width="3.33759" stroke-miterlimit="10"/>
<path d="M661.504 686.428L636.203 690.249L640.023 715.55L665.324 711.729L661.504 686.428Z" stroke="#15E9AC" stroke-width="3.33759" stroke-miterlimit="10"/>
<path d="M649.376 636.634L624.589 642.99L630.945 667.777L655.732 661.421L649.376 636.634Z" stroke="#15E9AC" stroke-width="3.33759" stroke-miterlimit="10"/>
<path d="M1486 805.643H1871.61V674.419" stroke="#15E9AC" stroke-width="1.66879" stroke-miterlimit="10"/>
<path d="M817.3 813.963L802.89 805.643L817.3 797.322V813.963Z" fill="#15E9AC" fill-opacity="0.4"/>
<path d="M521.103 85.3953C524.968 85.3953 528.102 82.2618 528.102 78.3964C528.102 74.531 524.968 71.3975 521.103 71.3975C517.237 71.3975 514.104 74.531 514.104 78.3964C514.104 82.2618 517.237 85.3953 521.103 85.3953Z" stroke="#15E9AC" stroke-width="1.66879" stroke-miterlimit="10"/>
<path d="M547.763 85.3953C551.629 85.3953 554.762 82.2618 554.762 78.3964C554.762 74.531 551.629 71.3975 547.763 71.3975C543.898 71.3975 540.764 74.531 540.764 78.3964C540.764 82.2618 543.898 85.3953 547.763 85.3953Z" stroke="#15E9AC" stroke-width="1.66879" stroke-miterlimit="10"/>
<path d="M574.424 85.3953C578.29 85.3953 581.423 82.2618 581.423 78.3964C581.423 74.531 578.29 71.3975 574.424 71.3975C570.559 71.3975 567.425 74.531 567.425 78.3964C567.425 82.2618 570.559 85.3953 574.424 85.3953Z" stroke="#15E9AC" stroke-width="1.66879" stroke-miterlimit="10"/>
<path d="M601.086 85.3953C604.952 85.3953 608.085 82.2618 608.085 78.3964C608.085 74.531 604.952 71.3975 601.086 71.3975C597.221 71.3975 594.087 74.531 594.087 78.3964C594.087 82.2618 597.221 85.3953 601.086 85.3953Z" stroke="#15E9AC" stroke-width="1.66879" stroke-miterlimit="10"/>
<path d="M780.433 759.127C784.299 759.127 787.432 755.994 787.432 752.128C787.432 748.263 784.299 745.129 780.433 745.129C776.568 745.129 773.434 748.263 773.434 752.128C773.434 755.994 776.568 759.127 780.433 759.127Z" stroke="#15E9AC" stroke-width="1.66879" stroke-miterlimit="10"/>
<path d="M814.093 752.128C814.093 755.993 810.959 759.127 807.094 759.127C803.229 759.127 800.095 755.993 800.095 752.128C800.095 748.263 803.229 745.129 807.094 745.129C810.961 745.129 814.093 748.263 814.093 752.128Z" stroke="#15E9AC" stroke-width="1.66879" stroke-miterlimit="10"/>
<path d="M833.756 759.127C837.622 759.127 840.755 755.994 840.755 752.128C840.755 748.263 837.622 745.129 833.756 745.129C829.891 745.129 826.757 748.263 826.757 752.128C826.757 755.994 829.891 759.127 833.756 759.127Z" stroke="#15E9AC" stroke-width="1.66879" stroke-miterlimit="10"/>
<path d="M867.416 752.128C867.416 755.993 864.282 759.127 860.417 759.127C856.552 759.127 853.418 755.993 853.418 752.128C853.418 748.263 856.552 745.129 860.417 745.129C864.282 745.129 867.416 748.263 867.416 752.128Z" stroke="#15E9AC" stroke-width="1.66879" stroke-miterlimit="10"/>
<path d="M214.75 102.443C218.616 102.443 221.749 99.3096 221.749 95.4442C221.749 91.5788 218.616 88.4453 214.75 88.4453C210.885 88.4453 207.751 91.5788 207.751 95.4442C207.751 99.3096 210.885 102.443 214.75 102.443Z" stroke="#15E9AC" stroke-width="1.66879" stroke-miterlimit="10"/>
<path d="M248.41 95.4442C248.41 99.3092 245.276 102.443 241.411 102.443C237.546 102.443 234.412 99.3092 234.412 95.4442C234.412 91.5793 237.546 88.4453 241.411 88.4453C245.278 88.447 248.41 91.5793 248.41 95.4442Z" fill="#15E9AC" fill-opacity="0.4"/>
<path d="M268.073 102.443C271.939 102.443 275.072 99.3096 275.072 95.4442C275.072 91.5788 271.939 88.4453 268.073 88.4453C264.208 88.4453 261.074 91.5788 261.074 95.4442C261.074 99.3096 264.208 102.443 268.073 102.443Z" stroke="#15E9AC" stroke-width="1.66879" stroke-miterlimit="10"/>
<path d="M214.75 125.626C218.616 125.626 221.749 122.493 221.749 118.627C221.749 114.762 218.616 111.628 214.75 111.628C210.885 111.628 207.751 114.762 207.751 118.627C207.751 122.493 210.885 125.626 214.75 125.626Z" fill="#15E9AC" fill-opacity="0.4"/>
<path d="M248.41 118.627C248.41 122.492 245.276 125.626 241.411 125.626C237.546 125.626 234.412 122.492 234.412 118.627C234.412 114.762 237.546 111.628 241.411 111.628C245.278 111.628 248.41 114.761 248.41 118.627Z" fill="#15E9AC" fill-opacity="0.4"/>
<path d="M268.073 125.626C271.939 125.626 275.072 122.493 275.072 118.627C275.072 114.762 271.939 111.628 268.073 111.628C264.208 111.628 261.074 114.762 261.074 118.627C261.074 122.493 264.208 125.626 268.073 125.626Z" fill="#15E9AC" fill-opacity="0.4"/>
<path d="M638.297 288.873H634.764V304.227H638.297V288.873Z" fill="#15E9AC" fill-opacity="0.4"/>
<path d="M644.207 298.317V294.784H628.852V298.317H644.207Z" fill="#15E9AC" fill-opacity="0.4"/>
<path d="M1471.02 244.321H1467.49V259.676H1471.02V244.321Z" fill="#15E9AC" fill-opacity="0.4"/>
<path d="M1476.93 253.764V250.231H1461.58V253.764H1476.93Z" fill="#15E9AC" fill-opacity="0.4"/>
<path d="M582.626 156.194H575.12V188.822H582.626V156.194Z" fill="#15E9AC" fill-opacity="0.4"/>
<path d="M595.188 176.261V168.754H562.559V176.261H595.188Z" fill="#15E9AC" fill-opacity="0.4"/>
<path d="M583.344 486.57H579.956V501.299H583.344V486.57Z" fill="#15E9AC" fill-opacity="0.4"/>
<path d="M589.014 495.628V492.24H574.285V495.628H589.014Z" fill="#15E9AC" fill-opacity="0.4"/>
<path d="M63.6949 117.972V57.6633H584.602" stroke="#15E9AC" stroke-width="1.66879" stroke-miterlimit="10"/>
<path d="M339.354 107.662H606.002" stroke="#15E9AC" stroke-width="1.66879" stroke-miterlimit="10"/>
<path d="M291.348 118.741H557.997" stroke="#15E9AC" stroke-width="1.66879" stroke-miterlimit="10"/>
<path d="M1574.44 749.127L1559.2 740.326V757.929L1574.44 749.127Z" fill="#15E9AC" fill-opacity="0.4"/>
<path d="M1593.18 749.128L1577.94 740.326V757.929L1593.18 749.128Z" fill="#15E9AC" fill-opacity="0.4"/>
<path d="M1611.92 749.128L1596.68 740.326V757.929L1611.92 749.128Z" fill="#15E9AC" fill-opacity="0.4"/>
<path d="M1630.66 749.128L1615.42 740.326V757.929L1630.66 749.128Z" fill="#15E9AC" fill-opacity="0.4"/>
<path d="M435.534 84.3754L450.778 75.5742V93.1767L435.534 84.3754Z" fill="#15E9AC" fill-opacity="0.4"/>
<path d="M416.795 84.3754L432.039 75.5742V93.1767L416.795 84.3754Z" fill="#15E9AC" fill-opacity="0.4"/>
<path d="M398.056 84.3754L413.3 75.5742V93.1767L398.056 84.3754Z" fill="#15E9AC" fill-opacity="0.4"/>
<path d="M379.317 84.3754L394.562 75.5742V93.1767L379.317 84.3754Z" fill="#15E9AC" fill-opacity="0.4"/>
<path d="M511.724 44.6631H171.003" stroke="#15E9AC" stroke-width="1.66879" stroke-miterlimit="10"/>
<path d="M408.636 216.728C418.353 216.728 426.23 208.851 426.23 199.134C426.23 189.417 418.353 181.54 408.636 181.54C398.919 181.54 391.042 189.417 391.042 199.134C391.042 208.851 398.919 216.728 408.636 216.728Z" fill="#15E9AC" fill-opacity="0.4"/>
<path d="M591.607 459.517C591.607 464.051 587.931 467.728 583.397 467.728C578.863 467.728 575.186 464.051 575.186 459.517C575.186 454.983 578.863 451.307 583.397 451.307C587.931 451.307 591.607 454.983 591.607 459.517Z" fill="#15E9AC" fill-opacity="0.4"/>
<path d="M1661.4 708.171C1664.64 708.171 1667.27 705.545 1667.27 702.307C1667.27 699.068 1664.64 696.442 1661.4 696.442C1658.17 696.442 1655.54 699.068 1655.54 702.307C1655.54 705.545 1658.17 708.171 1661.4 708.171Z" fill="#15E9AC" fill-opacity="0.4"/>
<path d="M790.418 622.39C790.418 626.276 787.267 629.427 783.38 629.427C779.494 629.427 776.343 626.276 776.343 622.39C776.343 618.503 779.494 615.353 783.38 615.353C787.267 615.353 790.418 618.503 790.418 622.39Z" fill="#15E9AC" fill-opacity="0.4"/>
<path d="M725.965 806.725C725.965 809.964 723.34 812.589 720.101 812.589C716.862 812.589 714.237 809.964 714.237 806.725C714.237 803.486 716.862 800.861 720.101 800.861C723.34 800.861 725.965 803.486 725.965 806.725Z" fill="#15E9AC" fill-opacity="0.4"/>
</svg>
