<svg width="320" height="1353" viewBox="0 0 320 1353" fill="none" xmlns="http://www.w3.org/2000/svg">
<path d="M37.5952 267.76C33.3576 274.86 26.7774 280.375 19.0662 283.289L18.0574 280.62C25.1674 277.932 31.2362 272.845 35.1448 266.297L37.5952 267.76Z" fill="#15E9AC" fill-opacity="0.4"/>
<path d="M42.7518 249.008C42.7518 252.683 42.2092 256.311 41.1389 259.792L38.4112 258.953C39.3981 255.744 39.8984 252.398 39.8984 249.009C39.8984 244.666 39.0865 240.44 37.4863 236.446L40.1347 235.385C41.8716 239.717 42.7518 244.3 42.7518 249.008Z" fill="#15E9AC" fill-opacity="0.4"/>
<path d="M12.6875 249.008C12.6875 252.633 9.73911 255.58 6.11545 255.58C2.49121 255.58 -0.456604 252.632 -0.456604 249.008C-0.456604 245.385 2.49178 242.436 6.11545 242.436C9.73969 242.436 12.6875 245.384 12.6875 249.008ZM-0.171669 249.008C-0.171669 252.475 2.64873 255.295 6.11545 255.295C9.58216 255.295 12.4026 252.475 12.4026 249.008C12.4026 245.542 9.58216 242.721 6.11545 242.721C2.64873 242.721 -0.171669 245.542 -0.171669 249.008Z" fill="#15E9AC" fill-opacity="0.4"/>
<path d="M51.6288 299.305C39.1402 310.613 22.9771 316.84 6.11551 316.84C-9.41753 316.84 -24.0326 311.731 -36.1505 302.066L-34.9048 300.504C-23.1448 309.884 -8.96001 314.842 6.11551 314.842C22.4802 314.842 38.1673 308.798 50.2875 297.824L51.6288 299.305Z" fill="#15E9AC" fill-opacity="0.4"/>
<path d="M67.4168 278.084C65.0191 283.129 61.9937 287.878 58.4239 292.196L56.8846 290.924C60.3496 286.732 63.2858 282.123 65.6128 277.227L67.4168 278.084Z" fill="#15E9AC" fill-opacity="0.4"/>
<path d="M73.9468 249.008C73.9468 250.382 73.9051 251.77 73.8235 253.136L71.8295 253.016C71.9094 251.69 71.9494 250.342 71.9494 249.008C71.9494 233.751 66.6103 218.879 56.9161 207.132L58.4566 205.861C68.4462 217.964 73.9468 233.288 73.9468 249.008Z" fill="#15E9AC" fill-opacity="0.4"/>
<path d="M46.4674 248.983L46.0394 248.984C46.0388 247.885 45.9925 246.776 45.9033 245.687L46.3295 245.652C46.4205 246.752 46.4668 247.874 46.4674 248.983ZM46.3336 252.315C46.2444 253.421 46.1072 254.535 45.9276 255.623L45.5054 255.554C45.6838 254.476 45.8188 253.375 45.9074 252.28L46.3336 252.315ZM45.9201 242.344L45.4979 242.414C45.3184 241.332 45.0913 240.245 44.8226 239.185L45.2379 239.081C45.5083 240.153 45.7377 241.251 45.9201 242.344ZM45.2494 258.888C44.9796 259.96 44.6605 261.036 44.302 262.085L43.8966 261.946C44.2516 260.908 44.5672 259.844 44.8342 258.783L45.2494 258.888ZM44.2852 235.886L43.8804 236.025C43.5242 234.99 43.1205 233.957 42.6798 232.955L43.0713 232.783C43.5173 233.795 43.9255 234.839 44.2852 235.886ZM43.0904 265.193C42.6462 266.207 42.1528 267.216 41.6252 268.191L41.2494 267.987C41.7717 267.023 42.2594 266.025 42.6989 265.022L43.0904 265.193ZM41.6055 229.789L41.2291 229.993C40.7073 229.031 40.138 228.079 39.5374 227.162L39.8953 226.927C40.5028 227.854 41.0779 228.817 41.6055 229.789ZM39.9173 271.056C39.3121 271.982 38.66 272.895 37.979 273.77L37.6413 273.507C38.3149 272.642 38.96 271.738 39.5589 270.822L39.9173 271.056ZM37.9552 224.217L37.6176 224.479C36.9452 223.617 36.2277 222.77 35.484 221.964L35.7991 221.674C36.5502 222.489 37.2759 223.345 37.9552 224.217ZM35.824 276.315C35.0746 277.13 34.2818 277.924 33.4681 278.675L33.1779 278.359C33.9835 277.617 34.7676 276.831 35.5095 276.025L35.824 276.315ZM33.4403 219.316L33.1507 219.631C32.3457 218.89 31.499 218.172 30.6338 217.497L30.8967 217.16C31.7712 217.841 32.6272 218.566 33.4403 219.316ZM30.9262 280.833C30.0529 281.515 29.1408 282.168 28.2159 282.775L27.9813 282.417C28.8964 281.817 29.7981 281.171 30.6627 280.496L30.9262 280.833ZM28.184 215.22L27.9495 215.578C27.0315 214.977 26.0783 214.408 25.1163 213.886L25.3202 213.511C26.292 214.038 27.2557 214.613 28.184 215.22ZM25.3561 284.486C24.3831 285.015 23.3766 285.509 22.3643 285.955L22.1917 285.563C23.1936 285.121 24.1891 284.633 25.1516 284.11L25.3561 284.486ZM22.3231 212.043L22.1511 212.435C21.1463 211.994 20.112 211.59 19.0759 211.235L19.2149 210.83C20.262 211.189 21.3073 211.598 22.3231 212.043ZM19.2618 287.17C18.2147 287.531 17.1393 287.852 16.0667 288.123L15.9613 287.709C17.0223 287.439 18.0862 287.122 19.1223 286.765L19.2618 287.17ZM16.0187 209.881L15.9138 210.296C14.854 210.028 13.7675 209.801 12.6851 209.622L12.7546 209.2C13.8492 209.381 14.9472 209.61 16.0187 209.881ZM12.8033 288.808C11.7116 288.99 10.5985 289.129 9.49525 289.22L9.45993 288.794C10.551 288.703 11.6525 288.566 12.7326 288.386L12.8033 288.808ZM9.4466 208.792L9.41127 209.218C8.32365 209.129 7.2146 209.084 6.1154 209.084L6.01811 209.084L6.01811 208.656L6.11366 208.656C7.22619 208.656 8.3474 208.702 9.4466 208.792ZM6.16405 288.932L6.16405 289.36L6.11888 289.36C5.02315 289.36 3.91932 289.315 2.83344 289.228L2.86818 288.801C3.94248 288.888 5.03531 288.932 6.11599 288.932L6.16405 288.932ZM2.72224 209.226C1.62825 209.318 0.527302 209.457 -0.549892 209.638L-0.620548 209.216C0.468232 209.033 1.58133 208.893 2.68691 208.8L2.72224 209.226ZM-0.406261 288.402L-0.475182 288.825C-1.57033 288.645 -2.66837 288.417 -3.73978 288.148L-3.63553 287.733C-2.57629 287.999 -1.48925 288.225 -0.406261 288.402ZM-3.77742 210.32C-4.83782 210.59 -5.90112 210.909 -6.9372 211.267L-7.07677 210.862C-6.02911 210.5 -4.95481 210.178 -3.88283 209.905L-3.77742 210.32ZM-6.79936 286.797L-6.93777 287.202C-7.98659 286.844 -9.03309 286.437 -10.0477 285.993L-9.87632 285.601C-8.87209 286.04 -7.8366 286.443 -6.79936 286.797ZM-10.0049 212.472C-11.0068 212.915 -12.0023 213.405 -12.9631 213.929L-13.1681 213.553C-12.1969 213.024 -11.191 212.528 -10.1781 212.081L-10.0049 212.472ZM-12.8421 284.153L-13.0454 284.53C-14.0189 284.003 -14.9832 283.429 -15.9115 282.823L-15.6775 282.465C-14.759 283.064 -13.8052 283.632 -12.8421 284.153ZM-15.7916 215.626C-16.7049 216.226 -17.6061 216.873 -18.4707 217.549L-18.7342 217.212C-17.8609 216.529 -16.9499 215.875 -16.0268 215.268L-15.7916 215.626ZM-18.3647 280.549L-18.6271 280.886C-19.4998 280.208 -20.357 279.484 -21.1736 278.734L-20.8846 278.418C-20.0761 279.16 -19.2282 279.877 -18.3647 280.549ZM-20.983 219.689C-21.7874 220.432 -22.5704 221.219 -23.3111 222.026L-23.6268 221.737C-22.8785 220.921 -22.0869 220.126 -21.2737 219.375L-20.983 219.689ZM-23.2208 276.088L-23.5353 276.378C-24.2858 275.565 -25.0127 274.711 -25.6949 273.838L-25.3578 273.575C-24.6825 274.438 -23.9638 275.284 -23.2208 276.088ZM-25.4395 224.547C-26.1119 225.413 -26.7559 226.318 -27.3541 227.235L-27.7126 227.002C-27.108 226.074 -26.457 225.16 -25.7777 224.285L-25.4395 224.547ZM-27.2806 270.894L-27.6385 271.13C-28.2466 270.203 -28.8228 269.242 -29.3515 268.27L-28.9751 268.065C-28.4521 269.026 -27.8817 269.978 -27.2806 270.894ZM-29.0406 230.072C-29.5606 231.034 -30.0471 232.032 -30.4867 233.039L-30.8787 232.868C-30.434 231.851 -29.9423 230.841 -29.417 229.869L-29.0406 230.072ZM-30.4299 265.107L-30.822 265.279C-31.2679 264.267 -31.6779 263.224 -32.0387 262.177L-31.6339 262.037C-31.276 263.073 -30.8712 264.106 -30.4299 265.107ZM-31.6814 236.116C-32.0347 237.152 -32.3486 238.217 -32.615 239.28L-33.0302 239.176C-32.7609 238.101 -32.4436 237.025 -32.0862 235.978L-31.6814 236.116ZM-32.5791 258.877L-32.9937 258.983C-33.2665 257.91 -33.497 256.813 -33.68 255.72L-33.2578 255.65C-33.0771 256.73 -32.849 257.817 -32.5791 258.877ZM-33.2822 242.51C-33.4594 243.591 -33.5926 244.692 -33.68 245.785L-34.1068 245.751C-34.0188 244.647 -33.8833 243.533 -33.7049 242.441L-33.2822 242.51ZM-33.6684 252.377L-34.0947 252.413C-34.1868 251.311 -34.2348 250.191 -34.2366 249.082L-33.8086 249.081C-33.8063 250.178 -33.7594 251.287 -33.6684 252.377Z" fill="#15E9AC" fill-opacity="0.4"/>
<path d="M100.802 248.951L99.7978 248.951C99.7966 246.375 99.6889 243.772 99.4786 241.216L100.479 241.134C100.692 243.716 100.801 246.346 100.802 248.951ZM100.489 256.766C100.278 259.359 99.9582 261.971 99.536 264.53L98.5451 264.367C98.9626 261.835 99.28 259.25 99.4879 256.684L100.489 256.766ZM99.5163 233.371L98.5254 233.535C98.1038 230.998 97.571 228.449 96.9409 225.959L97.9144 225.713C98.5515 228.23 99.0901 230.806 99.5163 233.371ZM97.9434 272.19C97.3092 274.71 96.561 277.234 95.7195 279.691L94.7691 279.366C95.6013 276.935 96.3415 274.438 96.9687 271.945L97.9434 272.19ZM95.6818 218.215L94.7321 218.541C93.8969 216.113 92.9495 213.689 91.9151 211.337L92.8348 210.933C93.8807 213.31 94.838 215.76 95.6818 218.215ZM92.8771 286.987C91.834 289.368 90.6769 291.734 89.4393 294.02L88.5561 293.542C89.7804 291.28 90.9248 288.939 91.9574 286.584L92.8771 286.987ZM89.393 203.91L88.5104 204.39C87.2855 202.133 85.95 199.898 84.541 197.747L85.3813 197.197C86.8048 199.369 88.1548 201.629 89.393 203.91ZM85.4317 300.743C84.0116 302.916 82.481 305.059 80.8831 307.112L80.0909 306.495C81.6719 304.464 83.1858 302.344 84.5908 300.194L85.4317 300.743ZM80.8293 190.834L80.037 191.452C78.456 189.425 76.7712 187.438 75.0298 185.548L75.7682 184.867C77.5288 186.777 79.2314 188.785 80.8293 190.834ZM75.8273 313.085C74.0696 314.997 72.2094 316.86 70.2988 318.623L69.6178 317.884C71.5086 316.14 73.3491 314.297 75.0883 312.406L75.8273 313.085ZM70.2351 179.335L69.5546 180.074C67.6626 178.332 65.6756 176.648 63.648 175.068L64.2654 174.275C66.3144 175.872 68.3228 177.574 70.2351 179.335ZM64.3349 323.686C62.2882 325.284 60.1483 326.817 57.9759 328.243L57.4252 327.403C59.5749 325.993 61.6917 324.476 63.7169 322.895L64.3349 323.686ZM57.8989 169.723L57.3487 170.563C55.1978 169.155 52.9612 167.82 50.6991 166.594L51.178 165.711C53.4639 166.951 55.7248 168.301 57.8989 169.723ZM51.2632 332.258C48.9819 333.498 46.6202 334.658 44.2434 335.705L43.838 334.786C46.1899 333.749 48.5267 332.602 50.7836 331.376L51.2632 332.258ZM44.1467 162.269L43.743 163.189C41.3865 162.155 38.9588 161.207 36.527 160.373L36.853 159.422C39.3115 160.266 41.7653 161.223 44.1467 162.269ZM36.9631 338.555C34.5064 339.401 31.9843 340.154 29.4662 340.793L29.2195 339.82C31.7109 339.188 34.2064 338.442 36.6365 337.606L36.9631 338.555ZM29.3532 157.194L29.1077 158.168C26.6156 157.539 24.0663 157.008 21.5308 156.588L21.6947 155.597C24.258 156.021 26.8345 156.558 29.3532 157.194ZM21.8094 342.4C19.2507 342.826 16.6388 343.152 14.0466 343.367L13.9638 342.366C16.5288 342.153 19.1129 341.831 21.6437 341.409L21.8094 342.4ZM13.9308 154.639L13.8491 155.64C11.2951 155.431 8.69307 155.325 6.11591 155.325L5.88946 155.325L5.88541 154.321L6.11591 154.321C8.71971 154.321 11.3496 154.428 13.9308 154.639ZM6.22943 342.69L6.22943 343.695L6.11533 343.695C3.54976 343.695 0.958702 343.591 -1.58603 343.386L-1.50553 342.385C1.01198 342.588 3.5764 342.69 6.11476 342.69L6.22943 342.69ZM-1.84607 155.66C-4.41049 155.875 -6.99403 156.2 -9.52486 156.626L-9.69164 155.635C-7.1336 155.206 -4.52227 154.877 -1.93005 154.659L-1.84607 155.66ZM-9.18779 341.447L-9.35052 342.438C-11.9184 342.016 -14.4956 341.482 -17.0114 340.85L-16.7664 339.876C-14.2778 340.501 -11.7279 341.029 -9.18779 341.447ZM-17.0982 158.224C-19.5874 158.859 -22.0817 159.606 -24.5124 160.447L-24.8407 159.498C-22.384 158.648 -19.8625 157.892 -17.3461 157.251L-17.0982 158.224ZM-24.1892 337.68L-24.5141 338.631C-26.9748 337.79 -29.4298 336.835 -31.8112 335.793L-31.4081 334.873C-29.0528 335.904 -26.6233 336.849 -24.1892 337.68ZM-31.7116 163.276C-34.0635 164.315 -36.3986 165.466 -38.6532 166.694L-39.1333 165.813C-36.8549 164.57 -34.4944 163.409 -32.1176 162.357L-31.7116 163.276ZM-38.3688 331.476L-38.8466 332.359C-41.1301 331.124 -43.3928 329.777 -45.5721 328.356L-45.0231 327.515C-42.867 328.921 -40.628 330.255 -38.3688 331.476ZM-45.2889 170.676C-47.4352 172.087 -49.5502 173.607 -51.5755 175.191L-52.1945 174.4C-50.1479 172.798 -48.0103 171.263 -45.8408 169.836L-45.2889 170.676ZM-51.3276 323.018L-51.9438 323.811C-53.9951 322.216 -56.0058 320.516 -57.9199 318.758L-57.2406 318.019C-55.3468 319.758 -53.3574 321.44 -51.3276 323.018ZM-57.4699 180.209C-59.3585 181.955 -61.1972 183.801 -62.9341 185.694L-63.6742 185.015C-61.9188 183.102 -60.061 181.237 -58.1521 179.471L-57.4699 180.209ZM-62.7221 312.552L-63.4599 313.234C-65.2228 311.325 -66.9278 309.32 -68.528 307.273L-67.7363 306.654C-66.1535 308.679 -64.4665 310.664 -62.7221 312.552ZM-67.9291 191.61C-69.5073 193.642 -71.0188 195.764 -72.4215 197.917L-73.263 197.369C-71.8447 195.193 -70.3169 193.049 -68.7225 190.994L-67.9291 191.61ZM-72.2483 300.365L-73.0875 300.916C-74.5145 298.743 -75.8668 296.486 -77.1073 294.207L-76.2253 293.726C-74.9981 295.982 -73.6597 298.215 -72.2483 300.365ZM-76.3793 204.574C-77.6007 206.837 -78.7428 209.179 -79.7725 211.537L-80.6927 211.134C-79.652 208.753 -78.4984 206.385 -77.2637 204.098L-76.3793 204.574ZM-79.6393 286.783L-80.5584 287.188C-81.606 284.814 -82.5668 282.365 -83.4141 279.91L-82.4643 279.582C-81.6263 282.011 -80.6759 284.433 -79.6393 286.783ZM-82.5755 218.757C-83.4043 221.187 -84.1421 223.685 -84.7664 226.181L-85.7405 225.937C-85.1092 223.414 -84.3639 220.89 -83.5259 218.433L-82.5755 218.757ZM-84.6824 272.166L-85.6559 272.414C-86.2953 269.899 -86.8374 267.323 -87.2671 264.758L-86.2768 264.592C-85.8517 267.13 -85.3154 269.678 -84.6824 272.166ZM-86.333 233.761C-86.7476 236.295 -87.0615 238.88 -87.2665 241.444L-88.2673 241.364C-88.0605 238.773 -87.7432 236.16 -87.3239 233.599L-86.333 233.761ZM-87.2382 256.913L-88.2389 256.997C-88.4543 254.414 -88.5661 251.784 -88.5707 249.181L-87.5665 249.179C-87.5625 251.755 -87.4519 254.357 -87.2382 256.913Z" fill="#15E9AC" fill-opacity="0.4"/>
<path d="M6.33984 321.605L6.33984 323.705L8.43922 323.705L8.43922 321.605L6.33984 321.605Z" fill="#15E9AC" fill-opacity="0.4"/>
<path d="M8.44125 322.648C8.43881 322.069 7.96675 321.6 7.38686 321.603C6.80697 321.605 6.33886 322.077 6.34129 322.657C6.34373 323.237 6.81579 323.705 7.39568 323.703C7.97556 323.7 8.44368 323.228 8.44125 322.648Z" fill="#15E9AC" fill-opacity="0.4"/>
<path d="M9.37366 321.3L9.37366 323.399L11.473 323.399L11.473 321.3L9.37366 321.3Z" fill="#15E9AC" fill-opacity="0.4"/>
<path d="M10.4958 321.294C9.91735 321.254 9.41582 321.69 9.37563 322.269C9.33544 322.847 9.77182 323.349 10.3503 323.389C10.9288 323.429 11.4303 322.993 11.4705 322.414C11.5107 321.836 11.0743 321.334 10.4958 321.294Z" fill="#15E9AC" fill-opacity="0.4"/>
<path d="M12.4076 320.994L12.4076 323.093L14.507 323.093L14.507 320.994L12.4076 320.994Z" fill="#15E9AC" fill-opacity="0.4"/>
<path d="M13.4576 323.093C14.0373 323.093 14.5075 322.623 14.5075 322.043C14.5075 321.463 14.0379 320.993 13.4576 320.993C12.8779 320.993 12.4076 321.463 12.4076 322.043C12.4076 322.623 12.8773 323.093 13.4576 323.093Z" fill="#15E9AC" fill-opacity="0.4"/>
<path d="M15.4417 320.687L15.4417 322.787L17.5411 322.787L17.5411 320.687L15.4417 320.687Z" fill="#15E9AC" fill-opacity="0.4"/>
<path d="M16.4912 322.787C17.0709 322.787 17.5412 322.317 17.5412 321.737C17.5412 321.157 17.0709 320.687 16.4912 320.687C15.9115 320.687 15.4412 321.156 15.4412 321.737C15.4418 322.317 15.9115 322.787 16.4912 322.787Z" fill="#15E9AC" fill-opacity="0.4"/>
<path d="M18.4752 320.381L18.4752 322.481L20.5746 322.481L20.5746 320.381L18.4752 320.381Z" fill="#15E9AC" fill-opacity="0.4"/>
<path d="M19.5252 322.481C20.1049 322.481 20.5752 322.01 20.5752 321.431C20.5752 320.851 20.1049 320.381 19.5252 320.381C18.9455 320.381 18.4752 320.851 18.4752 321.431C18.4752 322.01 18.9455 322.481 19.5252 322.481Z" fill="#15E9AC" fill-opacity="0.4"/>
<path d="M21.4464 319.765L21.4464 321.865L23.5457 321.865L23.5457 319.765L21.4464 319.765Z" fill="#15E9AC" fill-opacity="0.4"/>
<path d="M23.5463 320.815C23.5463 320.235 23.0762 319.765 22.4963 319.765C21.9164 319.765 21.4464 320.235 21.4464 320.815C21.4464 321.395 21.9164 321.865 22.4963 321.865C23.0762 321.865 23.5463 321.395 23.5463 320.815Z" fill="#15E9AC" fill-opacity="0.4"/>
<path d="M24.3588 318.861L24.3588 320.961L26.4582 320.961L26.4582 318.861L24.3588 318.861Z" fill="#15E9AC" fill-opacity="0.4"/>
<path d="M26.4581 319.911C26.4581 319.331 25.988 318.861 25.4081 318.861C24.8282 318.861 24.3582 319.331 24.3582 319.911C24.3582 320.49 24.8282 320.961 25.4081 320.961C25.988 320.961 26.4581 320.49 26.4581 319.911Z" fill="#15E9AC" fill-opacity="0.4"/>
<path d="M27.2713 317.957L27.2713 320.056L29.3707 320.056L29.3707 317.957L27.2713 317.957Z" fill="#15E9AC" fill-opacity="0.4"/>
<path d="M28.3206 320.057C28.9003 320.057 29.3706 319.586 29.3706 319.007C29.3706 318.427 28.9003 317.957 28.3206 317.957C27.7409 317.957 27.2706 318.427 27.2706 319.007C27.2712 319.586 27.7409 320.057 28.3206 320.057Z" fill="#15E9AC" fill-opacity="0.4"/>
<path d="M30.1833 317.053L30.1833 319.152L32.2827 319.152L32.2827 317.053L30.1833 317.053Z" fill="#15E9AC" fill-opacity="0.4"/>
<path d="M31.2333 319.152C31.813 319.152 32.2832 318.682 32.2832 318.102C32.2832 317.523 31.813 317.053 31.2333 317.053C30.6535 317.053 30.1833 317.523 30.1833 318.102C30.1833 318.682 30.6535 319.152 31.2333 319.152Z" fill="#15E9AC" fill-opacity="0.4"/>
<path d="M33.0956 316.149L33.0956 318.249L35.195 318.249L35.195 316.149L33.0956 316.149Z" fill="#15E9AC" fill-opacity="0.4"/>
<path d="M34.1456 318.249C34.7253 318.249 35.1955 317.778 35.1955 317.199C35.1955 316.619 34.7253 316.149 34.1456 316.149C33.5658 316.149 33.0956 316.618 33.0956 317.199C33.0956 317.778 33.5653 318.249 34.1456 318.249Z" fill="#15E9AC" fill-opacity="0.4"/>
<path d="M35.8303 314.824L35.8303 316.923L37.9297 316.923L37.9297 314.824L35.8303 314.824Z" fill="#15E9AC" fill-opacity="0.4"/>
<path d="M37.9302 315.874C37.9302 315.294 37.4601 314.824 36.8802 314.824C36.3004 314.824 35.8303 315.294 35.8303 315.874C35.8303 316.454 36.3004 316.924 36.8802 316.924C37.4601 316.924 37.9302 316.454 37.9302 315.874Z" fill="#15E9AC" fill-opacity="0.4"/>
<path d="M38.5105 313.369L38.5105 315.469L40.6099 315.469L40.6099 313.369L38.5105 313.369Z" fill="#15E9AC" fill-opacity="0.4"/>
<path d="M39.56 315.469C40.1397 315.469 40.61 314.998 40.61 314.419C40.61 313.839 40.1397 313.369 39.56 313.369C38.9803 313.369 38.51 313.839 38.51 314.419C38.51 314.998 38.9803 315.469 39.56 315.469Z" fill="#15E9AC" fill-opacity="0.4"/>
<path d="M41.1901 311.915L41.1901 314.015L43.2895 314.015L43.2895 311.915L41.1901 311.915Z" fill="#15E9AC" fill-opacity="0.4"/>
<path d="M43.2901 312.965C43.2901 312.385 42.82 311.915 42.2401 311.915C41.6602 311.915 41.1901 312.385 41.1901 312.965C41.1901 313.544 41.6602 314.015 42.2401 314.015C42.82 314.015 43.2901 313.544 43.2901 312.965Z" fill="#15E9AC" fill-opacity="0.4"/>
<path d="M43.8705 310.46L43.8705 312.56L45.9699 312.56L45.9699 310.46L43.8705 310.46Z" fill="#15E9AC" fill-opacity="0.4"/>
<path d="M44.9205 312.56C45.5002 312.56 45.9704 312.09 45.9704 311.51C45.9704 310.93 45.5002 310.46 44.9205 310.46C44.3407 310.46 43.8705 310.93 43.8705 311.51C43.8705 312.09 44.3402 312.56 44.9205 312.56Z" fill="#15E9AC" fill-opacity="0.4"/>
<path d="M46.522 308.963L46.522 311.062L48.6213 311.062L48.6213 308.963L46.522 308.963Z" fill="#15E9AC" fill-opacity="0.4"/>
<path d="M47.5713 311.062C48.151 311.062 48.6213 310.592 48.6213 310.012C48.6213 309.433 48.151 308.962 47.5713 308.962C46.9916 308.962 46.5213 309.432 46.5213 310.012C46.5213 310.593 46.9916 311.062 47.5713 311.062Z" fill="#15E9AC" fill-opacity="0.4"/>
<path d="M48.8736 307.022L48.8736 309.121L50.973 309.121L50.973 307.022L48.8736 307.022Z" fill="#15E9AC" fill-opacity="0.4"/>
<path d="M49.9236 309.121C50.5033 309.121 50.9735 308.652 50.9735 308.071C50.9735 307.492 50.5033 307.021 49.9236 307.021C49.3439 307.021 48.8736 307.491 48.8736 308.071C48.8736 308.651 49.3439 309.121 49.9236 309.121Z" fill="#15E9AC" fill-opacity="0.4"/>
<path d="M51.2255 305.081L51.2255 307.181L53.3249 307.181L53.3249 305.081L51.2255 305.081Z" fill="#15E9AC" fill-opacity="0.4"/>
<path d="M52.2755 307.181C52.8552 307.181 53.3255 306.711 53.3255 306.131C53.3255 305.551 52.8552 305.081 52.2755 305.081C51.6958 305.081 51.2255 305.551 51.2255 306.131C51.2255 306.711 51.6958 307.181 52.2755 307.181Z" fill="#15E9AC" fill-opacity="0.4"/>
<path d="M53.5781 303.141L53.5781 305.24L55.6774 305.24L55.6774 303.141L53.5781 303.141Z" fill="#15E9AC" fill-opacity="0.4"/>
<path d="M55.678 304.19C55.678 303.61 55.2079 303.14 54.628 303.14C54.0482 303.14 53.5781 303.61 53.5781 304.19C53.5781 304.77 54.0482 305.24 54.628 305.24C55.2079 305.24 55.678 304.77 55.678 304.19Z" fill="#15E9AC" fill-opacity="0.4"/>
<path d="M55.9299 301.2L55.9299 303.299L58.0293 303.299L58.0293 301.2L55.9299 301.2Z" fill="#15E9AC" fill-opacity="0.4"/>
<path d="M58.0299 302.249C58.0299 301.669 57.5598 301.199 56.9799 301.199C56.4 301.199 55.9299 301.669 55.9299 302.249C55.9299 302.829 56.4 303.299 56.9799 303.299C57.5598 303.299 58.0299 302.829 58.0299 302.249Z" fill="#15E9AC" fill-opacity="0.4"/>
<path d="M58.0985 299.076L58.0985 301.175L60.1979 301.175L60.1979 299.076L58.0985 299.076Z" fill="#15E9AC" fill-opacity="0.4"/>
<path d="M59.1482 301.175C59.7279 301.175 60.1982 300.706 60.1982 300.125C60.1982 299.546 59.7279 299.075 59.1482 299.075C58.5685 299.075 58.0982 299.546 58.0982 300.125C58.0988 300.705 58.5685 301.175 59.1482 301.175Z" fill="#15E9AC" fill-opacity="0.4"/>
<path d="M60.0396 296.724L60.0396 298.823L62.1389 298.823L62.1389 296.724L60.0396 296.724Z" fill="#15E9AC" fill-opacity="0.4"/>
<path d="M61.0888 298.823C61.6685 298.823 62.1388 298.353 62.1388 297.773C62.1388 297.193 61.6685 296.723 61.0888 296.723C60.5091 296.723 60.0388 297.193 60.0388 297.773C60.0388 298.353 60.5091 298.823 61.0888 298.823Z" fill="#15E9AC" fill-opacity="0.4"/>
<path d="M61.9805 294.371L61.9805 296.471L64.0799 296.471L64.0799 294.371L61.9805 294.371Z" fill="#15E9AC" fill-opacity="0.4"/>
<path d="M63.0294 296.471C63.6091 296.471 64.0794 296.001 64.0794 295.421C64.0794 294.841 63.6091 294.371 63.0294 294.371C62.4497 294.371 61.9794 294.841 61.9794 295.421C61.9794 296.001 62.4497 296.471 63.0294 296.471Z" fill="#15E9AC" fill-opacity="0.4"/>
<path d="M63.9207 292.019L63.9207 294.119L66.02 294.119L66.02 292.019L63.9207 292.019Z" fill="#15E9AC" fill-opacity="0.4"/>
<path d="M64.9701 294.119C65.5498 294.119 66.0201 293.649 66.0201 293.069C66.0201 292.489 65.5498 292.019 64.9701 292.019C64.3904 292.019 63.9201 292.489 63.9201 293.069C63.9201 293.649 64.3904 294.119 64.9701 294.119Z" fill="#15E9AC" fill-opacity="0.4"/>
<path d="M65.8617 289.667L65.8617 291.766L67.9611 291.766L67.9611 289.667L65.8617 289.667Z" fill="#15E9AC" fill-opacity="0.4"/>
<path d="M66.9109 291.766C67.4906 291.766 67.9609 291.297 67.9609 290.716C67.9609 290.137 67.4906 289.666 66.9109 289.666C66.3312 289.666 65.8609 290.137 65.8609 290.716C65.8615 291.297 66.3312 291.766 66.9109 291.766Z" fill="#15E9AC" fill-opacity="0.4"/>
<path d="M67.4115 287.051L67.4115 289.15L69.5109 289.15L69.5109 287.051L67.4115 287.051Z" fill="#15E9AC" fill-opacity="0.4"/>
<path d="M68.4607 289.15C69.0405 289.15 69.5107 288.68 69.5107 288.1C69.5107 287.521 69.0405 287.05 68.4607 287.05C67.881 287.05 67.4108 287.521 67.4108 288.1C67.4108 288.68 67.881 289.15 68.4607 289.15Z" fill="#15E9AC" fill-opacity="0.4"/>
<path d="M68.8654 284.371L68.8654 286.471L70.9648 286.471L70.9648 284.371L68.8654 284.371Z" fill="#15E9AC" fill-opacity="0.4"/>
<path d="M69.9154 286.471C70.4951 286.471 70.9654 286.001 70.9654 285.421C70.9654 284.84 70.4951 284.371 69.9154 284.371C69.3357 284.371 68.8654 284.841 68.8654 285.421C68.8654 286 69.3357 286.471 69.9154 286.471Z" fill="#15E9AC" fill-opacity="0.4"/>
<path d="M70.3202 281.691L70.3202 283.791L72.4196 283.791L72.4196 281.691L70.3202 281.691Z" fill="#15E9AC" fill-opacity="0.4"/>
<path d="M71.3702 283.791C71.9499 283.791 72.4201 283.32 72.4201 282.741C72.4201 282.161 71.9505 281.691 71.3702 281.691C70.7904 281.691 70.3202 282.16 70.3202 282.741C70.3202 283.321 70.7904 283.791 71.3702 283.791Z" fill="#15E9AC" fill-opacity="0.4"/>
<path d="M71.775 279.011L71.775 281.111L73.8743 281.111L73.8743 279.011L71.775 279.011Z" fill="#15E9AC" fill-opacity="0.4"/>
<path d="M72.8249 281.111C73.4047 281.111 73.8749 280.641 73.8749 280.061C73.8749 279.481 73.4047 279.011 72.8249 279.011C72.2452 279.011 71.775 279.481 71.775 280.061C71.775 280.641 72.2452 281.111 72.8249 281.111Z" fill="#15E9AC" fill-opacity="0.4"/>
<path d="M73.1591 276.301L73.1591 278.401L75.2585 278.401L75.2585 276.301L73.1591 276.301Z" fill="#15E9AC" fill-opacity="0.4"/>
<path d="M74.2091 278.401C74.7888 278.401 75.2591 277.931 75.2591 277.351C75.2591 276.771 74.7888 276.301 74.2091 276.301C73.6294 276.301 73.1591 276.771 73.1591 277.351C73.1591 277.931 73.6288 278.401 74.2091 278.401Z" fill="#15E9AC" fill-opacity="0.4"/>
<path d="M74.063 273.389L74.063 275.488L76.1624 275.488L76.1624 273.389L74.063 273.389Z" fill="#15E9AC" fill-opacity="0.4"/>
<path d="M75.1125 275.488C75.6923 275.488 76.1625 275.018 76.1625 274.438C76.1625 273.859 75.6923 273.388 75.1125 273.388C74.5328 273.388 74.0626 273.859 74.0626 274.438C74.0626 275.018 74.5328 275.488 75.1125 275.488Z" fill="#15E9AC" fill-opacity="0.4"/>
<path d="M74.9672 270.477L74.9672 272.576L77.0666 272.576L77.0666 270.477L74.9672 270.477Z" fill="#15E9AC" fill-opacity="0.4"/>
<path d="M77.0672 271.526C77.0672 270.946 76.5971 270.476 76.0172 270.476C75.4373 270.476 74.9672 270.946 74.9672 271.526C74.9672 272.106 75.4373 272.576 76.0172 272.576C76.5971 272.576 77.0672 272.106 77.0672 271.526Z" fill="#15E9AC" fill-opacity="0.4"/>
<path d="M75.8712 267.564L75.8712 269.664L77.9706 269.664L77.9706 267.564L75.8712 267.564Z" fill="#15E9AC" fill-opacity="0.4"/>
<path d="M76.9212 269.664C77.5009 269.664 77.9712 269.194 77.9712 268.614C77.9712 268.034 77.5009 267.564 76.9212 267.564C76.3415 267.564 75.8712 268.033 75.8712 268.614C75.8712 269.194 76.3409 269.664 76.9212 269.664Z" fill="#15E9AC" fill-opacity="0.4"/>
<path d="M76.7756 264.652L76.7756 266.752L78.875 266.752L78.875 264.652L76.7756 264.652Z" fill="#15E9AC" fill-opacity="0.4"/>
<path d="M77.8249 266.752C78.4046 266.752 78.8749 266.282 78.8749 265.702C78.8749 265.121 78.4046 264.652 77.8249 264.652C77.2452 264.652 76.7749 265.122 76.7749 265.702C76.7749 266.281 77.2452 266.752 77.8249 266.752Z" fill="#15E9AC" fill-opacity="0.4"/>
<path d="M77.4557 261.694L77.4557 263.794L79.5551 263.794L79.5551 261.694L77.4557 261.694Z" fill="#15E9AC" fill-opacity="0.4"/>
<path d="M78.5057 263.794C79.0854 263.794 79.5557 263.324 79.5557 262.744C79.5557 262.164 79.0854 261.694 78.5057 261.694C77.926 261.694 77.4557 262.164 77.4557 262.744C77.4557 263.324 77.926 263.794 78.5057 263.794Z" fill="#15E9AC" fill-opacity="0.4"/>
<path d="M77.7616 258.661L77.7616 260.76L79.861 260.76L79.861 258.661L77.7616 258.661Z" fill="#15E9AC" fill-opacity="0.4"/>
<path d="M78.8116 260.76C79.3913 260.76 79.8615 260.29 79.8615 259.71C79.8615 259.13 79.3913 258.66 78.8116 258.66C78.2319 258.66 77.7616 259.13 77.7616 259.71C77.7616 260.29 78.2319 260.76 78.8116 260.76Z" fill="#15E9AC" fill-opacity="0.4"/>
<path d="M78.0685 255.626L78.0685 257.726L80.1679 257.726L80.1679 255.626L78.0685 255.626Z" fill="#15E9AC" fill-opacity="0.4"/>
<path d="M79.1174 257.726C79.6971 257.726 80.1673 257.256 80.1673 256.676C80.1673 256.096 79.6971 255.626 79.1174 255.626C78.5376 255.626 78.0674 256.096 78.0674 256.676C78.0674 257.256 78.5376 257.726 79.1174 257.726Z" fill="#15E9AC" fill-opacity="0.4"/>
<path d="M78.374 252.592L78.374 254.692L80.4733 254.692L80.4733 252.592L78.374 252.592Z" fill="#15E9AC" fill-opacity="0.4"/>
<path d="M79.423 254.692C80.0027 254.692 80.473 254.222 80.473 253.642C80.473 253.061 80.0027 252.592 79.423 252.592C78.8433 252.592 78.373 253.062 78.373 253.642C78.373 254.221 78.8433 254.692 79.423 254.692Z" fill="#15E9AC" fill-opacity="0.4"/>
<path d="M78.6799 249.558L78.6799 251.658L80.7793 251.658L80.7793 249.558L78.6799 249.558Z" fill="#15E9AC" fill-opacity="0.4"/>
<path d="M79.7291 251.658C80.3088 251.658 80.779 251.188 80.779 250.608C80.779 250.028 80.3088 249.558 79.7291 249.558C79.1493 249.558 78.6791 250.028 78.6791 250.608C78.6791 251.188 79.1493 251.658 79.7291 251.658Z" fill="#15E9AC" fill-opacity="0.4"/>
<path d="M78.6966 246.524L78.6966 248.624L80.796 248.624L80.796 246.524L78.6966 246.524Z" fill="#15E9AC" fill-opacity="0.4"/>
<path d="M80.7957 247.574C80.7957 246.994 80.3256 246.524 79.7457 246.524C79.1658 246.524 78.6957 246.994 78.6957 247.574C78.6957 248.154 79.1658 248.624 79.7457 248.624C80.3256 248.624 80.7957 248.154 80.7957 247.574Z" fill="#15E9AC" fill-opacity="0.4"/>
<path d="M78.3907 243.491L78.3907 245.59L80.4901 245.59L80.4901 243.491L78.3907 243.491Z" fill="#15E9AC" fill-opacity="0.4"/>
<path d="M79.4399 245.59C80.0196 245.59 80.4898 245.121 80.4898 244.54C80.4898 243.96 80.0196 243.49 79.4399 243.49C78.8602 243.49 78.3899 243.961 78.3899 244.54C78.3899 245.12 78.8602 245.59 79.4399 245.59Z" fill="#15E9AC" fill-opacity="0.4"/>
<path d="M78.085 240.457L78.085 242.556L80.1844 242.556L80.1844 240.457L78.085 240.457Z" fill="#15E9AC" fill-opacity="0.4"/>
<path d="M79.1341 242.556C79.7138 242.556 80.1841 242.086 80.1841 241.506C80.1841 240.926 79.7138 240.456 79.1341 240.456C78.5544 240.456 78.0841 240.926 78.0841 241.506C78.0847 242.086 78.5544 242.556 79.1341 242.556Z" fill="#15E9AC" fill-opacity="0.4"/>
<path d="M19.1294 249.008C19.1294 253.338 16.9849 257.372 13.3919 259.8L12.9124 259.09C16.269 256.823 18.2729 253.054 18.2729 249.008C18.2729 242.304 12.8191 236.85 6.11502 236.85C0.756263 236.85 -3.91043 240.285 -5.49842 245.398L-6.31616 245.144C-4.61697 239.671 0.378666 235.994 6.11444 235.994C13.2917 235.994 19.1294 241.832 19.1294 249.008Z" fill="#15E9AC" fill-opacity="0.4"/>
<path d="M19.9928 261.091C17.9611 263.422 15.3614 265.217 12.4738 266.279L11.7841 264.405C14.3577 263.458 16.6755 261.858 18.487 259.778L19.9928 261.091Z" fill="#15E9AC" fill-opacity="0.4"/>
<path d="M24.5154 249.008C24.5154 249.715 24.4754 250.424 24.3961 251.117L22.4114 250.89C22.482 250.272 22.5179 249.638 22.5179 249.008C22.5179 245.959 21.6758 242.983 20.0826 240.403L21.7824 239.353C23.5702 242.25 24.5154 245.588 24.5154 249.008Z" fill="#15E9AC" fill-opacity="0.4"/>
<path d="M32.7985 264.367L32.7267 264.49C29.264 270.43 23.8479 275.095 17.4751 277.626L17.3425 277.679L15.762 273.701L15.8946 273.648C21.382 271.469 26.0463 267.45 29.0289 262.334L29.1007 262.211L32.7985 264.367ZM17.5018 277.308C23.7142 274.806 28.9988 270.254 32.4082 264.469L29.2032 262.601C26.2102 267.672 21.5771 271.663 16.1321 273.86L17.5018 277.308Z" fill="#15E9AC" fill-opacity="0.4"/>
<path d="M36.7792 251.732L36.7659 251.874C36.5082 254.658 35.874 257.389 34.8796 259.991L34.8287 260.124L30.8303 258.596L30.8813 258.463C31.7361 256.226 32.2816 253.876 32.5034 251.48L32.5168 251.338L36.7792 251.732ZM34.6642 259.756C35.6036 257.262 36.2099 254.652 36.4688 251.99L32.7751 251.649C32.5475 253.975 32.0181 256.255 31.1992 258.432L34.6642 259.756Z" fill="#15E9AC" fill-opacity="0.4"/>
<path d="M16.5318 284.669L16.1149 284.786C12.8717 285.69 9.50749 286.149 6.11606 286.149C-4.84933 286.149 -15.1991 281.336 -22.2796 272.945L-22.5541 272.62L-2.76733 255.742L-2.4905 256.078C-0.36391 258.664 2.7727 260.146 6.11548 260.146C7.03978 260.146 7.96061 260.032 8.85364 259.806L9.25383 259.705L16.5318 284.669ZM-21.3495 272.717C-14.4404 280.715 -4.45494 285.293 6.11548 285.293C9.28394 285.293 12.4275 284.884 15.4668 284.075L8.66137 260.731C7.82625 260.911 6.97202 261.002 6.11548 261.002C2.66092 261.002 -0.588617 259.532 -2.86868 256.954L-21.3495 272.717Z" fill="#15E9AC" fill-opacity="0.4"/>
<path d="M6.71827 258.299L7.19684 258.269L7.07798 256.38L6.59941 256.41L6.71827 258.299Z" fill="#15E9AC" fill-opacity="0.4"/>
<path d="M7.88254 258.193L8.35358 258.103L7.9989 256.244L7.52786 256.334L7.88254 258.193Z" fill="#15E9AC" fill-opacity="0.4"/>
<path d="M9.0247 257.916L9.48077 257.768L8.89595 255.968L8.43988 256.116L9.0247 257.916Z" fill="#15E9AC" fill-opacity="0.4"/>
<path d="M10.1352 257.515L10.5691 257.311L9.7634 255.599L9.32948 255.803L10.1352 257.515Z" fill="#15E9AC" fill-opacity="0.4"/>
<path d="M11.1953 256.984L11.6002 256.727L10.5859 255.129L10.181 255.386L11.1953 256.984Z" fill="#15E9AC" fill-opacity="0.4"/>
<path d="M12.154 256.311L12.5236 256.005L11.3172 254.547L10.9477 254.853L12.154 256.311Z" fill="#15E9AC" fill-opacity="0.4"/>
<path d="M13.0537 255.52L13.382 255.171L12.0022 253.875L11.674 254.225L13.0537 255.52Z" fill="#15E9AC" fill-opacity="0.4"/>
<path d="M13.8237 254.626L14.1056 254.238L12.5745 253.126L12.2926 253.514L13.8237 254.626Z" fill="#15E9AC" fill-opacity="0.4"/>
<path d="M14.4828 253.639L14.7138 253.219L13.0553 252.307L12.8243 252.727L14.4828 253.639Z" fill="#15E9AC" fill-opacity="0.4"/>
<path d="M15.0145 252.598L15.191 252.152L13.4313 251.456L13.2548 251.902L15.0145 252.598Z" fill="#15E9AC" fill-opacity="0.4"/>
<path d="M15.4108 251.486L15.5301 251.022L13.6969 250.551L13.5776 251.016L15.4108 251.486Z" fill="#15E9AC" fill-opacity="0.4"/>
<path d="M15.6449 250.318L15.705 249.843L13.8273 249.606L13.7672 250.081L15.6449 250.318Z" fill="#15E9AC" fill-opacity="0.4"/>
<path d="M15.7577 249.149L15.7577 248.67L13.8651 248.67L13.8651 249.149L15.7577 249.149Z" fill="#15E9AC" fill-opacity="0.4"/>
<path d="M15.7227 247.963L15.6626 247.488L13.7849 247.725L13.845 248.201L15.7227 247.963Z" fill="#15E9AC" fill-opacity="0.4"/>
<path d="M15.5135 246.812L15.3942 246.348L13.561 246.819L13.6803 247.283L15.5135 246.812Z" fill="#15E9AC" fill-opacity="0.4"/>
<path d="M15.1929 245.675L15.0164 245.229L13.2566 245.925L13.4331 246.371L15.1929 245.675Z" fill="#15E9AC" fill-opacity="0.4"/>
<path d="M14.7084 244.584L14.4774 244.164L12.8189 245.075L13.0499 245.496L14.7084 244.584Z" fill="#15E9AC" fill-opacity="0.4"/>
<path d="M14.1026 243.579L13.8207 243.191L12.2896 244.304L12.5715 244.691L14.1026 243.579Z" fill="#15E9AC" fill-opacity="0.4"/>
<path d="M13.3677 242.655L13.0395 242.305L11.6598 243.6L11.988 243.95L13.3677 242.655Z" fill="#15E9AC" fill-opacity="0.4"/>
<path d="M12.5361 241.81L12.1666 241.504L10.9603 242.963L11.3297 243.268L12.5361 241.81Z" fill="#15E9AC" fill-opacity="0.4"/>
<path d="M11.6076 241.114L11.2027 240.857L10.1886 242.455L10.5935 242.712L11.6076 241.114Z" fill="#15E9AC" fill-opacity="0.4"/>
<path d="M10.5903 240.507L10.1564 240.302L9.35068 242.015L9.78461 242.219L10.5903 240.507Z" fill="#15E9AC" fill-opacity="0.4"/>
<path d="M9.50356 240.046L9.04749 239.897L8.46267 241.698L8.91874 241.846L9.50356 240.046Z" fill="#15E9AC" fill-opacity="0.4"/>
<path d="M8.35959 239.736L7.88855 239.646L7.53387 241.505L8.00491 241.595L8.35959 239.736Z" fill="#15E9AC" fill-opacity="0.4"/>
<path d="M7.18291 239.542L6.70435 239.512L6.58549 241.4L7.06406 241.431L7.18291 239.542Z" fill="#15E9AC" fill-opacity="0.4"/>
<path d="M27.9889 261.627L28.6125 260.492L24.1358 258.031L23.5122 259.165L27.9889 261.627Z" fill="#15E9AC" fill-opacity="0.4"/>
<path d="M29.4295 258.784L29.906 257.581L25.1561 255.7L24.6796 256.904L29.4295 258.784Z" fill="#15E9AC" fill-opacity="0.4"/>
<path d="M30.4936 255.782L30.8156 254.528L25.8674 253.258L25.5455 254.511L30.4936 255.782Z" fill="#15E9AC" fill-opacity="0.4"/>
<path d="M31.1791 252.659L31.3413 251.375L26.2731 250.734L26.1109 252.019L31.1791 252.659Z" fill="#15E9AC" fill-opacity="0.4"/>
<path d="M31.4492 249.487L31.4492 248.193L26.3406 248.193L26.3406 249.487L31.4492 249.487Z" fill="#15E9AC" fill-opacity="0.4"/>
<path d="M31.3188 246.298L31.1566 245.014L26.0884 245.654L26.2506 246.938L31.3188 246.298Z" fill="#15E9AC" fill-opacity="0.4"/>
<path d="M30.8095 243.164L30.4875 241.911L25.5394 243.181L25.8613 244.435L30.8095 243.164Z" fill="#15E9AC" fill-opacity="0.4"/>
<path d="M29.905 240.108L29.4285 238.904L24.6786 240.785L25.155 241.988L29.905 240.108Z" fill="#15E9AC" fill-opacity="0.4"/>
<path d="M7.72145 292.782L7.72145 310.839L7.40003 310.845C6.97263 310.854 6.54522 310.861 6.11551 310.861C-6.90235 310.861 -19.3567 306.862 -29.9022 299.295L-30.1727 299.101L-19.4366 284.59L-19.1743 284.776C-11.7538 290.032 -3.00881 292.811 6.1155 292.811C6.54001 292.811 6.96278 292.803 7.38381 292.791L7.72145 292.782ZM7.06529 310.195L7.06529 293.456C6.74966 293.463 6.43287 293.467 6.1155 293.467C-3.03834 293.467 -11.8157 290.712 -19.2907 285.496L-29.2484 298.955C-18.8731 306.316 -6.65216 310.205 6.11609 310.205C6.43287 310.206 6.74908 310.201 7.06529 310.195Z" fill="#15E9AC" fill-opacity="0.4"/>
<path d="M50.7757 291.798L50.551 292.029C40.957 301.937 28.1847 308.418 14.5865 310.281L14.2547 310.326L12.1559 292.396L12.4715 292.35C22.0615 290.956 31.0491 286.313 37.7781 279.275L38.0097 279.032L50.7757 291.798ZM14.8286 309.585C28.052 307.697 40.4664 301.396 49.8543 291.805L38.0202 279.97C31.2906 286.902 22.3875 291.499 12.8815 292.953L14.8286 309.585Z" fill="#15E9AC" fill-opacity="0.4"/>
<path d="M67.9685 249.008C67.9685 256.79 66.541 264.38 63.724 271.567L63.603 271.875L46.8549 265.129L46.9719 264.827C48.9271 259.782 49.918 254.459 49.918 249.008L49.9139 248.552L67.9645 248.552L67.9685 249.008ZM63.2335 271.019C65.9167 264.062 67.2886 256.726 67.3124 249.208L50.5741 249.208C50.551 254.563 49.5838 259.793 47.6999 264.762L63.2335 271.019Z" fill="#15E9AC" fill-opacity="0.4"/>
<path d="M12.5255 337.6L14.4964 337.476L13.7522 325.65L11.7813 325.774L12.5255 337.6Z" fill="#15E9AC" fill-opacity="0.4"/>
<path d="M23.57 336.099L25.5099 335.729L23.2893 324.089L21.3494 324.459L23.57 336.099Z" fill="#15E9AC" fill-opacity="0.4"/>
<path d="M34.341 333.216L36.2193 332.606L32.5577 321.336L30.6794 321.946L34.341 333.216Z" fill="#15E9AC" fill-opacity="0.4"/>
<path d="M44.6881 329.028L46.475 328.187L41.4294 317.465L39.6425 318.306L44.6881 329.028Z" fill="#15E9AC" fill-opacity="0.4"/>
<path d="M54.4132 323.549L56.0806 322.491L49.7315 312.486L48.0641 313.545L54.4132 323.549Z" fill="#15E9AC" fill-opacity="0.4"/>
<path d="M63.3735 316.911L64.8951 315.653L57.3421 306.522L55.8204 307.781L63.3735 316.911Z" fill="#15E9AC" fill-opacity="0.4"/>
<path d="M71.4161 309.211L72.7681 307.771L64.1297 299.659L62.7777 301.098L71.4161 309.211Z" fill="#15E9AC" fill-opacity="0.4"/>
<path d="M92.3466 270.298L92.8377 268.385L81.3601 265.438L80.8689 267.351L92.3466 270.298Z" fill="#15E9AC" fill-opacity="0.4"/>
<path d="M94.3466 259.315L94.5941 257.356L82.8379 255.871L82.5905 257.831L94.3466 259.315Z" fill="#15E9AC" fill-opacity="0.4"/>
<path d="M94.932 248.179L94.932 246.204L83.0823 246.204L83.0823 248.179L94.932 248.179Z" fill="#15E9AC" fill-opacity="0.4"/>
<path d="M147.847 248.424C147.847 170.318 84.5298 107 6.42368 107C-71.6824 107 -135 170.318 -135 248.424C-135 326.53 -71.6824 389.847 6.42369 389.847C84.5298 389.847 147.847 326.53 147.847 248.424Z" stroke="#15E9AC" stroke-width="1.15827" stroke-miterlimit="10" stroke-dasharray="6.77 6.77"/>
<path d="M150.63 296.127C135.36 342.313 98.5205 378.682 52.043 393.302" stroke="#15E9AC" stroke-width="1.2437" stroke-miterlimit="10"/>
<path d="M40.931 350.893C30.0948 354.541 18.49 356.517 6.42367 356.517C-53.275 356.517 -101.671 308.122 -101.671 248.423C-101.671 188.724 -53.275 140.329 6.42366 140.329C66.1223 140.329 114.518 188.724 114.518 248.424C114.518 269.843 108.288 289.807 97.5411 306.603" stroke="#15E9AC" stroke-width="1.15827" stroke-miterlimit="10"/>
<path d="M95.3646 305.749C97.6215 305.749 99.451 307.579 99.451 309.836C99.451 312.093 97.6215 313.922 95.3646 313.922C93.1077 313.922 91.2782 312.093 91.2782 309.836C91.2782 307.579 93.1083 305.749 95.3646 305.749Z" stroke="#15E9AC" stroke-width="1.15827" stroke-miterlimit="10"/>
<path d="M95.3646 308.452C96.129 308.452 96.7481 309.072 96.7481 309.835C96.7481 310.599 96.1285 311.219 95.3646 311.219C94.6007 311.219 93.981 310.599 93.981 309.835C93.981 309.072 94.6007 308.452 95.3646 308.452Z" fill="#15E9AC" fill-opacity="0.4"/>
<path d="M44.8875 345.495C47.1444 345.495 48.9739 347.324 48.9739 349.581C48.9739 351.838 47.1444 353.668 44.8875 353.668C42.6306 353.668 40.8011 351.838 40.8011 349.581C40.8017 347.324 42.6306 345.495 44.8875 345.495Z" stroke="#15E9AC" stroke-width="1.15827" stroke-miterlimit="10"/>
<path d="M44.8877 348.198C45.6522 348.198 46.2713 348.818 46.2713 349.582C46.2713 350.346 45.6516 350.965 44.8877 350.965C44.1238 350.965 43.5042 350.346 43.5042 349.582C43.5042 348.817 44.1238 348.198 44.8877 348.198Z" fill="#15E9AC" fill-opacity="0.4"/>
<path d="M74.127 353.343C54.6228 365.955 31.3786 373.275 6.42353 373.275C-62.5303 373.275 -118.429 317.377 -118.429 248.423C-118.429 179.469 -62.5303 123.571 6.42352 123.571C68.9032 123.571 120.664 169.465 129.833 229.381" stroke="#15E9AC" stroke-width="0.668904" stroke-miterlimit="10"/>
<path d="M77.3772 346.915C79.6341 346.915 81.4636 348.745 81.4636 351.002C81.4636 353.259 79.6341 355.088 77.3772 355.088C75.1203 355.088 73.2908 353.259 73.2908 351.002C73.2914 348.745 75.1208 346.915 77.3772 346.915Z" stroke="#15E9AC" stroke-width="1.15827" stroke-miterlimit="10"/>
<path d="M77.3772 349.618C78.1411 349.618 78.7608 350.237 78.7608 351.001C78.7608 351.765 78.1411 352.385 77.3772 352.385C76.6128 352.385 75.9937 351.765 75.9937 351.001C75.9937 350.237 76.6133 349.618 77.3772 349.618Z" fill="#15E9AC" fill-opacity="0.4"/>
<path d="M282.364 134.823L282.364 1.0002L236.825 1.0002" stroke="#15E9AC" stroke-width="0.579137" stroke-miterlimit="10"/>
<path d="M285.252 588.392L282.365 593.393L279.477 588.392L285.252 588.392Z" fill="#15E9AC" fill-opacity="0.4"/>
<path d="M32.41 691.184C32.41 689.843 31.3226 688.755 29.9811 688.755C28.6397 688.755 27.5522 689.843 27.5522 691.184C27.5522 692.526 28.6397 693.613 29.9811 693.613C31.3226 693.613 32.41 692.526 32.41 691.184Z" stroke="#15E9AC" stroke-width="0.579137" stroke-miterlimit="10"/>
<path d="M32.4101 681.932C32.4101 680.591 31.3227 679.503 29.9812 679.503C28.6398 679.503 27.5523 680.591 27.5523 681.932C27.5523 683.274 28.6398 684.361 29.9812 684.361C31.3227 684.361 32.4101 683.274 32.4101 681.932Z" stroke="#15E9AC" stroke-width="0.579137" stroke-miterlimit="10"/>
<path d="M32.4101 672.68C32.4101 671.338 31.3227 670.251 29.9812 670.251C28.6398 670.251 27.5523 671.338 27.5523 672.68C27.5523 674.021 28.6398 675.109 29.9812 675.109C31.3227 675.109 32.4101 674.021 32.4101 672.68Z" stroke="#15E9AC" stroke-width="0.579137" stroke-miterlimit="10"/>
<path d="M32.4101 663.427C32.4101 662.085 31.3227 660.998 29.9812 660.998C28.6398 660.998 27.5523 662.085 27.5523 663.427C27.5523 664.768 28.6398 665.856 29.9812 665.856C31.3227 665.856 32.4101 664.768 32.4101 663.427Z" stroke="#15E9AC" stroke-width="0.579137" stroke-miterlimit="10"/>
<path d="M266.222 601.187C266.222 599.845 265.134 598.758 263.793 598.758C262.451 598.758 261.364 599.845 261.364 601.187C261.364 602.528 262.451 603.615 263.793 603.615C265.134 603.615 266.222 602.528 266.222 601.187Z" stroke="#15E9AC" stroke-width="0.579137" stroke-miterlimit="10"/>
<path d="M263.793 589.505C265.134 589.505 266.222 590.593 266.222 591.934C266.222 593.276 265.134 594.363 263.793 594.363C262.452 594.363 261.364 593.276 261.364 591.934C261.364 590.592 262.452 589.505 263.793 589.505Z" stroke="#15E9AC" stroke-width="0.579137" stroke-miterlimit="10"/>
<path d="M266.222 582.681C266.222 581.34 265.134 580.253 263.793 580.253C262.451 580.253 261.364 581.34 261.364 582.681C261.364 584.023 262.451 585.11 263.793 585.11C265.134 585.11 266.222 584.023 266.222 582.681Z" stroke="#15E9AC" stroke-width="0.579137" stroke-miterlimit="10"/>
<path d="M263.793 571C265.134 571 266.222 572.088 266.222 573.429C266.222 574.77 265.134 575.858 263.793 575.858C262.452 575.858 261.364 574.77 261.364 573.429C261.364 572.088 262.452 571 263.793 571Z" stroke="#15E9AC" stroke-width="0.579137" stroke-miterlimit="10"/>
<path d="M38.3266 797.501C38.3266 796.159 37.2391 795.072 35.8977 795.072C34.5562 795.072 33.4687 796.159 33.4687 797.501C33.4687 798.842 34.5562 799.93 35.8977 799.93C37.2391 799.93 38.3266 798.842 38.3266 797.501Z" stroke="#15E9AC" stroke-width="0.579137" stroke-miterlimit="10"/>
<path d="M35.8975 785.82C37.2388 785.82 38.3264 786.907 38.3264 788.248C38.3264 789.59 37.2388 790.677 35.8975 790.677C34.5562 790.677 33.4686 789.59 33.4686 788.248C33.4692 786.907 34.5562 785.82 35.8975 785.82Z" fill="#15E9AC" fill-opacity="0.4"/>
<path d="M38.3264 778.996C38.3264 777.654 37.239 776.567 35.8975 776.567C34.5561 776.567 33.4686 777.654 33.4686 778.996C33.4686 780.337 34.5561 781.425 35.8975 781.425C37.239 781.425 38.3264 780.337 38.3264 778.996Z" stroke="#15E9AC" stroke-width="0.579137" stroke-miterlimit="10"/>
<path d="M46.372 797.501C46.372 796.159 45.2845 795.072 43.9431 795.072C42.6016 795.072 41.5142 796.159 41.5142 797.501C41.5142 798.842 42.6016 799.93 43.9431 799.93C45.2845 799.93 46.372 798.842 46.372 797.501Z" fill="#15E9AC" fill-opacity="0.4"/>
<path d="M43.9431 785.82C45.2843 785.82 46.372 786.907 46.372 788.248C46.372 789.59 45.2843 790.677 43.9431 790.677C42.6018 790.677 41.5142 789.59 41.5142 788.248C41.5142 786.907 42.6012 785.82 43.9431 785.82Z" fill="#15E9AC" fill-opacity="0.4"/>
<path d="M46.372 778.996C46.372 777.654 45.2845 776.567 43.9431 776.567C42.6016 776.567 41.5142 777.654 41.5142 778.996C41.5142 780.337 42.6016 781.425 43.9431 781.425C45.2845 781.425 46.372 780.337 46.372 778.996Z" fill="#15E9AC" fill-opacity="0.4"/>
<path d="M87.564 328.052L87.564 329.278L92.8926 329.278L92.8926 328.052L87.564 328.052Z" fill="#15E9AC" fill-opacity="0.4"/>
<path d="M90.8411 326L89.6151 326L89.6151 331.329L90.8411 331.329L90.8411 326Z" fill="#15E9AC" fill-opacity="0.4"/>
<path d="M56.98 669.834L56.98 672.439L68.3033 672.439L68.3033 669.834L56.98 669.834Z" fill="#15E9AC" fill-opacity="0.4"/>
<path d="M63.9441 665.474L61.3392 665.474L61.3392 676.798L63.9441 676.798L63.9441 665.474Z" fill="#15E9AC" fill-opacity="0.4"/>
<path d="M43.7153 849.923L22.7859 849.923L22.7859 669.148" stroke="#15E9AC" stroke-width="0.579137" stroke-miterlimit="10"/>
<path d="M40.1375 754.258L40.1374 661.721" stroke="#15E9AC" stroke-width="0.579137" stroke-miterlimit="10"/>
<path d="M43.9824 770.918L43.9824 678.381" stroke="#15E9AC" stroke-width="0.579137" stroke-miterlimit="10"/>
<path d="M262.752 76.1598L259.697 81.4502L265.806 81.4502L262.752 76.1598Z" fill="#15E9AC" fill-opacity="0.4"/>
<path d="M262.751 69.6566L259.697 74.947L265.806 74.947L262.751 69.6566Z" fill="#15E9AC" fill-opacity="0.4"/>
<path d="M262.751 63.1537L259.697 68.4441L265.806 68.4441L262.751 63.1537Z" fill="#15E9AC" fill-opacity="0.4"/>
<path d="M262.751 56.6505L259.697 61.9409L265.806 61.9409L262.751 56.6505Z" fill="#15E9AC" fill-opacity="0.4"/>
<path d="M32.0564 720.88L29.002 715.59L35.1108 715.59L32.0564 720.88Z" fill="#15E9AC" fill-opacity="0.4"/>
<path d="M32.0564 727.384L29.002 722.093L35.1108 722.093L32.0564 727.384Z" fill="#15E9AC" fill-opacity="0.4"/>
<path d="M32.0564 733.887L29.002 728.596L35.1108 728.596L32.0564 733.887Z" fill="#15E9AC" fill-opacity="0.4"/>
<path d="M32.0563 740.39L29.002 735.099L35.1107 735.099L32.0563 740.39Z" fill="#15E9AC" fill-opacity="0.4"/>
<path d="M18.2747 694.439L18.2747 812.683" stroke="#15E9AC" stroke-width="0.579137" stroke-miterlimit="10"/>
<path d="M77.9878 730.215C77.9878 726.843 75.2541 724.109 71.8819 724.109C68.5097 724.109 65.7761 726.843 65.7761 730.215C65.7761 733.587 68.5097 736.321 71.8819 736.321C75.2541 736.321 77.9878 733.587 77.9878 730.215Z" fill="#15E9AC" fill-opacity="0.4"/>
<path d="M248.538 45.981C248.538 44.8571 247.627 43.9459 246.503 43.9459C245.379 43.9459 244.468 44.8571 244.468 45.981C244.468 47.105 245.379 48.0161 246.503 48.0161C247.627 48.0161 248.538 47.105 248.538 45.981Z" fill="#15E9AC" fill-opacity="0.4"/>
<path d="M218.768 597.721C220.117 597.721 221.21 598.815 221.21 600.164C221.21 601.512 220.117 602.606 218.768 602.606C217.419 602.606 216.326 601.512 216.326 600.164C216.326 598.815 217.419 597.721 218.768 597.721Z" fill="#15E9AC" fill-opacity="0.4"/>
<path d="M251.596 1107.98C242.691 1117.1 237.131 1129.09 235.94 1141.74L231.236 1141.3C232.527 1127.58 238.556 1114.57 248.214 1104.68L251.596 1107.98Z" fill="#15E9AC" fill-opacity="0.4"/>
<path d="M296.651 1086.58L296.266 1091.29C294.735 1091.17 293.179 1091.1 291.641 1091.1C280.997 1091.1 270.645 1094.1 261.704 1099.78L259.171 1095.79C268.872 1089.63 280.099 1086.38 291.641 1086.38C293.307 1086.38 294.993 1086.45 296.651 1086.58Z" fill="#15E9AC" fill-opacity="0.4"/>
<path d="M302.526 1147.05C302.526 1153.05 297.643 1157.94 291.641 1157.94C285.64 1157.94 280.757 1153.05 280.757 1147.05C280.757 1141.05 285.64 1136.17 291.641 1136.17C297.643 1136.17 302.526 1141.05 302.526 1147.05ZM281.229 1147.05C281.229 1152.79 285.9 1157.46 291.641 1157.46C297.383 1157.46 302.053 1152.79 302.053 1147.05C302.053 1141.31 297.382 1136.64 291.641 1136.64C285.9 1136.64 281.229 1141.31 281.229 1147.05Z" fill="#15E9AC" fill-opacity="0.4"/>
<path d="M343.618 1047.44L342.085 1050.37C326.636 1042.29 309.193 1038.02 291.641 1038.02C281.908 1038.02 272.258 1039.3 262.958 1041.83L262.089 1038.64C271.672 1036.04 281.615 1034.71 291.641 1034.71C309.725 1034.71 327.698 1039.11 343.618 1047.44Z" fill="#15E9AC" fill-opacity="0.4"/>
<path d="M231.447 1056.13C216.729 1065.89 204.465 1079.23 195.982 1094.69L193.081 1093.1C201.821 1077.17 214.456 1063.43 229.619 1053.37L231.447 1056.13Z" fill="#15E9AC" fill-opacity="0.4"/>
<path d="M186.958 1116.47C184.822 1123.79 183.457 1131.38 182.901 1139.03L179.601 1138.79C180.175 1130.91 181.581 1123.09 183.782 1115.54L186.958 1116.47Z" fill="#15E9AC" fill-opacity="0.4"/>
<path d="M358.469 1147.01L357.76 1147.01C357.759 1145.19 357.683 1143.36 357.534 1141.55L358.24 1141.5C358.391 1143.32 358.468 1145.17 358.469 1147.01ZM358.248 1152.53C358.099 1154.36 357.873 1156.2 357.575 1158.01L356.876 1157.89C357.171 1156.11 357.395 1154.28 357.542 1152.47L358.248 1152.53ZM357.562 1136.02L356.862 1136.13C356.565 1134.34 356.189 1132.54 355.744 1130.78L356.432 1130.61C356.88 1132.39 357.261 1134.2 357.562 1136.02ZM356.452 1163.41C356.005 1165.19 355.477 1166.97 354.883 1168.71L354.212 1168.48C354.8 1166.76 355.322 1165 355.764 1163.24L356.452 1163.41ZM354.856 1125.32L354.186 1125.55C353.596 1123.83 352.927 1122.12 352.197 1120.46L352.846 1120.18C353.584 1121.86 354.26 1123.59 354.856 1125.32ZM352.876 1173.86C352.141 1175.54 351.324 1177.21 350.45 1178.82L349.826 1178.48C350.691 1176.89 351.499 1175.23 352.227 1173.57L352.876 1173.86ZM350.417 1115.22L349.793 1115.56C348.929 1113.97 347.987 1112.39 346.992 1110.87L347.585 1110.48C348.591 1112.02 349.543 1113.61 350.417 1115.22ZM347.621 1183.57C346.619 1185.1 345.539 1186.61 344.411 1188.06L343.852 1187.63C344.968 1186.19 346.036 1184.7 347.028 1183.18L347.621 1183.57ZM344.372 1105.99L343.813 1106.43C342.7 1105 341.511 1103.6 340.279 1102.26L340.801 1101.78C342.045 1103.13 343.247 1104.55 344.372 1105.99ZM340.842 1192.28C339.601 1193.63 338.288 1194.94 336.94 1196.18L336.459 1195.66C337.793 1194.43 339.092 1193.13 340.321 1191.8L340.842 1192.28ZM336.895 1097.88L336.415 1098.4C335.082 1097.17 333.679 1095.98 332.246 1094.87L332.682 1094.31C334.13 1095.44 335.548 1096.64 336.895 1097.88ZM332.731 1199.76C331.284 1200.89 329.774 1201.97 328.243 1202.97L327.854 1202.38C329.369 1201.39 330.863 1200.32 332.295 1199.2L332.731 1199.76ZM328.189 1091.09L327.8 1091.69C326.28 1090.69 324.701 1089.75 323.107 1088.89L323.445 1088.26C325.056 1089.14 326.652 1090.09 328.189 1091.09ZM323.506 1205.81C321.895 1206.68 320.228 1207.5 318.551 1208.24L318.265 1207.59C319.924 1206.86 321.573 1206.05 323.167 1205.19L323.506 1205.81ZM318.482 1085.83L318.197 1086.48C316.534 1085.75 314.821 1085.08 313.105 1084.49L313.334 1083.82C315.069 1084.42 316.801 1085.09 318.482 1085.83ZM313.413 1210.25C311.678 1210.85 309.898 1211.38 308.122 1211.83L307.947 1211.15C309.705 1210.7 311.466 1210.17 313.182 1209.58L313.413 1210.25ZM308.042 1082.25L307.868 1082.94C306.113 1082.49 304.313 1082.12 302.521 1081.82L302.636 1081.12C304.449 1081.42 306.268 1081.8 308.042 1082.25ZM302.717 1212.97C300.909 1213.27 299.066 1213.5 297.238 1213.65L297.181 1212.94C298.988 1212.79 300.812 1212.57 302.601 1212.27L302.717 1212.97ZM297.157 1080.45L297.099 1081.15C295.298 1081.01 293.462 1080.93 291.641 1080.93L291.48 1080.93L291.48 1080.22L291.638 1080.22C293.48 1080.22 295.337 1080.3 297.157 1080.45ZM291.722 1213.17L291.722 1213.88L291.647 1213.88C289.832 1213.88 288.004 1213.81 286.205 1213.66L286.263 1212.96C288.042 1213.1 289.852 1213.17 291.641 1213.17L291.722 1213.17ZM286.021 1081.17C284.21 1081.32 282.387 1081.55 280.602 1081.85L280.485 1081.15C282.288 1080.85 284.131 1080.62 285.962 1080.46L286.021 1081.17ZM280.84 1212.29L280.725 1212.99C278.912 1212.7 277.093 1212.32 275.318 1211.87L275.491 1211.19C277.247 1211.63 279.046 1212 280.84 1212.29ZM275.257 1082.98C273.501 1083.43 271.74 1083.95 270.024 1084.55L269.792 1083.88C271.527 1083.28 273.306 1082.74 275.081 1082.29L275.257 1082.98ZM270.252 1209.64L270.024 1210.31C268.286 1209.71 266.553 1209.04 264.873 1208.3L265.158 1207.65C266.82 1208.38 268.534 1209.05 270.252 1209.64ZM264.943 1086.54C263.283 1087.28 261.635 1088.09 260.044 1088.96L259.705 1088.33C261.313 1087.46 262.979 1086.64 264.657 1085.89L264.943 1086.54ZM260.244 1205.26L259.907 1205.88C258.295 1205.01 256.698 1204.06 255.161 1203.05L255.548 1202.46C257.07 1203.45 258.649 1204.39 260.244 1205.26ZM255.36 1091.77C253.847 1092.76 252.355 1093.83 250.923 1094.95L250.486 1094.39C251.933 1093.26 253.441 1092.18 254.97 1091.17L255.36 1091.77ZM251.098 1199.29L250.663 1199.85C249.218 1198.72 247.799 1197.52 246.445 1196.28L246.924 1195.76C248.264 1196.99 249.668 1198.18 251.098 1199.29ZM246.762 1098.49C245.43 1099.73 244.133 1101.03 242.906 1102.37L242.384 1101.89C243.623 1100.54 244.934 1099.22 246.281 1097.97L246.762 1098.49ZM243.056 1191.9L242.535 1192.38C241.292 1191.03 240.089 1189.62 238.959 1188.17L239.517 1187.74C240.635 1189.17 241.825 1190.57 243.056 1191.9ZM239.381 1106.54C238.267 1107.98 237.201 1109.47 236.21 1110.99L235.617 1110.61C236.617 1109.07 237.696 1107.56 238.821 1106.11L239.381 1106.54ZM236.333 1183.3L235.74 1183.69C234.733 1182.15 233.778 1180.56 232.903 1178.95L233.526 1178.61C234.392 1180.2 235.336 1181.78 236.333 1183.3ZM233.418 1115.69C232.556 1117.28 231.751 1118.94 231.022 1120.6L230.372 1120.32C231.109 1118.64 231.923 1116.96 232.793 1115.35L233.418 1115.69ZM231.117 1173.71L230.468 1174C229.729 1172.32 229.051 1170.6 228.453 1168.86L229.123 1168.63C229.715 1170.35 230.385 1172.06 231.117 1173.71ZM229.044 1125.7C228.459 1127.42 227.939 1129.18 227.498 1130.94L226.81 1130.77C227.256 1128.99 227.782 1127.21 228.373 1125.47L229.044 1125.7ZM227.557 1163.4L226.87 1163.57C226.418 1161.8 226.036 1159.98 225.733 1158.17L226.432 1158.05C226.732 1159.84 227.11 1161.64 227.557 1163.4ZM226.393 1136.29C226.1 1138.08 225.878 1139.9 225.734 1141.71L225.027 1141.66C225.173 1139.83 225.397 1137.98 225.693 1136.18L226.393 1136.29ZM225.753 1152.63L225.047 1152.69C224.894 1150.87 224.816 1149.01 224.812 1147.17L225.521 1147.17C225.524 1148.99 225.602 1150.83 225.753 1152.63Z" fill="#15E9AC" fill-opacity="0.4"/>
<path d="M448.455 1146.96L446.791 1146.96C446.789 1142.69 446.611 1138.38 446.263 1134.15L447.92 1134.01C448.273 1138.29 448.453 1142.64 448.455 1146.96ZM447.936 1159.9C447.588 1164.2 447.057 1168.52 446.358 1172.76L444.717 1172.49C445.408 1168.3 445.934 1164.02 446.278 1159.77L447.936 1159.9ZM446.326 1121.15L444.684 1121.43C443.986 1117.22 443.103 1113 442.06 1108.88L443.673 1108.47C444.727 1112.64 445.62 1116.91 446.326 1121.15ZM443.721 1185.45C442.67 1189.62 441.431 1193.8 440.038 1197.87L438.465 1197.33C439.843 1193.3 441.069 1189.17 442.108 1185.04L443.721 1185.45ZM439.975 1096.05L438.403 1096.59C437.02 1092.57 435.45 1088.56 433.738 1084.66L435.261 1083.99C436.992 1087.93 438.578 1091.99 439.975 1096.05ZM435.33 1209.95C433.602 1213.89 431.687 1217.81 429.637 1221.6L428.174 1220.81C430.202 1217.06 432.097 1213.18 433.807 1209.28L435.33 1209.95ZM429.56 1072.36L428.098 1073.16C426.069 1069.42 423.858 1065.72 421.524 1062.16L422.916 1061.24C425.274 1064.84 427.51 1068.59 429.56 1072.36ZM423 1232.73C420.647 1236.33 418.114 1239.88 415.467 1243.28L414.155 1242.26C416.773 1238.9 419.28 1235.38 421.607 1231.82L423 1232.73ZM415.377 1050.71L414.065 1051.73C411.447 1048.37 408.657 1045.08 405.773 1041.95L406.997 1040.83C409.911 1043.99 412.731 1047.31 415.377 1050.71ZM407.093 1253.17C404.182 1256.34 401.101 1259.42 397.937 1262.34L396.809 1261.12C399.94 1258.23 402.988 1255.18 405.869 1252.05L407.093 1253.17ZM397.832 1031.66L396.705 1032.89C393.572 1030 390.281 1027.21 386.923 1024.6L387.946 1023.28C391.339 1025.93 394.666 1028.75 397.832 1031.66ZM388.06 1270.73C384.671 1273.38 381.128 1275.92 377.529 1278.28L376.617 1276.88C380.177 1274.55 383.683 1272.04 387.037 1269.42L388.06 1270.73ZM377.401 1015.75L376.49 1017.14C372.929 1014.81 369.223 1012.59 365.478 1010.56L366.271 1009.1C370.057 1011.15 373.801 1013.39 377.401 1015.75ZM366.412 1284.93C362.634 1286.98 358.723 1288.9 354.786 1290.63L354.115 1289.11C358.01 1287.4 361.88 1285.5 365.618 1283.46L366.412 1284.93ZM354.626 1003.4L353.958 1004.92C350.056 1003.21 346.035 1001.64 342.007 1000.26L342.547 998.686C346.618 1000.08 350.682 1001.67 354.626 1003.4ZM342.729 1295.36C338.661 1296.76 334.484 1298 330.313 1299.06L329.904 1297.45C334.03 1296.4 338.163 1295.17 342.188 1293.78L342.729 1295.36ZM330.126 994.996L329.719 996.608C325.592 995.567 321.37 994.687 317.171 993.992L317.443 992.351C321.687 993.054 325.954 993.943 330.126 994.996ZM317.633 1301.72C313.395 1302.43 309.07 1302.97 304.776 1303.32L304.639 1301.67C308.887 1301.31 313.166 1300.78 317.359 1300.08L317.633 1301.72ZM304.584 990.765L304.449 992.422C300.219 992.077 295.91 991.901 291.641 991.901L291.266 991.902L291.259 990.238L291.641 990.238C295.954 990.238 300.309 990.416 304.584 990.765ZM291.829 1302.2L291.829 1303.87L291.64 1303.87C287.392 1303.87 283.1 1303.69 278.886 1303.35L279.02 1301.7C283.19 1302.03 287.436 1302.2 291.64 1302.2L291.829 1302.2ZM278.455 992.454C274.208 992.812 269.929 993.35 265.738 994.054L265.462 992.414C269.698 991.701 274.023 991.158 278.316 990.797L278.455 992.454ZM266.297 1300.14L266.028 1301.78C261.775 1301.09 257.507 1300.2 253.34 1299.15L253.746 1297.54C257.867 1298.58 262.09 1299.45 266.297 1300.14ZM253.196 996.701C249.073 997.752 244.942 998.99 240.917 1000.38L240.373 998.81C244.441 997.403 248.617 996.151 252.784 995.09L253.196 996.701ZM241.452 1293.91L240.914 1295.48C236.839 1294.09 232.772 1292.51 228.828 1290.78L229.496 1289.26C233.397 1290.96 237.42 1292.53 241.452 1293.91ZM228.994 1005.07C225.099 1006.79 221.231 1008.69 217.498 1010.73L216.702 1009.27C220.475 1007.21 224.385 1005.29 228.321 1003.55L228.994 1005.07ZM217.968 1283.63L217.177 1285.09C213.396 1283.05 209.648 1280.82 206.039 1278.46L206.948 1277.07C210.519 1279.4 214.227 1281.61 217.968 1283.63ZM206.508 1017.32C202.953 1019.66 199.45 1022.18 196.097 1024.8L195.071 1023.49C198.461 1020.84 202.001 1018.3 205.594 1015.93L206.508 1017.32ZM196.507 1269.62L195.486 1270.94C192.088 1268.3 188.759 1265.48 185.589 1262.57L186.715 1261.34C189.851 1264.22 193.145 1267.01 196.507 1269.62ZM186.334 1033.11C183.206 1036 180.162 1039.06 177.285 1042.2L176.059 1041.07C178.966 1037.9 182.043 1034.81 185.204 1031.89L186.334 1033.11ZM177.636 1252.29L176.414 1253.42C173.494 1250.26 170.671 1246.94 168.021 1243.55L169.331 1242.52C171.954 1245.88 174.747 1249.16 177.636 1252.29ZM169.012 1051.99C166.399 1055.36 163.895 1058.87 161.572 1062.44L160.178 1061.53C162.526 1057.93 165.057 1054.38 167.698 1050.97L169.012 1051.99ZM161.86 1232.11L160.47 1233.02C158.106 1229.42 155.867 1225.68 153.812 1221.91L155.273 1221.11C157.305 1224.85 159.522 1228.55 161.86 1232.11ZM155.018 1073.46C152.995 1077.21 151.104 1081.09 149.399 1084.99L147.875 1084.33C149.598 1080.38 151.509 1076.46 153.554 1072.67L155.018 1073.46ZM149.619 1209.61L148.097 1210.28C146.362 1206.35 144.771 1202.3 143.367 1198.23L144.94 1197.69C146.328 1201.71 147.902 1205.72 149.619 1209.61ZM144.757 1096.95C143.384 1100.98 142.163 1105.11 141.128 1109.25L139.514 1108.84C140.56 1104.67 141.794 1100.48 143.182 1096.42L144.757 1096.95ZM141.266 1185.41L139.654 1185.82C138.595 1181.65 137.697 1177.39 136.986 1173.14L138.626 1172.86C139.331 1177.06 140.219 1181.29 141.266 1185.41ZM138.533 1121.8C137.846 1126 137.326 1130.28 136.988 1134.53L135.33 1134.39C135.672 1130.1 136.198 1125.77 136.892 1121.53L138.533 1121.8ZM137.034 1160.14L135.376 1160.28C135.019 1156.01 134.834 1151.65 134.827 1147.34L136.49 1147.33C136.498 1151.6 136.68 1155.91 137.034 1160.14Z" fill="#15E9AC" fill-opacity="0.4"/>
<path d="M292.287 1023.37L292.287 1026.85L295.764 1026.85L295.764 1023.37L292.287 1023.37Z" fill="#15E9AC" fill-opacity="0.4"/>
<path d="M294.026 1026.85C294.986 1026.85 295.764 1026.07 295.764 1025.11C295.764 1024.15 294.986 1023.37 294.026 1023.37C293.065 1023.37 292.287 1024.15 292.287 1025.11C292.287 1026.07 293.065 1026.85 294.026 1026.85Z" fill="#15E9AC" fill-opacity="0.4"/>
<path d="M287.259 1023.37L287.259 1026.84L290.736 1026.84L290.736 1023.37L287.259 1023.37Z" fill="#15E9AC" fill-opacity="0.4"/>
<path d="M288.998 1026.84C289.958 1026.84 290.736 1026.06 290.736 1025.1C290.736 1024.14 289.958 1023.37 288.998 1023.37C288.037 1023.37 287.259 1024.14 287.259 1025.1C287.259 1026.06 288.038 1026.84 288.998 1026.84Z" fill="#15E9AC" fill-opacity="0.4"/>
<path d="M282.229 1023.81L282.229 1027.29L285.706 1027.29L285.706 1023.81L282.229 1023.81Z" fill="#15E9AC" fill-opacity="0.4"/>
<path d="M283.967 1027.29C284.928 1027.29 285.706 1026.51 285.706 1025.55C285.706 1024.59 284.928 1023.81 283.967 1023.81C283.007 1023.81 282.229 1024.59 282.229 1025.55C282.229 1026.51 283.007 1027.29 283.967 1027.29Z" fill="#15E9AC" fill-opacity="0.4"/>
<path d="M277.198 1024.26L277.198 1027.74L280.676 1027.74L280.676 1024.26L277.198 1024.26Z" fill="#15E9AC" fill-opacity="0.4"/>
<path d="M278.937 1027.74C279.897 1027.74 280.676 1026.96 280.676 1026C280.676 1025.04 279.897 1024.26 278.937 1024.26C277.977 1024.26 277.198 1025.04 277.198 1026C277.198 1026.96 277.977 1027.74 278.937 1027.74Z" fill="#15E9AC" fill-opacity="0.4"/>
<path d="M272.168 1024.71L272.168 1028.18L275.645 1028.18L275.645 1024.71L272.168 1024.71Z" fill="#15E9AC" fill-opacity="0.4"/>
<path d="M273.906 1028.18C274.866 1028.18 275.645 1027.4 275.645 1026.44C275.645 1025.48 274.866 1024.71 273.906 1024.71C272.946 1024.71 272.168 1025.48 272.168 1026.44C272.168 1027.4 272.946 1028.18 273.906 1028.18Z" fill="#15E9AC" fill-opacity="0.4"/>
<path d="M267.169 1025.33L267.169 1028.81L270.646 1028.81L270.646 1025.33L267.169 1025.33Z" fill="#15E9AC" fill-opacity="0.4"/>
<path d="M268.908 1028.81C269.868 1028.81 270.646 1028.03 270.646 1027.07C270.646 1026.11 269.868 1025.33 268.908 1025.33C267.948 1025.33 267.169 1026.11 267.169 1027.07C267.169 1028.03 267.948 1028.81 268.908 1028.81Z" fill="#15E9AC" fill-opacity="0.4"/>
<path d="M262.296 1026.65L262.296 1030.13L265.773 1030.13L265.773 1026.65L262.296 1026.65Z" fill="#15E9AC" fill-opacity="0.4"/>
<path d="M264.034 1030.13C264.995 1030.13 265.773 1029.35 265.773 1028.39C265.773 1027.43 264.995 1026.65 264.034 1026.65C263.074 1026.65 262.296 1027.43 262.296 1028.39C262.296 1029.35 263.074 1030.13 264.034 1030.13Z" fill="#15E9AC" fill-opacity="0.4"/>
<path d="M257.422 1027.98L257.422 1031.45L260.9 1031.45L260.9 1027.98L257.422 1027.98Z" fill="#15E9AC" fill-opacity="0.4"/>
<path d="M259.161 1031.45C260.121 1031.45 260.9 1030.68 260.9 1029.72C260.9 1028.76 260.121 1027.98 259.161 1027.98C258.201 1027.98 257.422 1028.76 257.422 1029.72C257.422 1030.68 258.201 1031.45 259.161 1031.45Z" fill="#15E9AC" fill-opacity="0.4"/>
<path d="M252.548 1029.3L252.548 1032.78L256.025 1032.78L256.025 1029.3L252.548 1029.3Z" fill="#15E9AC" fill-opacity="0.4"/>
<path d="M254.287 1032.78C255.247 1032.78 256.025 1032 256.025 1031.04C256.025 1030.08 255.247 1029.3 254.287 1029.3C253.327 1029.3 252.548 1030.08 252.548 1031.04C252.548 1032 253.327 1032.78 254.287 1032.78Z" fill="#15E9AC" fill-opacity="0.4"/>
<path d="M247.675 1030.63L247.675 1034.1L251.152 1034.1L251.152 1030.63L247.675 1030.63Z" fill="#15E9AC" fill-opacity="0.4"/>
<path d="M249.413 1034.1C250.374 1034.1 251.152 1033.32 251.152 1032.36C251.152 1031.4 250.374 1030.63 249.413 1030.63C248.453 1030.63 247.675 1031.4 247.675 1032.36C247.675 1033.32 248.453 1034.1 249.413 1034.1Z" fill="#15E9AC" fill-opacity="0.4"/>
<path d="M222.824 1043.59L222.824 1047.06L226.301 1047.06L226.301 1043.59L222.824 1043.59Z" fill="#15E9AC" fill-opacity="0.4"/>
<path d="M224.563 1047.06C225.523 1047.06 226.301 1046.28 226.301 1045.32C226.301 1044.36 225.523 1043.59 224.563 1043.59C223.602 1043.59 222.824 1044.36 222.824 1045.32C222.824 1046.28 223.602 1047.06 224.563 1047.06Z" fill="#15E9AC" fill-opacity="0.4"/>
<path d="M218.773 1046.6L218.773 1050.08L222.25 1050.08L222.25 1046.6L218.773 1046.6Z" fill="#15E9AC" fill-opacity="0.4"/>
<path d="M220.512 1050.08C221.472 1050.08 222.25 1049.3 222.25 1048.34C222.25 1047.38 221.472 1046.6 220.512 1046.6C219.551 1046.6 218.773 1047.38 218.773 1048.34C218.773 1049.3 219.551 1050.08 220.512 1050.08Z" fill="#15E9AC" fill-opacity="0.4"/>
<path d="M214.722 1049.62L214.722 1053.09L218.199 1053.09L218.199 1049.62L214.722 1049.62Z" fill="#15E9AC" fill-opacity="0.4"/>
<path d="M216.461 1053.09C217.421 1053.09 218.199 1052.32 218.199 1051.36C218.199 1050.4 217.421 1049.62 216.461 1049.62C215.5 1049.62 214.722 1050.4 214.722 1051.36C214.722 1052.32 215.5 1053.09 216.461 1053.09Z" fill="#15E9AC" fill-opacity="0.4"/>
<path d="M210.671 1052.63L210.671 1056.11L214.148 1056.11L214.148 1052.63L210.671 1052.63Z" fill="#15E9AC" fill-opacity="0.4"/>
<path d="M212.41 1056.11C213.37 1056.11 214.148 1055.33 214.148 1054.37C214.148 1053.41 213.37 1052.63 212.41 1052.63C211.449 1052.63 210.671 1053.41 210.671 1054.37C210.671 1055.33 211.449 1056.11 212.41 1056.11Z" fill="#15E9AC" fill-opacity="0.4"/>
<path d="M206.859 1055.91L206.859 1059.39L210.336 1059.39L210.336 1055.91L206.859 1055.91Z" fill="#15E9AC" fill-opacity="0.4"/>
<path d="M208.598 1059.39C209.558 1059.39 210.336 1058.61 210.336 1057.65C210.336 1056.69 209.558 1055.91 208.598 1055.91C207.637 1055.91 206.859 1056.69 206.859 1057.65C206.859 1058.61 207.637 1059.39 208.598 1059.39Z" fill="#15E9AC" fill-opacity="0.4"/>
<path d="M203.436 1059.63L203.436 1063.1L206.913 1063.1L206.913 1059.63L203.436 1059.63Z" fill="#15E9AC" fill-opacity="0.4"/>
<path d="M205.175 1063.1C206.135 1063.1 206.913 1062.33 206.913 1061.37C206.913 1060.4 206.135 1059.63 205.175 1059.63C204.215 1059.63 203.436 1060.4 203.436 1061.37C203.436 1062.33 204.215 1063.1 205.175 1063.1Z" fill="#15E9AC" fill-opacity="0.4"/>
<path d="M200.014 1063.34L200.014 1066.82L203.492 1066.82L203.492 1063.34L200.014 1063.34Z" fill="#15E9AC" fill-opacity="0.4"/>
<path d="M201.753 1066.82C202.713 1066.82 203.492 1066.04 203.492 1065.08C203.492 1064.12 202.713 1063.34 201.753 1063.34C200.793 1063.34 200.014 1064.12 200.014 1065.08C200.014 1066.04 200.793 1066.82 201.753 1066.82Z" fill="#15E9AC" fill-opacity="0.4"/>
<path d="M196.591 1067.05L196.591 1070.53L200.069 1070.53L200.069 1067.05L196.591 1067.05Z" fill="#15E9AC" fill-opacity="0.4"/>
<path d="M198.33 1070.53C199.29 1070.53 200.069 1069.75 200.069 1068.79C200.069 1067.83 199.29 1067.05 198.33 1067.05C197.37 1067.05 196.591 1067.83 196.591 1068.79C196.591 1069.75 197.37 1070.53 198.33 1070.53Z" fill="#15E9AC" fill-opacity="0.4"/>
<path d="M193.169 1070.77L193.169 1074.25L196.646 1074.25L196.646 1070.77L193.169 1070.77Z" fill="#15E9AC" fill-opacity="0.4"/>
<path d="M194.908 1074.25C195.868 1074.25 196.646 1073.47 196.646 1072.51C196.646 1071.55 195.868 1070.77 194.908 1070.77C193.948 1070.77 193.169 1071.55 193.169 1072.51C193.169 1073.47 193.948 1074.25 194.908 1074.25Z" fill="#15E9AC" fill-opacity="0.4"/>
<path d="M190.391 1074.97L190.391 1078.45L193.868 1078.45L193.868 1074.97L190.391 1074.97Z" fill="#15E9AC" fill-opacity="0.4"/>
<path d="M192.13 1078.45C193.09 1078.45 193.868 1077.67 193.868 1076.71C193.868 1075.75 193.09 1074.97 192.13 1074.97C191.17 1074.97 190.391 1075.75 190.391 1076.71C190.391 1077.67 191.17 1078.45 192.13 1078.45Z" fill="#15E9AC" fill-opacity="0.4"/>
<path d="M187.719 1079.26L187.719 1082.73L191.196 1082.73L191.196 1079.26L187.719 1079.26Z" fill="#15E9AC" fill-opacity="0.4"/>
<path d="M189.458 1082.73C190.418 1082.73 191.196 1081.96 191.196 1081C191.196 1080.04 190.418 1079.26 189.458 1079.26C188.497 1079.26 187.719 1080.04 187.719 1081C187.719 1081.96 188.497 1082.73 189.458 1082.73Z" fill="#15E9AC" fill-opacity="0.4"/>
<path d="M185.047 1083.54L185.047 1087.02L188.524 1087.02L188.524 1083.54L185.047 1083.54Z" fill="#15E9AC" fill-opacity="0.4"/>
<path d="M186.785 1087.02C187.745 1087.02 188.524 1086.24 188.524 1085.28C188.524 1084.32 187.745 1083.54 186.785 1083.54C185.825 1083.54 185.047 1084.32 185.047 1085.28C185.047 1086.24 185.825 1087.02 186.785 1087.02Z" fill="#15E9AC" fill-opacity="0.4"/>
<path d="M182.374 1087.83L182.374 1091.3L185.851 1091.3L185.851 1087.83L182.374 1087.83Z" fill="#15E9AC" fill-opacity="0.4"/>
<path d="M184.112 1091.3C185.072 1091.3 185.851 1090.53 185.851 1089.57C185.851 1088.61 185.072 1087.83 184.112 1087.83C183.152 1087.83 182.374 1088.61 182.374 1089.57C182.374 1090.53 183.152 1091.3 184.112 1091.3Z" fill="#15E9AC" fill-opacity="0.4"/>
<path d="M179.973 1092.25L179.973 1095.73L183.45 1095.73L183.45 1092.25L179.973 1092.25Z" fill="#15E9AC" fill-opacity="0.4"/>
<path d="M181.711 1095.73C182.671 1095.73 183.45 1094.95 183.45 1093.99C183.45 1093.03 182.671 1092.25 181.711 1092.25C180.751 1092.25 179.973 1093.03 179.973 1093.99C179.973 1094.95 180.751 1095.73 181.711 1095.73Z" fill="#15E9AC" fill-opacity="0.4"/>
<path d="M178.157 1096.96L178.157 1100.44L181.634 1100.44L181.634 1096.96L178.157 1096.96Z" fill="#15E9AC" fill-opacity="0.4"/>
<path d="M179.896 1100.44C180.856 1100.44 181.634 1099.66 181.634 1098.7C181.634 1097.74 180.856 1096.96 179.896 1096.96C178.935 1096.96 178.157 1097.74 178.157 1098.7C178.157 1099.66 178.935 1100.44 179.896 1100.44Z" fill="#15E9AC" fill-opacity="0.4"/>
<path d="M176.342 1101.67L176.342 1105.15L179.819 1105.15L179.819 1101.67L176.342 1101.67Z" fill="#15E9AC" fill-opacity="0.4"/>
<path d="M178.08 1105.15C179.04 1105.15 179.819 1104.37 179.819 1103.41C179.819 1102.45 179.04 1101.67 178.08 1101.67C177.12 1101.67 176.342 1102.45 176.342 1103.41C176.342 1104.37 177.12 1105.15 178.08 1105.15Z" fill="#15E9AC" fill-opacity="0.4"/>
<path d="M174.526 1106.39L174.526 1109.86L178.003 1109.86L178.003 1106.39L174.526 1106.39Z" fill="#15E9AC" fill-opacity="0.4"/>
<path d="M176.264 1109.86C177.225 1109.86 178.003 1109.09 178.003 1108.12C178.003 1107.16 177.225 1106.39 176.264 1106.39C175.304 1106.39 174.526 1107.16 174.526 1108.12C174.526 1109.09 175.304 1109.86 176.264 1109.86Z" fill="#15E9AC" fill-opacity="0.4"/>
<path d="M172.71 1111.1L172.71 1114.58L176.187 1114.58L176.187 1111.1L172.71 1111.1Z" fill="#15E9AC" fill-opacity="0.4"/>
<path d="M174.449 1114.58C175.409 1114.58 176.187 1113.8 176.187 1112.84C176.187 1111.88 175.409 1111.1 174.449 1111.1C173.489 1111.1 172.71 1111.88 172.71 1112.84C172.71 1113.8 173.489 1114.58 174.449 1114.58Z" fill="#15E9AC" fill-opacity="0.4"/>
<path d="M171.569 1116L171.569 1119.48L175.046 1119.48L175.046 1116L171.569 1116Z" fill="#15E9AC" fill-opacity="0.4"/>
<path d="M173.307 1119.48C174.268 1119.48 175.046 1118.7 175.046 1117.74C175.046 1116.78 174.268 1116 173.307 1116C172.347 1116 171.569 1116.78 171.569 1117.74C171.569 1118.7 172.348 1119.48 173.307 1119.48Z" fill="#15E9AC" fill-opacity="0.4"/>
<path d="M170.696 1120.97L170.696 1124.45L174.173 1124.45L174.173 1120.97L170.696 1120.97Z" fill="#15E9AC" fill-opacity="0.4"/>
<path d="M172.434 1124.45C173.395 1124.45 174.173 1123.67 174.173 1122.71C174.173 1121.75 173.395 1120.97 172.434 1120.97C171.474 1120.97 170.696 1121.75 170.696 1122.71C170.696 1123.67 171.475 1124.45 172.434 1124.45Z" fill="#15E9AC" fill-opacity="0.4"/>
<path d="M169.823 1125.95L169.823 1129.42L173.3 1129.42L173.3 1125.95L169.823 1125.95Z" fill="#15E9AC" fill-opacity="0.4"/>
<path d="M171.562 1129.42C172.522 1129.42 173.3 1128.65 173.3 1127.69C173.3 1126.73 172.522 1125.95 171.562 1125.95C170.602 1125.95 169.823 1126.73 169.823 1127.69C169.823 1128.65 170.602 1129.42 171.562 1129.42Z" fill="#15E9AC" fill-opacity="0.4"/>
<path d="M168.951 1130.92L168.951 1134.4L172.428 1134.4L172.428 1130.92L168.951 1130.92Z" fill="#15E9AC" fill-opacity="0.4"/>
<path d="M170.689 1134.4C171.649 1134.4 172.428 1133.62 172.428 1132.66C172.428 1131.7 171.649 1130.92 170.689 1130.92C169.729 1130.92 168.951 1131.7 168.951 1132.66C168.951 1133.62 169.729 1134.4 170.689 1134.4Z" fill="#15E9AC" fill-opacity="0.4"/>
<path d="M168.078 1135.9L168.078 1139.37L171.555 1139.37L171.555 1135.9L168.078 1135.9Z" fill="#15E9AC" fill-opacity="0.4"/>
<path d="M169.816 1139.37C170.776 1139.37 171.555 1138.59 171.555 1137.63C171.555 1136.67 170.776 1135.9 169.816 1135.9C168.856 1135.9 168.078 1136.67 168.078 1137.63C168.078 1138.59 168.856 1139.37 169.816 1139.37Z" fill="#15E9AC" fill-opacity="0.4"/>
<path d="M313.194 1147.05C313.194 1154.22 309.641 1160.9 303.692 1164.92L302.898 1163.75C308.457 1159.99 311.776 1153.75 311.776 1147.05C311.776 1135.95 302.743 1126.92 291.641 1126.92C282.766 1126.92 275.037 1132.61 272.407 1141.07L271.053 1140.65C273.867 1131.59 282.141 1125.5 291.641 1125.5C303.526 1125.5 313.194 1135.17 313.194 1147.05Z" fill="#15E9AC" fill-opacity="0.4"/>
<path d="M307.736 1121.17L305.986 1123.98C301.69 1121.3 296.73 1119.89 291.641 1119.89C282.501 1119.89 274.029 1124.44 268.975 1132.07L266.217 1130.25C271.885 1121.69 281.389 1116.58 291.641 1116.58C297.349 1116.58 302.915 1118.17 307.736 1121.17Z" fill="#15E9AC" fill-opacity="0.4"/>
<path d="M304.396 1097.81L302.589 1104.67L302.361 1104.61C298.718 1103.65 294.943 1103.16 291.139 1103.16C285.213 1103.16 279.465 1104.32 274.056 1106.61L273.839 1106.7L271.077 1100.17L271.295 1100.08C277.582 1097.42 284.258 1096.07 291.139 1096.07C295.553 1096.07 299.936 1096.64 304.168 1097.75L304.396 1097.81ZM302.253 1104.09L303.819 1098.15C299.698 1097.08 295.434 1096.55 291.14 1096.55C284.402 1096.55 277.862 1097.85 271.697 1100.42L274.091 1106.08C279.495 1103.83 285.229 1102.69 291.14 1102.69C294.904 1102.69 298.642 1103.16 302.253 1104.09Z" fill="#15E9AC" fill-opacity="0.4"/>
<path d="M268.585 1109.39L268.384 1109.51C265.993 1110.97 263.726 1112.66 261.648 1114.55L261.474 1114.7L256.709 1109.46L256.884 1109.3C259.295 1107.11 261.925 1105.14 264.703 1103.46L264.905 1103.33L268.585 1109.39ZM261.506 1114.04C263.499 1112.25 265.66 1110.63 267.936 1109.23L264.746 1103.98C262.136 1105.59 259.659 1107.44 257.377 1109.49L261.506 1114.04Z" fill="#15E9AC" fill-opacity="0.4"/>
<path d="M255.804 1121.01L255.665 1121.2C251.773 1126.53 249.102 1132.77 247.941 1139.25L247.899 1139.48L240.922 1138.23L240.963 1137.99C242.314 1130.47 245.417 1123.22 249.939 1117.02L250.078 1116.83L255.804 1121.01ZM247.518 1138.93C248.699 1132.55 251.332 1126.4 255.144 1121.12L250.182 1117.49C245.823 1123.52 242.815 1130.55 241.471 1137.84L247.518 1138.93Z" fill="#15E9AC" fill-opacity="0.4"/>
<path d="M274.422 1153.7L273.766 1153.94L233.917 1168.35L233.678 1167.68C231.324 1161.06 230.13 1154.12 230.13 1147.05L230.14 1145.95L273.22 1145.95L273.2 1146.83C273.198 1146.91 273.195 1146.98 273.195 1147.05C273.195 1149.09 273.532 1151.11 274.196 1153.04L274.422 1153.7ZM234.779 1166.53L272.64 1152.84C272.098 1151.06 271.809 1149.23 271.78 1147.37L231.549 1147.37C231.583 1153.93 232.669 1160.37 234.779 1166.53Z" fill="#15E9AC" fill-opacity="0.4"/>
<path d="M276.484 1146.49L276.484 1147.29L279.618 1147.29L279.618 1146.49L276.484 1146.49Z" fill="#15E9AC" fill-opacity="0.4"/>
<path d="M276.552 1148.45L276.651 1149.24L279.761 1148.84L279.661 1148.06L276.552 1148.45Z" fill="#15E9AC" fill-opacity="0.4"/>
<path d="M297.222 1132.2L296.467 1131.95L295.498 1134.93L296.253 1135.18L297.222 1132.2Z" fill="#15E9AC" fill-opacity="0.4"/>
<path d="M295.348 1131.68L294.568 1131.53L293.981 1134.61L294.761 1134.76L295.348 1131.68Z" fill="#15E9AC" fill-opacity="0.4"/>
<path d="M293.42 1131.37L292.627 1131.32L292.431 1134.45L293.223 1134.5L293.42 1131.37Z" fill="#15E9AC" fill-opacity="0.4"/>
<path d="M291.465 1131.32L290.673 1131.37L290.87 1134.5L291.662 1134.45L291.465 1131.32Z" fill="#15E9AC" fill-opacity="0.4"/>
<path d="M289.525 1131.53L288.745 1131.68L289.333 1134.76L290.113 1134.61L289.525 1131.53Z" fill="#15E9AC" fill-opacity="0.4"/>
<path d="M287.603 1131.95L286.848 1132.2L287.816 1135.18L288.571 1134.93L287.603 1131.95Z" fill="#15E9AC" fill-opacity="0.4"/>
<path d="M285.782 1132.63L285.064 1132.97L286.399 1135.81L287.117 1135.47L285.782 1132.63Z" fill="#15E9AC" fill-opacity="0.4"/>
<path d="M284.04 1133.52L283.37 1133.95L285.049 1136.6L285.719 1136.17L284.04 1133.52Z" fill="#15E9AC" fill-opacity="0.4"/>
<path d="M282.429 1134.64L281.818 1135.14L283.815 1137.56L284.427 1137.05L282.429 1134.64Z" fill="#15E9AC" fill-opacity="0.4"/>
<path d="M280.982 1135.93L280.439 1136.51L282.724 1138.66L283.267 1138.08L280.982 1135.93Z" fill="#15E9AC" fill-opacity="0.4"/>
<path d="M279.687 1137.42L279.22 1138.06L281.755 1139.91L282.222 1139.26L279.687 1137.42Z" fill="#15E9AC" fill-opacity="0.4"/>
<path d="M278.601 1139.05L278.218 1139.75L280.965 1141.26L281.348 1140.56L278.601 1139.05Z" fill="#15E9AC" fill-opacity="0.4"/>
<path d="M277.73 1140.78L277.438 1141.52L280.352 1142.67L280.644 1141.94L277.73 1140.78Z" fill="#15E9AC" fill-opacity="0.4"/>
<path d="M277.074 1142.65L276.876 1143.42L279.912 1144.19L280.11 1143.43L277.074 1142.65Z" fill="#15E9AC" fill-opacity="0.4"/>
<path d="M276.651 1144.54L276.552 1145.33L279.662 1145.72L279.761 1144.93L276.651 1144.54Z" fill="#15E9AC" fill-opacity="0.4"/>
<path d="M290.017 1104.77L287.878 1104.9L288.409 1113.35L290.548 1113.21L290.017 1104.77Z" fill="#15E9AC" fill-opacity="0.4"/>
<path d="M284.77 1105.31L282.664 1105.71L284.25 1114.02L286.355 1113.62L284.77 1105.31Z" fill="#15E9AC" fill-opacity="0.4"/>
<path d="M279.615 1106.5L277.577 1107.16L280.191 1115.21L282.23 1114.55L279.615 1106.5Z" fill="#15E9AC" fill-opacity="0.4"/>
<path d="M274.669 1108.3L272.73 1109.21L276.333 1116.86L278.272 1115.95L274.669 1108.3Z" fill="#15E9AC" fill-opacity="0.4"/>
<path d="M269.968 1110.72L268.158 1111.87L272.691 1119.01L274.501 1117.87L269.968 1110.72Z" fill="#15E9AC" fill-opacity="0.4"/>
<path d="M265.625 1113.72L263.974 1115.08L269.367 1121.6L271.018 1120.23L265.625 1113.72Z" fill="#15E9AC" fill-opacity="0.4"/>
<path d="M252.922 1130.31L252.133 1132.3L260 1135.41L260.789 1133.42L252.922 1130.31Z" fill="#15E9AC" fill-opacity="0.4"/>
<path d="M251.163 1135.29L250.63 1137.37L258.825 1139.47L259.358 1137.39L251.163 1135.29Z" fill="#15E9AC" fill-opacity="0.4"/>
<path d="M250.034 1140.44L249.765 1142.57L258.159 1143.63L258.428 1141.5L250.034 1140.44Z" fill="#15E9AC" fill-opacity="0.4"/>
<path d="M241.682 1199.65L241.322 1200.04L197.212 1247.9L196.836 1247.69C168.66 1231.49 148.312 1183.29 154.959 1148.52C154.959 1148.5 154.957 1148.47 154.956 1148.45C154.954 1148.41 154.957 1148.37 154.953 1148.33L154.955 1147.8L219.102 1146.28L219.096 1147.05C219.096 1166.93 226.982 1185.48 241.3 1199.28L241.682 1199.65ZM197.003 1246.53L240.164 1199.69C225.956 1185.8 218.1 1167.26 218.011 1147.4L156 1148.87C152.897 1165.3 155.802 1185.71 163.982 1204.9C172.035 1223.78 184.052 1238.93 197.003 1246.53Z" fill="#15E9AC" fill-opacity="0.4"/>
<path d="M241.915 1094.23L241.514 1094.61C234.237 1101.57 228.583 1109.79 224.708 1119.03L224.501 1119.53L196.769 1108.36L196.979 1107.85C202.365 1094.86 210.242 1083.29 220.391 1073.46L220.775 1073.09L241.915 1094.23ZM223.915 1118.12C227.768 1109.11 233.299 1101.07 240.363 1094.21L220.764 1074.61C211.038 1084.13 203.448 1095.28 198.194 1107.76L223.915 1118.12Z" fill="#15E9AC" fill-opacity="0.4"/>
<path d="M354.258 1065.98L336.473 1090.02L336.034 1089.68C323.821 1080.21 309.196 1074.98 293.741 1074.54L293.213 1074.53L293.213 1044.63L293.767 1044.64C315.68 1045.09 336.45 1052.36 353.833 1065.66L354.258 1065.98ZM336.259 1088.48L352.747 1066.2C335.784 1053.35 315.596 1046.29 294.3 1045.74L294.3 1073.47C309.607 1074.01 324.093 1079.2 336.259 1088.48Z" fill="#15E9AC" fill-opacity="0.4"/>
<path d="M266.109 1079.17L231.236 1003.21L228.257 1012.81L246.792 1058.16L242.158 1072.06L251.426 1086.95C251.426 1086.95 258.166 1082.15 266.109 1079.17Z" fill="#15E9AC" fill-opacity="0.4"/>
<path d="M299.499 1000.16L296.235 999.952L295.002 1019.54L298.267 1019.74L299.499 1000.16Z" fill="#15E9AC" fill-opacity="0.4"/>
<path d="M281.034 1000.33L277.77 1000.53L279.002 1020.12L282.267 1019.91L281.034 1000.33Z" fill="#15E9AC" fill-opacity="0.4"/>
<path d="M262.734 1002.82L259.521 1003.44L263.199 1022.71L266.412 1022.1L262.734 1002.82Z" fill="#15E9AC" fill-opacity="0.4"/>
<path d="M196.816 1034.59L194.296 1036.68L206.804 1051.8L209.325 1049.71L196.816 1034.59Z" fill="#15E9AC" fill-opacity="0.4"/>
<path d="M183.475 1047.35L181.236 1049.74L195.543 1063.17L197.782 1060.78L183.475 1047.35Z" fill="#15E9AC" fill-opacity="0.4"/>
<path d="M171.832 1061.71L169.909 1064.35L185.786 1075.89L187.708 1073.24L171.832 1061.71Z" fill="#15E9AC" fill-opacity="0.4"/>
<path d="M162.083 1077.4L160.507 1080.26L177.704 1089.72L179.28 1086.85L162.083 1077.4Z" fill="#15E9AC" fill-opacity="0.4"/>
<path d="M154.374 1094.18L153.17 1097.22L171.417 1104.44L172.621 1101.4L154.374 1094.18Z" fill="#15E9AC" fill-opacity="0.4"/>
<path d="M148.83 1111.8L148.017 1114.97L167.025 1119.85L167.839 1116.68L148.83 1111.8Z" fill="#15E9AC" fill-opacity="0.4"/>
<path d="M123.311 1089.54C117.298 1107.4 114.039 1126.52 114.039 1146.41C114.039 1244.81 193.809 1324.58 292.209 1324.58C390.61 1324.58 470.379 1244.81 470.379 1146.41C470.379 1048.01 390.61 968.243 292.209 968.243C256.904 968.243 223.997 978.512 196.313 996.225" stroke="#15E9AC" stroke-width="1.90918" stroke-miterlimit="10"/>
<path d="M195.747 995.052C193.117 992.422 188.852 992.422 186.222 995.052C183.592 997.683 183.592 1001.95 186.222 1004.58C188.852 1007.21 193.117 1007.21 195.747 1004.58C198.377 1001.95 198.377 997.683 195.747 995.052Z" stroke="#15E9AC" stroke-width="1.90918" stroke-miterlimit="10"/>
<path d="M193.266 999.812C193.266 998.553 192.244 997.532 190.985 997.532C189.725 997.532 188.704 998.553 188.704 999.812C188.704 1001.07 189.725 1002.09 190.985 1002.09C192.244 1002.09 193.266 1001.07 193.266 999.812Z" fill="#15E9AC" fill-opacity="0.4"/>
<path d="M130.027 1078.05C127.286 1075.54 123.026 1075.72 120.51 1078.46C117.995 1081.2 118.177 1085.46 120.918 1087.98C123.658 1090.49 127.919 1090.31 130.434 1087.57C132.95 1084.83 132.767 1080.57 130.027 1078.05Z" stroke="#15E9AC" stroke-width="1.90918" stroke-miterlimit="10"/>
<path d="M127.753 1083.01C127.753 1081.75 126.732 1080.73 125.473 1080.73C124.213 1080.73 123.192 1081.75 123.192 1083.01C123.192 1084.27 124.213 1085.29 125.473 1085.29C126.732 1085.29 127.753 1084.27 127.753 1083.01Z" fill="#15E9AC" fill-opacity="0.4"/>
<path d="M119.274 1034.82C98.4861 1066.97 86.4186 1105.28 86.4186 1146.41C86.4186 1260.07 178.554 1352.2 292.209 1352.2C405.864 1352.2 498 1260.07 498 1146.41C498 1043.43 422.354 958.114 323.596 943" stroke="#15E9AC" stroke-width="1.10256" stroke-miterlimit="10"/>
<path d="M127.895 1024.7C125.265 1022.07 121 1022.07 118.37 1024.7C115.74 1027.33 115.74 1031.59 118.37 1034.22C121 1036.86 125.265 1036.86 127.895 1034.22C130.525 1031.59 130.525 1027.33 127.895 1024.7Z" stroke="#15E9AC" stroke-width="1.90918" stroke-miterlimit="10"/>
<path d="M125.413 1029.46C125.413 1028.2 124.392 1027.18 123.132 1027.18C121.872 1027.18 120.851 1028.2 120.851 1029.46C120.851 1030.72 121.872 1031.74 123.132 1031.74C124.392 1031.74 125.413 1030.72 125.413 1029.46Z" fill="#15E9AC" fill-opacity="0.4"/>
<path d="M190.994 1011.63L194.668 1019.71L202.752 1016.04L199.078 1007.96L190.994 1011.63Z" stroke="#15E9AC" stroke-width="1.15827" stroke-miterlimit="10"/>
<path d="M206.379 1004.57L209.422 1012.91L217.765 1009.87L214.722 1001.52L206.379 1004.57Z" stroke="#15E9AC" stroke-width="1.15827" stroke-miterlimit="10"/>
<path d="M240.992 994.231L242.318 1003.01L251.099 1001.69L249.773 992.905L240.992 994.231Z" stroke="#15E9AC" stroke-width="1.15827" stroke-miterlimit="10"/>
<path d="M223.712 998.44L225.918 1007.04L234.52 1004.84L232.314 996.234L223.712 998.44Z" stroke="#15E9AC" stroke-width="1.15827" stroke-miterlimit="10"/>
<path d="M103.025 1002.28L103.025 1003.51L108.353 1003.51L108.353 1002.28L103.025 1002.28Z" fill="#15E9AC" fill-opacity="0.4"/>
<path d="M106.302 1000.23L105.076 1000.23L105.076 1005.56L106.302 1005.56L106.302 1000.23Z" fill="#15E9AC" fill-opacity="0.4"/>
<path d="M171.634 1021.36L171.634 1022.53L176.745 1022.53L176.745 1021.36L171.634 1021.36Z" fill="#15E9AC" fill-opacity="0.4"/>
<path d="M174.777 1019.39L173.601 1019.39L173.601 1024.5L174.777 1024.5L174.777 1019.39Z" fill="#15E9AC" fill-opacity="0.4"/>
<path d="M162.245 1018.49C163.818 1018.49 165.094 1019.76 165.094 1021.34C165.094 1022.91 163.818 1024.19 162.245 1024.19C160.671 1024.19 159.396 1022.91 159.396 1021.34C159.396 1019.76 160.671 1018.49 162.245 1018.49Z" fill="#15E9AC" fill-opacity="0.4"/>
<path d="M282.74 971.86C283.864 971.86 284.775 972.771 284.775 973.895C284.775 975.019 283.864 975.93 282.74 975.93C281.615 975.93 280.704 975.019 280.704 973.895C280.704 972.771 281.615 971.86 282.74 971.86Z" fill="#15E9AC" fill-opacity="0.4"/>
</svg>
