<svg width="622" height="111" viewBox="0 0 622 111" fill="none" xmlns="http://www.w3.org/2000/svg">
<mask id="path-1-outside-1_0_442" maskUnits="userSpaceOnUse" x="0" y="-8" width="622" height="119" fill="black">
<rect fill="white" y="-8" width="622" height="119"/>
<path d="M2 98.5525V105.517H12.4541V95.07H23.3438H33.7979V84.6225H44.6876V98.5525H55.1417V88.105H66.0314V84.6225H76.4855V79.3987H87.3752V88.105H97.8293H108.719V98.5525H119.173V95.07H130.063V84.6225H140.517V98.5525H151.407V81.14H161.861V109H172.75V102.035H183.205V84.6225H194.094H204.548V102.035H215.438V81.14H225.892V91.5875H236.782V102.035H247.236H258.126V105.517H268.58V95.07H279.469V81.14H289.924H300.813V105.517H311.267V98.5525H322.157V102.035H332.611V77.6575H343.501V109H353.955V105.517H364.845V102.035H375.299V91.5875H386.188V95.07H396.643V84.6225H407.532V81.14H417.986V77.6575H428.876V88.105H439.33V95.07H450.22V91.5875H460.674V109H471.564V77.6575H482.018V91.5875H492.907V81.14H503.362V88.105H514.251V109H524.705V88.105H534.625V95.07H545.515V91.5875H555.969V109H566.858V77.6575H577.312V91.5875H588.202V81.14H598.656V88.105H609.546V109H620V-6H609.546H598.656H588.202H577.312H566.858H555.969H545.515H534.625H524.705H524.171H514.251H503.362H492.907H482.018H471.564H460.674H450.22H439.33H428.876H417.986H407.532H396.643H386.188H375.299H364.845H353.955H343.501H332.611H322.157H311.267H300.813H289.924H279.469H268.58H258.126H247.236H236.782H225.892H215.438H204.548H194.094H183.205H172.75H161.861H151.407H140.517H130.063H119.173H108.719H97.8293H87.3752H76.4855H66.0314H55.1417H44.6876H33.7979H23.3438H12.4541H2V98.5525Z"/>
</mask>
<path d="M524.705 88.105H525.705V89.105H524.705V88.105ZM524.171 88.105V89.105H523.171V88.105H524.171ZM523.705 88.105V-6H525.705V88.105H523.705ZM525.171 77.6575V88.105H523.171V77.6575H525.171ZM524.171 87.105H524.705V89.105H524.171V87.105ZM2 105.517V107.517H0V105.517H2ZM12.4541 105.517H14.4541V107.517H12.4541V105.517ZM12.4541 95.07H10.4541V93.07H12.4541V95.07ZM33.7979 95.07H35.7979V97.07H33.7979V95.07ZM33.7979 84.6225H31.7979V82.6225H33.7979V84.6225ZM44.6876 84.6225V82.6225H46.6876V84.6225H44.6876ZM44.6876 98.5525V100.552H42.6876V98.5525H44.6876ZM55.1417 98.5525H57.1417V100.552H55.1417V98.5525ZM55.1417 88.105H53.1417V86.105H55.1417V88.105ZM66.0314 88.105H68.0314V90.105H66.0314V88.105ZM66.0314 84.6225H64.0314V82.6225H66.0314V84.6225ZM76.4855 84.6225H78.4855V86.6225H76.4855V84.6225ZM87.3752 88.105V90.105H85.3752V88.105H87.3752ZM108.719 88.105V86.105H110.719V88.105H108.719ZM108.719 98.5525V100.552H106.719V98.5525H108.719ZM119.173 98.5525H121.173V100.552H119.173V98.5525ZM119.173 95.07H117.173V93.07H119.173V95.07ZM130.063 95.07H132.063V97.07H130.063V95.07ZM140.517 98.5525V100.552H138.517V98.5525H140.517ZM151.407 98.5525H153.407V100.552H151.407V98.5525ZM151.407 81.14H149.407V79.14H151.407V81.14ZM161.861 81.14V79.14H163.861V81.14H161.861ZM161.861 109V111H159.861V109H161.861ZM172.75 109H174.75V111H172.75V109ZM172.75 102.035H170.75V100.035H172.75V102.035ZM183.205 102.035H185.205V104.035H183.205V102.035ZM183.205 84.6225H181.205V82.6225H183.205V84.6225ZM204.548 84.6225V82.6225H206.548V84.6225H204.548ZM204.548 102.035V104.035H202.548V102.035H204.548ZM215.438 102.035H217.438V104.035H215.438V102.035ZM215.438 81.14H213.438V79.14H215.438V81.14ZM225.892 81.14V79.14H227.892V81.14H225.892ZM225.892 91.5875V93.5875H223.892V91.5875H225.892ZM236.782 91.5875V89.5875H238.782V91.5875H236.782ZM236.782 102.035V104.035H234.782V102.035H236.782ZM258.126 102.035V100.035H260.126V102.035H258.126ZM258.126 105.517V107.517H256.126V105.517H258.126ZM268.58 105.517H270.58V107.517H268.58V105.517ZM268.58 95.07H266.58V93.07H268.58V95.07ZM279.469 95.07H281.469V97.07H279.469V95.07ZM279.469 81.14H277.469V79.14H279.469V81.14ZM300.813 81.14V79.14H302.813V81.14H300.813ZM300.813 105.517V107.517H298.813V105.517H300.813ZM311.267 105.517H313.267V107.517H311.267V105.517ZM311.267 98.5525H309.267V96.5525H311.267V98.5525ZM322.157 98.5525V96.5525H324.157V98.5525H322.157ZM322.157 102.035V104.035H320.157V102.035H322.157ZM332.611 102.035H334.611V104.035H332.611V102.035ZM332.611 77.6575H330.611V75.6575H332.611V77.6575ZM343.501 77.6575V75.6575H345.501V77.6575H343.501ZM343.501 109V111H341.501V109H343.501ZM353.955 109H355.955V111H353.955V109ZM353.955 105.517H351.955V103.517H353.955V105.517ZM364.845 105.517H366.845V107.517H364.845V105.517ZM364.845 102.035H362.845V100.035H364.845V102.035ZM375.299 102.035H377.299V104.035H375.299V102.035ZM375.299 91.5875H373.299V89.5875H375.299V91.5875ZM386.188 91.5875V89.5875H388.188V91.5875H386.188ZM386.188 95.07V97.07H384.188V95.07H386.188ZM396.643 95.07H398.643V97.07H396.643V95.07ZM396.643 84.6225H394.643V82.6225H396.643V84.6225ZM407.532 84.6225H409.532V86.6225H407.532V84.6225ZM407.532 81.14H405.532V79.14H407.532V81.14ZM417.986 81.14H419.986V83.14H417.986V81.14ZM417.986 77.6575H415.986V75.6575H417.986V77.6575ZM428.876 77.6575V75.6575H430.876V77.6575H428.876ZM428.876 88.105V90.105H426.876V88.105H428.876ZM439.33 88.105V86.105H441.33V88.105H439.33ZM439.33 95.07V97.07H437.33V95.07H439.33ZM450.22 95.07H452.22V97.07H450.22V95.07ZM450.22 91.5875H448.22V89.5875H450.22V91.5875ZM460.674 91.5875V89.5875H462.674V91.5875H460.674ZM460.674 109V111H458.674V109H460.674ZM471.564 109H473.564V111H471.564V109ZM471.564 77.6575H469.564V75.6575H471.564V77.6575ZM482.018 77.6575V75.6575H484.018V77.6575H482.018ZM482.018 91.5875V93.5875H480.018V91.5875H482.018ZM492.907 91.5875H494.907V93.5875H492.907V91.5875ZM492.907 81.14H490.907V79.14H492.907V81.14ZM503.362 81.14V79.14H505.362V81.14H503.362ZM503.362 88.105V90.105H501.362V88.105H503.362ZM514.251 88.105V86.105H516.251V88.105H514.251ZM514.251 109V111H512.251V109H514.251ZM524.705 109H526.705V111H524.705V109ZM524.705 88.105H522.705V86.105H524.705V88.105ZM2 -6H0V-8H2V-6ZM76.4855 79.3987H74.4855V77.3987H76.4855V79.3987ZM87.3752 79.3987V77.3987H89.3752V79.3987H87.3752ZM130.063 84.6225H128.063V82.6225H130.063V84.6225ZM140.517 84.6225V82.6225H142.517V84.6225H140.517ZM534.625 88.105V86.105H536.625V88.105H534.625ZM534.625 95.07V97.07H532.625V95.07H534.625ZM545.515 95.07H547.515V97.07H545.515V95.07ZM545.515 91.5875H543.515V89.5875H545.515V91.5875ZM555.969 91.5875V89.5875H557.969V91.5875H555.969ZM555.969 109V111H553.969V109H555.969ZM566.858 109H568.858V111H566.858V109ZM566.858 77.6575H564.858V75.6575H566.858V77.6575ZM577.312 77.6575V75.6575H579.312V77.6575H577.312ZM577.312 91.5875V93.5875H575.312V91.5875H577.312ZM588.202 91.5875H590.202V93.5875H588.202V91.5875ZM588.202 81.14H586.202V79.14H588.202V81.14ZM598.656 81.14V79.14H600.656V81.14H598.656ZM598.656 88.105V90.105H596.656V88.105H598.656ZM609.546 88.105V86.105H611.546V88.105H609.546ZM609.546 109V111H607.546V109H609.546ZM620 109H622V111H620V109ZM620 -6V-8H622V-6H620ZM4 98.5525V105.517H0V98.5525H4ZM2 103.517H12.4541V107.517H2V103.517ZM10.4541 105.517V95.07H14.4541V105.517H10.4541ZM12.4541 93.07H23.3438V97.07H12.4541V93.07ZM23.3438 93.07H33.7979V97.07H23.3438V93.07ZM31.7979 95.07V84.6225H35.7979V95.07H31.7979ZM33.7979 82.6225H44.6876V86.6225H33.7979V82.6225ZM46.6876 84.6225V98.5525H42.6876V84.6225H46.6876ZM44.6876 96.5525H55.1417V100.552H44.6876V96.5525ZM53.1417 98.5525V88.105H57.1417V98.5525H53.1417ZM55.1417 86.105H66.0314V90.105H55.1417V86.105ZM64.0314 88.105V84.6225H68.0314V88.105H64.0314ZM66.0314 82.6225H76.4855V86.6225H66.0314V82.6225ZM76.4855 -8H87.3752V-4H76.4855V-8ZM87.3752 86.105H97.8293V90.105H87.3752V86.105ZM97.8293 86.105H108.719V90.105H97.8293V86.105ZM110.719 88.105V98.5525H106.719V88.105H110.719ZM108.719 96.5525H119.173V100.552H108.719V96.5525ZM117.173 98.5525V95.07H121.173V98.5525H117.173ZM119.173 93.07H130.063V97.07H119.173V93.07ZM130.063 -8H140.517V-4H130.063V-8ZM140.517 96.5525H151.407V100.552H140.517V96.5525ZM149.407 98.5525V81.14H153.407V98.5525H149.407ZM151.407 79.14H161.861V83.14H151.407V79.14ZM163.861 81.14V109H159.861V81.14H163.861ZM161.861 107H172.75V111H161.861V107ZM170.75 109V102.035H174.75V109H170.75ZM172.75 100.035H183.205V104.035H172.75V100.035ZM181.205 102.035V84.6225H185.205V102.035H181.205ZM183.205 82.6225H194.094V86.6225H183.205V82.6225ZM194.094 82.6225H204.548V86.6225H194.094V82.6225ZM206.548 84.6225V102.035H202.548V84.6225H206.548ZM204.548 100.035H215.438V104.035H204.548V100.035ZM213.438 102.035V81.14H217.438V102.035H213.438ZM215.438 79.14H225.892V83.14H215.438V79.14ZM227.892 81.14V91.5875H223.892V81.14H227.892ZM225.892 89.5875H236.782V93.5875H225.892V89.5875ZM238.782 91.5875V102.035H234.782V91.5875H238.782ZM236.782 100.035H247.236V104.035H236.782V100.035ZM247.236 100.035H258.126V104.035H247.236V100.035ZM260.126 102.035V105.517H256.126V102.035H260.126ZM258.126 103.517H268.58V107.517H258.126V103.517ZM266.58 105.517V95.07H270.58V105.517H266.58ZM268.58 93.07H279.469V97.07H268.58V93.07ZM277.469 95.07V81.14H281.469V95.07H277.469ZM279.469 79.14H289.924V83.14H279.469V79.14ZM289.924 79.14H300.813V83.14H289.924V79.14ZM302.813 81.14V105.517H298.813V81.14H302.813ZM300.813 103.517H311.267V107.517H300.813V103.517ZM309.267 105.517V98.5525H313.267V105.517H309.267ZM311.267 96.5525H322.157V100.552H311.267V96.5525ZM324.157 98.5525V102.035H320.157V98.5525H324.157ZM322.157 100.035H332.611V104.035H322.157V100.035ZM330.611 102.035V77.6575H334.611V102.035H330.611ZM332.611 75.6575H343.501V79.6575H332.611V75.6575ZM345.501 77.6575V109H341.501V77.6575H345.501ZM343.501 107H353.955V111H343.501V107ZM351.955 109V105.517H355.955V109H351.955ZM353.955 103.517H364.845V107.517H353.955V103.517ZM362.845 105.517V102.035H366.845V105.517H362.845ZM364.845 100.035H375.299V104.035H364.845V100.035ZM373.299 102.035V91.5875H377.299V102.035H373.299ZM375.299 89.5875H386.188V93.5875H375.299V89.5875ZM388.188 91.5875V95.07H384.188V91.5875H388.188ZM386.188 93.07H396.643V97.07H386.188V93.07ZM394.643 95.07V84.6225H398.643V95.07H394.643ZM396.643 82.6225H407.532V86.6225H396.643V82.6225ZM405.532 84.6225V81.14H409.532V84.6225H405.532ZM407.532 79.14H417.986V83.14H407.532V79.14ZM415.986 81.14V77.6575H419.986V81.14H415.986ZM417.986 75.6575H428.876V79.6575H417.986V75.6575ZM430.876 77.6575V88.105H426.876V77.6575H430.876ZM428.876 86.105H439.33V90.105H428.876V86.105ZM441.33 88.105V95.07H437.33V88.105H441.33ZM439.33 93.07H450.22V97.07H439.33V93.07ZM448.22 95.07V91.5875H452.22V95.07H448.22ZM450.22 89.5875H460.674V93.5875H450.22V89.5875ZM462.674 91.5875V109H458.674V91.5875H462.674ZM460.674 107H471.564V111H460.674V107ZM469.564 109V77.6575H473.564V109H469.564ZM471.564 75.6575H482.018V79.6575H471.564V75.6575ZM484.018 77.6575V91.5875H480.018V77.6575H484.018ZM482.018 89.5875H492.907V93.5875H482.018V89.5875ZM490.907 91.5875V81.14H494.907V91.5875H490.907ZM492.907 79.14H503.362V83.14H492.907V79.14ZM505.362 81.14V88.105H501.362V81.14H505.362ZM503.362 86.105H514.251V90.105H503.362V86.105ZM516.251 88.105V109H512.251V88.105H516.251ZM514.251 107H524.705V111H514.251V107ZM522.705 109V88.105H526.705V109H522.705ZM524.705 -4H524.171V-8H524.705V-4ZM524.171 -4H514.251V-8H524.171V-4ZM514.251 -4H503.362V-8H514.251V-4ZM503.362 -4H492.907V-8H503.362V-4ZM492.907 -4H482.018V-8H492.907V-4ZM482.018 -4H471.564V-8H482.018V-4ZM471.564 -4H460.674V-8H471.564V-4ZM460.674 -4H450.22V-8H460.674V-4ZM450.22 -4H439.33V-8H450.22V-4ZM439.33 -4H428.876V-8H439.33V-4ZM428.876 -4H417.986V-8H428.876V-4ZM417.986 -4H407.532V-8H417.986V-4ZM407.532 -4H396.643V-8H407.532V-4ZM396.643 -4H386.188V-8H396.643V-4ZM386.188 -4H375.299V-8H386.188V-4ZM375.299 -4H364.845V-8H375.299V-4ZM364.845 -4H353.955V-8H364.845V-4ZM353.955 -4H343.501V-8H353.955V-4ZM343.501 -4H332.611V-8H343.501V-4ZM332.611 -4H322.157V-8H332.611V-4ZM322.157 -4H311.267V-8H322.157V-4ZM311.267 -4H300.813V-8H311.267V-4ZM300.813 -4H289.924V-8H300.813V-4ZM289.924 -4H279.469V-8H289.924V-4ZM279.469 -4H268.58V-8H279.469V-4ZM268.58 -4H258.126V-8H268.58V-4ZM258.126 -4H247.236V-8H258.126V-4ZM247.236 -4H236.782V-8H247.236V-4ZM236.782 -4H225.892V-8H236.782V-4ZM225.892 -4H215.438V-8H225.892V-4ZM215.438 -4H204.548V-8H215.438V-4ZM204.548 -4H194.094V-8H204.548V-4ZM194.094 -4H183.205V-8H194.094V-4ZM183.205 -4H172.75V-8H183.205V-4ZM172.75 -4H161.861V-8H172.75V-4ZM161.861 -4H151.407V-8H161.861V-4ZM151.407 -4H140.517V-8H151.407V-4ZM130.063 -4H119.173V-8H130.063V-4ZM119.173 -4H108.719V-8H119.173V-4ZM108.719 -4H97.8293V-8H108.719V-4ZM97.8293 -4H87.3752V-8H97.8293V-4ZM76.4855 -4H66.0314V-8H76.4855V-4ZM66.0314 -4H55.1417V-8H66.0314V-4ZM55.1417 -4H44.6876V-8H55.1417V-4ZM44.6876 -4H33.7979V-8H44.6876V-4ZM33.7979 -4H23.3438V-8H33.7979V-4ZM23.3438 -4H12.4541V-8H23.3438V-4ZM12.4541 -4H2V-8H12.4541V-4ZM4 -6V98.5525H0V-6H4ZM74.4855 84.6225V79.3987H78.4855V84.6225H74.4855ZM89.3752 79.3987V88.105H85.3752V79.3987H89.3752ZM76.4855 77.3987H87.3752V81.3987H76.4855V77.3987ZM128.063 95.07V84.6225H132.063V95.07H128.063ZM142.517 84.6225V98.5525H138.517V84.6225H142.517ZM130.063 82.6225H140.517V86.6225H130.063V82.6225ZM524.705 86.105H534.625V90.105H524.705V86.105ZM536.625 88.105V95.07H532.625V88.105H536.625ZM534.625 93.07H545.515V97.07H534.625V93.07ZM543.515 95.07V91.5875H547.515V95.07H543.515ZM545.515 89.5875H555.969V93.5875H545.515V89.5875ZM557.969 91.5875V109H553.969V91.5875H557.969ZM555.969 107H566.858V111H555.969V107ZM564.858 109V77.6575H568.858V109H564.858ZM566.858 75.6575H577.312V79.6575H566.858V75.6575ZM579.312 77.6575V91.5875H575.312V77.6575H579.312ZM577.312 89.5875H588.202V93.5875H577.312V89.5875ZM586.202 91.5875V81.14H590.202V91.5875H586.202ZM588.202 79.14H598.656V83.14H588.202V79.14ZM600.656 81.14V88.105H596.656V81.14H600.656ZM598.656 86.105H609.546V90.105H598.656V86.105ZM611.546 88.105V109H607.546V88.105H611.546ZM609.546 107H620V111H609.546V107ZM618 109V-6H622V109H618ZM620 -4H609.546V-8H620V-4ZM609.546 -4H598.656V-8H609.546V-4ZM598.656 -4H588.202V-8H598.656V-4ZM588.202 -4H577.312V-8H588.202V-4ZM577.312 -4H566.858V-8H577.312V-4ZM566.858 -4H555.969V-8H566.858V-4ZM555.969 -4H545.515V-8H555.969V-4ZM545.515 -4H534.625V-8H545.515V-4ZM534.625 -4H524.705V-8H534.625V-4Z" fill="#15E9AC" mask="url(#path-1-outside-1_0_442)"/>
</svg>
