<svg width="76" height="88" viewBox="0 0 76 88" fill="none" xmlns="http://www.w3.org/2000/svg">
<path d="M48.5132 22.1661C47.6949 19.2852 46.9079 16.3955 46.1522 13.4974C47.8053 13.3029 49.4843 13.3281 51.1305 13.5715C51.2688 13.5922 51.4158 13.618 51.5179 13.7136C51.6826 13.8678 51.6641 14.1301 51.6298 14.353C51.2366 16.9486 50.5432 19.4988 49.5686 21.9367" fill="#FAAC61"/>
<path d="M48.5132 22.1661C47.6949 19.2852 46.9079 16.3955 46.1522 13.4974C47.8053 13.3029 49.4843 13.3281 51.1305 13.5715C51.2688 13.5922 51.4158 13.618 51.5179 13.7136C51.6826 13.8678 51.6641 14.1301 51.6298 14.353C51.2366 16.9486 50.5432 19.4988 49.5686 21.9367" stroke="black" stroke-width="0.356668" stroke-miterlimit="10"/>
<path d="M49.9383 23.1676C54.3512 20.905 58.6246 18.3711 62.7265 15.5846C61.1987 14.3409 59.7642 12.9822 58.4387 11.5246C55.5206 14.5366 52.9517 17.887 50.7989 21.4867" fill="#FEC660"/>
<path d="M49.9383 23.1676C54.3512 20.905 58.6246 18.3711 62.7265 15.5846C61.1987 14.3409 59.7642 12.9822 58.4387 11.5246C55.5206 14.5366 52.9517 17.887 50.7989 21.4867" stroke="black" stroke-width="0.356668" stroke-miterlimit="10"/>
<path d="M50.5959 22.9038C54.0451 21.3937 58.0064 21.0835 61.6488 22.0375C61.7636 22.0678 61.8926 22.1102 61.943 22.2176C61.9912 22.3199 61.9488 22.44 61.9061 22.5451C61.3454 23.9323 60.7845 25.3187 60.2233 26.7057C57.3006 25.1525 54.1325 24.0632 50.8729 23.4908" fill="#FAAC61"/>
<path d="M50.5959 22.9038C54.0451 21.3937 58.0064 21.0835 61.6488 22.0375C61.7636 22.0678 61.8926 22.1102 61.943 22.2176C61.9912 22.3199 61.9488 22.44 61.9061 22.5451C61.3454 23.9323 60.7845 25.3187 60.2233 26.7057C57.3006 25.1525 54.1325 24.0632 50.8729 23.4908" stroke="black" stroke-width="0.356668" stroke-miterlimit="10"/>
<path d="M42.6264 71.5651C45.6001 56.563 48.5736 41.5614 51.5468 26.559C51.9542 24.504 51.9643 21.7134 49.9723 21.0643C35.7554 32.1775 22.6363 43.6574 9.49741 56.0269L17.0291 69.3746L31.3889 73.3551" fill="#D3414B"/>
<path d="M42.6264 71.5651C45.6001 56.563 48.5736 41.5614 51.5468 26.559C51.9542 24.504 51.9643 21.7134 49.9723 21.0643C35.7554 32.1775 22.6363 43.6574 9.49741 56.0269L17.0291 69.3746L31.3889 73.3551" stroke="black" stroke-width="0.356668" stroke-miterlimit="10"/>
<path opacity="0.16" d="M40.5684 77.6381L42.661 71.3873C42.6978 71.2011 42.7349 71.0157 42.7717 70.8295C45.7086 56.0136 48.645 41.1974 51.5819 26.3814C51.9357 24.596 51.988 22.2563 50.6892 21.2476L50.5724 21.3009C49.3872 29.3685 46.1106 36.9615 42.7502 44.3905C39.7779 50.9614 36.3713 57.8807 30.1579 61.5411C27.889 62.8779 25.3623 63.6991 22.9154 64.6711C21.0662 65.4056 19.1034 66.4103 18.273 68.1801L21.5817 70.7467L40.5684 77.6381Z" fill="black"/>
<mask id="mask0_0_238" style="mask-type:luminance" maskUnits="userSpaceOnUse" x="9" y="21" width="43" height="56">
<path d="M9.49661 56.0274C22.6355 43.6579 35.7546 32.178 49.9715 21.0648C51.9635 21.7139 51.9532 24.5049 51.546 26.5595C48.5723 41.5616 45.5988 56.5632 42.6256 71.5655L33.702 76.8687L16.7438 72.1683L9.0474 56.1547" fill="white"/>
</mask>
<g mask="url(#mask0_0_238)">
<path d="M38.2074 34.8529C35.8831 36.437 32.7148 35.8364 31.1307 33.5121C29.5466 31.1878 30.1471 28.0195 32.4715 26.4354C34.7958 24.8513 37.9641 25.4518 39.5482 27.7762C41.132 30.101 40.5319 33.2695 38.2074 34.8529Z" fill="#FEC660" stroke="black" stroke-width="0.356668" stroke-miterlimit="10"/>
<path d="M44.2655 44.6596C43.0529 45.4861 41.3997 45.1726 40.5736 43.9603C39.7471 42.7477 40.0606 41.0945 41.2732 40.268C42.4863 39.4417 44.139 39.755 44.9655 40.9675C45.7913 42.1803 45.4781 43.8331 44.2655 44.6596Z" fill="#FEC660" stroke="black" stroke-width="0.356668" stroke-miterlimit="10"/>
<path d="M52.4114 34.4639C50.7608 35.5886 48.5106 35.1622 47.3859 33.5116C46.2612 31.861 46.6876 29.6107 48.3382 28.486C49.9888 27.3613 52.2385 27.7874 53.3637 29.4383C54.4884 31.0889 54.0623 33.3387 52.4114 34.4639Z" fill="#FEC660" stroke="black" stroke-width="0.356668" stroke-miterlimit="10"/>
<path d="M34.4836 49.181C33.6077 49.7781 32.4135 49.5517 31.8169 48.6761C31.2199 47.8002 31.446 46.6065 32.3224 46.0097C33.1982 45.4126 34.392 45.6388 34.9887 46.5151C35.5856 47.3902 35.3595 48.584 34.4836 49.181Z" fill="#FEC660" stroke="black" stroke-width="0.356668" stroke-miterlimit="10"/>
<path d="M38.3494 66.912C35.9913 68.519 32.7772 67.9099 31.1701 65.5518C29.5631 63.1937 30.1722 59.9796 32.5303 58.3726C34.8884 56.7656 38.1025 57.3746 39.7095 59.7327C41.3165 62.0908 40.7075 65.3049 38.3494 66.912Z" fill="#FEC660" stroke="black" stroke-width="0.356668" stroke-miterlimit="10"/>
<path d="M48.5192 56.4086C46.9695 57.4643 44.8574 57.0644 43.8017 55.5146C42.7457 53.9653 43.1458 51.8528 44.6956 50.7971C46.2454 49.7413 48.3574 50.1412 49.4132 51.691C50.4692 53.2403 50.069 55.3528 48.5192 56.4086Z" fill="#FEC660" stroke="black" stroke-width="0.356668" stroke-miterlimit="10"/>
<path d="M20.9673 52.6754C19.0808 53.9606 16.5097 53.4736 15.2237 51.5873C13.938 49.7005 14.4255 47.1297 16.3118 45.8438C18.1983 44.5585 20.7694 45.0455 22.0554 46.9318C23.3411 48.8186 22.8538 51.3902 20.9673 52.6754Z" fill="#FEC660" stroke="black" stroke-width="0.356668" stroke-miterlimit="10"/>
<path d="M22.6585 68.1355C20.4688 69.6278 17.4845 69.0622 15.9922 66.8725C14.5 64.6827 15.0659 61.698 17.2553 60.2062C19.4451 58.7139 22.4298 59.2798 23.9216 61.4693C25.4138 63.659 24.8482 66.6433 22.6585 68.1355Z" fill="#FEC660" stroke="black" stroke-width="0.356668" stroke-miterlimit="10"/>
</g>
<path d="M16.844 69.6121L9.14855 55.9741L9.30726 55.8249C23.5071 42.4565 36.3743 31.3417 49.8014 20.8457L49.9179 20.755L50.0588 20.8004C52.5277 21.6067 52.1131 25.1335 51.82 26.6135L42.8988 71.6198L42.3536 71.5118L51.2747 26.5055C51.4764 25.4877 51.9695 22.163 50.0225 21.3793C36.7025 31.7978 23.9289 42.8304 9.84762 56.0803L17.2153 69.138L31.4639 73.0877L31.3153 73.6242L16.844 69.6121Z" fill="black"/>
<path d="M20.111 52.744C23.4803 49.6727 26.7868 46.533 30.0248 43.3229C30.8812 42.4738 29.4241 41.2876 28.5715 42.1325C25.4527 45.2239 22.2718 48.2518 19.0266 51.2105C18.6486 51.5548 18.4882 52.0653 18.8023 52.519C19.0637 52.8972 19.7367 53.0854 20.111 52.744Z" fill="white"/>
<path d="M33.7894 39.617C35.592 38.0021 37.3219 36.3118 39.0925 34.6623C39.4639 34.316 39.3154 33.631 38.961 33.3404C38.5262 32.9834 38.0116 33.1249 37.6392 33.4719C35.9586 35.0378 34.3757 36.587 32.705 38.0835C32.3274 38.4216 32.1637 38.9443 32.4804 39.3924C32.7478 39.7703 33.4091 39.9575 33.7894 39.617Z" fill="white"/>
<path d="M6.45775 64.9091C5.25182 65.2347 3.86553 64.3097 3.70444 63.0703C3.54335 61.8309 4.64522 60.582 5.89479 60.588C4.62811 59.0944 5.52383 56.3771 7.43033 55.9294C9.33684 55.4817 11.348 57.5157 10.8791 59.417C11.8312 58.6077 13.3291 58.5239 14.366 59.2221C15.4025 59.9207 15.8875 61.3401 15.4953 62.5266C17.4208 62.3352 19.1975 64.4194 18.7042 66.2906C20.3781 65.4337 22.7269 66.6883 22.9457 68.5564C23.6968 67.3067 25.3877 66.7184 26.7526 67.2309C28.1173 67.7439 29.0025 69.2999 28.7449 70.735C29.833 69.1006 32.9135 69.7854 33.2074 71.727C34.2253 70.8394 35.5129 70.0909 36.8532 70.2578C38.1936 70.4247 39.3859 71.8915 38.8371 73.1257C39.2552 71.6273 41.2536 70.8935 42.6177 71.6412C43.9817 72.3889 44.4838 74.3024 43.8014 75.7003C43.1189 77.0981 41.4468 77.8796 39.9042 77.6782C40.7145 79.4183 38.4978 81.1198 36.5834 81.263C33.444 81.4979 30.2456 79.7092 28.802 76.9111C28.2031 78.142 26.7124 78.8651 25.375 78.5741C24.0377 78.283 22.9825 77.0058 22.9488 75.637C22.3134 76.7788 20.7867 77.3283 19.5698 76.8543C18.3523 76.38 17.6001 74.9419 17.9043 73.6719C16.6478 74.5957 14.7737 74.5645 13.5484 73.5988C12.323 72.6332 11.8548 70.8189 12.4592 69.3805C9.60421 69.3853 7.09569 66.5195 7.47779 63.6908" fill="white"/>
<path d="M13.7976 74.1036C13.6507 74.0188 13.5097 73.9239 13.3752 73.8186C12.1579 72.8589 11.6344 71.1238 12.0706 69.6441C10.7636 69.535 9.49705 68.8699 8.54412 67.7828C7.49777 66.5872 7.00843 65.0832 7.20182 63.6547L7.75279 63.7294C7.5817 64.998 8.02235 66.3416 8.96334 67.416C9.90385 68.4902 11.1779 69.1056 12.4588 69.104L12.878 69.1033L12.7153 69.4897C12.1572 70.8168 12.5892 72.4901 13.7201 73.3813C14.8482 74.2741 16.579 74.301 17.7393 73.4481L18.3516 72.9982L18.1747 73.7374C17.9041 74.8657 18.5883 76.1714 19.6699 76.5961C20.751 77.0174 22.1412 76.5162 22.7054 75.5022L23.2015 74.6108L23.2263 75.6302C23.2568 76.8655 24.2256 78.0408 25.4332 78.3019C26.6409 78.565 28.0105 77.9004 28.5514 76.7888L28.7939 76.2898L29.0482 76.7828C30.442 79.4834 33.5312 81.2111 36.5614 80.985C37.7461 80.8964 39.0304 80.1626 39.5482 79.2779C39.842 78.777 39.8764 78.278 39.6512 77.7947L39.4375 77.3361L39.9392 77.4016C41.4212 77.5957 42.94 76.8284 43.5503 75.5777C44.1805 74.2871 43.7009 72.587 42.5265 71.909C42.5121 71.9007 42.4976 71.8923 42.4829 71.8845C41.8805 71.554 41.0988 71.5343 40.3926 71.8318C39.8274 72.07 39.3991 72.4759 39.1873 72.9663C39.1623 73.0584 39.1301 73.1497 39.0904 73.2385L38.5687 73.051C38.5931 72.963 38.6228 72.8761 38.6575 72.7914C38.7432 72.435 38.6779 72.0441 38.4653 71.6682C38.1217 71.0608 37.4753 70.6163 36.8174 70.5345C35.76 70.4025 34.6061 70.8749 33.3888 71.9377L33.007 72.2708L32.9317 71.7695C32.8149 70.9994 32.1398 70.3688 31.2128 70.1624C30.2855 69.9565 29.4071 70.2419 28.9755 70.8906L28.2346 72.0036L28.4706 70.6871C28.703 69.389 27.8895 67.956 26.6539 67.4918C25.4199 67.0285 23.8628 67.5707 23.1835 68.7007L22.7635 69.3991L22.6688 68.5898C22.577 67.8021 22.0351 67.0711 21.2397 66.6478C20.4363 66.2193 19.5357 66.1785 18.8303 66.5393L18.276 66.823L18.435 66.2205C18.6434 65.4302 18.4041 64.5309 17.7941 63.8165C17.1861 63.102 16.3354 62.7232 15.5217 62.8045L15.0958 62.8469L15.2303 62.4404C15.5849 61.369 15.1467 60.0845 14.2102 59.4539C13.2764 58.8242 11.9194 58.8988 11.0589 59.6293L10.4027 60.1875L10.6089 59.3509C10.8056 58.5531 10.5209 57.67 9.84736 56.989C9.17334 56.3076 8.29346 56.0128 7.49297 56.2012C6.69275 56.3892 6.03568 57.0445 5.73559 57.9547C5.43579 58.8644 5.5741 59.7818 6.10611 60.4088L6.49709 60.8696L5.89296 60.867C5.37756 60.8642 4.86179 61.1123 4.47835 61.5473C4.09518 61.9818 3.91284 62.5246 3.97934 63.0357C4.04613 63.5463 4.36059 64.0239 4.84235 64.3464C5.32718 64.6635 5.88659 64.7759 6.38453 64.642L6.5295 65.1785C5.87677 65.3546 5.14483 65.223 4.53378 64.8085C3.9183 64.3973 3.5152 63.7773 3.4278 63.1077C3.34069 62.4376 3.57127 61.7346 4.06108 61.1799C4.43031 60.7617 4.90084 60.4785 5.39999 60.3659C4.98112 59.6308 4.90524 58.6988 5.20805 57.7805C5.56933 56.6853 6.37568 55.8927 7.36595 55.6603C8.3567 55.4283 9.43117 55.7776 10.2426 56.598C10.8818 57.2452 11.2276 58.0524 11.2258 58.8497C12.2417 58.3116 13.5586 58.35 14.5203 58.9926C15.5484 59.6857 16.0816 61.0282 15.8546 62.2401C16.7236 62.2756 17.5845 62.7135 18.2167 63.4561C18.8192 64.1624 19.1161 65.0287 19.0563 65.8541C19.8268 65.6298 20.7077 65.7337 21.5011 66.1571C22.2604 66.5718 22.8166 67.1947 23.077 67.9161C24.0004 66.8975 25.5466 66.4819 26.8496 66.9716C28.1046 67.4399 28.9769 68.6956 29.0608 70.0163C29.6601 69.5858 30.4842 69.4309 31.3336 69.6195C32.3089 69.8357 33.0615 70.4488 33.3629 71.2361C34.5844 70.2651 35.7687 69.8436 36.8869 69.9824C37.7135 70.0859 38.5232 70.6401 38.9499 71.3951C39.0601 71.5891 39.1397 71.7872 39.1897 71.9863C39.4575 71.7106 39.7918 71.483 40.1771 71.3207C41.0392 70.9578 42.001 70.9871 42.7508 71.3982C44.2318 72.1903 44.8128 74.2631 44.0509 75.8231C43.3991 77.159 41.87 78.0231 40.3032 77.9881C40.4235 78.5084 40.331 79.0446 40.0287 79.5605C39.4162 80.6057 37.9757 81.4387 36.6033 81.541C33.5212 81.7712 30.3802 80.1144 28.7936 77.4695C28.0318 78.5498 26.6199 79.1309 25.3147 78.8475C24.0771 78.5761 23.0743 77.5598 22.7671 76.3465C21.942 77.2072 20.593 77.5536 19.4678 77.1153C18.3094 76.6655 17.5381 75.4385 17.5585 74.2095C16.3943 74.7942 14.9262 74.7552 13.7976 74.1036Z" fill="black"/>
</svg>
