<svg width="60" height="60" viewBox="0 0 60 60" fill="none" xmlns="http://www.w3.org/2000/svg">
<circle cx="30" cy="30" r="30" fill="white"/>
<path d="M24.3339 35.575C24.9006 35.125 25.1589 34.9167 25.1089 34.95C26.7422 33.6 28.0256 32.4917 28.9589 31.625C29.9089 30.7583 30.7089 29.85 31.3589 28.9C32.0089 27.95 32.3339 27.025 32.3339 26.125C32.3339 25.4417 32.1756 24.9083 31.8589 24.525C31.5422 24.1417 31.0672 23.95 30.4339 23.95C29.8006 23.95 29.3006 24.1917 28.9339 24.675C28.5839 25.1417 28.4089 25.8083 28.4089 26.675H24.2839C24.3172 25.2583 24.6172 24.075 25.1839 23.125C25.7672 22.175 26.5256 21.475 27.4589 21.025C28.4089 20.575 29.4589 20.35 30.6089 20.35C32.5922 20.35 34.0839 20.8583 35.0839 21.875C36.1006 22.8917 36.6089 24.2167 36.6089 25.85C36.6089 27.6333 36.0006 29.2917 34.7839 30.825C33.5672 32.3417 32.0172 33.825 30.1339 35.275H36.8839V38.75H24.3339V35.575Z" fill="black"/>
</svg>
