<svg width="60" height="60" viewBox="0 0 60 60" fill="none" xmlns="http://www.w3.org/2000/svg">
<circle cx="30" cy="30" r="30" fill="white"/>
<path d="M23.7066 25.9C23.7733 24.1167 24.3566 22.7417 25.4566 21.775C26.5566 20.8083 28.0483 20.325 29.9316 20.325C31.1816 20.325 32.2483 20.5417 33.1316 20.975C34.0316 21.4083 34.7066 22 35.1566 22.75C35.6233 23.5 35.8566 24.3417 35.8566 25.275C35.8566 26.375 35.5816 27.275 35.0316 27.975C34.4816 28.6583 33.84 29.125 33.1066 29.375V29.475C34.0566 29.7917 34.8066 30.3167 35.3566 31.05C35.9066 31.7833 36.1816 32.725 36.1816 33.875C36.1816 34.9083 35.94 35.825 35.4566 36.625C34.99 37.4083 34.2983 38.025 33.3816 38.475C32.4816 38.925 31.4066 39.15 30.1566 39.15C28.1566 39.15 26.5566 38.6583 25.3566 37.675C24.1733 36.6917 23.5483 35.2083 23.4816 33.225H27.6316C27.6483 33.9583 27.8566 34.5417 28.2566 34.975C28.6566 35.3917 29.24 35.6 30.0066 35.6C30.6566 35.6 31.1566 35.4167 31.5066 35.05C31.8733 34.6667 32.0566 34.1667 32.0566 33.55C32.0566 32.75 31.7983 32.175 31.2816 31.825C30.7816 31.4583 29.9733 31.275 28.8566 31.275H28.0566V27.8H28.8566C29.7066 27.8 30.39 27.6583 30.9066 27.375C31.44 27.075 31.7066 26.55 31.7066 25.8C31.7066 25.2 31.54 24.7333 31.2066 24.4C30.8733 24.0667 30.415 23.9 29.8316 23.9C29.1983 23.9 28.7233 24.0917 28.4066 24.475C28.1066 24.8583 27.9316 25.3333 27.8816 25.9H23.7066Z" fill="black"/>
</svg>
