<svg width="176" height="81" viewBox="0 0 176 81" fill="none" xmlns="http://www.w3.org/2000/svg">
<rect width="176" height="81" rx="40.5" fill="white"/>
<path d="M64.9318 40.908V38.762H68.2088C68.7695 38.762 69.2432 38.675 69.6298 38.501C70.0358 38.327 70.3452 38.0853 70.5578 37.776C70.7705 37.4473 70.8768 37.051 70.8768 36.587C70.8768 35.891 70.6448 35.369 70.1808 35.021C69.7168 34.673 69.0595 34.499 68.2088 34.499H66.1788V47.201H68.6728C69.3108 47.201 69.8812 47.1237 70.3838 46.969C70.8865 46.795 71.2828 46.5243 71.5728 46.157C71.8822 45.7703 72.0368 45.2483 72.0368 44.591C72.0368 44.1657 71.9498 43.7983 71.7758 43.489C71.6018 43.1797 71.3602 42.9283 71.0508 42.735C70.7415 42.5417 70.3838 42.4063 69.9778 42.329C69.5912 42.2323 69.1562 42.184 68.6728 42.184H64.9318V39.516H69.2238C70.2098 39.516 71.1668 39.6223 72.0948 39.835C73.0228 40.0477 73.8638 40.3957 74.6178 40.879C75.3718 41.343 75.9712 41.9423 76.4158 42.677C76.8798 43.3923 77.1118 44.2623 77.1118 45.287C77.1118 46.6403 76.7832 47.7327 76.1258 48.564C75.4878 49.3953 74.5792 50.014 73.3998 50.42C72.2205 50.8067 70.8285 51 69.2238 51H61.2778V30.7H68.7308C70.1422 30.7 71.3795 30.8933 72.4428 31.28C73.5255 31.6473 74.3762 32.2177 74.9948 32.991C75.6328 33.745 75.9518 34.702 75.9518 35.862C75.9518 36.9253 75.6328 37.834 74.9948 38.588C74.3762 39.342 73.5255 39.922 72.4428 40.328C71.3795 40.7147 70.1422 40.908 68.7308 40.908H64.9318ZM80.3906 30.7H85.2916V43.982C85.2916 45.0067 85.5623 45.838 86.1036 46.476C86.645 47.114 87.457 47.433 88.5396 47.433C89.6416 47.433 90.4633 47.114 91.0046 46.476C91.546 45.838 91.8166 45.0067 91.8166 43.982V30.7H96.7176V44.33C96.7176 45.606 96.505 46.7177 96.0796 47.665C95.6736 48.6123 95.0936 49.3953 94.3396 50.014C93.605 50.6133 92.735 51.0677 91.7296 51.377C90.7436 51.6863 89.6803 51.841 88.5396 51.841C87.399 51.841 86.3356 51.6863 85.3496 51.377C84.3636 51.0677 83.4936 50.6133 82.7396 50.014C82.005 49.3953 81.425 48.6123 80.9996 47.665C80.5936 46.7177 80.3906 45.606 80.3906 44.33V30.7ZM112.267 30.7H117.893L110.788 42.735V51H105.8V42.764L98.6946 30.7H104.321L108.294 38.327L112.267 30.7Z" fill="black"/>
</svg>
