<svg width="1541" height="531" viewBox="0 0 1541 531" fill="none" xmlns="http://www.w3.org/2000/svg">
<path fill-rule="evenodd" clip-rule="evenodd" d="M1524.22 191.951C1526.21 191.109 1528.39 190.819 1530.53 191.11C1532.67 191.401 1534.7 192.264 1536.4 193.608C1538.09 194.952 1539.4 196.728 1540.18 198.752C1540.96 200.775 1541.19 202.973 1540.84 205.114L1522.56 316.484C1520.79 327.227 1509.05 333.388 1499.24 328.037C1491.04 323.56 1478.85 316.663 1467.89 309.466C1462.41 305.863 1445.62 294.327 1447.68 286.118C1449.45 279.099 1477.66 252.724 1493.78 237.043C1500.11 230.882 1497.23 227.328 1489.75 232.995C1471.2 247.065 1441.41 268.462 1431.56 274.485C1422.87 279.796 1418.34 280.702 1412.92 279.796C1403.04 278.144 1393.88 275.586 1386.4 272.469C1376.29 268.259 1376.78 254.303 1386.39 250.239L1524.22 191.951Z" fill="#20BCFF"/>
<path d="M419.5 1.5C91.5 104.5 -160 353 127 462C539.685 618.734 1239.5 472 1423 306.5" stroke="url(#paint0_linear_1_114)" stroke-width="3" stroke-dasharray="33 33"/>
<defs>
<linearGradient id="paint0_linear_1_114" x1="532" y1="-51" x2="798" y2="513" gradientUnits="userSpaceOnUse">
<stop stop-color="white" stop-opacity="0"/>
<stop offset="1" stop-color="white"/>
</linearGradient>
</defs>
</svg>
