<svg width="309" height="152" viewBox="0 0 309 152" fill="none" xmlns="http://www.w3.org/2000/svg">
<g filter="url(#filter0_b_1_79)">
<rect x="0.576172" width="307.954" height="151.885" rx="40.2381" fill="#20BCFF"/>
<path d="M97.5692 37.0615H113.904C119.48 37.0615 123.547 38.3735 126.106 40.9975C128.664 43.556 129.943 47.5248 129.943 52.9041V55.6593C129.943 59.2018 129.353 62.0882 128.172 64.3186C127.057 66.5491 125.318 68.1563 122.957 69.1403V69.3371C128.336 71.1739 131.026 75.9628 131.026 83.7037V89.6078C131.026 94.9214 129.615 98.9887 126.794 101.81C124.039 104.565 119.972 105.942 114.593 105.942H97.5692V37.0615ZM112.625 65.1059C114.789 65.1059 116.397 64.5483 117.446 63.433C118.561 62.3178 119.119 60.4482 119.119 57.8242V53.9865C119.119 51.4937 118.66 49.6897 117.741 48.5744C116.889 47.4592 115.511 46.9016 113.609 46.9016H108.393V65.1059H112.625ZM114.593 96.1023C116.495 96.1023 117.905 95.6103 118.824 94.6262C119.742 93.5766 120.202 91.8054 120.202 89.3126V83.3101C120.202 80.1613 119.644 77.9964 118.529 76.8156C117.479 75.5692 115.708 74.946 113.215 74.946H108.393V96.1023H114.593ZM155.065 106.926C149.817 106.926 145.815 105.45 143.06 102.498C140.305 99.4807 138.927 95.1838 138.927 89.6078V37.0615H149.751V90.395C149.751 92.7566 150.21 94.4622 151.129 95.5118C152.113 96.5615 153.49 97.0863 155.262 97.0863C157.033 97.0863 158.378 96.5615 159.296 95.5118C160.28 94.4622 160.772 92.7566 160.772 90.395V37.0615H171.203V89.6078C171.203 95.1838 169.825 99.4807 167.07 102.498C164.314 105.45 160.313 106.926 155.065 106.926ZM190.818 76.6188L177.731 37.0615H189.244L196.624 62.3506H196.821L204.201 37.0615H214.73L201.642 76.6188V105.942H190.818V76.6188Z" fill="white"/>
</g>
<defs>
<filter id="filter0_b_1_79" x="-25.6387" y="-26.2149" width="360.384" height="204.314" filterUnits="userSpaceOnUse" color-interpolation-filters="sRGB">
<feFlood flood-opacity="0" result="BackgroundImageFix"/>
<feGaussianBlur in="BackgroundImageFix" stdDeviation="13.1074"/>
<feComposite in2="SourceAlpha" operator="in" result="effect1_backgroundBlur_1_79"/>
<feBlend mode="normal" in="SourceGraphic" in2="effect1_backgroundBlur_1_79" result="shape"/>
</filter>
</defs>
</svg>
