<svg width="1097" height="147" viewBox="0 0 1097 147" fill="none" xmlns="http://www.w3.org/2000/svg">
<path d="M0.00514418 1.99999H13.2051V86H0.00514418V1.99999ZM35.8111 14H22.0111V1.99999H62.8111V14H49.0111V86H35.8111V14ZM93.2208 1.99999H106.421V86H93.2208V1.99999ZM135.867 87.2C129.467 87.2 124.627 85.4 121.347 81.8C118.067 78.12 116.427 72.88 116.427 66.08V61.28H128.907V67.04C128.907 72.48 131.187 75.2 135.747 75.2C137.987 75.2 139.667 74.56 140.787 73.28C141.987 71.92 142.587 69.76 142.587 66.8C142.587 63.28 141.787 60.2 140.187 57.56C138.587 54.84 135.627 51.6 131.307 47.84C125.867 43.04 122.067 38.72 119.907 34.88C117.747 30.96 116.667 26.56 116.667 21.68C116.667 15.04 118.347 9.92 121.707 6.32C125.067 2.64 129.947 0.799995 136.347 0.799995C142.667 0.799995 147.427 2.64 150.627 6.32C153.907 9.92 155.547 15.12 155.547 21.92V25.4H143.067V21.08C143.067 18.2 142.507 16.12 141.387 14.84C140.267 13.48 138.627 12.8 136.467 12.8C132.067 12.8 129.867 15.48 129.867 20.84C129.867 23.88 130.667 26.72 132.267 29.36C133.947 32 136.947 35.2 141.267 38.96C146.787 43.76 150.587 48.12 152.667 52.04C154.747 55.96 155.787 60.56 155.787 65.84C155.787 72.72 154.067 78 150.627 81.68C147.267 85.36 142.347 87.2 135.867 87.2ZM187.374 1.99999H206.814C213.374 1.99999 218.294 3.76 221.574 7.28C224.854 10.8 226.494 15.96 226.494 22.76V31.04C226.494 37.84 224.854 43 221.574 46.52C218.294 50.04 213.374 51.8 206.814 51.8H200.574V86H187.374V1.99999ZM206.814 39.8C208.974 39.8 210.574 39.2 211.614 38C212.734 36.8 213.294 34.76 213.294 31.88V21.92C213.294 19.04 212.734 17 211.614 15.8C210.574 14.6 208.974 14 206.814 14H200.574V39.8H206.814ZM242.044 1.99999H259.924L273.604 86H260.404L258.004 69.32V69.56H243.004L240.604 86H228.364L242.044 1.99999ZM256.444 58.16L250.564 16.64H250.324L244.564 58.16H256.444ZM275.53 1.99999H288.85L297.49 67.16H297.73L306.37 1.99999H318.49L305.77 86H288.25L275.53 1.99999ZM327.23 1.99999H363.23V14H340.43V36.2H358.55V48.2H340.43V74H363.23V86H327.23V1.99999ZM373.224 1.99999H386.424V74H408.144V86H373.224V1.99999ZM438.493 1.99999H458.653C465.213 1.99999 470.133 3.76 473.413 7.28C476.693 10.8 478.333 15.96 478.333 22.76V65.24C478.333 72.04 476.693 77.2 473.413 80.72C470.133 84.24 465.213 86 458.653 86H438.493V1.99999ZM458.413 74C460.573 74 462.213 73.36 463.333 72.08C464.533 70.8 465.133 68.72 465.133 65.84V22.16C465.133 19.28 464.533 17.2 463.333 15.92C462.213 14.64 460.573 14 458.413 14H451.693V74H458.413ZM508.843 87.2C502.443 87.2 497.563 85.4 494.203 81.8C490.843 78.12 489.163 72.88 489.163 66.08V1.99999H502.363V67.04C502.363 69.92 502.923 72 504.043 73.28C505.243 74.56 506.923 75.2 509.083 75.2C511.243 75.2 512.883 74.56 514.003 73.28C515.203 72 515.803 69.92 515.803 67.04V1.99999H528.523V66.08C528.523 72.88 526.843 78.12 523.483 81.8C520.123 85.4 515.243 87.2 508.843 87.2ZM540.324 1.99999H559.884C566.684 1.99999 571.644 3.6 574.764 6.8C577.884 9.91999 579.444 14.76 579.444 21.32V26.48C579.444 35.2 576.564 40.72 570.804 43.04V43.28C574.004 44.24 576.244 46.2 577.524 49.16C578.884 52.12 579.564 56.08 579.564 61.04V75.8C579.564 78.2 579.644 80.16 579.804 81.68C579.964 83.12 580.364 84.56 581.004 86H567.564C567.084 84.64 566.764 83.36 566.604 82.16C566.444 80.96 566.364 78.8 566.364 75.68V60.32C566.364 56.48 565.724 53.8 564.444 52.28C563.244 50.76 561.124 50 558.084 50H553.524V86H540.324V1.99999ZM558.324 38C560.964 38 562.924 37.32 564.204 35.96C565.564 34.6 566.244 32.32 566.244 29.12V22.64C566.244 19.6 565.684 17.4 564.564 16.04C563.524 14.68 561.844 14 559.524 14H553.524V38H558.324ZM610.202 87.2C603.722 87.2 598.762 85.36 595.322 81.68C591.882 78 590.162 72.8 590.162 66.08V21.92C590.162 15.2 591.882 10 595.322 6.32C598.762 2.64 603.722 0.799995 610.202 0.799995C616.682 0.799995 621.642 2.64 625.082 6.32C628.522 10 630.242 15.2 630.242 21.92V66.08C630.242 72.8 628.522 78 625.082 81.68C621.642 85.36 616.682 87.2 610.202 87.2ZM610.202 75.2C614.762 75.2 617.042 72.44 617.042 66.92V21.08C617.042 15.56 614.762 12.8 610.202 12.8C605.642 12.8 603.362 15.56 603.362 21.08V66.92C603.362 72.44 605.642 75.2 610.202 75.2ZM637.855 1.99999H651.175L659.815 67.16H660.055L668.695 1.99999H680.815L668.095 86H650.575L637.855 1.99999ZM711.174 1.99999H731.094C737.894 1.99999 742.854 3.6 745.974 6.8C749.094 9.91999 750.654 14.76 750.654 21.32V24.68C750.654 29 749.934 32.52 748.494 35.24C747.134 37.96 745.014 39.92 742.134 41.12V41.36C748.694 43.6 751.974 49.44 751.974 58.88V66.08C751.974 72.56 750.254 77.52 746.814 80.96C743.454 84.32 738.494 86 731.934 86H711.174V1.99999ZM729.534 36.2C732.174 36.2 734.134 35.52 735.414 34.16C736.774 32.8 737.454 30.52 737.454 27.32V22.64C737.454 19.6 736.894 17.4 735.774 16.04C734.734 14.68 733.054 14 730.734 14H724.374V36.2H729.534ZM731.934 74C734.254 74 735.974 73.4 737.094 72.2C738.214 70.92 738.774 68.76 738.774 65.72V58.4C738.774 54.56 738.094 51.92 736.734 50.48C735.454 48.96 733.294 48.2 730.254 48.2H724.374V74H731.934ZM762.089 1.99999H775.289V86H762.089V1.99999ZM787.575 1.99999H807.135C813.935 1.99999 818.895 3.6 822.015 6.8C825.135 9.91999 826.695 14.76 826.695 21.32V26.48C826.695 35.2 823.815 40.72 818.055 43.04V43.28C821.255 44.24 823.495 46.2 824.775 49.16C826.135 52.12 826.815 56.08 826.815 61.04V75.8C826.815 78.2 826.895 80.16 827.055 81.68C827.215 83.12 827.615 84.56 828.255 86H814.815C814.335 84.64 814.015 83.36 813.855 82.16C813.695 80.96 813.615 78.8 813.615 75.68V60.32C813.615 56.48 812.975 53.8 811.695 52.28C810.495 50.76 808.375 50 805.335 50H800.775V86H787.575V1.99999ZM805.575 38C808.215 38 810.175 37.32 811.455 35.96C812.815 34.6 813.495 32.32 813.495 29.12V22.64C813.495 19.6 812.935 17.4 811.815 16.04C810.775 14.68 809.095 14 806.775 14H800.775V38H805.575ZM848.46 14H834.66V1.99999H875.46V14H861.66V86H848.46V14ZM884.25 1.99999H897.45V36.2H911.61V1.99999H924.81V86H911.61V48.2H897.45V86H884.25V1.99999ZM937.041 1.99999H957.201C963.761 1.99999 968.681 3.76 971.961 7.28C975.241 10.8 976.881 15.96 976.881 22.76V65.24C976.881 72.04 975.241 77.2 971.961 80.72C968.681 84.24 963.761 86 957.201 86H937.041V1.99999ZM956.961 74C959.121 74 960.761 73.36 961.881 72.08C963.081 70.8 963.681 68.72 963.681 65.84V22.16C963.681 19.28 963.081 17.2 961.881 15.92C960.761 14.64 959.121 14 956.961 14H950.241V74H956.961ZM998.157 1.99999H1016.04L1029.72 86H1016.52L1014.12 69.32V69.56H999.117L996.717 86H984.477L998.157 1.99999ZM1012.56 58.16L1006.68 16.64H1006.44L1000.68 58.16H1012.56ZM1045.13 50.24L1029.17 1.99999H1043.21L1052.21 32.84H1052.45L1061.45 1.99999H1074.29L1058.33 50.24V86H1045.13V50.24ZM1083.72 37.04V1.99999H1096.92V37.04L1095.24 63.8H1085.4L1083.72 37.04ZM1083.96 73.28H1096.68V86H1083.96V73.28ZM339.077 116H333.327V111H350.327V116H344.577V146H339.077V116ZM353.989 111H359.489V125.25H365.389V111H370.889V146H365.389V130.25H359.489V146H353.989V111ZM380.236 111H387.686L393.386 146H387.886L386.886 139.05V139.15H380.636L379.636 146H374.536L380.236 111ZM386.236 134.4L383.786 117.1H383.686L381.286 134.4H386.236ZM397.054 111H403.954L409.304 131.95H409.404V111H414.304V146H408.654L402.054 120.45H401.954V146H397.054V111ZM419.392 111H424.892V125.75L431.892 111H437.392L430.842 123.85L437.492 146H431.742L427.092 130.4L424.892 134.85V146H419.392V111ZM455.153 131.1L448.503 111H454.353L458.103 123.85H458.203L461.953 111H467.303L460.653 131.1V146H455.153V131.1ZM477.852 146.5C475.152 146.5 473.085 145.733 471.652 144.2C470.218 142.667 469.502 140.5 469.502 137.7V119.3C469.502 116.5 470.218 114.333 471.652 112.8C473.085 111.267 475.152 110.5 477.852 110.5C480.552 110.5 482.618 111.267 484.052 112.8C485.485 114.333 486.202 116.5 486.202 119.3V137.7C486.202 140.5 485.485 142.667 484.052 144.2C482.618 145.733 480.552 146.5 477.852 146.5ZM477.852 141.5C479.752 141.5 480.702 140.35 480.702 138.05V118.95C480.702 116.65 479.752 115.5 477.852 115.5C475.952 115.5 475.002 116.65 475.002 118.95V138.05C475.002 140.35 475.952 141.5 477.852 141.5ZM498.921 146.5C496.254 146.5 494.221 145.75 492.821 144.25C491.421 142.717 490.721 140.533 490.721 137.7V111H496.221V138.1C496.221 139.3 496.454 140.167 496.921 140.7C497.421 141.233 498.121 141.5 499.021 141.5C499.921 141.5 500.604 141.233 501.071 140.7C501.571 140.167 501.821 139.3 501.821 138.1V111H507.121V137.7C507.121 140.533 506.421 142.717 505.021 144.25C503.621 145.75 501.588 146.5 498.921 146.5ZM521.046 111H535.596V116H526.546V125.75H533.646V130.75H526.546V146H521.046V111ZM547.184 146.5C544.484 146.5 542.417 145.733 540.984 144.2C539.55 142.667 538.834 140.5 538.834 137.7V119.3C538.834 116.5 539.55 114.333 540.984 112.8C542.417 111.267 544.484 110.5 547.184 110.5C549.884 110.5 551.95 111.267 553.384 112.8C554.817 114.333 555.534 116.5 555.534 119.3V137.7C555.534 140.5 554.817 142.667 553.384 144.2C551.95 145.733 549.884 146.5 547.184 146.5ZM547.184 141.5C549.084 141.5 550.034 140.35 550.034 138.05V118.95C550.034 116.65 549.084 115.5 547.184 115.5C545.284 115.5 544.334 116.65 544.334 118.95V138.05C544.334 140.35 545.284 141.5 547.184 141.5ZM560.253 111H568.403C571.236 111 573.303 111.667 574.603 113C575.903 114.3 576.553 116.317 576.553 119.05V121.2C576.553 124.833 575.353 127.133 572.953 128.1V128.2C574.286 128.6 575.22 129.417 575.753 130.65C576.32 131.883 576.603 133.533 576.603 135.6V141.75C576.603 142.75 576.636 143.567 576.703 144.2C576.77 144.8 576.936 145.4 577.203 146H571.603C571.403 145.433 571.27 144.9 571.203 144.4C571.136 143.9 571.103 143 571.103 141.7V135.3C571.103 133.7 570.836 132.583 570.303 131.95C569.803 131.317 568.92 131 567.653 131H565.753V146H560.253V111ZM567.753 126C568.853 126 569.67 125.717 570.203 125.15C570.77 124.583 571.053 123.633 571.053 122.3V119.6C571.053 118.333 570.82 117.417 570.353 116.85C569.92 116.283 569.22 116 568.253 116H565.753V126H567.753ZM594.727 116H588.977V111H605.977V116H600.227V146H594.727V116ZM609.64 111H624.64V116H615.14V125.25H622.69V130.25H615.14V141H624.64V146H609.64V111ZM628.804 111H634.304V141H643.354V146H628.804V111ZM646.991 111H661.991V116H652.491V125.25H660.041V130.25H652.491V141H661.991V146H646.991V111ZM673.955 146.5C671.289 146.5 669.255 145.75 667.855 144.25C666.455 142.717 665.755 140.533 665.755 137.7V119.3C665.755 116.467 666.455 114.3 667.855 112.8C669.255 111.267 671.289 110.5 673.955 110.5C676.622 110.5 678.655 111.267 680.055 112.8C681.455 114.3 682.155 116.467 682.155 119.3V122.3H676.955V118.95C676.955 116.65 676.005 115.5 674.105 115.5C672.205 115.5 671.255 116.65 671.255 118.95V138.1C671.255 140.367 672.205 141.5 674.105 141.5C676.005 141.5 676.955 140.367 676.955 138.1V131.25H674.205V126.25H682.155V137.7C682.155 140.533 681.455 142.717 680.055 144.25C678.655 145.75 676.622 146.5 673.955 146.5ZM686.687 111H694.837C697.67 111 699.737 111.667 701.037 113C702.337 114.3 702.987 116.317 702.987 119.05V121.2C702.987 124.833 701.787 127.133 699.387 128.1V128.2C700.72 128.6 701.653 129.417 702.187 130.65C702.753 131.883 703.037 133.533 703.037 135.6V141.75C703.037 142.75 703.07 143.567 703.137 144.2C703.203 144.8 703.37 145.4 703.637 146H698.037C697.837 145.433 697.703 144.9 697.637 144.4C697.57 143.9 697.537 143 697.537 141.7V135.3C697.537 133.7 697.27 132.583 696.737 131.95C696.237 131.317 695.353 131 694.087 131H692.187V146H686.687V111ZM694.187 126C695.287 126 696.103 125.717 696.637 125.15C697.203 124.583 697.487 123.633 697.487 122.3V119.6C697.487 118.333 697.253 117.417 696.787 116.85C696.353 116.283 695.653 116 694.687 116H692.187V126H694.187ZM712.103 111H719.553L725.253 146H719.753L718.753 139.05V139.15H712.503L711.503 146H706.403L712.103 111ZM718.103 134.4L715.653 117.1H715.553L713.153 134.4H718.103ZM728.921 111H736.771L740.271 136.05H740.371L743.871 111H751.721V146H746.521V119.5H746.421L742.421 146H737.821L733.821 119.5H733.721V146H728.921V111ZM757.275 125.6V111H762.775V125.6L762.075 136.75H757.975L757.275 125.6ZM757.375 140.7H762.675V146H757.375V140.7Z" fill="white"/>
</svg>
