<svg width="292" height="146" viewBox="0 0 292 146" fill="none" xmlns="http://www.w3.org/2000/svg">
<path d="M3.15916 5.34535H9.07632V43H3.15916V5.34535ZM18.134 10.7246H11.9479V5.34535H30.2373V10.7246H24.0512V43H18.134V10.7246ZM41.7174 5.34535H47.6345V43H41.7174V5.34535ZM59.7584 43.5379C56.8895 43.5379 54.7198 42.731 53.2495 41.1173C51.7792 39.4676 51.044 37.1187 51.044 34.0705V31.9188H56.6384V34.5008C56.6384 36.9394 57.6605 38.1587 59.7046 38.1587C60.7087 38.1587 61.4618 37.8718 61.9639 37.298C62.5018 36.6884 62.7708 35.7201 62.7708 34.3932C62.7708 32.8153 62.4121 31.4346 61.6949 30.2512C60.9777 29.0319 59.6508 27.5795 57.7143 25.894C55.2757 23.7423 53.5723 21.8058 52.604 20.0845C51.6357 18.3272 51.1516 16.3549 51.1516 14.1673C51.1516 11.1908 51.9047 8.89565 53.4109 7.28188C54.9171 5.63225 57.1046 4.80743 59.9736 4.80743C62.8066 4.80743 64.9404 5.63225 66.3748 7.28188C67.8452 8.89565 68.5803 11.2267 68.5803 14.2749V15.8349H62.9859V13.8983C62.9859 12.6073 62.7349 11.6749 62.2328 11.1011C61.7308 10.4915 60.9956 10.1867 60.0273 10.1867C58.055 10.1867 57.0688 11.388 57.0688 13.7908C57.0688 15.1535 57.4274 16.4266 58.1446 17.61C58.8977 18.7934 60.2425 20.2279 62.179 21.9134C64.6535 24.0651 66.3569 26.0195 67.2893 27.7768C68.2217 29.534 68.6879 31.596 68.6879 33.9629C68.6879 37.047 67.9169 39.4138 66.3748 41.0635C64.8687 42.7131 62.6632 43.5379 59.7584 43.5379ZM80.6958 5.34535H89.4102C92.3508 5.34535 94.5563 6.13431 96.0266 7.71222C97.4969 9.29012 98.2321 11.6032 98.2321 14.6514V18.3631C98.2321 21.4113 97.4969 23.7244 96.0266 25.3023C94.5563 26.8802 92.3508 27.6692 89.4102 27.6692H86.6129V43H80.6958V5.34535ZM89.4102 22.2899C90.3784 22.2899 91.0956 22.021 91.5618 21.4831C92.0639 20.9451 92.3149 20.0307 92.3149 18.7396V14.2749C92.3149 12.9839 92.0639 12.0694 91.5618 11.5315C91.0956 10.9935 90.3784 10.7246 89.4102 10.7246H86.6129V22.2899H89.4102ZM104.127 5.34535H112.142L118.274 43H112.357L111.281 35.5229V35.6304H104.557L103.481 43H97.9947L104.127 5.34535ZM110.582 30.5202L107.946 11.908H107.839L105.257 30.5202H110.582ZM118.062 5.34535H124.033L127.906 34.5546H128.013L131.886 5.34535H137.319L131.617 43H123.764L118.062 5.34535ZM140.162 5.34535H156.299V10.7246H146.079V20.6762H154.201V26.0554H146.079V37.6208H156.299V43H140.162V5.34535ZM159.703 5.34535H165.62V37.6208H175.357V43H159.703V5.34535ZM186.81 5.34535H195.847C198.787 5.34535 200.993 6.13431 202.463 7.71222C203.934 9.29012 204.669 11.6032 204.669 14.6514V33.6939C204.669 36.7422 203.934 39.0552 202.463 40.6331C200.993 42.211 198.787 43 195.847 43H186.81V5.34535ZM195.739 37.6208C196.707 37.6208 197.443 37.3339 197.945 36.7601C198.483 36.1863 198.752 35.2539 198.752 33.9629V14.3825C198.752 13.0915 198.483 12.1591 197.945 11.5853C197.443 11.0115 196.707 10.7246 195.739 10.7246H192.727V37.6208H195.739ZM217.27 43.5379C214.401 43.5379 212.213 42.731 210.707 41.1173C209.201 39.4676 208.448 37.1187 208.448 34.0705V5.34535H214.365V34.5008C214.365 35.7918 214.616 36.7242 215.118 37.298C215.656 37.8718 216.409 38.1587 217.377 38.1587C218.345 38.1587 219.081 37.8718 219.583 37.298C220.121 36.7242 220.389 35.7918 220.389 34.5008V5.34535H226.091V34.0705C226.091 37.1187 225.338 39.4676 223.832 41.1173C222.326 42.731 220.138 43.5379 217.27 43.5379ZM230.306 5.34535H239.074C242.122 5.34535 244.346 6.06258 245.744 7.49705C247.143 8.89565 247.842 11.0653 247.842 14.0059V16.319C247.842 20.2279 246.551 22.7024 243.969 23.7423V23.8499C245.403 24.2803 246.408 25.1589 246.981 26.4857C247.591 27.8126 247.896 29.5878 247.896 31.8112V38.4277C247.896 39.5035 247.932 40.3821 248.003 41.0635C248.075 41.709 248.254 42.3545 248.541 43H242.517C242.301 42.3904 242.158 41.8166 242.086 41.2786C242.015 40.7407 241.979 39.7725 241.979 38.3739V31.4884C241.979 29.7671 241.692 28.5657 241.118 27.8843C240.58 27.203 239.63 26.8623 238.267 26.8623H236.223V43H230.306V5.34535ZM238.375 21.4831C239.558 21.4831 240.437 21.1782 241.01 20.5686C241.62 19.9589 241.925 18.9369 241.925 17.5024V14.5976C241.925 13.2349 241.674 12.2487 241.172 11.6391C240.706 11.0294 239.953 10.7246 238.913 10.7246H236.223V21.4831H238.375ZM260.554 43.5379C257.65 43.5379 255.426 42.7131 253.884 41.0635C252.342 39.4138 251.571 37.0828 251.571 34.0705V14.2749C251.571 11.2625 252.342 8.93151 253.884 7.28188C255.426 5.63225 257.65 4.80743 260.554 4.80743C263.459 4.80743 265.682 5.63225 267.225 7.28188C268.767 8.93151 269.538 11.2625 269.538 14.2749V34.0705C269.538 37.0828 268.767 39.4138 267.225 41.0635C265.682 42.7131 263.459 43.5379 260.554 43.5379ZM260.554 38.1587C262.598 38.1587 263.62 36.9215 263.62 34.447V13.8983C263.62 11.4239 262.598 10.1867 260.554 10.1867C258.51 10.1867 257.488 11.4239 257.488 13.8983V34.447C257.488 36.9215 258.51 38.1587 260.554 38.1587ZM271.874 5.34535H277.845L281.718 34.5546H281.826L285.699 5.34535H291.132L285.43 43H277.576L271.874 5.34535ZM63.9645 59.3454H72.894C75.9422 59.3454 78.1657 60.0626 79.5643 61.497C80.9629 62.8956 81.6622 65.0653 81.6622 68.0059V69.5121C81.6622 71.4486 81.3394 73.0265 80.6939 74.2458C80.0842 75.4651 79.1339 76.3437 77.8429 76.8817V76.9892C80.7835 77.9934 82.2539 80.6113 82.2539 84.8429V88.0705C82.2539 90.9753 81.4829 93.1987 79.9408 94.7407C78.4346 96.2469 76.2112 97 73.2706 97H63.9645V59.3454ZM72.1947 74.6762C73.3781 74.6762 74.2567 74.3714 74.8305 73.7617C75.4402 73.1521 75.745 72.13 75.745 70.6955V68.5976C75.745 67.2349 75.494 66.2487 74.9919 65.6391C74.5257 65.0294 73.7726 64.7246 72.7326 64.7246H69.8816V74.6762H72.1947ZM73.2706 91.6208C74.3105 91.6208 75.0816 91.3518 75.5836 90.8139C76.0857 90.2401 76.3367 89.2718 76.3367 87.9091V84.6278C76.3367 82.9064 76.0319 81.723 75.4222 81.0775C74.8485 80.3961 73.8802 80.0554 72.5175 80.0554H69.8816V91.6208H73.2706ZM85.7126 59.3454H91.6297V97H85.7126V59.3454ZM96.0613 59.3454H104.829C107.878 59.3454 110.101 60.0626 111.5 61.497C112.898 62.8956 113.598 65.0653 113.598 68.0059V70.319C113.598 74.2279 112.307 76.7024 109.725 77.7423V77.8499C111.159 78.2803 112.163 79.1589 112.737 80.4857C113.347 81.8126 113.651 83.5878 113.651 85.8112V92.4277C113.651 93.5035 113.687 94.3821 113.759 95.0635C113.831 95.709 114.01 96.3545 114.297 97H108.272C108.057 96.3904 107.914 95.8166 107.842 95.2786C107.77 94.7407 107.734 93.7725 107.734 92.3739V85.4884C107.734 83.7671 107.447 82.5657 106.874 81.8843C106.336 81.203 105.385 80.8623 104.023 80.8623H101.978V97H96.0613V59.3454ZM104.13 75.4831C105.314 75.4831 106.192 75.1782 106.766 74.5686C107.376 73.9589 107.68 72.9369 107.68 71.5024V68.5976C107.68 67.2349 107.429 66.2487 106.927 65.6391C106.461 65.0294 105.708 64.7246 104.668 64.7246H101.978V75.4831H104.13ZM122.278 64.7246H116.092V59.3454H134.381V64.7246H128.195V97H122.278V64.7246ZM137.246 59.3454H143.163V74.6762H149.511V59.3454H155.428V97H149.511V80.0554H143.163V97H137.246V59.3454ZM159.835 59.3454H168.872C171.812 59.3454 174.018 60.1343 175.488 61.7122C176.959 63.2901 177.694 65.6032 177.694 68.6514V87.6939C177.694 90.7422 176.959 93.0552 175.488 94.6331C174.018 96.211 171.812 97 168.872 97H159.835V59.3454ZM168.764 91.6208C169.732 91.6208 170.468 91.3339 170.97 90.7601C171.508 90.1863 171.777 89.2539 171.777 87.9629V68.3825C171.777 67.0915 171.508 66.1591 170.97 65.5853C170.468 65.0115 169.732 64.7246 168.764 64.7246H165.752V91.6208H168.764ZM186.155 59.3454H194.17L200.302 97H194.385L193.309 89.5229V89.6304H186.585L185.51 97H180.023L186.155 59.3454ZM192.61 84.5202L189.974 65.908H189.867L187.285 84.5202H192.61ZM206.137 80.9699L198.983 59.3454H205.277L209.311 73.17H209.419L213.453 59.3454H219.209L212.054 80.9699V97H206.137V80.9699ZM222.359 75.0527V59.3454H228.276V75.0527L227.523 87.0484H223.112L222.359 75.0527ZM222.466 91.298H228.168V97H222.466V91.298Z" fill="white"/>
<path d="M35.2893 122.262H32.2729V119.639H41.1909V122.262H38.1746V138H35.2893V122.262ZM43.1125 119.639H45.9977V127.115H49.0928V119.639H51.978V138H49.0928V129.738H45.9977V138H43.1125V119.639ZM56.8809 119.639H60.7891L63.7793 138H60.894L60.3694 134.354V134.407H57.0907L56.5662 138H53.8907L56.8809 119.639ZM60.0285 131.915L58.7432 122.839H58.6907L57.4317 131.915H60.0285ZM65.7037 119.639H69.3233L72.1299 130.63H72.1823V119.639H74.7528V138H71.7889L68.3266 124.597H68.2741V138H65.7037V119.639ZM77.4219 119.639H80.3071V127.377L83.9793 119.639H86.8645L83.4284 126.38L86.917 138H83.9006L81.4612 129.816L80.3071 132.151V138H77.4219V119.639ZM96.1817 130.184L92.6932 119.639H95.7621L97.7293 126.38H97.7817L99.7489 119.639H102.555L99.067 130.184V138H96.1817V130.184ZM108.089 138.262C106.673 138.262 105.589 137.86 104.837 137.056C104.085 136.251 103.709 135.115 103.709 133.646V123.993C103.709 122.525 104.085 121.388 104.837 120.584C105.589 119.779 106.673 119.377 108.089 119.377C109.506 119.377 110.59 119.779 111.342 120.584C112.094 121.388 112.47 122.525 112.47 123.993V133.646C112.47 135.115 112.094 136.251 111.342 137.056C110.59 137.86 109.506 138.262 108.089 138.262ZM108.089 135.639C109.086 135.639 109.584 135.036 109.584 133.83V123.81C109.584 122.603 109.086 122 108.089 122C107.093 122 106.594 122.603 106.594 123.81V133.83C106.594 135.036 107.093 135.639 108.089 135.639ZM119.142 138.262C117.743 138.262 116.677 137.869 115.942 137.082C115.208 136.278 114.841 135.132 114.841 133.646V119.639H117.726V133.856C117.726 134.485 117.848 134.94 118.093 135.22C118.355 135.499 118.723 135.639 119.195 135.639C119.667 135.639 120.025 135.499 120.27 135.22C120.532 134.94 120.663 134.485 120.663 133.856V119.639H123.444V133.646C123.444 135.132 123.077 136.278 122.342 137.082C121.608 137.869 120.541 138.262 119.142 138.262ZM130.749 119.639H138.382V122.262H133.634V127.377H137.359V130H133.634V138H130.749V119.639ZM144.46 138.262C143.044 138.262 141.96 137.86 141.208 137.056C140.456 136.251 140.08 135.115 140.08 133.646V123.993C140.08 122.525 140.456 121.388 141.208 120.584C141.96 119.779 143.044 119.377 144.46 119.377C145.877 119.377 146.961 119.779 147.713 120.584C148.465 121.388 148.841 122.525 148.841 123.993V133.646C148.841 135.115 148.465 136.251 147.713 137.056C146.961 137.86 145.877 138.262 144.46 138.262ZM144.46 135.639C145.457 135.639 145.955 135.036 145.955 133.83V123.81C145.955 122.603 145.457 122 144.46 122C143.463 122 142.965 122.603 142.965 123.81V133.83C142.965 135.036 143.463 135.639 144.46 135.639ZM151.316 119.639H155.592C157.078 119.639 158.162 119.989 158.844 120.689C159.526 121.37 159.867 122.428 159.867 123.862V124.99C159.867 126.896 159.238 128.103 157.979 128.61V128.662C158.678 128.872 159.168 129.301 159.448 129.948C159.745 130.595 159.893 131.46 159.893 132.544V135.77C159.893 136.295 159.911 136.723 159.946 137.056C159.981 137.37 160.068 137.685 160.208 138H157.27C157.166 137.703 157.096 137.423 157.061 137.161C157.026 136.898 157.008 136.426 157.008 135.744V132.387C157.008 131.548 156.868 130.962 156.588 130.63C156.326 130.297 155.863 130.131 155.198 130.131H154.202V138H151.316V119.639ZM155.251 127.508C155.828 127.508 156.256 127.36 156.536 127.062C156.833 126.765 156.982 126.267 156.982 125.567V124.151C156.982 123.486 156.86 123.005 156.615 122.708C156.387 122.411 156.02 122.262 155.513 122.262H154.202V127.508H155.251ZM169.401 122.262H166.385V119.639H175.303V122.262H172.286V138H169.401V122.262ZM177.224 119.639H185.093V122.262H180.109V127.115H184.07V129.738H180.109V135.377H185.093V138H177.224V119.639ZM187.277 119.639H190.163V135.377H194.91V138H187.277V119.639ZM196.818 119.639H204.687V122.262H199.704V127.115H203.664V129.738H199.704V135.377H204.687V138H196.818V119.639ZM210.963 138.262C209.565 138.262 208.498 137.869 207.763 137.082C207.029 136.278 206.662 135.132 206.662 133.646V123.993C206.662 122.507 207.029 121.37 207.763 120.584C208.498 119.779 209.565 119.377 210.963 119.377C212.362 119.377 213.429 119.779 214.163 120.584C214.898 121.37 215.265 122.507 215.265 123.993V125.567H212.537V123.81C212.537 122.603 212.039 122 211.042 122C210.045 122 209.547 122.603 209.547 123.81V133.856C209.547 135.045 210.045 135.639 211.042 135.639C212.039 135.639 212.537 135.045 212.537 133.856V130.262H211.095V127.639H215.265V133.646C215.265 135.132 214.898 136.278 214.163 137.082C213.429 137.869 212.362 138.262 210.963 138.262ZM217.642 119.639H221.918C223.404 119.639 224.488 119.989 225.17 120.689C225.852 121.37 226.193 122.428 226.193 123.862V124.99C226.193 126.896 225.563 128.103 224.304 128.61V128.662C225.004 128.872 225.494 129.301 225.773 129.948C226.071 130.595 226.219 131.46 226.219 132.544V135.77C226.219 136.295 226.237 136.723 226.272 137.056C226.307 137.37 226.394 137.685 226.534 138H223.596C223.491 137.703 223.421 137.423 223.386 137.161C223.351 136.898 223.334 136.426 223.334 135.744V132.387C223.334 131.548 223.194 130.962 222.914 130.63C222.652 130.297 222.189 130.131 221.524 130.131H220.527V138H217.642V119.639ZM221.577 127.508C222.154 127.508 222.582 127.36 222.862 127.062C223.159 126.765 223.308 126.267 223.308 125.567V124.151C223.308 123.486 223.185 123.005 222.941 122.708C222.713 122.411 222.346 122.262 221.839 122.262H220.527V127.508H221.577ZM230.975 119.639H234.883L237.874 138H234.988L234.464 134.354V134.407H231.185L230.66 138H227.985L230.975 119.639ZM234.123 131.915L232.837 122.839H232.785L231.526 131.915H234.123ZM239.798 119.639H243.916L245.752 132.78H245.804L247.641 119.639H251.759V138H249.031V124.098H248.978L246.88 138H244.467L242.368 124.098H242.316V138H239.798V119.639ZM254.672 127.298V119.639H257.558V127.298L257.19 133.148H255.04L254.672 127.298ZM254.725 135.22H257.505V138H254.725V135.22Z" fill="white"/>
</svg>
