<svg width="227" height="79" viewBox="0 0 227 79" fill="none" xmlns="http://www.w3.org/2000/svg">
<g filter="url(#filter0_b_1_162)">
<rect width="226.931" height="79" rx="12" fill="url(#paint0_linear_1_162)" style="mix-blend-mode:screen"/>
<rect x="1.54902" y="1.54902" width="223.833" height="75.902" rx="10.451" stroke="url(#paint1_linear_1_162)" stroke-width="3.09804" style="mix-blend-mode:screen"/>
<path d="M69.6167 32.8907V51.3714L49.4656 63.2372L29.3032 51.3714V27.6286L49.4656 15.7515L64.9526 24.8771L67.2902 23.5014L49.4656 13L26.9656 26.2529V52.7472L49.4656 66L71.9656 52.7472V31.5151L69.6167 32.8907Z" fill="#14013A"/>
<path d="M43.8238 51.3829H40.4522V39.8497H51.6909C52.7542 39.8377 53.7702 39.399 54.5189 38.6288C55.2677 37.8587 55.689 36.8187 55.692 35.7339C55.698 35.1976 55.5965 34.6656 55.3936 34.1707C55.1906 33.6758 54.8905 33.2286 54.5118 32.8563C54.1454 32.4722 53.7066 32.1676 53.2219 31.9608C52.7372 31.7539 52.2164 31.6491 51.6909 31.6526H40.4522V28.1445H51.7022C53.6717 28.1565 55.5574 28.96 56.95 30.3807C58.3427 31.8014 59.1304 33.7248 59.1422 35.7339C59.1543 37.2718 58.6945 38.775 57.8274 40.0331C57.0292 41.2367 55.9043 42.177 54.5906 42.7388C53.2897 43.1595 51.9318 43.3685 50.567 43.3578H43.8238V51.3829Z" fill="#14013A"/>
<path d="M59.0635 51.0963H55.13L52.0954 45.6966C53.2959 45.6217 54.4801 45.3747 55.6132 44.9628L59.0635 51.0963Z" fill="#14013A"/>
<path d="M67.2677 29.0502L69.5942 30.3686L71.9206 29.0502V26.2643L69.5942 24.8886L67.2677 26.2643V29.0502Z" fill="#14013A"/>
<path d="M100.591 20.6473H114.639C118.455 20.6473 121.384 21.6108 123.426 23.5379C125.508 25.4264 126.548 28.0087 126.548 31.2847C126.548 33.5972 125.97 35.4471 124.814 36.8346C123.696 38.2221 122.097 39.2242 120.015 39.8408V40.1299C122.444 40.708 124.351 41.7679 125.739 43.3096C127.165 44.8127 127.878 46.9517 127.878 49.7267C127.878 51.4225 127.589 52.9641 127.011 54.3516C126.471 55.7006 125.681 56.8761 124.64 57.8782C123.638 58.8802 122.405 59.6511 120.94 60.1906C119.514 60.7302 117.896 61 116.084 61H100.591V20.6473ZM113.772 55.5079C115.892 55.5079 117.472 55.1225 118.512 54.3516C119.591 53.5423 120.131 52.174 120.131 50.247V48.3392C120.131 46.4507 119.591 45.121 118.512 44.3502C117.472 43.5408 115.892 43.1361 113.772 43.1361H107.991V55.5079H113.772ZM112.789 37.8752C114.832 37.8752 116.335 37.5091 117.298 36.7768C118.3 36.0445 118.801 34.7727 118.801 32.9612V31.0534C118.801 29.242 118.3 27.9701 117.298 27.2378C116.335 26.5056 114.832 26.1394 112.789 26.1394H107.991V37.8752H112.789ZM141.788 20.6473V45.7955C141.788 47.2986 141.826 48.6475 141.904 49.8423C142.019 51.0371 142.27 52.0584 142.655 52.9063C143.079 53.7157 143.696 54.3516 144.505 54.8141C145.353 55.2766 146.509 55.5079 147.974 55.5079C149.438 55.5079 150.575 55.2766 151.385 54.8141C152.233 54.3516 152.849 53.7157 153.235 52.9063C153.659 52.0584 153.909 51.0371 153.986 49.8423C154.102 48.6475 154.16 47.2986 154.16 45.7955V20.6473H161.733V44.6392C161.733 47.4913 161.56 49.9772 161.213 52.097C160.866 54.2167 160.191 55.9896 159.189 57.4157C158.187 58.8417 156.781 59.9208 154.969 60.6531C153.196 61.3469 150.864 61.6937 147.974 61.6937C145.083 61.6937 142.732 61.3469 140.921 60.6531C139.148 59.9208 137.76 58.8417 136.758 57.4157C135.756 55.9896 135.082 54.2167 134.735 52.097C134.388 49.9772 134.215 47.4913 134.215 44.6392V20.6473H141.788ZM178.881 61V46.258L165.757 20.6473H174.198L178.881 30.3597L182.523 38.6268H182.927L186.627 30.3597L191.368 20.6473H199.519L186.396 46.258V61H178.881Z" fill="#14013A"/>
</g>
<defs>
<filter id="filter0_b_1_162" x="-15.4902" y="-15.4902" width="257.912" height="109.98" filterUnits="userSpaceOnUse" color-interpolation-filters="sRGB">
<feFlood flood-opacity="0" result="BackgroundImageFix"/>
<feGaussianBlur in="BackgroundImageFix" stdDeviation="7.7451"/>
<feComposite in2="SourceAlpha" operator="in" result="effect1_backgroundBlur_1_162"/>
<feBlend mode="normal" in="SourceGraphic" in2="effect1_backgroundBlur_1_162" result="shape"/>
</filter>
<linearGradient id="paint0_linear_1_162" x1="-4.67691" y1="86.2595" x2="202.609" y2="-26.5451" gradientUnits="userSpaceOnUse">
<stop/>
<stop offset="0.11" stop-color="#002A09"/>
<stop offset="0.68" stop-color="#00FF37"/>
<stop offset="0.69" stop-color="#02FF39"/>
<stop offset="0.84" stop-color="#42FF6B"/>
<stop offset="0.94" stop-color="#6AFF8A"/>
<stop offset="1" stop-color="#7AFF97"/>
</linearGradient>
<linearGradient id="paint1_linear_1_162" x1="-41.0754" y1="39.5" x2="235.878" y2="39.5" gradientUnits="userSpaceOnUse">
<stop stop-color="#7AFF97"/>
<stop offset="0.06" stop-color="#6AFF8A"/>
<stop offset="0.16" stop-color="#42FF6B"/>
<stop offset="0.31" stop-color="#02FF39"/>
<stop offset="0.32" stop-color="#00FF37"/>
<stop offset="0.89" stop-color="#002A09"/>
<stop offset="1"/>
</linearGradient>
</defs>
</svg>
