<svg width="102" height="102" viewBox="0 0 102 102" fill="none" xmlns="http://www.w3.org/2000/svg">
<g filter="url(#filter0_b_1_157)">
<rect y="0.199219" width="101.601" height="101.601" rx="9.93096" fill="url(#paint0_linear_1_157)" style="mix-blend-mode:screen"/>
<rect x="1.52784" y="1.72706" width="98.5457" height="98.5457" rx="8.40312" stroke="url(#paint1_linear_1_157)" stroke-width="3.05568" style="mix-blend-mode:screen"/>
<path fill-rule="evenodd" clip-rule="evenodd" d="M45.0262 28.3026C41.9388 29.8909 39.4129 31.2349 39.4135 31.2896C39.4148 31.4307 46.8233 35.136 47.0862 35.127C47.2058 35.123 48.0735 34.7286 49.0144 34.2505L50.7252 33.3815L54.4621 35.2787L57.5219 33.9208C62.1324 31.8747 62.6113 31.6505 62.5362 31.5752C62.4366 31.4753 60.7829 30.5979 56.2963 28.2652C54.128 27.1377 52.0234 26.0323 51.6194 25.8086C51.2154 25.585 50.8298 25.405 50.7624 25.4085C50.695 25.412 48.1137 26.7143 45.0262 28.3026ZM31.485 35.2277L28.2711 36.8672V44.0626C28.2711 48.0201 28.3133 51.258 28.365 51.258C28.4166 51.258 29.9979 50.581 31.8789 49.7537L35.2988 48.2494V40.6649L36.9701 41.5641C38.2579 42.2564 39.5465 42.9473 40.8358 43.6367L43.0303 44.8101L44.0069 44.3741C44.6193 44.1001 45.2305 43.8235 45.8404 43.5443C46.3118 43.3275 47.4688 42.8128 48.4115 42.4004C49.3543 41.9877 50.2269 41.5728 50.3507 41.4782C50.515 41.3526 48.5106 40.2587 42.9369 37.432C38.7355 35.3013 35.1633 33.5647 34.9985 33.573C34.8338 33.5814 33.2527 34.3258 31.485 35.2277ZM63.1155 35.6881C60.9266 36.664 59.1341 37.5014 59.1321 37.5492C59.1302 37.5969 60.3232 38.2974 61.7834 39.1057C63.2435 39.9142 64.4382 40.6189 64.4382 40.672C64.4382 40.7249 63.1461 41.3432 61.5671 42.0462C59.9879 42.749 55.9964 44.5292 52.6968 46.0023L41.6409 50.9377C38.8598 52.1793 36.353 53.2984 36.0702 53.4249C30.3896 55.9645 28.8283 56.6692 28.6139 56.7901C28.3983 56.9119 28.3494 57.6194 28.311 61.1705L28.2653 65.4059L34.0133 68.2983L37.9985 66.522C40.1904 65.5452 41.9837 64.6947 41.9837 64.6321C41.9837 64.5696 41.5787 64.309 41.0839 64.0527C40.5888 63.7964 39.5669 63.2289 38.8127 62.7915C38.0585 62.354 37.3065 61.9526 37.1414 61.8994C36.9764 61.8463 36.8437 61.7534 36.8464 61.6929C36.8492 61.6325 38.6041 60.8092 40.746 59.8633C44.9062 58.0264 48.09 56.6105 54.925 53.5579C57.9814 52.1932 61.0382 50.8293 64.0954 49.4663C66.7822 48.2686 69.9061 46.8698 71.0374 46.3578L73.0943 45.427L73.186 36.8601L70.271 35.3824C68.6677 34.5698 67.2973 33.9069 67.2254 33.9094C67.1536 33.9116 65.3042 34.7119 63.1155 35.6881ZM72.3133 51.1416C71.8838 51.3488 71.0353 51.7367 70.4279 52.0036C69.8204 52.2705 68.6677 52.7842 67.8664 53.1453L66.4094 53.8016L66.3761 57.5622C66.3578 59.6304 66.2807 61.3135 66.2048 61.3026C66.0323 61.2773 63.3016 59.8942 60.5567 58.4416C58.5755 57.3933 58.4511 57.3517 57.9855 57.5794C57.7164 57.7111 56.1078 58.4235 54.4108 59.1629C52.7139 59.9022 51.2701 60.5554 51.2022 60.6145C51.1345 60.6736 54.5498 62.5017 58.792 64.6772L66.5049 68.6327L69.7997 66.9494C71.6116 66.0238 73.1524 65.1794 73.2234 65.0732C73.3831 64.8344 73.3694 50.732 73.2095 50.7511C73.1463 50.7586 72.7429 50.9343 72.3133 51.1416ZM54.068 67.6942C53.4965 67.9369 52.9252 68.1799 52.3539 68.4232C50.629 69.1602 50.9671 69.1846 48.915 68.1758C47.5482 67.5038 46.959 67.2965 46.7033 67.3972C46.5115 67.4726 44.8606 68.2061 43.0345 69.0271C41.2084 69.8481 39.651 70.5198 39.5735 70.5198C38.8074 70.5198 40.0811 71.2713 44.9961 73.7198L50.7602 76.5911L53.1854 75.4086C54.5193 74.7582 57.2097 73.4559 59.1643 72.5145C61.1187 71.5729 62.6936 70.7782 62.6642 70.7482C62.6344 70.7183 60.9968 69.8878 59.0248 68.9026L55.4393 67.1117L54.068 67.6942Z" fill="#14013A"/>
</g>
<defs>
<filter id="filter0_b_1_157" x="-15.2784" y="-15.0792" width="132.158" height="132.158" filterUnits="userSpaceOnUse" color-interpolation-filters="sRGB">
<feFlood flood-opacity="0" result="BackgroundImageFix"/>
<feGaussianBlur in="BackgroundImageFix" stdDeviation="7.6392"/>
<feComposite in2="SourceAlpha" operator="in" result="effect1_backgroundBlur_1_157"/>
<feBlend mode="normal" in="SourceGraphic" in2="effect1_backgroundBlur_1_157" result="shape"/>
</filter>
<linearGradient id="paint0_linear_1_157" x1="-2.09394" y1="111.137" x2="114.029" y2="89.1377" gradientUnits="userSpaceOnUse">
<stop/>
<stop offset="0.11" stop-color="#002A09"/>
<stop offset="0.68" stop-color="#00FF37"/>
<stop offset="0.69" stop-color="#02FF39"/>
<stop offset="0.84" stop-color="#42FF6B"/>
<stop offset="0.94" stop-color="#6AFF8A"/>
<stop offset="1" stop-color="#7AFF97"/>
</linearGradient>
<linearGradient id="paint1_linear_1_157" x1="-18.3902" y1="50.9999" x2="105.607" y2="50.9999" gradientUnits="userSpaceOnUse">
<stop stop-color="#7AFF97"/>
<stop offset="0.06" stop-color="#6AFF8A"/>
<stop offset="0.16" stop-color="#42FF6B"/>
<stop offset="0.31" stop-color="#02FF39"/>
<stop offset="0.32" stop-color="#00FF37"/>
<stop offset="0.89" stop-color="#002A09"/>
<stop offset="1"/>
</linearGradient>
</defs>
</svg>
