<svg width="809" height="109" viewBox="0 0 809 109" fill="none" xmlns="http://www.w3.org/2000/svg">
<path style="mix-blend-mode:screen" d="M5.485 101H803.515C805.907 101 808 102.867 808 105C808 107.133 805.907 109 803.515 109H5.485C3.093 109 1 107.133 1 105C1 102.867 3.093 101 5.485 101Z" fill="url(#paint0_linear_1_147)"/>
<path d="M6.51538 85V67.7323H8.14881V63.5904H6.51538V20.1878H12.2324V18.6127H6.51538V17.0959H9.25721V16.2792H17.2494V15.1708H9.25721V9.68715H6.51538V4.61184H24.9498L31.7169 47.3144L38.309 4.61184H55.81V63.4154H57.3851V68.6657H55.81V85H44.026V67.7323H45.6594V63.5904H44.026V46.4394L45.076 21.9962L42.6842 41.2474L39.184 63.5904L38.5423 67.7323L35.8005 85H27.8667L24.9498 67.7323L24.2498 63.5904L17.366 22.3462L18.4744 47.5478V63.4154H19.7578V68.6657H18.4744V85H6.51538ZM66.369 85V53.9648H68.8775V51.1646H71.5026V42.0058H66.4856V32.0885H68.1191L69.2858 29.8717C70.297 29.9106 71.0748 29.9106 71.6193 29.8717V15.6958L70.7442 14.7625V9.74548H71.6193L71.5026 4.90353H107.088V15.9875H84.3367V29.8717H81.8866V32.0885H79.1447V35.7637C79.2225 35.8415 79.3392 35.9776 79.4948 36.1721C79.6892 36.3665 79.8448 36.5221 79.9614 36.6388H98.8042V41.8307H103.471V51.1646H82.2949V53.9648H79.1447V72.4576H102.771V81.4998C103.004 81.6942 103.355 81.947 103.821 82.2582C104.327 82.5693 104.657 82.7832 104.813 82.8999V85H66.369ZM115.372 85V67.7323H117.005V63.5904H115.372V20.1878H121.089V18.6127H115.372V17.0959H118.114V16.2792H126.106V15.1708H118.114V9.68715H115.372V4.61184H133.806L140.573 47.3144L147.165 4.61184H164.667V63.4154H166.242V68.6657H164.667V85H152.882V67.7323H154.516V63.5904H152.882V46.4394L153.933 21.9962L151.541 41.2474L148.041 63.5904L147.399 67.7323L144.657 85H136.723L133.806 67.7323L133.106 63.5904L126.223 22.3462L127.331 47.5478V63.4154H128.614V68.6657H127.331V85H115.372ZM175.226 85V53.9648H177.734V51.1646H180.359V42.0058H175.342V32.0885H176.976L178.142 29.8717C179.154 29.9106 179.931 29.9106 180.476 29.8717V15.6958L179.601 14.7625V9.74548H180.476L180.359 4.90353H215.945V15.9875H193.193V29.8717H190.743V32.0885H188.001V35.7637C188.079 35.8415 188.196 35.9776 188.351 36.1721C188.546 36.3665 188.701 36.5221 188.818 36.6388H207.661V41.8307H212.328V51.1646H191.151V53.9648H188.001V72.4576H211.628V81.4998C211.861 81.6942 212.211 81.947 212.678 82.2582C213.183 82.5693 213.514 82.7832 213.669 82.8999V85H175.226ZM223.878 68.8407V38.9139H225.862V29.755H223.878V17.6793C223.878 11.9234 224.928 8.05371 227.029 6.07026C228.118 5.09798 229.926 4.3396 232.454 3.79513C234.982 3.25065 237.879 2.97841 241.146 2.97841C248.38 2.97841 253.436 3.81457 256.314 5.48689C257.986 6.45917 259.133 7.83981 259.756 9.62881C260.417 11.4178 260.747 14.1013 260.747 17.6793V18.9044H262.031C262.031 19.0988 262.011 19.3905 261.972 19.7794C261.933 20.1294 261.895 20.4017 261.856 20.5961H263.256V21.7045H261.797V21.7629C261.953 25.652 262.07 28.9577 262.147 31.6801H258.122C258.122 31.8746 258.103 32.1663 258.064 32.5552C258.064 32.9441 258.044 33.2358 258.005 33.4302C257.617 33.5858 257.286 33.7025 257.014 33.7803H261.681V34.772H256.78V37.8055H269.556V38.5639H256.78V39.4973L250.772 39.2056V29.405H256.43V28.88H250.772C250.772 28.1799 250.733 27.1299 250.655 25.7298H247.972V24.388H250.597V23.6296H249.955V22.5796H250.48C250.48 22.3851 250.441 22.0934 250.363 21.7045H245.871V20.5961H250.247C250.247 20.5184 250.227 20.4211 250.188 20.3044C250.149 20.1489 250.111 20.0322 250.072 19.9544H248.847V19.4877C248.847 17.2709 248.438 15.8125 247.622 15.1125C246.144 14.1402 244.452 13.6541 242.546 13.6541C238.618 13.6541 236.654 15.4236 236.654 18.9627V67.0323C236.654 69.4046 237.101 71.0964 237.996 72.1076C238.929 73.0798 240.485 73.566 242.663 73.566C245.191 73.566 246.863 73.1576 247.68 72.3409C248.535 71.4853 248.963 69.7935 248.963 67.2656V54.0815H252.755V50.6396H263.431V54.0815H261.331V70.2991C261.331 73.7215 261 76.3467 260.339 78.1746C259.678 80.0025 258.569 81.3637 257.014 82.2582C253.825 84.0861 249.158 85 243.013 85C235.118 85 229.751 83.4638 226.912 80.3914C225.823 79.1858 225.045 77.7079 224.578 75.9578C224.112 74.2077 223.878 71.8353 223.878 68.8407ZM276.148 64.9321V61.5486H277.898V58.0484H281.574V54.6065H276.148L276.207 40.8974V30.0467H281.457V28.1216H276.323H276.207V16.2209V12.5457C276.168 10.99 276.498 9.47324 277.198 7.99538C277.276 7.80092 277.393 7.54813 277.548 7.237L278.073 6.36195C278.462 5.81747 278.773 5.42856 279.007 5.19521V5.13687C279.085 5.05909 279.201 4.96186 279.357 4.84519C279.551 4.68962 279.687 4.57295 279.765 4.49517C280.582 3.87291 281.068 3.52289 281.224 3.4451C281.496 3.28954 281.768 3.15342 282.04 3.03675C282.546 2.8034 283.149 2.55061 283.849 2.27837C284.276 2.1228 284.549 2.02557 284.665 1.98668C284.743 1.94779 284.821 1.92835 284.899 1.92835C285.015 1.92835 285.093 1.92835 285.132 1.92835C287.699 1.2672 290.752 0.93662 294.291 0.93662C300.591 0.93662 305.239 1.61722 308.233 2.97841C311.228 4.3396 313.095 6.67308 313.834 9.97883C313.834 10.0177 313.834 10.0761 313.834 10.1538C313.873 10.2316 313.892 10.29 313.892 10.3289C314.164 11.8067 314.301 13.2651 314.301 14.7041V27.9466H317.042V30.0467C316.031 30.0467 315.117 30.0661 314.301 30.105V54.4898H318.092V54.7815H318.384V55.8316H320.834V57.3483H322.526V58.2817H319.668V60.8486H316.867C316.867 61.043 316.867 61.3541 316.867 61.7819C316.906 62.1709 316.926 62.482 316.926 62.7153C316.926 62.9487 316.926 63.1626 316.926 63.357H318.267V64.8738H315.934V65.2821H318.267V65.9822C317.178 65.9433 316.401 65.9433 315.934 65.9822V69.3657V69.7741H316.926V72.3992H315.876C315.72 75.0827 315.234 77.2218 314.417 78.8163C313.6 80.3719 312.395 81.597 310.8 82.4915C307.767 84.1638 302.905 85 296.216 85C292.016 85 288.71 84.6889 286.299 84.0666C283.926 83.4055 282.079 82.3165 280.757 80.7997C279.668 79.5552 278.91 78.0774 278.482 76.3661C278.093 74.6549 277.898 72.1853 277.898 68.9574V64.9321H276.148ZM289.391 28.0632H293.008V29.9884H289.624V54.6648H295.808V61.7236L291.024 61.6653V66.2155C291.024 69.0546 291.432 70.9603 292.249 71.9325C293.066 72.8659 294.738 73.3326 297.266 73.3326C301.544 73.3326 303.683 71.4853 303.683 67.7906V64.8738H298.258V63.357H303.683V60.8486H300.241V56.7066H307.3V54.4898H302.283V29.93H306.95V27.9466H301.991V18.2627C301.991 15.8514 301.486 14.1985 300.475 13.304C299.502 12.3706 297.733 11.9039 295.166 11.9039C291.316 11.9039 289.391 13.3429 289.391 16.2209V28.0632ZM328.535 47.9561V36.2304H331.277V21.5295V18.846V4.61184H343.936V56.2399H345.277V64.5821H343.236V85H330.576V64.5821H332.618V56.2399H330.576V47.9561H328.535ZM335.535 3.97014V3.4451H346.327V3.97014H335.535ZM355.72 4.72851H369.896L373.337 18.2043L376.254 31.6801L379.521 45.2726L382.496 57.1733L382.205 4.78685H392.53L393.464 5.6619V30.5717H398.072V32.4968H393.639V57.115H396.789L396.555 67.9656L393.814 68.2573L393.639 79.8664L396.672 82.5499V84.8833L396.614 85H378.938L373.046 60.2652L375.321 60.0318L374.796 57.2317H372.462L366.22 30.6884L366.395 41.4807L367.037 56.59L368.204 56.765V63.8821L366.92 63.9987V85H355.953L355.72 4.72851ZM443.167 85L444.625 77.6496L448.009 55.7732C448.009 55.7344 448.028 55.6371 448.067 55.4816C448.106 55.326 448.145 55.2093 448.184 55.1315L448.65 51.3396L450.109 50.4646L449.292 47.7811L450.4 41.8891L455.476 41.6557V39.4973L452.15 39.5556L452.734 34.7136L453.201 31.3884L452.15 31.1551L456.001 4.72851H475.66L483.827 63.9404L484.294 66.5656H489.428V69.7741H484.819L484.936 70.7658H496.02V71.3492H484.994L485.811 78.8746L487.736 80.158L488.494 85H474.727L474.435 80.0414L473.443 79.0496L471.11 62.657H459.384L456.584 85H443.167ZM462.593 41.9474H465.743C465.393 44.0087 465.023 46.1088 464.635 48.2478C464.751 48.3645 464.829 48.4617 464.868 48.5395C464.712 49.3562 464.576 50.2118 464.46 51.1063H473.677C473.405 47.0227 473.171 43.9309 472.977 41.8307H468.426L465.801 16.7459L465.16 16.6876L462.593 41.9474ZM499.928 47.9561V36.2304H502.67V21.5295V18.846V4.61184H515.329V56.2399H516.671V64.5821H514.629V85H501.97V64.5821H504.012V56.2399H501.97V47.9561H499.928ZM506.929 3.97014V3.4451H517.721V3.97014H506.929ZM567.016 85V67.7323H568.649V63.5904H567.016V20.1878H572.733V18.6127H567.016V17.0959H569.758V16.2792H577.75V15.1708H569.758V9.68715H567.016V4.61184H585.45L592.217 47.3144L598.809 4.61184H616.31V63.4154H617.885V68.6657H616.31V85H604.526V67.7323H606.16V63.5904H604.526V46.4394L605.576 21.9962L603.185 41.2474L599.684 63.5904L599.043 67.7323L596.301 85H588.367L585.45 67.7323L584.75 63.5904L577.866 22.3462L578.975 47.5478V63.4154H580.258V68.6657H578.975V85H567.016ZM624.127 85L625.586 77.6496L628.969 55.7732C628.969 55.7344 628.989 55.6371 629.028 55.4816C629.067 55.326 629.106 55.2093 629.144 55.1315L629.611 51.3396L631.07 50.4646L630.253 47.7811L631.361 41.8891L636.437 41.6557V39.4973L633.111 39.5556L633.695 34.7136L634.161 31.3884L633.111 31.1551L636.962 4.72851H656.621L664.788 63.9404L665.255 66.5656H670.389V69.7741H665.78L665.897 70.7658H676.981V71.3492H665.955L666.772 78.8746L668.697 80.158L669.455 85H655.688L655.396 80.0414L654.404 79.0496L652.071 62.657H640.345L637.545 85H624.127ZM643.554 41.9474H646.704C646.354 44.0087 645.984 46.1088 645.595 48.2478C645.712 48.3645 645.79 48.4617 645.829 48.5395C645.673 49.3562 645.537 50.2118 645.42 51.1063H654.638C654.365 47.0227 654.132 43.9309 653.938 41.8307H649.387L646.762 16.7459L646.12 16.6876L643.554 41.9474ZM682.406 4.72851H696.582L700.024 18.2043L702.941 31.6801L706.207 45.2726L709.183 57.1733L708.891 4.78685H719.217L720.15 5.6619V30.5717H724.759V32.4968H720.325V57.115H723.475L723.242 67.9656L720.5 68.2573L720.325 79.8664L723.358 82.5499V84.8833L723.3 85H705.624L699.732 60.2652L702.007 60.0318L701.482 57.2317H699.149L692.907 30.6884L693.082 41.4807L693.723 56.59L694.89 56.765V63.8821L693.607 63.9987V85H682.639L682.406 4.72851ZM732.342 47.9561V36.2304H735.084V21.5295V18.846V4.61184H747.743V56.2399H749.085V64.5821H747.043V85H734.384V64.5821H736.426V56.2399H734.384V47.9561H732.342ZM739.343 3.97014V3.4451H750.135V3.97014H739.343ZM755.502 85L756.96 77.6496L760.344 55.7732C760.344 55.7344 760.363 55.6371 760.402 55.4816C760.441 55.326 760.48 55.2093 760.519 55.1315L760.986 51.3396L762.444 50.4646L761.627 47.7811L762.736 41.8891L767.811 41.6557V39.4973L764.486 39.5556L765.069 34.7136L765.536 31.3884L764.486 31.1551L768.336 4.72851H787.996L796.163 63.9404L796.629 66.5656H801.763V69.7741H797.155L797.271 70.7658H808.355V71.3492H797.33L798.146 78.8746L800.071 80.158L800.83 85H787.062L786.771 80.0414L785.779 79.0496L783.445 62.657H771.72L768.919 85H755.502ZM774.928 41.9474H778.078C777.728 44.0087 777.359 46.1088 776.97 48.2478C777.087 48.3645 777.164 48.4617 777.203 48.5395C777.048 49.3562 776.912 50.2118 776.795 51.1063H786.012C785.74 47.0227 785.507 43.9309 785.312 41.8307H780.762L778.137 16.7459L777.495 16.6876L774.928 41.9474Z" fill="url(#paint1_linear_1_147)"/>
<defs>
<linearGradient id="paint0_linear_1_147" x1="1027.47" y1="138.6" x2="57.2119" y2="138.6" gradientUnits="userSpaceOnUse">
<stop/>
<stop offset="0.29" stop-color="#007E1B"/>
<stop offset="0.51" stop-color="#00DA2F"/>
<stop offset="0.61" stop-color="#00FF37"/>
<stop offset="0.73" stop-color="#0DFF41"/>
<stop offset="0.85" stop-color="#19FF4B"/>
<stop offset="0.95" stop-color="#21FF51"/>
<stop offset="1" stop-color="#25FF54"/>
</linearGradient>
<linearGradient id="paint1_linear_1_147" x1="602.682" y1="0.999991" x2="698.607" y2="281.084" gradientUnits="userSpaceOnUse">
<stop stop-color="white"/>
<stop offset="1" stop-color="#37FF62"/>
</linearGradient>
</defs>
</svg>
