<svg width="215" height="119" viewBox="0 0 215 119" fill="none" xmlns="http://www.w3.org/2000/svg">
<g filter="url(#filter0_b_1_587)">
<rect x="0.5" width="214.373" height="118.179" rx="59.0896" fill="url(#paint0_linear_1_587)"/>
<rect x="2.21274" y="1.71274" width="210.948" height="114.754" rx="57.3768" stroke="url(#paint1_linear_1_587)" stroke-width="3.42548"/>
<path d="M63.5666 74.5896V43.0828H78.2173C84.4619 43.0828 88.2392 46.096 88.2392 51.0087V51.0523C88.2392 54.6113 85.5099 57.4498 81.9291 57.9083V58.0611C86.2305 58.2795 89.6148 61.4017 89.6148 65.5284V65.5721C89.6148 71.0525 85.3571 74.5896 78.6103 74.5896H63.5666ZM76.0994 48.7379H71.5797V56.0305H75.5099C78.7195 56.0305 80.4226 54.6331 80.4226 52.275V52.2314C80.4226 50.048 78.8068 48.7379 76.0994 48.7379ZM76.0994 61.0742H71.5797V68.9345H76.3396C79.6147 68.9345 81.4706 67.559 81.4706 65.0044V64.9607C81.4706 62.4498 79.6147 61.0742 76.0994 61.0742ZM106.558 75.1573C98.3485 75.1573 92.9991 70.5066 92.9991 63.4105V43.0828H101.012V62.6463C101.012 66.3144 102.977 68.5197 106.58 68.5197C110.161 68.5197 112.126 66.3144 112.126 62.6463V43.0828H120.139V63.4105C120.139 70.4848 114.833 75.1573 106.558 75.1573ZM134.026 74.5896V63.7598L123.174 43.0828H131.689L137.956 56.1834H138.109L144.375 43.0828H152.89L142.039 63.7598V74.5896H134.026Z" fill="white"/>
</g>
<defs>
<filter id="filter0_b_1_587" x="-74.3468" y="-74.8468" width="364.067" height="267.873" filterUnits="userSpaceOnUse" color-interpolation-filters="sRGB">
<feFlood flood-opacity="0" result="BackgroundImageFix"/>
<feGaussianBlur in="BackgroundImageFix" stdDeviation="37.4234"/>
<feComposite in2="SourceAlpha" operator="in" result="effect1_backgroundBlur_1_587"/>
<feBlend mode="normal" in="SourceGraphic" in2="effect1_backgroundBlur_1_587" result="shape"/>
</filter>
<linearGradient id="paint0_linear_1_587" x1="27.2789" y1="7.70733" x2="226.71" y2="129.715" gradientUnits="userSpaceOnUse">
<stop stop-color="#FEE8D0"/>
<stop offset="1" stop-color="#F8A7C8"/>
</linearGradient>
<linearGradient id="paint1_linear_1_587" x1="0.5" y1="59.0896" x2="214.873" y2="59.0896" gradientUnits="userSpaceOnUse">
<stop stop-color="white"/>
<stop offset="1" stop-color="white" stop-opacity="0"/>
</linearGradient>
</defs>
</svg>
