<svg width="100" height="100" viewBox="0 0 100 100" fill="none" xmlns="http://www.w3.org/2000/svg">
<g filter="url(#filter0_b_1_151)">
<rect width="100" height="100" rx="20" fill="white" fill-opacity="0.4"/>
<rect x="1" y="1" width="98" height="98" rx="19" stroke="url(#paint0_linear_1_151)" stroke-width="2"/>
<path d="M38.4309 31.3159C42.6614 27.1086 47.7209 26.0568 49.8614 26.0568C52.0018 26.0568 57.3404 27.1086 61.5709 31.3159C62.4523 30.9402 64.4417 29.8884 65.3482 28.6863C64.3409 31.4411 60.3622 37.777 52.5055 41.0826C52.3181 40.6878 51.527 39.8981 49.8614 39.8981C48.1957 39.8981 47.6837 40.6878 47.4963 41.0826C39.6396 37.777 35.6609 31.4411 34.6536 28.6863C35.5601 29.8884 37.5495 30.9402 38.4309 31.3159Z" fill="#F8A7C8"/>
<path d="M40.8864 40.0151C42.0779 40.9085 44.7597 42.8002 45.9548 43.2197C43.6794 43.9286 39.4801 44.2802 40.8864 40.0151Z" fill="#F8A7C8"/>
<path d="M36.141 34.9751C36.6976 35.8005 37.9983 37.5912 38.7482 38.1506C37.547 40.9376 36.8847 46.5118 43.8451 46.5118L43.6694 48.9298L38.5135 51.8431C40.9388 52.5746 46.2172 55.9134 47.9283 63.4163L49.9815 70.4744L52.0718 63.4163C53.7829 55.9134 59.0613 52.5746 61.4866 51.8431L56.3307 48.9298L56.155 46.5118C63.1153 46.5118 62.4531 40.9376 61.2519 38.1506C62.0018 37.5912 63.3025 35.8005 63.8591 34.9751C66.0227 37.1267 66.2578 41.368 66.1049 43.2197C66.1049 57.198 68.732 63.7281 70.0455 65.2458L64.4806 61.0175L60.7127 67.2053L56.3307 63.4163L49.9815 73.9432L43.6694 63.4163L39.2873 67.2053L35.5195 61.0175L29.9546 65.2458C31.2681 63.7281 33.8952 57.198 33.8952 43.2197C33.7423 41.368 33.9774 37.1267 36.141 34.9751Z" fill="#F8A7C8"/>
<path d="M59.1137 40.0151C57.9222 40.9085 55.2404 42.8002 54.0453 43.2197C56.3207 43.9286 60.52 44.2802 59.1137 40.0151Z" fill="#F8A7C8"/>
<path d="M46.6097 47.2368C46.6097 44.4735 48.9718 43.1133 50.1564 42.7786C51.341 43.1133 53.7101 44.4735 53.7101 47.2368V50.2491L56.3756 51.8958C54.3025 53.181 50.1634 57.0126 50.1634 62.0572C50.1634 57.0126 46.0173 53.181 43.9442 51.8958L46.6097 50.2491V47.2368Z" fill="#F8A7C8"/>
</g>
<defs>
<filter id="filter0_b_1_151" x="-43.7" y="-43.7" width="187.4" height="187.4" filterUnits="userSpaceOnUse" color-interpolation-filters="sRGB">
<feFlood flood-opacity="0" result="BackgroundImageFix"/>
<feGaussianBlur in="BackgroundImageFix" stdDeviation="21.85"/>
<feComposite in2="SourceAlpha" operator="in" result="effect1_backgroundBlur_1_151"/>
<feBlend mode="normal" in="SourceGraphic" in2="effect1_backgroundBlur_1_151" result="shape"/>
</filter>
<linearGradient id="paint0_linear_1_151" x1="0" y1="50" x2="100" y2="50" gradientUnits="userSpaceOnUse">
<stop stop-color="white"/>
<stop offset="1" stop-color="white" stop-opacity="0"/>
</linearGradient>
</defs>
</svg>
