<svg width="100" height="100" viewBox="0 0 100 100" fill="none" xmlns="http://www.w3.org/2000/svg">
<g filter="url(#filter0_b_1_147)">
<rect width="100" height="100" rx="20" fill="white" fill-opacity="0.4"/>
<rect x="1" y="1" width="98" height="98" rx="19" stroke="url(#paint0_linear_1_147)" stroke-width="2"/>
<path fill-rule="evenodd" clip-rule="evenodd" d="M68.2522 31.0007C68.8183 30.7674 69.4379 30.6869 70.0466 30.7677C70.6552 30.8484 71.2306 31.0875 71.7129 31.46C72.1952 31.8325 72.5668 32.3248 72.7889 32.8857C73.011 33.4466 73.0756 34.0555 72.9759 34.6491L67.7803 65.5168C67.2763 68.4943 63.9409 70.2018 61.1529 68.7187C58.8209 67.4779 55.3571 65.5662 52.2416 63.5714C50.6839 62.573 45.9121 59.3756 46.4985 57.1004C47.0025 55.155 55.0204 47.8448 59.602 43.4986C61.4003 41.7911 60.5802 40.8061 58.4566 42.3767C53.1831 46.2764 44.7163 52.2067 41.9169 53.8761C39.4473 55.348 38.1599 55.5993 36.6205 55.348C33.8119 54.8903 31.2072 54.1812 29.0814 53.3174C26.2087 52.1506 26.3484 48.2823 29.0791 47.156L68.2522 31.0007Z" fill="#F8A7C8"/>
</g>
<defs>
<filter id="filter0_b_1_147" x="-43.7" y="-43.7" width="187.4" height="187.4" filterUnits="userSpaceOnUse" color-interpolation-filters="sRGB">
<feFlood flood-opacity="0" result="BackgroundImageFix"/>
<feGaussianBlur in="BackgroundImageFix" stdDeviation="21.85"/>
<feComposite in2="SourceAlpha" operator="in" result="effect1_backgroundBlur_1_147"/>
<feBlend mode="normal" in="SourceGraphic" in2="effect1_backgroundBlur_1_147" result="shape"/>
</filter>
<linearGradient id="paint0_linear_1_147" x1="0" y1="50" x2="100" y2="50" gradientUnits="userSpaceOnUse">
<stop stop-color="white"/>
<stop offset="1" stop-color="white" stop-opacity="0"/>
</linearGradient>
</defs>
</svg>
