<svg width="100" height="100" viewBox="0 0 100 100" fill="none" xmlns="http://www.w3.org/2000/svg">
<g filter="url(#filter0_b_1_153)">
<rect width="100" height="100" rx="20" fill="white" fill-opacity="0.4"/>
<rect x="1" y="1" width="98" height="98" rx="19" stroke="url(#paint0_linear_1_153)" stroke-width="2"/>
<path fill-rule="evenodd" clip-rule="evenodd" d="M44.5781 28.2707C41.6793 29.7913 39.3077 31.078 39.3082 31.1304C39.3095 31.2654 46.2654 34.8128 46.5123 34.8041C46.6246 34.8003 47.4393 34.4227 48.3226 33.965L49.929 33.133L53.4376 34.9493L56.3105 33.6494C60.6394 31.6906 61.089 31.4759 61.0185 31.4038C60.925 31.3081 59.3723 30.4682 55.1598 28.2349C53.1239 27.1555 51.1479 26.0973 50.7686 25.8831C50.3893 25.669 50.0271 25.4967 49.9639 25.5C49.9006 25.5034 47.4769 26.7502 44.5781 28.2707ZM31.864 34.9005L28.8464 36.4701V43.3587C28.8464 47.1474 28.886 50.2472 28.9346 50.2472C28.9831 50.2472 30.4677 49.5991 32.2338 48.807L35.4449 47.3669V40.1058L37.014 40.9667C38.2232 41.6295 39.4331 42.2909 40.6437 42.9509L42.7041 44.0743L43.621 43.6568C44.196 43.3946 44.7699 43.1298 45.3426 42.8624C45.7851 42.6549 46.8715 42.1622 47.7566 41.7673C48.6418 41.3723 49.4611 40.975 49.5773 40.8845C49.7316 40.7642 47.8497 39.7169 42.6164 37.0108C38.6717 34.971 35.3176 33.3085 35.1629 33.3164C35.0082 33.3244 33.5237 34.0371 31.864 34.9005ZM61.5624 35.3413C59.5072 36.2755 57.8242 37.0773 57.8223 37.123C57.8205 37.1687 58.9407 37.8393 60.3117 38.6132C61.6826 39.3872 62.8043 40.0618 62.8043 40.1126C62.8043 40.1633 61.5912 40.7552 60.1086 41.4282C58.6259 42.101 54.8781 43.8054 51.7801 45.2156L41.3996 49.9405C38.7884 51.1292 36.4346 52.2006 36.1691 52.3217C30.8356 54.753 29.3696 55.4276 29.1683 55.5434C28.9658 55.66 28.92 56.3374 28.8839 59.737L28.8409 63.7918L34.2379 66.5608L37.9797 64.8603C40.0377 63.9252 41.7214 63.111 41.7214 63.051C41.7214 62.9912 41.3411 62.7417 40.8765 62.4963C40.4117 62.2509 39.4522 61.7077 38.7441 61.2889C38.036 60.87 37.33 60.4858 37.1749 60.4348C37.02 60.384 36.8954 60.2951 36.898 60.2371C36.9005 60.1793 38.5483 59.3912 40.5593 58.4856C44.4654 56.727 47.4547 55.3715 53.8723 52.4491C56.742 51.1426 59.612 49.8368 62.4824 48.5319C65.0051 47.3853 67.9382 46.0461 69.0005 45.556L70.9317 44.6649L71.0178 36.4633L68.2809 35.0487C66.7755 34.2707 65.4888 33.6361 65.4213 33.6384C65.3539 33.6405 63.6174 34.4067 61.5624 35.3413ZM70.1984 50.1357C69.7951 50.3341 68.9985 50.7056 68.4282 50.9611C67.8578 51.2166 66.7755 51.7083 66.0231 52.054L64.6551 52.6823L64.6239 56.2826C64.6067 58.2626 64.5343 59.8739 64.463 59.8635C64.3011 59.8392 61.7372 58.5151 59.1599 57.1245C57.2998 56.1209 57.1829 56.081 56.7458 56.299C56.4931 56.4251 54.9828 57.1072 53.3895 57.8151C51.7961 58.5228 50.4406 59.1481 50.3769 59.2048C50.3133 59.2613 53.52 61.0114 57.503 63.0942L64.7448 66.881L67.8383 65.2695C69.5396 64.3833 70.9863 63.575 71.0529 63.4733C71.2029 63.2447 71.19 49.7437 71.0399 49.7619C70.9805 49.7691 70.6018 49.9374 70.1984 50.1357ZM53.0676 65.9825C52.531 66.2148 51.9945 66.4475 51.4582 66.6805C49.8387 67.386 50.1561 67.4094 48.2293 66.4435C46.946 65.8003 46.3928 65.6018 46.1527 65.6981C45.9726 65.7704 44.4226 66.4726 42.708 67.2586C40.9935 68.0445 39.5312 68.6876 39.4585 68.6876C38.7391 68.6876 39.935 69.4071 44.5498 71.7512L49.9618 74.5L52.2389 73.368C53.4913 72.7453 56.0174 71.4985 57.8526 70.5973C59.6876 69.6958 61.1663 68.935 61.1386 68.9063C61.1108 68.8777 59.5732 68.0826 57.7216 67.1394L54.3551 65.4248L53.0676 65.9825Z" fill="#F8A7C8"/>
</g>
<defs>
<filter id="filter0_b_1_153" x="-43.7" y="-43.7" width="187.4" height="187.4" filterUnits="userSpaceOnUse" color-interpolation-filters="sRGB">
<feFlood flood-opacity="0" result="BackgroundImageFix"/>
<feGaussianBlur in="BackgroundImageFix" stdDeviation="21.85"/>
<feComposite in2="SourceAlpha" operator="in" result="effect1_backgroundBlur_1_153"/>
<feBlend mode="normal" in="SourceGraphic" in2="effect1_backgroundBlur_1_153" result="shape"/>
</filter>
<linearGradient id="paint0_linear_1_153" x1="0" y1="50" x2="100" y2="50" gradientUnits="userSpaceOnUse">
<stop stop-color="white"/>
<stop offset="1" stop-color="white" stop-opacity="0"/>
</linearGradient>
</defs>
</svg>
