<svg width="75" height="76" viewBox="0 0 75 76" fill="none" xmlns="http://www.w3.org/2000/svg">
<g filter="url(#filter0_b_1_40)">
<rect x="1.53848" y="2" width="72" height="72" rx="13.8462" fill="#131313" fill-opacity="0.01"/>
<rect x="0.846175" y="1.30769" width="73.3846" height="73.3846" rx="14.5385" stroke="url(#paint0_linear_1_40)" stroke-opacity="0.5" stroke-width="1.38462"/>
<path d="M26.5388 20.2354C30.5611 16.2353 35.3716 15.2352 37.4067 15.2352C39.4418 15.2352 44.5176 16.2353 48.5399 20.2354C49.3779 19.8783 51.2693 18.8782 52.1312 17.7353C51.1735 20.3545 47.3907 26.3785 39.9206 29.5215C39.7425 29.1461 38.9904 28.3952 37.4067 28.3952C35.823 28.3952 35.3362 29.1461 35.158 29.5215C27.688 26.3785 23.9051 20.3545 22.9474 17.7353C23.8093 18.8782 25.7008 19.8783 26.5388 20.2354Z" fill="white"/>
<path d="M28.8735 28.5065C30.0063 29.3559 32.5561 31.1545 33.6923 31.5534C31.5289 32.2274 27.5364 32.5616 28.8735 28.5065Z" fill="white"/>
<path d="M24.3616 23.7145C24.8908 24.4993 26.1275 26.2019 26.8405 26.7337C25.6984 29.3836 25.0688 34.6834 31.6865 34.6834L31.5194 36.9824L26.6174 39.7523C28.9233 40.4478 33.9418 43.6222 35.5687 50.7559L37.5209 57.4666L39.5083 50.7559C41.1352 43.6222 46.1538 40.4478 48.4597 39.7523L43.5576 36.9824L43.3905 34.6834C50.0083 34.6834 49.3786 29.3836 48.2366 26.7337C48.9496 26.2019 50.1862 24.4993 50.7154 23.7145C52.7725 25.7603 52.9961 29.7928 52.8507 31.5534C52.8507 44.8437 55.3485 51.0523 56.5973 52.4954L51.3063 48.4751L47.7239 54.3584L43.5576 50.7559L37.5209 60.7646L31.5194 50.7559L27.3531 54.3584L23.7707 48.4751L18.4797 52.4954C19.7286 51.0523 22.2264 44.8437 22.2264 31.5534C22.081 29.7928 22.3045 25.7603 24.3616 23.7145Z" fill="white"/>
<path d="M46.2036 28.5065C45.0707 29.3559 42.5209 31.1545 41.3847 31.5534C43.5481 32.2274 47.5406 32.5616 46.2036 28.5065Z" fill="white"/>
<path d="M34.3151 35.3727C34.3151 32.7455 36.5609 31.4522 37.6872 31.134C38.8134 31.4522 41.066 32.7455 41.066 35.3727V38.2367L43.6003 39.8024C41.6292 41.0244 37.6939 44.6674 37.6939 49.4637C37.6939 44.6674 33.7518 41.0244 31.7808 39.8024L34.3151 38.2367V35.3727Z" fill="white"/>
</g>
<defs>
<filter id="filter0_b_1_40" x="-42.2684" y="-41.8069" width="159.614" height="159.614" filterUnits="userSpaceOnUse" color-interpolation-filters="sRGB">
<feFlood flood-opacity="0" result="BackgroundImageFix"/>
<feGaussianBlur in="BackgroundImageFix" stdDeviation="21.2111"/>
<feComposite in2="SourceAlpha" operator="in" result="effect1_backgroundBlur_1_40"/>
<feBlend mode="normal" in="SourceGraphic" in2="effect1_backgroundBlur_1_40" result="shape"/>
</filter>
<linearGradient id="paint0_linear_1_40" x1="37.5385" y1="2" x2="95.7167" y2="30.8871" gradientUnits="userSpaceOnUse">
<stop stop-color="white"/>
<stop offset="1" stop-color="#999999" stop-opacity="0"/>
</linearGradient>
</defs>
</svg>
