<svg width="76" height="76" viewBox="0 0 76 76" fill="none" xmlns="http://www.w3.org/2000/svg">
<g filter="url(#filter0_b_1_42)">
<rect x="2.30771" y="2" width="72" height="72" rx="13.8462" fill="#131313" fill-opacity="0.01"/>
<rect x="1.6154" y="1.30769" width="73.3846" height="73.3846" rx="14.5385" stroke="url(#paint0_linear_1_42)" stroke-opacity="0.5" stroke-width="1.38462"/>
<path fill-rule="evenodd" clip-rule="evenodd" d="M33.1526 17.3402C30.3965 18.786 28.1416 20.0093 28.1421 20.0591C28.1433 20.1875 34.7569 23.5603 34.9916 23.552C35.0984 23.5484 35.873 23.1894 36.7129 22.7542L38.2402 21.9632L41.5761 23.6901L44.3076 22.4541C48.4234 20.5917 48.8509 20.3876 48.7839 20.3191C48.695 20.2281 47.2187 19.4295 43.2135 17.3062C41.2778 16.2799 39.3991 15.2737 39.0384 15.0701C38.6778 14.8665 38.3335 14.7027 38.2733 14.7059C38.2132 14.7091 35.9088 15.8945 33.1526 17.3402ZM21.0643 23.6437L18.1952 25.136V31.6855C18.1952 35.2878 18.2329 38.235 18.2791 38.235C18.3252 38.235 19.7368 37.6188 21.4159 36.8658L24.469 35.4965V28.5928L25.9609 29.4113C27.1105 30.0415 28.2608 30.6703 29.4119 31.2979L31.3709 32.366L32.2426 31.969C32.7894 31.7197 33.335 31.4679 33.8795 31.2137C34.3002 31.0164 35.3331 30.548 36.1747 30.1725C37.0163 29.7969 37.7953 29.4192 37.9058 29.3331C38.0525 29.2188 36.2632 28.2231 31.2875 25.6501C27.5369 23.7107 24.3479 22.13 24.2009 22.1376C24.0538 22.1452 22.6424 22.8228 21.0643 23.6437ZM49.301 24.0627C47.3469 24.951 45.7468 25.7133 45.745 25.7568C45.7433 25.8002 46.8083 26.4379 48.1118 27.1736C49.4153 27.9095 50.4818 28.551 50.4818 28.5993C50.4818 28.6475 49.3283 29.2102 47.9188 29.8501C46.509 30.4898 42.9457 32.1103 40.0002 33.4511L30.1306 37.9435C27.6479 39.0736 25.41 40.0923 25.1575 40.2074C20.0865 42.519 18.6927 43.1605 18.5013 43.2706C18.3088 43.3814 18.2652 44.0255 18.2309 47.2578L18.1901 51.1129L23.3213 53.7457L26.879 52.1289C28.8357 51.2398 30.4366 50.4656 30.4366 50.4086C30.4366 50.3518 30.075 50.1145 29.6333 49.8812C29.1913 49.6479 28.279 49.1314 27.6058 48.7332C26.9325 48.335 26.2612 47.9697 26.1139 47.9212C25.9665 47.8729 25.8481 47.7884 25.8505 47.7332C25.853 47.6783 27.4196 46.9289 29.3317 46.0679C33.0455 44.3958 35.8877 43.1071 41.9894 40.3285C44.7178 39.0863 47.4466 37.8449 50.1757 36.6042C52.5743 35.514 55.363 34.2407 56.3729 33.7748L58.2091 32.9275L58.291 25.1295L55.6888 23.7846C54.2575 23.0449 53.0341 22.4415 52.97 22.4437C52.9059 22.4457 51.2548 23.1742 49.301 24.0627ZM57.512 38.1291C57.1285 38.3177 56.3711 38.6708 55.8288 38.9138C55.2865 39.1567 54.2575 39.6242 53.5421 39.9529L52.2415 40.5503L52.2118 43.9733C52.1954 45.8559 52.1266 47.3879 52.0588 47.378C51.9048 47.3549 49.4671 46.096 47.0167 44.7738C45.2481 43.8196 45.137 43.7817 44.7215 43.989C44.4812 44.1089 43.0452 44.7574 41.5303 45.4304C40.0154 46.1033 38.7266 46.6979 38.666 46.7517C38.6055 46.8054 41.6544 48.4694 45.4414 50.4497L52.3267 54.0501L55.268 52.518C56.8855 51.6754 58.261 50.9068 58.3243 50.8101C58.4669 50.5928 58.4547 37.7563 58.312 37.7737C58.2555 37.7805 57.8954 37.9405 57.512 38.1291ZM41.2243 53.1959C40.7141 53.4167 40.204 53.6379 39.6941 53.8594C38.1543 54.5303 38.4561 54.5525 36.6241 53.6342C35.404 53.0226 34.8781 52.8339 34.6498 52.9255C34.4785 52.9941 33.0048 53.6618 31.3746 54.4091C29.7445 55.1564 28.3542 55.7678 28.285 55.7678C27.6011 55.7678 28.7381 56.4519 33.1257 58.6806L38.2714 61.2941L40.4364 60.2178C41.6272 59.6258 44.0289 58.4404 45.7738 57.5835C47.5185 56.7264 48.9244 56.003 48.8981 55.9757C48.8716 55.9485 47.4096 55.1926 45.6492 54.2958L42.4484 52.6656L41.2243 53.1959Z" fill="white"/>
</g>
<defs>
<filter id="filter0_b_1_42" x="-41.4992" y="-41.8069" width="159.614" height="159.614" filterUnits="userSpaceOnUse" color-interpolation-filters="sRGB">
<feFlood flood-opacity="0" result="BackgroundImageFix"/>
<feGaussianBlur in="BackgroundImageFix" stdDeviation="21.2111"/>
<feComposite in2="SourceAlpha" operator="in" result="effect1_backgroundBlur_1_42"/>
<feBlend mode="normal" in="SourceGraphic" in2="effect1_backgroundBlur_1_42" result="shape"/>
</filter>
<linearGradient id="paint0_linear_1_42" x1="38.3077" y1="2" x2="96.4859" y2="30.8871" gradientUnits="userSpaceOnUse">
<stop stop-color="white"/>
<stop offset="1" stop-color="#999999" stop-opacity="0"/>
</linearGradient>
</defs>
</svg>
