<svg width="267" height="135" viewBox="0 0 267 135" fill="none" xmlns="http://www.w3.org/2000/svg">
<path d="M3.5 3.5H263.147L250.866 131.035L3.5 96.9492V3.5Z" fill="white" stroke="black" stroke-width="7"/>
<path d="M100.296 38.208C104.784 38.208 107.893 38.956 109.624 40.452C111.355 41.9187 112.22 44.2507 112.22 47.448C112.22 50.616 111.589 53.0067 110.328 54.62C112.176 56.1453 113.1 58.712 113.1 62.32C113.1 69.2427 109.125 72.704 101.176 72.704C100.237 72.704 97.172 72.4693 91.98 72V38.912C95.0307 38.4427 97.8027 38.208 100.296 38.208ZM105.576 66.236C106.163 65.5907 106.456 64.2707 106.456 62.276C106.456 60.2813 106.236 59.0787 105.796 58.668C105.356 58.2573 104.212 58.052 102.364 58.052C100.545 58.052 99.3867 58.0813 98.888 58.14C98.4187 58.1987 98.184 58.3747 98.184 58.668V66.544C98.184 66.8667 98.3747 67.0573 98.756 67.116C99.1667 67.1747 100.267 67.204 102.056 67.204C103.845 67.204 105.019 66.8813 105.576 66.236ZM98.976 52.596C101.528 52.596 103.259 52.288 104.168 51.672C105.107 51.056 105.576 49.692 105.576 47.58C105.576 46.3773 105.312 45.3947 104.784 44.632C104.285 43.84 103.743 43.444 103.156 43.444C100.663 43.444 99.152 43.6053 98.624 43.928C98.448 44.0453 98.3013 44.2213 98.184 44.456V51.892C98.184 52.244 98.2427 52.4493 98.36 52.508C98.5653 52.5667 98.7707 52.596 98.976 52.596ZM130.769 40.232C130.769 39.4107 130.945 38.868 131.297 38.604C131.649 38.34 132.382 38.208 133.497 38.208C134.612 38.208 135.374 38.384 135.785 38.736C136.225 39.088 136.46 39.9387 136.489 41.288L137.017 53.124C137.017 53.564 137.017 54.004 137.017 54.444C137.017 58.9907 136.709 62.5987 136.093 65.268C135.506 67.9373 134.48 69.844 133.013 70.988C131.576 72.132 129.508 72.704 126.809 72.704C122.878 72.704 120.165 71.472 118.669 69.008C117.173 66.544 116.425 62.1147 116.425 55.72V41.2C116.425 39.9387 116.601 39.132 116.953 38.78C117.334 38.3987 118.097 38.208 119.241 38.208C120.385 38.208 121.162 38.4133 121.573 38.824C121.984 39.2053 122.218 40.144 122.277 41.64L122.893 53.036C122.893 60.4573 123.186 64.872 123.773 66.28C124.008 66.896 124.345 67.204 124.785 67.204C125.812 67.204 126.604 67.1893 127.161 67.16C127.718 67.1013 128.261 66.9253 128.789 66.632C129.317 66.3093 129.684 65.9427 129.889 65.532C130.094 65.1213 130.285 64.432 130.461 63.464C130.666 62.1147 130.769 59.5333 130.769 55.72V40.232ZM139.737 39.22C139.737 38.5453 140.705 38.208 142.641 38.208C144.577 38.208 145.765 38.7507 146.205 39.836L152.233 50.352L157.469 39.704C157.703 39.1173 158.026 38.7213 158.437 38.516C158.847 38.3107 159.493 38.208 160.373 38.208C162.367 38.208 163.365 38.5747 163.365 39.308C163.365 39.484 163.321 39.66 163.233 39.836L154.653 56.644V71.076C154.653 71.5747 154.623 71.912 154.565 72.088C154.477 72.4987 153.919 72.704 152.893 72.704C150.634 72.704 149.505 72.1467 149.505 71.032V56.644L139.913 39.792C139.795 39.5867 139.737 39.396 139.737 39.22Z" fill="black"/>
</svg>
