<svg width="934" height="1047" viewBox="0 0 934 1047" fill="none" xmlns="http://www.w3.org/2000/svg">
<path d="M277.195 75.0482C280.802 61.5302 282.664 47.9041 288.421 35.0624C310.509 54.6109 942.833 -20.0904 968.96 -6.43253C1002.07 10.8744 1061.25 160.413 1094.75 176.965C1131.54 195.139 1176.82 215.432 1202.66 248.972C1218.35 269.338 1209.92 299.791 1208.51 323.127C1206.97 348.712 1211.65 374.115 1207.86 399.573C1204.41 422.772 1198.59 446.213 1193.33 469.093C1189.08 487.581 1182.17 505.127 1177.88 523.501C1172.63 546.005 1166.77 567.746 1162.34 590.522C1155.43 626.111 1156.64 662.746 1151.02 698.619C1145.55 733.518 1143.65 770.654 1133.98 804.694C1121.96 846.962 1115.42 889.778 1093.38 928.7C1085.34 942.898 1079.29 958.108 1071.29 972.231C1069.17 975.97 1066.38 978.28 1062.36 979.696C1052.01 983.347 1040.94 988.54 1029.52 986.723C1025.84 986.137 1025.72 981.532 1022.42 980.804C1015.59 979.294 1009.21 976.079 1002.44 974.818C995.356 973.5 988.418 970.599 982.179 967.522C970.102 961.564 956.034 953.138 945.968 944.229C936.493 935.842 921.366 937.303 909.588 935.261C902.477 934.028 896.126 932.587 889.297 930.526C884.919 929.205 874.715 930.496 871.602 926.391C865.42 918.24 857.473 908.786 848.488 903.343C844.825 901.124 837.775 902.978 833.762 902.818C826.174 902.516 818.68 901.084 811.208 899.833C798.892 897.771 786.333 893.025 773.827 893.111C757.667 891.798 741.399 888.25 725.29 886.103C712.384 884.382 696.508 881.862 684.995 875.388C680.044 872.604 676.119 868.748 671.513 865.53C666.28 861.875 659.161 861.207 653.199 859.314C644.564 856.57 637.343 850.868 628.685 848.277C618.913 845.354 608.403 844.294 598.375 842.579C581.945 839.768 567.731 833.615 551.19 832.07C533.095 830.381 516.762 826.574 499.761 820.824C494.757 819.132 489.443 819.52 484.314 818.42C480.51 817.604 476.503 815.411 472.602 815.432C455.928 815.521 441.699 812.264 425.762 808.249C408.206 803.826 388.271 805.954 372.341 795.842C367.534 792.792 361.561 792.844 356.129 791.42C348.375 789.387 340.715 786.908 333.088 784.439L332.491 784.246C326.148 782.193 319.829 779.667 313.273 778.369C305.461 776.824 297.432 777.814 289.699 775.749C280.146 773.197 272.184 767.834 262.325 765.67C241.125 761.015 225.169 748.175 205.959 739.987C195.766 735.642 184.692 733.462 174.18 730.034C163.325 726.495 154.46 719.384 144.301 715.054C134.592 710.915 124.216 711.284 114.393 707.764C108.818 705.766 103.257 703.148 97.4526 701.891C94.688 701.291 92.0193 701.486 89.5103 700.025C81.474 695.346 68.3447 694.676 59.1833 694.208L58.9795 694.197C56.9324 694.093 40.8383 692.62 42.3132 691.654C47.2517 688.417 48.2329 681.279 50.4142 676.279C55.2666 665.159 60.6292 654.141 66.4199 643.478C77.1083 623.797 139.434 470.127 151.833 451.497C162.75 435.095 171.578 414.923 175.685 395.648C179.185 379.224 176.822 362.122 184.444 346.699C192.202 330.999 195.379 313.711 202.826 298.018C208.744 285.548 215.602 274.048 218.321 260.335C220.007 251.827 221.922 245.455 226.498 238.05C230.414 231.714 235.104 224.624 235.317 216.936C235.487 210.798 234.605 204.925 236.425 198.927C239.334 189.339 244.811 180.482 248.687 171.266C253.536 159.74 257.279 148.252 259.991 136.046C264.626 115.184 271.721 95.5667 277.195 75.0482Z" fill="#C2C2C2" stroke="#C5C5C5" stroke-width="5" stroke-linecap="round"/>
<g filter="url(#filter0_d_2_7)">
<path d="M275.077 9.22829C279.499 -4.04509 282.188 -17.5326 288.716 -30.0001C309.572 -9.14363 945.271 -45.2228 970.518 -30.0001C1002.51 -10.7104 1052.48 142.153 1084.92 160.713C1120.53 181.093 1164.49 204.104 1188.24 239.155C1202.67 260.438 1192.39 290.321 1189.57 313.528C1186.47 338.971 1189.6 364.613 1184.27 389.793C1179.41 412.738 1172.18 435.782 1165.53 458.299C1160.17 476.494 1152.2 493.587 1146.8 511.666C1140.19 533.808 1133.02 555.153 1127.21 577.617C1118.14 612.719 1117.12 649.36 1109.33 684.824C1101.75 719.326 1097.59 756.278 1085.86 789.665C1071.3 831.124 1062.16 873.463 1037.79 910.971C1028.91 924.653 1021.94 939.468 1013.1 953.078C1010.76 956.681 1007.82 958.816 1003.73 959.985C993.18 962.999 981.809 967.509 970.518 965C966.88 964.191 967.043 959.587 963.8 958.66C957.067 956.737 950.894 953.139 944.213 951.469C937.226 949.722 930.478 946.405 924.437 942.953C912.745 936.272 899.216 927.005 889.711 917.5C880.763 908.552 865.576 909.089 853.944 906.334C846.922 904.671 840.67 902.846 833.979 900.373C829.689 898.788 819.426 899.455 816.568 895.169C810.894 886.657 803.537 876.736 794.9 870.756C791.379 868.319 784.229 869.741 780.233 869.337C772.678 868.574 765.284 866.688 757.903 864.984C745.735 862.177 733.489 856.675 721 856C704.95 853.706 688.928 849.175 672.979 846.051C660.202 843.548 644.509 840.066 633.412 832.903C628.639 829.823 624.956 825.736 620.554 822.244C615.554 818.276 608.488 817.177 602.653 814.924C594.201 811.66 587.34 805.528 578.856 802.416C569.28 798.904 558.854 797.205 548.949 794.883C532.72 791.078 518.908 784.071 502.491 781.523C484.532 778.735 468.461 773.941 451.842 767.167C446.95 765.173 441.622 765.238 436.569 763.827C432.822 762.781 428.956 760.348 425.061 760.132C408.412 759.207 394.408 755.089 378.745 750.112C361.49 744.628 341.463 745.539 326.178 734.477C321.566 731.139 315.601 730.828 310.266 729.076C302.649 726.575 295.155 723.634 287.692 720.706L287.108 720.477C280.901 718.042 274.748 715.135 268.283 713.441C260.58 711.423 252.506 711.923 244.912 709.391C235.532 706.263 227.911 700.425 218.202 697.665C197.325 691.729 182.18 677.941 163.504 668.599C153.594 663.642 142.673 660.792 132.39 656.731C121.77 652.537 113.355 644.9 103.478 639.959C94.0383 635.237 83.6593 634.975 74.0689 630.863C68.6259 628.529 63.2345 625.578 57.5173 623.969C54.7943 623.203 52.1187 623.235 49.7033 621.624C41.9667 616.464 28.9025 614.996 19.7866 613.972L19.5837 613.949C17.5469 613.72 1.57215 611.271 3.10323 610.396C8.22952 607.465 9.64333 600.4 12.1249 595.543C17.645 584.738 23.6683 574.067 30.0972 563.776C41.9636 544.782 113.526 395.191 127.036 377.35C138.931 361.643 148.971 342.045 154.243 323.056C158.736 306.876 157.418 289.661 165.964 274.731C174.664 259.532 178.887 242.469 187.275 227.259C193.941 215.171 201.487 204.11 205.035 190.589C207.236 182.199 209.535 175.955 214.553 168.843C218.848 162.757 223.96 155.965 224.641 148.304C225.184 142.188 224.661 136.272 226.843 130.396C230.33 121.003 236.336 112.496 240.766 103.533C246.307 92.3236 250.742 81.0843 254.192 69.0658C260.088 48.5252 268.364 29.3756 275.077 9.22829Z" fill="#F4F4F4"/>
<path d="M275.077 9.22829C279.499 -4.04509 282.188 -17.5326 288.716 -30.0001C309.572 -9.14363 945.271 -45.2228 970.518 -30.0001C1002.51 -10.7104 1052.48 142.153 1084.92 160.713C1120.53 181.093 1164.49 204.104 1188.24 239.155C1202.67 260.438 1192.39 290.321 1189.57 313.528C1186.47 338.971 1189.6 364.613 1184.27 389.793C1179.41 412.738 1172.18 435.782 1165.53 458.299C1160.17 476.494 1152.2 493.587 1146.8 511.666C1140.19 533.808 1133.02 555.153 1127.21 577.617C1118.14 612.719 1117.12 649.36 1109.33 684.824C1101.75 719.326 1097.59 756.278 1085.86 789.665C1071.3 831.124 1062.16 873.463 1037.79 910.971C1028.91 924.653 1021.94 939.468 1013.1 953.078C1010.76 956.681 1007.82 958.816 1003.73 959.985C993.18 962.999 981.809 967.509 970.518 965C966.88 964.191 967.043 959.587 963.8 958.66C957.067 956.737 950.894 953.139 944.213 951.469C937.226 949.722 930.478 946.405 924.437 942.953C912.745 936.272 899.216 927.005 889.711 917.5C880.763 908.552 865.576 909.089 853.944 906.334C846.922 904.671 840.67 902.846 833.979 900.373C829.689 898.788 819.426 899.455 816.568 895.169C810.894 886.657 803.537 876.736 794.9 870.756C791.379 868.319 784.229 869.741 780.233 869.337C772.678 868.574 765.284 866.688 757.903 864.984C745.735 862.177 733.489 856.675 721 856C704.95 853.706 688.928 849.175 672.979 846.051C660.202 843.548 644.509 840.066 633.412 832.903C628.639 829.823 624.956 825.736 620.554 822.244C615.554 818.276 608.488 817.177 602.653 814.924C594.201 811.66 587.34 805.528 578.856 802.416C569.28 798.904 558.854 797.205 548.949 794.883C532.72 791.078 518.908 784.071 502.491 781.523C484.532 778.735 468.461 773.941 451.842 767.167C446.95 765.173 441.622 765.238 436.569 763.827C432.822 762.781 428.956 760.348 425.061 760.132C408.412 759.207 394.408 755.089 378.745 750.112C361.49 744.628 341.463 745.539 326.178 734.477C321.566 731.139 315.601 730.828 310.266 729.076C302.649 726.575 295.155 723.634 287.692 720.706L287.108 720.477C280.901 718.042 274.748 715.135 268.283 713.441C260.58 711.423 252.506 711.923 244.912 709.391C235.532 706.263 227.911 700.425 218.202 697.665C197.325 691.729 182.18 677.941 163.504 668.599C153.594 663.642 142.673 660.792 132.39 656.731C121.77 652.537 113.355 644.9 103.478 639.959C94.0383 635.237 83.6593 634.975 74.0689 630.863C68.6259 628.529 63.2345 625.578 57.5173 623.969C54.7943 623.203 52.1187 623.235 49.7033 621.624C41.9667 616.464 28.9025 614.996 19.7866 613.972L19.5837 613.949C17.5469 613.72 1.57215 611.271 3.10323 610.396C8.22952 607.465 9.64333 600.4 12.1249 595.543C17.645 584.738 23.6683 574.067 30.0972 563.776C41.9636 544.782 113.526 395.191 127.036 377.35C138.931 361.643 148.971 342.045 154.243 323.056C158.736 306.876 157.418 289.661 165.964 274.731C174.664 259.532 178.887 242.469 187.275 227.259C193.941 215.171 201.487 204.11 205.035 190.589C207.236 182.199 209.535 175.955 214.553 168.843C218.848 162.757 223.96 155.965 224.641 148.304C225.184 142.188 224.661 136.272 226.843 130.396C230.33 121.003 236.336 112.496 240.766 103.533C246.307 92.3236 250.742 81.0843 254.192 69.0658C260.088 48.5252 268.364 29.3756 275.077 9.22829Z" stroke="#C5C5C5" stroke-width="5" stroke-linecap="round"/>
</g>
<defs>
<filter id="filter0_d_2_7" x="0.499741" y="-36.3667" width="1222.76" height="1042.6" filterUnits="userSpaceOnUse" color-interpolation-filters="sRGB">
<feFlood flood-opacity="0" result="BackgroundImageFix"/>
<feColorMatrix in="SourceAlpha" type="matrix" values="0 0 0 0 0 0 0 0 0 0 0 0 0 0 0 0 0 0 127 0" result="hardAlpha"/>
<feOffset dx="25" dy="38"/>
<feComposite in2="hardAlpha" operator="out"/>
<feColorMatrix type="matrix" values="0 0 0 0 0.683333 0 0 0 0 0.683333 0 0 0 0 0.683333 0 0 0 1 0"/>
<feBlend mode="normal" in2="BackgroundImageFix" result="effect1_dropShadow_2_7"/>
<feBlend mode="normal" in="SourceGraphic" in2="effect1_dropShadow_2_7" result="shape"/>
</filter>
</defs>
</svg>
