<svg width="78" height="84" viewBox="0 0 78 84" fill="none" xmlns="http://www.w3.org/2000/svg">
<path d="M34.4606 11.7338C42.1398 8.51937 49.5712 9.97468 52.3271 11.1042L44.9829 29.0235C42.8383 28.1446 41.4008 28.7495 40.9501 29.1619C32.5886 20.7364 30.8278 10.4343 30.9926 6.33639C31.5219 8.37099 33.5252 10.7824 34.4606 11.7338Z" fill="#090909"/>
<path d="M64.2534 23.9443C61.0389 16.2651 54.7236 12.0864 51.9678 10.9569L44.6236 28.8763C46.7681 29.7552 47.3677 31.195 47.3993 31.8051C59.2689 31.6712 67.7533 25.568 70.5118 22.5332C68.7068 23.611 65.5874 23.923 64.2534 23.9443Z" fill="#090909"/>
<path d="M33.0063 24.292C34.0663 26.0773 36.5153 29.9415 37.8314 31.1152C34.5256 30.8323 28.9326 29.0716 33.0063 24.292Z" fill="#090909"/>
<path d="M31.2426 20.7498C30.5739 19.6299 29.8494 16.6253 29.5708 15.2629C25.6435 16.9069 23.0904 22.2738 22.3047 24.7517C14.8878 42.8485 8.04062 49.9163 5.54412 51.1881L14.9525 48.6504L16.5203 58.6496L24.1726 56.0564L26.7617 73.0352L28.6022 68.5445L29.656 58.3038C31.434 47.6873 26.4096 40.5796 23.6752 38.3528L31.8591 37.3017L33.3685 34.264C24.407 30.5912 28.2173 23.7242 31.2426 20.7498Z" fill="#090909"/>
<path d="M56.4738 33.9101C54.4657 34.438 50.0092 35.472 48.248 35.3845C50.8014 37.5029 56.0214 40.1739 56.4738 33.9101Z" fill="#090909"/>
<path d="M60.2161 32.6245C61.4784 32.2961 64.1032 30.6641 65.2578 29.8892C66.9017 33.8164 64.954 39.4314 63.7746 41.748C56.3577 59.8448 56.2752 69.6851 57.1611 72.3431L52.2398 63.9325L44.1055 69.9553L40.4741 62.7376L26.7139 73.0157L28.5544 68.525L34.9907 60.4902C41.1748 51.6796 49.7423 50.1424 53.253 50.4751L48.1606 43.9829L49.2174 40.7597C58.1788 44.4325 60.2838 36.8666 60.2161 32.6245Z" fill="#090909"/>
<path d="M36.5432 36.6614C38.0094 33.084 41.7814 32.5731 43.4841 32.7649L33.2549 57.7236C35.9316 51.1927 32.6265 44.0444 30.6393 41.2865L34.9449 40.5612L36.5432 36.6614Z" fill="#090909"/>
<path d="M45.685 40.4082C47.1511 36.8308 44.8226 33.8196 43.475 32.7612L33.2458 57.72C35.9225 51.1891 43.2937 48.4164 46.6447 47.8464L44.0866 44.308L45.685 40.4082Z" fill="#090909"/>
</svg>
