<svg width="310" height="139" viewBox="0 0 310 139" fill="none" xmlns="http://www.w3.org/2000/svg">
<path d="M5.67073 5.47601C6.11741 3.69389 16.2534 3.96095 17.6326 3.84631C22.5479 3.43776 27.593 2.94093 32.5193 2.94093C35.5482 2.94093 38.9996 2.83781 42 2.3977C47.4492 1.59842 52.9897 1.85447 58.4804 1.85447C67.0067 1.85447 267.333 1.85084 275.689 3.84631C277.377 4.24949 279.033 4.62473 280.772 4.71146C281.119 4.72877 282.072 4.57465 282.325 4.9529C282.74 5.57317 283.27 14.9918 283.688 23.7116M284.97 44.8338C284.765 42.7564 284.554 40.679 284.368 38.5966C284.315 38.0029 284.042 31.1087 283.688 23.7116M284.97 44.8338C285.312 48.293 285.638 51.7524 285.8 55.2356C286.012 59.7668 286.035 64.3036 286.204 68.8365C286.401 74.1422 286.188 79.6373 286.728 84.9121C287.142 88.9605 286.559 93.0724 287.091 97.1046C287.631 101.193 288.503 105.263 288.745 109.378C288.883 111.708 289.814 113.91 289.814 116.259C289.814 118.709 286.915 119.73 284.872 120.624C279.696 122.891 81.1186 120.853 75.5457 121.309C69.1031 121.836 62.444 122.214 55.9791 122.214C46.7159 122.214 37.46 122.938 28.1824 122.938C24.2382 122.938 20.0947 123.505 16.2004 123.301C15.845 123.282 15.4854 123.157 15.1291 122.961M284.97 44.8338C284.891 44.7468 284.811 44.6595 284.731 44.5722M284.97 44.8338C290.069 50.3942 295.653 55.4059 301.796 59.7826M15.1291 122.961C13.7397 122.195 12.401 120.336 11.5609 119.397C10.3431 118.037 9.63575 115.303 8.93855 113.603C8.07003 111.485 7.53264 109.416 6.76 107.285C4.57518 101.261 4.21836 93.8149 4.21836 87.4474C4.21836 84.5048 4.56285 81.3091 4.13768 78.3936C3.64621 75.0234 4.1609 71.6248 3.77458 68.2533C3.44057 65.3382 3.54185 62.4599 3.0484 59.5616C2.55008 56.6346 2.09489 53.4743 2.03981 50.5077C1.95023 45.6828 2.03981 13.1992 2.03981 8.37324C2.03981 5.304 4.70734 5.47601 7.12309 5.47601M15.1291 122.961C15.1231 122.954 15.1171 122.946 15.1111 122.938M15.1291 122.961C17.9228 126.48 21.1711 131.822 25.1163 134.326C25.8805 134.811 26.3473 135.614 27.2545 135.614C30.089 135.614 32.8984 135.384 35.6956 135.039M35.6956 135.039C41.2677 134.353 46.7914 133.214 52.3683 132.536C53.5331 132.394 55.7969 132.289 58.9935 132.215M35.6956 135.039C35.3451 134.476 35.0364 133.904 34.8996 133.662C33.3515 130.93 30.7632 126.785 28.1824 125.111M35.6956 135.039C36.3945 136.163 37.2597 137.252 37.2597 135.614M58.9935 132.215C67.3425 132.021 82.0551 132.039 100.172 132.164M58.9935 132.215C56.5435 130.136 54.5681 127.044 52.5095 124.749M58.9935 132.215C59.3624 132.528 59.7421 132.818 60.1344 133.079M100.172 132.164C123.222 132.323 151.783 132.656 179.761 132.951M100.172 132.164C99.9776 132.144 99.8191 132.123 99.698 132.101C96.9027 129.536 81.9806 123.402 78.289 121.852M100.172 132.164C105.792 132.755 141.594 132.887 179.761 132.951M179.761 132.951C218.243 133.356 255.623 133.688 276.041 133.393M179.761 132.951C220.289 133.019 263.484 133.011 276.041 133.393M276.041 133.393C283.78 133.281 289.082 133.079 291.085 132.757C294.382 132.226 298.183 133.284 301.393 132.394C303.112 131.918 305.554 131.088 302.886 129.034C298.158 125.397 294.718 120.445 290.541 116.279M276.041 133.393C278.472 133.467 279.755 133.555 279.648 133.662M283.072 4.00728C283.252 5.53998 297.187 8.30391 298.367 8.75672M298.367 8.75672C301.525 9.96796 295.084 7.9304 298.367 8.75672ZM298.367 8.75672C300.066 9.18424 304.338 39.0751 304.338 41.353M304.338 41.353C304.338 53.7693 305.276 66.1971 305.411 78.6258M304.338 41.353C299.568 41.353 288.584 29.5921 283.688 23.7116M305.411 78.6258C305.422 79.5878 305.427 80.5499 305.427 81.5119C305.427 87.5991 307.07 93.4263 307.606 99.4385C308.011 103.984 308.042 108.533 307.969 113.1C307.905 117.142 306.475 121.357 305.811 125.332C305.639 126.361 305.724 130.501 304.338 130.04M305.411 78.6258C303.733 77.4594 301.425 76.1149 300.788 75.6369C296.064 72.0954 291.3 68.5466 286.184 65.5771M305.411 78.6258C306.547 79.4149 307.395 80.1226 307.243 80.4254M287.999 85.4956C290.707 88.2353 293.238 91.0826 296.249 93.5032C298.146 95.0281 300.372 96.255 301.877 98.1709C302.902 99.4755 304.701 100.422 304.701 102.155M289.451 105.776C294.024 109.986 298.269 114.141 302.281 118.854C302.957 119.648 303.785 120.347 304.499 121.127C305.57 122.297 305.054 122.116 303.612 122.435M115.399 122.566C117.119 125.725 120.409 128.114 123.257 130.168C123.802 130.561 124.25 131.212 124.828 131.5M158.065 123.036C160.073 125.342 162.302 127.211 164.547 129.267C165.528 130.165 166.805 131.627 167.965 132.206M186.115 122.566C187.043 123.447 196.824 132.474 196.958 132.206M224.537 124.212C227.892 126.936 230.271 130.793 233.731 133.381M265.553 121.626C266.132 122.69 266.893 123.328 267.779 124.133C269.611 125.798 271.451 127.532 273.148 129.332C274.024 130.261 274.802 131.321 275.689 132.206" stroke="#000CF6" stroke-width="3.45113" stroke-linecap="round"/>
<path d="M67.8849 98.912C52.7502 97.7474 51.2255 88.0279 51.6633 82.3383L54.378 47.0596C54.4054 46.7048 54.4782 45.7585 56.9867 30.4001C58.7785 20.4896 64.8486 15.287 74.5439 15.3132C76.0725 15.3178 77.5675 15.3733 78.981 15.4821C97.0018 16.8688 105.803 26.9638 104.441 44.6712C104.008 50.2957 101.125 54.9761 95.8524 58.6337C100.879 65.2078 103.181 71.709 102.698 77.9841C102.03 86.6722 96.5248 92.882 86.3335 96.4408C81.173 98.1735 76.0311 99.0451 71.0108 99.0336C69.9221 99.0331 68.8726 98.988 67.879 98.9115L67.8849 98.912ZM75.0245 76.3305C77.7819 76.2155 79.0062 75.8456 79.4862 75.6387C79.5963 72.9699 78.8371 71.1624 75.4701 70.5404L75.0245 76.3305ZM78.4863 39.0746C78.327 39.8298 78.1327 41.0404 77.9434 42.9594C80.0567 42.3248 80.9475 41.8044 81.2878 41.5569C81.331 40.4537 81.084 39.4114 78.4867 39.0687L78.4863 39.0746Z" fill="#000CF6"/>
<path d="M133.282 92.2301C125.28 91.6144 119.588 86.8869 116.367 78.1732C114.602 73.2065 113.105 67.5347 111.908 61.2791C108.686 43.1595 108.419 38.9744 108.545 37.3421C108.8 34.0301 110.46 29.5412 116.93 26.9513C117.108 26.8817 117.29 26.8244 117.477 26.7912C118.244 26.642 119.267 26.5779 120.682 26.5797C121.069 26.5798 121.449 26.5971 121.815 26.6253C126.47 26.9834 129.698 29.4926 131.15 33.8878C131.218 34.0894 131.262 34.2891 131.282 34.4988C132.038 41.5177 133.204 49.175 134.743 57.2476C134.741 57.2712 134.751 57.2899 134.755 57.314C135.987 64.655 137.034 67.8233 137.629 69.1481C138.666 68.4189 140.724 66.6437 144.376 62.3259C147.693 58.2738 149.524 54.4168 149.795 50.8978L151.109 33.8292C151.371 30.4167 153.282 24.6858 163.12 24.7111C163.399 24.7147 163.672 24.7238 163.938 24.7443C171.254 25.3073 174.449 32.3413 173.425 45.6484C172.683 55.2887 169.719 64.1987 164.612 72.1169C156.21 85.5167 146.24 92.311 134.997 92.2848C134.421 92.282 133.851 92.262 133.295 92.2192L133.282 92.2301Z" fill="#000CF6"/>
<path d="M201.558 96.8474C194.851 96.3313 191.307 92.1321 191.831 85.3188C192.256 79.8067 195.152 72.2479 200.681 62.2442C194.343 55.6942 187.379 47.4659 179.958 37.7508C179.91 37.6816 179.861 37.6184 179.814 37.5433C178.487 35.4601 177.918 33.0247 178.128 30.3042C178.688 23.0296 183.011 19.0371 190.303 19.0569C190.761 19.0564 191.212 19.0733 191.632 19.1056C194.376 19.3167 196.425 20.218 197.72 21.7872L212.951 39.7839L222.277 22.0408C223.638 19.51 226.492 16.517 232.451 16.5353C232.933 16.5367 233.402 16.5549 233.851 16.5895C240.493 17.1006 243.996 21.3622 243.464 28.2819C243.351 29.7427 242.898 31.3082 242.084 33.072C242.063 33.1179 242.035 33.1693 242.013 33.2153C242.013 33.2153 217.932 78.6591 217.918 78.6819C217.736 79.1141 217.107 80.8802 214.934 88.0901C214.869 88.3112 214.775 88.5241 214.659 88.7234C214.426 89.1219 214.318 89.3635 214.26 89.4959C214.245 89.5363 214.224 89.5823 214.203 89.6223C212.003 94.4028 208.132 96.919 203.011 96.9057C202.511 96.903 202.019 96.8829 201.546 96.8465L201.558 96.8474Z" fill="#000CF6"/>
<path d="M83.8206 80.0772L102.011 102.067L79.9921 83.0547L97.8341 104.626" stroke="#000CF6" stroke-width="3.45113" stroke-linecap="round" stroke-linejoin="round"/>
<path d="M85.8547 47.8457L103.425 69.0863" stroke="#000CF6" stroke-width="3.45113" stroke-linecap="round" stroke-linejoin="round"/>
<path d="M101.031 28.3694L108.564 37.4804L91.4257 23.6145L111.723 48.1467L83.1385 22.2213L111.426 56.4112L76.6741 22.3426L109.479 61.9965L70.6301 23.9597L105.803 66.4731L66.8381 26.6188L85.7418 49.4671L64.2776 29.9735L109.918 85.1374L62.6165 33.7008L109.535 90.4147L61.16 39.8712L107.545 95.9432L60.321 45.0539L105.138 99.2323L59.1966 52.2434L82.7706 80.7341L58.5267 59.9438L96.1158 105.386L57.9869 66.9581L91.1837 107.088L57.424 74.2741L85.6843 108.432L56.8028 82.3471L78.8578 109.008L56.2703 89.6535L71.7616 108.372L57.745 97.4713L64.1677 105.236" stroke="#000CF6" stroke-width="3.45113" stroke-linecap="round" stroke-linejoin="round"/>
<path d="M131.882 35.2768L137.657 42.2595L124.022 33.3572L139.605 52.196L118.352 35.366L141.354 63.1702L114.567 39.4L143.47 74.3333L113.147 45.5612L156.637 98.1264L113.875 52.0247L153.397 99.8046L115.24 60.6609L149.025 101.497L116.729 68.9856L144.14 102.12L119.935 81.5235L136.438 101.474" stroke="#000CF6" stroke-width="3.45113" stroke-linecap="round" stroke-linejoin="round"/>
<path d="M173.377 33.4368L178.798 39.9936L166.2 31.6113L180.88 49.3573L160.264 33.0643L180.463 57.4818L156.728 36.7247L179.414 64.1476L155.43 44.0734L177.415 70.651L154.92 50.7033L175.468 75.5402L154.466 56.6057L173.375 79.4664L153.589 61.2798L171.442 82.8634L151.038 66.1345L168.385 87.102L148.642 69.4305L165.875 90.2643L144.933 73.494L162.029 94.1567" stroke="#000CF6" stroke-width="3.45113" stroke-linecap="round" stroke-linejoin="round"/>
<path d="M244.028 25.2019L249.852 32.2478L236.78 23.2996L250.507 39.8896L230.871 24.7785L248.104 45.6063L227.21 28.2864L245.542 50.4483L224.296 33.6843L242.661 55.8843L221.968 38.1159L240.316 60.3027L219.891 42.0611L238.235 64.2297L218.051 45.5664L236.383 67.7282L195.132 25.8002L233.821 72.5642L190.516 26.4088L231.818 76.3366L185.832 29.2967L229.061 81.5443L183.203 34.6331L226.305 86.7401L184.002 43.2616L224.198 91.855L202.724 73.8895L222.405 97.6842L200.093 79.5413L219.449 102.936L198.038 84.9933L215.308 105.878L196.856 89.6082L211.116 106.846L196.573 95.2204L205.679 106.225" stroke="#000CF6" stroke-width="3.45113" stroke-linecap="round" stroke-linejoin="round"/>
<path d="M75.7444 109.422C60.6097 108.258 59.085 98.5382 59.5228 92.8487L62.2375 57.57C62.2648 57.2151 62.3377 56.2688 64.8462 40.9104C66.638 30.9999 72.7081 25.7973 82.4034 25.8235C83.932 25.8281 85.427 25.8836 86.8405 25.9924C104.861 27.3791 113.663 37.4742 112.3 55.1815C111.867 60.806 108.985 65.4864 103.712 69.144C108.739 75.7181 111.041 82.2194 110.558 88.4944C109.889 97.1825 104.384 103.392 94.1929 106.951C89.0325 108.684 83.8906 109.555 78.8703 109.544C77.7816 109.543 76.7321 109.498 75.7385 109.422L75.7444 109.422ZM82.884 86.8409C85.6414 86.7258 86.8657 86.356 87.3457 86.149C87.4558 83.4803 86.6966 81.6728 83.3296 81.0508L82.884 86.8409ZM86.3458 49.585C86.1865 50.3402 85.9922 51.5508 85.8029 53.4698C87.9162 52.8352 88.807 52.3147 89.1473 52.0672C89.1905 50.964 88.9435 49.9217 86.3462 49.5791L86.3458 49.585Z" stroke="#000CF6" stroke-width="3.45113" stroke-miterlimit="10"/>
<path d="M141.141 102.741C133.139 102.125 127.447 97.3973 124.227 88.6836C122.461 83.7169 120.964 78.045 119.768 71.7895C116.545 53.6698 116.278 49.4848 116.404 47.8524C116.659 44.5404 118.319 40.0515 124.789 37.4617C124.967 37.3921 125.15 37.3348 125.337 37.3016C126.104 37.1524 127.126 37.0883 128.542 37.0901C128.928 37.0901 129.308 37.1074 129.675 37.1357C134.329 37.4938 137.557 40.0029 139.009 44.3982C139.077 44.5997 139.121 44.7995 139.141 45.0092C139.898 52.0281 141.064 59.6853 142.602 67.7579C142.6 67.7816 142.611 67.8003 142.615 67.8244C143.846 75.1654 144.894 78.3337 145.488 79.6585C146.526 78.9292 148.584 77.1541 152.236 72.8363C155.552 68.7842 157.384 64.9272 157.654 61.4082L158.968 44.3396C159.23 40.9271 161.141 35.1962 170.979 35.2215C171.258 35.2251 171.531 35.2342 171.798 35.2547C179.114 35.8177 182.308 42.8517 181.284 56.1588C180.543 65.7991 177.578 74.7091 172.471 82.6273C164.069 96.027 154.099 102.821 142.857 102.795C142.28 102.792 141.71 102.772 141.154 102.73L141.141 102.741Z" stroke="#000CF6" stroke-width="3.45113" stroke-miterlimit="10"/>
<path d="M209.417 107.358C202.711 106.842 199.167 102.642 199.691 95.8292C200.115 90.3171 203.011 82.7582 208.54 72.7546C202.203 66.2046 195.239 57.9762 187.818 48.2611C187.77 48.1919 187.721 48.1287 187.673 48.0536C186.346 45.9704 185.778 43.5351 185.987 40.8145C186.547 33.5399 190.87 29.5474 198.162 29.5672C198.62 29.5668 199.071 29.5836 199.491 29.6159C202.235 29.8271 204.284 30.7284 205.579 32.2975L220.811 50.2942L230.136 32.5512C231.497 30.0203 234.351 27.0273 240.311 27.0457C240.793 27.0471 241.261 27.0653 241.711 27.0999C248.352 27.6109 251.856 31.8725 251.323 38.7922C251.211 40.253 250.757 41.8185 249.943 43.5823C249.922 43.6283 249.894 43.6797 249.873 43.7256C249.873 43.7256 225.791 89.1695 225.778 89.1922C225.596 89.6244 224.966 91.3905 222.793 98.6004C222.728 98.8215 222.635 99.0345 222.518 99.2337C222.285 99.6322 222.177 99.8738 222.12 100.006C222.105 100.047 222.083 100.093 222.062 100.133C219.862 104.913 215.992 107.429 210.87 107.416C210.371 107.413 209.879 107.393 209.406 107.357L209.417 107.358Z" stroke="#000CF6" stroke-width="3.45113" stroke-miterlimit="10"/>
<path d="M70.4156 100.428C55.281 99.2629 53.7563 89.5434 54.1941 83.8538L56.9088 48.5751C56.9361 48.2203 57.0089 47.274 59.5175 31.9156C61.3093 22.0051 67.3793 16.8025 77.0747 16.8287C78.6033 16.8333 80.0983 16.8888 81.5118 16.9976C99.5326 18.3843 108.334 28.4793 106.972 46.1867C106.539 51.8112 103.656 56.4916 98.3832 60.1492C103.41 66.7233 105.712 73.2245 105.229 79.4996C104.561 88.1877 99.0556 94.3975 88.8642 97.9563C83.7037 99.689 78.5619 100.561 73.5416 100.549C72.4529 100.549 71.4033 100.504 70.4097 100.427L70.4156 100.428ZM77.5494 77.8456C80.3068 77.7305 81.5311 77.3607 82.011 77.1537C82.1212 74.485 81.3619 72.6775 77.9949 72.0555L77.5494 77.8456ZM81.0171 40.5901C80.8578 41.3453 80.6635 42.5559 80.4742 44.4749C82.5874 43.8403 83.4782 43.3199 83.8185 43.0724C83.8618 41.9692 83.6148 40.9269 81.0175 40.5842L81.0171 40.5901Z" fill="#000CF6"/>
<path d="M135.807 93.7452C127.805 93.1294 122.112 88.4019 118.892 79.6883C117.126 74.7216 115.629 69.0497 114.433 62.7942C111.211 44.6745 110.944 40.4895 111.069 38.8571C111.324 35.5451 112.984 31.0562 119.454 28.4664C119.632 28.3968 119.815 28.3395 120.002 28.3063C120.769 28.1571 121.791 28.0929 123.207 28.0948C123.594 28.0948 123.973 28.1121 124.34 28.1403C128.994 28.4985 132.222 31.0076 133.675 35.4029C133.742 35.6044 133.787 35.8041 133.806 36.0139C134.563 43.0328 135.729 50.69 137.267 58.7626C137.265 58.7863 137.276 58.8049 137.28 58.829C138.512 66.1701 139.559 69.3383 140.153 70.6632C141.191 69.9339 143.249 68.1588 146.901 63.841C150.217 59.7889 152.049 55.9319 152.32 52.4129L153.633 35.3443C153.896 31.9317 155.806 26.2008 165.644 26.2261C165.924 26.2298 166.197 26.2389 166.463 26.2594C173.779 26.8223 176.974 33.8563 175.95 47.1635C175.208 56.8037 172.244 65.7138 167.137 73.632C158.734 87.0317 148.764 93.826 137.522 93.7998C136.945 93.7971 136.375 93.777 135.82 93.7342L135.807 93.7452Z" fill="#000CF6"/>
<path d="M204.083 98.3625C197.376 97.8464 193.832 93.6471 194.356 86.8339C194.781 81.3218 197.676 73.7629 203.206 63.7593C196.868 57.2092 189.904 48.9809 182.483 39.2658C182.435 39.1966 182.386 39.1334 182.338 39.0583C181.011 36.9751 180.443 34.5398 180.653 31.8192C181.212 24.5446 185.535 20.5521 192.828 20.5719C193.286 20.5715 193.737 20.5883 194.157 20.6206C196.901 20.8318 198.949 21.7331 200.245 23.3022L215.476 41.2989L224.802 23.5559C226.163 21.025 229.016 18.032 234.976 18.0504C235.458 18.0518 235.927 18.07 236.376 18.1046C243.018 18.6156 246.521 22.8772 245.989 29.7969C245.876 31.2577 245.423 32.8232 244.609 34.587C244.587 34.633 244.56 34.6844 244.538 34.7303C244.538 34.7303 220.457 80.1742 220.443 80.1969C220.261 80.6291 219.631 82.3952 217.458 89.6051C217.394 89.8262 217.3 90.0391 217.184 90.2384C216.951 90.6369 216.843 90.8785 216.785 91.0109C216.77 91.0514 216.749 91.0973 216.728 91.1374C214.527 95.9179 210.657 98.4341 205.536 98.4207C205.036 98.418 204.544 98.398 204.071 98.3616L204.083 98.3625Z" fill="#000CF6"/>
<path d="M67.4049 97.7269C52.2703 96.5622 50.7455 86.8427 51.1834 81.1532L53.8981 45.8745C53.9254 45.5196 53.9982 44.5733 56.5067 29.2149C58.2986 19.3044 64.3686 14.1018 74.0639 14.128C75.5926 14.1326 77.0875 14.1882 78.501 14.2969C96.5218 15.6836 105.323 25.7787 103.961 43.486C103.528 49.1105 100.645 53.7909 95.3724 57.4485C100.399 64.0226 102.701 70.5239 102.218 76.7989C101.55 85.487 96.0448 91.6969 85.8535 95.2556C80.693 96.9884 75.5512 97.8599 70.5308 97.8484C69.4421 97.8479 68.3926 97.8029 67.399 97.7264L67.4049 97.7269ZM74.5445 75.1454C77.302 75.0303 78.5262 74.6605 79.0062 74.4535C79.1164 71.7848 78.3571 69.9773 74.9901 69.3553L74.5445 75.1454ZM78.0063 37.8895C77.8471 38.6447 77.6528 39.8553 77.4635 41.7743C79.5767 41.1397 80.4675 40.6192 80.8078 40.3717C80.8511 39.2685 80.604 38.2262 78.0068 37.8836L78.0063 37.8895Z" fill="#000CF6"/>
<path d="M132.802 91.045C124.8 90.4292 119.107 85.7017 115.887 76.9881C114.121 72.0214 112.624 66.3495 111.428 60.094C108.206 41.9743 107.939 37.7893 108.064 36.1569C108.319 32.8449 109.979 28.356 116.449 25.7662C116.627 25.6966 116.81 25.6393 116.997 25.6061C117.764 25.4569 118.786 25.3927 120.202 25.3946C120.589 25.3946 120.968 25.4119 121.335 25.4401C125.989 25.7983 129.217 28.3074 130.67 32.7027C130.738 32.9042 130.782 33.1039 130.801 33.3137C131.558 40.3326 132.724 47.9898 134.262 56.0624C134.26 56.0861 134.271 56.1047 134.275 56.1288C135.507 63.4699 136.554 66.6382 137.148 67.963C138.186 67.2337 140.244 65.4586 143.896 61.1408C147.212 57.0887 149.044 53.2317 149.315 49.7127L150.628 32.6441C150.891 29.2315 152.801 23.5006 162.64 23.5259C162.919 23.5296 163.192 23.5387 163.458 23.5592C170.774 24.1221 173.969 31.1561 172.945 44.4633C172.203 54.1035 169.239 63.0136 164.132 70.9318C155.73 84.3315 145.759 91.1259 134.517 91.0996C133.94 91.0969 133.371 91.0768 132.815 91.0341L132.802 91.045Z" fill="#000CF6"/>
<path d="M201.078 95.6623C194.371 95.1462 190.827 90.9469 191.351 84.1337C191.776 78.6216 194.672 71.0627 200.201 61.0591C193.863 54.5091 186.899 46.2807 179.478 36.5656C179.43 36.4965 179.381 36.4332 179.334 36.3581C178.007 34.2749 177.438 31.8396 177.648 29.119C178.208 21.8444 182.531 17.8519 189.823 17.8717C190.281 17.8713 190.732 17.8881 191.152 17.9204C193.896 18.1316 195.945 19.0329 197.24 20.602L212.471 38.5987L221.797 20.8557C223.158 18.3248 226.012 15.3318 231.971 15.3502C232.453 15.3516 232.922 15.3698 233.371 15.4044C240.013 15.9154 243.516 20.177 242.984 27.0967C242.872 28.5576 242.418 30.123 241.604 31.8868C241.583 31.9328 241.555 31.9842 241.533 32.0301C241.533 32.0301 217.452 77.474 217.438 77.4967C217.256 77.9289 216.627 79.695 214.454 86.9049C214.389 87.126 214.295 87.339 214.179 87.5382C213.946 87.9367 213.838 88.1783 213.78 88.3107C213.765 88.3512 213.744 88.3971 213.723 88.4372C211.523 93.2177 207.652 95.7339 202.531 95.7206C202.031 95.7178 201.539 95.6978 201.066 95.6614L201.078 95.6623Z" fill="#000CF6"/>
<path d="M76.7788 38.7279L76.7799 38.7227L76.8928 38.184C77.0161 37.5954 77.5721 37.2011 78.1684 37.2793L78.715 37.3511C78.7152 37.3511 78.7153 37.3511 78.7155 37.3511L78.7162 37.3512L78.5664 38.4918C81.5823 38.8845 81.933 40.2798 81.8797 41.5905L76.7788 38.7279ZM76.7788 38.7279C76.5679 39.7584 76.3715 41.1305 76.2073 42.795L76.2071 42.7966L76.1216 43.6765C76.0844 44.0585 76.2402 44.4338 76.5369 44.6772C76.8337 44.9206 77.2322 45 77.5996 44.8889L78.4449 44.6332L76.7788 38.7279ZM74.5423 17.0586L74.5426 17.0586C76.0343 17.0622 77.4828 17.1155 78.8469 17.2204C87.4744 17.8843 93.7073 20.6157 97.6366 25.1186C101.563 29.6178 103.353 36.0743 102.702 44.5374C102.315 49.564 99.7361 53.819 94.8597 57.1981L94.8588 57.1987L94.3497 57.5522C94.0913 57.7316 93.9176 58.0091 93.8692 58.3199C93.8207 58.6308 93.9017 58.9479 94.0932 59.1975L94.4705 59.6891C94.4708 59.6895 94.4712 59.69 94.4715 59.6904C99.2908 65.9934 101.409 72.0929 100.965 77.8507C100.659 81.8271 99.2474 85.2033 96.7558 88.0032C94.2533 90.8153 90.6119 93.1008 85.7714 94.7906C80.8013 96.4616 75.8347 97.3006 71.0238 97.289C69.9773 97.284 68.9678 97.2466 68.0242 97.174L68.0183 97.1735C60.9629 96.6306 57.3034 94.1356 55.4037 91.3359C53.4682 88.4835 53.2003 85.0855 53.4014 82.4721L56.1161 47.1934L56.1164 47.1894C56.136 46.9334 56.2102 45.9673 58.7074 30.694C59.539 26.1043 61.3405 22.7191 63.9449 20.4799C66.5466 18.243 70.0694 17.0467 74.5423 17.0586ZM73.7872 69.7565L73.2496 76.7432C73.2114 76.955 73.2329 77.1763 73.3163 77.3812L73.3213 77.3935C73.5225 77.8877 74.0371 78.1786 74.5643 78.0962C74.5761 78.0944 74.5879 78.0924 74.5996 78.0901L75.0946 78.071L75.0979 78.0708C77.8724 77.9554 79.361 77.5886 80.1781 77.2373L80.1806 77.2362L80.5191 77.0897C80.923 76.9149 81.1918 76.5249 81.2114 76.0852L81.2278 75.7176L81.2281 75.712C81.2778 74.4588 81.2008 72.9387 80.4015 71.6092C79.5675 70.222 78.0848 69.2561 75.789 68.8347C75.7883 68.8345 75.7876 68.8344 75.7868 68.8343L75.1463 68.7141C74.8251 68.6538 74.4934 68.7331 74.2341 68.9319C73.9748 69.1308 73.8123 69.4306 73.7872 69.7565ZM83.0292 41.6373C83.0292 41.6363 83.0292 41.6353 83.0293 41.6343L78.4463 44.6328C80.5773 43.9909 81.7007 43.4155 82.3086 42.9756C82.3098 42.9748 82.3109 42.974 82.312 42.9732L82.5387 42.8112C82.8292 42.6035 83.0068 42.2727 83.0194 41.9158L83.0292 41.6373Z" fill="white" stroke="#000CF6" stroke-width="2.30075" stroke-linejoin="round"/>
<path d="M154.826 29.1744C156.207 27.7181 158.66 26.4513 163.108 26.462C163.352 26.4642 163.585 26.4718 163.804 26.4886C165.347 26.6074 166.621 27.0699 167.667 27.8423C168.717 28.6174 169.597 29.7493 170.28 31.2957C171.659 34.4226 172.178 39.1297 171.686 45.5206C170.966 54.881 168.092 63.5075 163.145 71.1815L163.137 71.1938C154.958 84.2407 145.475 90.5771 135.004 90.5457L135.003 90.5457C134.468 90.5444 133.939 90.5261 133.428 90.4867C133.39 90.4838 133.352 90.4828 133.314 90.4836C129.698 90.1873 126.646 88.9714 124.129 86.8731C121.58 84.7486 119.519 81.668 118.005 77.5738C116.279 72.7248 114.802 67.1343 113.619 60.9545C112.019 51.9441 111.154 46.4208 110.705 42.9586C110.253 39.4764 110.231 38.144 110.283 37.4758C110.392 36.0562 110.802 34.4086 111.864 32.8416C112.921 31.2837 114.669 29.7356 117.569 28.5745C117.644 28.5456 117.723 28.5226 117.807 28.5057C118.428 28.3872 119.319 28.3256 120.684 28.3252L120.688 28.3252C121.021 28.324 121.357 28.3388 121.681 28.3637C123.693 28.5185 125.33 29.1307 126.608 30.125C127.886 31.1189 128.871 32.5456 129.495 34.4372L129.497 34.4422C129.523 34.5191 129.54 34.5982 129.548 34.6813L129.548 34.6813L129.549 34.6905C130.314 41.753 131.483 49.4486 133.03 57.5667C134.254 64.8421 135.316 68.2407 136.034 69.8588L136.035 69.8609L136.33 70.5202C136.469 70.8334 136.742 71.0679 137.072 71.1597C137.403 71.2514 137.757 71.1908 138.039 70.9944L138.63 70.5818L138.63 70.5814C139.869 69.7154 142.048 67.7915 145.707 63.4535L145.718 63.4404C149.209 59.1758 151.228 54.9964 151.533 51.0375L152.846 33.9689C152.958 32.5095 153.421 30.6559 154.826 29.1744Z" fill="white" stroke="#000CF6" stroke-width="2.30075" stroke-linejoin="round"/>
<path d="M202.418 62.7077C202.665 62.2655 202.594 61.7134 202.243 61.3483L201.94 61.0334L201.938 61.0311C195.656 54.5412 188.733 46.3562 181.352 36.6909C181.344 36.6797 181.335 36.6687 181.326 36.6578C181.316 36.6405 181.306 36.6235 181.295 36.6067C180.186 34.8698 179.695 32.8101 179.878 30.4388C180.128 27.1875 181.205 24.8096 182.9 23.2423C184.596 21.6751 187.05 20.7893 190.308 20.7968L190.308 20.7968L190.314 20.7968C190.722 20.7956 191.117 20.8147 191.51 20.8449C193.9 21.0288 195.467 21.782 196.387 22.8962L196.387 22.8962L196.396 22.9066L212.2 41.578C212.448 41.87 212.824 42.02 213.204 41.9783C213.584 41.9366 213.919 41.7087 214.097 41.3701L223.829 22.8578C223.829 22.8565 223.83 22.8552 223.831 22.8539C224.935 20.7967 227.287 18.2631 232.457 18.2753L232.459 18.2753C232.895 18.2753 233.323 18.2916 233.724 18.3225C236.684 18.5503 238.748 19.5601 240.032 21.1255C241.322 22.6993 241.972 25.0136 241.732 28.1426C241.638 29.3548 241.26 30.7155 240.52 32.3161C240.499 32.3597 240.483 32.3963 240.477 32.4086C240.476 32.4115 240.475 32.4139 240.474 32.4159C240.221 32.8952 234.297 44.073 228.386 55.2259L220.163 70.738L217.444 75.869L216.673 77.3219L216.466 77.7132L216.41 77.8176L216.395 77.8459L216.393 77.8509C216.391 77.8545 216.39 77.8554 216.391 77.8547C216.374 77.8864 216.358 77.9189 216.344 77.952C216.09 78.5568 215.409 80.4943 213.277 87.5701C213.244 87.6743 213.206 87.7592 213.166 87.8248L213.158 87.8381C212.953 88.1913 212.778 88.5252 212.659 88.8148L212.627 88.8881C210.708 93.0402 207.426 95.1602 203.03 95.1498C202.57 95.148 202.118 95.1299 201.698 95.0976C201.644 95.0935 201.591 95.0932 201.538 95.0965C198.619 94.8436 196.574 93.8492 195.296 92.332C193.992 90.7851 193.334 88.5174 193.57 85.4526C193.967 80.2863 196.73 73 202.205 63.0874C202.206 63.0864 202.207 63.0854 202.207 63.0844L202.418 62.7077Z" fill="white" stroke="#000CF6" stroke-width="2.30075" stroke-linejoin="round"/>
</svg>
