<svg width="79" height="74" viewBox="0 0 79 74" fill="none" xmlns="http://www.w3.org/2000/svg">
<path d="M23.3887 16.178C27.1283 12.3973 31.6006 11.4521 33.4926 11.4521C35.3847 11.4521 40.1037 12.3973 43.8433 16.178C44.6223 15.8405 46.3808 14.8953 47.1822 13.8151C46.2918 16.2906 42.7748 21.9842 35.8299 24.9548C35.6643 24.5999 34.965 23.8903 33.4926 23.8903C32.0203 23.8903 31.5677 24.5999 31.4021 24.9548C24.4571 21.9842 20.9402 16.2906 20.0498 13.8151C20.8511 14.8953 22.6096 15.8405 23.3887 16.178Z" fill="#000CF6"/>
<path d="M25.5593 23.9954C26.6125 24.7983 28.983 26.4982 30.0394 26.8752C28.0281 27.5123 24.3162 27.8282 25.5593 23.9954Z" fill="#000CF6"/>
<path d="M21.3646 19.4663C21.8566 20.2081 23.0063 21.8173 23.6692 22.3199C22.6074 24.8245 22.022 29.8335 28.1746 29.8335L28.0192 32.0065L23.4618 34.6244C25.6056 35.2818 30.2714 38.2821 31.7839 45.0244L33.5988 51.3671L35.4465 45.0244C36.9591 38.2821 41.6249 35.2818 43.7687 34.6244L39.2112 32.0065L39.0558 29.8335C45.2084 29.8335 44.623 24.8245 43.5613 22.3199C44.2242 21.8173 45.3739 20.2081 45.8659 19.4663C47.7784 21.3999 47.9862 25.2112 47.851 26.8752C47.851 39.4365 50.1732 45.3046 51.3343 46.6685L46.4152 42.8688L43.0847 48.4294L39.2112 45.0244L33.5988 54.4842L28.0192 45.0244L24.1458 48.4294L20.8152 42.8688L15.8961 46.6685C17.0572 45.3046 19.3794 39.4365 19.3794 26.8752C19.2443 25.2112 19.4521 21.3999 21.3646 19.4663Z" fill="#000CF6"/>
<path d="M41.6712 23.9954C40.6179 24.7983 38.2474 26.4982 37.191 26.8752C39.2024 27.5123 42.9143 27.8282 41.6712 23.9954Z" fill="#000CF6"/>
<path d="M30.6183 30.4851C30.6183 28.0019 32.7063 26.7796 33.7534 26.4788C34.8005 26.7796 36.8947 28.0019 36.8947 30.4851V33.192L39.2509 34.6718C37.4184 35.8267 33.7597 39.2699 33.7597 43.8031C33.7597 39.2699 30.0947 35.8267 28.2622 34.6718L30.6183 33.192V30.4851Z" fill="#000CF6"/>
<path d="M4.51571 4.2862C4.80334 3.10482 11.496 3.24036 12.4061 3.15887C15.6495 2.86846 18.9781 2.5191 22.2304 2.49906C24.23 2.48674 26.5081 2.40445 28.4872 2.10094C32.0814 1.54974 35.7402 1.69669 39.3651 1.67436C44.9941 1.63968 51.1566 0.893483 56.681 2.1803C57.7972 2.44029 58.892 2.68193 60.0405 2.73226C60.2696 2.7423 60.8984 2.63642 61.0669 2.88575C61.5774 3.64146 61.4973 5.11648 61.5786 5.97228C61.9278 9.64346 62.3976 13.2906 62.592 16.9797C62.75 19.978 62.7842 22.9807 62.9138 25.9804C63.0655 29.4914 62.9478 33.1294 63.3256 36.6186C63.6155 39.2966 63.2474 42.0206 63.615 44.6873C63.9878 47.3914 64.5801 50.0813 64.7571 52.804C64.8573 54.346 65.4813 55.7996 65.4909 57.3541C65.5009 58.9761 63.5907 59.6637 62.246 60.264C58.8376 61.7855 54.683 62.0466 51.0056 62.3708C46.7545 62.7456 42.3598 63.0233 38.0918 63.0496C31.9764 63.0873 25.8687 63.6044 19.7438 63.6421C17.1399 63.6581 14.4067 64.05 11.8349 63.9305C10.6849 63.8771 9.45774 62.1421 8.75607 61.3659C7.94658 60.4704 7.46843 58.6635 7.00122 57.5412C6.4192 56.1432 6.05599 54.7756 5.53722 53.3685C4.07026 49.3896 3.80434 44.4628 3.77838 40.2482C3.76638 38.3005 3.98077 36.1839 3.68819 34.2559C3.34999 32.0272 3.67593 29.7756 3.40714 27.5455C3.17474 25.6174 3.22987 23.7119 2.89228 21.7955C2.55136 19.8602 2.23797 17.7703 2.18951 15.8069C2.1107 12.6137 2.15013 9.41294 2.13045 6.21863C2.11793 4.18712 3.8797 4.29012 5.47454 4.2803M11.1143 63.6953C12.9757 66.0127 15.1457 69.5471 17.766 71.192C18.2725 71.51 18.584 72.0393 19.1829 72.0356C24.7817 72.0011 30.2241 70.6045 35.7501 69.896C45.9219 68.5919 56.3023 69.961 66.3972 68.2689C68.5714 67.9045 71.0849 68.5891 73.2007 67.9873C74.3334 67.6651 75.9427 67.1055 74.1725 65.7572C71.0364 63.3687 68.7452 60.1052 65.9704 57.3644M61.5558 2.25682C61.6814 3.27056 63.6762 3.84844 64.4573 4.14336C66.5467 4.93222 68.6518 5.68806 70.8226 6.22164C71.9458 6.4977 74.7645 6.20773 74.7738 7.71551C74.8284 16.5699 75.6021 25.4286 75.6567 34.292C75.6815 38.3211 76.7898 42.1714 77.168 46.1486C77.454 49.1558 77.4928 52.1663 77.4634 55.1895C77.4375 57.865 76.5107 60.661 76.0884 63.295C75.9791 63.9768 76.0523 66.7165 75.1354 66.4172M61.8427 9.92596C65.2745 13.6545 69.0336 17.0073 73.171 19.9243M62.8872 23.8231C66.2774 25.7677 69.4368 28.0973 72.5698 30.4222C73.2787 30.9483 77.0961 33.0672 76.8508 33.5655M64.1669 36.9996C65.9656 38.802 67.6486 40.6764 69.6463 42.2663C70.9048 43.2679 72.379 44.0709 73.3808 45.3329C74.0629 46.1923 75.2543 46.8114 75.2614 47.9582M65.2085 50.4173C68.2442 53.1851 71.0637 55.9181 73.7315 59.0213C74.1812 59.5444 74.7306 60.0032 75.2056 60.5171C75.9171 61.2868 75.5756 61.1689 74.625 61.3863M52.819 62.7192C55.2625 63.7304 56.5864 65.8857 58.4423 67.5721C59.2803 68.3336 59.6359 68.1191 58.8501 68.9147M35.8116 64.7417C37.386 66.4798 38.8921 68.9167 40.8794 70.224M19.7527 65.0804C21.4633 66.1773 23.1889 68.9108 24.2221 70.7128C24.4954 71.1894 25.7982 73.6232 25.7882 71.995" stroke="#000CF6" stroke-width="2.5313" stroke-linecap="round"/>
</svg>
