<svg width="79" height="74" viewBox="0 0 79 74" fill="none" xmlns="http://www.w3.org/2000/svg">
<path fill-rule="evenodd" clip-rule="evenodd" d="M48.6966 17.5952C49.205 17.3856 49.7614 17.3133 50.3079 17.3859C50.8544 17.4584 51.3711 17.6731 51.8042 18.0076C52.2373 18.3421 52.5709 18.7841 52.7704 19.2878C52.9698 19.7914 53.0278 20.3382 52.9383 20.8713L48.2729 48.5892C47.8203 51.2628 44.8252 52.7961 42.3218 51.4643C40.2277 50.3501 37.1174 48.6335 34.3198 46.8423C32.921 45.9457 28.6361 43.0746 29.1627 41.0316C29.6153 39.2847 36.815 32.7204 40.9291 28.8177C42.5439 27.2844 41.8075 26.3999 39.9006 27.8103C35.1652 31.3121 27.5623 36.6372 25.0486 38.1363C22.831 39.458 21.675 39.6837 20.2926 39.458C17.7706 39.047 15.4318 38.4103 13.5228 37.6346C10.9432 36.5869 11.0687 33.1133 13.5207 32.1019L48.6966 17.5952Z" fill="#000CF6"/>
<path d="M4.42341 4.06928C4.7183 2.88968 11.4101 3.06645 12.3206 2.99057C15.5657 2.72015 18.8964 2.39129 22.1488 2.39129C24.1485 2.39129 26.427 2.32303 28.4079 2.03172C32.0055 1.50268 35.6632 1.67216 39.2882 1.67216C44.9173 1.67216 51.0844 0.963933 56.6007 2.28475C57.7153 2.55162 58.8085 2.79999 59.9567 2.8574C60.1857 2.86885 60.8152 2.76684 60.9821 3.01721C61.488 3.77605 61.3988 5.25055 61.4749 6.10683C61.8014 9.78009 62.2488 13.43 62.4204 17.1203C62.5599 20.1195 62.5756 23.1224 62.6867 26.1228C62.8168 29.6346 62.6767 33.2719 63.033 36.7633C63.3064 39.443 62.9215 42.1647 63.2727 44.8336C63.6288 47.54 64.2045 50.2335 64.3647 52.9572C64.4555 54.4999 65.0706 55.9573 65.0706 57.5117C65.0706 59.1338 63.1561 59.8096 61.8078 60.4016C58.3901 61.9021 54.2339 62.1376 50.5547 62.4392C46.3013 62.7878 41.905 63.0384 37.6368 63.0384C31.5213 63.0384 25.4106 63.5179 19.2856 63.5179C16.6816 63.5179 13.9461 63.8929 11.3751 63.7576C10.2254 63.6971 9.00895 61.9545 8.31207 61.174C7.50812 60.2736 7.0411 58.4638 6.58081 57.3386C6.00742 55.937 5.65264 54.5672 5.14254 53.157C3.70013 49.1691 3.46456 44.2408 3.46456 40.0261C3.46456 38.0783 3.69199 35.9631 3.41129 34.0333C3.08682 31.8026 3.42662 29.553 3.17158 27.3213C2.95106 25.3919 3.01793 23.4867 2.69215 21.5683C2.36316 19.6309 2.06265 17.5391 2.02629 15.5755C1.96714 12.3818 2.02629 9.18134 2.02629 5.98697C2.02629 3.95543 3.78738 4.06928 5.38225 4.06928M10.6559 63.5179C12.503 65.8468 14.6512 69.3944 17.2613 71.0555C17.7659 71.3765 18.074 71.9078 18.673 71.9078C24.2719 71.9078 29.7228 70.5446 35.253 69.8702C45.4326 68.6288 55.8044 70.0618 65.9095 68.4319C68.086 68.0809 70.5952 68.781 72.7147 68.1922C73.8493 67.8771 75.4621 67.3274 73.7002 65.9682C70.5789 63.5604 68.3078 60.2829 65.55 57.525M61.4749 2.3913C61.5943 3.4058 63.5855 3.99595 64.3648 4.29568C66.4492 5.0974 68.5496 5.86618 70.7171 6.41313C71.8385 6.69611 74.6591 6.4235 74.6591 7.93131C74.6591 16.7859 75.3782 25.6492 75.3782 34.5127C75.3782 38.5419 76.4627 42.3989 76.8165 46.3785C77.0839 49.3874 77.1042 52.398 77.0562 55.4209C77.0137 58.0963 76.0698 60.8865 75.6312 63.5179C75.5177 64.199 75.574 66.9391 74.6591 66.6341M61.7146 10.0621C65.1233 13.8117 68.8617 17.1876 72.981 20.13M62.6734 23.9654C66.0516 25.9309 69.1966 28.2799 72.3152 30.624C73.0209 31.1545 76.8251 33.2968 76.5767 33.7936M63.872 37.1495C65.6595 38.963 67.3309 40.8476 69.3188 42.4498C70.5711 43.4592 72.0403 44.2713 73.0343 45.5394C73.7111 46.403 74.8987 47.0294 74.8987 48.1763M64.8309 50.5734C67.8495 53.3598 70.652 56.1102 73.3007 59.2297C73.7472 59.7555 74.2938 60.2178 74.7656 60.7345C75.4723 61.5086 75.1316 61.3886 74.1796 61.6001M52.3658 62.7987C54.803 63.8249 56.1136 65.9883 57.9591 67.6862C58.7924 68.4528 59.1494 68.2405 58.3586 69.0312M35.3462 64.7164C36.91 66.4641 38.401 68.9103 40.3802 70.2298M19.2856 64.9561C20.9894 66.0636 22.6982 68.8077 23.7203 70.616C23.9906 71.0943 25.2784 73.5361 25.2784 71.9078" stroke="#000CF6" stroke-width="2.5313" stroke-linecap="round"/>
</svg>
