<svg width="838" height="319" viewBox="0 0 838 319" fill="none" xmlns="http://www.w3.org/2000/svg">
<path d="M92.7893 258.792C84.403 258.371 70.8868 254.344 68.582 233.252C64.3965 233.168 60.8155 233.045 57.8663 232.897C51.5766 232.581 49.1446 232.179 47.8699 231.891C22.1433 226.578 17.3871 212.734 17.9228 202.055C18.7727 185.115 28.4299 175.566 45.1393 175.157L50.5688 175.023C50.7365 175.032 50.919 175.027 51.0867 175.035C51.2824 175.045 51.478 175.055 51.6723 175.093C56.5853 175.76 61.2774 176.359 65.6096 176.871C67.5594 177.109 69.245 177.306 70.6937 177.476L71.5808 159.795C58.8799 157.673 49.1954 155.197 42.1003 152.221C42.0318 152.189 41.9766 152.172 41.9081 152.141C19.9884 142.171 8.99176 125.351 10.0899 103.463C11.1881 81.5743 23.0107 66.2914 45.2396 57.8081C52.451 55.1152 62.9995 52.6597 77.4239 50.3147C81.1166 26.1463 94.3849 20.5905 105.216 20.3212C106.002 20.3045 106.758 20.3144 107.512 20.3523C116.961 20.8264 128.369 25.8126 131.676 45.9183C131.802 45.9246 131.928 45.9309 132.04 45.9365C162.678 47.4737 168.436 61.1865 167.872 72.4242C167.308 83.6619 160.122 97.0196 130.086 99.3941L129.358 113.916C163.545 124.6 180.118 145.063 178.625 174.806C177.534 196.555 159.037 212.778 123.615 223.08C119.88 251.996 106.407 258.565 95.4639 258.828C94.5658 258.853 93.6699 258.836 92.8033 258.793L92.7893 258.792ZM69.2238 104.832C70.5034 105.022 72.0647 105.185 73.9796 105.281C74.0914 105.287 74.2032 105.292 74.315 105.298L74.369 104.221C72.3003 104.398 70.6083 104.607 69.2231 104.846L69.2238 104.832Z" fill="#000CF6"/>
<path d="M264.404 248.654C256.032 248.234 246.984 246.757 237.481 244.276C204.894 235.509 188.985 219.129 190.167 195.563C191.017 178.623 200.815 169.067 217.763 168.657C218.983 168.634 220.146 168.636 221.222 168.69C226.757 168.968 230.75 170.373 233.449 172.989C248.623 186.431 261.412 193.505 271.447 194.008C271.993 194.035 272.538 194.049 273.072 194.034C277.421 193.929 278.659 192.716 278.877 188.369C278.952 186.874 278.636 185.064 275.859 182.893C245.551 168.621 238.434 163.836 235.726 161.122C215.561 142.147 205.89 121.526 206.978 99.8468C208.066 78.1681 220.699 51.1973 274.488 49.9024C278.739 49.7934 282.8 49.843 286.574 50.0324C328.17 52.1193 335.926 72.0978 335.103 88.4931C333.414 122.15 313.044 127.658 301.064 127.94C299.983 127.97 298.919 127.958 297.898 127.907C296.543 127.839 295.246 127.704 294.009 127.502C303.046 131.725 309.437 135.604 313.387 139.264C327.266 151.983 333.824 168.174 332.863 187.323C330.893 226.585 309.762 247.818 271.757 248.728C269.358 248.79 266.893 248.75 264.405 248.626L264.404 248.654ZM276.47 120.162C278.559 120.968 280.579 121.756 282.502 122.539C278.427 119.139 275.844 114.19 274.956 107.881L274.609 106.14L261.716 106.446C262.877 110.961 266.49 116.032 276.47 120.148L276.47 120.162Z" fill="#000CF6"/>
<path d="M418.788 231.443C405.076 230.755 390.601 226.301 375.776 218.187C349.949 203.986 337.436 185.268 338.577 162.541C340.032 133.524 348.22 111.095 362.939 95.901C377.747 80.5857 399.215 72.4846 426.74 71.8197C430.627 71.7205 434.408 71.77 437.986 71.9496C481.329 74.1241 503.157 96.8264 501.112 137.584C500.228 155.209 494.349 173.243 483.653 191.189C467.442 217.433 447.537 230.966 424.417 231.529C422.565 231.576 420.674 231.552 418.801 231.458L418.788 231.443ZM435.356 127.994C433.931 127.922 432.376 127.9 430.749 127.945C398.663 128.717 394.088 145.905 393.442 158.778C393.202 163.558 392.642 174.726 417.633 175.98C419.911 176.094 422.376 176.12 424.958 176.053C427.062 176.004 432.846 174.123 440.884 157.739C446.437 145.925 447.83 139.115 448.012 135.495C448.131 133.104 448.355 128.646 435.328 127.992L435.356 127.994Z" fill="#000CF6"/>
<path d="M536.037 241.081C519.306 240.241 510.214 229.864 511.08 212.603L518.357 67.5604C518.791 58.9085 522.985 44.3077 546.19 43.7484C547.439 43.7129 548.657 43.732 549.817 43.7902C565.318 44.5679 573.765 53.5533 573.018 68.4391L567.602 176.386L567.656 178.939C589.841 174.965 608.18 172.788 622.28 172.445C623.851 172.412 625.378 172.432 626.817 172.504C644.68 173.401 654.439 183.335 653.616 199.744C653.124 209.542 648.665 222.182 630.232 226.764C629.764 226.88 629.27 226.954 628.793 226.972C604.86 227.803 583.751 230.709 566.031 235.635C547.478 240.394 542.189 241.067 539.65 241.136C538.415 241.172 537.196 241.153 536.036 241.095L536.037 241.081Z" fill="#000CF6"/>
<path d="M721.278 233.896C705.428 233.101 696.805 223.42 697.613 207.318C698.266 194.305 704.62 176.296 717.032 152.341C701.673 137.291 684.731 118.323 666.618 95.8773C666.499 95.7172 666.381 95.5711 666.263 95.3971C663.002 90.5673 661.509 84.8594 661.832 78.4299C662.694 61.2378 672.639 51.5497 689.839 51.1375C690.919 51.1076 691.984 51.119 692.976 51.1688C699.461 51.4942 704.364 53.4917 707.503 57.1102L744.559 98.5966L765.436 56.1634C768.486 50.1089 775.043 42.8711 789.086 42.5387C790.222 42.5117 791.329 42.5251 792.391 42.5784C808.087 43.3659 816.618 53.1963 815.798 69.5497C815.624 73.0161 814.653 76.7367 812.845 80.9338C812.797 81.0435 812.749 81.1672 812.687 81.2762C812.687 81.2762 758.751 189.969 758.72 190.024C758.318 191.054 756.944 195.259 752.273 212.4C752.134 212.926 751.927 213.434 751.664 213.925C751.154 214.866 750.901 215.442 750.772 215.772C750.74 215.869 750.692 215.978 750.659 216.075C745.771 227.488 736.801 233.666 724.722 233.956C723.544 233.981 722.381 233.965 721.263 233.909L721.278 233.896Z" fill="#000CF6"/>
<path d="M80.1825 250.327L107.453 281.555" stroke="#000CF6" stroke-width="3.10686" stroke-linecap="round" stroke-linejoin="round"/>
<path d="M82.7851 176.388L143.29 245.674L82.1503 190.158L139.514 255.854L71.2365 191.796L135.968 265.933L55.9964 190.85L129.686 275.23L42.683 194.231L118.718 281.308L34.1535 201.412L82.0558 256.278L29.5497 215.81L63.1147 254.249" stroke="#000CF6" stroke-width="3.10686" stroke-linecap="round" stroke-linejoin="round"/>
<path d="M85.5704 120.87L179.335 228.257" stroke="#000CF6" stroke-width="3.10686" stroke-linecap="round" stroke-linejoin="round"/>
<path d="M172.002 146.519L187.718 164.515L142.134 130.181L196.173 192.053" stroke="#000CF6" stroke-width="3.10686" stroke-linecap="round" stroke-linejoin="round"/>
<path d="M130.788 39.8904L145.351 56.5672L112.607 36.3999L178.385 111.738L99.852 42.0516L166.77 118.694L92.3722 53.1665L152.467 121.97L87.9007 66.0439L147.424 134.23L78.2826 67.8313L195.688 202.272L66.5929 70.4116L191.776 213.762L56.305 73.5387L185.927 221.988L44.2212 79.5043L176.123 230.548L34.9425 86.8157L165.81 236.687L27.3146 97.2506L153.743 242.037L22.6564 111.057L84.6047 182.014L21.6362 122.735L70.6383 178.861L27.405 145.164L46.8053 167.366" stroke="#000CF6" stroke-width="3.10686" stroke-linecap="round" stroke-linejoin="round"/>
<path d="M169.751 68.7631L183.506 84.5026L150.535 62.4323L184.697 101.545" stroke="#000CF6" stroke-width="3.10686" stroke-linecap="round" stroke-linejoin="round"/>
<path d="M290.018 202.871L334.714 254.059L284.69 209.638L328.658 259.976L269.43 205.733L320.831 264.6L238.626 185.439L311.07 268.398L226.403 184.686L301.498 270.665L217.002 186.891L291.128 271.784L207.156 194.047L274.313 270.954L202.21 206.887L254.95 267.278L202.382 222.449L234.595 259.349" stroke="#000CF6" stroke-width="3.10686" stroke-linecap="round" stroke-linejoin="round"/>
<path d="M286.257 123.386L349.915 196.277L280.355 131.805L350.533 212.17" stroke="#000CF6" stroke-width="3.10686" stroke-linecap="round" stroke-linejoin="round"/>
<path d="M322.122 153.126L342.052 175.943" stroke="#000CF6" stroke-width="3.10686" stroke-linecap="round" stroke-linejoin="round"/>
<path d="M334.433 76.7171L349.287 93.7308L312.699 67.5135L352.771 113.397L293.875 65.6582L349.517 129.376L278.464 66.1602L343.276 140.371L262.576 68.3617L332.383 148.302L251.003 71.6766L320.307 151.045L241.837 75.9109L288.586 129.458L234.655 80.8052L350.391 213.34L226.599 89.7333L347.966 228.703L221.913 98.5082L344.644 239.073L218.454 114.099L337.886 250.869L221.042 136.536L272.84 195.858" stroke="#000CF6" stroke-width="3.10686" stroke-linecap="round" stroke-linejoin="round"/>
<path d="M459.343 149.543L506.822 203.911L456.335 163.419L501.217 214.812L450.312 176.779L493.245 225.958L442.739 187.791L484.468 235.565L430.369 191.64L475.344 243.136L417.718 189.926L468.325 247.871" stroke="#000CF6" stroke-width="3.10686" stroke-linecap="round" stroke-linejoin="round"/>
<path d="M492.426 101.234L510.261 121.677L469.606 90.7853L518.463 146.736L449.655 87.6544L518.203 166.144L433.993 87.8496L515.554 181.257L417.681 89.5674L510.703 196.105L405.989 92.7362L457.456 151.69L396.371 96.4854L444.473 151.557L388.408 100.472L434.363 153.096L378.881 107.701L422.928 158.141L372.167 114.174L416.24 164.644L364.243 124.636L411.642 178.93L358.23 137.24L458.29 251.823L354.232 150.183L445.148 254.289L351.364 165.172L428.459 253.465L350.327 184.163L404.789 246.533L359.118 209.476L375.165 227.853" stroke="#000CF6" stroke-width="3.10686" stroke-linecap="round" stroke-linejoin="round"/>
<path d="M654.697 193.002L668.61 208.932L635.27 188.076L670.743 228.698L618.368 188.979L664.138 241.384L602.792 190.818L652.881 248.176L588.911 192.938L639.332 250.677" stroke="#000CF6" stroke-width="3.10686" stroke-linecap="round" stroke-linejoin="round"/>
<path d="M574.876 63.5158L588.472 79.0792L557.569 59.3686L590.657 97.2509L543.118 62.525L589.722 115.897L533.856 70.0614L588.861 133.047L529.508 85.4952L587.894 152.335L528.723 101.15L587.107 168.004L528.023 115.099L586.408 181.953L527.401 127.497L585.786 194.351L526.54 144.661L620.424 252.167L525.868 158.051L609.39 253.687L524.941 176.529L594.708 256.425L524.017 194.937L580.56 259.695L523.186 211.514L567.895 262.703L522.412 228.893L553.194 264.151" stroke="#000CF6" stroke-width="3.10686" stroke-linecap="round" stroke-linejoin="round"/>
<path d="M816.92 62.2635L831.112 78.5153L799.719 58.2337L833.125 96.4962L785.877 62.0933L827.83 110.131L777.463 70.5971L822.079 121.711L770.93 83.5111L815.625 134.713L765.704 94.1085L810.387 145.282L761.069 103.545L805.726 154.675L756.949 111.928L801.579 163.042L701.653 66.7376L795.828 174.608L690.791 68.4766L791.354 183.632L679.939 75.583L785.166 196.087L674.072 88.3342L779.007 208.515L676.487 108.633L774.36 220.711L722.582 179.691L770.498 234.572L716.734 193.186L763.855 247.158L712.215 206.173L754.274 254.342L709.732 217.132L744.45 256.89L709.417 230.386L731.587 255.768" stroke="#000CF6" stroke-width="3.10686" stroke-linecap="round" stroke-linejoin="round"/>
<path d="M111.987 283.086C103.6 282.665 90.0841 278.638 87.7793 257.546C83.5938 257.462 80.0128 257.338 77.0636 257.191C70.7739 256.875 68.3419 256.473 67.0672 256.185C41.3406 250.872 36.5844 237.028 37.1201 226.349C37.97 209.408 47.6272 199.86 64.3366 199.451L69.7661 199.317C69.9338 199.326 70.1163 199.321 70.284 199.329C70.4797 199.339 70.6753 199.349 70.8696 199.387C75.7826 200.054 80.4747 200.653 84.8069 201.165C86.7567 201.403 88.4423 201.599 89.891 201.77L90.7781 184.089C78.0772 181.966 68.3927 179.491 61.2976 176.515C61.2291 176.483 61.1739 176.466 61.1054 176.435C39.1843 166.493 28.1744 149.658 29.2725 127.77C30.3707 105.882 42.1933 90.5986 64.4223 82.1153C71.6337 79.4224 82.1821 76.9669 96.6065 74.6219C100.299 50.4535 113.568 44.8977 124.399 44.6284C125.184 44.6117 125.94 44.6216 126.695 44.6595C136.144 45.1335 147.552 50.1198 150.859 70.2255C150.985 70.2318 151.111 70.2381 151.222 70.2437C181.861 71.7808 187.618 85.4936 187.055 96.7314C186.491 107.969 179.305 121.327 149.269 123.701L148.541 138.224C182.727 148.907 199.3 169.37 197.808 199.113C196.717 220.862 178.219 237.085 142.797 247.387C139.063 276.303 125.589 282.872 114.647 283.135C113.748 283.16 112.853 283.144 111.986 283.1L111.987 283.086ZM88.4211 129.126C89.7007 129.316 91.262 129.479 93.1768 129.575C93.2887 129.58 93.4005 129.586 93.5123 129.592L93.5663 128.515C91.4976 128.692 89.8056 128.901 88.4204 129.14L88.4211 129.126Z" stroke="#000CF6" stroke-width="2.79897" stroke-miterlimit="10"/>
<path d="M283.601 272.947C275.229 272.527 266.181 271.051 256.679 268.57C224.091 259.803 208.182 243.423 209.365 219.857C210.214 202.917 220.012 193.361 236.96 192.95C238.18 192.928 239.343 192.93 240.419 192.984C245.954 193.262 249.947 194.667 252.647 197.283C267.82 210.725 280.609 217.798 290.645 218.302C291.19 218.329 291.736 218.343 292.269 218.327C296.618 218.223 297.856 217.01 298.074 212.663C298.149 211.168 297.833 209.358 295.056 207.187C264.748 192.915 257.632 188.13 254.923 185.416C234.759 166.441 225.088 145.819 226.175 124.141C227.263 102.462 239.896 75.4912 293.685 74.1963C297.936 74.0873 301.997 74.1369 305.771 74.3263C347.367 76.4132 355.123 96.3917 354.3 112.787C352.612 146.444 332.242 151.952 320.261 152.234C319.18 152.264 318.116 152.252 317.096 152.201C315.74 152.133 314.443 151.998 313.206 151.796C322.243 156.019 328.634 159.898 332.584 163.558C346.463 176.277 353.021 192.468 352.06 211.617C350.091 250.879 328.959 272.112 290.954 273.022C288.555 273.084 286.091 273.044 283.603 272.92L283.601 272.947ZM295.667 144.456C297.756 145.262 299.777 146.05 301.699 146.833C297.624 143.433 295.042 138.483 294.153 132.175L293.806 130.434L280.913 130.74C282.074 135.255 285.687 140.326 295.667 144.442L295.667 144.456Z" stroke="#000CF6" stroke-width="2.79897" stroke-miterlimit="10"/>
<path d="M437.985 255.737C424.274 255.049 409.798 250.595 394.973 242.481C369.146 228.28 356.634 209.562 357.774 186.835C359.23 157.818 367.417 135.389 382.136 120.195C396.945 104.88 418.412 96.7785 445.938 96.1136C449.824 96.0144 453.605 96.0639 457.183 96.2434C500.527 98.418 522.354 121.12 520.309 161.878C519.425 179.503 513.546 197.537 502.851 215.483C486.639 241.727 466.735 255.26 443.614 255.823C441.762 255.87 439.871 255.845 437.999 255.752L437.985 255.737ZM454.554 152.287C453.128 152.216 451.574 152.194 449.946 152.238C417.861 153.011 413.285 170.199 412.639 183.072C412.399 187.852 411.839 199.02 436.83 200.274C439.109 200.388 441.574 200.414 444.155 200.347C446.26 200.298 452.043 198.417 460.081 182.033C465.635 170.219 467.027 163.409 467.209 159.788C467.329 157.398 467.552 152.94 454.526 152.286L454.554 152.287Z" stroke="#000CF6" stroke-width="2.79897" stroke-miterlimit="10"/>
<path d="M555.234 265.375C538.504 264.535 529.412 254.158 530.278 236.896L537.555 91.8543C537.989 83.2024 542.182 68.6016 565.387 68.0422C566.636 68.0068 567.854 68.0259 569.014 68.0841C584.515 68.8618 592.962 77.8472 592.215 92.733L586.799 200.679L586.853 203.232C609.038 199.259 627.378 197.082 641.477 196.739C643.048 196.705 644.575 196.726 646.014 196.798C663.877 197.694 673.636 207.628 672.813 224.038C672.321 233.836 667.862 246.475 649.43 251.058C648.961 251.174 648.467 251.248 647.99 251.266C624.057 252.097 602.949 255.003 585.228 259.929C566.675 264.688 561.386 265.361 558.847 265.43C557.612 265.466 556.394 265.447 555.234 265.389L555.234 265.375Z" stroke="#000CF6" stroke-width="2.79897" stroke-miterlimit="10"/>
<path d="M740.474 258.204C724.624 257.409 716.002 247.728 716.81 231.626C717.462 218.613 723.817 200.604 736.229 176.648C720.869 161.599 703.927 142.631 685.814 120.185C685.696 120.025 685.577 119.879 685.46 119.705C682.199 114.875 680.706 109.167 681.028 102.738C681.891 85.5457 691.835 75.8576 709.035 75.4454C710.116 75.4155 711.18 75.4269 712.173 75.4767C718.658 75.8021 723.56 77.7996 726.7 81.4182L763.755 122.904L784.633 80.4713C787.683 74.4168 794.239 67.179 808.283 66.8467C809.419 66.8196 810.525 66.8331 811.588 66.8864C827.284 67.6739 835.815 77.5042 834.994 93.8576C834.82 97.324 833.849 101.045 832.041 105.242C831.994 105.351 831.945 105.475 831.884 105.584C831.884 105.584 777.948 214.277 777.917 214.332C777.515 215.362 776.141 219.567 771.469 236.708C771.331 237.234 771.123 237.742 770.86 238.233C770.351 239.174 770.098 239.75 769.969 240.08C769.936 240.177 769.889 240.286 769.856 240.383C764.967 251.796 755.998 257.974 743.918 258.264C742.74 258.289 741.578 258.273 740.46 258.217L740.474 258.204Z" stroke="#000CF6" stroke-width="2.79897" stroke-miterlimit="10"/>
<path d="M98.8536 262.207C90.4672 261.786 76.9511 257.759 74.6463 236.667C70.4608 236.583 66.8798 236.46 63.9306 236.312C57.6408 235.996 55.2088 235.594 53.9341 235.306C28.2075 229.993 23.4513 216.149 23.9871 205.47C24.837 188.53 34.4942 178.981 51.2035 178.572L56.6331 178.438C56.8008 178.447 56.9832 178.442 57.1509 178.45C57.3466 178.46 57.5423 178.47 57.7366 178.508C62.6495 179.175 67.3416 179.774 71.6738 180.286C73.6236 180.524 75.3093 180.721 76.758 180.891L77.6451 163.21C64.9442 161.088 55.2597 158.612 48.1646 155.636C48.0961 155.604 48.0409 155.587 47.9724 155.556C26.0512 145.614 15.0413 128.779 16.1395 106.891C17.2376 85.0026 29.0602 69.7197 51.2892 61.2364C58.5006 58.5435 69.0491 56.088 83.4734 53.743C87.1662 29.5746 100.434 24.0188 111.266 23.7495C112.051 23.7328 112.807 23.7427 113.562 23.7806C123.011 24.2546 134.419 29.2409 137.726 49.3466C137.852 49.3529 137.978 49.3592 138.089 49.3648C168.728 50.9019 174.485 64.6147 173.922 75.8525C173.358 87.0902 166.172 100.448 136.136 102.822L135.407 117.345C169.594 128.028 186.167 148.491 184.675 178.234C183.584 199.983 165.086 216.206 129.664 226.508C125.93 255.424 112.456 261.993 101.513 262.257C100.615 262.282 99.7194 262.265 98.8529 262.221L98.8536 262.207ZM75.2881 108.247C76.5677 108.437 78.1289 108.6 80.0438 108.696C80.1556 108.702 80.2674 108.707 80.3792 108.713L80.4332 107.636C78.3646 107.813 76.6726 108.022 75.2874 108.261L75.2881 108.247Z" fill="#000CF6"/>
<path d="M270.454 252.068C262.082 251.648 253.034 250.171 243.532 247.69C210.944 238.923 195.035 222.543 196.218 198.978C197.067 182.037 206.865 172.482 223.813 172.071C225.033 172.048 226.196 172.05 227.272 172.104C232.807 172.382 236.8 173.787 239.5 176.403C254.673 189.846 267.462 196.919 277.498 197.422C278.043 197.45 278.589 197.463 279.122 197.448C283.471 197.344 284.709 196.131 284.927 191.784C285.002 190.288 284.686 188.479 281.909 186.308C251.601 172.036 244.485 167.251 241.776 164.537C221.612 145.561 211.941 124.94 213.028 103.261C214.116 81.5824 226.749 54.6117 280.538 53.3167C284.789 53.2077 288.85 53.2573 292.624 53.4467C334.22 55.5336 341.976 75.5121 341.153 91.9074C339.465 125.565 319.095 131.073 307.114 131.354C306.033 131.384 304.969 131.373 303.949 131.322C302.593 131.254 301.296 131.118 300.059 130.916C309.096 135.139 315.487 139.019 319.437 142.678C333.316 155.397 339.874 171.588 338.913 190.737C336.944 229.999 315.812 251.233 277.807 252.143C275.408 252.204 272.944 252.165 270.456 252.04L270.454 252.068ZM282.52 123.577C284.609 124.382 286.63 125.17 288.552 125.953C284.477 122.554 281.895 117.604 281.006 111.296L280.659 109.555L267.766 109.861C268.927 114.375 272.54 119.447 282.521 123.563L282.52 123.577Z" fill="#000CF6"/>
<path d="M424.838 234.857C411.126 234.169 396.651 229.716 381.826 221.601C355.999 207.4 343.486 188.682 344.627 165.955C346.082 136.939 354.27 114.509 368.989 99.3153C383.798 84 405.265 75.8989 432.79 75.2341C436.677 75.1348 440.458 75.1843 444.036 75.3639C487.379 77.5384 509.207 100.241 507.162 140.998C506.278 158.624 500.399 176.657 489.704 194.603C473.492 220.848 453.588 234.38 430.467 234.943C428.615 234.991 426.724 234.966 424.851 234.872L424.838 234.857ZM441.42 131.409C439.995 131.337 438.44 131.315 436.813 131.36C404.727 132.132 400.152 149.32 399.506 162.193C399.266 166.973 398.706 178.141 423.697 179.395C425.975 179.509 428.44 179.535 431.022 179.468C433.126 179.419 438.91 177.538 446.948 161.154C452.501 149.34 453.894 142.53 454.076 138.91C454.195 136.519 454.419 132.061 441.392 131.407L441.42 131.409Z" fill="#000CF6"/>
<path d="M542.101 244.496C525.37 243.656 516.278 233.279 517.144 216.017L524.421 70.9754C524.855 62.3234 529.049 47.7227 552.254 47.1633C553.503 47.1279 554.721 47.147 555.881 47.2052C571.382 47.9829 579.829 56.9683 579.082 71.8541L573.666 179.801L573.72 182.354C595.905 178.38 614.245 176.203 628.344 175.86C629.915 175.827 631.442 175.847 632.881 175.919C650.744 176.816 660.503 186.75 659.68 203.159C659.188 212.957 654.729 225.597 636.297 230.179C635.828 230.295 635.334 230.369 634.857 230.387C610.924 231.218 589.815 234.124 572.095 239.05C553.542 243.809 548.253 244.482 545.714 244.551C544.479 244.587 543.261 244.568 542.1 244.51L542.101 244.496Z" fill="#000CF6"/>
<path d="M727.327 237.324C711.477 236.529 702.855 226.848 703.663 210.746C704.316 197.733 710.67 179.724 723.082 155.769C707.722 140.72 690.78 121.751 672.667 99.3055C672.549 99.1455 672.43 98.9994 672.313 98.8254C669.052 93.9956 667.559 88.2877 667.882 81.8581C668.744 64.6661 678.689 54.978 695.889 54.5658C696.969 54.5359 698.033 54.5473 699.026 54.5971C705.511 54.9224 710.413 56.9199 713.553 60.5385L750.608 102.025L771.486 59.5916C774.536 53.5372 781.093 46.2994 795.136 45.967C796.272 45.94 797.378 45.9534 798.441 46.0067C814.137 46.7942 822.668 56.6246 821.847 72.978C821.674 76.4443 820.702 80.165 818.894 84.3621C818.847 84.4718 818.798 84.5955 818.737 84.7045C818.737 84.7045 764.801 193.397 764.77 193.452C764.368 194.483 762.994 198.688 758.322 215.829C758.184 216.354 757.976 216.862 757.714 217.354C757.204 218.295 756.951 218.871 756.822 219.2C756.789 219.297 756.742 219.407 756.709 219.503C751.82 230.916 742.851 237.094 730.771 237.385C729.593 237.41 728.431 237.393 727.313 237.337L727.327 237.324Z" fill="#000CF6"/>
<path d="M91.5828 256.027C83.1965 255.607 69.6803 251.579 67.3756 230.487C63.19 230.403 59.6091 230.28 56.6599 230.132C50.3701 229.816 47.9381 229.414 46.6634 229.126C20.9368 223.813 16.1806 209.969 16.7163 199.29C17.5663 182.35 27.2235 172.801 43.9328 172.392L49.3623 172.258C49.5301 172.267 49.7125 172.262 49.8802 172.27C50.0759 172.28 50.2716 172.29 50.4658 172.328C55.3788 172.995 60.0709 173.594 64.4031 174.106C66.3529 174.344 68.0385 174.541 69.4873 174.711L70.3743 157.03C57.6735 154.908 47.9889 152.432 40.8938 149.456C40.8253 149.424 40.7701 149.407 40.7017 149.376C18.7819 139.406 7.7713 122.586 8.86946 100.697C9.96762 78.8087 21.7902 63.5257 44.0192 55.0425C51.2306 52.3496 61.779 49.8941 76.2034 47.5491C79.8962 23.3807 93.1644 17.8249 103.996 17.5555C104.781 17.5389 105.537 17.5488 106.292 17.5867C115.741 18.0607 127.149 23.047 130.456 43.1527C130.582 43.159 130.708 43.1653 130.819 43.1709C161.458 44.708 167.215 58.4208 166.652 69.6586C166.088 80.8963 158.902 94.2539 128.866 96.6285L128.137 111.151C162.324 121.834 178.897 142.297 177.405 172.041C176.314 193.789 157.816 210.012 122.394 220.314C118.66 249.23 105.186 255.799 94.2434 256.063C93.3454 256.088 92.4494 256.071 91.5828 256.027ZM68.0173 102.067C69.2969 102.257 70.8582 102.42 72.7731 102.516C72.8849 102.522 72.9967 102.527 73.1085 102.533L73.1625 101.457C71.0938 101.633 69.4018 101.842 68.0166 102.081L68.0173 102.067Z" fill="#000CF6"/>
<path d="M263.198 245.889C254.825 245.469 245.777 243.992 236.275 241.511C203.688 232.744 187.779 216.364 188.961 192.798C189.811 175.858 199.608 166.302 216.556 165.892C217.776 165.869 218.939 165.871 220.015 165.925C225.55 166.203 229.544 167.608 232.243 170.224C247.417 183.666 260.205 190.74 270.241 191.243C270.786 191.271 271.332 191.284 271.865 191.269C276.214 191.165 277.452 189.952 277.67 185.605C277.745 184.109 277.43 182.3 274.652 180.128C244.345 165.857 237.228 161.072 234.52 158.357C214.355 139.382 204.684 118.761 205.772 97.0819C206.859 75.4032 219.492 48.4325 273.281 47.1375C277.532 47.0285 281.594 47.0781 285.367 47.2675C326.964 49.3544 334.719 69.3329 333.897 85.7282C332.208 119.386 311.838 124.893 299.857 125.175C298.777 125.205 297.712 125.194 296.692 125.142C295.336 125.074 294.04 124.939 292.803 124.737C301.839 128.96 308.23 132.84 312.18 136.499C326.059 149.218 332.617 165.409 331.657 184.558C329.687 223.82 308.556 245.054 270.55 245.963C268.151 246.025 265.687 245.986 263.199 245.861L263.198 245.889ZM275.249 117.397C277.339 118.202 279.359 118.99 281.281 119.773C277.206 116.374 274.624 111.424 273.735 105.116L273.388 103.375L260.496 103.681C261.656 108.195 265.269 113.267 275.25 117.383L275.249 117.397Z" fill="#000CF6"/>
<path d="M417.568 228.677C403.856 227.989 389.38 223.536 374.556 215.422C348.729 201.22 336.216 182.502 337.356 159.775C338.812 130.759 346.999 108.329 361.718 93.1354C376.527 77.8201 397.994 69.7189 425.52 69.0541C429.406 68.9548 433.187 69.0044 436.765 69.1839C480.109 71.3585 501.936 94.0608 499.892 134.819C499.007 152.444 493.128 170.477 482.433 188.423C466.221 214.668 446.317 228.2 423.196 228.764C421.344 228.811 419.454 228.786 417.581 228.692L417.568 228.677ZM434.15 125.229C432.724 125.157 431.17 125.135 429.542 125.18C397.457 125.952 392.881 143.14 392.235 156.013C391.996 160.793 391.435 171.961 416.427 173.215C418.705 173.329 421.17 173.355 423.751 173.288C425.856 173.24 431.639 171.358 439.678 154.974C445.231 143.16 446.623 136.35 446.805 132.73C446.925 130.34 447.149 125.881 434.122 125.227L434.15 125.229Z" fill="#000CF6"/>
<path d="M534.831 238.316C518.1 237.476 509.008 227.099 509.874 209.838L517.151 64.7954C517.585 56.1435 521.778 41.5427 544.983 40.9834C546.232 40.948 547.45 40.9671 548.61 41.0253C564.111 41.8029 572.558 50.7884 571.811 65.6741L566.395 173.621L566.45 176.174C588.634 172.2 606.974 170.023 621.074 169.68C622.645 169.647 624.171 169.667 625.611 169.739C643.474 170.636 653.232 180.57 652.409 196.979C651.917 206.777 647.458 219.417 629.026 223.999C628.558 224.115 628.064 224.189 627.586 224.207C603.653 225.038 582.545 227.944 564.824 232.87C546.271 237.629 540.983 238.302 538.443 238.371C537.208 238.407 535.99 238.388 534.83 238.33L534.831 238.316Z" fill="#000CF6"/>
<path d="M720.057 231.13C704.207 230.335 695.585 220.654 696.393 204.552C697.045 191.54 703.4 173.53 715.812 149.575C700.452 134.526 683.51 115.558 665.397 93.1116C665.279 92.9516 665.16 92.8055 665.043 92.6314C661.782 87.8017 660.289 82.0938 660.611 75.6642C661.474 58.4722 671.418 48.7841 688.618 48.3719C689.699 48.342 690.763 48.3534 691.756 48.4032C698.241 48.7285 703.143 50.726 706.283 54.3446L743.338 95.8309L764.216 53.3977C767.266 47.3433 773.822 40.1055 787.866 39.7731C789.002 39.7461 790.108 39.7595 791.171 39.8128C806.867 40.6003 815.398 50.4307 814.577 66.7841C814.403 70.2504 813.432 73.9711 811.624 78.1682C811.577 78.2779 811.528 78.4016 811.467 78.5106C811.467 78.5106 757.53 187.204 757.5 187.258C757.098 188.289 755.724 192.494 751.052 209.635C750.914 210.16 750.706 210.668 750.443 211.16C749.934 212.101 749.681 212.677 749.552 213.007C749.519 213.103 749.472 213.213 749.439 213.309C744.55 224.722 735.581 230.9 723.501 231.191C722.323 231.216 721.161 231.2 720.043 231.143L720.057 231.13Z" fill="#000CF6"/>
<path d="M92.2432 256.706C87.8636 256.395 83.1019 255.112 79.1451 251.786C75.003 248.305 71.6612 242.516 70.6232 233.027L70.6232 233.027L70.4885 231.801L70.4259 231.231L69.8528 231.222L68.6232 231.202C68.6224 231.202 68.6215 231.202 68.6207 231.202M92.2432 256.706L68.6207 231.202M92.2432 256.706L92.2436 256.699L92.8928 256.731C93.717 256.773 94.5533 256.787 95.4032 256.761L95.4077 256.761C102.538 256.594 108.337 253.616 112.727 247.958C117.136 242.275 120.146 233.856 121.579 222.801L92.2432 256.706ZM68.6207 231.202C64.4553 231.119 60.8819 230.996 57.9691 230.85C51.0161 230.501 48.9515 230.034 48.31 229.885L48.3022 229.883L48.2943 229.882C35.999 227.346 28.8136 222.834 24.757 217.79C20.7036 212.751 19.7079 207.098 19.9565 202.143C20.3546 194.208 22.8114 188.083 27.0456 183.895C31.2785 179.709 37.364 177.383 45.1694 177.195L45.1698 177.195L50.5767 177.062C50.6562 177.065 50.7325 177.065 50.7932 177.065C50.866 177.065 50.9198 177.065 50.9707 177.068C51.1306 177.076 51.268 177.083 51.3866 177.1L51.3903 177.1C56.292 177.767 61.0015 178.368 65.3657 178.881C66.3433 179.001 67.9884 179.192 69.3876 179.353C70.0879 179.434 70.7272 179.507 71.1915 179.56L71.7424 179.623L71.8926 179.64L71.9317 179.644L71.9417 179.646L71.9442 179.646L71.9449 179.646L71.9451 179.646L72.6331 179.724L72.6678 179.033L73.6923 158.612L73.7214 158.032L73.148 157.938L71.9131 157.736L68.6207 231.202ZM121.694 221.896L121.579 222.8L71.911 157.736C59.3145 155.635 49.8255 153.204 42.8938 150.303L42.8865 150.3L42.8791 150.297L42.7305 150.239C32.1536 145.443 24.2512 139.006 19.1219 131.174C13.9924 123.341 11.6097 114.073 12.1369 103.565C12.6644 93.0501 15.7743 84.1441 21.4042 76.848C27.0364 69.5488 35.2221 63.8204 45.9646 59.7162C53.0148 57.0835 63.4123 54.6595 77.7525 52.327C77.7529 52.327 77.7533 52.3269 77.7537 52.3268L78.7546 52.1673L79.2254 52.0922L79.2953 51.6206L79.4432 50.6221C79.4432 50.6217 79.4433 50.6213 79.4434 50.6209C81.2112 39.0478 85.247 32.0655 90.0034 27.9431C94.7615 23.8193 100.319 22.4895 105.259 22.3737L105.26 22.3736C105.988 22.3553 106.714 22.3643 107.41 22.3993C113.471 22.7034 118.388 24.9065 122.106 28.8759C125.835 32.8576 128.402 38.6656 129.651 46.2484C129.651 46.2485 129.651 46.2486 129.651 46.2487L129.833 47.364L129.917 47.8821L130.442 47.9084L131.937 47.9835C143.552 48.5662 152.222 51.0089 157.88 55.112C163.495 59.1853 166.196 64.932 165.825 72.3215C165.454 79.7166 162.214 85.4879 156.239 89.658C150.234 93.8494 141.43 96.4456 129.923 97.3533C129.923 97.3533 129.923 97.3533 129.923 97.3533L128.701 97.4459L128.13 97.4892L128.101 98.0614L127.256 114.904L127.231 115.409L127.715 115.558L128.747 115.875C128.747 115.875 128.747 115.875 128.748 115.876C145.417 121.084 157.725 128.647 165.687 138.454C173.639 148.25 177.299 160.34 176.579 174.704C175.544 195.333 157.768 211.023 123.042 221.104C123.041 221.104 123.04 221.104 123.039 221.104L122.162 221.353L121.749 221.471L121.694 221.896ZM72.8785 102.26L72.9041 102.288C71.4545 102.433 70.1125 102.604 68.8925 102.806L68.3459 102.897L68.3491 103.451L68.3647 106.213L68.3678 106.771L68.9201 106.852C70.3915 107.068 72.0585 107.223 73.8636 107.313L75.5968 107.4L76.246 107.433L76.2785 106.784L76.4833 102.702L76.5205 101.961L75.781 102.022L74.191 102.152L72.8785 102.26Z" fill="white" stroke="#000CF6" stroke-width="1.3"/>
<path d="M271.726 246.718C269.469 246.766 267.14 246.746 264.789 246.634M271.726 246.718C271.726 246.718 271.727 246.718 271.727 246.718L271.741 247.368M271.726 246.718C271.726 246.718 271.726 246.718 271.725 246.718L271.741 247.368M271.726 246.718C290.183 246.273 304.457 240.896 314.357 230.941C324.26 220.983 329.87 206.361 330.828 187.263C331.758 168.722 325.437 153.106 312.012 140.803L312.009 140.8C308.269 137.33 301.951 133.498 293.164 129.393L292.651 129.154L292.819 128.612L293.638 125.963L293.806 125.42L294.366 125.514C295.535 125.71 296.764 125.84 298.027 125.904C298.993 125.952 299.997 125.975 301.028 125.944L301.031 125.944C306.704 125.807 314.302 124.426 320.676 119.123C327.032 113.835 332.273 104.562 333.082 88.4338C333.64 77.3181 329.913 68.6851 322.158 62.6083C314.367 56.5036 302.438 52.9224 286.497 52.1227C282.77 51.9357 278.752 51.9014 274.556 51.9983M264.789 246.634L271.741 247.368M264.789 246.634L264.776 246.62L264.507 246.607C256.285 246.194 247.379 244.745 237.997 242.292L264.789 246.634ZM271.741 247.368C308.891 246.472 329.55 225.705 331.477 187.295C332.417 168.566 326.022 152.761 312.451 140.324C308.635 136.783 302.243 132.918 293.44 128.805L294.259 126.155C295.454 126.355 296.709 126.488 297.994 126.553C298.973 126.602 299.995 126.625 301.047 126.594C312.551 126.316 332.1 120.991 333.731 88.4664C334.865 65.8651 318.538 53.0793 286.53 51.4735C282.784 51.2855 278.75 51.2513 274.541 51.3484M274.556 51.9983C274.557 51.9983 274.557 51.9983 274.557 51.9982L274.541 51.3484M274.556 51.9983C248.303 52.6285 232.212 59.4406 222.554 68.6326C212.897 77.8226 209.579 89.4793 209.051 99.9929C207.997 120.997 217.4 141.059 237.187 159.691L237.194 159.697L237.2 159.704C238.357 160.857 240.587 162.594 246.383 165.854C252.171 169.11 261.479 173.865 276.755 181.06M274.556 51.9983L274.541 51.3484M274.541 51.3484C221.833 52.6135 209.468 78.7149 208.402 99.9603C207.336 121.206 216.858 141.441 236.741 160.164M276.482 181.649C245.914 167.252 239.183 162.599 236.741 160.164M276.482 181.649L276.619 181.712L236.741 160.164M276.482 181.649L276.753 181.059L276.755 181.06M276.482 181.649L276.759 181.061L276.89 181.122L276.951 181.15L277.006 181.19L277.127 181.28L277.134 181.286L277.141 181.291C278.86 182.639 279.846 183.951 280.382 185.192C280.919 186.435 280.984 187.559 280.937 188.487C280.807 191.083 280.278 193.012 278.973 194.285C277.669 195.558 275.727 196.039 273.128 196.101L273.113 195.451L276.755 181.06M236.741 160.164L276.755 181.06M217.82 170.71C217.82 170.71 217.82 170.71 217.82 170.71L217.804 170.06L217.818 170.71C217.819 170.71 217.819 170.71 217.82 170.71ZM275.744 104.063L259.943 104.446L259.066 104.402L259.292 105.26L259.738 106.961C259.738 106.962 259.738 106.962 259.738 106.963C261.406 113.448 266.723 118.348 275.694 122.054L275.703 122.057L275.711 122.06C277.823 122.865 279.824 123.664 281.747 124.434L282.261 124.639L282.546 124.165L283.968 121.798L284.254 121.322L283.828 120.965C280.128 117.868 277.816 113.395 276.997 107.594L276.994 107.576L276.99 107.558L276.397 104.586L276.29 104.05L275.744 104.063Z" fill="white" stroke="#000CF6" stroke-width="1.3"/>
<path d="M424.371 229.477C422.666 229.523 420.913 229.505 419.172 229.424L419.16 229.41L418.891 229.396C405.507 228.725 391.334 224.36 376.766 216.39C351.598 202.544 339.529 184.456 340.623 162.644C342.057 134.074 350.084 112.132 364.408 97.3281L364.408 97.3281C378.814 82.4366 399.768 74.526 426.783 73.8722C430.628 73.7859 434.351 73.8193 437.883 73.9965C458.995 75.0557 474.761 81.1012 485.004 91.7363C495.241 102.364 500.059 117.677 499.065 137.482C498.199 154.743 492.428 172.466 481.901 190.132C466.052 215.768 446.696 228.937 424.373 229.477L424.371 229.477ZM425.03 178.093L425.031 178.093C428.359 178.005 434.655 175.119 442.754 158.637L442.754 158.637L442.759 158.627C448.456 146.525 449.907 139.447 450.1 135.599C450.208 133.464 449.869 131.136 447.709 129.295C445.601 127.5 441.866 126.268 435.473 125.947L435.459 125.947C433.975 125.872 432.377 125.849 430.705 125.892C413.967 126.294 404.267 131.016 398.683 137.46C393.113 143.887 391.749 151.906 391.41 158.662L391.408 158.687C391.289 161.066 391.061 165.613 394.325 169.714C397.603 173.835 404.267 177.347 417.545 178.013C419.883 178.131 422.393 178.158 425.03 178.093Z" fill="white" stroke="#000CF6" stroke-width="1.3"/>
<path d="M536.132 239.034C528.347 238.642 522.421 236.032 518.535 231.59C514.646 227.143 512.723 220.772 513.127 212.705L520.404 67.6631C520.605 63.6557 521.683 58.3294 525.362 53.9473C529.023 49.5872 535.342 46.0639 546.231 45.8009C547.443 45.7782 548.603 45.7814 549.7 45.8365C556.999 46.2027 562.464 48.4088 566.02 52.1773C569.571 55.9415 571.307 61.359 570.957 68.3357L565.541 176.282L565.54 176.306L565.54 176.329L565.633 180.621L565.65 181.379L566.396 181.247L568.007 180.964L568.009 180.964C590.093 177.017 608.355 174.844 622.324 174.497C623.838 174.462 625.32 174.481 626.714 174.551C635.091 174.972 641.479 177.495 645.675 181.741C649.864 185.979 651.951 192.016 651.569 199.641C651.339 204.224 650.181 209.431 646.952 214.021C643.732 218.598 638.409 222.618 629.738 224.771L629.735 224.772C629.419 224.852 629.069 224.898 628.707 224.918C604.645 225.746 583.374 228.693 565.484 233.643C547.108 238.356 541.976 239.013 539.593 239.069C538.399 239.092 537.241 239.089 536.132 239.034Z" fill="white" stroke="#000CF6" stroke-width="1.3"/>
<path d="M720.334 231.782L721.367 231.834C722.413 231.887 723.531 231.901 724.666 231.875C735.891 231.604 744.203 225.876 748.772 215.24C748.773 215.238 748.773 215.237 748.774 215.235L748.862 215.021C749.072 214.458 749.417 213.746 749.867 212.921M720.334 231.782L750.438 213.233M720.334 231.782C713.386 231.246 708.146 228.906 704.683 225.012C701.045 220.923 699.279 215.023 699.66 207.421C700.296 194.738 706.539 177.057 718.852 153.278C718.852 153.277 718.852 153.277 718.853 153.276L719.331 152.365L719.555 151.938L719.212 151.6L718.477 150.876L718.476 150.875C703.18 135.893 686.269 116.96 668.235 94.5887C668.225 94.5764 668.216 94.5642 668.206 94.5521C668.121 94.4449 668.042 94.3449 667.973 94.2466C664.971 89.8084 663.592 84.5293 663.893 78.5333C664.297 70.4747 666.824 64.2527 671.19 59.9961C675.555 55.7395 681.836 53.373 689.897 53.1767L689.901 53.1766C690.932 53.146 691.921 53.168 692.887 53.2165C698.875 53.5169 703.239 55.3182 705.973 58.4522L705.973 58.4522L705.978 58.458L744.426 101.5L745.069 102.219L745.494 101.353L767.275 57.066L766.695 56.7731L767.278 57.0599L767.276 57.0633C768.67 54.3027 770.874 51.2672 774.345 48.8812C777.813 46.4974 782.58 44.7376 789.144 44.578L789.146 44.5779C790.224 44.5492 791.286 44.5611 792.289 44.6114C799.678 44.9822 805.207 47.386 808.8 51.536C812.397 55.6905 814.14 61.6935 813.752 69.4331C813.591 72.6286 812.685 76.1012 810.978 80.0956M720.334 231.782L810.86 80.3538M749.867 212.921L750.438 213.233M749.867 212.921C749.867 212.921 749.867 212.922 749.867 212.922L750.438 213.233M749.867 212.921C750.059 212.571 750.2 212.219 750.307 211.837M750.438 213.233C750.654 212.838 750.814 212.439 750.933 212.011M750.307 211.837C750.307 211.838 750.306 211.839 750.306 211.84L750.933 212.011M750.307 211.837C754.92 194.948 756.358 190.454 756.872 189.137L756.884 189.107L756.899 189.078L756.911 189.054L756.944 188.987L757.067 188.74L757.529 187.809L759.251 184.342C760.727 181.369 762.825 177.143 765.338 172.079C770.366 161.951 777.056 148.473 783.756 134.974C797.149 107.988 810.582 80.9204 810.86 80.3538M750.307 211.837C750.307 211.837 750.307 211.837 750.307 211.836L750.933 212.011M750.933 212.011C755.551 195.105 756.979 190.651 757.478 189.373L810.86 80.3538M810.86 80.3538L811.444 80.6394L810.861 80.3528C810.861 80.3531 810.86 80.3535 810.86 80.3538ZM810.86 80.3538C810.878 80.3184 810.893 80.2846 810.913 80.2389L810.914 80.2356C810.932 80.1966 810.953 80.1484 810.978 80.0956M810.978 80.0956C810.976 80.1004 810.974 80.1052 810.972 80.1099L811.57 80.3655L810.986 80.0798C810.984 80.0851 810.981 80.0904 810.978 80.0956Z" fill="white" stroke="#000CF6" stroke-width="1.3"/>
</svg>
