<svg width="82" height="78" viewBox="0 0 82 78" fill="none" xmlns="http://www.w3.org/2000/svg">
<path fill-rule="evenodd" clip-rule="evenodd" d="M30.7926 14.2933C28.1917 15.681 26.0638 16.8553 26.0642 16.9031C26.0654 17.0264 32.3065 20.2638 32.528 20.2559C32.6288 20.2525 33.3598 19.9078 34.1523 19.4901L35.5936 18.7308L38.7417 20.3885L41.3194 19.2021C45.2034 17.4144 45.6068 17.2185 45.5436 17.1527C45.4597 17.0653 44.0666 16.2987 40.2869 14.2606C38.4602 13.2755 36.6873 12.3097 36.3469 12.1142C36.0066 11.9188 35.6817 11.7616 35.6249 11.7646C35.5682 11.7677 33.3935 12.9056 30.7926 14.2933ZM19.385 20.3439L16.6775 21.7764V28.0632C16.6775 31.521 16.713 34.35 16.7567 34.35C16.8001 34.35 18.1322 33.7585 19.7168 33.0357L22.5979 31.7213V25.0945L24.0058 25.8802C25.0907 26.4851 26.1763 27.0887 27.2625 27.6911L29.1112 28.7164L29.9338 28.3354C30.4498 28.096 30.9647 27.8543 31.4785 27.6103C31.8756 27.4209 32.8503 26.9713 33.6445 26.6109C34.4387 26.2503 35.1738 25.8878 35.2781 25.8052C35.4166 25.6954 33.728 24.7396 29.0325 22.2699C25.4931 20.4082 22.4837 18.8909 22.3449 18.8982C22.2061 18.9055 20.8742 19.556 19.385 20.3439ZM46.0316 20.7462C44.1876 21.5988 42.6775 22.3305 42.6758 22.3723C42.6742 22.4139 43.6793 23.026 44.9094 23.7323C46.1394 24.4387 47.1459 25.0544 47.1459 25.1007C47.1459 25.147 46.0574 25.6872 44.7272 26.3014C43.3968 26.9155 40.0342 28.4709 37.2545 29.758L27.9407 34.0701C25.5978 35.155 23.486 36.1328 23.2477 36.2433C18.4623 38.4622 17.1469 39.0779 16.9663 39.1836C16.7847 39.29 16.7435 39.9082 16.7112 43.0109L16.6726 46.7114L21.5149 49.2386L24.8722 47.6866C26.7188 46.8331 28.2295 46.0901 28.2295 46.0354C28.2295 45.9808 27.8883 45.7531 27.4714 45.5291C27.0543 45.3051 26.1934 44.8094 25.5581 44.4272C24.9228 44.0449 24.2893 43.6942 24.1502 43.6477C24.0111 43.6013 23.8994 43.5202 23.9017 43.4672C23.904 43.4145 25.3824 42.6952 27.1868 41.8687C30.6915 40.2637 33.3736 39.0267 39.1317 36.3596C41.7065 35.1672 44.2816 33.9755 46.8571 32.7846C49.1205 31.7381 51.7522 30.5159 52.7053 30.0686L54.4381 29.2554L54.5153 21.7702L52.0596 20.4791C50.709 19.7691 49.5545 19.1899 49.4939 19.1921C49.4335 19.194 47.8754 19.8933 46.0316 20.7462ZM53.7802 34.2483C53.4183 34.4293 52.7035 34.7683 52.1918 35.0015C51.68 35.2347 50.709 35.6835 50.0339 35.999L48.8064 36.5724L48.7785 39.8582C48.763 41.6653 48.698 43.1358 48.6341 43.1263C48.4888 43.1041 46.1884 41.8957 43.876 40.6265C42.207 39.7106 42.1021 39.6742 41.7099 39.8732C41.4832 39.9882 40.128 40.6108 38.6985 41.2568C37.2689 41.9027 36.0527 42.4734 35.9955 42.5251C35.9384 42.5767 38.8156 44.1739 42.3893 46.0748L48.8869 49.5308L51.6626 48.0601C53.189 47.2513 54.487 46.5136 54.5468 46.4208C54.6814 46.2121 54.6698 33.8905 54.5351 33.9072C54.4818 33.9137 54.142 34.0673 53.7802 34.2483ZM38.4097 48.7108C37.9282 48.9228 37.4469 49.1351 36.9657 49.3478C35.5126 49.9917 35.7974 50.013 34.0686 49.1315C32.9172 48.5445 32.4208 48.3633 32.2054 48.4512C32.0438 48.5172 30.6531 49.158 29.1147 49.8754C27.5764 50.5927 26.2643 51.1796 26.1991 51.1796C25.5536 51.1796 26.6267 51.8362 30.7672 53.9755L35.6231 56.4842L37.6662 55.4511C38.7899 54.8828 41.0564 53.7449 42.703 52.9224C44.3494 52.0997 45.6762 51.4053 45.6514 51.3791C45.6263 51.353 44.2467 50.6274 42.5854 49.7666L39.5649 48.2018L38.4097 48.7108Z" fill="#000CF6"/>
<path d="M8.99797 2.97071C9.40041 1.82334 16.0473 2.61657 16.961 2.625C20.2172 2.65504 23.5641 2.6348 26.8026 2.93478C28.7937 3.11922 31.0689 3.26141 33.0682 3.15405C36.6992 2.95908 40.3257 3.46521 43.9352 3.79956C49.5403 4.31876 55.7464 4.18237 61.1175 6.00637C62.2027 6.3749 63.2684 6.72305 64.4063 6.88611C64.6333 6.91864 65.2695 6.87512 65.4126 7.13982C65.8464 7.94209 65.6215 9.40207 65.6183 10.2617C65.6046 13.9494 65.7134 17.6251 65.544 21.3154C65.4063 24.3147 65.1449 27.3063 64.9788 30.3041C64.7844 33.813 64.3095 37.4218 64.3422 40.9313C64.3673 43.6247 63.733 46.2993 63.8365 48.9893C63.9415 51.717 64.2663 54.4521 64.1746 57.1789C64.1227 58.7234 64.6007 60.2313 64.4573 61.7792C64.3077 63.3943 62.3391 63.8907 60.9419 64.3558C57.4004 65.5346 53.2402 65.3857 49.5488 65.3467C45.2814 65.3015 40.8807 65.1456 36.6308 64.7519C30.5414 64.1879 24.4124 64.1016 18.3135 63.5367C15.7207 63.2965 12.9622 63.4176 10.4146 63.0458C9.27547 62.8795 8.22492 61.0321 7.603 60.1907C6.88553 59.22 6.58744 57.3748 6.23289 56.212C5.79122 54.7634 5.56428 53.3668 5.18644 51.9155C4.11799 47.8116 4.33799 42.8825 4.72673 38.6858C4.90639 36.7463 5.32794 34.6611 5.22644 32.7136C5.1091 30.4625 5.65495 28.2539 5.60682 26.0082C5.56522 24.0666 5.80752 22.1757 5.66008 20.2354C5.51119 18.2759 5.40489 16.1654 5.5498 14.2067C5.78547 11.0212 6.13956 7.83988 6.43419 4.65913C6.62157 2.63624 8.36466 2.91204 9.95273 3.05915M9.72068 62.7407C11.3451 65.2301 13.1569 68.9608 15.6027 70.8555C16.0755 71.2217 16.3333 71.7791 16.9297 71.8343C22.5048 72.3508 28.0582 71.4962 33.627 71.3347C43.8778 71.0375 54.0731 73.4211 64.2855 72.7302C66.4851 72.5814 68.919 73.5099 71.0838 73.1192C72.2426 72.91 73.8992 72.5114 72.2702 70.9956C69.3843 68.3101 67.4252 64.837 64.9335 61.8366M65.961 6.56203C65.9863 7.58321 67.9146 8.35451 68.6629 8.72483C70.6646 9.7154 72.6851 10.6746 74.7929 11.4192C75.8835 11.8044 78.7171 11.7931 78.578 13.2945C77.7613 22.1113 77.6599 31.0032 76.8424 39.8289C76.4707 43.8409 77.1949 47.7815 77.1801 51.7767C77.1688 54.7975 76.9113 57.7971 76.5847 60.8027C76.2957 63.4628 75.0984 66.1541 74.419 68.7337C74.2432 69.4015 74.0465 72.1351 73.1636 71.747M65.4922 14.2222C68.5405 18.2702 71.9516 21.9766 75.782 25.2863M65.1646 28.1547C68.3471 30.4234 71.262 33.0524 74.1511 35.6743C74.8048 36.2675 78.3952 38.7517 78.1021 39.2233M65.142 41.3932C66.7546 43.3638 68.245 45.3946 70.0767 47.1733C71.2306 48.2938 72.6186 49.238 73.4914 50.5924C74.0857 51.5147 75.2105 52.248 75.1047 53.39M64.8586 54.8483C67.6074 57.9013 70.1443 60.8984 72.4939 64.2489C72.89 64.8137 73.3916 65.3243 73.8138 65.8824C74.4461 66.7184 74.1179 66.5675 73.1505 66.6903M51.3191 65.8718C53.6513 67.1184 54.7568 69.3935 56.4378 71.2543C57.1968 72.0945 57.5718 71.916 56.7115 72.6305M34.1952 66.2115C35.5911 68.096 36.8501 70.6693 38.6992 72.1657M18.1809 64.9688C19.7753 66.2287 21.2237 69.1187 22.0746 71.0136C22.2997 71.5148 23.3568 74.065 23.507 72.4436" stroke="#000CF6" stroke-width="2.5313" stroke-linecap="round"/>
</svg>
