<svg width="83" height="78" viewBox="0 0 83 78" fill="none" xmlns="http://www.w3.org/2000/svg">
<path d="M30.1815 15.9834H15.9525L32.7427 36.8951L16.8672 53.9529H22.2539L35.2389 40.001L46.4432 53.9529H60.6722L43.1746 32.1622L58.2329 15.9834H52.8462L40.6784 29.0563L30.1815 15.9834ZM48.4759 50.156L24.0834 19.7804H28.1488L52.5413 50.156H48.4759Z" fill="#000CF6"/>
<path d="M9.82782 2.81019C10.236 1.66487 16.8789 2.49159 17.7925 2.50463C21.0485 2.55109 24.3955 2.54772 27.6324 2.86402C29.6226 3.0585 31.897 3.21216 33.8968 3.11489C37.5287 2.93822 41.1527 3.46263 44.7605 3.81517C50.3629 4.36263 56.5696 4.25753 61.9314 6.10858C63.0147 6.48258 64.0786 6.8361 65.2157 7.0049C65.4426 7.03857 66.079 6.99826 66.2208 7.26367C66.6505 8.06812 66.4182 9.52695 66.4107 10.3866C66.3784 14.0742 66.4687 17.7503 66.2806 21.4398C66.1278 24.4383 65.8514 27.4285 65.6702 30.4255C65.4581 33.9334 64.9649 37.5397 64.9799 41.0493C64.9915 43.7429 64.3437 46.4142 64.4337 49.1046C64.5249 51.8328 64.8359 54.5696 64.7305 57.2959C64.6707 58.8401 65.1412 60.3504 64.99 61.8975C64.8322 63.5119 62.8612 63.9983 61.4616 64.4563C57.9142 65.6173 53.7548 65.4475 50.0637 65.3898C45.7966 65.3231 41.3967 65.145 37.1488 64.7299C31.0623 64.1352 24.9339 64.018 18.8379 63.4224C16.2463 63.1691 13.4872 63.2763 10.9416 62.8916C9.80328 62.7196 8.76205 60.867 8.14438 60.0224C7.43181 59.0481 7.14303 57.2014 6.79434 56.0368C6.35998 54.5861 6.14009 53.1883 5.76957 51.7351C4.72183 47.6259 4.96668 42.698 5.37658 38.5033C5.566 36.5648 5.99807 34.4817 5.90638 32.5337C5.8004 30.282 6.35737 28.0762 6.32057 25.8303C6.28875 23.8885 6.54058 21.9989 6.40293 20.0578C6.26392 18.0976 6.16826 15.9866 6.32304 14.0287C6.57478 10.8444 6.9449 7.66489 7.25556 4.48566C7.45314 2.46375 9.19482 2.74833 10.7821 2.90344M10.2492 62.5831C11.861 65.0806 13.6539 68.8204 16.0902 70.7274C16.5611 71.096 16.8162 71.6547 17.4123 71.7129C22.9846 72.2574 28.5423 71.4309 34.1119 71.2975C44.364 71.052 54.5472 73.4869 64.763 72.8475C66.9632 72.7098 69.3924 73.6506 71.5592 73.2708C72.7191 73.0675 74.3776 72.6773 72.7563 71.1532C69.884 68.4532 67.9424 64.9703 65.4658 61.9574M66.7721 6.68866C66.7922 7.70995 68.7166 8.49097 69.463 8.86506C71.4596 9.86571 73.4753 10.8351 75.5793 11.5903C76.6679 11.981 79.5016 11.984 79.3549 13.4846C78.4938 22.2972 78.3475 31.1885 77.4855 40.01C77.0937 44.02 77.7979 47.9643 77.763 51.9593C77.7365 54.98 77.4639 57.9783 77.1221 60.9822C76.8197 63.6408 75.6089 66.326 74.9165 68.9022C74.7373 69.5691 74.5268 72.3017 73.6458 71.9092M66.2646 14.3464C69.2925 18.4097 72.6849 22.1332 76.4985 25.4623M65.8668 28.277C69.0378 30.5617 71.9394 33.2055 74.8152 35.8418C75.4659 36.4384 79.0438 38.9406 78.7483 39.4108M65.7774 41.5152C67.3801 43.4939 68.8602 45.5322 70.6829 47.3201C71.8312 48.4465 73.2144 49.3976 74.0803 50.7565C74.67 51.6817 75.791 52.4207 75.6795 53.5621M65.4262 54.9687C68.1595 58.0355 70.6813 61.0454 73.014 64.4077C73.4073 64.9745 73.9063 65.4877 74.3256 66.0479C74.9538 66.887 74.6263 66.7345 73.6583 66.8524M51.8313 65.9238C54.1571 67.1822 55.2511 69.4628 56.9227 71.3321C57.6775 72.1761 58.0534 71.9995 57.1896 72.7096M34.7059 66.1772C36.0923 68.0687 37.3383 70.6483 39.1798 72.154M18.698 64.8538C20.2861 66.1218 21.7199 69.019 22.5613 70.9181C22.7838 71.4204 23.828 73.9759 23.9864 72.3553" stroke="#000CF6" stroke-width="2.5313" stroke-linecap="round"/>
</svg>
