<svg width="323" height="152" viewBox="0 0 323 152" fill="none" xmlns="http://www.w3.org/2000/svg">
<g filter="url(#filter0_d_1_38)">
<rect x="30" y="30" width="263" height="92" rx="46" fill="#1F1F1F" shape-rendering="crispEdges"/>
<rect x="30.8929" y="30.8929" width="261.214" height="90.2143" rx="45.1071" stroke="white" stroke-opacity="0.2" stroke-width="1.78571" shape-rendering="crispEdges"/>
<path d="M127.108 90V60.264H140.128C141.5 60.264 142.746 60.404 143.866 60.684C145.014 60.936 146.008 61.356 146.848 61.944C147.688 62.532 148.332 63.316 148.78 64.296C149.256 65.276 149.494 66.522 149.494 68.034C149.494 69.266 149.214 70.414 148.654 71.478C148.094 72.542 147.268 73.354 146.176 73.914C147.632 74.39 148.78 75.216 149.62 76.392C150.46 77.54 150.88 79.066 150.88 80.97C150.88 82.678 150.558 84.12 149.914 85.296C149.27 86.444 148.388 87.368 147.268 88.068C146.148 88.768 144.846 89.272 143.362 89.58C141.878 89.86 140.296 90 138.616 90H127.108ZM133.114 84.456H139.33C140.086 84.456 140.786 84.4 141.43 84.288C142.102 84.176 142.69 83.994 143.194 83.742C143.698 83.462 144.09 83.084 144.37 82.608C144.678 82.132 144.832 81.544 144.832 80.844C144.832 80.2 144.706 79.668 144.454 79.248C144.23 78.8 143.894 78.436 143.446 78.156C143.026 77.876 142.522 77.68 141.934 77.568C141.374 77.456 140.744 77.4 140.044 77.4H133.114V84.456ZM133.114 72.402H138.616C139.372 72.402 140.058 72.332 140.674 72.192C141.29 72.052 141.808 71.828 142.228 71.52C142.648 71.212 142.97 70.834 143.194 70.386C143.418 69.91 143.53 69.364 143.53 68.748C143.558 67.908 143.376 67.292 142.984 66.9C142.592 66.48 142.06 66.2 141.388 66.06C140.716 65.892 139.96 65.808 139.12 65.808H133.114V72.402ZM162.672 90.294C159.424 90.294 156.918 89.468 155.154 87.816C153.418 86.136 152.55 83.616 152.55 80.256V67.866H158.43V79.836C158.43 80.844 158.57 81.74 158.85 82.524C159.158 83.28 159.62 83.882 160.236 84.33C160.88 84.778 161.706 85.002 162.714 85.002C163.806 85.002 164.646 84.764 165.234 84.288C165.822 83.812 166.228 83.182 166.452 82.398C166.676 81.586 166.788 80.732 166.788 79.836V67.866H172.626V80.256C172.626 83.756 171.744 86.304 169.98 87.9C168.244 89.496 165.808 90.294 162.672 90.294ZM184.888 100.206C183.18 100.206 181.514 99.982 179.89 99.534C178.266 99.086 176.74 98.33 175.312 97.266L177.286 92.562C178.182 93.234 179.204 93.766 180.352 94.158C181.5 94.578 182.774 94.788 184.174 94.788C186.33 94.788 187.926 94.284 188.962 93.276C190.026 92.268 190.558 90.812 190.558 88.908V87.732C190.082 88.376 189.48 88.894 188.752 89.286C188.052 89.65 187.296 89.916 186.484 90.084C185.672 90.252 184.86 90.336 184.048 90.336C181.92 90.336 180.212 89.888 178.924 88.992C177.636 88.096 176.698 86.878 176.11 85.338C175.55 83.77 175.27 81.992 175.27 80.004V67.866H181.15V78.786C181.15 79.514 181.192 80.242 181.276 80.97C181.36 81.698 181.556 82.37 181.864 82.986C182.172 83.602 182.634 84.106 183.25 84.498C183.866 84.862 184.692 85.044 185.728 85.044C187.072 85.044 188.08 84.722 188.752 84.078C189.424 83.406 189.872 82.566 190.096 81.558C190.348 80.55 190.474 79.5 190.474 78.408V67.866H196.354V86.808C196.354 88.824 196.158 90.658 195.766 92.31C195.402 93.962 194.772 95.376 193.876 96.552C193.008 97.728 191.832 98.624 190.348 99.24C188.892 99.884 187.072 100.206 184.888 100.206Z" fill="white"/>
</g>
<defs>
<filter id="filter0_d_1_38" x="0" y="0" width="323" height="152" filterUnits="userSpaceOnUse" color-interpolation-filters="sRGB">
<feFlood flood-opacity="0" result="BackgroundImageFix"/>
<feColorMatrix in="SourceAlpha" type="matrix" values="0 0 0 0 0 0 0 0 0 0 0 0 0 0 0 0 0 0 127 0" result="hardAlpha"/>
<feOffset/>
<feGaussianBlur stdDeviation="15"/>
<feComposite in2="hardAlpha" operator="out"/>
<feColorMatrix type="matrix" values="0 0 0 0 0.121569 0 0 0 0 0.121569 0 0 0 0 0.121569 0 0 0 0.2 0"/>
<feBlend mode="normal" in2="BackgroundImageFix" result="effect1_dropShadow_1_38"/>
<feBlend mode="normal" in="SourceGraphic" in2="effect1_dropShadow_1_38" result="shape"/>
</filter>
</defs>
</svg>
