<svg width="34" height="41" viewBox="0 0 34 41" fill="none" xmlns="http://www.w3.org/2000/svg">
<path d="M7.27758 5.12908C10.7914 1.63468 14.9936 0.761078 16.7714 0.761078C18.5492 0.761078 22.9833 1.63468 26.497 5.12908C27.2291 4.81708 28.8814 3.94348 29.6343 2.94508C28.7977 5.23308 25.4931 10.4955 18.9675 13.2411C18.8119 12.9131 18.1549 12.2572 16.7714 12.2572C15.388 12.2572 14.9627 12.9131 14.8071 13.2411C8.28152 10.4955 4.9769 5.23308 4.14029 2.94508C4.89324 3.94348 6.54555 4.81708 7.27758 5.12908Z" fill="#1F1F1F"/>
<path d="M9.31708 12.3544C10.3067 13.0965 12.5341 14.6677 13.5267 15.0161C11.6368 15.6049 8.14906 15.8969 9.31708 12.3544Z" fill="#1F1F1F"/>
<path d="M5.37566 8.16833C5.83796 8.85391 6.91826 10.3412 7.54114 10.8058C6.54347 13.1207 5.99341 17.7504 11.7745 17.7504L11.6285 19.7587L7.34623 22.1784C9.3606 22.786 13.7447 25.5591 15.1659 31.7908L16.8712 37.6531L18.6073 31.7908C20.0285 25.5591 24.4126 22.786 26.427 22.1784L22.1447 19.7587L21.9987 17.7504C27.7798 17.7504 27.2297 13.1207 26.2321 10.8058C26.8549 10.3412 27.9352 8.85391 28.3975 8.16833C30.1945 9.95542 30.3898 13.4781 30.2628 15.0161C30.2628 26.6261 32.4448 32.0497 33.5358 33.3103L28.9137 29.7984L25.7843 34.9378L22.1447 31.7908L16.8712 40.5341L11.6285 31.7908L7.98894 34.9378L4.85948 29.7984L0.237427 33.3103C1.32841 32.0497 3.51039 26.6261 3.51039 15.0161C3.3834 13.4781 3.57866 9.95542 5.37566 8.16833Z" fill="#1F1F1F"/>
<path d="M24.4561 12.3544C23.4665 13.0965 21.2391 14.6677 20.2465 15.0161C22.1364 15.6049 25.6241 15.8969 24.4561 12.3544Z" fill="#1F1F1F"/>
<path d="M14.0707 18.3525C14.0707 16.0575 16.0326 14.9277 17.0164 14.6497C18.0003 14.9277 19.9681 16.0575 19.9681 18.3525V20.8544L22.1819 22.2222C20.4601 23.2896 17.0223 26.4721 17.0223 30.6619C17.0223 26.4721 13.5786 23.2896 11.8568 22.2222L14.0707 20.8544V18.3525Z" fill="#1F1F1F"/>
</svg>
