<svg width="39" height="33" viewBox="0 0 39 33" fill="none" xmlns="http://www.w3.org/2000/svg">
<path fill-rule="evenodd" clip-rule="evenodd" d="M34.2806 0.867409C34.7508 0.673575 35.2655 0.606724 35.771 0.673811C36.2765 0.740898 36.7544 0.939472 37.155 1.24886C37.5556 1.55826 37.8642 1.96715 38.0487 2.433C38.2332 2.89885 38.2868 3.40461 38.204 3.89765L33.8887 29.5354C33.4701 32.0085 30.6998 33.4267 28.3842 32.1948C26.4472 31.1642 23.5704 29.5764 20.9827 27.9197C19.6889 27.0904 15.7256 24.4347 16.2126 22.545C16.6312 20.9293 23.2907 14.8576 27.0961 11.2478C28.5897 9.82955 27.9085 9.01142 26.1447 10.316C21.7647 13.5549 14.7323 18.4805 12.4073 19.867C10.3562 21.0895 9.28684 21.2983 8.00823 21.0895C5.67552 20.7093 3.51216 20.1204 1.74646 19.403C-0.639519 18.4339 -0.523454 15.221 1.74456 14.2855L34.2806 0.867409Z" fill="#1F1F1F"/>
</svg>
