<svg width="241" height="62" viewBox="0 0 241 62" fill="none" xmlns="http://www.w3.org/2000/svg">
<path d="M14.3003 46.6394V42.0513C13.094 41.8359 11.9739 41.4482 10.94 40.8881C9.92757 40.3281 9.07673 39.5634 8.38743 38.5941C7.71968 37.6248 7.29964 36.44 7.12732 35.0399H11.8124C12.0278 35.7723 12.3939 36.3647 12.9109 36.817C13.4279 37.2694 14.0418 37.5925 14.7526 37.7863C15.485 37.9586 16.2281 38.0448 16.9821 38.0448C17.6929 38.0448 18.3391 37.9586 18.9207 37.7863C19.5023 37.614 19.9654 37.3447 20.3101 36.9786C20.6547 36.6124 20.827 36.1493 20.827 35.5892C20.827 35.0938 20.6978 34.6953 20.4393 34.3937C20.2023 34.0921 19.8685 33.8552 19.4377 33.6829C19.0284 33.489 18.576 33.3275 18.0806 33.1982C17.1759 32.9613 16.3358 32.7674 15.5604 32.6166C14.8065 32.4443 14.0956 32.272 13.4279 32.0997C12.7817 31.9058 12.1785 31.6688 11.6185 31.3888C10.4769 30.8719 9.56139 30.1826 8.87209 29.3209C8.20434 28.4378 7.87046 27.1884 7.87046 25.5729C7.87046 24.1943 8.17203 23.0527 8.77516 22.148C9.39983 21.2217 10.2184 20.5109 11.2308 20.0155C12.2432 19.4985 13.3094 19.1862 14.4295 19.0785V14.555H18.6945V19.1431C19.8577 19.2723 20.9024 19.6278 21.8286 20.2093C22.7549 20.7909 23.498 21.5556 24.0581 22.5034C24.6181 23.4512 24.9089 24.5821 24.9305 25.896H20.4393C20.3531 25.2498 20.127 24.7328 19.7608 24.3451C19.3946 23.9358 18.9099 23.6343 18.3068 23.4404C17.7037 23.225 17.0251 23.1173 16.2712 23.1173C15.6466 23.0958 15.0434 23.1604 14.4618 23.3112C13.9018 23.4619 13.4387 23.7097 13.0725 24.0543C12.7063 24.3774 12.5232 24.8405 12.5232 25.4437C12.5232 25.8745 12.6309 26.2514 12.8463 26.5745C13.0617 26.8761 13.3525 27.1346 13.7187 27.35C14.1064 27.5439 14.5372 27.727 15.0111 27.8993C15.6789 28.1362 16.4328 28.3409 17.2729 28.5132C18.1129 28.664 18.8776 28.8471 19.5669 29.0625C20.7732 29.364 21.8179 29.741 22.701 30.1933C23.5842 30.6241 24.2627 31.2273 24.7366 32.0027C25.232 32.7566 25.4797 33.7798 25.4797 35.0722C25.4797 36.5585 25.1674 37.8079 24.5427 38.8203C23.9396 39.8111 23.1103 40.5758 22.0548 41.1143C21.0209 41.6528 19.8469 41.9975 18.533 42.1483V46.6394H14.3003Z" fill="#1F1F1F"/>
<path d="M29.4567 42.0513V19.1754H38.3745C40.1192 19.1754 41.6378 19.4447 42.9303 19.9832C44.2442 20.5001 45.2566 21.3402 45.9675 22.5034C46.6783 23.645 47.0337 25.1744 47.0337 27.0915C47.0337 28.8794 46.6352 30.3764 45.8382 31.5827C45.0628 32.7889 43.9965 33.6936 42.6395 34.2968C41.2824 34.8784 39.7423 35.1692 38.019 35.1692H34.0771V42.0513H29.4567ZM34.0771 31.0334H37.9544C39.333 31.0334 40.4208 30.7103 41.2178 30.0641C42.0363 29.3963 42.4456 28.3947 42.4456 27.0592C42.4456 25.8745 42.101 24.9805 41.4117 24.3774C40.7439 23.7743 39.6669 23.4727 38.1806 23.4727H34.0771V31.0334Z" fill="#1F1F1F"/>
<path d="M60.5822 42.3098C58.2343 42.3098 56.2095 41.8144 54.5078 40.8235C52.8277 39.8327 51.5352 38.4648 50.6305 36.7201C49.7474 34.9538 49.3058 32.929 49.3058 30.6457C49.3058 28.3193 49.7581 26.273 50.6628 24.5067C51.5891 22.7403 52.903 21.3725 54.6047 20.4032C56.3064 19.4124 58.3312 18.9169 60.6791 18.9169C63.0055 18.9169 65.0088 19.4016 66.6889 20.3709C68.3691 21.3402 69.6615 22.6973 70.5662 24.442C71.4924 26.1868 71.9555 28.2224 71.9555 30.5487C71.9555 32.832 71.4924 34.8676 70.5662 36.6555C69.6615 38.4218 68.3583 39.8111 66.6566 40.8235C64.9764 41.8144 62.9516 42.3098 60.5822 42.3098ZM60.6468 37.9802C62.1977 37.9802 63.4578 37.6248 64.4272 36.9139C65.3965 36.2031 66.0965 35.2876 66.5274 34.1675C66.9797 33.0474 67.2059 31.8735 67.2059 30.6457C67.2059 29.741 67.0766 28.8471 66.8182 27.9639C66.5812 27.0807 66.2042 26.2837 65.6873 25.5729C65.1703 24.8621 64.4918 24.302 63.6517 23.8928C62.8116 23.4619 61.7992 23.2465 60.6145 23.2465C59.0851 23.2465 57.8358 23.602 56.8665 24.3128C55.8972 25.0021 55.1756 25.9068 54.7017 27.0269C54.2493 28.147 54.0231 29.3425 54.0231 30.6134C54.0231 31.8842 54.2493 33.0797 54.7017 34.1998C55.1756 35.3199 55.8972 36.2354 56.8665 36.9462C57.8573 37.6355 59.1175 37.9802 60.6468 37.9802Z" fill="#1F1F1F"/>
<path d="M75.5562 42.0513V19.1754H84.7647C85.9063 19.1754 86.9941 19.2939 88.028 19.5308C89.0835 19.7462 90.0313 20.1232 90.8714 20.6617C91.7115 21.2002 92.3684 21.9541 92.8423 22.9234C93.3378 23.8712 93.5855 25.0882 93.5855 26.5745C93.5855 27.6731 93.4024 28.664 93.0362 29.5471C92.67 30.4303 92.1315 31.1842 91.4207 31.8089C90.7098 32.4335 89.859 32.9182 88.8681 33.2628L93.9409 42.0513H88.7389L84.28 34.006H80.1766V42.0513H75.5562ZM80.1766 29.9025H84.4416C85.1093 29.9025 85.7125 29.8487 86.251 29.741C86.811 29.6117 87.2849 29.4179 87.6726 29.1594C88.0819 28.9009 88.3942 28.5563 88.6096 28.1254C88.8466 27.6946 88.9651 27.1669 88.9651 26.5422C88.9866 25.7452 88.8143 25.1313 88.4481 24.7005C88.1034 24.2482 87.608 23.9358 86.9618 23.7635C86.3371 23.5697 85.594 23.4727 84.7324 23.4727H80.1766V29.9025Z" fill="#1F1F1F"/>
<path d="M97.8328 42.0513V19.1754H102.55L113.116 34.6522V19.1754H117.736V42.0513H113.148L102.453 26.7361V42.0513H97.8328Z" fill="#1F1F1F"/>
<path d="M123.923 15.6802C123.923 10.9566 127.752 7.12735 132.475 7.12735H223.705C228.429 7.12735 232.258 10.9566 232.258 15.6802V45.615C232.258 50.3386 228.429 54.1678 223.705 54.1678H132.475C127.752 54.1678 123.923 50.3386 123.923 45.615V15.6802Z" fill="#FF5004"/>
<path d="M147.089 42.3098C145.495 42.3098 144.009 42.0621 142.63 41.5667C141.273 41.0712 140.132 40.285 139.206 39.208C138.301 38.131 137.73 36.7416 137.493 35.0399H142.21C142.404 35.7723 142.76 36.3647 143.277 36.817C143.794 37.2478 144.408 37.5601 145.118 37.754C145.851 37.9479 146.615 38.0448 147.412 38.0448C148.016 38.0448 148.608 37.9694 149.189 37.8186C149.771 37.6678 150.245 37.4094 150.611 37.0432C150.999 36.677 151.193 36.1816 151.193 35.5569C151.193 35.083 151.085 34.6953 150.87 34.3937C150.676 34.0921 150.385 33.8552 149.997 33.6829C149.631 33.489 149.179 33.3167 148.64 33.1659C148.188 33.0367 147.714 32.929 147.219 32.8428C146.745 32.7566 146.271 32.6489 145.797 32.5197C145.345 32.3904 144.903 32.2397 144.472 32.0673C143.654 31.8519 142.867 31.5935 142.113 31.2919C141.36 30.9688 140.692 30.5703 140.11 30.0964C139.529 29.601 139.066 28.9871 138.721 28.2547C138.398 27.5223 138.236 26.6392 138.236 25.6052C138.236 24.4851 138.419 23.5373 138.785 22.7619C139.173 21.9864 139.679 21.351 140.304 20.8556C140.95 20.3386 141.661 19.9401 142.437 19.6601C143.234 19.38 144.031 19.1862 144.828 19.0785C145.625 18.9708 146.378 18.9169 147.089 18.9169C148.576 18.9169 149.911 19.1754 151.096 19.6924C152.281 20.2093 153.25 20.9848 154.004 22.0187C154.758 23.0527 155.188 24.3559 155.296 25.9283H150.805C150.719 25.2821 150.482 24.7544 150.094 24.3451C149.706 23.9358 149.211 23.6343 148.608 23.4404C148.026 23.2465 147.369 23.1496 146.637 23.1496C146.163 23.1496 145.7 23.1927 145.248 23.2789C144.795 23.365 144.386 23.505 144.02 23.6989C143.675 23.8712 143.395 24.1082 143.18 24.4097C142.986 24.7113 142.889 25.0775 142.889 25.5083C142.889 25.9391 143.007 26.3161 143.244 26.6392C143.481 26.9407 143.826 27.21 144.278 27.4469C144.752 27.6623 145.301 27.867 145.926 28.0608C146.572 28.2762 147.251 28.4486 147.962 28.5778C148.673 28.707 149.351 28.8794 149.997 29.0948C150.816 29.3102 151.58 29.5687 152.291 29.8702C153.002 30.1502 153.627 30.5164 154.165 30.9688C154.704 31.3996 155.124 31.9596 155.425 32.6489C155.727 33.3167 155.878 34.146 155.878 35.1369C155.878 36.4508 155.63 37.5709 155.135 38.4972C154.661 39.4019 154.004 40.1342 153.164 40.6943C152.345 41.2543 151.408 41.6636 150.353 41.9221C149.297 42.1806 148.209 42.3098 147.089 42.3098Z" fill="white"/>
<path d="M164.323 42.0513V23.4727H157.344V19.1754H175.988V23.4727H168.976V42.0513H164.323Z" fill="white"/>
<path d="M174.314 42.0513L183.232 19.1754H188.401L197.222 42.0513H192.246L190.825 38.1417H180.712L179.29 42.0513H174.314ZM182.198 33.9737H189.371L185.817 24.0866L182.198 33.9737Z" fill="white"/>
<path d="M199.676 42.0513V19.1754H208.884C210.026 19.1754 211.114 19.2939 212.148 19.5308C213.203 19.7462 214.151 20.1232 214.991 20.6617C215.831 21.2002 216.488 21.9541 216.962 22.9234C217.457 23.8712 217.705 25.0882 217.705 26.5745C217.705 27.6731 217.522 28.664 217.156 29.5471C216.79 30.4303 216.251 31.1842 215.54 31.8089C214.83 32.4335 213.979 32.9182 212.988 33.2628L218.061 42.0513H212.859L208.4 34.006H204.296V42.0513H199.676ZM204.296 29.9025H208.561C209.229 29.9025 209.832 29.8487 210.371 29.741C210.931 29.6117 211.405 29.4179 211.792 29.1594C212.202 28.9009 212.514 28.5563 212.729 28.1254C212.966 27.6946 213.085 27.1669 213.085 26.5422C213.106 25.7452 212.934 25.1313 212.568 24.7005C212.223 24.2482 211.728 23.9358 211.081 23.7635C210.457 23.5697 209.714 23.4727 208.852 23.4727H204.296V29.9025Z" fill="white"/>
</svg>
