<svg width="36" height="41" viewBox="0 0 36 41" fill="none" xmlns="http://www.w3.org/2000/svg">
<path fill-rule="evenodd" clip-rule="evenodd" d="M13.9226 2.59987C11.515 3.86282 9.54517 4.93153 9.54559 4.975C9.54667 5.08719 15.324 8.03349 15.5291 8.02631C15.6224 8.02317 16.299 7.70951 17.0327 7.32938L18.3669 6.63836L21.2811 8.1469L23.6672 7.06721C27.2627 5.44028 27.6361 5.26199 27.5776 5.2021C27.4999 5.12263 26.2103 4.42499 22.7115 2.57011C21.0205 1.67362 19.3793 0.794651 19.0642 0.616791C18.7492 0.438931 18.4485 0.295854 18.3959 0.298624C18.3434 0.301393 16.3303 1.33696 13.9226 2.59987ZM3.36267 8.10635L0.856328 9.41L0.856328 15.1315C0.856328 18.2783 0.889239 20.8529 0.929608 20.8529C0.969838 20.8529 2.20296 20.3146 3.66982 19.6567L6.33685 18.4606L6.33685 12.4298L7.64013 13.1448C8.64442 13.6952 9.64932 14.2446 10.6548 14.7928L12.3662 15.7259L13.1277 15.3791C13.6053 15.1613 14.0819 14.9414 14.5576 14.7193C14.9251 14.547 15.8274 14.1377 16.5626 13.8097C17.2978 13.4816 17.9783 13.1517 18.0748 13.0765C18.203 12.9766 16.6399 12.1068 12.2933 9.85913C9.01692 8.16488 6.23112 6.78406 6.10265 6.79068C5.97418 6.7973 4.74119 7.38927 3.36267 8.10635ZM28.0293 8.47244C26.3223 9.24843 24.9245 9.91433 24.9229 9.95231C24.9214 9.99024 25.8518 10.5473 26.9905 11.19C28.1291 11.8329 29.0608 12.3932 29.0608 12.4354C29.0608 12.4775 28.0532 12.9691 26.8219 13.5281C25.5903 14.0869 22.4775 15.5025 19.9044 16.6738L11.2826 20.5982C9.11384 21.5855 7.15892 22.4753 6.93838 22.5759C2.50848 24.5953 1.29088 25.1556 1.12367 25.2518C0.955527 25.3486 0.917442 25.9112 0.887514 28.7349L0.851807 32.1026L5.33433 34.4025L8.44215 32.9901C10.1515 32.2134 11.55 31.5372 11.55 31.4874C11.55 31.4377 11.2341 31.2305 10.8482 31.0266C10.4622 30.8228 9.66521 30.3716 9.07706 30.0238C8.48896 29.6759 7.90253 29.3568 7.77378 29.3144C7.64507 29.2722 7.54163 29.1984 7.54373 29.1502C7.54587 29.1022 8.91442 28.4476 10.5848 27.6955C13.8291 26.2348 16.3119 25.109 21.6421 22.6817C24.0256 21.5966 26.4094 20.5121 28.7935 19.4282C30.8887 18.4759 33.3249 17.3636 34.2071 16.9565L35.8112 16.2164L35.8827 9.40436L33.6095 8.22943C32.3591 7.58328 31.2904 7.05618 31.2344 7.0581C31.1784 7.05989 29.7361 7.69627 28.0293 8.47244ZM35.2021 20.7603C34.8672 20.9251 34.2055 21.2336 33.7318 21.4458C33.2581 21.658 32.3591 22.0665 31.7342 22.3536L30.598 22.8754L30.5721 25.8657C30.5578 27.5103 30.4976 28.8486 30.4384 28.8399C30.304 28.8197 28.1745 27.72 26.0339 26.565C24.4889 25.7314 24.3918 25.6983 24.0288 25.8793C23.8189 25.9841 22.5644 26.5506 21.2411 27.1385C19.9177 27.7264 18.7919 28.2457 18.7389 28.2928C18.6861 28.3397 21.3495 29.7934 24.6577 31.5232L30.6725 34.6684L33.2419 33.33C34.6549 32.594 35.8565 31.9226 35.9118 31.8381C36.0364 31.6482 36.0257 20.4347 35.901 20.4499C35.8517 20.4558 35.5371 20.5956 35.2021 20.7603ZM20.9738 33.9222C20.5281 34.1151 20.0825 34.3084 19.6371 34.5019C18.2919 35.0879 18.5555 35.1073 16.9552 34.3051C15.8893 33.7708 15.4299 33.606 15.2305 33.686C15.0809 33.746 13.7935 34.3292 12.3694 34.982C10.9454 35.6348 9.73085 36.1689 9.67043 36.1689C9.07296 36.1689 10.0662 36.7666 13.8991 38.7135L18.3942 40.9966L20.2855 40.0563C21.3257 39.5392 23.4238 38.5036 24.948 37.7551C26.4721 37.0064 27.7003 36.3744 27.6773 36.3506C27.6542 36.3268 26.3771 35.6664 24.8392 34.8831L22.0431 33.459L20.9738 33.9222Z" fill="#1F1F1F"/>
</svg>
