<svg width="200" height="76" viewBox="0 0 200 76" fill="none" xmlns="http://www.w3.org/2000/svg">
<rect width="200" height="76" rx="38" fill="#F7EEA5"/>
<path d="M42.4551 48C42.5717 47.9 42.7134 47.625 42.8801 47.175C43.0467 46.725 43.2051 46.1 43.3551 45.3C43.5051 44.4833 43.6301 43.4833 43.7301 42.3C43.8467 41.1167 43.9051 39.7417 43.9051 38.175V37.45C43.9051 35.9333 43.8467 34.6083 43.7301 33.475C43.6301 32.325 43.5051 31.3667 43.3551 30.6C43.2051 29.8167 43.0467 29.2083 42.8801 28.775C42.7134 28.3417 42.5801 28.075 42.4801 27.975H47.2801C47.8801 27.9417 48.5551 27.9167 49.3051 27.9C50.0717 27.8833 50.8467 27.9167 51.6301 28C52.4301 28.0667 53.2051 28.1917 53.9551 28.375C54.7217 28.5583 55.3884 28.8417 55.9551 29.225C56.5384 29.5917 56.9967 30.0667 57.3301 30.65C57.6801 31.2333 57.8384 31.9583 57.8051 32.825C57.7551 33.8917 57.4384 34.7833 56.8551 35.5C56.2884 36.2 55.5717 36.75 54.7051 37.15C55.4051 37.2333 56.0717 37.4 56.7051 37.65C57.3384 37.8833 57.8884 38.2333 58.3551 38.7C58.8384 39.15 59.2134 39.7167 59.4801 40.4C59.7467 41.0833 59.8634 41.9083 59.8301 42.875C59.7967 43.9917 59.5717 44.925 59.1551 45.675C58.7551 46.425 58.2217 47.025 57.5551 47.475C56.8884 47.9083 56.1217 48.2167 55.2551 48.4C54.4051 48.5833 53.5051 48.675 52.5551 48.675C51.6551 48.675 50.7551 48.6083 49.8551 48.475C48.9551 48.3417 48.0884 48.1833 47.2551 48H42.4551ZM55.9551 42.775C56.0884 41.8083 56.0217 41.0167 55.7551 40.4C55.5051 39.7833 55.1301 39.2917 54.6301 38.925C54.1467 38.5583 53.5717 38.2917 52.9051 38.125C52.2384 37.9583 51.5634 37.85 50.8801 37.8C50.1967 37.7333 49.5301 37.7083 48.8801 37.725C48.2467 37.725 47.7051 37.7167 47.2551 37.7V47.725C48.6551 47.8583 49.8717 47.85 50.9051 47.7C51.9551 47.5333 52.8301 47.2417 53.5301 46.825C54.2301 46.3917 54.7801 45.8333 55.1801 45.15C55.5801 44.4667 55.8384 43.675 55.9551 42.775ZM53.7301 33.45C53.9301 32.2667 53.8801 31.325 53.5801 30.625C53.2801 29.9083 52.8134 29.375 52.1801 29.025C51.5634 28.6583 50.8217 28.425 49.9551 28.325C49.0884 28.225 48.1967 28.1917 47.2801 28.225L47.2551 37.45C48.4884 37.4833 49.4967 37.4 50.2801 37.2C51.0801 37 51.7134 36.725 52.1801 36.375C52.6634 36.0083 53.0134 35.575 53.2301 35.075C53.4634 34.5583 53.6301 34.0167 53.7301 33.45ZM59.3301 27.95H61.1051C61.5717 27.95 62.0467 27.9917 62.5301 28.075C63.0134 28.1417 63.4551 28.35 63.8551 28.7C64.2551 29.0333 64.5967 29.5583 64.8801 30.275C65.1634 30.975 65.3301 31.9667 65.3801 33.25C65.4301 34.3333 65.3884 35.3833 65.2551 36.4C65.1217 37.4167 64.9551 38.3917 64.7551 39.325C64.5551 40.2417 64.3467 41.1083 64.1301 41.925C63.9301 42.7417 63.7801 43.4917 63.6801 44.175C63.5801 44.8583 63.5551 45.4667 63.6051 46C63.6717 46.5333 63.8717 46.9833 64.2051 47.35C64.5217 47.6833 64.8801 47.925 65.2801 48.075C65.6801 48.2417 66.0967 48.325 66.5301 48.325C66.9801 48.325 67.4384 48.2417 67.9051 48.075C68.3884 47.925 68.8467 47.7 69.2801 47.4C69.7134 47.0833 70.1134 46.7 70.4801 46.25C70.8634 45.8 71.1884 45.2917 71.4551 44.725L71.4801 36.65C71.4801 35.0667 71.4217 33.75 71.3051 32.7C71.1884 31.6333 71.0467 30.775 70.8801 30.125C70.7301 29.4583 70.5634 28.9583 70.3801 28.625C70.2134 28.2917 70.0717 28.075 69.9551 27.975H76.2051C76.0717 28.0917 75.9217 28.35 75.7551 28.75C75.5884 29.1333 75.4301 29.675 75.2801 30.375C75.1467 31.075 75.0301 31.95 74.9301 33C74.8301 34.0333 74.7801 35.25 74.7801 36.65V38.2C74.7801 39.7667 74.8217 41.1417 74.9051 42.325C75.0051 43.4917 75.1301 44.4833 75.2801 45.3C75.4301 46.1 75.5884 46.725 75.7551 47.175C75.9217 47.6083 76.0717 47.8833 76.2051 48H71.4551V45.175C71.0884 45.8417 70.6717 46.4 70.2051 46.85C69.7384 47.2833 69.2634 47.6333 68.7801 47.9C68.3134 48.1667 67.8634 48.35 67.4301 48.45C66.9967 48.55 66.6134 48.5917 66.2801 48.575C65.4967 48.5417 64.8217 48.3417 64.2551 47.975C63.7051 47.6083 63.2384 47.125 62.8551 46.525C62.4884 45.925 62.1967 45.2333 61.9801 44.45C61.7801 43.6667 61.6217 42.8417 61.5051 41.975C61.4051 41.1083 61.3467 40.225 61.3301 39.325C61.3134 38.4083 61.3051 37.525 61.3051 36.675C61.3217 35.825 61.3384 35.0333 61.3551 34.3C61.3717 33.5667 61.3634 32.9417 61.3301 32.425C61.2801 31.4917 61.1634 30.7333 60.9801 30.15C60.8134 29.5667 60.6217 29.1167 60.4051 28.8C60.2051 28.4667 59.9967 28.2417 59.7801 28.125C59.5801 28.0083 59.4301 27.95 59.3301 27.95ZM84.0004 39.525C83.4004 39.175 82.8587 38.75 82.3754 38.25C81.8921 37.75 81.4587 37.2083 81.0754 36.625C80.7087 36.025 80.3837 35.3917 80.1004 34.725C79.8337 34.0583 79.6087 33.3917 79.4254 32.725C79.2087 31.875 78.9754 31.1583 78.7254 30.575C78.4921 29.975 78.2671 29.4833 78.0504 29.1C77.8337 28.7167 77.6337 28.4417 77.4504 28.275C77.2837 28.0917 77.1504 27.9917 77.0504 27.975H77.0254H77.0504H78.8004C79.2671 27.975 79.7337 28.0167 80.2004 28.1C80.6837 28.1833 81.1254 28.35 81.5254 28.6C81.9254 28.8333 82.2671 29.175 82.5504 29.625C82.8337 30.075 83.0254 30.6667 83.1254 31.4C83.2254 32.0667 83.3754 32.775 83.5754 33.525C83.7921 34.275 84.0671 35.0417 84.4004 35.825C84.7337 36.5917 85.1254 37.3583 85.5754 38.125C86.0254 38.8917 86.5254 39.625 87.0754 40.325L89.7504 33.125C89.9171 32.6917 90.0837 32.1917 90.2504 31.625C90.4171 31.0583 90.5337 30.5167 90.6004 30C90.6671 29.4833 90.6587 29.0333 90.5754 28.65C90.4921 28.2667 90.2754 28.0417 89.9254 27.975H93.5254C92.9921 28.1417 92.4421 28.5917 91.8754 29.325C91.3087 30.0417 90.8004 31.0083 90.3504 32.225L87.3004 40.425C87.3171 41.9917 87.3754 43.25 87.4754 44.2C87.5754 45.1333 87.6921 45.8667 87.8254 46.4C87.9754 46.9167 88.1254 47.2833 88.2754 47.5C88.4421 47.7167 88.5921 47.8833 88.7254 48H82.5004C82.6004 47.9 82.7254 47.6917 82.8754 47.375C83.0421 47.0417 83.2004 46.55 83.3504 45.9C83.5171 45.25 83.6587 44.4083 83.7754 43.375C83.8921 42.3417 83.9671 41.0583 84.0004 39.525ZM105.285 31.475C105.602 30.5917 105.993 29.9 106.46 29.4C106.943 28.9 107.443 28.5333 107.96 28.3C108.493 28.05 109.01 27.9 109.51 27.85C110.01 27.8 110.435 27.7917 110.785 27.825C111.735 27.9083 112.51 28.2583 113.11 28.875C113.71 29.4917 114.185 30.2667 114.535 31.2C114.885 32.1333 115.135 33.175 115.285 34.325C115.452 35.475 115.56 36.6167 115.61 37.75C115.66 38.8833 115.685 39.9667 115.685 41C115.685 42.0167 115.702 42.875 115.735 43.575C115.785 44.5083 115.893 45.2667 116.06 45.85C116.243 46.4333 116.435 46.8917 116.635 47.225C116.835 47.5417 117.035 47.7583 117.235 47.875C117.435 47.9917 117.585 48.05 117.685 48.05H115.96C115.493 48.05 115.002 48.0167 114.485 47.95C113.985 47.8667 113.527 47.6583 113.11 47.325C112.693 46.975 112.352 46.4417 112.085 45.725C111.818 45.0083 111.685 44.0167 111.685 42.75C111.685 41.6833 111.76 40.6667 111.91 39.7C112.06 38.7167 112.227 37.7833 112.41 36.9C112.593 36.0167 112.777 35.1917 112.96 34.425C113.16 33.6417 113.302 32.925 113.385 32.275C113.468 31.6083 113.477 31.0167 113.41 30.5C113.36 29.9667 113.177 29.5083 112.86 29.125C112.577 28.775 112.202 28.5083 111.735 28.325C111.268 28.1417 110.768 28.05 110.235 28.05C109.768 28.05 109.285 28.125 108.785 28.275C108.302 28.425 107.835 28.65 107.385 28.95C106.952 29.25 106.56 29.6333 106.21 30.1C105.86 30.5667 105.585 31.125 105.385 31.775C105.435 32.0083 105.468 32.4333 105.485 33.05C105.518 33.6667 105.535 34.325 105.535 35.025C105.552 35.7083 105.56 36.3583 105.56 36.975C105.577 37.575 105.585 37.9833 105.585 38.2C105.585 39.7667 105.635 41.1417 105.735 42.325C105.835 43.4917 105.96 44.4833 106.11 45.3C106.26 46.1 106.418 46.725 106.585 47.175C106.752 47.6083 106.902 47.8833 107.035 48H100.81C100.91 47.9 101.043 47.625 101.21 47.175C101.377 46.725 101.535 46.1 101.685 45.3C101.852 44.4833 101.993 43.4833 102.11 42.3C102.227 41.1167 102.285 39.7417 102.285 38.175V36.65C102.285 35.0667 102.227 33.75 102.11 32.7C101.993 31.6333 101.852 30.7667 101.685 30.1C101.535 29.4333 101.377 28.9333 101.21 28.6C101.043 28.2667 100.902 28.05 100.785 27.95C101.468 28 102.06 28.0917 102.56 28.225C103.06 28.3417 103.485 28.5333 103.835 28.8C104.202 29.0667 104.493 29.4167 104.71 29.85C104.943 30.2667 105.135 30.8083 105.285 31.475ZM125.882 27.775C126.966 27.775 127.982 28.05 128.932 28.6C129.899 29.1333 130.741 29.8667 131.457 30.8C132.174 31.7167 132.741 32.8 133.157 34.05C133.574 35.2833 133.782 36.6083 133.782 38.025C133.782 39.4417 133.574 40.775 133.157 42.025C132.741 43.275 132.174 44.3667 131.457 45.3C130.741 46.2167 129.899 46.95 128.932 47.5C127.982 48.0333 126.966 48.3 125.882 48.3C124.799 48.3 123.774 48.0333 122.807 47.5C121.857 46.95 121.024 46.2167 120.307 45.3C119.591 44.3667 119.024 43.275 118.607 42.025C118.191 40.775 117.982 39.4417 117.982 38.025C117.982 36.6083 118.191 35.2833 118.607 34.05C119.024 32.8 119.591 31.7167 120.307 30.8C121.024 29.8667 121.857 29.1333 122.807 28.6C123.774 28.05 124.799 27.775 125.882 27.775ZM122.107 38.9C122.441 40.9 122.841 42.5 123.307 43.7C123.791 44.9 124.291 45.8167 124.807 46.45C125.324 47.0667 125.824 47.4583 126.307 47.625C126.807 47.775 127.232 47.8 127.582 47.7C127.899 47.6167 128.249 47.4 128.632 47.05C129.016 46.7 129.341 46.1333 129.607 45.35C129.874 44.55 130.032 43.5 130.082 42.2C130.149 40.8833 130.016 39.2333 129.682 37.25C129.332 35.1333 128.907 33.475 128.407 32.275C127.907 31.0583 127.407 30.1583 126.907 29.575C126.407 28.9917 125.932 28.6333 125.482 28.5C125.049 28.3667 124.699 28.3167 124.432 28.35C124.032 28.4 123.624 28.5833 123.207 28.9C122.791 29.2167 122.441 29.7667 122.157 30.55C121.874 31.3167 121.707 32.375 121.657 33.725C121.607 35.0583 121.757 36.7833 122.107 38.9ZM134.146 28H135.871C136.337 28 136.804 28.0333 137.271 28.1C137.737 28.15 138.162 28.3 138.546 28.55C138.929 28.7833 139.254 29.15 139.521 29.65C139.787 30.1333 139.946 30.8083 139.996 31.675C140.012 32.0083 140.012 32.525 139.996 33.225C139.996 33.925 139.996 34.7333 139.996 35.65C140.012 36.55 140.037 37.525 140.071 38.575C140.121 39.6083 140.196 40.6333 140.296 41.65C140.412 42.65 140.571 43.6 140.771 44.5C140.971 45.4 141.237 46.175 141.571 46.825C141.837 47.325 142.196 47.575 142.646 47.575C142.896 47.575 143.154 47.4917 143.421 47.325C143.687 47.1583 143.937 46.925 144.171 46.625C144.421 46.325 144.646 45.9667 144.846 45.55C145.062 45.1333 145.237 44.6667 145.371 44.15C145.071 43.2333 144.862 42.25 144.746 41.2C144.646 40.15 144.587 39.125 144.571 38.125C144.554 37.125 144.554 36.2 144.571 35.35C144.604 34.5 144.604 33.8167 144.571 33.3C144.504 32.1667 144.379 31.2583 144.196 30.575C144.029 29.875 143.837 29.3417 143.621 28.975C143.421 28.5917 143.221 28.3417 143.021 28.225C142.821 28.0917 142.671 28.025 142.571 28.025L144.296 28.05C144.762 28.05 145.229 28.0833 145.696 28.15C146.162 28.2 146.587 28.35 146.971 28.6C147.354 28.8333 147.679 29.2 147.946 29.7C148.212 30.1833 148.371 30.8583 148.421 31.725C148.437 32.0583 148.446 32.5667 148.446 33.25C148.446 33.9167 148.454 34.6917 148.471 35.575C148.487 36.4583 148.512 37.4083 148.546 38.425C148.596 39.425 148.671 40.425 148.771 41.425C148.887 42.425 149.037 43.3917 149.221 44.325C149.421 45.2417 149.671 46.0417 149.971 46.725C150.204 47.275 150.562 47.55 151.046 47.55C151.429 47.55 151.837 47.3167 152.271 46.85C152.721 46.3667 153.121 45.5833 153.471 44.5C153.837 43.4 154.112 41.975 154.296 40.225C154.496 38.475 154.529 36.325 154.396 33.775C154.379 33.4083 154.371 32.9417 154.371 32.375C154.387 31.8083 154.354 31.25 154.271 30.7C154.204 30.1333 154.062 29.6333 153.846 29.2C153.629 28.7667 153.287 28.5083 152.821 28.425C153.204 28.2083 153.587 28.0583 153.971 27.975C154.354 27.875 154.721 27.825 155.071 27.825C155.554 27.825 155.987 27.9167 156.371 28.1C156.771 28.2667 157.071 28.5083 157.271 28.825C157.471 29.125 157.562 29.4833 157.546 29.9C157.546 30.3 157.387 30.7333 157.071 31.2C156.887 31.4667 156.704 31.6917 156.521 31.875C156.354 32.0417 156.187 32.225 156.021 32.425C155.854 32.625 155.696 32.8583 155.546 33.125C155.396 33.3917 155.262 33.75 155.146 34.2C155.029 34.65 154.929 35.225 154.846 35.925C154.762 36.625 154.704 37.5 154.671 38.55C154.554 41.65 154.129 44 153.396 45.6C152.679 47.2 151.696 48.025 150.446 48.075C149.179 48.125 148.146 47.8417 147.346 47.225C146.546 46.5917 145.937 45.7 145.521 44.55C145.271 45.4 144.896 46.15 144.396 46.8C143.896 47.45 143.237 47.8417 142.421 47.975C141.471 48.125 140.654 48.075 139.971 47.825C139.287 47.575 138.712 47.1917 138.246 46.675C137.779 46.1417 137.404 45.5 137.121 44.75C136.854 44 136.646 43.2 136.496 42.35C136.346 41.5 136.246 40.6333 136.196 39.75C136.162 38.85 136.146 37.9917 136.146 37.175C136.146 36.3583 136.154 35.6083 136.171 34.925C136.187 34.2417 136.179 33.6833 136.146 33.25C136.079 32.1167 135.954 31.2083 135.771 30.525C135.604 29.8417 135.412 29.3167 135.196 28.95C134.996 28.5667 134.796 28.3167 134.596 28.2C134.396 28.0667 134.246 28 134.146 28Z" fill="#B25805"/>
</svg>
