<svg width="144" height="68" viewBox="0 0 144 68" fill="none" xmlns="http://www.w3.org/2000/svg">
<rect x="1" y="1" width="142" height="66" rx="33" stroke="white" stroke-width="2"/>
<path d="M44.7594 44C44.8838 43.8933 45.0349 43.6 45.2127 43.12C45.3905 42.64 45.5594 41.9733 45.7194 41.12C45.8794 40.2489 46.0127 39.1822 46.1194 37.92C46.2438 36.6578 46.306 35.1911 46.306 33.52V32.7467C46.306 31.1289 46.2438 29.7156 46.1194 28.5067C46.0127 27.28 45.8794 26.2578 45.7194 25.44C45.5594 24.6044 45.3905 23.9556 45.2127 23.4933C45.0349 23.0311 44.8927 22.7467 44.786 22.64H49.906C50.546 22.6044 51.266 22.5778 52.066 22.56C52.8838 22.5422 53.7105 22.5778 54.546 22.6667C55.3994 22.7378 56.226 22.8711 57.026 23.0667C57.8438 23.2622 58.5549 23.5644 59.1594 23.9733C59.7816 24.3644 60.2705 24.8711 60.626 25.4933C60.9994 26.1156 61.1683 26.8889 61.1327 27.8133C61.0794 28.9511 60.7416 29.9022 60.1194 30.6667C59.5149 31.4133 58.7505 32 57.826 32.4267C58.5727 32.5156 59.2838 32.6933 59.9594 32.96C60.6349 33.2089 61.2216 33.5822 61.7194 34.08C62.2349 34.56 62.6349 35.1644 62.9194 35.8933C63.2038 36.6222 63.3283 37.5022 63.2927 38.5333C63.2572 39.7244 63.0172 40.72 62.5727 41.52C62.146 42.32 61.5772 42.96 60.866 43.44C60.1549 43.9022 59.3372 44.2311 58.4127 44.4267C57.506 44.6222 56.546 44.72 55.5327 44.72C54.5727 44.72 53.6127 44.6489 52.6527 44.5067C51.6927 44.3644 50.7683 44.1956 49.8794 44H44.7594ZM59.1594 38.4267C59.3016 37.3956 59.2305 36.5511 58.946 35.8933C58.6794 35.2356 58.2794 34.7111 57.746 34.32C57.2305 33.9289 56.6172 33.6444 55.906 33.4667C55.1949 33.2889 54.4749 33.1733 53.746 33.12C53.0172 33.0489 52.306 33.0222 51.6127 33.04C50.9372 33.04 50.3594 33.0311 49.8794 33.0133V43.7067C51.3727 43.8489 52.6705 43.84 53.7727 43.68C54.8927 43.5022 55.826 43.1911 56.5727 42.7467C57.3194 42.2844 57.906 41.6889 58.3327 40.96C58.7594 40.2311 59.0349 39.3867 59.1594 38.4267ZM56.786 28.48C56.9994 27.2178 56.946 26.2133 56.626 25.4667C56.306 24.7022 55.8083 24.1333 55.1327 23.76C54.4749 23.3689 53.6838 23.12 52.7594 23.0133C51.8349 22.9067 50.8838 22.8711 49.906 22.9067L49.8794 32.7467C51.1949 32.7822 52.2705 32.6933 53.106 32.48C53.9594 32.2667 54.6349 31.9733 55.1327 31.6C55.6483 31.2089 56.0216 30.7467 56.2527 30.2133C56.5016 29.6622 56.6794 29.0844 56.786 28.48ZM62.7594 22.6133H64.6527C65.1505 22.6133 65.6572 22.6578 66.1727 22.7467C66.6883 22.8178 67.1594 23.04 67.586 23.4133C68.0127 23.7689 68.3772 24.3289 68.6794 25.0933C68.9816 25.84 69.1594 26.8978 69.2127 28.2667C69.266 29.4222 69.2216 30.5422 69.0794 31.6267C68.9372 32.7111 68.7594 33.7511 68.546 34.7467C68.3327 35.7244 68.1105 36.6489 67.8794 37.52C67.666 38.3911 67.506 39.1911 67.3994 39.92C67.2927 40.6489 67.266 41.2978 67.3194 41.8667C67.3905 42.4356 67.6038 42.9156 67.9594 43.3067C68.2972 43.6622 68.6794 43.92 69.106 44.08C69.5327 44.2578 69.9772 44.3467 70.4394 44.3467C70.9194 44.3467 71.4083 44.2578 71.906 44.08C72.4216 43.92 72.9105 43.68 73.3727 43.36C73.8349 43.0222 74.2616 42.6133 74.6527 42.1333C75.0616 41.6533 75.4083 41.1111 75.6927 40.5067L75.7194 31.8933C75.7194 30.2044 75.6572 28.8 75.5327 27.68C75.4083 26.5422 75.2572 25.6267 75.0794 24.9333C74.9194 24.2222 74.7416 23.6889 74.546 23.3333C74.3683 22.9778 74.2172 22.7467 74.0927 22.64H80.7594C80.6172 22.7644 80.4572 23.04 80.2794 23.4667C80.1016 23.8756 79.9327 24.4533 79.7727 25.2C79.6305 25.9467 79.506 26.88 79.3994 28C79.2927 29.1022 79.2394 30.4 79.2394 31.8933V33.5467C79.2394 35.2178 79.2838 36.6844 79.3727 37.9467C79.4794 39.1911 79.6127 40.2489 79.7727 41.12C79.9327 41.9733 80.1016 42.64 80.2794 43.12C80.4572 43.5822 80.6172 43.8756 80.7594 44H75.6927V40.9867C75.3016 41.6978 74.8572 42.2933 74.3594 42.7733C73.8616 43.2356 73.3549 43.6089 72.8394 43.8933C72.3416 44.1778 71.8616 44.3733 71.3994 44.48C70.9372 44.5867 70.5283 44.6311 70.1727 44.6133C69.3372 44.5778 68.6172 44.3644 68.0127 43.9733C67.426 43.5822 66.9283 43.0667 66.5194 42.4267C66.1283 41.7867 65.8172 41.0489 65.586 40.2133C65.3727 39.3778 65.2038 38.4978 65.0794 37.5733C64.9727 36.6489 64.9105 35.7067 64.8927 34.7467C64.8749 33.7689 64.866 32.8267 64.866 31.92C64.8838 31.0133 64.9016 30.1689 64.9194 29.3867C64.9372 28.6044 64.9283 27.9378 64.8927 27.3867C64.8394 26.3911 64.7149 25.5822 64.5194 24.96C64.3416 24.3378 64.1372 23.8578 63.906 23.52C63.6927 23.1644 63.4705 22.9244 63.2394 22.8C63.026 22.6756 62.866 22.6133 62.7594 22.6133ZM89.0744 34.96C88.4344 34.5867 87.8566 34.1333 87.341 33.6C86.8255 33.0667 86.3633 32.4889 85.9544 31.8667C85.5633 31.2267 85.2166 30.5511 84.9144 29.84C84.6299 29.1289 84.3899 28.4178 84.1944 27.7067C83.9633 26.8 83.7144 26.0356 83.4477 25.4133C83.1988 24.7733 82.9588 24.2489 82.7277 23.84C82.4966 23.4311 82.2833 23.1378 82.0877 22.96C81.9099 22.7644 81.7677 22.6578 81.661 22.64H81.6344H81.661H83.5277C84.0255 22.64 84.5233 22.6844 85.021 22.7733C85.5366 22.8622 86.0077 23.04 86.4344 23.3067C86.861 23.5556 87.2255 23.92 87.5277 24.4C87.8299 24.88 88.0344 25.5111 88.141 26.2933C88.2477 27.0044 88.4077 27.76 88.621 28.56C88.8522 29.36 89.1455 30.1778 89.501 31.0133C89.8566 31.8311 90.2744 32.6489 90.7544 33.4667C91.2344 34.2844 91.7677 35.0667 92.3544 35.8133L95.2077 28.1333C95.3855 27.6711 95.5633 27.1378 95.741 26.5333C95.9188 25.9289 96.0433 25.3511 96.1144 24.8C96.1855 24.2489 96.1766 23.7689 96.0877 23.36C95.9988 22.9511 95.7677 22.7111 95.3944 22.64H99.2344C98.6655 22.8178 98.0788 23.2978 97.4744 24.08C96.8699 24.8444 96.3277 25.8756 95.8477 27.1733L92.5944 35.92C92.6122 37.5911 92.6744 38.9333 92.781 39.9467C92.8877 40.9422 93.0122 41.7244 93.1544 42.2933C93.3144 42.8444 93.4744 43.2356 93.6344 43.4667C93.8122 43.6978 93.9722 43.8756 94.1144 44H87.4744C87.581 43.8933 87.7144 43.6711 87.8744 43.3333C88.0522 42.9778 88.221 42.4533 88.381 41.76C88.5588 41.0667 88.7099 40.1689 88.8344 39.0667C88.9588 37.9644 89.0388 36.5956 89.0744 34.96Z" fill="white"/>
</svg>
