<svg width="144" height="68" viewBox="0 0 144 68" fill="none" xmlns="http://www.w3.org/2000/svg">
<rect x="1" y="1" width="142" height="66" rx="33" stroke="white" stroke-width="2"/>
<path d="M35.4408 22.3467C36.4542 22.24 37.3519 22.3022 38.1342 22.5333C38.9164 22.7467 39.5919 23.0667 40.1608 23.4933C40.7475 23.92 41.2186 24.4267 41.5742 25.0133C41.9475 25.6 42.2142 26.2044 42.3742 26.8267C42.5519 27.4489 42.6319 28.0711 42.6142 28.6933C42.5964 29.2978 42.4897 29.84 42.2942 30.32C42.2408 30.4444 42.1697 30.6044 42.0808 30.8C41.9919 30.9778 41.8675 31.1556 41.7075 31.3333C41.5475 31.4933 41.3519 31.6356 41.1208 31.76C40.8897 31.8667 40.6231 31.92 40.3208 31.92C39.7519 31.92 39.2542 31.7156 38.8275 31.3067C38.4186 30.88 38.2142 30.3733 38.2142 29.7867C38.8542 29.2533 39.3164 28.5867 39.6008 27.7867C39.8853 26.9689 39.9564 26.1778 39.8142 25.4133C39.6897 24.6489 39.3342 24 38.7475 23.4667C38.1786 22.9156 37.3342 22.64 36.2142 22.64C35.5919 22.64 34.9253 22.7289 34.2142 22.9067C33.9475 22.9778 33.6453 23.1022 33.3075 23.28C32.9697 23.44 32.6319 23.68 32.2942 24C31.9742 24.3022 31.6719 24.7022 31.3875 25.2C31.1031 25.68 30.8808 26.2756 30.7208 26.9867C30.5608 27.6978 30.4719 28.5333 30.4542 29.4933C30.4364 30.4533 30.5342 31.5556 30.7475 32.8C31.0319 34.4711 31.4142 35.8578 31.8942 36.96C32.3919 38.0622 32.9431 38.9511 33.5475 39.6267C34.1697 40.2844 34.8364 40.7556 35.5475 41.04C36.2586 41.3067 36.9697 41.44 37.6808 41.44C38.2319 41.44 38.7742 41.3778 39.3075 41.2533C39.8408 41.1111 40.3386 40.9333 40.8008 40.72C41.2631 40.4889 41.6808 40.24 42.0542 39.9733C42.4453 39.6889 42.7742 39.4133 43.0408 39.1467C42.2586 41.0844 41.1831 42.4533 39.8142 43.2533C38.4453 44.0356 36.8453 44.3911 35.0142 44.32C33.8586 44.2844 32.7653 43.9822 31.7342 43.4133C30.7208 42.8267 29.8319 42.0444 29.0675 41.0667C28.3031 40.0711 27.6986 38.9156 27.2542 37.6C26.8097 36.2844 26.5875 34.8711 26.5875 33.36C26.5875 31.8489 26.8097 30.4533 27.2542 29.1733C27.6986 27.8756 28.3119 26.7467 29.0942 25.7867C29.8942 24.8089 30.8364 24.0267 31.9208 23.44C33.0053 22.8356 34.1786 22.4711 35.4408 22.3467ZM50.1337 22.64C49.9915 22.7644 49.8315 22.9956 49.6537 23.3333C49.4938 23.6711 49.3338 24.1867 49.1737 24.88C49.0315 25.5733 48.9071 26.48 48.8004 27.6C48.6938 28.7022 48.6404 30.0889 48.6404 31.76V32.5333H55.2537V31.8933C55.2537 30.2044 55.1915 28.8 55.0671 27.68C54.9604 26.5422 54.8182 25.6267 54.6404 24.9333C54.4804 24.2222 54.3115 23.6889 54.1337 23.3333C53.956 22.9778 53.8138 22.7467 53.7071 22.64H60.3471C60.2049 22.7467 60.0449 22.9867 59.8671 23.36C59.7071 23.7156 59.5471 24.2578 59.3871 24.9867C59.2449 25.6978 59.1204 26.6133 59.0138 27.7333C58.9071 28.8533 58.8538 30.2311 58.8538 31.8667V33.5467C58.8538 35.2178 58.8982 36.6844 58.9871 37.9467C59.0938 39.1911 59.2182 40.2489 59.3604 41.12C59.5204 41.9733 59.6893 42.64 59.8671 43.12C60.0449 43.6 60.2138 43.9022 60.3738 44.0267H53.7071C53.8315 43.9022 53.9826 43.6 54.1604 43.12C54.3382 42.64 54.5071 41.9733 54.6671 41.12C54.8449 40.2489 54.9871 39.1822 55.0938 37.92C55.2182 36.6578 55.2804 35.1822 55.2804 33.4933V32.8H48.6404V33.5467C48.6404 35.2178 48.6938 36.6844 48.8004 37.9467C48.9071 39.1911 49.0315 40.2489 49.1737 41.12C49.3338 41.9733 49.5026 42.64 49.6804 43.12C49.8582 43.5822 50.0182 43.8756 50.1604 44H43.5204C43.6271 43.8933 43.7693 43.6 43.9471 43.12C44.1249 42.64 44.2938 41.9733 44.4538 41.12C44.6315 40.2489 44.7738 39.1822 44.8804 37.92C45.0049 36.6578 45.0671 35.1911 45.0671 33.52V31.8933C45.0671 30.2044 45.0049 28.8 44.8804 27.68C44.7738 26.5422 44.6315 25.6267 44.4538 24.9333C44.2938 24.2222 44.1249 23.6889 43.9471 23.3333C43.7693 22.9778 43.6182 22.7467 43.4938 22.64H50.1337ZM61.15 44C61.6833 43.9111 62.1011 43.7156 62.4033 43.4133C62.7056 43.1111 62.9278 42.6933 63.07 42.16C63.23 41.6267 63.3278 40.9778 63.3633 40.2133C63.4167 39.4489 63.4611 38.5511 63.4967 37.52C63.5144 36.8444 63.55 36.0889 63.6033 35.2533C63.6567 34.4 63.7367 33.5289 63.8433 32.64C63.95 31.7333 64.0922 30.8178 64.27 29.8933C64.4656 28.9689 64.6967 28.0978 64.9633 27.28C65.23 26.4444 65.55 25.68 65.9233 24.9867C66.3144 24.2933 66.7589 23.7244 67.2567 23.28C67.5411 23.0311 67.8344 22.8356 68.1367 22.6933C68.4389 22.5511 68.7678 22.48 69.1233 22.48C69.3367 22.48 69.5944 22.5244 69.8967 22.6133C70.8033 22.8978 71.5856 23.4133 72.2433 24.16C72.9189 24.8889 73.4967 25.7422 73.9767 26.72C74.4567 27.6978 74.8478 28.7556 75.15 29.8933C75.47 31.0133 75.7189 32.1156 75.8967 33.2C76.0922 34.2844 76.2344 35.2889 76.3233 36.2133C76.4122 37.1378 76.4744 37.8933 76.51 38.48C76.5811 39.6889 76.7056 40.6578 76.8833 41.3867C77.0789 42.1156 77.2833 42.6844 77.4967 43.0933C77.7278 43.4844 77.95 43.7511 78.1633 43.8933C78.3767 44.0178 78.5367 44.08 78.6433 44.08H76.8033C76.3056 44.08 75.8078 44.0533 75.31 44C74.83 43.9289 74.3856 43.7689 73.9767 43.52C73.5678 43.2533 73.2211 42.8622 72.9367 42.3467C72.67 41.8133 72.5011 41.0844 72.43 40.16C72.4122 39.9111 72.3856 39.5467 72.35 39.0667C72.3322 38.5689 72.2967 38 72.2433 37.36C72.19 36.7022 72.1278 35.9822 72.0567 35.2C72.0033 34.4178 71.9233 33.6178 71.8167 32.8H64.1367C64.03 33.6889 63.95 34.5422 63.8967 35.36C63.8433 36.16 63.7989 36.88 63.7633 37.52C63.7456 38.16 63.7456 38.8533 63.7633 39.6C63.7811 40.3289 63.8522 41.0133 63.9767 41.6533C64.1189 42.2933 64.3322 42.8356 64.6167 43.28C64.9189 43.7067 65.3278 43.9467 65.8433 44H61.15ZM64.19 32.5333H71.7633C71.6389 31.5911 71.4967 30.6578 71.3367 29.7333C71.1767 28.7911 70.9811 27.9111 70.75 27.0933C70.5189 26.2578 70.2611 25.52 69.9767 24.88C69.6922 24.24 69.3633 23.7422 68.99 23.3867C68.7589 23.1556 68.5189 23.04 68.27 23.04C68.0033 23.04 67.7367 23.1733 67.47 23.44C67.0256 23.8844 66.6256 24.4444 66.27 25.12C65.9144 25.7956 65.6033 26.5333 65.3367 27.3333C65.07 28.1333 64.8389 28.9778 64.6433 29.8667C64.4656 30.7556 64.3144 31.6444 64.19 32.5333ZM81.0138 34.0533V32.32C81.0138 30.7733 80.9515 29.4222 80.8271 28.2667C80.7204 27.1111 80.5871 26.1422 80.4271 25.36C80.2671 24.56 80.0982 23.9378 79.9204 23.4933C79.7426 23.0489 79.6004 22.7733 79.4938 22.6667C80.2938 22.6844 81.2626 22.6756 82.4004 22.64C83.5382 22.6044 84.7204 22.6044 85.9471 22.64C87.1915 22.6578 88.4271 22.7556 89.6538 22.9333C90.8804 23.0933 91.9738 23.3867 92.9338 23.8133C93.9115 24.2222 94.6938 24.8089 95.2804 25.5733C95.8671 26.3378 96.1515 27.3244 96.1338 28.5333C96.116 29.4044 95.9293 30.24 95.5737 31.04C95.236 31.8222 94.7649 32.5156 94.1604 33.12C93.5738 33.7244 92.8893 34.2044 92.1071 34.56C91.3249 34.9156 90.4982 35.0933 89.6271 35.0933C90.0182 35.1822 90.3915 35.3422 90.7471 35.5733C91.1026 35.8044 91.4493 36.0889 91.7871 36.4267C92.1249 36.7644 92.4626 37.1378 92.8004 37.5467C93.156 37.9556 93.5293 38.3911 93.9204 38.8533C94.4182 39.44 94.8538 39.84 95.2271 40.0533C95.6182 40.2667 95.956 40.3733 96.2404 40.3733C96.4893 40.3733 96.6849 40.32 96.8271 40.2133C96.9693 40.1067 97.076 40.0089 97.1471 39.92C97.3604 40.1156 97.5115 40.3733 97.6004 40.6933C97.7071 40.9956 97.7426 41.3244 97.7071 41.68C97.6715 42.0356 97.5649 42.3911 97.3871 42.7467C97.2271 43.0844 96.9782 43.3867 96.6404 43.6533C96.3204 43.9022 95.9471 44.1067 95.5204 44.2667C95.1115 44.4267 94.676 44.5067 94.2138 44.5067C93.6449 44.5067 93.1026 44.3467 92.5871 44.0267C92.0715 43.7244 91.6715 43.1733 91.3871 42.3733C91.0671 41.5022 90.8449 40.6489 90.7204 39.8133C90.6138 38.96 90.4893 38.1956 90.3471 37.52C90.2226 36.8444 90.036 36.3022 89.7871 35.8933C89.556 35.4667 89.1649 35.2533 88.6138 35.2533C88.3115 35.2533 87.9293 35.3333 87.4671 35.4933C87.1649 35.6 86.9249 35.7156 86.7471 35.84C86.5693 35.9467 86.4271 36.0533 86.3204 36.16C86.2138 36.2667 86.1337 36.3733 86.0804 36.48C86.0271 36.5867 85.9826 36.6756 85.9471 36.7467C85.6804 36.48 85.4938 36.2044 85.3871 35.92C85.2804 35.6356 85.2538 35.3778 85.3071 35.1467C85.3604 34.9156 85.4849 34.72 85.6804 34.56C85.876 34.4 86.1338 34.3022 86.4538 34.2667C87.716 34.1067 88.6938 33.8044 89.3871 33.36C90.0982 32.8978 90.6226 32.3822 90.9604 31.8133C91.2982 31.2267 91.5026 30.6311 91.5738 30.0267C91.6449 29.4222 91.6715 28.8889 91.6538 28.4267C91.636 27.5378 91.5026 26.7467 91.2537 26.0533C91.0049 25.36 90.6049 24.7822 90.0538 24.32C89.5204 23.84 88.8004 23.4844 87.8938 23.2533C87.0049 23.0044 85.9026 22.8978 84.5871 22.9333L84.6137 33.5467C84.6137 35.2178 84.6671 36.6844 84.7738 37.9467C84.8804 39.1911 85.0049 40.2489 85.1471 41.12C85.3071 41.9733 85.476 42.64 85.6537 43.12C85.8315 43.5822 85.9915 43.8756 86.1337 44H79.4938C79.6004 43.8933 79.7426 43.6178 79.9204 43.1733C80.0982 42.7111 80.2671 42.0711 80.4271 41.2533C80.5871 40.4356 80.7204 39.4311 80.8271 38.24C80.9515 37.0489 81.0138 35.6533 81.0138 34.0533ZM98.3463 24.32C98.5063 24.4444 98.7285 24.5867 99.0129 24.7467C99.2974 24.8889 99.5907 25.0489 99.8929 25.2267C100.213 25.3867 100.515 25.5733 100.8 25.7867C101.102 25.9822 101.36 26.1956 101.573 26.4267C101.946 26.8533 102.133 27.3067 102.133 27.7867C102.151 28.2667 102.017 28.7111 101.733 29.12C101.448 29.5289 101.04 29.8667 100.506 30.1333C99.9729 30.4 99.3596 30.5333 98.6662 30.5333C98.4707 30.5333 98.2751 30.5244 98.0796 30.5067C97.884 30.4889 97.6796 30.4533 97.4663 30.4C98.0529 30.1689 98.3907 29.8311 98.4796 29.3867C98.5863 28.9244 98.604 28.3911 98.5329 27.7867C98.4974 27.52 98.4174 27.2178 98.2929 26.88C98.1863 26.5422 98.0618 26.1867 97.9196 25.8133C97.7951 25.4222 97.6707 25.0222 97.5462 24.6133C97.4396 24.2044 97.3596 23.7956 97.3063 23.3867C97.2885 23.2622 97.3329 23.1111 97.4396 22.9333C97.5463 22.7378 97.8218 22.64 98.2663 22.64H115.466C115.697 22.64 115.875 22.6667 116 22.72C116.124 22.7733 116.213 22.8444 116.266 22.9333C116.337 23.0044 116.373 23.0844 116.373 23.1733C116.391 23.2444 116.4 23.3156 116.4 23.3867C116.364 23.7956 116.284 24.2044 116.16 24.6133C116.035 25.0222 115.902 25.4222 115.76 25.8133C115.635 26.1867 115.511 26.5422 115.386 26.88C115.28 27.2178 115.208 27.52 115.173 27.7867C115.155 28.0889 115.137 28.3733 115.12 28.64C115.12 28.9067 115.155 29.1556 115.226 29.3867C115.297 29.6 115.413 29.7956 115.573 29.9733C115.733 30.1511 115.964 30.2933 116.266 30.4C116.071 30.4533 115.875 30.4889 115.68 30.5067C115.484 30.5244 115.288 30.5333 115.093 30.5333C114.4 30.5333 113.777 30.4 113.226 30.1333C112.693 29.8667 112.275 29.5289 111.973 29.12C111.688 28.6933 111.546 28.24 111.546 27.76C111.546 27.28 111.742 26.8267 112.133 26.4C112.346 26.1689 112.595 25.9644 112.88 25.7867C113.182 25.5911 113.484 25.4133 113.786 25.2533C114.106 25.0933 114.408 24.9422 114.693 24.8C114.977 24.64 115.2 24.48 115.36 24.32C115.875 23.8578 116.062 23.5111 115.92 23.28C115.777 23.0489 115.422 22.9333 114.853 22.9333C113.288 22.9333 112.088 23.0667 111.253 23.3333C110.435 23.6 109.84 24.0356 109.466 24.64C109.093 25.2444 108.88 26.0444 108.826 27.04C108.791 28.0356 108.773 29.2711 108.773 30.7467V34.7467C108.773 36.1867 108.826 37.4578 108.933 38.56C109.04 39.6622 109.164 40.5956 109.306 41.36C109.466 42.1244 109.635 42.7289 109.813 43.1733C109.991 43.6 110.151 43.8756 110.293 44H103.626C103.733 43.8933 103.875 43.6267 104.053 43.2C104.231 42.7733 104.4 42.1778 104.56 41.4133C104.737 40.6489 104.888 39.7156 105.013 38.6133C105.137 37.4933 105.2 36.1956 105.2 34.72V30.72C105.2 29.28 105.146 28.0622 105.04 27.0667C104.933 26.0711 104.666 25.2711 104.24 24.6667C103.831 24.0444 103.2 23.6 102.346 23.3333C101.511 23.0667 100.355 22.9333 98.8796 22.9333C98.5951 22.9333 98.3463 22.96 98.1329 23.0133C97.9196 23.0667 97.7774 23.1556 97.7063 23.28C97.6351 23.3867 97.644 23.5289 97.7329 23.7067C97.8396 23.8667 98.044 24.0711 98.3463 24.32Z" fill="white"/>
</svg>
