<svg width="1044" height="209" viewBox="0 0 1044 209" fill="none" xmlns="http://www.w3.org/2000/svg">
<path d="M71.8014 184C79.0914 184.27 85.0989 182.717 89.8239 179.342C94.6839 175.832 97.3839 171.31 97.9239 165.775C98.4639 160.105 96.5065 153.692 92.0515 146.537C87.7314 139.382 80.0364 132.295 68.9665 125.275C68.2914 124.87 66.5364 123.79 63.7014 122.035C60.8664 120.145 57.6264 118.052 53.9814 115.757C50.4714 113.327 46.9614 110.965 43.4514 108.67C39.9414 106.24 37.1739 104.282 35.1489 102.797C27.8589 97.5325 21.9189 91.93 17.3289 85.99C12.7389 79.915 9.43145 73.9075 7.40645 67.9675C5.51645 62.0275 4.90895 56.29 5.58395 50.755C6.39395 45.22 8.48645 40.36 11.8614 36.175C15.3714 31.855 20.1639 28.345 26.2389 25.645C32.3139 22.81 39.7389 21.19 48.5139 20.785C53.2389 20.515 57.7614 20.7175 62.0814 21.3925C66.5365 21.9325 70.7889 22.6075 74.8389 23.4175C79.0239 24.2275 83.0739 25.0375 86.9889 25.8475C91.0389 26.5225 94.8864 26.86 98.5315 26.86C102.041 26.86 105.619 26.32 109.264 25.24C111.289 29.695 112.166 33.88 111.896 37.795C111.626 41.575 110.546 44.95 108.656 47.92C106.901 50.755 104.606 53.05 101.771 54.805C99.0714 56.425 96.1689 57.235 93.0639 57.235C91.1739 57.235 89.2839 56.8975 87.3939 56.2225C85.6389 55.4125 84.0189 54.1975 82.5339 52.5775C80.3739 50.2825 78.4839 47.4475 76.864 44.0725C75.3789 40.5625 73.4214 37.1875 70.9914 33.9475C68.5614 30.7075 65.2539 28.0075 61.0689 25.8475C57.0189 23.6875 51.4164 22.8775 44.2614 23.4175C34.4064 24.0925 27.3864 26.3875 23.2014 30.3025C19.0164 34.2175 17.6664 39.01 19.1514 44.68C20.6364 50.215 24.9564 56.29 32.1114 62.905C39.2664 69.385 49.2564 75.6625 62.0814 81.7375C62.4864 81.8725 63.9714 82.615 66.5364 83.965C69.1014 85.18 72.1389 86.7325 75.6489 88.6225C79.1589 90.3775 82.8039 92.335 86.5839 94.495C90.3639 96.655 93.6039 98.68 96.3039 100.57C102.244 104.755 106.969 109.683 110.479 115.353C114.124 120.887 116.554 126.76 117.769 132.97C118.984 139.045 118.984 145.12 117.769 151.195C116.554 157.135 114.124 162.602 110.479 167.597C106.969 172.592 102.176 176.777 96.1014 180.153C90.1614 183.527 83.0064 185.553 74.6364 186.228C69.2364 186.633 63.9714 186.7 58.8414 186.43C53.7114 186.16 48.7164 185.755 43.8564 185.215C38.9964 184.675 34.2714 184.135 29.6814 183.595C25.2264 183.055 21.0414 182.785 17.1264 182.785C12.2664 182.785 7.87895 183.393 3.96395 184.607C1.93895 180.152 1.06145 176.035 1.33145 172.255C1.60145 168.34 2.61395 164.965 4.36895 162.13C6.12395 159.16 8.35145 156.865 11.0514 155.245C13.8864 153.49 16.7889 152.613 19.7589 152.613C23.9439 152.613 27.5214 154.165 30.4914 157.27C32.6514 159.43 34.8789 162.062 37.1739 165.167C39.4689 168.137 42.1689 170.972 45.2739 173.672C48.3789 176.372 52.0239 178.735 56.2089 180.76C60.5289 182.65 65.7264 183.73 71.8014 184ZM72.0039 208.705H47.7039V0.535001H72.0039V208.705ZM124.73 184C125.54 183.19 126.62 181.097 127.97 177.722C129.32 174.212 130.602 169.353 131.817 163.142C133.167 156.932 134.315 149.305 135.26 140.26C136.205 131.215 136.677 120.618 136.677 108.467V97.33C136.677 85.315 136.205 74.8525 135.26 65.9425C134.315 56.8975 133.167 49.27 131.817 43.06C130.602 36.85 129.32 32.0575 127.97 28.6825C126.62 25.3075 125.54 23.215 124.73 22.405H163.812C181.227 21.19 195.672 22.2025 207.147 25.4425C218.622 28.5475 227.667 33.61 234.282 40.63C240.897 47.515 245.42 56.2225 247.85 66.7525C250.28 77.1475 251.157 89.0275 250.482 102.392C249.807 116.297 247.782 128.042 244.407 137.627C241.032 147.077 236.847 154.907 231.852 161.118C226.857 167.327 221.322 172.12 215.247 175.495C209.172 178.735 203.03 181.03 196.82 182.38C190.61 183.73 184.602 184.405 178.797 184.405C173.127 184.54 168.132 184.405 163.812 184H124.73ZM163.812 181.975C175.017 179.275 184.062 175.292 190.947 170.027C197.832 164.627 203.165 158.417 206.945 151.397C210.86 144.242 213.56 136.412 215.045 127.907C216.665 119.403 217.677 110.695 218.082 101.785C218.757 88.42 218.42 76.81 217.07 66.955C215.72 57.1 212.952 49 208.767 42.655C204.717 36.175 199.047 31.45 191.757 28.48C184.467 25.375 175.152 24.025 163.812 24.43V181.975ZM331.103 20.1775C339.878 20.1775 348.113 22.405 355.808 26.86C363.638 31.18 370.455 37.12 376.26 44.68C382.065 52.105 386.655 60.88 390.03 71.005C393.405 80.995 395.093 91.7275 395.093 103.202C395.093 114.677 393.405 125.477 390.03 135.602C386.655 145.727 382.065 154.57 376.26 162.13C370.455 169.555 363.638 175.495 355.808 179.95C348.113 184.27 339.878 186.43 331.103 186.43C322.328 186.43 314.025 184.27 306.195 179.95C298.5 175.495 291.75 169.555 285.945 162.13C280.14 154.57 275.55 145.727 272.175 135.602C268.8 125.477 267.113 114.677 267.113 103.202C267.113 91.7275 268.8 80.995 272.175 71.005C275.55 60.88 280.14 52.105 285.945 44.68C291.75 37.12 298.5 31.18 306.195 26.86C314.025 22.405 322.328 20.1775 331.103 20.1775ZM300.525 110.29C303.225 126.49 306.465 139.45 310.245 149.17C314.16 158.89 318.21 166.315 322.395 171.445C326.58 176.44 330.63 179.612 334.545 180.962C338.595 182.178 342.038 182.38 344.873 181.57C347.438 180.895 350.273 179.14 353.378 176.305C356.483 173.47 359.115 168.88 361.275 162.535C363.435 156.055 364.718 147.55 365.123 137.02C365.663 126.355 364.583 112.99 361.883 96.925C359.048 79.78 355.605 66.3475 351.555 56.6275C347.505 46.7725 343.455 39.4825 339.405 34.7575C335.355 30.0325 331.508 27.13 327.863 26.05C324.353 24.97 321.518 24.565 319.358 24.835C316.118 25.24 312.81 26.725 309.435 29.29C306.06 31.855 303.225 36.31 300.93 42.655C298.635 48.865 297.285 57.4375 296.88 68.3725C296.475 79.1725 297.69 93.145 300.525 110.29ZM411.631 103.202C411.631 91.7275 413.319 81.1975 416.694 71.6125C420.069 62.0275 424.726 53.59 430.666 46.3C436.741 39.01 443.896 33.07 452.131 28.48C460.366 23.89 469.276 20.92 478.861 19.57C486.691 18.49 493.779 18.6925 500.124 20.1775C506.469 21.6625 512.004 24.025 516.729 27.265C521.589 30.505 525.639 34.42 528.879 39.01C532.254 43.465 534.819 48.1225 536.574 52.9825C538.329 57.8425 539.274 62.7025 539.409 67.5625C539.679 72.2875 539.139 76.4725 537.789 80.1175C537.384 81.0625 536.844 82.2775 536.169 83.7625C535.494 85.1125 534.549 86.4625 533.334 87.8125C532.119 89.0275 530.634 90.1075 528.879 91.0525C527.124 91.8625 525.099 92.2675 522.804 92.2675C518.484 92.2675 514.704 90.715 511.464 87.61C508.359 84.37 506.806 80.5225 506.806 76.0675C511.666 71.8825 515.041 66.685 516.931 60.475C518.956 54.13 519.226 48.055 517.741 42.25C516.391 36.31 513.151 31.2475 508.021 27.0625C503.026 22.8775 496.074 20.785 487.164 20.785C483.654 20.785 479.874 21.19 475.824 22C469.614 23.215 464.146 25.7125 459.421 29.4925C454.696 33.2725 450.849 38.4025 447.879 44.8825C445.044 51.3625 443.154 59.26 442.209 68.575C441.399 77.755 441.736 88.42 443.221 100.57C444.706 112.18 447.204 122.305 450.714 130.945C454.224 139.585 458.341 146.74 463.066 152.41C467.926 158.08 473.124 162.333 478.659 165.167C484.194 167.867 489.729 169.217 495.264 169.217C500.394 169.217 505.321 168.07 510.046 165.775C514.771 163.345 518.956 159.902 522.601 155.448C526.246 150.857 529.216 145.187 531.511 138.438C533.806 131.552 535.021 123.655 535.156 114.745H524.626C518.686 114.34 513.489 115.353 509.034 117.782C504.579 120.213 500.529 122.913 496.884 125.882C493.374 128.852 490.134 131.62 487.164 134.185C484.194 136.75 481.224 138.033 478.254 138.033C476.229 138.033 474.069 137.155 471.774 135.4C469.614 133.51 467.319 130.337 464.889 125.882L457.599 112.72H537.586C537.181 126.76 535.089 138.572 531.309 148.157C527.664 157.607 522.939 165.235 517.134 171.04C511.329 176.71 504.781 180.76 497.491 183.19C490.336 185.62 483.046 186.7 475.621 186.43C466.846 186.16 458.544 183.865 450.714 179.545C443.019 175.09 436.269 169.15 430.464 161.725C424.659 154.165 420.069 145.39 416.694 135.4C413.319 125.41 411.631 114.677 411.631 103.202ZM667.329 21.7975L644.041 64.12C644.986 59.26 645.594 54.4675 645.864 49.7425C646.269 44.8825 645.931 40.5625 644.851 36.7825C643.906 33.0025 642.084 29.965 639.384 27.67C636.684 25.24 632.701 24.025 627.436 24.025H620.754C611.034 24.025 603.541 25.915 598.276 29.695C593.011 33.475 589.096 38.4025 586.531 44.4775C583.966 50.5525 582.414 57.4375 581.874 65.1325C581.469 72.6925 581.266 80.32 581.266 88.015V96.925C585.856 96.925 590.446 96.7225 595.036 96.3175C599.626 95.9125 603.811 95.17 607.591 94.09C611.506 92.875 614.814 91.255 617.514 89.23C620.214 87.07 621.901 84.3025 622.576 80.9275V116.567C622.036 112.922 620.754 110.02 618.729 107.86C616.839 105.565 614.139 103.81 610.629 102.595C607.254 101.38 603.136 100.57 598.276 100.165C593.416 99.625 587.746 99.22 581.266 98.95V134.59C581.266 136.345 581.266 138.842 581.266 142.083C581.266 145.187 581.469 148.562 581.874 152.207C582.414 155.717 583.156 159.362 584.101 163.142C585.046 166.788 586.464 170.095 588.354 173.065C590.379 175.9 592.944 178.195 596.049 179.95C599.154 181.705 603.001 182.38 607.591 181.975C611.101 181.705 614.544 180.76 617.919 179.14C621.429 177.385 624.669 175.36 627.639 173.065C630.744 170.635 633.511 168.205 635.941 165.775C638.506 163.21 640.599 160.915 642.219 158.89C645.054 155.515 647.821 153.085 650.521 151.6C653.221 150.115 655.719 149.373 658.014 149.373C660.984 149.373 663.549 150.385 665.709 152.41C667.869 154.435 669.421 157.067 670.366 160.307C671.446 163.547 671.716 167.26 671.176 171.445C670.771 175.495 669.354 179.68 666.924 184H542.386C543.331 183.19 544.479 180.963 545.829 177.318C547.179 173.672 548.461 168.61 549.676 162.13C550.891 155.515 551.904 147.415 552.714 137.83C553.659 128.245 554.131 117.107 554.131 104.417C554.131 101.177 554.131 97.195 554.131 92.47C554.131 87.61 553.996 82.48 553.726 77.08C553.591 71.545 553.254 65.9425 552.714 60.2725C552.309 54.6025 551.634 49.27 550.689 44.275C549.879 39.145 548.799 34.6225 547.449 30.7075C546.099 26.7925 544.411 23.8225 542.386 21.7975H667.329ZM680.972 184C681.782 183.19 682.862 181.097 684.212 177.722C685.562 174.212 686.845 169.353 688.06 163.142C689.41 156.932 690.557 149.305 691.502 140.26C692.447 131.215 692.92 120.618 692.92 108.467V97.33C692.92 85.315 692.447 74.8525 691.502 65.9425C690.557 56.8975 689.41 49.27 688.06 43.06C686.845 36.85 685.562 32.0575 684.212 28.6825C682.862 25.3075 681.782 23.215 680.972 22.405H720.055C737.47 21.19 751.915 22.2025 763.39 25.4425C774.865 28.5475 783.91 33.61 790.525 40.63C797.14 47.515 801.662 56.2225 804.092 66.7525C806.522 77.1475 807.4 89.0275 806.725 102.392C806.05 116.297 804.025 128.042 800.65 137.627C797.275 147.077 793.09 154.907 788.095 161.118C783.1 167.327 777.565 172.12 771.49 175.495C765.415 178.735 759.272 181.03 753.062 182.38C746.852 183.73 740.845 184.405 735.04 184.405C729.37 184.54 724.375 184.405 720.055 184H680.972ZM720.055 181.975C731.26 179.275 740.305 175.292 747.19 170.027C754.075 164.627 759.407 158.417 763.187 151.397C767.102 144.242 769.802 136.412 771.287 127.907C772.907 119.403 773.92 110.695 774.325 101.785C775 88.42 774.662 76.81 773.312 66.955C771.962 57.1 769.195 49 765.01 42.655C760.96 36.175 755.29 31.45 748 28.48C740.71 25.375 731.395 24.025 720.055 24.43V181.975ZM805.557 184C809.607 183.325 812.78 181.84 815.075 179.545C817.37 177.25 819.057 174.077 820.137 170.027C821.352 165.977 822.095 161.05 822.365 155.245C822.77 149.44 823.107 142.622 823.377 134.792C823.512 129.662 823.782 123.925 824.187 117.58C824.592 111.1 825.2 104.485 826.01 97.735C826.82 90.85 827.9 83.8975 829.25 76.8775C830.735 69.8575 832.49 63.2425 834.515 57.0325C836.54 50.6875 838.97 44.8825 841.805 39.6175C844.775 34.3525 848.15 30.0325 851.93 26.6575C854.09 24.7675 856.317 23.2825 858.612 22.2025C860.907 21.1225 863.405 20.5825 866.105 20.5825C867.725 20.5825 869.682 20.92 871.977 21.595C878.862 23.755 884.802 27.67 889.797 33.34C894.927 38.875 899.315 45.355 902.96 52.78C906.605 60.205 909.575 68.2375 911.87 76.8775C914.3 85.3825 916.19 93.7525 917.54 101.987C919.025 110.223 920.105 117.85 920.78 124.87C921.455 131.89 921.927 137.627 922.197 142.083C922.737 151.262 923.682 158.62 925.032 164.155C926.517 169.69 928.07 174.01 929.69 177.115C931.445 180.085 933.132 182.11 934.752 183.19C936.372 184.135 937.587 184.607 938.397 184.607H924.425C920.645 184.607 916.865 184.405 913.085 184C909.44 183.46 906.065 182.245 902.96 180.355C899.855 178.33 897.222 175.36 895.062 171.445C893.037 167.395 891.755 161.86 891.215 154.84C891.08 152.95 890.877 150.182 890.607 146.537C890.472 142.757 890.202 138.437 889.797 133.577C889.392 128.582 888.92 123.115 888.38 117.175C887.975 111.235 887.367 105.16 886.557 98.95H828.237C827.427 105.7 826.82 112.18 826.415 118.39C826.01 124.465 825.672 129.932 825.402 134.792C825.267 139.653 825.267 144.917 825.402 150.587C825.537 156.122 826.077 161.32 827.022 166.18C828.102 171.04 829.722 175.157 831.882 178.532C834.177 181.772 837.282 183.595 841.197 184H805.557ZM828.642 96.925H886.152C885.207 89.77 884.127 82.6825 882.912 75.6625C881.697 68.5075 880.212 61.825 878.457 55.615C876.702 49.27 874.745 43.6675 872.585 38.8075C870.425 33.9475 867.927 30.1675 865.092 27.4675C863.337 25.7125 861.515 24.835 859.625 24.835C857.6 24.835 855.575 25.8475 853.55 27.8725C850.175 31.2475 847.137 35.5 844.437 40.63C841.737 45.76 839.375 51.3625 837.35 57.4375C835.325 63.5125 833.57 69.925 832.085 76.675C830.735 83.425 829.587 90.175 828.642 96.925ZM966.469 115.353C961.609 112.517 957.221 109.075 953.306 105.025C949.391 100.975 945.881 96.5875 942.776 91.8625C939.806 87.0025 937.174 81.8725 934.879 76.4725C932.719 71.0725 930.896 65.6725 929.411 60.2725C927.656 53.3875 925.766 47.5825 923.741 42.8575C921.851 37.9975 920.029 34.015 918.274 30.91C916.519 27.805 914.899 25.5775 913.414 24.2275C912.064 22.7425 910.984 21.9325 910.174 21.7975H909.971H910.174H924.349C928.129 21.7975 931.909 22.135 935.689 22.81C939.604 23.485 943.181 24.835 946.421 26.86C949.661 28.75 952.429 31.5175 954.724 35.1625C957.019 38.8075 958.571 43.6 959.381 49.54C960.191 54.94 961.406 60.6775 963.026 66.7525C964.781 72.8275 967.009 79.0375 969.709 85.3825C972.409 91.5925 975.581 97.8025 979.226 104.012C982.871 110.222 986.921 116.162 991.376 121.833L1013.04 63.5125C1014.39 60.0025 1015.74 55.9525 1017.09 51.3625C1018.44 46.7725 1019.39 42.385 1019.93 38.2C1020.47 34.015 1020.4 30.37 1019.73 27.265C1019.05 24.16 1017.3 22.3375 1014.46 21.7975H1043.62C1039.3 23.1475 1034.85 26.7925 1030.26 32.7325C1025.67 38.5375 1021.55 46.3675 1017.9 56.2225L993.199 122.643C993.334 135.333 993.806 145.525 994.616 153.22C995.426 160.78 996.371 166.72 997.451 171.04C998.666 175.225 999.881 178.195 1001.1 179.95C1002.45 181.705 1003.66 183.055 1004.74 184H954.319C955.129 183.19 956.141 181.502 957.356 178.937C958.706 176.237 959.989 172.255 961.204 166.99C962.554 161.725 963.701 154.907 964.646 146.537C965.591 138.167 966.199 127.772 966.469 115.353Z" fill="#77694E"/>
</svg>
