<svg width="68" height="68" viewBox="0 0 68 68" fill="none" xmlns="http://www.w3.org/2000/svg">
<circle cx="34" cy="34" r="33" stroke="white" stroke-width="2"/>
<path d="M38.8187 28.1208C38.8186 28.1208 38.8177 28.121 38.8158 28.1213L38.8187 28.1208ZM38.1454 27.3591C38.1455 27.3591 38.1452 27.3601 38.1445 27.3621C38.145 27.3602 38.1454 27.3592 38.1454 27.3591ZM38.2315 26.3008C37.8313 26.424 37.4054 26.6725 36.9749 27.0069C33.1938 29.9435 27.1604 34.3797 25.1996 35.6078C24.3482 36.1407 23.7657 36.4102 23.3053 36.5367C22.8721 36.6558 22.5095 36.6589 22.072 36.5839L22.0718 36.5838C20.119 36.2496 18.3259 35.7344 16.8821 35.1183L16.882 35.1182C15.6418 34.5892 15.651 32.7707 16.8853 32.236L44.9614 20.0753C44.9615 20.0753 44.9615 20.0753 44.9615 20.0752C45.207 19.969 45.4741 19.9329 45.7359 19.9694C45.9979 20.0059 46.2481 20.1142 46.4602 20.2862C46.6724 20.4584 46.8389 20.6884 46.9392 20.9544C47.0396 21.2206 47.069 21.5107 47.0238 21.7938L43.3001 45.0282C43.3001 45.0284 43.3001 45.0287 43.3 45.029C43.0344 46.6741 41.3268 47.5201 39.9596 46.7562C38.2973 45.8273 35.8412 44.4031 33.6402 42.9232C33.0907 42.5533 32.0147 41.802 31.136 40.9533C30.6945 40.527 30.3408 40.1119 30.1246 39.7412C29.8999 39.356 29.899 39.1515 29.9184 39.0725L28.9904 38.8448L29.9181 39.0736C29.9179 39.0744 29.9178 39.0749 29.9178 39.0749C29.918 39.0749 29.9285 39.04 29.9684 38.9627C30.0101 38.882 30.0719 38.7778 30.1579 38.6489C30.3303 38.3903 30.5743 38.0708 30.884 37.6972C31.5024 36.9514 32.3381 36.0438 33.279 35.0655C34.6471 33.6429 36.2035 32.1053 37.5871 30.7384C38.1077 30.224 38.6039 29.7338 39.0564 29.283L39.0567 29.2827C39.427 28.9135 39.7185 28.5301 39.8856 28.1517C40.0176 27.8528 40.228 27.1733 39.74 26.6239C39.2509 26.0732 38.5487 26.2031 38.2315 26.3008Z" fill="white" stroke="white" stroke-width="1.91112"/>
</svg>
