<svg width="68" height="68" viewBox="0 0 68 68" fill="none" xmlns="http://www.w3.org/2000/svg">
<circle cx="34" cy="34" r="33" stroke="white" stroke-width="2"/>
<path d="M46.1535 19.9556L36.7591 30.7289L36.2501 31.3125L36.7157 31.9314L48.0854 47.0444H40.2951L32.5643 36.7695L31.8554 35.8273L31.0805 36.716L22.0745 47.0444H20.7555L30.7348 35.5997L31.2437 35.0161L30.7782 34.3973L19.9145 19.9556H27.7049L34.9295 29.5591L35.6383 30.5014L36.4133 29.6127L44.8346 19.9556H46.1535ZM40.5091 45.6745L40.7958 46.0556H41.2727H44.1818H46.0965L44.9454 44.5255L27.4909 21.3255L27.2042 20.9444H26.7273H23.8182H21.9035L23.0546 22.4745L40.5091 45.6745Z" fill="white" stroke="white" stroke-width="1.91112"/>
</svg>
