<svg width="29" height="31" viewBox="0 0 29 31" fill="none" xmlns="http://www.w3.org/2000/svg">
<path d="M5.83333 25.65C3.44011 25.65 1.5 23.7025 1.5 21.3V12.6C1.5 7.1317 1.5 4.39757 3.19227 2.69878C4.88455 1 7.60821 1 13.0556 1H18.8333C21.2266 1 23.1667 2.94757 23.1667 5.35M5.83333 14.05C5.83333 9.94878 5.83333 7.89817 7.10254 6.62409C8.37174 5.35 10.4145 5.35 14.5 5.35H18.8333C22.9188 5.35 24.9615 5.35 26.2308 6.62409C27.5 7.89817 27.5 9.94878 27.5 14.05V21.3C27.5 25.4012 27.5 27.4518 26.2308 28.7259C24.9615 30 22.9188 30 18.8333 30H14.5C10.4145 30 8.37174 30 7.10254 28.7259C5.83333 27.4518 5.83333 25.4012 5.83333 21.3V14.05Z" stroke="#01FF01" stroke-width="2"/>
</svg>
