<svg width="55" height="55" viewBox="0 0 55 55" fill="none" xmlns="http://www.w3.org/2000/svg">
<path d="M19.9425 15.6682C22.7061 13.0039 26.0112 12.3378 27.4094 12.3378C28.8076 12.3378 32.295 13.0039 35.0586 15.6682C35.6344 15.4303 36.9339 14.7642 37.5261 14.003C36.8681 15.7474 34.269 19.7597 29.1366 21.853C29.0143 21.603 28.4975 21.1029 27.4094 21.1029C26.3213 21.1029 25.9868 21.603 25.8645 21.853C20.7321 19.7597 18.133 15.7474 17.475 14.003C18.0672 14.7642 19.3667 15.4303 19.9425 15.6682Z" fill="white"/>
<path d="M21.5466 21.177C22.3249 21.7428 24.0768 22.9407 24.8574 23.2064C23.371 23.6553 20.6279 23.8779 21.5466 21.177Z" fill="white"/>
<path d="M18.4466 17.9854C18.8102 18.5081 19.6599 19.6421 20.1498 19.9963C19.3651 21.7612 18.9325 25.291 23.4793 25.291L23.3645 26.8223L19.9965 28.6672C21.5808 29.1304 25.0289 31.2447 26.1466 35.9959L27.4879 40.4656L28.8533 35.9959C29.9711 31.2447 33.4192 29.1304 35.0035 28.6672L31.6355 26.8223L31.5207 25.291C36.0675 25.291 35.6349 21.7612 34.8502 19.9963C35.3401 19.6421 36.1898 18.5081 36.5534 17.9854C37.9667 19.3479 38.1203 22.0338 38.0204 23.2064C38.0204 32.0582 39.7365 36.1934 40.5946 37.1545L36.9593 34.4769L34.498 38.3954L31.6355 35.9959L27.4879 42.6622L23.3645 35.9959L20.502 38.3954L18.0406 34.4769L14.4054 37.1545C15.2635 36.1934 16.9796 32.0582 16.9796 23.2064C16.8797 22.0338 17.0333 19.3479 18.4466 17.9854Z" fill="white"/>
<path d="M33.4534 21.177C32.6751 21.7428 30.9232 22.9407 30.1426 23.2064C31.6289 23.6553 34.3721 23.8779 33.4534 21.177Z" fill="white"/>
<path d="M25.2853 25.7502C25.2853 24.0003 26.8283 23.139 27.6021 22.927C28.3759 23.139 29.9236 24.0003 29.9236 25.7502V27.6577L31.6648 28.7005C30.3106 29.5144 27.6067 31.9408 27.6067 35.1353C27.6067 31.9408 24.8983 29.5144 23.5441 28.7005L25.2853 27.6577V25.7502Z" fill="white"/>
<rect x="2" y="2" width="51" height="51" rx="12.4054" stroke="url(#paint0_linear_3_42)" stroke-width="2.06757"/>
<defs>
<linearGradient id="paint0_linear_3_42" x1="27.5" y1="2" x2="27.5" y2="53" gradientUnits="userSpaceOnUse">
<stop offset="0.35" stop-color="#FF5C00"/>
<stop offset="1" stop-color="#ECD8B9"/>
</linearGradient>
</defs>
</svg>
