<svg width="55" height="55" viewBox="0 0 55 55" fill="none" xmlns="http://www.w3.org/2000/svg">
<path fill-rule="evenodd" clip-rule="evenodd" d="M23.3584 12.2188C21.3284 13.2882 19.6676 14.193 19.6679 14.2298C19.6688 14.3248 24.54 16.8195 24.7129 16.8134C24.7915 16.8108 25.3621 16.5452 25.9807 16.2233L27.1056 15.6382L29.5626 16.9155L31.5745 16.0013C34.606 14.6238 34.9209 14.4728 34.8715 14.4221C34.806 14.3548 33.7187 13.7641 30.7687 12.1936C29.343 11.4345 27.9592 10.6903 27.6935 10.5397C27.4279 10.3891 27.1743 10.268 27.13 10.2703C27.0857 10.2726 25.3884 11.1495 23.3584 12.2188ZM14.4548 16.8812L12.3416 17.985V22.8295C12.3416 25.4939 12.3693 27.6738 12.4034 27.6738C12.4373 27.6738 13.477 27.2181 14.7138 26.661L16.9625 25.6483V20.5419L18.0613 21.1473C18.9081 21.6134 19.7554 22.0785 20.6031 22.5427L22.0461 23.3327L22.6881 23.0391C23.0908 22.8547 23.4927 22.6685 23.8937 22.4805C24.2037 22.3345 24.9644 21.988 25.5843 21.7103C26.2041 21.4325 26.7779 21.1531 26.8593 21.0895C26.9674 21.0049 25.6494 20.2684 21.9846 18.3653C19.2222 16.9308 16.8733 15.7616 16.765 15.7672C16.6567 15.7728 15.6171 16.274 14.4548 16.8812ZM35.2524 17.1912C33.8131 17.8482 32.6346 18.412 32.6332 18.4442C32.632 18.4763 33.4164 18.948 34.3765 19.4922C35.3366 20.0365 36.1221 20.5109 36.1221 20.5467C36.1221 20.5823 35.2725 20.9986 34.2343 21.4719C33.196 21.945 30.5714 23.1436 28.4019 24.1354L21.1325 27.4582C19.3039 28.2941 17.6556 29.0476 17.4696 29.1328C13.7346 30.8426 12.708 31.317 12.567 31.3985C12.4252 31.4804 12.3931 31.9568 12.3679 34.3476L12.3378 37.1991L16.1172 39.1465L18.7375 37.9506C20.1788 37.2929 21.3579 36.7204 21.3579 36.6782C21.3579 36.6361 21.0916 36.4607 20.7662 36.2881C20.4407 36.1155 19.7688 35.7335 19.2729 35.439C18.777 35.1444 18.2826 34.8742 18.174 34.8383C18.0655 34.8026 17.9783 34.7401 17.98 34.6993C17.9818 34.6586 19.1357 34.1044 20.5441 33.4675C23.2795 32.2308 25.3729 31.2775 29.867 29.2223C31.8767 28.3035 33.8865 27.3853 35.8967 26.4676C37.6633 25.6612 39.7173 24.7194 40.4612 24.3748L41.8136 23.7481L41.8739 17.9802L39.9573 16.9854C38.9031 16.4383 38.002 15.992 37.9548 15.9936C37.9076 15.9951 36.6915 16.534 35.2524 17.1912ZM41.3001 27.5955C41.0177 27.735 40.4598 27.9962 40.0604 28.1759C39.661 28.3556 38.9031 28.7014 38.3762 28.9445L37.4182 29.3864L37.3963 31.9182C37.3843 33.3107 37.3336 34.4439 37.2836 34.4365C37.1702 34.4195 35.3748 33.4883 33.5699 32.5103C32.2673 31.8046 32.1855 31.7765 31.8794 31.9298C31.7024 32.0185 30.6447 32.4982 29.5289 32.996C28.4131 33.4937 27.4639 33.9335 27.4192 33.9733C27.3747 34.013 29.6203 35.2438 32.4096 36.7085L37.481 39.3716L39.6474 38.2384C40.8388 37.6151 41.8519 37.0467 41.8985 36.9752C42.0035 36.8144 41.9945 27.3198 41.8894 27.3326C41.8478 27.3376 41.5826 27.456 41.3001 27.5955ZM29.3035 38.7398C28.9278 38.9032 28.5521 39.0668 28.1765 39.2306C27.0423 39.7268 27.2646 39.7432 25.9153 39.064C25.0166 38.6116 24.6292 38.472 24.4611 38.5398C24.335 38.5906 23.2495 39.0844 22.0488 39.6372C20.8481 40.1899 19.8241 40.6421 19.7732 40.6421C19.2694 40.6421 20.1069 41.1481 23.3386 42.7966L27.1286 44.7297L28.7232 43.9336C29.6003 43.4957 31.3693 42.6189 32.6544 41.9851C33.9395 41.3512 34.975 40.8161 34.9556 40.7959C34.9361 40.7758 33.8593 40.2167 32.5627 39.5534L30.2052 38.3476L29.3035 38.7398Z" fill="white"/>
<rect x="2" y="2" width="51" height="51" rx="12.4054" stroke="url(#paint0_linear_3_45)" stroke-width="2.06757"/>
<defs>
<linearGradient id="paint0_linear_3_45" x1="27.5" y1="2" x2="27.5" y2="53" gradientUnits="userSpaceOnUse">
<stop offset="0.35" stop-color="#FF5C00"/>
<stop offset="1" stop-color="#ECD8B9"/>
</linearGradient>
</defs>
</svg>
