<svg width="33" height="27" viewBox="0 0 33 27" fill="none" xmlns="http://www.w3.org/2000/svg">
<path fill-rule="evenodd" clip-rule="evenodd" d="M29.5818 0.184715C29.9875 0.0211598 30.4316 -0.0352494 30.8678 0.0213583C31.3041 0.0779661 31.7165 0.245522 32.0621 0.506585C32.4078 0.767649 32.6741 1.11268 32.8333 1.50576C32.9925 1.89884 33.0388 2.3256 32.9673 2.74162L29.2435 24.3747C28.8823 26.4614 26.4917 27.6581 24.4935 26.6187C22.8221 25.7491 20.3396 24.4093 18.1066 23.0113C16.9901 22.3115 13.57 20.0707 13.9904 18.4762C14.3516 17.1128 20.0982 11.9896 23.382 8.94361C24.6709 7.74693 24.0831 7.0566 22.561 8.15735C18.7814 10.8904 12.713 15.0465 10.7066 16.2165C8.93663 17.2481 8.01388 17.4242 6.91053 17.2481C4.89758 16.9273 3.03075 16.4303 1.50707 15.8249C-0.551859 15.0072 -0.451704 12.2962 1.50543 11.5068L29.5818 0.184715Z" fill="white"/>
</svg>
