<svg width="35" height="42" viewBox="0 0 35 42" fill="none" xmlns="http://www.w3.org/2000/svg">
<path d="M7.39993 5.00276C11.0933 1.40055 15.5103 0.5 17.3789 0.5C19.2476 0.5 23.9082 1.40055 27.6016 5.00276C28.371 4.68113 30.1078 3.78058 30.8992 2.75138C30.0198 5.10996 26.5463 10.5347 19.6873 13.365C19.5237 13.0269 18.8331 12.3508 17.3789 12.3508C15.9248 12.3508 15.4778 13.0269 15.3142 13.365C8.45517 10.5347 4.98167 5.10996 4.10231 2.75138C4.89374 3.78058 6.63049 4.68113 7.39993 5.00276Z" fill="white"/>
<path d="M9.54366 12.451C10.5839 13.2159 12.9251 14.8356 13.9684 15.1948C11.9819 15.8017 8.31595 16.1027 9.54366 12.451Z" fill="white"/>
<path d="M5.40082 8.13576C5.88673 8.84249 7.02225 10.3757 7.67695 10.8546C6.62831 13.2409 6.05014 18.0134 12.1267 18.0134L11.9732 20.0837L7.47208 22.5781C9.5894 23.2044 14.1975 26.063 15.6913 32.4869L17.4838 38.5301L19.3087 32.4869C20.8025 26.063 25.4106 23.2044 27.5279 22.5781L23.0268 20.0837L22.8733 18.0134C28.9499 18.0134 28.3717 13.2409 27.323 10.8546C27.9778 10.3757 29.1133 8.84249 29.5992 8.13576C31.488 9.97799 31.6933 13.6094 31.5598 15.1948C31.5598 27.1629 33.8533 32.7539 35 34.0534L30.1417 30.4331L26.8524 35.7311L23.0268 32.4869L17.4838 41.5L11.9732 32.4869L8.14764 35.7311L4.85825 30.4331L0 34.0534C1.14674 32.7539 3.44022 27.1629 3.44022 15.1948C3.30674 13.6094 3.51199 9.97799 5.40082 8.13576Z" fill="white"/>
<path d="M25.4563 12.451C24.4161 13.2159 22.0749 14.8356 21.0316 15.1948C23.0181 15.8017 26.684 16.1027 25.4563 12.451Z" fill="white"/>
<path d="M14.5402 18.6341C14.5402 16.2683 16.6023 15.1037 17.6365 14.8171C18.6706 15.1037 20.7389 16.2683 20.7389 18.6341V21.2132L23.066 22.6231C21.2561 23.7236 17.6426 27.0042 17.6426 31.3233C17.6426 27.0042 14.023 23.7236 12.2132 22.6231L14.5402 21.2132V18.6341Z" fill="white"/>
</svg>
