<svg width="38" height="34" viewBox="0 0 38 34" fill="none" xmlns="http://www.w3.org/2000/svg">
<path fill-rule="evenodd" clip-rule="evenodd" d="M34.0638 0.725763C34.5311 0.525862 35.0425 0.456917 35.5448 0.526105C36.0471 0.595292 36.522 0.800082 36.92 1.11916C37.3181 1.43824 37.6247 1.85994 37.8081 2.34037C37.9914 2.8208 38.0447 3.3424 37.9624 3.85087L33.6744 30.2913C33.2584 32.8417 30.5056 34.3043 28.2047 33.0339C26.28 31.9711 23.4213 30.3336 20.85 28.6249C19.5644 27.7697 15.6261 25.0309 16.1101 23.082C16.5261 21.4157 23.1434 15.1539 26.9247 11.4311C28.4089 9.96847 27.732 9.12473 25.9794 10.4701C21.6271 13.8105 14.6392 18.8902 12.3288 20.3201C10.2907 21.581 9.22811 21.7962 7.95758 21.581C5.63963 21.1889 3.48995 20.5815 1.73542 19.8416C-0.635474 18.8422 -0.520144 15.5287 1.73353 14.5639L34.0638 0.725763Z" fill="white"/>
</svg>
