<svg width="35" height="42" viewBox="0 0 35 42" fill="none" xmlns="http://www.w3.org/2000/svg">
<path fill-rule="evenodd" clip-rule="evenodd" d="M13.0157 2.81836C10.6182 4.09069 8.6567 5.16733 8.65712 5.21112C8.65818 5.32414 14.4112 8.29231 14.6154 8.28508C14.7083 8.28191 15.3821 7.96592 16.1127 7.58297L17.4412 6.88682L20.3431 8.40656L22.7192 7.31886C26.2995 5.67985 26.6714 5.50024 26.613 5.4399C26.5357 5.35984 25.2515 4.65702 21.7675 2.78838C20.0836 1.88524 18.4494 0.999748 18.1356 0.820568C17.8219 0.641388 17.5224 0.49725 17.4701 0.50004C17.4178 0.50283 15.4132 1.54608 13.0157 2.81836ZM2.50027 8.3657L0.00450265 9.67903L0.00450265 15.443C0.00450265 18.6132 0.0372745 21.2068 0.0774735 21.2068C0.117533 21.2068 1.34546 20.6646 2.80613 20.0018L5.4619 18.7968L5.4619 12.7212L6.75969 13.4415C7.75974 13.9961 8.7604 14.5495 9.76166 15.1018L11.4658 16.0418L12.2241 15.6925C12.6997 15.473 13.1743 15.2515 13.648 15.0278C14.014 14.8541 14.9125 14.4418 15.6445 14.1114C16.3766 13.7809 17.0543 13.4485 17.1504 13.3727C17.278 13.2721 15.7215 12.3958 11.3932 10.1315C8.13068 8.42468 5.35663 7.03361 5.22869 7.04027C5.10076 7.04694 3.87298 7.64331 2.50027 8.3657ZM27.0629 8.73452C25.3631 9.51626 23.9712 10.1871 23.9696 10.2254C23.9681 10.2636 24.8945 10.8248 26.0284 11.4722C27.1623 12.1199 28.09 12.6844 28.09 12.7269C28.09 12.7693 27.0867 13.2646 25.8605 13.8277C24.6342 14.3907 21.5345 15.8167 18.9722 16.9968L10.3868 20.9503C8.22718 21.9448 6.28051 22.8413 6.0609 22.9427C1.64969 24.977 0.437222 25.5415 0.270716 25.6384C0.103283 25.7359 0.0653581 26.3027 0.035557 29.1473L0 32.5401L4.46362 34.857L7.55833 33.4342C9.26047 32.6517 10.653 31.9704 10.653 31.9202C10.653 31.8702 10.3385 31.6614 9.95425 31.4561C9.56981 31.2508 8.77623 30.7962 8.19056 30.4458C7.60494 30.0953 7.02098 29.7738 6.89277 29.7312C6.76461 29.6886 6.66161 29.6143 6.66369 29.5657C6.66583 29.5174 8.0286 28.8579 9.69189 28.1002C12.9225 26.6287 15.3949 25.4945 20.7026 23.0492C23.076 21.956 25.4498 20.8635 27.8238 19.7716C29.9102 18.8122 32.3361 17.6917 33.2146 17.2816L34.8119 16.536L34.8831 9.67336L32.6195 8.4897C31.3744 7.83876 30.3102 7.30774 30.2544 7.30968C30.1987 7.31148 28.7625 7.95258 27.0629 8.73452ZM34.2055 21.1136C33.8719 21.2796 33.213 21.5904 32.7413 21.8042C32.2696 22.018 31.3744 22.4294 30.7521 22.7187L29.6207 23.2444L29.5949 26.2568C29.5807 27.9136 29.5208 29.2619 29.4618 29.2531C29.3279 29.2328 27.2074 28.1249 25.0758 26.9613C23.5374 26.1216 23.4407 26.0882 23.0792 26.2706C22.8702 26.3761 21.621 26.9468 20.3033 27.5391C18.9855 28.1313 17.8644 28.6546 17.8117 28.7019C17.7591 28.7492 20.4112 30.2136 23.7055 31.9564L29.6949 35.1249L32.2535 33.7765C33.6605 33.035 34.857 32.3587 34.9121 32.2736C35.0362 32.0823 35.0255 20.7855 34.9014 20.8008C34.8523 20.8068 34.539 20.9476 34.2055 21.1136ZM20.0371 34.3731C19.5933 34.5675 19.1496 34.7622 18.706 34.9571C17.3665 35.5475 17.629 35.5671 16.0355 34.7589C14.9741 34.2206 14.5166 34.0545 14.318 34.1352C14.1691 34.1956 12.8871 34.7832 11.469 35.4408C10.051 36.0985 8.84159 36.6366 8.78143 36.6366C8.18647 36.6366 9.17557 37.2386 12.9923 39.2L17.4684 41.5L19.3517 40.5528C20.3876 40.0318 22.4768 38.9885 23.9946 38.2345C25.5123 37.4802 26.7353 36.8435 26.7124 36.8195C26.6893 36.7956 25.4176 36.1303 23.8863 35.3412L21.1019 33.9065L20.0371 34.3731Z" fill="white"/>
</svg>
