<svg width="26" height="25" viewBox="0 0 26 25" fill="none" xmlns="http://www.w3.org/2000/svg">
<path d="M12.5837 17.7367V10.4697M12.5837 10.4697L15.6981 13.5842M12.5837 10.4697L9.46924 13.5842" stroke="#081D21" stroke-width="1.66103" stroke-linecap="round" stroke-linejoin="round"/>
<path d="M16.7362 7.35535H12.5837H8.43109" stroke="#081D21" stroke-width="1.66103" stroke-linecap="round"/>
<path d="M22.9651 12.546C22.9651 17.4398 22.9651 19.8868 21.4448 21.407C19.9245 22.9274 17.4775 22.9274 12.5837 22.9274C7.68984 22.9274 5.24292 22.9274 3.7226 21.407C2.20227 19.8868 2.20227 17.4398 2.20227 12.546C2.20227 7.65212 2.20227 5.2052 3.7226 3.68488C5.24292 2.16455 7.68984 2.16455 12.5837 2.16455C17.4775 2.16455 19.9245 2.16455 21.4448 3.68488C22.4557 4.69576 22.7944 6.11629 22.9079 8.39341" stroke="#081D21" stroke-width="1.66103" stroke-linecap="round"/>
</svg>
