<svg width="379" height="110" viewBox="0 0 379 110" fill="none" xmlns="http://www.w3.org/2000/svg">
<rect x="2" y="2" width="374.106" height="105.852" rx="28.6987" fill="#FC6800"/>
<rect x="2" y="2" width="374.106" height="105.852" rx="28.6987" stroke="#2D2D2D" stroke-width="4"/>
<mask id="path-2-outside-1_0_13" maskUnits="userSpaceOnUse" x="69.5531" y="23.9258" width="242" height="64" fill="black">
<rect fill="white" x="69.5531" y="23.9258" width="242" height="64"/>
<path d="M106.469 52.1935H92.298V42.7011C92.298 39.9409 92.141 38.2242 91.8268 37.551C91.5351 36.8554 90.8731 36.5075 89.8408 36.5075C88.6739 36.5075 87.9333 36.9227 87.6192 37.753C87.305 38.5833 87.1479 40.3785 87.1479 43.1387V68.4517C87.1479 71.0997 87.305 72.8276 87.6192 73.6354C87.9333 74.4433 88.6402 74.8472 89.7398 74.8472C90.7945 74.8472 91.479 74.4433 91.7931 73.6354C92.1297 72.8276 92.298 70.9314 92.298 67.9468V61.1136H106.469V63.2342C106.469 68.8668 106.065 72.8612 105.257 75.2175C104.472 77.5738 102.71 79.6383 99.9727 81.4111C97.2574 83.1839 93.9025 84.0703 89.9081 84.0703C85.7566 84.0703 82.3344 83.3186 79.6416 81.815C76.9487 80.3115 75.1647 78.2358 74.2895 75.5878C73.4143 72.9174 72.9767 68.9117 72.9767 63.5709V47.6493C72.9767 43.7222 73.1114 40.7825 73.3806 38.8301C73.6499 36.8554 74.4466 34.9591 75.7706 33.1415C77.117 31.3238 78.9683 29.8988 81.3246 28.8665C83.7033 27.8118 86.4298 27.2845 89.5042 27.2845C93.6781 27.2845 97.1228 28.0923 99.8381 29.708C102.553 31.3238 104.337 33.3434 105.19 35.767C106.043 38.1681 106.469 41.9157 106.469 47.0097V52.1935ZM145.313 60.3394C145.313 65.8149 145.178 69.6971 144.909 71.9861C144.662 74.2526 143.854 76.3283 142.485 78.2133C141.139 80.0983 139.31 81.5457 136.998 82.5556C134.687 83.5654 131.994 84.0703 128.92 84.0703C126.002 84.0703 123.377 83.5991 121.043 82.6566C118.732 81.6916 116.869 80.2554 115.455 78.348C114.042 76.4405 113.2 74.3648 112.931 72.1207C112.662 69.8767 112.527 65.9496 112.527 60.3394V51.0154C112.527 45.5399 112.65 41.6689 112.897 39.4024C113.166 37.1134 113.974 35.0265 115.321 33.1415C116.69 31.2564 118.53 29.809 120.841 28.7992C123.152 27.7894 125.845 27.2845 128.92 27.2845C131.837 27.2845 134.451 27.7669 136.763 28.7319C139.096 29.6744 140.97 31.0994 142.384 33.0068C143.798 34.9143 144.639 36.99 144.909 39.2341C145.178 41.4781 145.313 45.4052 145.313 51.0154V60.3394ZM131.141 42.4318C131.141 39.8961 130.995 38.2803 130.704 37.5847C130.434 36.8666 129.862 36.5075 128.987 36.5075C128.246 36.5075 127.674 36.7993 127.27 37.3827C126.889 37.9437 126.698 39.6268 126.698 42.4318V67.8794C126.698 71.0436 126.821 72.9959 127.068 73.7364C127.338 74.477 127.944 74.8472 128.886 74.8472C129.851 74.8472 130.468 74.4209 130.737 73.5681C131.007 72.7154 131.141 70.6845 131.141 67.4755V42.4318ZM152.01 28.4289H166.282C170.142 28.4289 173.104 28.7319 175.168 29.3378C177.255 29.9437 178.815 30.8189 179.847 31.9633C180.902 33.1078 181.609 34.4991 181.968 36.1373C182.349 37.753 182.54 40.2663 182.54 43.6773V48.4235C182.54 51.9018 182.181 54.4375 181.463 56.0308C180.745 57.6241 179.421 58.8471 177.491 59.6999C175.583 60.5526 173.081 60.979 169.985 60.979H166.181V82.9258H152.01V28.4289ZM166.181 37.753V51.6213C166.585 51.6437 166.933 51.6549 167.224 51.6549C168.526 51.6549 169.424 51.3408 169.917 50.7124C170.433 50.0616 170.691 48.7264 170.691 46.7068V42.2299C170.691 40.3673 170.4 39.1555 169.816 38.5945C169.233 38.0335 168.021 37.753 166.181 37.753ZM218.186 28.4289L207.852 63.2006V82.9258H194.724V63.2006L184.76 28.4289H197.787C199.829 39.0433 200.974 46.1906 201.22 49.8709C202.006 44.0588 203.319 36.9115 205.159 28.4289H218.186ZM268.674 52.1935H254.503V42.7011C254.503 39.9409 254.346 38.2242 254.032 37.551C253.74 36.8554 253.078 36.5075 252.046 36.5075C250.879 36.5075 250.138 36.9227 249.824 37.753C249.51 38.5833 249.353 40.3785 249.353 43.1387V68.4517C249.353 71.0997 249.51 72.8276 249.824 73.6354C250.138 74.4433 250.845 74.8472 251.945 74.8472C252.999 74.8472 253.684 74.4433 253.998 73.6354C254.335 72.8276 254.503 70.9314 254.503 67.9468V61.1136H268.674V63.2342C268.674 68.8668 268.27 72.8612 267.462 75.2175C266.677 77.5738 264.915 79.6383 262.178 81.4111C259.462 83.1839 256.107 84.0703 252.113 84.0703C247.961 84.0703 244.539 83.3186 241.846 81.815C239.154 80.3115 237.37 78.2358 236.494 75.5878C235.619 72.9174 235.182 68.9117 235.182 63.5709V47.6493C235.182 43.7222 235.316 40.7825 235.586 38.8301C235.855 36.8554 236.651 34.9591 237.975 33.1415C239.322 31.3238 241.173 29.8988 243.529 28.8665C245.908 27.8118 248.635 27.2845 251.709 27.2845C255.883 27.2845 259.328 28.0923 262.043 29.708C264.758 31.3238 266.542 33.3434 267.395 35.767C268.248 38.1681 268.674 41.9157 268.674 47.0097V52.1935ZM299.607 28.4289L307.719 82.9258H293.212L292.505 73.1305H287.422L286.58 82.9258H271.904L279.108 28.4289H299.607ZM292.101 63.4699C291.383 57.2987 290.665 49.6801 289.946 40.6142C288.51 51.0266 287.613 58.6452 287.254 63.4699H292.101Z"/>
</mask>
<path d="M106.469 52.1935H92.298V42.7011C92.298 39.9409 92.141 38.2242 91.8268 37.551C91.5351 36.8554 90.8731 36.5075 89.8408 36.5075C88.6739 36.5075 87.9333 36.9227 87.6192 37.753C87.305 38.5833 87.1479 40.3785 87.1479 43.1387V68.4517C87.1479 71.0997 87.305 72.8276 87.6192 73.6354C87.9333 74.4433 88.6402 74.8472 89.7398 74.8472C90.7945 74.8472 91.479 74.4433 91.7931 73.6354C92.1297 72.8276 92.298 70.9314 92.298 67.9468V61.1136H106.469V63.2342C106.469 68.8668 106.065 72.8612 105.257 75.2175C104.472 77.5738 102.71 79.6383 99.9727 81.4111C97.2574 83.1839 93.9025 84.0703 89.9081 84.0703C85.7566 84.0703 82.3344 83.3186 79.6416 81.815C76.9487 80.3115 75.1647 78.2358 74.2895 75.5878C73.4143 72.9174 72.9767 68.9117 72.9767 63.5709V47.6493C72.9767 43.7222 73.1114 40.7825 73.3806 38.8301C73.6499 36.8554 74.4466 34.9591 75.7706 33.1415C77.117 31.3238 78.9683 29.8988 81.3246 28.8665C83.7033 27.8118 86.4298 27.2845 89.5042 27.2845C93.6781 27.2845 97.1228 28.0923 99.8381 29.708C102.553 31.3238 104.337 33.3434 105.19 35.767C106.043 38.1681 106.469 41.9157 106.469 47.0097V52.1935ZM145.313 60.3394C145.313 65.8149 145.178 69.6971 144.909 71.9861C144.662 74.2526 143.854 76.3283 142.485 78.2133C141.139 80.0983 139.31 81.5457 136.998 82.5556C134.687 83.5654 131.994 84.0703 128.92 84.0703C126.002 84.0703 123.377 83.5991 121.043 82.6566C118.732 81.6916 116.869 80.2554 115.455 78.348C114.042 76.4405 113.2 74.3648 112.931 72.1207C112.662 69.8767 112.527 65.9496 112.527 60.3394V51.0154C112.527 45.5399 112.65 41.6689 112.897 39.4024C113.166 37.1134 113.974 35.0265 115.321 33.1415C116.69 31.2564 118.53 29.809 120.841 28.7992C123.152 27.7894 125.845 27.2845 128.92 27.2845C131.837 27.2845 134.451 27.7669 136.763 28.7319C139.096 29.6744 140.97 31.0994 142.384 33.0068C143.798 34.9143 144.639 36.99 144.909 39.2341C145.178 41.4781 145.313 45.4052 145.313 51.0154V60.3394ZM131.141 42.4318C131.141 39.8961 130.995 38.2803 130.704 37.5847C130.434 36.8666 129.862 36.5075 128.987 36.5075C128.246 36.5075 127.674 36.7993 127.27 37.3827C126.889 37.9437 126.698 39.6268 126.698 42.4318V67.8794C126.698 71.0436 126.821 72.9959 127.068 73.7364C127.338 74.477 127.944 74.8472 128.886 74.8472C129.851 74.8472 130.468 74.4209 130.737 73.5681C131.007 72.7154 131.141 70.6845 131.141 67.4755V42.4318ZM152.01 28.4289H166.282C170.142 28.4289 173.104 28.7319 175.168 29.3378C177.255 29.9437 178.815 30.8189 179.847 31.9633C180.902 33.1078 181.609 34.4991 181.968 36.1373C182.349 37.753 182.54 40.2663 182.54 43.6773V48.4235C182.54 51.9018 182.181 54.4375 181.463 56.0308C180.745 57.6241 179.421 58.8471 177.491 59.6999C175.583 60.5526 173.081 60.979 169.985 60.979H166.181V82.9258H152.01V28.4289ZM166.181 37.753V51.6213C166.585 51.6437 166.933 51.6549 167.224 51.6549C168.526 51.6549 169.424 51.3408 169.917 50.7124C170.433 50.0616 170.691 48.7264 170.691 46.7068V42.2299C170.691 40.3673 170.4 39.1555 169.816 38.5945C169.233 38.0335 168.021 37.753 166.181 37.753ZM218.186 28.4289L207.852 63.2006V82.9258H194.724V63.2006L184.76 28.4289H197.787C199.829 39.0433 200.974 46.1906 201.22 49.8709C202.006 44.0588 203.319 36.9115 205.159 28.4289H218.186ZM268.674 52.1935H254.503V42.7011C254.503 39.9409 254.346 38.2242 254.032 37.551C253.74 36.8554 253.078 36.5075 252.046 36.5075C250.879 36.5075 250.138 36.9227 249.824 37.753C249.51 38.5833 249.353 40.3785 249.353 43.1387V68.4517C249.353 71.0997 249.51 72.8276 249.824 73.6354C250.138 74.4433 250.845 74.8472 251.945 74.8472C252.999 74.8472 253.684 74.4433 253.998 73.6354C254.335 72.8276 254.503 70.9314 254.503 67.9468V61.1136H268.674V63.2342C268.674 68.8668 268.27 72.8612 267.462 75.2175C266.677 77.5738 264.915 79.6383 262.178 81.4111C259.462 83.1839 256.107 84.0703 252.113 84.0703C247.961 84.0703 244.539 83.3186 241.846 81.815C239.154 80.3115 237.37 78.2358 236.494 75.5878C235.619 72.9174 235.182 68.9117 235.182 63.5709V47.6493C235.182 43.7222 235.316 40.7825 235.586 38.8301C235.855 36.8554 236.651 34.9591 237.975 33.1415C239.322 31.3238 241.173 29.8988 243.529 28.8665C245.908 27.8118 248.635 27.2845 251.709 27.2845C255.883 27.2845 259.328 28.0923 262.043 29.708C264.758 31.3238 266.542 33.3434 267.395 35.767C268.248 38.1681 268.674 41.9157 268.674 47.0097V52.1935ZM299.607 28.4289L307.719 82.9258H293.212L292.505 73.1305H287.422L286.58 82.9258H271.904L279.108 28.4289H299.607ZM292.101 63.4699C291.383 57.2987 290.665 49.6801 289.946 40.6142C288.51 51.0266 287.613 58.6452 287.254 63.4699H292.101Z" fill="white"/>
<path d="M106.469 52.1935V55.1935H109.469V52.1935H106.469ZM92.298 52.1935H89.298V55.1935H92.298V52.1935ZM91.8268 37.551L89.0602 38.7112L89.0831 38.7659L89.1082 38.8197L91.8268 37.551ZM87.6192 37.753L84.8133 36.6913L87.6192 37.753ZM87.6192 73.6354L84.8232 74.7228L87.6192 73.6354ZM91.7931 73.6354L89.0239 72.4816L89.0101 72.5147L88.9971 72.5481L91.7931 73.6354ZM92.298 61.1136V58.1136H89.298V61.1136H92.298ZM106.469 61.1136H109.469V58.1136H106.469V61.1136ZM105.257 75.2175L102.42 74.2445L102.415 74.2567L102.411 74.2688L105.257 75.2175ZM99.9727 81.4111L98.3421 78.8929L98.3326 78.8991L99.9727 81.4111ZM79.6416 81.815L78.1791 84.4344L79.6416 81.815ZM74.2895 75.5878L71.4387 76.5221L71.441 76.5292L74.2895 75.5878ZM73.3806 38.8301L76.3525 39.24L76.3531 39.2355L73.3806 38.8301ZM75.7706 33.1415L73.3599 31.3558L73.3527 31.3654L73.3456 31.3752L75.7706 33.1415ZM81.3246 28.8665L82.5284 31.6144L82.5406 31.609L81.3246 28.8665ZM105.19 35.767L102.36 36.7627L102.363 36.771L105.19 35.767ZM106.469 49.1935H92.298V55.1935H106.469V49.1935ZM95.298 52.1935V42.7011H89.298V52.1935H95.298ZM95.298 42.7011C95.298 41.2769 95.258 40.0565 95.1677 39.0701C95.0883 38.2023 94.9441 37.1368 94.5453 36.2824L89.1082 38.8197C89.0403 38.674 89.0519 38.6404 89.0896 38.832C89.1222 38.9972 89.1593 39.2521 89.1927 39.6168C89.2595 40.3471 89.298 41.3652 89.298 42.7011H95.298ZM94.5934 36.3908C94.1806 35.4065 93.4606 34.6138 92.5069 34.1127C91.6133 33.6432 90.6678 33.5075 89.8408 33.5075V39.5075C90.046 39.5075 89.9477 39.5458 89.7161 39.4241C89.592 39.359 89.4526 39.259 89.3241 39.1184C89.1959 38.9781 89.1114 38.8333 89.0602 38.7112L94.5934 36.3908ZM89.8408 33.5075C88.9272 33.5075 87.8983 33.6666 86.9432 34.2021C85.9279 34.7713 85.2076 35.6492 84.8133 36.6913L90.425 38.8147C90.3933 38.8986 90.3318 39.0198 90.2241 39.1469C90.1152 39.2754 89.9917 39.3716 89.8772 39.4357C89.6626 39.556 89.5875 39.5075 89.8408 39.5075V33.5075ZM84.8133 36.6913C84.5033 37.5106 84.3604 38.5098 84.2772 39.4606C84.1881 40.478 84.1479 41.7119 84.1479 43.1387H90.1479C90.1479 41.8054 90.1863 40.7616 90.2543 39.9837C90.2882 39.5959 90.3273 39.3013 90.3658 39.0866C90.4066 38.8592 90.4354 38.7873 90.425 38.8147L84.8133 36.6913ZM84.1479 43.1387V68.4517H90.1479V43.1387H84.1479ZM84.1479 68.4517C84.1479 69.8246 84.1882 71.0172 84.2781 72.0052C84.362 72.928 84.507 73.9098 84.8232 74.7228L90.4152 72.5481C90.4172 72.5533 90.3266 72.2671 90.2534 71.462C90.1862 70.7221 90.1479 69.7268 90.1479 68.4517H84.1479ZM84.8232 74.7228C85.2121 75.7228 85.906 76.583 86.8965 77.149C87.8349 77.6852 88.844 77.8472 89.7398 77.8472V71.8472C89.5361 71.8472 89.6419 71.8073 89.8734 71.9396C89.994 72.0085 90.1169 72.1071 90.2226 72.2325C90.3267 72.3561 90.3853 72.4713 90.4152 72.5481L84.8232 74.7228ZM89.7398 77.8472C90.6333 77.8472 91.6375 77.6776 92.5689 77.1279C93.5443 76.5523 94.2117 75.6934 94.5891 74.7228L88.9971 72.5481C89.0223 72.4834 89.0749 72.3767 89.1729 72.2577C89.273 72.1363 89.3935 72.035 89.5194 71.9607C89.7664 71.8149 89.901 71.8472 89.7398 71.8472V77.8472ZM94.5624 74.7893C94.921 73.9284 95.073 72.854 95.1601 71.8726C95.2551 70.8016 95.298 69.4841 95.298 67.9468H89.298C89.298 69.3941 89.2568 70.517 89.1836 71.3422C89.1024 72.257 89.0018 72.5346 89.0239 72.4816L94.5624 74.7893ZM95.298 67.9468V61.1136H89.298V67.9468H95.298ZM92.298 64.1136H106.469V58.1136H92.298V64.1136ZM103.469 61.1136V63.2342H109.469V61.1136H103.469ZM103.469 63.2342C103.469 68.847 103.052 72.4005 102.42 74.2445L108.095 76.1905C109.079 73.322 109.469 68.8867 109.469 63.2342H103.469ZM102.411 74.2688C101.901 75.8014 100.688 77.3736 98.3421 78.8929L101.603 83.9293C104.732 81.903 107.044 79.3461 108.104 76.1662L102.411 74.2688ZM98.3326 78.8991C96.2074 80.2867 93.4557 81.0703 89.9081 81.0703V87.0703C94.3494 87.0703 98.3074 86.0812 101.613 83.9231L98.3326 78.8991ZM89.9081 81.0703C86.0983 81.0703 83.2216 80.378 81.104 79.1957L78.1791 84.4344C81.4472 86.2591 85.4149 87.0703 89.9081 87.0703V81.0703ZM81.104 79.1957C78.9917 78.0163 77.7517 76.5035 77.1379 74.6463L71.441 76.5292C72.5776 79.968 74.9057 82.6068 78.1791 84.4344L81.104 79.1957ZM77.1403 74.6535C76.4167 72.4457 75.9767 68.826 75.9767 63.5709H69.9767C69.9767 68.9974 70.4119 73.389 71.4387 76.5221L77.1403 74.6535ZM75.9767 63.5709V47.6493H69.9767V63.5709H75.9767ZM75.9767 47.6493C75.9767 43.7529 76.1124 40.9811 76.3525 39.24L70.4088 38.4202C70.1104 40.5838 69.9767 43.6915 69.9767 47.6493H75.9767ZM76.3531 39.2355C76.5471 37.8129 77.1258 36.3763 78.1955 34.9077L73.3456 31.3752C71.7673 33.542 70.7527 35.8978 70.4082 38.4248L76.3531 39.2355ZM78.1812 34.9271C79.1754 33.585 80.5846 32.466 82.5284 31.6144L80.1208 26.1187C77.3521 27.3316 75.0586 29.0626 73.3599 31.3558L78.1812 34.9271ZM82.5406 31.609C84.4733 30.7521 86.7737 30.2845 89.5042 30.2845V24.2845C86.086 24.2845 82.9333 24.8716 80.1086 26.124L82.5406 31.609ZM89.5042 30.2845C93.3067 30.2845 96.1789 31.0216 98.304 32.2861L101.372 27.1299C98.0666 25.163 94.0496 24.2845 89.5042 24.2845V30.2845ZM98.304 32.2861C100.559 33.6279 101.791 35.1443 102.36 36.7627L108.02 34.7713C106.884 31.5426 104.548 29.0196 101.372 27.1299L98.304 32.2861ZM102.363 36.771C103.036 38.6671 103.469 41.9865 103.469 47.0097H109.469C109.469 41.845 109.049 37.6692 108.017 34.763L102.363 36.771ZM103.469 47.0097V52.1935H109.469V47.0097H103.469ZM144.909 71.9861L141.929 71.6355L141.928 71.6484L141.926 71.6613L144.909 71.9861ZM142.485 78.2133L140.058 76.4505L140.051 76.46L140.044 76.4696L142.485 78.2133ZM121.043 82.6566L119.887 85.425L119.903 85.4317L119.92 85.4383L121.043 82.6566ZM112.897 39.4024L109.918 39.0518L109.916 39.0647L109.915 39.0776L112.897 39.4024ZM115.321 33.1415L112.893 31.3787L112.886 31.3882L112.88 31.3977L115.321 33.1415ZM136.763 28.7319L135.607 31.5003L135.623 31.5071L135.639 31.5136L136.763 28.7319ZM130.704 37.5847L127.895 38.6381L127.915 38.6919L127.937 38.7449L130.704 37.5847ZM127.27 37.3827L124.804 35.6751L124.797 35.6854L124.79 35.6958L127.27 37.3827ZM127.068 73.7364L124.222 74.6851L124.235 74.7236L124.249 74.7617L127.068 73.7364ZM130.737 73.5681L127.877 72.6647L130.737 73.5681ZM142.313 60.3394C142.313 65.813 142.176 69.5386 141.929 71.6355L147.888 72.3366C148.18 69.8556 148.313 65.8169 148.313 60.3394H142.313ZM141.926 71.6613C141.737 73.3965 141.126 74.9787 140.058 76.4505L144.912 79.9761C146.581 77.6779 147.586 75.1086 147.891 72.3109L141.926 71.6613ZM140.044 76.4696C139.04 77.8748 137.658 78.9937 135.797 79.8065L138.199 85.3047C140.962 84.0978 143.237 82.3218 144.926 79.957L140.044 76.4696ZM135.797 79.8065C133.938 80.6188 131.669 81.0703 128.92 81.0703V87.0703C132.319 87.0703 135.436 86.512 138.199 85.3047L135.797 79.8065ZM128.92 81.0703C126.327 81.0703 124.091 80.6521 122.166 79.8748L119.92 85.4383C122.663 86.546 125.678 87.0703 128.92 87.0703V81.0703ZM122.199 79.8881C120.358 79.1196 118.939 78.0104 117.866 76.5616L113.045 80.1343C114.799 82.5004 117.105 84.2636 119.887 85.425L122.199 79.8881ZM117.866 76.5616C116.746 75.051 116.113 73.4632 115.909 71.7633L109.952 72.4781C110.287 75.2663 111.337 77.83 113.045 80.1343L117.866 76.5616ZM115.909 71.7633C115.664 69.7175 115.527 65.9537 115.527 60.3394H109.527C109.527 65.9454 109.659 70.0358 109.952 72.4781L115.909 71.7633ZM115.527 60.3394V51.0154H109.527V60.3394H115.527ZM115.527 51.0154C115.527 45.5403 115.652 41.8151 115.879 39.7272L109.915 39.0776C109.648 41.5226 109.527 45.5394 109.527 51.0154H115.527ZM115.877 39.7529C116.086 37.969 116.708 36.3608 117.762 34.8852L112.88 31.3977C111.241 33.6921 110.246 36.2579 109.918 39.0518L115.877 39.7529ZM117.748 34.9043C118.778 33.4868 120.178 32.3626 122.042 31.5483L119.64 26.0501C116.881 27.2554 114.602 29.0261 112.893 31.3787L117.748 34.9043ZM122.042 31.5483C123.901 30.736 126.17 30.2845 128.92 30.2845V24.2845C125.52 24.2845 122.404 24.8428 119.64 26.0501L122.042 31.5483ZM128.92 30.2845C131.505 30.2845 133.717 30.7113 135.607 31.5003L137.918 25.9634C135.186 24.8226 132.169 24.2845 128.92 24.2845V30.2845ZM135.639 31.5136C137.493 32.2621 138.909 33.3567 139.974 34.7932L144.794 31.2204C143.031 28.842 140.7 27.0866 137.886 25.9502L135.639 31.5136ZM139.974 34.7932C141.093 36.3038 141.726 37.8915 141.93 39.5915L147.887 38.8766C147.553 36.0885 146.502 33.5248 144.794 31.2204L139.974 34.7932ZM141.93 39.5915C142.175 41.6373 142.313 45.4011 142.313 51.0154H148.313C148.313 45.4094 148.18 41.319 147.887 38.8766L141.93 39.5915ZM142.313 51.0154V60.3394H148.313V51.0154H142.313ZM134.141 42.4318C134.141 41.1179 134.104 39.9812 134.02 39.0485C133.943 38.2032 133.807 37.2282 133.47 36.4245L127.937 38.7449C127.892 38.6368 127.975 38.8176 128.044 39.588C128.106 40.271 128.141 41.21 128.141 42.4318H134.141ZM133.513 36.5313C133.18 35.6439 132.584 34.8111 131.667 34.2356C130.781 33.6797 129.825 33.5075 128.987 33.5075V39.5075C129.025 39.5075 128.792 39.5149 128.478 39.318C128.133 39.1016 127.958 38.8074 127.895 38.6381L133.513 36.5313ZM128.987 33.5075C127.313 33.5075 125.796 34.2412 124.804 35.6751L129.737 39.0904C129.687 39.1631 129.566 39.2966 129.365 39.3991C129.169 39.4991 129.018 39.5075 128.987 39.5075V33.5075ZM124.79 35.6958C124.407 36.2578 124.219 36.8582 124.113 37.2726C123.996 37.731 123.917 38.2273 123.86 38.7279C123.747 39.7303 123.698 40.9792 123.698 42.4318H129.698C129.698 41.0794 129.745 40.0843 129.822 39.4036C129.861 39.0627 129.901 38.8577 129.927 38.7551C129.964 38.6085 129.943 38.7881 129.751 39.0697L124.79 35.6958ZM123.698 42.4318V67.8794H129.698V42.4318H123.698ZM123.698 67.8794C123.698 69.4913 123.729 70.8406 123.797 71.9061C123.857 72.868 123.961 73.9015 124.222 74.6851L129.914 72.7878C129.929 72.8308 129.847 72.5179 129.785 71.5275C129.729 70.6406 129.698 69.4317 129.698 67.8794H123.698ZM124.249 74.7617C124.589 75.6965 125.213 76.5505 126.16 77.1294C127.065 77.682 128.039 77.8472 128.886 77.8472V71.8472C128.791 71.8472 128.991 71.8273 129.289 72.0097C129.44 72.1019 129.578 72.2239 129.69 72.3658C129.799 72.5046 129.858 72.6303 129.888 72.7112L124.249 74.7617ZM128.886 77.8472C129.804 77.8472 130.842 77.6423 131.778 76.9957C132.735 76.3347 133.303 75.4069 133.598 74.4715L127.877 72.6647C127.903 72.5821 128.028 72.2939 128.367 72.0593C128.686 71.839 128.933 71.8472 128.886 71.8472V77.8472ZM133.598 74.4715C133.851 73.6714 133.965 72.6338 134.034 71.6039C134.107 70.4961 134.141 69.1132 134.141 67.4755H128.141C128.141 69.0468 128.108 70.2839 128.047 71.207C128.016 71.6681 127.98 72.0253 127.943 72.2915C127.903 72.5756 127.872 72.6779 127.877 72.6647L133.598 74.4715ZM134.141 67.4755V42.4318H128.141V67.4755H134.141ZM152.01 28.4289V25.4289H149.01V28.4289H152.01ZM175.168 29.3378L174.324 32.2164L174.332 32.2188L175.168 29.3378ZM179.847 31.9633L177.619 33.9726L177.63 33.9846L177.641 33.9964L179.847 31.9633ZM181.968 36.1373L179.037 36.7796L179.043 36.8031L179.048 36.8266L181.968 36.1373ZM177.491 59.6999L176.278 56.9558L176.267 56.9611L177.491 59.6999ZM166.181 60.979V57.979H163.181V60.979H166.181ZM166.181 82.9258V85.9258H169.181V82.9258H166.181ZM152.01 82.9258H149.01V85.9258H152.01V82.9258ZM166.181 37.753V34.753H163.181V37.753H166.181ZM166.181 51.6213H163.181V54.4592L166.014 54.6166L166.181 51.6213ZM169.917 50.7124L167.567 48.8482L167.558 48.859L169.917 50.7124ZM152.01 31.4289H166.282V25.4289H152.01V31.4289ZM166.282 31.4289C170.044 31.4289 172.669 31.7308 174.324 32.2164L176.013 26.4592C173.538 25.7329 170.239 25.4289 166.282 25.4289V31.4289ZM174.332 32.2188C176.093 32.73 177.084 33.3791 177.619 33.9726L182.075 29.954C180.546 28.2587 178.418 27.1574 176.005 26.4567L174.332 32.2188ZM177.641 33.9964C178.308 34.7194 178.783 35.6193 179.037 36.7796L184.898 35.495C184.434 33.3789 183.496 31.4961 182.053 29.9303L177.641 33.9964ZM179.048 36.8266C179.346 38.0862 179.54 40.3088 179.54 43.6773H185.54C185.54 40.2239 185.353 37.4198 184.888 35.4479L179.048 36.8266ZM179.54 43.6773V48.4235H185.54V43.6773H179.54ZM179.54 48.4235C179.54 51.8153 179.172 53.8134 178.728 54.7981L184.198 57.2635C185.19 55.0617 185.54 51.9883 185.54 48.4235H179.54ZM178.728 54.7981C178.374 55.5835 177.679 56.3368 176.278 56.9558L178.703 62.4439C181.162 61.3574 183.116 59.6648 184.198 57.2635L178.728 54.7981ZM176.267 56.9611C174.884 57.5792 172.845 57.979 169.985 57.979V63.979C173.318 63.979 176.283 63.526 178.715 62.4386L176.267 56.9611ZM169.985 57.979H166.181V63.979H169.985V57.979ZM163.181 60.979V82.9258H169.181V60.979H163.181ZM166.181 79.9258H152.01V85.9258H166.181V79.9258ZM155.01 82.9258V28.4289H149.01V82.9258H155.01ZM163.181 37.753V51.6213H169.181V37.753H163.181ZM166.014 54.6166C166.454 54.6411 166.861 54.6549 167.224 54.6549V48.6549C167.005 48.6549 166.715 48.6463 166.347 48.6259L166.014 54.6166ZM167.224 54.6549C168.872 54.6549 170.934 54.2738 172.276 52.5659L167.558 48.859C167.636 48.7599 167.719 48.6881 167.789 48.641C167.855 48.5959 167.894 48.5837 167.883 48.5877C167.87 48.5922 167.814 48.61 167.701 48.6262C167.588 48.6423 167.431 48.6549 167.224 48.6549V54.6549ZM172.268 52.5766C172.958 51.7063 173.275 50.6657 173.443 49.7922C173.622 48.8705 173.691 47.8252 173.691 46.7068H167.691C167.691 47.608 167.632 48.2402 167.552 48.6536C167.463 49.1153 167.393 49.0677 167.567 48.8482L172.268 52.5766ZM173.691 46.7068V42.2299H167.691V46.7068H173.691ZM173.691 42.2299C173.691 41.1662 173.611 40.1408 173.389 39.222C173.176 38.3373 172.767 37.2695 171.896 36.432L167.737 40.757C167.449 40.4805 167.477 40.2992 167.556 40.6263C167.627 40.9193 167.691 41.431 167.691 42.2299H173.691ZM171.896 36.432C171.058 35.6263 170.02 35.2428 169.146 35.0407C168.24 34.8309 167.231 34.753 166.181 34.753V40.753C166.971 40.753 167.487 40.8153 167.793 40.8861C168.132 40.9645 167.991 41.0017 167.737 40.757L171.896 36.432ZM218.186 28.4289L221.061 29.2836L222.207 25.4289H218.186V28.4289ZM207.852 63.2006L204.976 62.346L204.852 62.7642V63.2006H207.852ZM207.852 82.9258V85.9258H210.852V82.9258H207.852ZM194.724 82.9258H191.724V85.9258H194.724V82.9258ZM194.724 63.2006H197.724V62.7793L197.608 62.3742L194.724 63.2006ZM184.76 28.4289V25.4289H180.78L181.876 29.2553L184.76 28.4289ZM197.787 28.4289L200.733 27.8622L200.265 25.4289H197.787V28.4289ZM201.22 49.8709L198.227 50.0717L204.193 50.2726L201.22 49.8709ZM205.159 28.4289V25.4289H202.74L202.227 27.7929L205.159 28.4289ZM215.31 27.5743L204.976 62.346L210.727 64.0552L221.061 29.2836L215.31 27.5743ZM204.852 63.2006V82.9258H210.852V63.2006H204.852ZM207.852 79.9258H194.724V85.9258H207.852V79.9258ZM197.724 82.9258V63.2006H191.724V82.9258H197.724ZM197.608 62.3742L187.644 27.6026L181.876 29.2553L191.84 64.027L197.608 62.3742ZM184.76 31.4289H197.787V25.4289H184.76V31.4289ZM194.841 28.9957C196.888 39.6375 197.995 46.6055 198.227 50.0717L204.214 49.6701C203.953 45.7757 202.77 38.4492 200.733 27.8622L194.841 28.9957ZM204.193 50.2726C204.965 44.5666 206.26 37.5029 208.091 29.0649L202.227 27.7929C200.377 36.32 199.047 43.5509 198.248 49.4691L204.193 50.2726ZM205.159 31.4289H218.186V25.4289H205.159V31.4289ZM268.674 52.1935V55.1935H271.674V52.1935H268.674ZM254.503 52.1935H251.503V55.1935H254.503V52.1935ZM254.032 37.551L251.265 38.7112L251.288 38.7659L251.313 38.8197L254.032 37.551ZM249.824 37.753L247.018 36.6913L249.824 37.753ZM249.824 73.6354L247.028 74.7228L249.824 73.6354ZM253.998 73.6354L251.229 72.4816L251.215 72.5147L251.202 72.5481L253.998 73.6354ZM254.503 61.1136V58.1136H251.503V61.1136H254.503ZM268.674 61.1136H271.674V58.1136H268.674V61.1136ZM267.462 75.2175L264.624 74.2445L264.62 74.2567L264.616 74.2688L267.462 75.2175ZM262.178 81.4111L260.547 78.8929L260.538 78.8991L262.178 81.4111ZM241.846 81.815L240.384 84.4344L241.846 81.815ZM236.494 75.5878L233.644 76.5221L233.646 76.5292L236.494 75.5878ZM235.586 38.8301L238.557 39.24L238.558 39.2355L235.586 38.8301ZM237.975 33.1415L235.565 31.3558L235.558 31.3654L235.551 31.3752L237.975 33.1415ZM243.529 28.8665L244.733 31.6144L244.745 31.609L243.529 28.8665ZM267.395 35.767L264.565 36.7627L264.568 36.771L267.395 35.767ZM268.674 49.1935H254.503V55.1935H268.674V49.1935ZM257.503 52.1935V42.7011H251.503V52.1935H257.503ZM257.503 42.7011C257.503 41.2769 257.463 40.0565 257.373 39.0701C257.293 38.2023 257.149 37.1368 256.75 36.2824L251.313 38.8197C251.245 38.674 251.257 38.6404 251.295 38.832C251.327 38.9972 251.364 39.2521 251.398 39.6168C251.464 40.3471 251.503 41.3652 251.503 42.7011H257.503ZM256.798 36.3908C256.385 35.4065 255.666 34.6138 254.712 34.1127C253.818 33.6432 252.873 33.5075 252.046 33.5075V39.5075C252.251 39.5075 252.153 39.5458 251.921 39.4241C251.797 39.359 251.657 39.259 251.529 39.1184C251.401 38.9781 251.316 38.8333 251.265 38.7112L256.798 36.3908ZM252.046 33.5075C251.132 33.5075 250.103 33.6666 249.148 34.2021C248.133 34.7713 247.413 35.6492 247.018 36.6913L252.63 38.8147C252.598 38.8986 252.537 39.0198 252.429 39.1469C252.32 39.2754 252.197 39.3716 252.082 39.4357C251.868 39.556 251.792 39.5075 252.046 39.5075V33.5075ZM247.018 36.6913C246.708 37.5106 246.565 38.5098 246.482 39.4606C246.393 40.478 246.353 41.7119 246.353 43.1387H252.353C252.353 41.8054 252.391 40.7616 252.459 39.9837C252.493 39.5959 252.532 39.3013 252.571 39.0866C252.612 38.8592 252.64 38.7873 252.63 38.8147L247.018 36.6913ZM246.353 43.1387V68.4517H252.353V43.1387H246.353ZM246.353 68.4517C246.353 69.8246 246.393 71.0172 246.483 72.0052C246.567 72.928 246.712 73.9098 247.028 74.7228L252.62 72.5481C252.622 72.5533 252.531 72.2671 252.458 71.462C252.391 70.7221 252.353 69.7268 252.353 68.4517H246.353ZM247.028 74.7228C247.417 75.7228 248.111 76.583 249.101 77.149C250.04 77.6852 251.049 77.8472 251.945 77.8472V71.8472C251.741 71.8472 251.847 71.8073 252.078 71.9396C252.199 72.0085 252.322 72.1071 252.428 72.2325C252.532 72.3561 252.59 72.4713 252.62 72.5481L247.028 74.7228ZM251.945 77.8472C252.838 77.8472 253.842 77.6776 254.774 77.1279C255.749 76.5523 256.417 75.6934 256.794 74.7228L251.202 72.5481C251.227 72.4834 251.28 72.3767 251.378 72.2577C251.478 72.1363 251.598 72.035 251.724 71.9607C251.971 71.8149 252.106 71.8472 251.945 71.8472V77.8472ZM256.767 74.7893C257.126 73.9284 257.278 72.854 257.365 71.8726C257.46 70.8016 257.503 69.4841 257.503 67.9468H251.503C251.503 69.3941 251.462 70.517 251.388 71.3422C251.307 72.257 251.207 72.5346 251.229 72.4816L256.767 74.7893ZM257.503 67.9468V61.1136H251.503V67.9468H257.503ZM254.503 64.1136H268.674V58.1136H254.503V64.1136ZM265.674 61.1136V63.2342H271.674V61.1136H265.674ZM265.674 63.2342C265.674 68.847 265.257 72.4005 264.624 74.2445L270.3 76.1905C271.284 73.322 271.674 68.8867 271.674 63.2342H265.674ZM264.616 74.2688C264.105 75.8014 262.893 77.3736 260.547 78.8929L263.808 83.9293C266.937 81.903 269.248 79.3461 270.308 76.1662L264.616 74.2688ZM260.538 78.8991C258.412 80.2867 255.661 81.0703 252.113 81.0703V87.0703C256.554 87.0703 260.512 86.0812 263.818 83.9231L260.538 78.8991ZM252.113 81.0703C248.303 81.0703 245.427 80.378 243.309 79.1957L240.384 84.4344C243.652 86.2591 247.62 87.0703 252.113 87.0703V81.0703ZM243.309 79.1957C241.197 78.0163 239.957 76.5035 239.343 74.6463L233.646 76.5292C234.782 79.968 237.111 82.6068 240.384 84.4344L243.309 79.1957ZM239.345 74.6535C238.622 72.4457 238.182 68.826 238.182 63.5709H232.182C232.182 68.9974 232.617 73.389 233.644 76.5221L239.345 74.6535ZM238.182 63.5709V47.6493H232.182V63.5709H238.182ZM238.182 47.6493C238.182 43.7529 238.317 40.9811 238.557 39.24L232.614 38.4202C232.315 40.5838 232.182 43.6915 232.182 47.6493H238.182ZM238.558 39.2355C238.752 37.8129 239.331 36.3763 240.4 34.9077L235.551 31.3752C233.972 33.542 232.958 35.8978 232.613 38.4248L238.558 39.2355ZM240.386 34.9271C241.38 33.585 242.789 32.466 244.733 31.6144L242.326 26.1187C239.557 27.3316 237.263 29.0626 235.565 31.3558L240.386 34.9271ZM244.745 31.609C246.678 30.7521 248.979 30.2845 251.709 30.2845V24.2845C248.291 24.2845 245.138 24.8716 242.313 26.124L244.745 31.609ZM251.709 30.2845C255.512 30.2845 258.384 31.0216 260.509 32.2861L263.577 27.1299C260.272 25.163 256.254 24.2845 251.709 24.2845V30.2845ZM260.509 32.2861C262.764 33.6279 263.996 35.1443 264.565 36.7627L270.225 34.7713C269.089 31.5426 266.753 29.0196 263.577 27.1299L260.509 32.2861ZM264.568 36.771C265.241 38.6671 265.674 41.9865 265.674 47.0097H271.674C271.674 41.845 271.254 37.6692 270.222 34.763L264.568 36.771ZM265.674 47.0097V52.1935H271.674V47.0097H265.674ZM299.607 28.4289L302.574 27.9872L302.194 25.4289H299.607V28.4289ZM307.719 82.9258V85.9258H311.199L310.687 82.4841L307.719 82.9258ZM293.212 82.9258L290.219 83.1418L290.42 85.9258H293.212V82.9258ZM292.505 73.1305L295.497 72.9146L295.296 70.1305H292.505V73.1305ZM287.422 73.1305V70.1305H284.669L284.433 72.8737L287.422 73.1305ZM286.58 82.9258V85.9258H289.334L289.569 83.1826L286.58 82.9258ZM271.904 82.9258L268.93 82.5327L268.482 85.9258H271.904V82.9258ZM279.108 28.4289V25.4289H276.478L276.134 28.0358L279.108 28.4289ZM292.101 63.4699V66.4699H295.47L295.081 63.1231L292.101 63.4699ZM289.946 40.6142L292.937 40.3773L286.975 40.2042L289.946 40.6142ZM287.254 63.4699L284.262 63.2472L284.022 66.4699H287.254V63.4699ZM296.64 28.8706L304.752 83.3675L310.687 82.4841L302.574 27.9872L296.64 28.8706ZM307.719 79.9258H293.212V85.9258H307.719V79.9258ZM296.204 82.7099L295.497 72.9146L289.512 73.3465L290.219 83.1418L296.204 82.7099ZM292.505 70.1305H287.422V76.1305H292.505V70.1305ZM284.433 72.8737L283.591 82.6691L289.569 83.1826L290.411 73.3873L284.433 72.8737ZM286.58 79.9258H271.904V85.9258H286.58V79.9258ZM274.878 83.319L282.082 28.8221L276.134 28.0358L268.93 82.5327L274.878 83.319ZM279.108 31.4289H299.607V25.4289H279.108V31.4289ZM295.081 63.1231C294.368 57.001 293.653 49.4217 292.937 40.3773L286.956 40.851C287.676 49.9386 288.397 57.5964 289.121 63.8166L295.081 63.1231ZM286.975 40.2042C285.537 50.6244 284.628 58.3221 284.262 63.2472L290.245 63.6925C290.597 58.9682 291.483 51.4288 292.918 41.0241L286.975 40.2042ZM287.254 66.4699H292.101V60.4699H287.254V66.4699Z" fill="#2D2D2D" mask="url(#path-2-outside-1_0_13)"/>
</svg>
