<svg width="87" height="86" viewBox="0 0 87 86" fill="none" xmlns="http://www.w3.org/2000/svg">
<rect x="1.80002" y="1.72" width="82.56" height="82.56" rx="24.6809" fill="#2ADE03"/>
<rect x="1.80002" y="1.72" width="82.56" height="82.56" rx="24.6809" stroke="#2D2D2D" stroke-width="3.44"/>
<path fill-rule="evenodd" clip-rule="evenodd" d="M37.5707 21.2618C34.6252 22.783 32.2154 24.0703 32.2159 24.1226C32.2172 24.2578 39.2852 27.8066 39.536 27.7979C39.6501 27.7941 40.478 27.4163 41.3756 26.9585L43.0078 26.1261L46.5729 27.9432L49.4921 26.6427C53.8908 24.6831 54.3476 24.4683 54.276 24.3962C54.181 24.3005 52.6033 23.4602 48.3229 21.226C46.2542 20.1462 44.2464 19.0875 43.8609 18.8733C43.4755 18.659 43.1075 18.4867 43.0433 18.49C42.979 18.4934 40.5162 19.7407 37.5707 21.2618ZM24.6517 27.8943L21.5855 29.4645V36.3559C21.5855 40.1463 21.6258 43.2473 21.6752 43.2473C21.7244 43.2473 23.233 42.599 25.0275 41.8065L28.2903 40.3658V33.1018L29.8847 33.963C31.1134 34.626 32.3428 35.2877 33.5729 35.9481L35.6665 37.0719L36.5982 36.6542C37.1824 36.3919 37.7656 36.127 38.3475 35.8595C38.7972 35.6519 39.901 35.159 40.8004 34.7639C41.6998 34.3687 42.5324 33.9713 42.6504 33.8807C42.8073 33.7604 40.895 32.7127 35.5774 30.0055C31.5691 27.9648 28.161 26.3016 28.0038 26.3096C27.8466 26.3176 26.3382 27.0306 24.6517 27.8943ZM54.8286 28.3353C52.7403 29.2699 51.0303 30.072 51.0283 30.1177C51.0265 30.1634 52.1647 30.8344 53.5578 31.6085C54.9508 32.3828 56.0906 33.0577 56.0906 33.1086C56.0906 33.1593 54.8579 33.7514 53.3515 34.4247C51.8448 35.0978 48.0367 36.8028 44.8887 38.2137L34.341 42.9405C31.6877 44.1297 29.296 45.2015 29.0262 45.3226C23.6067 47.7549 22.1171 48.4298 21.9126 48.5457C21.7069 48.6623 21.6603 49.34 21.6237 52.741L21.58 56.7974L27.0639 59.5676L30.8659 57.8664C32.9571 56.9308 34.668 56.1163 34.668 56.0563C34.668 55.9965 34.2816 55.7469 33.8095 55.5014C33.3372 55.2559 32.3622 54.7124 31.6427 54.2935C30.9232 53.8745 30.2058 53.49 30.0483 53.439C29.8908 53.3882 29.7642 53.2993 29.7668 53.2413C29.7694 53.1834 31.4437 52.395 33.4872 51.489C37.4562 49.7297 40.4937 48.3737 47.0146 45.4501C49.9305 44.143 52.8468 42.8368 55.7635 41.5313C58.3269 40.3842 61.3072 39.0445 62.3865 38.5542L64.3489 37.6627L64.4364 29.4577L61.6554 28.0426C60.1257 27.2643 58.8183 26.6294 58.7497 26.6317C58.6812 26.6339 56.9168 27.4004 54.8286 28.3353ZM63.6038 43.1358C63.194 43.3343 62.3845 43.7058 61.805 43.9614C61.2255 44.2171 60.1257 44.709 59.3612 45.0549L57.9712 45.6834L57.9395 49.2851C57.922 51.266 57.8484 52.8779 57.776 52.8675C57.6114 52.8432 55.0062 51.5186 52.3874 50.1274C50.4973 49.1234 50.3786 49.0835 49.9344 49.3016C49.6777 49.4277 48.143 50.1101 46.524 50.8183C44.905 51.5263 43.5277 52.1519 43.4629 52.2085C43.3983 52.2651 46.6566 54.0159 50.7039 56.0995L58.0623 59.8879L61.2057 58.2757C62.9344 57.3892 64.4043 56.5805 64.472 56.4788C64.6244 56.2501 64.6114 42.7436 64.4588 42.7618C64.3985 42.769 64.0136 42.9373 63.6038 43.1358ZM46.197 58.989C45.6517 59.2215 45.1066 59.4542 44.5617 59.6873C42.916 60.3931 43.2385 60.4165 41.2807 59.4502C39.9767 58.8067 39.4147 58.6081 39.1707 58.7045C38.9877 58.7768 37.4127 59.4793 35.6705 60.2656C33.9283 61.0519 32.4425 61.6952 32.3686 61.6952C31.6377 61.6952 32.8528 62.415 37.5419 64.7601L43.0412 67.51L45.3549 66.3775C46.6275 65.7546 49.1943 64.5073 51.0591 63.6057C52.9236 62.7039 54.4262 61.9427 54.3981 61.914C54.3697 61.8854 52.8073 61.09 50.926 60.1464L47.5052 58.4311L46.197 58.989Z" fill="#2D2D2D"/>
</svg>
