<svg width="87" height="86" viewBox="0 0 87 86" fill="none" xmlns="http://www.w3.org/2000/svg">
<rect x="2.07999" y="1.72" width="82.56" height="82.56" rx="24.6809" fill="#2ADE03"/>
<rect x="2.07999" y="1.72" width="82.56" height="82.56" rx="24.6809" stroke="#2D2D2D" stroke-width="3.44"/>
<path d="M62.6079 36.7796V54.1749L43.3522 65.3459L24.0887 54.1749V31.8329L43.36 20.6463L58.1583 29.2388L60.3948 27.9456L43.36 18.06L21.86 30.5319V55.4681L43.36 67.94L64.86 55.4681V35.4864L62.6079 36.7796Z" fill="#2D2D2D"/>
<path d="M37.9675 54.1905H34.7491V43.3311H45.4874C46.5004 43.3233 47.4745 42.9104 48.1915 42.1782C48.9084 41.4537 49.3058 40.4721 49.3136 39.4516C49.3214 38.9453 49.2201 38.4467 49.0253 37.9793C48.8304 37.5119 48.5421 37.0912 48.1837 36.7407C47.833 36.3823 47.4122 36.0941 46.9524 35.8994C46.4926 35.7046 45.9939 35.6033 45.4874 35.6111H34.7491V32.3081H45.4952C47.3732 32.3159 49.1811 33.0793 50.5059 34.4114C51.8384 35.7513 52.5865 37.5586 52.6021 39.4516C52.6099 40.9006 52.1735 42.3106 51.3475 43.4947C50.5838 44.6243 49.5084 45.5123 48.2538 46.0421C47.007 46.4394 45.7134 46.6341 44.412 46.6263H37.9675V54.1905Z" fill="#2D2D2D"/>
<path d="M52.5242 53.9178H48.7681L45.8692 48.8387C47.0147 48.7686 48.1447 48.5349 49.2279 48.1454L52.5242 53.9178Z" fill="#2D2D2D"/>
<path d="M60.3636 33.165L62.5845 34.4036L64.8054 33.165V30.5397L62.5845 29.2466L60.3636 30.5397V33.165Z" fill="#2D2D2D"/>
</svg>
