<svg width="87" height="86" viewBox="0 0 87 86" fill="none" xmlns="http://www.w3.org/2000/svg">
<rect x="2.36" y="1.72" width="82.56" height="82.56" rx="24.6809" fill="#2ADE03"/>
<rect x="2.36" y="1.72" width="82.56" height="82.56" rx="24.6809" stroke="#2D2D2D" stroke-width="3.44"/>
<path fill-rule="evenodd" clip-rule="evenodd" d="M60.345 25.1871C60.8631 24.9683 61.4302 24.8928 61.9873 24.9686C62.5443 25.0443 63.071 25.2685 63.5124 25.6177C63.9538 25.9669 64.2938 26.4285 64.4971 26.9544C64.7004 27.4802 64.7595 28.0511 64.6683 28.6077L59.9131 57.5479C59.4518 60.3395 56.3991 61.9404 53.8475 60.5498C51.7131 59.3865 48.543 57.5942 45.6915 55.724C44.2658 54.7879 39.8985 51.7902 40.4353 49.657C40.8965 47.8331 48.2348 40.9794 52.4281 36.9046C54.0739 35.3037 53.3233 34.3802 51.3797 35.8527C46.5533 39.5089 38.8041 45.0689 36.242 46.6341C33.9818 48.0141 32.8035 48.2497 31.3945 48.0141C28.824 47.5849 26.4401 46.9202 24.4945 46.1102C21.8653 45.0163 21.9932 41.3896 24.4924 40.3336L60.345 25.1871Z" fill="#2D2D2D"/>
</svg>
