<svg width="42" height="36" viewBox="0 0 42 36" fill="none" xmlns="http://www.w3.org/2000/svg">
<path fill-rule="evenodd" clip-rule="evenodd" d="M37.0136 0.961704C37.5212 0.752418 38.0769 0.680237 38.6227 0.752672C39.1686 0.825107 39.6846 1.03951 40.1171 1.37357C40.5496 1.70763 40.8828 2.14912 41.082 2.65211C41.2812 3.15509 41.3391 3.70118 41.2497 4.23352L36.5904 31.9152C36.1384 34.5854 33.1472 36.1167 30.647 34.7866C28.5557 33.6739 25.4494 31.9595 22.6555 30.1706C21.2585 29.2752 16.9792 26.4079 17.5052 24.3675C17.9571 22.6229 25.1475 16.0672 29.2562 12.1696C30.8689 10.6383 30.1334 9.75497 28.229 11.1635C23.4998 14.6607 15.9068 19.9789 13.3964 21.476C11.1818 22.796 10.0272 23.0213 8.64666 22.796C6.12799 22.3855 3.79216 21.7496 1.88569 20.9749C-0.690502 19.9286 -0.565185 16.4596 1.88364 15.4495L37.0136 0.961704Z" fill="#63A2EB"/>
</svg>
