<svg width="37" height="44" viewBox="0 0 37 44" fill="none" xmlns="http://www.w3.org/2000/svg">
<path d="M7.98325 5.24455C11.7771 1.47157 16.3144 0.52832 18.234 0.52832C20.1535 0.52832 24.941 1.47157 28.7349 5.24455C29.5253 4.90768 31.3094 3.96443 32.1223 2.88644C31.219 5.35684 27.651 11.0388 20.6051 14.0033C20.4371 13.6492 19.7277 12.941 18.234 12.941C16.7402 12.941 16.281 13.6492 16.113 14.0033C9.06722 11.0388 5.49915 5.35684 4.59584 2.88644C5.40882 3.96443 7.19285 4.90768 7.98325 5.24455Z" fill="#63A2EB"/>
<path d="M10.1853 13.0459C11.2539 13.8471 13.6589 15.5436 14.7306 15.9198C12.69 16.5555 8.92421 16.8708 10.1853 13.0459Z" fill="#63A2EB"/>
<path d="M5.92971 8.52609C6.42885 9.26633 7.59528 10.8722 8.26782 11.3738C7.19061 13.8732 6.5967 18.872 12.8387 18.872L12.681 21.0405L8.05736 23.6531C10.2323 24.3091 14.9659 27.3032 16.5004 34.0317L18.3417 40.3614L20.2162 34.0317C21.7507 27.3032 26.4843 24.3091 28.6593 23.6531L24.0356 21.0405L23.878 18.872C30.1199 18.872 29.526 13.8732 28.4488 11.3738C29.1214 10.8722 30.2878 9.26633 30.7869 8.52609C32.7272 10.4557 32.938 14.2592 32.8009 15.9198C32.8009 28.4553 35.1568 34.3114 36.3348 35.6725L31.3443 31.8806L27.9653 37.4297L24.0356 34.0317L18.3417 43.4721L12.681 34.0317L8.75132 37.4297L5.37237 31.8806L0.381836 35.6725C1.5598 34.3114 3.91572 28.4553 3.91572 15.9198C3.77861 14.2592 3.98944 10.4557 5.92971 8.52609Z" fill="#63A2EB"/>
<path d="M26.5313 13.0459C25.4628 13.8471 23.0578 15.5436 21.9861 15.9198C24.0266 16.5555 27.7924 16.8708 26.5313 13.0459Z" fill="#63A2EB"/>
<path d="M15.3179 19.5222C15.3179 17.0442 17.4362 15.8243 18.4985 15.5242C19.5608 15.8243 21.6855 17.0442 21.6855 19.5222V22.2236L24.0758 23.7003C22.2167 24.8529 18.5049 28.289 18.5049 32.8129C18.5049 28.289 14.7866 24.8529 12.9275 23.7003L15.3179 22.2236V19.5222Z" fill="#63A2EB"/>
</svg>
