<svg width="38" height="44" viewBox="0 0 38 44" fill="none" xmlns="http://www.w3.org/2000/svg">
<path fill-rule="evenodd" clip-rule="evenodd" d="M14.1622 2.51355C11.5626 3.87719 9.43574 5.0311 9.43619 5.07803C9.43735 5.19917 15.6753 8.38036 15.8967 8.37261C15.9974 8.36921 16.728 8.03055 17.5202 7.62011L18.9608 6.874L22.1072 8.50281L24.6836 7.33705C28.5657 5.58041 28.9689 5.38791 28.9057 5.32324C28.8219 5.23743 27.4294 4.48418 23.6517 2.48142C21.8259 1.51347 20.0539 0.564423 19.7137 0.372383C19.3735 0.180344 19.0488 0.025861 18.9921 0.0288513C18.9354 0.0318416 16.7618 1.14997 14.1622 2.51355ZM2.76035 8.45902L0.0541986 9.8666L0.0541986 16.0442C0.0541986 19.4419 0.089733 22.2217 0.133321 22.2217C0.176757 22.2217 1.50819 21.6406 3.09199 20.9302L5.97164 19.6387L5.97164 13.1271L7.37882 13.8991C8.46317 14.4935 9.54818 15.0866 10.6338 15.6786L12.4816 16.686L13.3039 16.3116C13.8195 16.0764 14.3342 15.839 14.8477 15.5992C15.2446 15.4131 16.2188 14.9712 17.0126 14.6171C17.8064 14.2628 18.5412 13.9066 18.6454 13.8254C18.7838 13.7175 17.0961 12.7784 12.403 10.3515C8.86538 8.52223 5.85748 7.03132 5.71877 7.03847C5.58005 7.04561 4.24877 7.68478 2.76035 8.45902ZM29.3935 8.8543C27.5504 9.69215 26.0411 10.4111 26.0394 10.4521C26.0378 10.4931 27.0423 11.0946 28.2719 11.7885C29.5013 12.4826 30.5072 13.0876 30.5072 13.1332C30.5072 13.1787 29.4193 13.7095 28.0897 14.313C26.76 14.9164 23.3991 16.4448 20.6208 17.7095L11.3117 21.9467C8.97002 23.0127 6.85924 23.9735 6.62112 24.0821C1.83807 26.2625 0.523394 26.8675 0.342853 26.9713C0.161305 27.0759 0.120184 27.6833 0.0878708 30.7321L0.0493164 34.3683L4.8892 36.8516L8.24478 35.3266C10.0904 34.4879 11.6004 33.7578 11.6004 33.704C11.6004 33.6504 11.2593 33.4266 10.8427 33.2066C10.4258 32.9865 9.56534 32.4993 8.9303 32.1238C8.29532 31.7482 7.66214 31.4036 7.52312 31.3578C7.38415 31.3123 7.27247 31.2325 7.27473 31.1805C7.27705 31.1287 8.7547 30.4219 10.5582 29.6098C14.0612 28.0327 16.7419 26.8172 22.4971 24.1964C25.0706 23.0247 27.6444 21.8537 30.2185 20.6835C32.4809 19.6552 35.1112 18.4543 36.0638 18.0148L37.7957 17.2156L37.8729 9.86052L35.4185 8.59192C34.0685 7.89426 32.9146 7.32513 32.8541 7.32721C32.7936 7.32914 31.2364 8.01625 29.3935 8.8543ZM37.1381 22.1218C36.7765 22.2997 36.062 22.6328 35.5506 22.8619C35.0391 23.0911 34.0685 23.5321 33.3937 23.8421L32.1669 24.4055L32.139 27.6342C32.1235 29.4099 32.0586 30.8549 31.9947 30.8455C31.8495 30.8237 29.5502 29.6363 27.2389 28.3892C25.5708 27.4892 25.466 27.4534 25.074 27.6489C24.8474 27.762 23.4929 28.3737 22.0641 29.0085C20.6352 29.6432 19.4196 30.204 19.3624 30.2548C19.3054 30.3054 22.1811 31.875 25.7531 33.7427L32.2474 37.1387L35.0216 35.6936C36.5473 34.8988 37.8447 34.1739 37.9044 34.0827C38.0389 33.8777 38.0274 21.7702 37.8927 21.7866C37.8395 21.793 37.4998 21.9439 37.1381 22.1218ZM21.7754 36.333C21.2942 36.5413 20.8131 36.7499 20.3322 36.9589C18.8798 37.5916 19.1644 37.6126 17.4365 36.7464C16.2857 36.1695 15.7896 35.9915 15.5743 36.0779C15.4128 36.1427 14.0227 36.7724 12.4851 37.4773C10.9476 38.1822 9.63621 38.7588 9.57098 38.7588C8.92588 38.7588 9.99835 39.4041 14.1368 41.5062L18.9902 43.9713L21.0323 42.9561C22.1555 42.3977 24.4208 41.2796 26.0666 40.4714C27.7122 39.663 29.0383 38.9807 29.0134 38.9549C28.9884 38.9293 27.6095 38.2163 25.9491 37.3705L22.9301 35.8328L21.7754 36.333Z" fill="#63A2EB"/>
</svg>
