<svg width="22" height="21" viewBox="0 0 22 21" fill="none" xmlns="http://www.w3.org/2000/svg">
<path d="M7.54892 2.62132C8.63517 -0.721817 13.3648 -0.721817 14.4511 2.62132V2.62132C14.9369 4.11642 16.3301 5.12868 17.9022 5.12868V5.12868C21.4173 5.12868 22.8789 9.62684 20.035 11.693V11.693C18.7632 12.617 18.2311 14.2549 18.7168 15.75V15.75C19.8031 19.0931 15.9767 21.8732 13.1329 19.807V19.807C11.8611 18.883 10.1389 18.883 8.86712 19.807V19.807C6.02327 21.8732 2.1969 19.0931 3.28316 15.75V15.75C3.76894 14.2549 3.23677 12.617 1.96496 11.693V11.693C-0.878882 9.62684 0.58266 5.12868 4.09785 5.12868V5.12868C5.66988 5.12868 7.06314 4.11642 7.54892 2.62132V2.62132Z" fill="#2A3FC7"/>
</svg>
