<svg width="19" height="22" viewBox="0 0 19 22" fill="none" xmlns="http://www.w3.org/2000/svg">
<path d="M3.92335 2.41611C5.82279 0.483223 8.21969 0 9.18071 0V6.35897C8.43285 6.35897 8.07767 6.72178 7.99356 6.90318C4.46605 5.38448 2.67968 2.47364 2.22743 1.20806C2.63446 1.76031 3.52764 2.24353 3.92335 2.41611Z" fill="black"/>
<path d="M14.3128 2.41611C12.4133 0.483223 10.0164 0 9.05541 0V6.35897C9.80327 6.35897 10.1584 6.72178 10.2426 6.90318C13.7701 5.38448 15.5564 2.47364 16.0087 1.20806C15.6017 1.76031 14.7085 2.24353 14.3128 2.41611Z" fill="black"/>
<path d="M5.02584 6.41272C5.5608 6.82318 6.76487 7.69227 7.30142 7.885C6.27982 8.21068 4.39445 8.37219 5.02584 6.41272Z" fill="black"/>
<path d="M4.06582 5.55613C3.72912 5.29915 3.14514 4.47646 2.89524 4.09724C1.92384 5.08575 1.81828 7.03429 1.88693 7.885C1.88693 14.3069 0.707428 17.307 0.117676 18.0043L2.61621 16.0617L4.30789 18.9045L6.27532 17.1637L9.126 22V20.4064L8.18751 17.1637C7.41925 13.7167 5.04937 12.1828 3.96046 11.8468L6.27532 10.5083L6.35424 9.39743C3.22918 9.39743 3.52652 6.83656 4.06582 5.55613Z" fill="black"/>
<path d="M13.2095 6.41272C12.6745 6.82318 11.4705 7.69227 10.9339 7.885C11.9555 8.21068 13.8409 8.37219 13.2095 6.41272Z" fill="black"/>
<path d="M14.1695 5.55613C14.5062 5.29915 15.0902 4.47646 15.3401 4.09724C16.3115 5.08575 16.4171 7.03429 16.3484 7.885C16.3484 14.3069 17.5279 17.307 18.1177 18.0043L15.6191 16.0617L13.9275 18.9045L11.96 17.1637L9.10935 22V20.4064L10.0478 17.1637C10.8161 13.7167 13.186 12.1828 14.2749 11.8468L11.96 10.5083L11.8811 9.39743C15.0062 9.39743 14.7088 6.83656 14.1695 5.55613Z" fill="black"/>
<path d="M7.59548 9.73052C7.59548 8.46102 8.65919 7.83611 9.19104 7.68234V16.5393C9.19104 14.2217 7.3295 12.4614 6.39873 11.871L7.59548 11.1144V9.73052Z" fill="black"/>
<path d="M10.7834 9.73052C10.7834 8.46102 9.71972 7.83611 9.18787 7.68234V16.5393C9.18787 14.2217 11.0494 12.4614 11.9802 11.871L10.7834 11.1144V9.73052Z" fill="black"/>
</svg>
