<svg width="23" height="18" viewBox="0 0 23 18" fill="none" xmlns="http://www.w3.org/2000/svg">
<path d="M22.1177 2.11765C21.3079 2.48824 20.4351 2.73176 19.5307 2.84824C20.4561 2.28706 21.1712 1.39765 21.5077 0.328235C20.6349 0.857647 19.6674 1.22824 18.6473 1.44C17.8165 0.529412 16.6492 0 15.3242 0C12.8529 0 10.8337 2.03294 10.8337 4.54235C10.8337 4.90235 10.8758 5.25177 10.9494 5.58C7.20563 5.38941 3.87198 3.57882 1.65305 0.836471C1.26395 1.50353 1.04311 2.28706 1.04311 3.11294C1.04311 4.69059 1.83183 6.08824 3.05171 6.88235C2.30506 6.88235 1.61098 6.67059 1.00104 6.35294V6.38471C1.00104 8.58706 2.55745 10.4294 4.61863 10.8424C3.95699 11.0255 3.26207 11.0508 2.589 10.9165C2.87462 11.8191 3.43402 12.6089 4.18853 13.1749C4.94305 13.7408 5.85476 14.0545 6.7955 14.0718C5.20088 15.3429 3.22419 16.0299 1.19033 16.02C0.832781 16.02 0.475228 15.9988 0.117676 15.9565C2.11576 17.2482 4.49244 18 7.03737 18C15.3242 18 19.8777 11.0753 19.8777 5.07176C19.8777 4.87059 19.8777 4.68 19.8672 4.47882C20.7506 3.84353 21.5077 3.03882 22.1177 2.11765Z" fill="black"/>
</svg>
