<svg width="199" height="109" viewBox="0 0 199 109" fill="none" xmlns="http://www.w3.org/2000/svg">
<rect x="2.5" y="2.5" width="194" height="104" rx="52" fill="#24A471"/>
<rect x="2.5" y="2.5" width="194" height="104" rx="52" stroke="#1E1E1E" stroke-width="5"/>
<path d="M99.8843 40.4833C99.8843 43.0082 98.9932 45.1915 97.2109 47.0332C95.4286 48.8452 92.8294 50.1522 89.4133 50.9543C91.255 51.4593 92.6512 52.291 93.6017 53.4495C94.5523 54.5783 95.0276 55.8853 95.0276 57.3705C95.0276 59.7172 94.2849 61.752 92.7997 63.4749C91.3442 65.1978 89.2054 66.5345 86.3834 67.4851C83.5615 68.4059 80.1603 68.8663 76.1798 68.8663C74.6946 68.8663 73.5064 68.8218 72.6152 68.7327C72.5855 69.5644 72.229 70.1882 71.5458 70.6041C70.8626 71.0199 69.9863 71.2279 68.917 71.2279C67.8476 71.2279 67.105 70.9902 66.6891 70.5149C66.3029 70.0397 66.1395 69.3416 66.199 68.4208C66.4663 64.2621 66.9861 59.9103 67.7585 55.3655C68.5308 50.7909 69.511 46.3797 70.6992 42.1319C70.9072 41.3893 71.323 40.8695 71.9469 40.5724C72.5707 40.2754 73.3875 40.1268 74.3975 40.1268C76.2095 40.1268 77.1155 40.6318 77.1155 41.6418C77.1155 42.0577 77.0264 42.5329 76.8482 43.0676C76.0758 45.3846 75.3035 48.5333 74.5312 52.5138C73.7589 56.4645 73.2093 60.2371 72.8826 63.8313C74.3084 63.9502 75.4669 64.0096 76.358 64.0096C80.5167 64.0096 83.5615 63.4155 85.4923 62.2273C87.4528 61.0094 88.4331 59.4647 88.4331 57.5933C88.4331 56.2863 87.8687 55.1872 86.7399 54.2961C85.6408 53.4049 83.7843 52.9148 81.1702 52.8257C80.5761 52.796 80.1603 52.6475 79.9226 52.3801C79.685 52.1128 79.5662 51.682 79.5662 51.0879C79.5662 50.2265 79.7444 49.5284 80.1008 48.9938C80.4573 48.4591 81.1108 48.1769 82.0614 48.1472C84.1704 48.0878 86.0715 47.7758 87.7647 47.2115C89.4876 46.6471 90.8392 45.8599 91.8194 44.8499C92.7997 43.8102 93.2898 42.6072 93.2898 41.2408C93.2898 39.5179 92.4432 38.1663 90.7501 37.1861C89.0569 36.1761 86.4577 35.6711 82.9525 35.6711C79.7741 35.6711 76.6996 36.087 73.7291 36.9187C70.7587 37.7207 68.2337 38.7456 66.1544 39.9932C65.2038 40.5576 64.4018 40.8398 63.7483 40.8398C63.2136 40.8398 62.7977 40.6615 62.5007 40.3051C62.2333 39.9189 62.0997 39.4436 62.0997 38.8792C62.0997 38.1366 62.2482 37.498 62.5453 36.9633C62.872 36.4286 63.6295 35.8196 64.8177 35.1364C67.3129 33.7106 70.2388 32.5966 73.5955 31.7946C76.9521 30.9926 80.383 30.5916 83.8882 30.5916C89.2648 30.5916 93.275 31.4976 95.9187 33.3096C98.5624 35.1216 99.8843 37.5128 99.8843 40.4833ZM103.877 69.2228C102.541 69.2228 101.442 68.6138 100.58 67.3959C99.7484 66.1483 99.3326 64.6037 99.3326 62.762C99.3326 60.5341 99.4811 58.4993 99.7781 56.6576C100.075 54.7862 100.565 52.8108 101.249 50.7315C101.546 49.8403 101.961 49.2017 102.496 48.8155C103.031 48.4294 103.877 48.2363 105.036 48.2363C105.689 48.2363 106.135 48.3402 106.373 48.5482C106.64 48.7561 106.774 49.068 106.774 49.4839C106.774 49.7215 106.61 50.5236 106.284 51.89C105.986 52.9891 105.749 53.9842 105.571 54.8753C104.976 57.9943 104.679 60.0737 104.679 61.1133C104.679 61.7372 104.754 62.1827 104.902 62.4501C105.051 62.6877 105.288 62.8065 105.615 62.8065C106.061 62.8065 106.61 62.361 107.264 61.4698C107.947 60.5787 108.66 59.2271 109.403 57.4151C110.175 55.6031 110.917 53.3752 111.63 50.7315C111.868 49.8403 112.224 49.2017 112.7 48.8155C113.205 48.4294 113.947 48.2363 114.928 48.2363C115.611 48.2363 116.086 48.3254 116.353 48.5036C116.621 48.6521 116.754 48.9492 116.754 49.3948C116.754 50.1374 116.383 52.1722 115.641 55.4991C114.809 59.3014 114.393 61.648 114.393 62.5392C114.393 63.1036 114.512 63.5492 114.749 63.8759C114.987 64.173 115.299 64.3215 115.685 64.3215C116.279 64.3215 116.977 63.965 117.779 63.2521C118.611 62.5095 119.71 61.3213 121.077 59.6875C121.433 59.2716 121.834 59.0637 122.28 59.0637C122.666 59.0637 122.963 59.2419 123.171 59.5984C123.408 59.9549 123.527 60.445 123.527 61.0688C123.527 62.257 123.245 63.1778 122.681 63.8313C121.403 65.4057 120.022 66.6979 118.537 67.7078C117.081 68.7178 115.418 69.2228 113.546 69.2228C112.121 69.2228 111.066 68.6732 110.383 67.5742C109.729 66.4751 109.403 64.9304 109.403 62.9402C108.898 64.9601 108.14 66.5196 107.13 67.6187C106.12 68.6881 105.036 69.2228 103.877 69.2228ZM135.509 48.2363C136.193 48.2363 136.668 48.3254 136.935 48.5036C137.202 48.6818 137.336 48.9789 137.336 49.3948C137.336 50.1077 136.95 52.6475 136.178 57.0141C135.494 61.2025 135.093 63.6828 134.975 64.4552C133.876 72.0893 132.361 78.1343 130.43 82.59C128.499 87.0457 125.929 89.2736 122.721 89.2736C121.206 89.2736 119.974 88.7983 119.023 87.8478C118.073 86.9269 117.597 85.709 117.597 84.1941C117.597 82.7979 117.909 81.3721 118.533 79.9166C119.186 78.461 120.375 76.7827 122.098 74.8816C123.85 73.0102 126.316 70.8566 129.494 68.4208L129.628 67.3959C129.836 66.2969 130.073 64.7225 130.341 62.6729C129.747 64.8116 128.915 66.4454 127.845 67.5742C126.776 68.6732 125.647 69.2228 124.459 69.2228C123.122 69.2228 122.023 68.6138 121.162 67.3959C120.33 66.1483 119.914 64.6037 119.914 62.762C119.914 60.5341 120.063 58.4993 120.36 56.6576C120.657 54.7862 121.147 52.8108 121.83 50.7315C122.127 49.8403 122.543 49.2017 123.078 48.8155C123.612 48.4294 124.459 48.2363 125.618 48.2363C126.271 48.2363 126.717 48.3402 126.954 48.5482C127.222 48.7561 127.355 49.068 127.355 49.4839C127.355 49.7215 127.192 50.5236 126.865 51.89C126.568 52.9891 126.33 53.9842 126.152 54.8753C125.915 56.0932 125.707 57.2666 125.528 58.3954C125.35 59.4944 125.261 60.4004 125.261 61.1133C125.261 62.2421 125.573 62.8065 126.197 62.8065C126.642 62.8065 127.192 62.361 127.845 61.4698C128.529 60.5787 129.242 59.2271 129.984 57.4151C130.757 55.6031 131.499 53.3752 132.212 50.7315C132.45 49.8403 132.806 49.2017 133.281 48.8155C133.786 48.4294 134.529 48.2363 135.509 48.2363ZM123.211 84.9515C123.954 84.9515 124.786 84.0901 125.707 82.3672C126.628 80.6443 127.548 77.7778 128.469 73.7676C126.182 75.6985 124.518 77.451 123.479 79.0254C122.469 80.6295 121.964 82.0256 121.964 83.2138C121.964 83.7188 122.053 84.1346 122.231 84.4614C122.439 84.7882 122.766 84.9515 123.211 84.9515Z" fill="white"/>
</svg>
