<svg width="70" height="69" viewBox="0 0 70 69" fill="none" xmlns="http://www.w3.org/2000/svg">
<rect x="2.80103" y="2.5" width="64" height="64" rx="16.3824" fill="#EB3D3E"/>
<rect x="2.80103" y="2.5" width="64" height="64" rx="16.3824" stroke="#1E1E1E" stroke-width="5"/>
<path d="M25.7874 19.943C29.0835 16.6651 33.0254 15.8456 34.693 15.8456C36.3607 15.8456 40.52 16.6651 43.8161 19.943C44.5027 19.6503 46.0527 18.8308 46.759 17.8943C45.9742 20.0405 42.8743 24.9769 36.7531 27.5524C36.6071 27.2447 35.9908 26.6295 34.693 26.6295C33.3953 26.6295 32.9963 27.2447 32.8504 27.5524C26.7291 24.9769 23.6292 20.0405 22.8445 17.8943C23.5508 18.8308 25.1007 19.6503 25.7874 19.943Z" fill="white"/>
<path d="M27.7005 26.7206C28.6288 27.4167 30.7182 28.8906 31.6493 29.2174C29.8765 29.7697 26.6049 30.0436 27.7005 26.7206Z" fill="white"/>
<path d="M24.0033 22.7939C24.437 23.437 25.4503 24.8322 26.0346 25.268C25.0988 27.4394 24.5828 31.7823 30.0057 31.7823L29.8687 33.6662L25.8518 35.936C27.7413 36.5059 31.8538 39.1072 33.1869 44.9528L34.7866 50.4519L36.4152 44.9528C37.7483 39.1072 41.8608 36.5059 43.7503 35.936L39.7334 33.6662L39.5964 31.7823C45.0193 31.7823 44.5034 27.4394 43.5675 25.268C44.1518 24.8322 45.1652 23.437 45.5988 22.7939C47.2845 24.4703 47.4676 27.7747 47.3485 29.2174C47.3485 40.1081 49.3953 45.1957 50.4187 46.3782L46.083 43.0838L43.1474 47.9049L39.7334 44.9528L34.7866 53.1544L29.8687 44.9528L26.4547 47.9049L23.5191 43.0838L19.1834 46.3782C20.2068 45.1957 22.2536 40.1081 22.2536 29.2174C22.1345 27.7747 22.3176 24.4703 24.0033 22.7939Z" fill="white"/>
<path d="M41.9016 26.7206C40.9733 27.4167 38.8839 28.8906 37.9528 29.2174C39.7256 29.7697 42.9972 30.0436 41.9016 26.7206Z" fill="white"/>
<path d="M32.1596 32.3471C32.1596 30.1942 33.9999 29.1345 34.9229 28.8737C35.8458 29.1345 37.6916 30.1942 37.6916 32.3471V34.694L39.7683 35.977C38.1532 36.9783 34.9284 39.9636 34.9284 43.8939C34.9284 39.9636 31.6981 36.9783 30.0829 35.977L32.1596 34.694V32.3471Z" fill="white"/>
</svg>
