<svg width="187" height="185" viewBox="0 0 187 185" fill="none" xmlns="http://www.w3.org/2000/svg">
<mask id="path-1-outside-1_1_6624" maskUnits="userSpaceOnUse" x="11.0869" y="15.9337" width="166" height="152" fill="black">
<rect fill="white" x="11.0869" y="15.9337" width="166" height="152"/>
<path fill-rule="evenodd" clip-rule="evenodd" d="M171.702 72.1855C172.571 77.6915 173.099 83.2127 172.62 88.7872C172.128 94.5052 170.508 100.095 168.398 105.415C164.292 115.734 157.839 124.895 150.014 132.732C142.638 140.119 134.093 146.366 124.88 151.266C120.279 153.713 115.499 155.837 110.58 157.568C105.619 159.315 100.556 160.538 95.4052 161.569C92.4959 162.151 89.5829 162.722 86.6394 163.104C83.852 163.464 81.0819 163.553 78.2754 163.587C78.025 163.59 77.7745 163.594 77.524 163.597H77.5236C75.3599 163.627 73.1919 163.657 71.0346 163.445C69.682 163.31 68.2773 163.093 66.9832 162.621C63.8359 162.211 60.7402 161.488 57.7597 160.348C50.5862 157.602 44.3809 152.819 38.3132 148.142L38.3127 148.142L38.3054 148.136L38.3029 148.134C37.408 147.444 36.5161 146.757 35.6245 146.079C34.5679 145.275 33.5149 144.464 32.4614 143.653L32.4605 143.652L32.4602 143.652L32.4601 143.652C29.8287 141.626 27.1944 139.597 24.4947 137.671C23.6443 137.064 22.7142 136.666 21.7265 136.351C21.698 136.332 21.6697 136.313 21.6414 136.294C21.543 136.228 21.4452 136.162 21.3415 136.102C20.9247 135.866 20.4707 135.673 20.0089 135.541C19.7553 135.468 19.4957 135.447 19.2364 135.425C19.0057 135.406 18.7752 135.387 18.5494 135.332C17.8572 135.164 17.4834 134.394 17.3944 133.748C17.3872 133.699 17.3849 133.649 17.3827 133.6C17.3813 133.571 17.38 133.542 17.3777 133.513C17.8475 132.562 18.2251 131.569 18.4989 130.534C19.9395 125.097 18.7942 119.425 17.6924 113.969L17.599 113.506C17.5037 113.445 17.4291 113.358 17.408 113.222C17.1915 111.795 16.9217 110.379 16.6344 108.964C16.5862 108.726 16.5377 108.489 16.4893 108.251C15.9972 105.839 15.5054 103.427 15.2559 100.974C14.9514 97.9699 15.108 94.9491 15.3365 91.9441C15.7846 86.0367 17.0371 80.081 19.3588 74.6164C23.6068 64.6197 30.4139 56.0866 38.3326 48.7444C42.3246 45.0431 46.5658 41.6235 50.9007 38.3337C55.1494 35.1071 59.5171 32.112 64.2651 29.6601C73.6388 24.8218 84.1471 21.6438 94.6249 20.4229C105.56 19.1486 116.78 20.3961 127.236 23.7881C127.318 23.8132 127.339 23.8596 127.33 23.9062C131.042 25.2342 134.589 26.9989 138.142 28.7667L138.142 28.7667L138.142 28.7669C139.186 29.286 140.23 29.8054 141.279 30.3141C141.822 30.5781 142.366 30.8373 142.913 31.0937C142.934 31.0671 142.963 31.0446 142.995 31.0262C143.135 31.1022 143.276 31.1766 143.416 31.251L143.417 31.2511L143.42 31.2529L143.421 31.2535C143.513 31.3022 143.605 31.3509 143.697 31.4001C144.666 32.1012 145.647 32.787 146.658 33.4281C149.067 34.9581 151.679 36.4021 154.465 37.1436C156.022 37.7772 157.632 38.283 159.256 38.4427C160.096 38.5249 160.96 38.5262 161.829 38.5275C163.7 38.5303 165.591 38.5332 167.288 39.345C167.987 40.2071 168.08 41.1926 167.821 42.373C167.811 42.392 167.802 42.4112 167.792 42.4305C167.774 42.4655 167.756 42.5007 167.737 42.5349C166.666 44.4938 166.551 46.4517 166.998 48.628C167.134 49.2936 167.303 49.9495 167.492 50.6006C167.819 52.6516 168.333 54.6784 168.869 56.679C168.942 56.9528 169.016 57.2265 169.09 57.5003L169.093 57.5116L169.097 57.5246C169.494 58.9954 169.892 60.4671 170.22 61.9557C170.621 63.7864 170.878 65.6547 171.114 67.5124C171.259 68.6521 171.376 69.7965 171.477 70.943C171.495 71.0394 171.513 71.1358 171.531 71.2322L171.532 71.2334C171.592 71.5497 171.652 71.8664 171.702 72.1855Z"/>
</mask>
<path fill-rule="evenodd" clip-rule="evenodd" d="M171.702 72.1855C172.571 77.6915 173.099 83.2127 172.62 88.7872C172.128 94.5052 170.508 100.095 168.398 105.415C164.292 115.734 157.839 124.895 150.014 132.732C142.638 140.119 134.093 146.366 124.88 151.266C120.279 153.713 115.499 155.837 110.58 157.568C105.619 159.315 100.556 160.538 95.4052 161.569C92.4959 162.151 89.5829 162.722 86.6394 163.104C83.852 163.464 81.0819 163.553 78.2754 163.587C78.025 163.59 77.7745 163.594 77.524 163.597H77.5236C75.3599 163.627 73.1919 163.657 71.0346 163.445C69.682 163.31 68.2773 163.093 66.9832 162.621C63.8359 162.211 60.7402 161.488 57.7597 160.348C50.5862 157.602 44.3809 152.819 38.3132 148.142L38.3127 148.142L38.3054 148.136L38.3029 148.134C37.408 147.444 36.5161 146.757 35.6245 146.079C34.5679 145.275 33.5149 144.464 32.4614 143.653L32.4605 143.652L32.4602 143.652L32.4601 143.652C29.8287 141.626 27.1944 139.597 24.4947 137.671C23.6443 137.064 22.7142 136.666 21.7265 136.351C21.698 136.332 21.6697 136.313 21.6414 136.294C21.543 136.228 21.4452 136.162 21.3415 136.102C20.9247 135.866 20.4707 135.673 20.0089 135.541C19.7553 135.468 19.4957 135.447 19.2364 135.425C19.0057 135.406 18.7752 135.387 18.5494 135.332C17.8572 135.164 17.4834 134.394 17.3944 133.748C17.3872 133.699 17.3849 133.649 17.3827 133.6C17.3813 133.571 17.38 133.542 17.3777 133.513C17.8475 132.562 18.2251 131.569 18.4989 130.534C19.9395 125.097 18.7942 119.425 17.6924 113.969L17.599 113.506C17.5037 113.445 17.4291 113.358 17.408 113.222C17.1915 111.795 16.9217 110.379 16.6344 108.964C16.5862 108.726 16.5377 108.489 16.4893 108.251C15.9972 105.839 15.5054 103.427 15.2559 100.974C14.9514 97.9699 15.108 94.9491 15.3365 91.9441C15.7846 86.0367 17.0371 80.081 19.3588 74.6164C23.6068 64.6197 30.4139 56.0866 38.3326 48.7444C42.3246 45.0431 46.5658 41.6235 50.9007 38.3337C55.1494 35.1071 59.5171 32.112 64.2651 29.6601C73.6388 24.8218 84.1471 21.6438 94.6249 20.4229C105.56 19.1486 116.78 20.3961 127.236 23.7881C127.318 23.8132 127.339 23.8596 127.33 23.9062C131.042 25.2342 134.589 26.9989 138.142 28.7667L138.142 28.7667L138.142 28.7669C139.186 29.286 140.23 29.8054 141.279 30.3141C141.822 30.5781 142.366 30.8373 142.913 31.0937C142.934 31.0671 142.963 31.0446 142.995 31.0262C143.135 31.1022 143.276 31.1766 143.416 31.251L143.417 31.2511L143.42 31.2529L143.421 31.2535C143.513 31.3022 143.605 31.3509 143.697 31.4001C144.666 32.1012 145.647 32.787 146.658 33.4281C149.067 34.9581 151.679 36.4021 154.465 37.1436C156.022 37.7772 157.632 38.283 159.256 38.4427C160.096 38.5249 160.96 38.5262 161.829 38.5275C163.7 38.5303 165.591 38.5332 167.288 39.345C167.987 40.2071 168.08 41.1926 167.821 42.373C167.811 42.392 167.802 42.4112 167.792 42.4305C167.774 42.4655 167.756 42.5007 167.737 42.5349C166.666 44.4938 166.551 46.4517 166.998 48.628C167.134 49.2936 167.303 49.9495 167.492 50.6006C167.819 52.6516 168.333 54.6784 168.869 56.679C168.942 56.9528 169.016 57.2265 169.09 57.5003L169.093 57.5116L169.097 57.5246C169.494 58.9954 169.892 60.4671 170.22 61.9557C170.621 63.7864 170.878 65.6547 171.114 67.5124C171.259 68.6521 171.376 69.7965 171.477 70.943C171.495 71.0394 171.513 71.1358 171.531 71.2322L171.532 71.2334C171.592 71.5497 171.652 71.8664 171.702 72.1855Z" fill="#D7772D"/>
<path d="M172.62 88.7872L176.605 89.1301L176.605 89.1296L172.62 88.7872ZM171.702 72.1855L175.653 71.5621L175.653 71.5609L171.702 72.1855ZM168.398 105.415L172.114 106.894L172.116 106.89L168.398 105.415ZM150.014 132.732L152.845 135.559L152.845 135.559L150.014 132.732ZM124.88 151.266L126.759 154.798L126.759 154.798L124.88 151.266ZM110.58 157.568L109.252 153.795L109.252 153.795L110.58 157.568ZM95.4052 161.569L96.1897 165.492L96.1907 165.491L95.4052 161.569ZM86.6394 163.104L87.153 167.071L87.1537 167.07L86.6394 163.104ZM78.2754 163.587L78.2263 159.587L78.2257 159.587L78.2754 163.587ZM77.524 163.597V167.597H77.5519L77.5798 167.597L77.524 163.597ZM77.5236 163.597V159.597H77.4958L77.4679 159.597L77.5236 163.597ZM71.0346 163.445L70.6399 167.425L70.6419 167.425L71.0346 163.445ZM66.9832 162.621L68.3535 158.863L67.9384 158.712L67.5003 158.655L66.9832 162.621ZM57.7597 160.348L56.3298 164.083L56.3304 164.084L57.7597 160.348ZM38.3132 148.142L35.8313 151.279L35.8512 151.295L35.8713 151.31L38.3132 148.142ZM38.3127 148.142L40.7947 145.005L40.7745 144.989L40.7542 144.973L38.3127 148.142ZM38.3054 148.136L40.7469 144.968L40.7401 144.962L38.3054 148.136ZM38.3029 148.134L35.861 151.302L35.8683 151.308L38.3029 148.134ZM35.6245 146.079L33.2027 149.262L33.2028 149.262L35.6245 146.079ZM32.4614 143.653L29.9992 146.805L30.0101 146.814L30.0211 146.822L32.4614 143.653ZM32.4605 143.652L34.9227 140.5L34.8966 140.479L34.8701 140.46L32.4605 143.652ZM32.4602 143.652L34.8698 140.459L34.7183 140.345L34.5566 140.245L32.4602 143.652ZM32.4601 143.652L30.0197 146.821L30.1855 146.949L30.3637 147.059L32.4601 143.652ZM24.4947 137.671L26.8179 134.415L26.8178 134.415L24.4947 137.671ZM21.7265 136.351L19.5115 139.682L19.9771 139.991L20.5097 140.161L21.7265 136.351ZM21.6414 136.294L19.4061 139.611L19.4063 139.611L21.6414 136.294ZM21.3415 136.102L23.3278 132.63L23.3176 132.625L21.3415 136.102ZM20.0089 135.541L21.1097 131.695L21.1074 131.695L20.0089 135.541ZM19.2364 135.425L18.9066 139.412L18.9067 139.412L19.2364 135.425ZM18.5494 135.332L17.603 139.219L17.6039 139.219L18.5494 135.332ZM17.3944 133.748L21.357 133.202L21.3545 133.184L21.3519 133.166L17.3944 133.748ZM17.3827 133.6L21.3785 133.417L21.3785 133.417L17.3827 133.6ZM17.3777 133.513L13.791 131.742L13.3025 132.732L13.3905 133.832L17.3777 133.513ZM18.4989 130.534L14.6323 129.51L14.6321 129.511L18.4989 130.534ZM17.6924 113.969L13.7714 114.76L13.7715 114.761L17.6924 113.969ZM17.599 113.506L21.5199 112.715L21.1845 111.053L19.757 110.138L17.599 113.506ZM17.408 113.222L13.4533 113.822L13.4554 113.835L17.408 113.222ZM16.6344 108.964L12.7143 109.759L12.7144 109.76L16.6344 108.964ZM16.4893 108.251L12.5699 109.05L12.5699 109.05L16.4893 108.251ZM15.2559 100.974L11.2763 101.377L11.2764 101.379L15.2559 100.974ZM15.3365 91.9441L19.325 92.2474L19.325 92.2467L15.3365 91.9441ZM19.3588 74.6164L15.6774 73.052L15.6772 73.0523L19.3588 74.6164ZM38.3326 48.7444L35.613 45.8112L35.6129 45.8112L38.3326 48.7444ZM50.9007 38.3337L53.3188 41.5201L53.3199 41.5192L50.9007 38.3337ZM64.2651 29.6601L62.4304 26.1057L62.4298 26.106L64.2651 29.6601ZM94.6249 20.4229L95.0879 24.396L95.0879 24.396L94.6249 20.4229ZM127.236 23.7881L126.002 27.5929L126.028 27.6012L126.053 27.6091L127.236 23.7881ZM127.33 23.9062L123.404 23.1395L122.745 26.5142L125.983 27.6724L127.33 23.9062ZM138.142 28.7667L140.047 25.2495L139.986 25.2164L139.924 25.1855L138.142 28.7667ZM138.142 28.7667L136.237 32.2839L136.281 32.3078L136.326 32.3306L138.142 28.7667ZM138.142 28.7669L136.326 32.3308L136.343 32.3395L136.361 32.3481L138.142 28.7669ZM141.279 30.3141L143.027 26.7164L143.024 26.7151L141.279 30.3141ZM142.913 31.0937L141.215 34.7153L144.111 36.0734L146.073 33.5469L142.913 31.0937ZM142.995 31.0262L144.905 27.5116L142.936 26.4415L140.996 27.562L142.995 31.0262ZM143.416 31.251L141.544 34.7858L141.621 34.8266L141.7 34.8641L143.416 31.251ZM143.417 31.2511L145.285 27.7143L145.21 27.6745L145.133 27.638L143.417 31.2511ZM143.42 31.2529L145.307 27.7259L145.298 27.721L145.289 27.7162L143.42 31.2529ZM143.421 31.2535L141.534 34.7805L141.542 34.7844L141.549 34.7883L143.421 31.2535ZM143.697 31.4001L146.042 28.1594L145.823 28.0015L145.586 27.8742L143.697 31.4001ZM146.658 33.4281L148.802 30.0515L148.801 30.0506L146.658 33.4281ZM154.465 37.1436L155.973 33.4387L155.738 33.3432L155.494 33.2781L154.465 37.1436ZM159.256 38.4427L158.865 42.4235L158.866 42.4236L159.256 38.4427ZM161.829 38.5275L161.835 34.5275L161.829 38.5275ZM167.288 39.345L170.395 36.8254L169.827 36.1253L169.014 35.7363L167.288 39.345ZM167.821 42.373L171.368 44.222L171.614 43.7498L171.728 43.2296L167.821 42.373ZM167.792 42.4305L164.224 40.6227L164.223 40.6234L167.792 42.4305ZM167.737 42.5349L164.24 40.5929L164.234 40.6043L164.228 40.6158L167.737 42.5349ZM166.998 48.628L170.916 47.8261L170.916 47.8235L166.998 48.628ZM167.492 50.6006L171.443 49.9717L171.403 49.7247L171.333 49.4845L167.492 50.6006ZM168.869 56.679L165.005 57.7144L165.006 57.716L168.869 56.679ZM169.09 57.5003L165.229 58.5439L165.23 58.5474L169.09 57.5003ZM169.093 57.5116L172.955 56.4683L172.954 56.4644L169.093 57.5116ZM169.097 57.5246L165.235 58.5679L165.235 58.5684L169.097 57.5246ZM170.22 61.9557L174.128 61.1004L174.126 61.0956L170.22 61.9557ZM171.114 67.5124L175.082 67.0094L175.082 67.0078L171.114 67.5124ZM171.477 70.943L167.492 71.2919L167.509 71.4857L167.545 71.6769L171.477 70.943ZM171.531 71.2322L167.601 71.9767L167.602 71.9806L171.531 71.2322ZM171.532 71.2334L175.462 70.4887L175.461 70.485L171.532 71.2334ZM176.605 89.1296C177.124 83.0927 176.544 77.2095 175.653 71.5621L167.751 72.8089C168.597 78.1735 169.074 83.3327 168.634 88.4448L176.605 89.1296ZM172.116 106.89C174.315 101.346 176.069 95.361 176.605 89.1301L168.635 88.4442C168.187 93.6495 166.701 98.8447 164.68 103.94L172.116 106.89ZM152.845 135.559C160.989 127.401 167.776 117.796 172.114 106.894L164.681 103.936C160.807 113.672 154.689 122.389 147.183 129.906L152.845 135.559ZM126.759 154.798C136.307 149.719 145.176 143.238 152.845 135.559L147.184 129.906C140.1 137 131.879 143.013 123.002 147.735L126.759 154.798ZM111.908 161.341C117.027 159.54 121.991 157.334 126.759 154.798L123.002 147.735C118.567 150.093 113.97 152.134 109.252 153.795L111.908 161.341ZM96.1907 165.491C101.435 164.441 106.7 163.175 111.909 161.341L109.252 153.795C104.537 155.455 99.6761 156.634 94.6196 157.647L96.1907 165.491ZM87.1537 167.07C90.2503 166.669 93.2878 166.072 96.1897 165.492L94.6206 157.647C91.7041 158.23 88.9156 158.775 86.1251 159.137L87.1537 167.07ZM78.3244 167.587C81.1667 167.552 84.1265 167.462 87.153 167.071L86.1259 159.137C83.5776 159.467 80.997 159.553 78.2263 159.587L78.3244 167.587ZM77.5798 167.597C77.8306 167.593 78.0782 167.59 78.3251 167.587L78.2257 159.587C77.9718 159.59 77.7185 159.594 77.4682 159.597L77.5798 167.597ZM77.5236 167.597H77.524V159.597H77.5236V167.597ZM70.6419 167.425C73.0601 167.664 75.4533 167.626 77.5792 167.597L77.4679 159.597C75.2666 159.628 73.3236 159.651 71.4272 159.464L70.6419 167.425ZM65.6129 166.379C67.3765 167.022 69.1723 167.28 70.6399 167.425L71.4292 159.464C70.1917 159.341 69.1782 159.164 68.3535 158.863L65.6129 166.379ZM56.3304 164.084C59.6479 165.353 63.0559 166.143 66.466 166.588L67.5003 158.655C64.6158 158.279 61.8325 157.623 59.1889 156.612L56.3304 164.084ZM35.8713 151.31C41.8526 155.921 48.5154 161.092 56.3298 164.083L59.1895 156.612C52.657 154.112 46.9092 149.717 40.7552 144.974L35.8713 151.31ZM35.8308 151.279L35.8313 151.279L40.7952 145.005L40.7947 145.005L35.8308 151.279ZM35.8639 151.305L35.8712 151.31L40.7542 144.973L40.7469 144.968L35.8639 151.305ZM35.8683 151.308L35.8708 151.31L40.7401 144.962L40.7376 144.961L35.8683 151.308ZM33.2028 149.262C34.0826 149.932 34.9644 150.611 35.861 151.302L40.7448 144.966C39.8516 144.278 38.9496 143.582 38.0462 142.895L33.2028 149.262ZM30.0211 146.822C31.073 147.632 32.1353 148.45 33.2027 149.262L38.0463 142.895C37.0006 142.1 35.9569 141.296 34.9018 140.484L30.0211 146.822ZM29.9983 146.805L29.9992 146.805L34.9237 140.501L34.9227 140.5L29.9983 146.805ZM30.0506 146.845L30.0509 146.845L34.8701 140.46L34.8698 140.459L30.0506 146.845ZM30.3637 147.059L30.3638 147.059L34.5566 140.245L34.5565 140.245L30.3637 147.059ZM22.1716 140.927C24.8019 142.804 27.3785 144.788 30.0197 146.821L34.9005 140.483C32.2788 138.464 29.5869 136.391 26.8179 134.415L22.1716 140.927ZM20.5097 140.161C21.2679 140.404 21.7763 140.645 22.1717 140.928L26.8178 134.415C25.5123 133.484 24.1605 132.929 22.9432 132.541L20.5097 140.161ZM19.4063 139.611C19.433 139.629 19.4712 139.655 19.5115 139.682L23.9415 133.02C23.9247 133.009 23.9064 132.997 23.8766 132.977L19.4063 139.611ZM19.3553 139.574C19.3248 139.557 19.3101 139.547 19.3199 139.554C19.3246 139.557 19.333 139.562 19.3478 139.572C19.3634 139.582 19.3803 139.594 19.4061 139.611L23.8768 132.977C23.7975 132.923 23.5797 132.775 23.3278 132.63L19.3553 139.574ZM18.908 139.386C19.0554 139.428 19.2164 139.496 19.3655 139.58L23.3176 132.625C22.633 132.236 21.8859 131.917 21.1097 131.695L18.908 139.386ZM18.9067 139.412C18.9232 139.413 18.9379 139.414 18.9523 139.416C18.9665 139.417 18.9795 139.418 18.9917 139.419C19.0163 139.421 19.0357 139.423 19.0521 139.424C19.0683 139.426 19.0799 139.427 19.0879 139.428C19.0959 139.429 19.0994 139.429 19.0992 139.429C19.099 139.429 19.0945 139.429 19.0862 139.427C19.078 139.426 19.0656 139.424 19.0496 139.421C19.0177 139.415 18.97 139.404 18.9104 139.387L21.1074 131.695C20.4145 131.497 19.7621 131.455 19.5661 131.439L18.9067 139.412ZM17.6039 139.219C18.184 139.36 18.7278 139.397 18.9066 139.412L19.5662 131.439C19.5365 131.437 19.5126 131.435 19.4894 131.433C19.4668 131.431 19.4482 131.429 19.4321 131.428C19.3994 131.425 19.383 131.423 19.3763 131.422C19.3701 131.421 19.3789 131.422 19.3983 131.425C19.4181 131.429 19.4513 131.435 19.4949 131.446L17.6039 139.219ZM13.4318 134.293C13.5428 135.1 13.8293 136.033 14.3908 136.897C14.9607 137.775 15.9896 138.826 17.603 139.219L19.4958 131.446C20.417 131.67 20.9129 132.252 21.1005 132.541C21.2799 132.817 21.335 133.042 21.357 133.202L13.4318 134.293ZM13.3868 133.782C13.3875 133.798 13.3957 134.048 13.4368 134.329L21.3519 133.166C21.3674 133.272 21.374 133.353 21.3767 133.391C21.3791 133.425 21.38 133.45 21.3785 133.417L13.3868 133.782ZM13.3905 133.832C13.3881 133.802 13.3868 133.78 13.3864 133.773C13.3862 133.769 13.3861 133.767 13.3862 133.769C13.3863 133.771 13.3865 133.774 13.3868 133.782L21.3785 133.417C21.3777 133.4 21.3736 133.302 21.365 133.194L13.3905 133.832ZM14.6321 129.511C14.4295 130.276 14.1479 131.02 13.791 131.742L20.9644 135.284C21.547 134.104 22.0208 132.861 22.3658 131.558L14.6321 129.511ZM13.7715 114.761C14.9108 120.402 15.7929 125.129 14.6323 129.51L22.3655 131.559C24.0862 125.064 22.6775 118.447 21.6132 113.177L13.7715 114.761ZM13.678 114.298L13.7714 114.76L21.6133 113.178L21.5199 112.715L13.678 114.298ZM13.4554 113.835C13.6885 115.337 14.5985 116.334 15.4409 116.874L19.757 110.138C20.0406 110.32 20.408 110.615 20.7317 111.069C21.0677 111.539 21.2773 112.071 21.3607 112.608L13.4554 113.835ZM12.7144 109.76C12.9961 111.147 13.2512 112.49 13.4533 113.822L21.3627 112.621C21.1318 111.1 20.8473 109.61 20.5544 108.168L12.7144 109.76ZM12.5699 109.05C12.6185 109.288 12.6665 109.524 12.7143 109.759L20.5545 108.168C20.5058 107.928 20.457 107.689 20.4086 107.452L12.5699 109.05ZM11.2764 101.379C11.5495 104.064 12.0846 106.671 12.5699 109.05L20.4086 107.452C19.9099 105.007 19.4613 102.791 19.2354 100.569L11.2764 101.379ZM11.348 91.6409C11.1171 94.6777 10.9337 97.998 11.2763 101.377L19.2355 100.571C18.9691 97.9419 19.0989 95.2204 19.325 92.2474L11.348 91.6409ZM15.6772 73.0523C13.1531 78.9933 11.8222 85.3898 11.3479 91.6416L19.325 92.2467C19.747 86.6836 20.921 81.1686 23.0403 76.1805L15.6772 73.0523ZM35.6129 45.8112C27.4118 53.4153 20.2065 62.3938 15.6774 73.052L23.0402 76.1808C27.0071 66.8456 33.4159 58.7579 41.0522 51.6776L35.6129 45.8112ZM48.4827 35.1474C44.0896 38.4812 39.7362 41.9883 35.613 45.8112L41.0522 51.6776C44.9129 48.098 49.042 44.7657 53.3188 41.5201L48.4827 35.1474ZM62.4298 26.106C57.3967 28.7051 52.8244 31.8501 48.4816 35.1482L53.3199 41.5192C57.4745 38.3641 61.6375 35.5188 66.1004 33.2142L62.4298 26.106ZM94.162 16.4498C83.2126 17.7257 72.2387 21.043 62.4304 26.1057L66.0997 33.2146C75.0388 28.6005 85.0817 25.562 95.0879 24.396L94.162 16.4498ZM128.471 19.9833C117.499 16.4241 105.701 15.1052 94.162 16.4498L95.0879 24.396C105.42 23.192 116.061 24.3682 126.002 27.5929L128.471 19.9833ZM131.256 24.6729C131.429 23.7829 131.339 22.6104 130.595 21.5472C129.907 20.5624 128.985 20.1423 128.419 19.967L126.053 27.6091C125.569 27.459 124.698 27.0746 124.039 26.131C123.324 25.1089 123.239 23.9828 123.404 23.1395L131.256 24.6729ZM139.924 25.1855C136.407 23.4359 132.65 21.561 128.677 20.1399L125.983 27.6724C129.435 28.9074 132.771 30.562 136.36 32.3479L139.924 25.1855ZM140.047 25.2496L140.047 25.2495L136.237 32.2839L136.237 32.2839L140.047 25.2496ZM139.959 25.203L139.958 25.2028L136.326 32.3306L136.326 32.3308L139.959 25.203ZM143.024 26.7151C141.997 26.2167 140.971 25.7063 139.924 25.1857L136.361 32.3481C137.401 32.8658 138.463 33.3942 139.533 33.9132L143.024 26.7151ZM144.611 27.4722C144.079 27.2222 143.551 26.971 143.027 26.7164L139.53 33.9119C140.093 34.1851 140.654 34.4523 141.215 34.7153L144.611 27.4722ZM140.996 27.562C140.723 27.7192 140.212 28.0506 139.754 28.6405L146.073 33.5469C145.656 34.0837 145.204 34.3701 144.995 34.4903L140.996 27.562ZM145.288 27.7161C145.145 27.6402 145.023 27.5758 144.905 27.5116L141.086 34.5407C141.247 34.6287 141.407 34.713 141.544 34.7858L145.288 27.7161ZM145.133 27.638L145.133 27.6379L141.7 34.8641L141.7 34.8642L145.133 27.638ZM145.289 27.7162L145.285 27.7143L141.548 34.7878L141.551 34.7896L145.289 27.7162ZM145.308 27.7265L145.307 27.7259L141.533 34.7799L141.534 34.7805L145.308 27.7265ZM145.586 27.8742C145.484 27.8198 145.384 27.7666 145.293 27.7187L141.549 34.7883C141.642 34.8378 141.726 34.8821 141.808 34.9261L145.586 27.8742ZM148.801 30.0506C147.887 29.4707 146.978 28.8372 146.042 28.1594L141.352 34.6409C142.353 35.3651 143.408 36.1032 144.515 36.8055L148.801 30.0506ZM155.494 33.2781C153.309 32.6968 151.112 31.5186 148.802 30.0515L144.513 36.8047C147.022 38.3976 150.048 40.1074 153.436 41.009L155.494 33.2781ZM159.648 34.4619C158.562 34.3551 157.354 34.0006 155.973 33.4387L152.957 40.8485C154.69 41.5538 156.702 42.2109 158.865 42.4235L159.648 34.4619ZM161.835 34.5275C160.93 34.5262 160.261 34.5219 159.646 34.4618L158.866 42.4236C159.93 42.5279 160.99 42.5263 161.823 42.5275L161.835 34.5275ZM169.014 35.7363C166.363 34.4688 163.533 34.5301 161.835 34.5275L161.823 42.5275C163.867 42.5306 164.818 42.5976 165.562 42.9536L169.014 35.7363ZM171.728 43.2296C172.141 41.3483 172.128 38.9622 170.395 36.8254L164.181 41.8645C164.145 41.8201 164.093 41.7437 164.047 41.6381C164 41.5324 163.974 41.4332 163.962 41.3559C163.94 41.2154 163.976 41.2319 163.914 41.5164L171.728 43.2296ZM171.36 44.2382C171.363 44.2331 171.364 44.2296 171.366 44.2262C171.368 44.2229 171.369 44.2208 171.37 44.2194C171.371 44.2163 171.37 44.2178 171.368 44.222L164.274 40.5241C164.252 40.5672 164.231 40.6075 164.224 40.6227L171.36 44.2382ZM171.234 44.4768C171.296 44.3651 171.348 44.2622 171.36 44.2376L164.223 40.6234C164.219 40.6325 164.216 40.637 164.215 40.6407C164.213 40.6439 164.213 40.6437 164.214 40.6414C164.216 40.6374 164.226 40.6192 164.24 40.5929L171.234 44.4768ZM170.916 47.8235C170.607 46.3208 170.741 45.3797 171.247 44.4539L164.228 40.6158C162.592 43.6078 162.494 46.5827 163.079 49.4325L170.916 47.8235ZM171.333 49.4845C171.166 48.9092 171.026 48.361 170.916 47.8261L163.079 49.4298C163.242 50.2263 163.44 50.9898 163.651 51.7166L171.333 49.4845ZM172.733 55.6435C172.201 53.6588 171.734 51.8029 171.443 49.9717L163.542 51.2294C163.903 53.5002 164.465 55.6979 165.005 57.7144L172.733 55.6435ZM172.952 56.4566C172.878 56.1824 172.805 55.9119 172.732 55.6419L165.006 57.716C165.08 57.9937 165.155 58.2706 165.229 58.5439L172.952 56.4566ZM172.954 56.4644L172.951 56.4531L165.23 58.5474L165.233 58.5587L172.954 56.4644ZM172.958 56.4813L172.955 56.4683L165.232 58.5549L165.235 58.5679L172.958 56.4813ZM174.126 61.0956C173.775 59.4992 173.352 57.9364 172.958 56.4808L165.235 58.5684C165.637 60.0545 166.01 61.435 166.314 62.8158L174.126 61.0956ZM175.082 67.0078C174.845 65.141 174.569 63.1194 174.128 61.1004L166.313 62.811C166.672 64.4534 166.911 66.1685 167.146 68.017L175.082 67.0078ZM175.462 70.5941C175.358 69.4076 175.235 68.2106 175.082 67.0094L167.146 68.0155C167.283 69.0937 167.395 70.1855 167.492 71.2919L175.462 70.5941ZM175.461 70.4877C175.443 70.3901 175.426 70.2992 175.409 70.2092L167.545 71.6769C167.564 71.7796 167.583 71.8815 167.601 71.9767L175.461 70.4877ZM175.461 70.485L175.461 70.4838L167.602 71.9806L167.602 71.9818L175.461 70.485ZM175.653 71.5609C175.591 71.1716 175.52 70.7951 175.462 70.4887L167.602 71.9781C167.663 72.3043 167.712 72.5612 167.751 72.8101L175.653 71.5609Z" fill="#2C0800" mask="url(#path-1-outside-1_1_6624)"/>
<path d="M172.62 88.7872C173.099 83.2127 172.571 77.6915 171.702 72.1855C171.636 71.7687 171.554 71.356 171.477 70.943C171.376 69.7965 171.258 68.6521 171.114 67.5124C170.878 65.6548 170.621 63.7864 170.22 61.9557C169.829 60.1818 169.339 58.432 168.869 56.679C168.333 54.6784 167.819 52.6516 167.492 50.6006C167.303 49.9495 167.134 49.2936 166.998 48.628C166.551 46.4518 166.666 44.4938 167.737 42.5349C167.767 42.4819 167.793 42.4265 167.821 42.373C168.08 41.1926 167.987 40.2071 167.288 39.345C164.803 38.1564 161.903 38.702 159.256 38.4427C157.632 38.283 156.022 37.7773 154.465 37.1436C151.679 36.4021 149.067 34.9582 146.658 33.4281C145.647 32.787 144.666 32.1012 143.697 31.4002C143.463 31.275 143.229 31.1529 142.995 31.0262C142.963 31.0447 142.934 31.0671 142.913 31.0937C142.366 30.8373 141.822 30.5781 141.279 30.3141C136.658 28.0732 132.132 25.6243 127.33 23.9062C127.339 23.8596 127.317 23.8132 127.236 23.7881C116.78 20.3962 105.56 19.1486 94.6249 20.4229C84.147 21.6438 73.6387 24.8218 64.265 29.6601C59.517 32.112 55.1494 35.1071 50.9007 38.3337C46.5657 41.6235 42.3245 45.0432 38.3325 48.7444C30.4138 56.0866 23.6067 64.6197 19.3587 74.6164C17.037 80.081 15.7845 86.0367 15.3364 91.9441C15.108 94.9491 14.9513 97.9699 15.2558 100.974C15.5299 103.669 16.0964 106.313 16.6343 108.964C16.9216 110.379 17.1914 111.795 17.4079 113.222C17.429 113.358 17.5037 113.445 17.5989 113.506C18.7272 119.104 19.9802 124.943 18.4989 130.534C18.2251 131.569 17.8474 132.562 17.3777 133.513C17.3839 133.591 17.3829 133.67 17.3943 133.748C17.4833 134.394 17.8571 135.164 18.5493 135.332C19.0288 135.449 19.5296 135.404 20.0088 135.541C20.4706 135.673 20.9246 135.866 21.3415 136.102C21.4749 136.179 21.5987 136.266 21.7264 136.351C22.7141 136.666 23.6442 137.064 24.4947 137.671C28.2756 140.369 31.9283 143.267 35.6244 146.079C42.5645 151.358 49.5241 157.196 57.7596 160.348C60.7401 161.488 63.8358 162.211 66.9831 162.621C68.2773 163.093 69.6819 163.311 71.0345 163.445C73.4417 163.682 75.8624 163.617 78.2753 163.587C81.0818 163.553 83.852 163.464 86.6394 163.104C89.5829 162.722 92.4959 162.151 95.4051 161.569C100.556 160.538 105.619 159.315 110.58 157.568C115.499 155.837 120.279 153.713 124.88 151.266C134.093 146.366 142.638 140.119 150.014 132.732C157.839 124.895 164.292 115.734 168.398 105.415C170.508 100.095 172.128 94.5053 172.62 88.7872Z" fill="#763628"/>
<path d="M19.4087 133.388C19.2002 132.966 19.1334 132.465 19.1945 132.009C19.2026 131.954 19.2138 131.9 19.2234 131.845C20.8439 127.053 20.3541 121.85 19.5575 116.813C19.1005 113.924 18.5163 111.011 18.1272 108.089C17.3389 104.448 16.6917 100.728 16.7111 97.058C16.6713 97.257 16.6247 97.456 16.5881 97.6559C16.5859 97.3864 16.5714 97.1186 16.5779 96.8481C16.7108 90.8545 17.5445 84.7832 19.3238 79.0515C22.5184 68.7574 29.1688 59.8119 36.7269 52.2818C40.4483 48.574 44.4513 45.1598 48.5608 41.8908C52.6876 38.6079 56.8814 35.397 61.4296 32.7124C70.2932 27.4803 80.1941 24.1835 90.2917 22.3178C93.9375 21.6441 97.5981 21.2686 101.261 21.1543C102.721 20.989 104.188 20.9 105.657 20.8946C111.401 20.8727 117.122 21.9675 122.552 23.8943C123.923 24.2245 125.277 24.6245 126.61 25.1019C130.009 26.3153 133.25 27.9125 136.48 29.5138C137.666 29.9601 138.788 30.5278 139.878 31.1532C140.677 31.4551 141.458 31.8099 142.223 32.2194C143.006 32.6391 143.766 33.0997 144.519 33.572C145.11 33.7947 145.702 34.0107 146.301 34.2102C147.069 34.7541 147.86 35.264 148.654 35.7473C150.81 37.0639 153.109 38.2144 155.514 39.0042C156.681 39.388 157.869 39.681 159.097 39.7833C159.967 39.8558 160.84 39.8531 161.713 39.8602C157.655 40.082 153.685 41.1085 149.826 42.5351C146.723 43.6824 143.648 44.8947 140.528 45.9969C137.41 47.098 134.282 48.1656 131.182 49.3137C124.927 51.6308 118.787 54.3557 113.24 58.0918C101.286 66.1404 91.336 76.7909 79.2729 84.6919C73.3185 88.5912 67.0272 91.93 60.8232 95.4039C54.8655 98.7408 49.0541 102.289 43.64 106.464C38.3643 110.531 33.4981 115.135 29.2806 120.296C26.0496 124.25 24.2553 129.457 20.2587 132.772C19.9835 132.997 19.6996 133.198 19.4087 133.388Z" fill="#D7772D"/>
<path d="M168.444 101.184C164.911 111.662 159.131 121.094 151.656 129.224C144.781 136.697 136.73 143.071 127.973 148.202C119.275 153.299 109.818 157.214 99.9714 159.436C97.0176 160.102 94.0236 160.748 91.0124 161.268C94.2653 160.584 97.4771 159.706 100.627 158.648C98.2221 159.28 95.7864 159.793 93.3245 160.144C89.742 160.657 86.1386 161.141 82.543 161.558C76.8079 162.221 70.4501 162.615 64.8786 160.686C64.815 160.721 64.7569 160.761 64.7085 160.809C56.6409 159.17 49.5549 154.865 42.8848 150.143C39.3166 147.618 35.8793 144.894 32.4679 142.162C30.6631 140.718 28.8886 139.236 27.0789 137.797C26.3387 137.208 25.5991 136.673 24.8217 136.223C24.3612 135.758 23.8666 135.338 23.2369 135.082C22.2262 134.669 21.0432 134.678 20.0841 134.123C23.5102 131.928 25.6553 127.987 27.7577 124.585C31.0218 119.301 35.5106 114.8 40.1779 110.743C45.3176 106.274 50.9389 102.394 56.8115 98.9511C63.0011 95.3229 69.3858 92.0395 75.5437 88.3588C81.7357 84.6585 87.4787 80.3931 93.0374 75.806C98.631 71.1893 104.073 66.3764 109.895 62.0425C112.74 59.9248 115.665 57.9297 118.776 56.2199C121.701 54.6124 124.742 53.237 127.84 51.9969C134.046 49.5098 140.444 47.5406 146.69 45.1587C149.561 44.0642 152.416 42.9013 155.402 42.1487C158.298 41.4195 161.269 41.1248 164.253 41.2614C164.298 41.2633 164.345 41.2693 164.391 41.2712C164.413 41.2942 164.436 41.3156 164.457 41.3381C164.534 41.4194 164.603 41.5058 164.668 41.5976C164.697 41.6358 164.722 41.6762 164.749 41.7155C164.763 41.7363 164.768 41.7443 164.772 41.7488C164.772 41.7488 164.774 41.7579 164.784 41.7775C164.832 41.8714 164.875 41.9641 164.917 42.0599C165.005 42.2678 165.088 42.4745 165.15 42.6923C165.18 42.8018 165.204 42.9115 165.227 43.0209C165.232 43.0424 165.236 43.0654 165.24 43.0885C165.25 43.1572 165.26 43.2275 165.268 43.2974C165.296 43.5415 165.31 43.7871 165.313 44.0316C165.315 44.1707 165.309 44.3145 165.302 44.4582C165.057 45.3667 164.959 46.3077 165.053 47.3511C165.276 49.8156 166.117 52.1855 166.924 54.5073C168.71 59.6435 169.734 65.0455 170.147 70.4666C170.155 70.5856 170.158 70.7029 170.165 70.8199C171.485 76.2015 172.135 81.8029 171.382 87.2345C171.028 92.0003 169.981 96.6292 168.444 101.184Z" fill="#D7772D"/>
<path d="M54.7605 93.1047C49.9806 96.0857 44.7906 98.3566 40.0157 101.351C35.1938 104.375 31.0591 108.155 28.0152 112.994C26.3064 115.711 24.7542 118.588 23.4912 121.54C23.3341 121.906 24.0006 121.88 24.1424 121.647C25.6093 119.228 26.9371 116.734 28.5075 114.376C30.0959 111.989 31.8392 109.693 33.8264 107.623C37.6576 103.631 42.4167 100.829 47.163 98.0739C49.795 96.5451 52.3728 94.978 54.855 93.2128C54.9552 93.1416 54.8518 93.0479 54.7605 93.1047Z" fill="#691605"/>
<path d="M107.548 69.6211C101.975 73.1389 97.4103 78.0736 92.5453 82.4643C90.0357 84.7295 87.4092 86.8315 84.7323 88.8946C82.0107 90.9913 79.2341 93.136 76.2369 94.8291C73.092 96.6061 69.6904 97.9084 66.7589 100.05C66.6141 100.155 66.759 100.277 66.8918 100.204C69.7445 98.6468 72.8036 97.5182 75.713 96.0772C78.7903 94.5526 81.5917 92.5364 84.3467 90.4977C87.0556 88.4922 89.72 86.419 92.2527 84.1938C94.752 81.9986 97.1575 79.6988 99.6035 77.4436C102.359 74.9028 105.192 72.4536 108.087 70.0716C108.508 69.7244 107.888 69.4061 107.548 69.6211Z" fill="#691605"/>
<path d="M157.862 45.6898C155.724 46.3481 153.686 47.3916 151.658 48.3248C149.723 49.2151 147.792 50.113 145.835 50.9535C142.551 52.3652 139.096 53.6837 136.413 56.1239C136.2 56.3172 136.547 56.4356 136.709 56.3032C139.568 53.9928 143.351 52.9687 146.697 51.5838C148.62 50.7883 150.52 49.9291 152.426 49.0902C154.386 48.2252 156.409 47.4398 158.297 46.4235C158.903 46.0972 158.412 45.5207 157.862 45.6898Z" fill="#691605"/>
<path d="M141.192 38.7621C134.66 40.347 127.902 42.2146 122.268 46.0274C121.801 46.3437 122.272 46.7217 122.681 46.5067C128.561 43.4093 134.72 40.7352 141.188 39.1163C141.438 39.0547 141.495 38.6895 141.192 38.7621Z" fill="#691605"/>
<path d="M81.5288 37.1526C77.1011 39.7849 72.2366 41.5544 67.7594 44.0873C65.5631 45.3287 63.4516 46.7772 61.6392 48.5425C59.5709 50.5556 57.9259 52.9899 56.0899 55.209C53.8183 57.9556 51.3603 60.5459 49.3057 63.4674C49.1369 63.7063 49.5586 63.7922 49.6968 63.6364C51.7868 61.296 53.9626 59.0395 56.1349 56.7769C57.2255 55.6418 58.3332 54.5247 59.3969 53.3637C60.3629 52.3085 61.2171 51.159 62.1881 50.1102C65.5856 46.4374 70.1175 43.997 74.4822 41.6691C76.9665 40.3442 79.4631 39.0361 81.8141 37.4827C82.1343 37.2725 81.8082 36.9873 81.5288 37.1526Z" fill="#691605"/>
<path d="M38.9734 71.663C37.0314 73.167 35.1808 74.6769 33.5059 76.4842C31.8613 78.2607 30.3759 80.2 29.1269 82.2736C27.8183 84.4496 26.9213 86.7309 26.4276 89.2234C26.1578 90.5835 25.714 91.8362 25.1857 93.1136C24.7238 94.2312 24.0918 95.5484 24.1558 96.7866C24.177 97.1999 24.7932 97.0081 24.9018 96.748C25.4197 95.5034 25.8606 94.2618 26.4608 93.0443C27.0623 91.822 27.5691 90.6184 27.9253 89.3017C28.5722 86.9128 29.2836 84.6934 30.5598 82.5561C31.741 80.5776 33.123 78.7273 34.5772 76.9421C36.0209 75.1709 37.5664 73.329 39.341 71.8816C39.6114 71.6614 39.1781 71.5047 38.9734 71.663Z" fill="#691605"/>
<path d="M61.8147 67.2707C58.9439 68.492 56.4031 70.3751 54.2275 72.5996C53.1324 73.72 52.2252 74.928 51.5154 76.3275C51.1067 77.133 50.7634 77.9661 50.4063 78.7938C50.0298 79.6688 49.5177 80.4313 49.0356 81.2458C48.8223 81.6064 49.3268 81.7432 49.5765 81.5751C50.9997 80.6187 51.8291 78.9501 52.5749 77.4604C53.2929 76.0242 54.0383 74.7255 55.1012 73.517C56.1233 72.3533 57.26 71.2795 58.4438 70.2826C59.5841 69.3215 60.7186 68.3571 62.0717 67.7066C62.4201 67.5361 62.1428 67.132 61.8147 67.2707Z" fill="#691605"/>
<path d="M43.26 83.8908C43.13 83.8458 42.9944 83.9228 42.9136 84.0161C42.5554 84.4377 42.1383 84.7825 41.7069 85.1236C41.2278 85.5042 40.7637 85.9109 40.3152 86.3286C39.8917 86.7225 39.4901 87.1611 39.1584 87.6354C38.8725 88.0459 38.5258 88.6075 38.5405 89.1272C38.5469 89.3116 38.6702 89.4258 38.838 89.4809C38.827 89.478 38.8159 89.475 38.8069 89.4709C38.9587 89.5606 39.2071 89.5426 39.3488 89.4368C39.2651 89.4651 39.2699 89.4597 39.3653 89.4193C39.4391 89.39 39.5044 89.3483 39.562 89.291C39.6281 89.2275 39.6793 89.1499 39.714 89.0645C39.7652 88.9429 39.7785 88.8112 39.8123 88.685C39.8765 88.4519 39.9686 88.228 40.0891 88.0184C40.3659 87.5344 40.7261 87.1118 41.0944 86.6963C41.8501 85.8452 42.6715 85.0522 43.3541 84.1392C43.4275 84.0422 43.3668 83.9278 43.26 83.8908Z" fill="#691605"/>
<path d="M105.053 41.1186C100.766 41.9959 96.629 43.0184 92.771 45.1659C90.9106 46.2013 89.2281 47.4688 87.7644 49.0181C86.2366 50.6365 84.9021 52.4166 83.3392 54.0019C83.0767 54.2681 83.47 54.4665 83.7124 54.3133C87.2483 52.0677 89.7002 48.5407 93.3095 46.3875C95.1108 45.3142 97.0292 44.4787 98.9744 43.7078C100.963 42.9182 102.969 42.1618 105.044 41.6372C105.408 41.547 105.507 41.0256 105.053 41.1186Z" fill="#691605"/>
<path d="M119.819 27.7622C118.738 26.9432 116.951 26.8398 115.644 26.7651C114.11 26.6771 112.554 26.7813 111.045 27.0753C107.988 27.6702 104.888 28.6963 102.158 30.2108C101.546 30.5508 102.051 31.082 102.588 30.94C105.435 30.1859 108.132 28.9636 111.03 28.3819C112.428 28.1003 113.847 27.8837 115.275 27.8554C116.74 27.825 118.232 28.1453 119.685 28.0358C119.812 28.024 119.95 27.8615 119.819 27.7622Z" fill="#691605"/>
<path d="M92.5122 60.5356C90.8261 61.0275 89.272 62.3462 87.9279 63.4304C86.5645 64.5297 85.203 65.5838 83.7018 66.4905C81.0116 68.1171 77.9752 69.6408 76.3673 72.4791C76.1848 72.8005 76.6756 72.8813 76.8587 72.6902C79.0909 70.3558 82.1572 68.9856 84.8697 67.3075C86.2628 66.4445 87.53 65.4581 88.7588 64.3752C89.41 63.8005 90.0402 63.2032 90.696 62.6365C91.3828 62.0426 92.1648 61.5164 92.7955 60.8668C93.0172 60.6388 92.7447 60.4693 92.5122 60.5356Z" fill="#691605"/>
<path d="M107.667 84.1029C106.127 85.5911 104.061 86.3076 102.307 87.4934C100.439 88.755 98.8952 90.4131 97.1839 91.864C95.5642 93.2379 93.7131 94.3333 91.9047 95.4334C90.1363 96.5104 88.1511 97.6139 86.778 99.1977C86.4353 99.5929 86.9452 99.8361 87.2989 99.6332C89.2027 98.5367 91.0492 97.3385 92.957 96.2464C94.8607 95.1567 96.7387 94.0431 98.4058 92.6057C100.163 91.0911 101.698 89.3191 103.597 87.9693C105.201 86.8297 106.958 85.9236 108.166 84.3193C108.397 84.0125 107.848 83.928 107.667 84.1029Z" fill="#691605"/>
<path d="M92.182 115.511C90.7457 117.621 88.7505 119.532 86.7391 121.087C84.6939 122.666 82.4306 123.981 80.0272 124.929C77.7239 125.837 75.3012 126.377 72.8961 126.933C71.7675 127.194 70.6394 127.472 69.5381 127.833C68.4981 128.173 67.3322 128.561 66.486 129.276C66.2279 129.494 66.557 129.674 66.7728 129.613C67.996 129.265 69.1537 128.731 70.396 128.424C71.6342 128.12 72.8908 127.906 74.1455 127.685C76.658 127.246 79.0904 126.841 81.4377 125.787C83.8369 124.71 86.0692 123.316 88.0475 121.581C90.0082 119.862 91.4886 117.954 92.6994 115.657C92.8763 115.319 92.3404 115.28 92.182 115.511Z" fill="#691605"/>
<path d="M66.4612 115.092C64.544 115.777 62.8858 117.181 61.1888 118.276C59.5447 119.337 57.7422 119.854 55.8366 120.231C54.0629 120.583 52.2716 120.855 50.5041 121.241C48.9021 121.589 47.3808 122.092 46.1231 123.175C45.8858 123.379 46.2358 123.518 46.4189 123.422C48.0344 122.575 49.911 122.274 51.7066 122.099C53.4868 121.925 55.2231 121.744 56.9684 121.334C58.7805 120.908 60.4356 120.254 61.9526 119.162C63.5743 117.995 65.2014 116.694 66.6827 115.351C66.8658 115.185 66.637 115.029 66.4612 115.092Z" fill="#691605"/>
<path d="M70.7308 144.039C68.7358 143.797 66.7366 143.798 64.7485 143.448C62.7427 143.095 60.7983 142.525 58.88 141.845C55.1846 140.538 51.579 138.796 47.5685 139.67C47.2921 139.729 47.0399 140.184 47.4752 140.194C49.48 140.236 51.4021 140.599 53.288 141.273C55.2063 141.96 57.0611 142.814 58.9872 143.477C62.6508 144.738 66.8929 145.626 70.727 144.622C71.0709 144.531 71.1124 144.086 70.7308 144.039Z" fill="#691605"/>
<path d="M93.5756 138.789C91.437 139.828 89.2444 140.796 86.9722 141.506C84.7147 142.212 82.2596 142.841 79.8757 142.795C79.6266 142.79 79.218 143.217 79.6211 143.303C82.119 143.827 84.762 143.292 87.1789 142.622C89.6301 141.945 92.3128 141.072 94.2356 139.343C94.7695 138.865 93.9823 138.59 93.5756 138.789Z" fill="#691605"/>
<path d="M135.7 112.927C133.388 114.081 131.414 115.974 129.36 117.53C128.378 118.274 127.368 118.981 126.314 119.621C125.145 120.329 123.891 120.845 122.645 121.398C121.447 121.929 120.256 122.494 119.141 123.183C118.028 123.871 117.022 124.723 115.996 125.53C113.66 127.368 111.288 129.161 108.824 130.827C108.473 131.064 108.731 131.492 109.114 131.317C111.778 130.099 114.16 128.434 116.524 126.72C117.687 125.877 118.826 124.988 120.062 124.252C121.201 123.575 122.412 123.05 123.623 122.52C126.094 121.437 128.317 120.205 130.358 118.419C131.321 117.578 132.202 116.657 133.153 115.804C134.119 114.937 135.135 114.132 136.09 113.255C136.397 112.97 135.942 112.806 135.7 112.927Z" fill="#691605"/>
<path d="M152.637 95.2425C151.514 96.5483 150.581 98.0099 149.528 99.3716C148.41 100.817 147.272 102.237 146.057 103.603C143.75 106.197 141.299 108.807 138.556 110.944C138.449 111.027 138.607 111.116 138.692 111.058C141.754 109.003 144.595 106.793 147.107 104.077C148.323 102.763 149.501 101.387 150.562 99.9429C151.595 98.537 152.692 97.0738 153.362 95.4521C153.532 95.0393 152.821 95.0281 152.637 95.2425Z" fill="#691605"/>
<path d="M158.226 60.6987C156.183 61.2048 154.804 62.628 153.012 63.6158C151.175 64.6271 149.031 65.0285 147.517 66.5778C145.984 68.1457 145.246 70.2684 143.645 71.7979C142.265 73.1161 140.447 74.43 140.019 76.3989C139.912 76.8877 140.641 76.7498 140.79 76.4396C141.678 74.6025 143.468 73.4993 144.936 72.1759C145.641 71.5395 146.228 70.8377 146.731 70.0322C147.301 69.1229 147.786 68.1297 148.518 67.3332C149.854 65.8816 151.837 65.4946 153.478 64.5153C155.157 63.5124 156.446 61.8183 158.296 61.1132C158.562 61.0154 158.559 60.6171 158.226 60.6987Z" fill="#691605"/>
<path d="M136.723 81.8206C135.37 83.474 133.83 85.1025 132.256 86.5497C130.589 88.0833 128.614 89.078 126.736 90.3132C124.934 91.4978 123.205 92.7717 121.277 93.7501C119.678 94.5613 117.962 95.4577 117.316 97.2363C117.11 97.8019 117.988 97.7192 118.238 97.5019C118.98 96.8502 119.735 96.1917 120.587 95.6825C121.344 95.2293 122.142 94.8476 122.915 94.4224C124.909 93.3297 126.68 91.8728 128.568 90.6147C130.324 89.4432 132.02 88.3907 133.492 86.8502C134.93 85.3449 135.959 83.6115 137.187 81.9516C137.393 81.6753 136.879 81.6322 136.723 81.8206Z" fill="#691605"/>
<path d="M111.902 106.855C111.838 106.33 111.289 106.261 110.863 106.399C110.19 106.618 109.531 106.896 108.891 107.218C108.011 107.441 107.16 107.884 106.445 108.337C105.206 109.123 103.832 110.212 103.295 111.63C103.196 111.891 103.382 112.176 103.645 112.234C104.927 112.525 106.37 112 107.524 111.476C108.924 110.839 110.325 109.996 111.266 108.751C111.665 108.222 111.986 107.533 111.902 106.855Z" fill="#691605"/>
<path d="M150.246 82.075C150.252 81.9836 150.228 81.9027 150.174 81.8325C150.098 81.704 149.973 81.6112 149.825 81.5734C149.689 81.5386 149.549 81.5367 149.41 81.5518C149.181 81.5784 148.98 81.7003 148.803 81.8407C148.713 81.9129 148.631 81.9975 148.55 82.079C148.428 82.1225 148.311 82.1772 148.199 82.2403C148.018 82.3423 147.848 82.4793 147.711 82.6371C147.623 82.737 147.539 82.8363 147.47 82.948C147.395 83.07 147.331 83.2001 147.273 83.3299C147.265 83.3769 147.256 83.4251 147.248 83.4721C147.244 83.5469 147.264 83.615 147.308 83.6724C147.367 83.7745 147.477 83.8631 147.597 83.8869C147.74 83.9151 147.885 83.9421 148.032 83.9442C148.178 83.9478 148.331 83.9449 148.476 83.9144C148.766 83.8535 149.059 83.7475 149.301 83.574C149.542 83.4017 149.756 83.2036 149.916 82.9508C150.052 82.7351 150.16 82.4952 150.218 82.2469C150.225 82.1896 150.235 82.1331 150.246 82.075Z" fill="#691605"/>
<path d="M131.3 63.6211C129.824 63.9105 128.443 64.736 127.247 65.6198C126.182 66.4082 125.063 67.3246 124.398 68.501C124.031 68.9608 123.73 69.4654 123.551 70.0278C123.409 70.4768 123.886 70.7012 124.26 70.6389C127.651 70.0778 130.369 67.3612 132.046 64.5125C132.368 63.9648 131.87 63.5098 131.3 63.6211Z" fill="#691605"/>
<path d="M66.6962 107.039C66.7872 106.831 66.6984 106.601 66.537 106.465C66.3365 106.298 66.0986 106.283 65.8474 106.305C65.6708 106.321 65.4972 106.35 65.3254 106.385C64.6735 106.388 63.9993 106.588 63.4337 106.856C62.5617 107.27 61.6971 107.972 61.4812 108.961C61.4382 109.159 61.463 109.401 61.6785 109.499C62.1842 109.733 62.7142 109.794 63.2652 109.706C63.6554 109.645 64.0328 109.518 64.3879 109.348C64.5531 109.331 64.7173 109.299 64.8689 109.238C65.0376 109.17 65.2884 108.985 65.315 108.772C65.9052 108.312 66.3979 107.716 66.6962 107.039Z" fill="#691605"/>
<path d="M41.9586 129.856C42.0308 129.757 42.0498 129.617 41.9234 129.545C41.8704 129.516 41.8161 129.491 41.7622 129.465C41.6985 129.412 41.6244 129.367 41.5294 129.337C41.4703 129.318 41.4091 129.306 41.3487 129.292C39.8565 128.789 38.1096 129.369 36.7075 130.013C36.3754 130.154 36.0533 130.315 35.7501 130.506C35.5637 130.608 35.372 130.699 35.1903 130.809C34.9016 130.984 34.6495 131.18 34.6654 131.55C34.6822 131.941 34.9377 132.137 35.2994 132.213C36.3833 132.441 37.4875 132.284 38.5451 132.004C39.6878 131.703 40.8356 131.194 41.7142 130.389C41.8856 130.235 41.9634 130.04 41.9586 129.856Z" fill="#691605"/>
<path d="M94.5472 149.339C94.4655 149.151 94.313 149.032 94.1174 148.973C93.3885 148.753 92.6316 148.8 91.9032 148.994C91.2787 149.16 90.6334 149.498 90.2039 149.99C90.0847 150.125 89.9862 150.259 89.9502 150.419C89.8852 150.466 89.8198 150.514 89.7576 150.563L89.7275 150.587C89.8735 150.478 89.8523 150.494 89.666 150.634C89.5138 150.753 89.3699 150.899 89.2638 151.062C89.1495 151.236 89.1148 151.435 89.2231 151.618C89.3383 151.812 89.5327 151.87 89.747 151.897C90.596 152.004 91.494 151.834 92.2915 151.54C92.7117 151.385 93.1544 151.172 93.5414 150.896C93.5679 150.879 93.5986 150.865 93.6254 150.847C93.6872 150.806 93.7499 150.749 93.8108 150.685C94.0726 150.46 94.297 150.197 94.4538 149.895C94.5394 149.727 94.6311 149.53 94.5472 149.339Z" fill="#691605"/>
<path d="M167.629 84.2738C167.635 84.01 167.158 84.1189 167.142 84.3481C166.96 86.9342 165.845 89.6306 164.668 91.9111C163.51 94.1546 162.054 96.2065 160.615 98.275C159.17 100.354 157.768 102.442 156.508 104.64C155.273 106.793 154.277 109.073 153.02 111.212C152.316 112.412 151.518 113.556 150.638 114.636C149.667 115.829 148.531 116.8 147.444 117.873C147.057 118.255 147.637 118.561 147.988 118.328C150.079 116.944 151.783 114.774 153.223 112.748C154.768 110.571 156.239 108.359 157.612 106.068C158.982 103.782 160.348 101.512 161.842 99.3005C163.274 97.1813 164.68 95.0398 165.81 92.7399C166.43 91.4803 166.935 90.1443 167.263 88.7775C167.619 87.2765 167.596 85.8025 167.629 84.2738Z" fill="#691605"/>
<path d="M139.309 128.213C138.896 128.521 138.437 128.751 138.003 129.027C137.544 129.319 137.108 129.641 136.669 129.96C135.81 130.584 134.974 131.236 134.139 131.89C133.332 132.524 132.542 133.175 131.762 133.846C130.969 134.528 130.139 135.231 129.537 136.096C129.122 136.693 130.046 136.873 130.431 136.64C131.314 136.109 132.096 135.407 132.871 134.731C133.661 134.042 134.456 133.358 135.245 132.668C136.003 132.004 136.772 131.351 137.524 130.678C137.895 130.346 138.274 130.023 138.624 129.669C138.991 129.299 139.319 128.893 139.716 128.556C140.022 128.295 139.564 128.023 139.309 128.213Z" fill="#691605"/>
<path d="M117.724 144.389C116.625 144.671 115.594 145.068 114.612 145.638C114.123 145.923 113.647 146.225 113.178 146.543C112.911 146.723 112.648 146.908 112.398 147.11C112.16 147.303 112.007 147.529 111.888 147.809C111.743 148.149 112.18 148.349 112.446 148.29C112.766 148.218 113.065 148.126 113.338 147.939C113.583 147.771 113.813 147.586 114.044 147.4C114.458 147.067 114.874 146.73 115.299 146.409C115.318 146.396 115.364 146.362 115.375 146.353C115.434 146.31 115.492 146.267 115.553 146.224C115.662 146.145 115.772 146.069 115.881 145.992C116.097 145.84 116.283 145.689 116.511 145.532C116.918 145.25 117.329 144.993 117.8 144.837C118.094 144.738 118.073 144.299 117.724 144.389Z" fill="#691605"/>
<path d="M72.4758 155.603C71.2864 155.523 70.0927 155.699 68.9018 155.687C67.7564 155.676 66.5925 155.583 65.454 155.445C64.2989 155.306 63.155 155.113 62.0476 154.745C60.8749 154.357 59.7768 153.797 58.6251 153.362C58.3656 153.263 57.9224 153.554 58.113 153.84C59.4506 155.847 62.3382 156.646 64.6095 156.817C65.868 156.911 67.1079 156.796 68.3563 156.644C69.6972 156.48 71.0803 156.4 72.3927 156.071C72.6382 156.014 72.8708 155.631 72.4758 155.603Z" fill="#691605"/>
<path d="M81.585 155.565C81.3572 155.348 81.0129 155.371 80.7214 155.411C80.4898 155.442 80.2535 155.497 80.0275 155.551C79.5481 155.668 79.0691 155.802 78.6065 155.976C78.4841 156.022 78.3406 156.141 78.3691 156.288C78.3969 156.424 78.5587 156.489 78.6872 156.457C79.1606 156.344 79.4896 156.341 79.9485 156.339C80.1974 156.338 80.4656 156.34 80.7114 156.306C81.0383 156.26 81.3812 156.161 81.5867 155.886C81.6504 155.8 81.6712 155.647 81.585 155.565Z" fill="#691605"/>
<path d="M45.5092 144.868C45.2145 144.459 44.8297 144.084 44.3488 143.91C44.107 143.821 43.8093 143.828 43.5318 143.904C43.3837 143.8 43.2357 143.696 43.0934 143.583C42.9815 143.496 42.7998 143.486 42.6677 143.493C42.5031 143.501 42.3252 143.547 42.1858 143.638C41.9598 143.787 41.7382 144.052 41.8384 144.341C41.923 144.587 42.0956 144.833 42.2755 145.02C42.462 145.214 42.6819 145.384 42.9199 145.512C43.3605 145.749 43.8383 145.872 44.3289 145.94C44.3488 145.98 44.3764 146.016 44.3923 146.057C44.4813 146.281 44.8279 146.123 44.8599 145.941C45.3477 145.818 45.8511 145.34 45.5092 144.868Z" fill="#691605"/>
<path d="M161.839 68.1882C161.795 68.0749 161.72 67.9888 161.617 67.9273C161.376 67.7782 161.054 67.797 160.798 67.8889C160.425 68.0241 160.097 68.2322 159.819 68.5025C159.62 68.5745 159.436 68.6859 159.277 68.8243C158.849 69.1983 158.668 69.7619 158.601 70.3088C158.575 70.5168 158.777 70.6672 158.947 70.7212C159.668 70.9516 160.471 70.6798 160.984 70.1424C161.408 69.6962 161.701 69.1286 161.837 68.5293C161.877 68.4183 161.878 68.3034 161.839 68.1882Z" fill="#691605"/>
<path d="M51.7396 46.5191C49.3012 47.4081 47.6121 49.3249 45.4874 50.7157C43.4219 52.0683 41.093 52.9207 39.4139 54.8131C37.6448 56.8083 36.877 59.459 35.2911 61.5844C33.787 63.5998 31.124 65.2827 30.4047 67.7841C30.2406 68.3523 31.0946 68.3461 31.3673 68.0606C32.2954 67.09 33.187 66.079 34.1121 65.1008C34.952 64.213 35.8066 63.3275 36.5082 62.3249C37.9842 60.2123 38.3516 57.4966 40.0233 55.499C41.6336 53.5729 44.1885 52.9248 46.2044 51.5488C48.2452 50.1559 49.871 48.2289 51.968 46.9101C52.2672 46.7214 52.0415 46.4089 51.7396 46.5191Z" fill="#691605"/>
<path d="M26.1169 79.299C26.1146 79.295 26.1122 79.291 26.1099 79.2869C26.19 79.1207 26.2835 78.9106 26.2108 78.7592C26.1698 78.6722 26.1091 78.6085 26.0374 78.5606C26.1164 78.4549 26.1923 78.3484 26.2741 78.2452C26.362 78.1317 26.3115 77.9795 26.1856 77.9255C26.0384 77.8624 25.8592 77.9125 25.7434 78.0167C25.4979 78.2385 25.2487 78.449 25.0395 78.7059L25.0371 78.7086C24.7963 78.8876 24.5669 79.1441 24.5967 79.4497C24.6068 79.5573 24.6441 79.6451 24.6922 79.7307C24.6921 79.7374 24.6944 79.7414 24.6943 79.7482C24.6951 79.745 24.6948 79.7398 24.6957 79.7367L24.6968 79.7387C24.6956 79.7434 24.6943 79.7482 24.6934 79.7513C24.6882 79.8023 24.6862 79.8542 24.708 79.899C24.7696 80.0288 24.8865 80.0973 25.0195 80.1313C25.0656 80.1927 25.1647 80.2395 25.2349 80.2617C25.3602 80.2987 25.4932 80.2886 25.6165 80.2574C25.8239 80.203 26.0621 80.0588 26.1276 79.8396C26.1824 79.6666 26.2073 79.4602 26.1169 79.299Z" fill="#691605"/>
<path d="M24.6905 79.7752C24.6927 79.767 24.6944 79.7605 24.6966 79.7524L24.6963 79.747C24.6937 79.7568 24.6931 79.7654 24.6905 79.7752Z" fill="#691605"/>
<path d="M26.3988 106.928C26.3528 106.809 26.283 106.697 26.2055 106.595C26.1694 106.547 26.1241 106.507 26.0772 106.468C26.1162 106.411 26.1564 106.355 26.1911 106.295C26.2683 106.159 26.3398 105.98 26.2712 105.82C26.2262 105.716 26.1505 105.645 26.0587 105.59C26.0686 105.471 25.9887 105.372 25.8719 105.341C25.7224 105.299 25.5742 105.278 25.4189 105.295C25.3002 105.309 25.1789 105.339 25.066 105.382C24.7988 105.483 24.5709 105.652 24.3967 105.879C24.1155 106.247 24.07 106.738 24.0751 107.186C24.0781 107.434 24.2864 107.584 24.5128 107.623C24.6764 107.65 24.8548 107.622 25.0164 107.555C25.0777 107.585 25.1394 107.614 25.1922 107.656C25.2406 107.678 25.2894 107.698 25.3393 107.72C25.4253 107.746 25.5127 107.754 25.6021 107.743C25.7599 107.734 25.9302 107.692 26.0657 107.603C26.2772 107.463 26.5031 107.201 26.3988 106.928Z" fill="#691605"/>
<path d="M93.5608 34.3541C93.6361 34.2627 93.6503 34.1464 93.5245 34.0417C92.812 33.45 91.811 33.5504 90.9738 33.7777C89.985 34.0471 89.0313 34.5831 88.2735 35.2713C87.8784 35.6288 87.543 36.0412 87.3291 36.5302C87.2376 36.7391 87.3553 36.9499 87.5253 37.0664C88.5332 37.761 89.934 37.6899 91.0425 37.302C92.2124 36.8933 93.246 36.0591 93.7244 34.8986C93.819 34.6719 93.7183 34.486 93.5608 34.3541Z" fill="#691605"/>
<path d="M84.4629 31.9959C84.4336 31.9221 84.3863 31.8654 84.3176 31.825C84.2798 31.8081 84.2417 31.7928 84.2055 31.7764C84.1155 31.7523 84.0237 31.748 83.9319 31.7623C83.8524 31.7748 83.7745 31.7878 83.6951 31.8003C83.6756 31.8035 83.6581 31.8056 83.6387 31.8088C83.5946 31.8156 83.5544 31.8268 83.509 31.8384C83.4672 31.8492 83.4442 31.8531 83.4114 31.868C83.4018 31.8722 83.3922 31.8764 83.3827 31.8806L83.3216 31.9065C83.2769 31.9284 83.2325 31.9486 83.1878 31.9705C83.1262 32.0047 83.0755 32.0486 83.0354 32.1038C83.004 32.1326 82.9812 32.1671 82.9675 32.2057C82.9357 32.2547 82.9209 32.3099 82.9203 32.369C82.9261 32.4043 82.933 32.4417 82.9387 32.4771C82.9572 32.5091 82.9761 32.5395 82.9946 32.5715C83.0331 32.6173 83.0805 32.6486 83.1349 32.6666C83.191 32.6969 83.2514 32.7114 83.3176 32.7105C83.3544 32.7119 83.3917 32.7117 83.4285 32.7131C83.5145 32.7142 83.5593 32.711 83.6302 32.6928L83.6862 32.679C83.7658 32.6598 83.8438 32.6401 83.9234 32.6208C84.0004 32.611 84.0725 32.5881 84.1401 32.5504C84.2084 32.523 84.2697 32.4836 84.3224 32.4318C84.3731 32.3879 84.412 32.3374 84.4368 32.2764C84.469 32.2258 84.4842 32.169 84.4852 32.1084C84.4751 32.0702 84.4698 32.0332 84.4629 31.9959Z" fill="#691605"/>
<path opacity="0.61" d="M49.6858 62.8065C52.3751 62.1995 54.8737 61.0103 57.0656 59.306C59.251 57.6068 61.107 55.5148 62.7902 53.3293C64.5156 51.0873 65.9889 48.6375 67.8316 46.4878C70.8897 42.9203 74.7929 40.352 78.5858 37.6459C76.2144 38.6256 73.9117 39.759 71.6988 41.0619C62.6714 46.3753 55.488 54.1733 49.6858 62.8065Z" fill="#D7772D"/>
<path opacity="0.61" d="M159.093 39.784C157.866 39.6818 156.678 39.3872 155.51 39.0049C153.107 38.2156 150.806 37.063 148.651 35.748C147.857 35.2631 147.066 34.7553 146.297 34.211C145.7 34.0119 145.106 33.797 144.515 33.5727C143.762 33.102 143.003 32.6398 142.219 32.2201C141.454 31.8106 140.673 31.4559 139.875 31.154C138.784 30.527 137.663 29.9608 136.477 29.5145C133.248 27.912 130.007 26.3165 126.607 25.1026C125.275 24.6272 123.919 24.2252 122.548 23.8951C120.153 23.0452 117.701 22.368 115.216 21.8661C115.569 22.2449 115.827 22.6978 115.905 23.2412C116.178 25.1815 113.813 25.6707 112.36 26.0224C110.177 26.5519 107.925 26.6995 105.742 27.1917C105.015 27.3554 104.308 27.7208 103.635 28.036C102.73 28.4614 101.846 28.9383 101.002 29.4765C99.6086 30.3648 98.3018 31.4421 97.3275 32.7809C98.0193 32.7109 98.7038 32.5865 99.3853 32.4224C101.485 31.9196 103.513 31.1505 105.614 30.6481C107.694 30.1502 109.88 29.9631 112.004 29.7254C116.384 29.2348 120.882 28.9823 125.237 29.8176C127.239 30.202 131.967 31.4231 130.761 34.4081C130.164 35.8884 128.626 36.9443 127.214 37.5605C125.661 38.2385 123.991 38.5809 122.329 38.8644C120.632 39.1557 118.917 39.3673 117.243 39.7866C115.26 40.2834 113.422 41.2621 111.638 42.2386C109.634 43.3354 107.685 44.5299 105.675 45.6131C104.683 46.1472 103.842 46.9621 102.95 47.6465C101.837 48.4999 100.693 49.3485 99.4351 49.9787C98.5384 50.4285 97.3839 50.9123 96.3972 50.4602C94.6348 49.6531 95.4623 47.9282 96.4504 46.8536C98.0036 45.1659 100.042 43.8719 101.975 42.6665C102.677 42.2274 103.39 41.7876 104.114 41.3675C103.772 41.418 103.429 41.4614 103.089 41.5258C98.382 42.4091 93.9835 44.4151 90.0067 47.0499C88.0303 48.3604 86.1591 49.8208 84.3715 51.3797C82.4975 53.0153 80.812 54.8366 78.9754 56.5093C75.4505 59.7235 71.1967 61.7192 66.8737 63.6202C64.5538 64.6408 62.1686 65.5898 60.1217 67.113C58.2124 68.5328 56.6368 70.3481 55.202 72.2316C53.8324 74.0293 52.5477 75.8955 51.065 77.6038C49.4697 79.4425 47.6654 80.8871 45.5961 82.1591C43.5248 83.4323 41.4992 84.6992 39.9735 86.6378C39.1483 87.6851 38.4225 88.8097 37.6066 89.8663C36.366 91.4669 33.3393 95.4285 31.1627 92.9292C29.4284 90.9373 30.1978 87.7948 30.949 85.5591C32.0541 82.2681 33.7724 79.1753 35.6241 76.2535C36.4146 75.0075 37.2354 73.7307 38.1315 72.5198C37.1037 73.2185 36.1173 73.9774 35.1915 74.8134C29.4995 79.955 26.701 87.1927 24.3283 94.2994C24.2295 94.5925 23.8599 94.8165 23.5682 94.6115C21.7736 93.3561 21.1636 91.1767 20.9616 89.0965C20.7209 86.6119 21.0174 84.0852 21.3948 81.6292C21.6903 79.6992 22.0246 77.7576 22.4201 75.846C23.0751 72.6881 24.274 69.6844 25.8591 66.8806C27.4179 64.1239 29.2886 61.5606 31.0537 58.937C31.6638 58.0299 32.2973 57.1426 32.9417 56.2651C26.9946 62.9078 21.9669 70.5122 19.3182 79.0467C17.5389 84.7784 16.7037 90.8493 16.5723 96.8433C16.5658 97.1138 16.5803 97.3815 16.5825 97.651C16.6192 97.4511 16.6657 97.2522 16.7055 97.0531C16.6878 100.723 17.3333 104.443 18.1216 108.084C18.5107 111.006 19.0949 113.919 19.552 116.808C20.3485 121.845 20.8383 127.048 19.2179 131.84C19.2082 131.895 19.1954 131.949 19.189 132.005C19.1282 132.458 19.1951 132.96 19.4031 133.383C19.694 133.194 19.9795 132.993 20.2496 132.767C24.2477 129.453 26.042 124.247 29.2715 120.292C33.4893 115.129 38.3551 110.527 43.6308 106.46C49.045 102.285 54.8564 98.7367 60.814 95.3998C67.018 91.9259 73.3093 88.587 79.2637 84.6878C91.3268 76.7868 101.277 66.1363 113.231 58.0877C118.779 54.3519 124.918 51.6267 131.173 49.3096C134.272 48.1615 137.401 47.0939 140.519 45.9928C143.639 44.8906 146.713 43.6782 149.816 42.531C153.676 41.1044 157.646 40.0779 161.704 39.8561C160.837 39.8538 159.963 39.8565 159.093 39.784Z" fill="#D7772D"/>
<path opacity="0.61" d="M98.7424 89.2982C97.0653 90.6026 95.4367 91.9657 93.7759 93.2914C92.3476 94.4308 90.9401 95.5622 89.3089 96.3986C87.76 97.1928 86.1613 97.8891 84.6597 98.7721C83.5695 99.4135 82.4725 100.175 81.7562 101.226C83.6324 101.23 85.5025 100.985 87.3278 100.554C94.5784 98.8422 103.396 93.8023 104.095 85.6302C102.225 86.7205 100.452 87.967 98.7424 89.2982Z" fill="#D7772D"/>
<path opacity="0.61" d="M87.372 121.035C85.4972 122.623 83.414 123.991 81.1621 124.979C79.5864 125.671 77.9647 126.037 76.2855 126.383C74.4217 126.768 72.5408 127.135 70.734 127.744C69.6169 128.119 68.2333 128.631 67.4867 129.625C69.7525 130.378 72.1796 130.636 74.5556 130.611C77.123 130.585 79.7128 130.217 82.1352 129.344C84.241 128.586 86.4516 127.342 87.5811 125.329C88.5848 123.54 88.872 121.427 89.1422 119.383C88.5761 119.962 87.9851 120.514 87.372 121.035Z" fill="#D7772D"/>
<path opacity="0.61" d="M171.384 87.2333C172.137 81.8017 171.487 76.2004 170.167 70.8187C170.16 70.7001 170.158 70.5828 170.148 70.4654C169.736 65.0427 168.712 59.6423 166.926 54.5061C166.119 52.1843 165.276 49.814 165.055 47.3499C164.96 46.3081 165.059 45.3655 165.304 44.457C165.311 44.3133 165.317 44.1695 165.315 44.0304C165.312 43.7843 165.3 43.5392 165.27 43.2962C165.262 43.2263 165.252 43.156 165.242 43.0873C165.238 43.0642 165.233 43.0428 165.229 43.0197C165.207 42.9088 165.182 42.799 165.152 42.6911C165.092 42.4737 165.007 42.2666 164.919 42.0587C164.879 41.9617 164.834 41.8687 164.786 41.7763C164.776 41.7567 164.774 41.7476 164.774 41.7476C164.77 41.7416 164.764 41.7347 164.75 41.7143C164.724 41.675 164.698 41.6342 164.67 41.5964C164.605 41.5062 164.535 41.4198 164.459 41.3369C164.438 41.3144 164.415 41.293 164.393 41.27C164.347 41.2681 164.3 41.2621 164.255 41.2602C161.271 41.1236 158.3 41.4184 155.404 42.1475C152.418 42.9001 149.563 44.063 146.692 45.1575C140.446 47.5394 134.048 49.5086 127.841 51.9957C124.746 53.2362 121.703 54.6112 118.778 56.2187C115.668 57.929 112.742 59.9237 109.897 62.0413C104.074 66.3752 98.6329 71.1881 93.0393 75.8048C87.4803 80.3934 81.7376 84.6573 75.5457 88.3576C69.3861 92.0379 63.0026 95.3233 56.8134 98.9499C50.9412 102.391 45.3196 106.273 40.1798 110.742C35.5126 114.799 31.0237 119.3 27.7596 124.583C25.6573 127.986 23.5126 131.925 20.0861 134.122C21.0436 134.676 22.2266 134.667 23.2388 135.08C23.8681 135.339 24.3631 135.757 24.8237 136.222C25.6011 136.672 26.3406 137.207 27.0808 137.796C28.8905 139.235 30.665 140.716 32.4698 142.161C35.8812 144.893 39.3181 147.618 42.8868 150.142C49.5569 154.864 56.6428 159.169 64.7105 160.808C64.7584 160.762 64.8185 160.72 64.8805 160.685C70.4504 162.613 76.8083 162.22 82.545 161.557C86.1405 161.14 89.7439 160.656 93.3264 160.143C95.7888 159.79 98.2241 159.279 100.629 158.646C97.4791 159.705 94.2673 160.583 91.0144 161.267C94.0256 160.746 97.0195 160.101 99.9733 159.435C109.819 157.214 119.276 153.298 127.975 148.201C136.73 143.07 144.783 136.697 151.658 129.222C159.135 121.094 164.913 111.661 168.446 101.183C169.981 96.6291 171.028 92.0002 171.384 87.2333ZM152.925 84.1069C151.671 87.8638 149.265 91.1376 147.171 94.4527C146.151 96.067 145.291 97.7136 144.471 99.4339C143.692 101.067 142.912 102.703 141.973 104.252C140.214 107.154 137.755 109.635 135.196 111.84C125.355 120.316 112.688 124.454 101.353 130.445C98.4315 131.989 95.8196 134.024 93.1032 135.887C90.3808 137.754 87.5474 139.296 84.3927 140.289C77.7547 142.378 70.8193 144.574 63.8012 143.367C60.1361 142.736 56.5901 141.554 53.039 140.479C51.3572 139.971 49.6656 139.449 47.9489 139.077C47.0104 138.874 46.0565 138.742 45.1098 138.576C41.5733 137.959 35.5905 136.618 37.047 131.706C37.8384 129.036 40.2023 127.188 42.5703 125.944C44.9914 124.672 47.5838 123.966 50.2148 123.292C53.2871 122.506 56.3411 121.56 59.1906 120.147C61.4707 119.016 63.5578 117.583 65.4251 115.878C59.7986 117.455 54.074 118.932 48.2549 119.524C46.7751 119.675 45.2741 119.767 43.7892 119.653C42.6985 119.57 41.5344 119.402 40.5758 118.839C38.3851 117.554 39.2631 115.015 40.3681 113.284C43.2146 108.821 47.4821 105.442 51.9445 102.699C56.706 99.7735 61.8186 97.4887 66.8691 95.1196C72.274 92.5834 77.4863 89.7621 82.4218 86.3897C87.9229 82.6295 93.0572 78.3701 98.071 73.9921C99.2305 72.9786 100.411 71.9927 101.534 70.9389C102.689 69.8548 103.814 68.7372 104.98 67.6648C106.127 66.6122 107.317 65.6035 108.597 64.7152C109.964 63.7658 111.448 62.9864 112.925 62.2219C117.459 59.875 122.19 57.9329 126.764 55.6711C127.394 55.2549 128.031 54.8472 128.684 54.4639C130.936 53.141 133.51 51.864 136.186 51.9078C136.59 51.9146 136.822 52.337 136.635 52.6861C135.228 55.3245 132.247 56.435 130.326 58.596C132.446 58.7259 134.591 57.4421 136.376 56.4878C138.603 55.2953 140.969 53.8812 143.555 53.7488C144.858 53.6819 147.405 53.703 147.778 55.3775C148.076 56.7155 146.797 58.0964 145.997 59.005C144.721 60.4541 143.247 61.7148 142.127 63.2988C140.208 66.0145 139.164 69.1698 138.096 72.2847C137.028 75.3996 135.845 78.5006 133.796 81.1207C132.059 83.3394 129.802 85.1698 127.604 86.9097C124.041 89.7297 120.186 92.4126 117.329 95.9697C119.746 94.3445 122.393 93.0766 125.02 91.7985C128.296 90.2035 131.585 88.5125 134.261 85.9977C136.304 84.0777 137.845 81.6932 139.429 79.3982C141.182 76.8575 142.945 74.2909 145.062 72.0338C146.845 70.132 149.017 68.3109 151.641 67.786C151.914 67.7307 152.2 67.8647 152.276 68.1473C152.757 69.92 153.181 71.7079 153.462 73.5235C154.012 77.0329 154.063 80.6964 152.925 84.1069Z" fill="#D7772D"/>
<path opacity="0.61" d="M159.093 39.7841C157.866 39.6818 156.678 39.3872 155.51 39.005C154.108 38.5447 152.747 37.95 151.422 37.2822C149.847 38.7694 147.677 39.7474 145.762 40.5703C137.154 44.2743 128.135 46.9432 119.655 50.947C112.642 54.2582 106.061 58.2873 100.245 63.4414C97.065 66.2592 94.2292 69.4264 90.9848 72.1746C87.7994 74.8726 84.383 77.2906 80.8267 79.4732C73.6097 83.9 65.8457 87.4582 58.0376 90.7018C53.6648 92.5168 49.2992 94.4064 45.2163 96.8183C41.292 99.1374 37.6299 101.911 34.2429 104.957C32.9393 106.13 31.6033 107.297 30.5356 108.694C29.5981 109.921 28.7145 111.186 27.7476 112.39C26.5516 113.881 24.8818 115.997 22.7045 115.495C21.2839 115.167 20.2796 113.859 19.5724 112.674C19.1519 111.971 18.8038 111.225 18.4849 110.464C18.8288 112.589 19.2283 114.709 19.5606 116.814C20.3571 121.851 20.8469 127.054 19.2265 131.846C19.2168 131.9 19.204 131.955 19.1975 132.01C19.1368 132.464 19.2037 132.966 19.4117 133.389C19.7026 133.199 19.9881 132.998 20.2582 132.773C24.2563 129.459 26.0506 124.252 29.2801 120.298C33.4979 115.135 38.3637 110.533 43.6394 106.465C49.0536 102.291 54.865 98.7424 60.8226 95.4055C67.0266 91.9316 73.3179 88.5928 79.2723 84.6935C91.3354 76.7925 101.286 66.142 113.239 58.0934C118.788 54.3577 124.927 51.6324 131.181 49.3153C134.281 48.1672 137.41 47.0996 140.528 45.9985C143.647 44.8963 146.722 43.684 149.825 42.5367C153.684 41.1101 157.655 40.0836 161.712 39.8618C160.837 39.8538 159.963 39.8566 159.093 39.7841Z" fill="#D7772D"/>
<path opacity="0.61" d="M171.384 87.2333C172.137 81.8017 171.487 76.2004 170.167 70.8187C170.16 70.7001 170.158 70.5828 170.148 70.4654C169.736 65.0427 168.712 59.6423 166.926 54.5061C166.119 52.1843 165.276 49.814 165.055 47.3499C164.96 46.3081 165.059 45.3655 165.304 44.457C165.311 44.3133 165.317 44.1695 165.315 44.0304C165.312 43.7843 165.3 43.5392 165.27 43.2962C165.262 43.2263 165.252 43.156 165.242 43.0873C165.238 43.0642 165.233 43.0428 165.229 43.0197C165.207 42.9088 165.182 42.799 165.152 42.6911C165.092 42.4737 165.007 42.2666 164.919 42.0587C164.879 41.9617 164.834 41.8687 164.786 41.7763C164.776 41.7567 164.774 41.7476 164.774 41.7476C164.77 41.7416 164.764 41.7347 164.75 41.7143C164.724 41.675 164.698 41.6342 164.67 41.5965C164.605 41.5062 164.535 41.4198 164.459 41.3369C164.438 41.3144 164.415 41.293 164.393 41.27C164.347 41.2681 164.3 41.2621 164.255 41.2602C161.271 41.1236 158.3 41.4184 155.404 42.1475C152.418 42.9001 149.563 44.063 146.692 45.1575C140.446 47.5394 134.048 49.5086 127.841 51.9957C124.746 53.2362 121.703 54.6112 118.778 56.2187C115.668 57.929 112.742 59.9237 109.897 62.0413C104.074 66.3752 98.6329 71.1881 93.0393 75.8048C87.4803 80.3935 81.7377 84.6573 75.5457 88.3576C69.3861 92.0379 63.0026 95.3233 56.8134 98.9499C50.9412 102.391 45.3196 106.273 40.1798 110.742C35.5126 114.799 31.0237 119.3 27.7596 124.583C25.6573 127.986 23.5126 131.925 20.0861 134.122C20.1857 134.179 20.2891 134.229 20.3933 134.276C25.8811 132.301 29.7518 127.089 33.0795 122.572C35.0009 119.965 36.8409 117.27 39.1492 114.98C39.347 114.784 39.5511 114.597 39.7524 114.407C39.9326 114.013 40.1431 113.631 40.3645 113.284C43.211 108.821 47.4785 105.443 51.9409 102.699C56.7025 99.7743 61.815 97.4894 66.8656 95.1204C72.2704 92.5841 77.4827 89.7628 82.4182 86.3905C87.9193 82.6302 93.0536 78.3708 98.0674 73.9928C99.2269 72.9793 100.408 71.9935 101.531 70.9397C102.685 69.8555 103.81 68.738 104.977 67.6655C106.123 66.6129 107.313 65.6042 108.593 64.716C109.96 63.7665 111.444 62.9871 112.921 62.2226C117.455 59.8757 122.186 57.9336 126.76 55.6718C127.391 55.2557 128.028 54.8479 128.68 54.4646C130.475 53.4099 132.474 52.3982 134.566 52.047C138.248 50.0421 142.109 48.3131 146.046 46.9073C148.241 46.1239 150.498 45.4213 152.808 45.0762C154.381 44.8415 156.225 44.6609 157.692 45.4294C158.248 45.722 158.698 46.1825 158.949 46.7605C159.281 47.5262 159.092 48.3294 158.827 49.0889C157.953 51.5892 156.419 53.8962 154.98 56.0998C153.609 58.1983 152.256 60.332 150.446 62.0827C147.997 64.452 144.802 66.5539 143.268 69.691C145.969 68.6543 148.216 66.5249 150.389 64.6955C153.025 62.4728 155.808 60.2233 159.199 59.3036C159.496 59.2226 159.881 59.4593 159.852 59.7984C159.706 61.5062 159.702 63.22 159.786 64.932C159.955 68.3784 160.442 71.7984 160.641 75.2424C160.837 78.6555 160.677 82.0896 159.992 85.4459C158.679 91.8876 155.234 97.4418 151.491 102.742C147.517 108.371 145.141 114.993 140.61 120.251C136.481 125.044 130.955 128.495 125.574 131.706C115.069 137.974 104.421 144.299 92.8188 148.341C87.0085 150.365 80.9282 151.786 74.7616 151.996C68.1034 152.223 61.488 150.731 55.0498 149.19C48.6162 147.651 42.1484 145.867 35.625 144.675C38.0043 146.551 40.4114 148.398 42.8824 150.146C49.5524 154.868 56.6384 159.173 64.706 160.812C64.754 160.766 64.8141 160.724 64.8761 160.688C70.446 162.617 76.8039 162.224 82.5406 161.561C86.1361 161.144 89.7395 160.66 93.322 160.147C95.7844 159.794 98.2197 159.283 100.625 158.65C97.4746 159.709 94.2629 160.587 91.01 161.271C94.0212 160.75 97.0151 160.105 99.9689 159.439C109.815 157.218 119.271 153.301 127.97 148.205C136.725 143.074 144.778 136.701 151.654 129.226C159.13 121.098 164.908 111.665 168.441 101.187C169.981 96.6291 171.028 92.0002 171.384 87.2333Z" fill="#D7772D"/>
<path d="M21.434 113.786C21.0657 107.745 19.9852 101.754 19.822 95.6981C19.631 88.6097 20.7856 81.4541 23.3612 74.8399C25.9045 68.3083 29.8343 62.4595 34.279 57.075C42.8294 46.7191 53.7426 38.1549 65.6448 31.9714C68.5798 30.4476 71.6033 29.1488 74.6396 27.8466C77.7429 26.5151 80.8279 25.1381 83.9724 23.9055C84.5053 23.6965 85.0431 23.5007 85.5803 23.3013C77.1295 25.2633 68.9096 28.2951 61.4285 32.7104C56.8802 35.395 52.6865 38.6059 48.5597 41.8888C44.4502 45.1578 40.4476 48.5704 36.7257 52.2798C29.1676 59.8099 22.5173 68.7554 19.3226 79.0495C17.5433 84.7812 16.7081 90.8521 16.5768 96.8461C16.5702 97.1167 16.5847 97.3844 16.587 97.6539C16.6236 97.454 16.6701 97.2551 16.7099 97.056C16.6922 100.726 17.3377 104.446 18.1261 108.087C18.5152 111.009 19.0994 113.922 19.5564 116.811C20.1641 120.659 20.5915 124.606 20.0372 128.391C21.655 123.761 21.7285 118.639 21.434 113.786Z" fill="#D7772D"/>
<path d="M80.1814 41.2411C80.0609 41.1479 79.9165 41.0872 79.7594 41.0485C79.7007 41.1224 79.6244 41.1866 79.5105 41.2203C78.1514 41.6155 76.8625 42.2409 75.6139 42.8991C72.6814 44.4455 69.8745 46.3181 67.3871 48.5132C66.2242 49.5394 65.096 50.6509 64.1934 51.9176C63.6293 52.7102 63.0963 53.6074 62.893 54.5744C64.9203 54.5004 66.8815 53.7389 68.6594 52.8031C72.3536 50.857 75.6792 48.0646 78.4764 44.9785C79.137 44.249 79.8102 43.4721 80.2083 42.5607C80.3786 42.1649 80.5897 41.5602 80.1814 41.2411Z" fill="#D7772D"/>
<path d="M107.083 32.036C105.286 32.3596 103.495 32.7507 101.752 33.2916C100.463 33.692 99.061 34.157 97.9813 34.9991C97.6669 35.2446 97.3335 35.5865 97.2137 35.9198C97.1605 36.0679 97.1514 36.2785 97.1578 36.3242C97.179 36.4973 97.2277 36.5493 97.2694 36.5892C97.7756 37.0732 98.9433 37.058 99.7552 37.0134C102.977 36.8382 106.231 35.7873 109.213 34.6178C110.686 34.0399 112.14 33.3828 113.493 32.5615C114.1 32.1929 114.942 31.6626 115.418 31.0782C114.544 31.0825 113.661 31.1774 112.807 31.2546C110.889 31.4308 108.977 31.693 107.083 32.036Z" fill="#D7772D"/>
<path d="M37.337 80.4451C37.3375 80.4367 37.3383 80.4403 37.3395 80.4356C37.3441 80.3996 37.3471 80.3632 37.3501 80.3268C37.3605 80.1994 37.3647 80.0703 37.3621 79.941C37.3599 79.8863 37.3576 79.8316 37.3538 79.7765C37.3515 79.7471 37.3476 79.7173 37.3454 79.6879C37.3253 79.5862 37.2992 79.4878 37.272 79.3875C37.2686 79.3748 37.2686 79.3748 37.2671 79.3676C37.2468 79.33 37.2221 79.2896 37.2033 79.2524C37.1744 79.2718 37.1429 79.2887 37.1133 79.3044L37.1069 79.3095C37.0872 79.3262 37.0663 79.3409 37.0493 79.36C36.9981 79.4123 36.9442 79.4621 36.8957 79.5167C36.8812 79.5331 36.8233 79.6039 36.8044 79.6242C36.695 79.7673 36.5965 79.9202 36.5028 80.0744C36.2472 80.498 35.6887 80.3163 35.5608 79.9607C34.9109 80.764 34.5599 81.8403 34.6828 82.8271C34.9726 82.8439 35.2899 82.8274 35.5219 82.7695C35.6106 82.7476 35.6979 82.7186 35.7851 82.6895C35.9115 82.6473 35.7986 82.6897 35.8685 82.656C35.8957 82.643 35.9208 82.6312 35.9464 82.6177C36.0364 82.5725 36.1224 82.5228 36.2049 82.4671C36.2298 82.4501 36.2547 82.4331 36.2779 82.4157C36.2948 82.4033 36.3269 82.3781 36.3353 82.3719C36.4499 82.2723 36.5591 82.168 36.6593 82.0528C36.6787 82.0309 36.6969 82.007 36.7167 81.9836C36.7248 81.9722 36.7354 81.9582 36.7426 81.95C36.7861 81.8889 36.8279 81.8274 36.867 81.7634C36.9464 81.6376 37.0125 81.5047 37.0773 81.3699C37.0921 81.34 37.0987 81.3283 37.1015 81.324C37.1032 81.3176 37.1061 81.3066 37.1178 81.2759C37.1448 81.2003 37.173 81.1266 37.1968 81.0502C37.2404 80.913 37.2756 80.7753 37.3033 80.6339C37.3155 80.5695 37.3252 80.5079 37.337 80.4451Z" fill="#D7772D"/>
<path d="M48.1457 69.1283C47.8691 68.9865 47.4328 68.9863 47.0539 69.037C47.1512 69.0969 47.2306 69.1858 47.266 69.3187C47.3304 69.5643 47.1822 69.9153 46.903 69.9538C45.2864 70.1802 43.6929 70.8761 42.3712 71.8259C41.2261 72.6471 40.1622 73.8909 40.4226 75.3492C41.5162 75.5154 42.772 75.1331 43.7868 74.7607C45.0188 74.3094 46.2469 73.6711 47.2375 72.8018C48.0914 72.0513 48.609 71.199 48.5957 70.0555C48.5898 69.6295 48.4623 69.2909 48.1457 69.1283Z" fill="#D7772D"/>
<path d="M105.098 96.3437C104.749 95.9863 104.288 95.824 103.791 95.7871C103.045 95.9866 102.321 96.3421 101.662 96.6762C100.369 97.3328 99.1386 98.1142 97.9691 98.9694C96.9528 99.7135 95.9759 100.526 95.098 101.429C94.4819 102.062 93.7842 102.81 93.4988 103.66C93.3111 104.222 93.3957 104.538 93.9819 104.767C94.9459 105.146 96.1343 105.028 97.1023 104.748C98.5617 104.325 99.9462 103.621 101.237 102.83C102.546 102.031 103.885 101.082 104.823 99.8487C105.52 98.9328 106.022 97.2916 105.098 96.3437Z" fill="#D7772D"/>
<path d="M130.999 102.648C130.505 102.291 129.763 102.42 129.218 102.558C128.959 102.624 128.706 102.708 128.46 102.803C126.312 103.943 124.107 104.972 122.028 106.235C120.202 107.344 118.641 108.665 117.164 110.193C116.123 111.27 115.1 112.393 114.271 113.645C113.782 114.384 112.813 115.803 113.405 116.718C114.082 117.765 116.082 117.598 117.113 117.39C118.911 117.028 120.595 116.184 122.149 115.232C123.962 114.121 125.647 112.795 127.167 111.312C128.452 110.058 129.674 108.672 130.527 107.081C130.959 106.275 131.271 105.383 131.405 104.477C131.491 103.891 131.545 103.041 130.999 102.648Z" fill="#D7772D"/>
<path d="M121.655 82.3478C121.656 82.2955 121.656 82.2447 121.655 82.192C121.654 82.175 121.656 82.177 121.656 82.1702C121.654 82.1647 121.655 82.1682 121.652 82.1575C121.648 82.1376 121.643 82.1177 121.638 82.0978C121.616 82.0023 121.61 82.011 121.62 82.0337C121.605 81.9994 121.583 81.963 121.559 81.9313C121.539 81.9107 121.508 81.8805 121.497 81.8708C121.507 81.8785 121.36 81.79 121.346 81.7846C121.223 81.7398 121.069 81.7102 120.993 81.7018C120.863 81.6889 120.765 81.6306 120.686 81.5588C119.46 81.9879 118.295 82.6887 117.33 83.526C116.372 84.3567 115.345 85.5579 115.579 86.8925C116.276 87.0286 116.991 86.9055 117.652 86.6345C119.056 86.0586 120.344 84.9339 121.143 83.6496C121.306 83.3872 121.453 83.1087 121.535 82.872C121.584 82.7329 121.624 82.5897 121.649 82.4423C121.645 82.4565 121.654 82.442 121.655 82.3478Z" fill="#D7772D"/>
<path d="M54.7726 108.239C53.8633 107.947 52.82 108.041 51.8539 108.25C50.9911 108.567 50.1507 108.939 49.3525 109.349C47.3468 110.378 45.0847 111.87 44.2036 114.054C45.1853 114.752 46.6506 114.61 47.7559 114.392C49.213 114.105 50.6209 113.565 51.9304 112.869C52.96 112.322 54.1025 111.655 54.8155 110.705C55.4029 109.92 56.0448 108.648 54.7726 108.239Z" fill="#D7772D"/>
<path d="M59.2922 84.3924C65.7528 81.0226 71.4049 84.3642 75.3049 91.1192C79.8289 98.955 80.9488 101.311 77.8736 105.968C77.413 106.835 77.309 106.654 78.0955 106.561C82.0418 106.324 85.5489 108.862 88.0449 113.186C90.4369 117.329 91.1241 121.015 87.1027 124.658C86.3441 125.216 83.7461 126.956 80.954 128.568C79.603 129.348 78.162 130.18 76.9391 130.766C75.7162 131.352 74.4237 130.777 73.7997 129.696C69.0157 121.41 50.6978 89.4744 50.7358 89.3324C50.7739 89.1903 52.4332 88.1122 54.4146 86.9682C56.306 85.8762 58.5196 84.7183 59.2922 84.3924ZM62.3435 91.7574C63.3315 93.4687 69.4638 103.258 69.5538 103.206L69.9763 102.482C71.4201 99.3666 68.1961 93.7824 65.9574 92.1928C64.935 91.4621 63.7604 91.2996 62.3435 91.7574ZM81.1043 121.756L81.953 121.146C86.6606 118.068 81.742 111.421 75.856 113.498C79.2082 118.888 79.0522 118.618 81.1043 121.756ZM90.1043 89.1797C100.698 107.321 99.8283 106.022 100.913 106.237C101.481 106.389 102.035 106.309 102.486 106.049C103.386 105.529 103.691 104.392 103.077 102.705C102.581 101.43 89.5674 78.6817 85.8615 72.0548C85.2375 70.974 85.1817 70.0455 85.5801 69.6954L86.3907 69.2274C88.0119 68.2914 90.5857 66.9255 90.8318 67.1437C91.0259 67.2718 107.191 96.7273 108.207 98.9028C110.447 103.614 111.245 106.036 110.906 108.153C110.685 110.682 108.683 113.039 106.071 114.547C101.838 116.991 95.8925 117.301 91.8617 113.023C90.5134 111.52 71.0895 77.4611 71.1796 77.4091C72.1703 76.8371 79.826 72.4171 80.2522 72.5313C80.3943 72.5693 82.7203 76.3902 90.1043 89.1797ZM128.148 100.96C127.068 101.584 125.699 101.293 125.075 100.212C123.477 97.6525 120.513 92.5187 116.353 85.3134L94.5023 68.2669C92.9358 67.0097 93.0425 64.9066 94.7538 63.9186C97.1336 62.4245 100.196 60.6565 100.736 60.3445C101.367 59.9805 101.727 59.7725 101.869 59.8106C102.295 59.9248 114.568 72.6538 114.606 72.5117C114.644 72.3697 112.074 54.3989 112.151 54.1147C112.189 53.9727 112.909 53.5567 115.071 52.3087C117.863 50.6967 118.545 50.4227 118.701 50.6929C118.805 50.8731 120.399 61.1213 123.416 81.1153C124.04 82.1961 132.946 97.8296 132.908 97.9717C132.87 98.1138 130.078 99.7258 128.148 100.96Z" fill="white"/>
</svg>
