<svg width="107" height="125" viewBox="0 0 107 125" fill="none" xmlns="http://www.w3.org/2000/svg">
<mask id="path-1-outside-1_1_4300" maskUnits="userSpaceOnUse" x="-7.20788" y="-7.34847" width="120.631" height="139.015" fill="black">
<rect fill="white" x="-7.20788" y="-7.34847" width="120.631" height="139.015"/>
<path fill-rule="evenodd" clip-rule="evenodd" d="M76.1082 69.4406C76.3859 69.6314 76.6681 69.8162 76.955 69.9939L76.9549 69.994C76.6681 69.8163 76.3858 69.6315 76.1082 69.4406C75.6943 69.1562 75.29 68.8602 74.8986 68.5536C72.2109 66.4485 69.8718 63.8799 67.5427 61.3222C64.2238 57.6777 60.9252 54.0554 56.667 51.8281C56.3819 51.6789 56.0915 51.5375 55.7975 51.4013L55.7195 51.3651L55.7192 51.365C55.5805 51.3005 55.4418 51.236 55.3005 51.1753C51.0053 49.3296 46.3069 49.1657 41.5872 49.0011L41.5862 49.001C40.9581 48.9791 40.3297 48.9572 39.7018 48.9313C39.3641 48.9173 39.0266 48.902 38.6893 48.8852C36.997 48.8006 35.312 48.672 33.6521 48.4203C30.0467 47.8737 26.325 46.5589 23.7846 44.0527L23.7843 44.0523C26.3248 46.5587 30.0467 47.8736 33.6523 48.4203C35.3122 48.6719 36.9971 48.8006 38.6894 48.8851L38.6895 48.8851C39.0267 48.9019 39.3642 48.9173 39.7019 48.9312L39.7019 48.9311C40.33 48.9571 40.9586 48.979 41.5869 49.0009L41.5879 49.0009C46.3074 49.1656 51.0056 49.3295 55.3005 51.1751C55.4418 51.2358 55.5804 51.3003 55.719 51.3647L55.7975 51.4012C55.8124 51.344 55.8268 51.2867 55.8413 51.2294C55.8626 51.1449 55.884 51.0604 55.9065 50.9764C55.995 50.6462 56.0861 50.3173 56.1792 49.9898C58.5005 41.8256 62.1311 34.0378 66.8839 27.0056C66.0632 26.6336 65.2366 26.269 64.4044 25.9133L64.4043 25.9133C64.0341 25.7551 63.6629 25.5988 63.2906 25.4444L63.2905 25.4444C62.4674 25.1029 61.6394 24.7717 60.807 24.4519C59.7954 24.0633 58.7779 23.6906 57.7542 23.34L57.7542 23.34C55.2247 22.4738 52.6611 21.7336 50.0783 21.1735C42.7811 19.5911 35.1494 20.0159 28.609 23.8817C27.4866 24.5453 26.4268 25.315 25.4644 26.1959C22.2863 29.1045 20.3467 33.612 20.7683 37.784L20.7683 37.784C20.8111 38.2074 20.8778 38.6272 20.9705 39.0416C21.1861 40.0062 21.5405 40.9405 22.0474 41.8201C16.6473 47.0708 12.8876 53.9982 11.4841 61.4012C9.93579 69.569 11.2593 78.252 15.1706 85.5874C16.4796 88.0422 18.0584 90.3343 19.638 92.6275L19.638 92.6276C20.6677 94.1225 21.6977 95.6179 22.6534 97.159C25.0754 101.064 27.0585 105.435 27.0685 110.03C27.0698 110.629 27.43 111.107 27.9231 111.328C28.4054 111.571 29.0039 111.548 29.4689 111.172C33.0391 108.278 37.6806 107.057 42.2384 106.47C44.0364 106.238 45.8458 106.093 47.6546 105.948C50.4308 105.725 53.2057 105.503 55.9363 104.968C64.0945 103.37 71.6641 98.9153 77.0211 92.5584C80.8378 88.0289 83.505 82.5546 84.7967 76.776L84.7966 76.776L84.7989 76.7653C84.9177 76.2331 85.0239 75.6983 85.1197 75.1616C85.1356 75.0731 85.1511 74.9849 85.1663 74.8964C85.2273 74.5399 85.2818 74.1823 85.3324 73.8242C85.367 73.5785 85.4 73.3327 85.4296 73.0863C85.4516 72.9031 85.4722 72.7196 85.4915 72.536C85.5068 72.3897 85.5207 72.2432 85.5342 72.0967C87.7613 71.7117 89.8307 70.5433 91.4322 68.9236C91.7392 68.613 92.0311 68.288 92.3015 67.9466C92.311 67.9346 92.3201 67.9221 92.3291 67.9097L92.3293 67.9095L92.3294 67.9093L92.3295 67.9091L92.3414 67.8928C92.3456 67.8872 92.3498 67.8816 92.3541 67.8761C93.5377 66.3603 94.3624 64.5933 94.8617 62.7307C95.1422 61.6841 95.3206 60.6077 95.4033 59.5297C95.9594 52.2891 92.3175 45.2141 87.1694 40.092C85.3203 38.2524 83.3205 36.5812 81.2148 35.0511C80.3883 34.4505 79.5445 33.8731 78.6879 33.3147L78.6877 33.3146C76.4933 31.884 74.2094 30.5862 71.8789 29.396C71.7284 29.3192 71.5775 29.2433 71.4266 29.1674L71.4262 29.1671L71.4014 29.1547C72.2012 26.9034 73.6154 24.8744 75.3813 23.2562C75.9923 22.6961 76.6443 22.1823 77.2961 21.6686C78.1546 20.9922 79.0125 20.3161 79.7754 19.5354C80.4569 18.8381 81.0719 18.0327 81.3186 17.0894C81.5655 16.146 81.3776 15.0421 80.6546 14.388C79.2193 13.0896 77.6816 14.6376 76.7242 15.6722C75.4418 17.0581 74.2656 18.5422 73.2071 20.1059C71.5348 22.5759 70.1611 25.2471 69.1189 28.0422L69.2885 28.1224L69.2893 28.1228L69.2898 28.123C69.4544 28.2008 69.619 28.2787 69.7828 28.3572C69.8624 28.3954 69.9419 28.434 70.0214 28.4728C69.9419 28.434 69.8624 28.3954 69.7827 28.3572C69.626 28.2821 69.4685 28.2076 69.311 28.1331L69.1189 28.0422C68.6673 27.8282 68.2138 27.6158 67.7582 27.4054L67.7583 27.4054C67.4677 27.2711 67.1762 27.1381 66.8841 27.0057C62.1311 34.0379 58.5006 41.8257 56.1793 49.9899C56.0862 50.3174 55.995 50.6463 55.9066 50.9765C55.8841 51.0604 55.8628 51.1447 55.8415 51.229L55.8415 51.229L55.8415 51.2291L55.8415 51.2291L55.8415 51.2291L55.8415 51.2292L55.8415 51.2292L55.8415 51.2292L55.8414 51.2293L55.8414 51.2293L55.8414 51.2293L55.8414 51.2294L55.8414 51.2294C55.8269 51.2867 55.8125 51.3441 55.7976 51.4012C56.0916 51.5374 56.382 51.6789 56.6671 51.8279L56.6671 51.828C60.9253 54.0554 64.224 57.6777 67.5428 61.3222L67.5428 61.3223C69.8719 63.8799 72.211 66.4485 74.8987 68.5535C75.29 68.86 75.6944 69.1561 76.1082 69.4406Z"/>
</mask>
<path fill-rule="evenodd" clip-rule="evenodd" d="M76.1082 69.4406C76.3859 69.6314 76.6681 69.8162 76.955 69.9939L76.9549 69.994C76.6681 69.8163 76.3858 69.6315 76.1082 69.4406C75.6943 69.1562 75.29 68.8602 74.8986 68.5536C72.2109 66.4485 69.8718 63.8799 67.5427 61.3222C64.2238 57.6777 60.9252 54.0554 56.667 51.8281C56.3819 51.6789 56.0915 51.5375 55.7975 51.4013L55.7195 51.3651L55.7192 51.365C55.5805 51.3005 55.4418 51.236 55.3005 51.1753C51.0053 49.3296 46.3069 49.1657 41.5872 49.0011L41.5862 49.001C40.9581 48.9791 40.3297 48.9572 39.7018 48.9313C39.3641 48.9173 39.0266 48.902 38.6893 48.8852C36.997 48.8006 35.312 48.672 33.6521 48.4203C30.0467 47.8737 26.325 46.5589 23.7846 44.0527L23.7843 44.0523C26.3248 46.5587 30.0467 47.8736 33.6523 48.4203C35.3122 48.6719 36.9971 48.8006 38.6894 48.8851L38.6895 48.8851C39.0267 48.9019 39.3642 48.9173 39.7019 48.9312L39.7019 48.9311C40.33 48.9571 40.9586 48.979 41.5869 49.0009L41.5879 49.0009C46.3074 49.1656 51.0056 49.3295 55.3005 51.1751C55.4418 51.2358 55.5804 51.3003 55.719 51.3647L55.7975 51.4012C55.8124 51.344 55.8268 51.2867 55.8413 51.2294C55.8626 51.1449 55.884 51.0604 55.9065 50.9764C55.995 50.6462 56.0861 50.3173 56.1792 49.9898C58.5005 41.8256 62.1311 34.0378 66.8839 27.0056C66.0632 26.6336 65.2366 26.269 64.4044 25.9133L64.4043 25.9133C64.0341 25.7551 63.6629 25.5988 63.2906 25.4444L63.2905 25.4444C62.4674 25.1029 61.6394 24.7717 60.807 24.4519C59.7954 24.0633 58.7779 23.6906 57.7542 23.34L57.7542 23.34C55.2247 22.4738 52.6611 21.7336 50.0783 21.1735C42.7811 19.5911 35.1494 20.0159 28.609 23.8817C27.4866 24.5453 26.4268 25.315 25.4644 26.1959C22.2863 29.1045 20.3467 33.612 20.7683 37.784L20.7683 37.784C20.8111 38.2074 20.8778 38.6272 20.9705 39.0416C21.1861 40.0062 21.5405 40.9405 22.0474 41.8201C16.6473 47.0708 12.8876 53.9982 11.4841 61.4012C9.93579 69.569 11.2593 78.252 15.1706 85.5874C16.4796 88.0422 18.0584 90.3343 19.638 92.6275L19.638 92.6276C20.6677 94.1225 21.6977 95.6179 22.6534 97.159C25.0754 101.064 27.0585 105.435 27.0685 110.03C27.0698 110.629 27.43 111.107 27.9231 111.328C28.4054 111.571 29.0039 111.548 29.4689 111.172C33.0391 108.278 37.6806 107.057 42.2384 106.47C44.0364 106.238 45.8458 106.093 47.6546 105.948C50.4308 105.725 53.2057 105.503 55.9363 104.968C64.0945 103.37 71.6641 98.9153 77.0211 92.5584C80.8378 88.0289 83.505 82.5546 84.7967 76.776L84.7966 76.776L84.7989 76.7653C84.9177 76.2331 85.0239 75.6983 85.1197 75.1616C85.1356 75.0731 85.1511 74.9849 85.1663 74.8964C85.2273 74.5399 85.2818 74.1823 85.3324 73.8242C85.367 73.5785 85.4 73.3327 85.4296 73.0863C85.4516 72.9031 85.4722 72.7196 85.4915 72.536C85.5068 72.3897 85.5207 72.2432 85.5342 72.0967C87.7613 71.7117 89.8307 70.5433 91.4322 68.9236C91.7392 68.613 92.0311 68.288 92.3015 67.9466C92.311 67.9346 92.3201 67.9221 92.3291 67.9097L92.3293 67.9095L92.3294 67.9093L92.3295 67.9091L92.3414 67.8928C92.3456 67.8872 92.3498 67.8816 92.3541 67.8761C93.5377 66.3603 94.3624 64.5933 94.8617 62.7307C95.1422 61.6841 95.3206 60.6077 95.4033 59.5297C95.9594 52.2891 92.3175 45.2141 87.1694 40.092C85.3203 38.2524 83.3205 36.5812 81.2148 35.0511C80.3883 34.4505 79.5445 33.8731 78.6879 33.3147L78.6877 33.3146C76.4933 31.884 74.2094 30.5862 71.8789 29.396C71.7284 29.3192 71.5775 29.2433 71.4266 29.1674L71.4262 29.1671L71.4014 29.1547C72.2012 26.9034 73.6154 24.8744 75.3813 23.2562C75.9923 22.6961 76.6443 22.1823 77.2961 21.6686C78.1546 20.9922 79.0125 20.3161 79.7754 19.5354C80.4569 18.8381 81.0719 18.0327 81.3186 17.0894C81.5655 16.146 81.3776 15.0421 80.6546 14.388C79.2193 13.0896 77.6816 14.6376 76.7242 15.6722C75.4418 17.0581 74.2656 18.5422 73.2071 20.1059C71.5348 22.5759 70.1611 25.2471 69.1189 28.0422L69.2885 28.1224L69.2893 28.1228L69.2898 28.123C69.4544 28.2008 69.619 28.2787 69.7828 28.3572C69.8624 28.3954 69.9419 28.434 70.0214 28.4728C69.9419 28.434 69.8624 28.3954 69.7827 28.3572C69.626 28.2821 69.4685 28.2076 69.311 28.1331L69.1189 28.0422C68.6673 27.8282 68.2138 27.6158 67.7582 27.4054L67.7583 27.4054C67.4677 27.2711 67.1762 27.1381 66.8841 27.0057C62.1311 34.0379 58.5006 41.8257 56.1793 49.9899C56.0862 50.3174 55.995 50.6463 55.9066 50.9765C55.8841 51.0604 55.8628 51.1447 55.8415 51.229L55.8415 51.229L55.8415 51.2291L55.8415 51.2291L55.8415 51.2291L55.8415 51.2292L55.8415 51.2292L55.8415 51.2292L55.8414 51.2293L55.8414 51.2293L55.8414 51.2293L55.8414 51.2294L55.8414 51.2294C55.8269 51.2867 55.8125 51.3441 55.7976 51.4012C56.0916 51.5374 56.382 51.6789 56.6671 51.8279L56.6671 51.828C60.9253 54.0554 64.224 57.6777 67.5428 61.3222L67.5428 61.3223C69.8719 63.8799 72.211 66.4485 74.8987 68.5535C75.29 68.86 75.6944 69.1561 76.1082 69.4406Z" fill="#A34E17"/>
<path d="M76.955 69.9939L81.5834 72.4062L83.8231 68.109L79.7036 65.5569L76.955 69.9939ZM76.1082 69.4406L79.0649 65.1394L79.0645 65.1391L76.1082 69.4406ZM76.9549 69.994L74.2063 74.4309L78.9851 77.3913L81.5833 72.4063L76.9549 69.994ZM76.1082 69.4406L79.0648 65.1395L79.0643 65.1391L76.1082 69.4406ZM74.8986 68.5536L78.1171 64.4447L78.1169 64.4446L74.8986 68.5536ZM67.5427 61.3222L71.4017 57.808L71.4017 57.808L67.5427 61.3222ZM56.667 51.8281L54.2477 56.4528L54.2479 56.4529L56.667 51.8281ZM55.7975 51.4013L53.5987 56.1349L53.6038 56.1373L55.7975 51.4013ZM55.7195 51.3651L53.4732 56.0763L53.4969 56.0876L53.5208 56.0987L55.7195 51.3651ZM55.7192 51.365L57.9655 46.6537L57.9426 46.6428L57.9196 46.6321L55.7192 51.365ZM55.3005 51.1753L57.3613 46.38L57.3611 46.3799L55.3005 51.1753ZM41.5872 49.0011L41.7691 43.7849L41.7599 43.7846L41.7507 43.7843L41.5872 49.0011ZM41.5862 49.001L41.4042 54.2172L41.4134 54.2175L41.4227 54.2178L41.5862 49.001ZM39.7018 48.9313L39.4858 54.1462L39.4866 54.1462L39.7018 48.9313ZM38.6893 48.8852L38.4289 54.098L38.4291 54.098L38.6893 48.8852ZM33.6521 48.4203L32.8696 53.5807L32.8698 53.5807L33.6521 48.4203ZM23.7846 44.0527L19.205 46.5566L19.573 47.2297L20.1191 47.7684L23.7846 44.0527ZM23.7843 44.0523L27.4499 40.3368L19.2048 46.5562L23.7843 44.0523ZM33.6523 48.4203L32.8698 53.5806L32.87 53.5807L33.6523 48.4203ZM38.6894 48.8851L38.429 54.0979L42.0449 54.2786L43.4808 50.9551L38.6894 48.8851ZM38.6895 48.8851L38.9504 43.6722L35.3342 43.4912L33.8982 46.8151L38.6895 48.8851ZM39.7019 48.9312L39.4869 54.1461L43.0596 54.2933L44.4872 51.015L39.7019 48.9312ZM39.7019 48.9311L39.9171 43.7162L36.3442 43.5688L34.9166 46.8474L39.7019 48.9311ZM41.5869 49.0009L41.4049 54.2171L41.4141 54.2174L41.4234 54.2177L41.5869 49.0009ZM41.5879 49.0009L41.7699 43.7848L41.7606 43.7845L41.7514 43.7842L41.5879 49.0009ZM55.3005 51.1751L53.2399 55.9704L53.24 55.9705L55.3005 51.1751ZM55.719 51.3647L53.5185 56.0975L53.5201 56.0983L55.719 51.3647ZM55.7975 51.4012L53.5986 56.1347L59.2764 58.7723L60.8494 52.7126L55.7975 51.4012ZM55.8413 51.2294L50.7808 49.9515L50.7808 49.9516L55.8413 51.2294ZM56.1792 49.9898L61.1995 51.4174L61.1996 51.4172L56.1792 49.9898ZM66.8839 27.0056L71.2082 29.9283L74.6709 24.8051L69.0389 22.252L66.8839 27.0056ZM64.4044 25.9133L66.4557 21.114L64.1247 20.1177L61.9005 21.3338L64.4044 25.9133ZM64.4043 25.9133L62.353 30.7127L64.684 31.709L66.9082 30.4929L64.4043 25.9133ZM63.2906 25.4444L65.2899 20.6232L62.9746 19.663L60.7777 20.8698L63.2906 25.4444ZM63.2905 25.4444L61.2906 30.2654L63.6062 31.226L65.8035 30.019L63.2905 25.4444ZM60.807 24.4519L62.6788 19.5797L62.6787 19.5797L60.807 24.4519ZM57.7542 23.34L55.1445 18.8199L45.2044 24.5589L56.0631 28.2778L57.7542 23.34ZM57.7542 23.34L60.3639 27.8601L70.3046 22.1208L59.4451 18.4021L57.7542 23.34ZM50.0783 21.1735L48.9722 26.2743L48.9722 26.2743L50.0783 21.1735ZM28.609 23.8817L25.9533 19.3886L25.9529 19.3888L28.609 23.8817ZM25.4644 26.1959L28.9882 30.0461L28.9883 30.0461L25.4644 26.1959ZM20.7683 37.784L15.5754 38.3088L17.1057 53.4537L25.1906 40.5562L20.7683 37.784ZM20.7683 37.784L25.9612 37.2595L24.4316 22.1131L16.346 35.0118L20.7683 37.784ZM20.9705 39.0416L26.0641 37.9029L26.0641 37.9029L20.9705 39.0416ZM22.0474 41.8201L25.6859 45.5622L28.5967 42.7319L26.5696 39.2143L22.0474 41.8201ZM11.4841 61.4012L6.35609 60.4291L6.35607 60.4292L11.4841 61.4012ZM15.1706 85.5874L10.5651 88.0431L10.5651 88.0432L15.1706 85.5874ZM19.638 92.6275L15.3396 95.5882L15.3857 95.6551L15.4337 95.7204L19.638 92.6275ZM19.638 92.6276L23.9364 89.667L23.8904 89.6001L23.8423 89.5348L19.638 92.6276ZM22.6534 97.159L18.2178 99.9098L18.2179 99.9098L22.6534 97.159ZM27.0685 110.03L21.8491 110.042L21.8491 110.042L27.0685 110.03ZM27.9231 111.328L30.273 106.668L30.1646 106.613L30.0538 106.563L27.9231 111.328ZM29.4689 111.172L32.7544 115.227L32.755 115.227L29.4689 111.172ZM42.2384 106.47L41.5718 101.293L41.5716 101.293L42.2384 106.47ZM47.6546 105.948L48.072 111.151L48.072 111.151L47.6546 105.948ZM55.9363 104.968L56.9393 110.09L56.9393 110.09L55.9363 104.968ZM77.0211 92.5584L81.0123 95.9217L81.0123 95.9216L77.0211 92.5584ZM84.7967 76.776L89.8904 77.9146L91.7141 69.7562L83.5834 71.6996L84.7967 76.776ZM84.7966 76.776L79.6932 75.6823L77.9584 83.7769L86.01 81.8523L84.7966 76.776ZM84.7989 76.7653L79.7049 75.6283L79.7001 75.6499L79.6955 75.6716L84.7989 76.7653ZM85.1197 75.1616L79.9826 74.2384L79.9814 74.2452L85.1197 75.1616ZM85.1663 74.8964L90.3105 75.7786L90.311 75.7761L85.1663 74.8964ZM85.3324 73.8242L90.5005 74.5538L90.5005 74.5535L85.3324 73.8242ZM85.4296 73.0863L90.6116 73.7102L90.6117 73.7087L85.4296 73.0863ZM85.4915 72.536L90.6823 73.0809L90.6824 73.0795L85.4915 72.536ZM85.5342 72.0967L84.645 66.9537L80.7031 67.6352L80.3368 71.6187L85.5342 72.0967ZM91.4322 68.9236L95.1436 72.5934L95.1438 72.5931L91.4322 68.9236ZM92.3015 67.9466L88.2113 64.7044L88.2101 64.7059L92.3015 67.9466ZM92.3291 67.9097L88.2069 64.7083L88.1558 64.7741L88.1068 64.8415L92.3291 67.9097ZM92.3293 67.9095L88.207 64.7081L92.3293 67.9095ZM92.3294 67.9093L96.4516 71.1107L92.3294 67.9093ZM92.3295 67.9091L96.4518 71.1105L96.5 71.0484L96.5463 70.9849L92.3295 67.9091ZM92.3414 67.8928L88.142 64.7934L88.1333 64.8052L88.1246 64.8171L92.3414 67.8928ZM92.3541 67.8761L88.2403 64.6639L88.2363 64.669L92.3541 67.8761ZM94.8617 62.7307L99.9031 64.0822L99.9032 64.0815L94.8617 62.7307ZM95.4033 59.5297L90.1993 59.13L90.1993 59.1304L95.4033 59.5297ZM87.1694 40.092L90.8507 36.392L90.8506 36.392L87.1694 40.092ZM81.2148 35.0511L84.2829 30.8288L84.2829 30.8287L81.2148 35.0511ZM78.6879 33.3147L74.6361 36.6048L75.1521 37.2402L75.8377 37.6872L78.6879 33.3147ZM78.6877 33.3146L82.7395 30.0245L82.2236 29.3891L81.538 28.9422L78.6877 33.3146ZM71.8789 29.396L69.5048 34.0442L69.505 34.0443L71.8789 29.396ZM71.4266 29.1674L73.7725 24.5049L73.7693 24.5033L71.4266 29.1674ZM71.4262 29.1671L69.0808 33.8298L69.0836 33.8312L71.4262 29.1671ZM71.4014 29.1547L66.4832 27.4074L64.9413 31.7477L69.0561 33.8174L71.4014 29.1547ZM75.3813 23.2562L78.9076 27.1041L78.9081 27.1037L75.3813 23.2562ZM77.2961 21.6686L80.5266 25.7681L80.5266 25.7681L77.2961 21.6686ZM79.7754 19.5354L76.0426 15.8874L76.0424 15.8876L79.7754 19.5354ZM81.3186 17.0894L76.2693 15.7681L76.269 15.769L81.3186 17.0894ZM80.6546 14.388L84.1564 10.5177L84.156 10.5174L80.6546 14.388ZM76.7242 15.6722L72.8934 12.1272L72.8931 12.1275L76.7242 15.6722ZM73.2071 20.1059L77.5291 23.032L77.5291 23.0318L73.2071 20.1059ZM69.1189 28.0422L64.2285 26.2188L62.5537 30.7106L66.8872 32.7603L69.1189 28.0422ZM69.2885 28.1224L71.5273 23.4076L71.5202 23.4042L69.2885 28.1224ZM69.2893 28.1228L67.0505 32.8376L67.0628 32.8434L69.2893 28.1228ZM69.2898 28.123L71.5205 23.4044L71.5163 23.4024L69.2898 28.123ZM69.7828 28.3572L72.0407 23.6515L72.0398 23.6511L69.7828 28.3572ZM70.0214 28.4728L67.7315 33.163L72.3118 23.7829L70.0214 28.4728ZM69.7827 28.3572L67.5256 33.0633L67.5263 33.0636L69.7827 28.3572ZM69.311 28.1331L67.0787 32.851L67.0802 32.8517L69.311 28.1331ZM69.1189 28.0422L66.8835 32.7587L66.8865 32.7601L69.1189 28.0422ZM67.7582 27.4054L63.4538 24.4536L59.9575 29.5522L65.5701 32.1439L67.7582 27.4054ZM67.7583 27.4054L72.0628 30.3571L75.5587 25.2591L69.9469 22.6671L67.7583 27.4054ZM66.8841 27.0057L69.0387 22.2519L65.0265 20.4334L62.5598 24.083L66.8841 27.0057ZM56.1793 49.9899L61.1996 51.4175L61.1997 51.4173L56.1793 49.9899ZM55.9066 50.9765L60.9481 52.3274L60.9483 52.3265L55.9066 50.9765ZM55.8415 51.229L60.883 52.5799L60.8928 52.5434L60.902 52.5068L55.8415 51.229ZM55.8415 51.229L60.883 52.5799L60.883 52.5799L55.8415 51.229ZM55.8415 51.2291L50.8 49.8782L50.8 49.8782L55.8415 51.2291ZM55.8415 51.2291L60.883 52.58L60.883 52.58L55.8415 51.2291ZM55.8415 51.2292L60.883 52.58L55.8415 51.2292ZM55.8415 51.2292L50.8 49.8783L55.8415 51.2292ZM55.8414 51.2294L50.7999 49.8785L55.8414 51.2294ZM55.8414 51.2294L50.7999 49.8785L50.7902 49.915L50.7809 49.9515L55.8414 51.2294ZM55.7976 51.4012L50.7457 50.0898L49.6512 54.3062L53.6038 56.1371L55.7976 51.4012ZM56.6671 51.8279L61.7086 53.1788L62.7908 49.1401L59.0855 47.2027L56.6671 51.8279ZM56.6671 51.828L51.6256 50.4771L50.5436 54.5152L54.2479 56.4528L56.6671 51.828ZM67.5428 61.3222L71.6484 58.0995L71.5305 57.9493L71.4018 57.808L67.5428 61.3222ZM67.5428 61.3223L63.4373 64.5449L63.5552 64.6952L63.6838 64.8365L67.5428 61.3223ZM74.8987 68.5535L71.6803 72.6625L71.6807 72.6628L74.8987 68.5535ZM79.7036 65.5569C79.4908 65.4251 79.2779 65.2858 79.0649 65.1394L73.1516 73.7417C73.4939 73.977 73.8455 74.2073 74.2063 74.4308L79.7036 65.5569ZM81.5833 72.4063L81.5834 72.4062L72.3266 67.5815L72.3265 67.5816L81.5833 72.4063ZM73.1516 73.7418C73.4938 73.977 73.8454 74.2074 74.2063 74.4309L79.7036 65.557C79.4907 65.4252 79.2778 65.2859 79.0648 65.1395L73.1516 73.7418ZM71.6802 72.6625C72.161 73.0391 72.6531 73.3992 73.1521 73.7421L79.0643 65.1391C78.7355 64.9132 78.4189 64.6812 78.1171 64.4447L71.6802 72.6625ZM63.6837 64.8364C65.9591 67.3351 68.5882 70.2408 71.6803 72.6626L78.1169 64.4446C75.8336 62.6562 73.7846 60.4247 71.4017 57.808L63.6837 64.8364ZM54.2479 56.4529C57.5464 58.1783 60.2423 61.0573 63.6837 64.8364L71.4017 57.808C68.2054 54.2981 64.304 49.9325 59.0862 47.2032L54.2479 56.4529ZM53.6038 56.1373C53.838 56.2457 54.0512 56.35 54.2477 56.4528L59.0864 47.2033C58.7127 47.0078 58.3451 46.8293 57.9912 46.6654L53.6038 56.1373ZM53.5208 56.0987L53.5987 56.1349L57.9963 46.6677L57.9183 46.6315L53.5208 56.0987ZM53.473 56.0762L53.4732 56.0763L57.9658 46.6539L57.9655 46.6537L53.473 56.0762ZM53.2396 55.9705C53.2991 55.9961 53.3689 56.0281 53.5189 56.0978L57.9196 46.6321C57.7922 46.5729 57.5845 46.4759 57.3613 46.38L53.2396 55.9705ZM41.4053 54.2172C46.3093 54.3883 49.9971 54.5771 53.2399 55.9706L57.3611 46.3799C52.0135 44.082 46.3046 43.9431 41.7691 43.7849L41.4053 54.2172ZM41.4227 54.2178L41.4237 54.2178L41.7507 43.7843L41.7497 43.7843L41.4227 54.2178ZM39.4866 54.1462C40.1339 54.1729 40.7789 54.1954 41.4042 54.2172L41.7681 43.7849C41.1373 43.7629 40.5254 43.7415 39.9169 43.7164L39.4866 54.1462ZM38.4291 54.098C38.7821 54.1156 39.1344 54.1316 39.4858 54.1462L39.9177 43.7164C39.5938 43.703 39.2711 43.6884 38.9495 43.6723L38.4291 54.098ZM32.8698 53.5807C34.7762 53.8697 36.6564 54.0095 38.4289 54.098L38.9497 43.6723C37.3376 43.5918 35.8479 43.4742 34.4344 43.26L32.8698 53.5807ZM20.1191 47.7684C23.7629 51.363 28.7221 52.9518 32.8696 53.5807L34.4345 43.26C31.3713 42.7955 28.8872 41.7549 27.45 40.3371L20.1191 47.7684ZM19.2048 46.5562L19.205 46.5566L28.3641 41.5489L28.3638 41.5484L19.2048 46.5562ZM34.4347 43.2599C31.3714 42.7954 28.8871 41.7547 27.4499 40.3368L20.1187 47.7678C23.7625 51.3626 28.722 52.9517 32.8698 53.5806L34.4347 43.2599ZM38.9499 43.6723C37.3377 43.5917 35.848 43.4742 34.4345 43.2599L32.87 53.5807C34.7763 53.8697 36.6565 54.0094 38.429 54.0979L38.9499 43.6723ZM33.8982 46.8151L33.8981 46.8151L43.4808 50.9551L43.4808 50.955L33.8982 46.8151ZM39.9168 43.7163C39.5937 43.7029 39.2715 43.6883 38.9504 43.6722L38.4285 54.0979C38.7818 54.1155 39.1347 54.1316 39.4869 54.1461L39.9168 43.7163ZM34.9166 46.8474L34.9166 46.8474L44.4872 51.015L44.4872 51.0149L34.9166 46.8474ZM41.7688 43.7847C41.1379 43.7627 40.5258 43.7414 39.9171 43.7162L39.4867 54.146C40.1342 54.1728 40.7794 54.1953 41.4049 54.2171L41.7688 43.7847ZM41.7514 43.7842L41.7504 43.7841L41.4234 54.2177L41.4244 54.2177L41.7514 43.7842ZM57.3612 46.3798C52.0138 44.0819 46.3051 43.943 41.7699 43.7848L41.4059 54.2171C46.3097 54.3882 49.9973 54.5771 53.2399 55.9704L57.3612 46.3798ZM57.9196 46.6319C57.7922 46.5727 57.5844 46.4757 57.361 46.3797L53.24 55.9705C53.2992 55.9959 53.3686 56.0278 53.5185 56.0975L57.9196 46.6319ZM57.9964 46.6676L57.9179 46.6312L53.5201 56.0983L53.5986 56.1347L57.9964 46.6676ZM50.7808 49.9516C50.7656 50.0117 50.7554 50.0522 50.7456 50.0898L60.8494 52.7126C60.8693 52.6359 60.888 52.5618 60.9018 52.5073L50.7808 49.9516ZM50.865 49.6256C50.8311 49.7521 50.8006 49.8732 50.7808 49.9515L60.9018 52.5073C60.9247 52.4167 60.9369 52.3688 60.948 52.3273L50.865 49.6256ZM51.159 48.5622C51.0594 48.9121 50.9611 49.2668 50.865 49.6256L60.948 52.3273C61.0288 52.0256 61.1128 51.7224 61.1995 51.4174L51.159 48.5622ZM62.5596 24.083C57.4981 31.5719 53.632 39.8642 51.1589 48.5624L61.1996 51.4172C63.369 43.7871 66.7641 36.5038 71.2082 29.9283L62.5596 24.083ZM62.353 30.7126C63.1487 31.0527 63.9407 31.402 64.7289 31.7593L69.0389 22.252C68.1857 21.8652 67.3245 21.4853 66.4557 21.114L62.353 30.7126ZM66.9082 30.4929L66.9083 30.4928L61.9005 21.3338L61.9004 21.3338L66.9082 30.4929ZM61.2912 30.2656C61.6459 30.4127 61.9998 30.5617 62.353 30.7127L66.4556 21.114C66.0684 20.9485 65.6799 20.7849 65.2899 20.6232L61.2912 30.2656ZM65.8035 30.019L65.8035 30.0189L60.7777 20.8698L60.7776 20.8698L65.8035 30.019ZM58.9351 29.324C59.723 29.6267 60.5083 29.9408 61.2906 30.2654L65.2904 20.6234C64.4265 20.265 63.5558 19.9167 62.6788 19.5797L58.9351 29.324ZM56.0631 28.2778C57.0175 28.6047 57.9743 28.9549 58.9353 29.3241L62.6787 19.5797C61.6166 19.1717 60.5383 18.7766 59.4453 18.4022L56.0631 28.2778ZM55.1446 18.8199L55.1445 18.8199L60.3639 27.8601L60.3639 27.8601L55.1446 18.8199ZM48.9722 26.2743C51.3254 26.7846 53.6921 27.4658 56.0633 28.2778L59.4451 18.4021C56.7574 17.4817 53.9968 16.6826 51.1844 16.0727L48.9722 26.2743ZM31.2648 28.3749C36.3553 25.366 42.5484 24.8813 48.9722 26.2743L51.1844 16.0727C43.0137 14.3009 33.9435 14.6658 25.9533 19.3886L31.2648 28.3749ZM28.9883 30.0461C29.6609 29.4305 30.4246 28.8716 31.2652 28.3747L25.9529 19.3888C24.5485 20.219 23.1928 21.1996 21.9406 22.3457L28.9883 30.0461ZM25.9612 37.2593C25.7256 34.9278 26.8695 31.9852 28.9882 30.0461L21.9407 22.3456C17.7032 26.2238 14.9678 32.2963 15.5754 38.3088L25.9612 37.2593ZM16.346 35.0118L16.346 35.0119L25.1906 40.5562L25.1906 40.5561L16.346 35.0118ZM26.0641 37.9029C26.0188 37.7002 25.9841 37.4859 25.9612 37.2595L15.5754 38.3084C15.638 38.9288 15.7369 39.5542 15.8769 40.1804L26.0641 37.9029ZM26.5696 39.2143C26.3381 38.8125 26.1698 38.3759 26.0641 37.9029L15.8769 40.1804C16.2024 41.6364 16.7429 43.0685 17.5251 44.426L26.5696 39.2143ZM16.6121 62.3734C17.813 56.0391 21.0449 50.0748 25.6859 45.5622L18.4089 38.0781C12.2498 44.0668 7.96217 51.9574 6.35609 60.4291L16.6121 62.3734ZM19.7762 83.1317C16.4245 76.8459 15.2854 69.3723 16.6121 62.3733L6.35607 60.4292C4.58622 69.7657 6.09408 79.658 10.5651 88.0431L19.7762 83.1317ZM23.9363 89.6669C22.3285 87.3325 20.9226 85.2816 19.7761 83.1316L10.5651 88.0432C12.0366 90.8027 13.7884 93.3361 15.3396 95.5882L23.9363 89.6669ZM23.8423 89.5348L23.8422 89.5347L15.4337 95.7204L15.4338 95.7205L23.8423 89.5348ZM27.0891 94.4082C26.0562 92.7427 24.9541 91.1445 23.9364 89.667L15.3397 95.5883C16.3813 97.1005 17.3392 98.493 18.2178 99.9098L27.0891 94.4082ZM32.2878 110.019C32.2747 103.976 29.6897 98.6017 27.089 94.4082L18.2179 99.9098C20.4611 103.527 21.8423 106.894 21.8491 110.042L32.2878 110.019ZM30.0538 106.563C31.2535 107.1 32.2841 108.371 32.2878 110.019L21.8491 110.042C21.8555 112.887 23.6066 115.115 25.7924 116.093L30.0538 106.563ZM26.1834 107.116C27.4633 106.079 29.0991 106.076 30.273 106.668L25.5732 115.988C27.7116 117.067 30.5445 117.017 32.7544 115.227L26.1834 107.116ZM41.5716 101.293C36.6774 101.924 30.8774 103.312 26.1827 107.117L32.755 115.227C35.2007 113.245 38.6839 112.19 42.9052 111.646L41.5716 101.293ZM47.2372 100.745C45.4493 100.889 43.5149 101.043 41.5718 101.293L42.905 111.646C44.558 111.434 46.2422 111.297 48.072 111.151L47.2372 100.745ZM54.9334 99.8459C52.5418 100.314 50.0632 100.519 47.2372 100.745L48.072 111.151C50.7985 110.932 53.8697 110.691 56.9393 110.09L54.9334 99.8459ZM73.0299 89.195C68.4395 94.6423 61.9242 98.477 54.9333 99.8459L56.9393 110.09C66.2649 108.264 74.8888 103.188 81.0123 95.9217L73.0299 89.195ZM79.7031 75.6373C78.5891 80.6206 76.2897 85.3264 73.0298 89.1951L81.0123 95.9216C85.3858 90.7315 88.4208 84.4885 89.8904 77.9146L79.7031 75.6373ZM86.01 81.8523L86.0101 81.8523L83.5834 71.6996L83.5833 71.6997L86.01 81.8523ZM79.6955 75.6716L79.6932 75.6823L89.9001 77.8697L89.9024 77.859L79.6955 75.6716ZM79.9814 74.2452C79.8976 74.7149 79.8059 75.1759 79.7049 75.6283L89.8929 77.9022C90.0295 77.2904 90.1503 76.6817 90.2579 76.078L79.9814 74.2452ZM80.0221 74.0142C80.0098 74.0859 79.9967 74.1602 79.9826 74.2384L90.2567 76.0848C90.2744 75.9861 90.2925 75.8838 90.3105 75.7786L80.0221 74.0142ZM80.1643 73.0946C80.119 73.415 80.0722 73.7212 80.0216 74.0168L90.311 75.7761C90.3824 75.3586 90.4446 74.9496 90.5005 74.5538L80.1643 73.0946ZM80.2477 72.4625C80.2235 72.6635 80.1956 72.8725 80.1642 73.0949L90.5005 74.5535C90.5385 74.2846 90.5764 74.0019 90.6116 73.7102L80.2477 72.4625ZM80.3007 71.9911C80.2839 72.1505 80.2662 72.3081 80.2475 72.4639L90.6117 73.7087C90.637 73.498 90.6605 73.2887 90.6823 73.0809L80.3007 71.9911ZM80.3368 71.6187C80.3242 71.7559 80.3125 71.8777 80.3005 71.9925L90.6824 73.0795C90.7011 72.9018 90.7173 72.7306 90.7316 72.5747L80.3368 71.6187ZM87.7208 65.2539C86.7896 66.1956 85.6762 66.7754 84.645 66.9537L86.4234 77.2398C89.8463 76.648 92.8717 74.891 95.1436 72.5934L87.7208 65.2539ZM88.2101 64.7059C88.0728 64.8792 87.9107 65.0618 87.7205 65.2541L95.1438 72.5931C95.5678 72.1643 95.9893 71.6967 96.3928 71.1874L88.2101 64.7059ZM88.1068 64.8415C88.0991 64.8521 88.1107 64.836 88.125 64.8168C88.1412 64.7949 88.1714 64.7547 88.2113 64.7044L96.3916 71.1889C96.441 71.1265 96.4806 71.074 96.506 71.0398C96.5294 71.0082 96.5501 70.9797 96.5514 70.9779L88.1068 64.8415ZM88.207 64.7081L88.2069 64.7083L96.4513 71.1111L96.4515 71.1109L88.207 64.7081ZM88.2072 64.7079L88.207 64.7081L96.4515 71.1109L96.4516 71.1107L88.2072 64.7079ZM88.2073 64.7077L88.2072 64.7079L96.4516 71.1107L96.4518 71.1105L88.2073 64.7077ZM88.1246 64.8171L88.1128 64.8333L96.5463 70.9849L96.5582 70.9686L88.1246 64.8171ZM88.2363 64.669C88.196 64.7207 88.1635 64.7643 88.142 64.7934L96.5408 70.9923C96.5276 71.0101 96.5035 71.0425 96.4719 71.0831L88.2363 64.669ZM89.8204 61.3791C89.4772 62.6592 88.9371 63.7714 88.2403 64.6639L96.4679 71.0883C98.1382 68.9491 99.2476 66.5273 99.9031 64.0822L89.8204 61.3791ZM90.1993 59.1304C90.14 59.9038 90.0129 60.6607 89.8202 61.3798L99.9032 64.0815C100.271 62.7074 100.501 61.3115 100.607 59.929L90.1993 59.1304ZM83.4881 43.792C87.9338 48.2152 90.6027 53.8776 90.1993 59.13L100.607 59.9294C101.316 50.7006 96.7011 42.2129 90.8507 36.392L83.4881 43.792ZM78.1466 39.2734C80.0623 40.6654 81.8524 42.1646 83.4882 43.7921L90.8506 36.392C88.7883 34.3402 86.5787 32.497 84.2829 30.8288L78.1466 39.2734ZM75.8377 37.6872C76.6293 38.2031 77.3996 38.7306 78.1466 39.2734L84.2829 30.8287C83.377 30.1705 82.4597 29.5431 81.538 28.9423L75.8377 37.6872ZM74.636 36.6046L74.6361 36.6048L82.7397 30.0246L82.7395 30.0245L74.636 36.6046ZM69.505 34.0443C71.6984 35.1644 73.8199 36.3717 75.8375 37.6869L81.538 28.9422C79.1668 27.3964 76.7204 26.008 74.2527 24.7478L69.505 34.0443ZM69.0808 33.8298C69.234 33.9069 69.3707 33.9757 69.5048 34.0442L74.253 24.7479C74.086 24.6626 73.9211 24.5797 73.7725 24.5049L69.0808 33.8298ZM69.0836 33.8312L69.084 33.8314L73.7693 24.5033L73.7688 24.503L69.0836 33.8312ZM69.0561 33.8174L69.0808 33.8298L73.7715 24.5044L73.7468 24.492L69.0561 33.8174ZM71.855 19.4082C69.5271 21.5415 67.5972 24.2718 66.4832 27.4074L76.3196 30.9019C76.8052 29.5351 77.7037 28.2074 78.9076 27.1041L71.855 19.4082ZM74.0657 17.5692C73.4397 18.0625 72.6329 18.6951 71.8545 19.4087L78.9081 27.1037C79.3516 26.6971 79.849 26.3021 80.5266 25.7681L74.0657 17.5692ZM76.0424 15.8876C75.5557 16.3857 74.9691 16.8572 74.0657 17.5692L80.5266 25.7681C81.34 25.1272 82.4693 24.2465 83.5084 23.1832L76.0424 15.8876ZM76.269 15.769C76.3227 15.5636 76.3895 15.476 76.3615 15.5182C76.3486 15.5377 76.3188 15.5797 76.2642 15.645C76.2097 15.7102 76.1375 15.7903 76.0426 15.8874L83.5082 23.1834C84.4175 22.253 85.78 20.6589 86.3681 18.4098L76.269 15.769ZM77.1529 18.2583C76.5812 17.7411 76.3436 17.1572 76.257 16.7704C76.1728 16.3943 76.1925 16.0616 76.2693 15.7681L86.3679 18.4108C86.9565 16.1616 86.7183 12.8357 84.1564 10.5177L77.1529 18.2583ZM80.5549 19.2172C80.774 18.9803 80.9142 18.8376 81.0264 18.7369C81.1501 18.6259 81.1077 18.6877 80.9106 18.7898C80.7081 18.8946 80.119 19.1562 79.2622 19.1056C78.3075 19.0493 77.5742 18.6395 77.1532 18.2586L84.156 10.5174C83.0173 9.48729 81.5536 8.78402 79.877 8.68509C78.2982 8.59194 76.9957 9.06172 76.1097 9.52061C74.5021 10.3533 73.3084 11.6788 72.8934 12.1272L80.5549 19.2172ZM77.5291 23.0318C78.4413 21.6845 79.4536 20.4074 80.5552 19.2168L72.8931 12.1275C71.43 13.7088 70.09 15.4 68.885 17.18L77.5291 23.0318ZM74.0094 29.8656C74.9078 27.4561 76.0915 25.1554 77.5291 23.032L68.8851 17.1798C66.9782 19.9964 65.4143 23.0382 64.2285 26.2188L74.0094 29.8656ZM71.5202 23.4042L71.3506 23.324L66.8872 32.7603L67.0568 32.8405L71.5202 23.4042ZM71.5281 23.408L71.5273 23.4076L67.0497 32.8372L67.0505 32.8376L71.5281 23.408ZM71.5163 23.4024L71.5158 23.4022L67.0628 32.8434L67.0633 32.8436L71.5163 23.4024ZM72.0398 23.6511C71.8607 23.5652 71.6829 23.4812 71.5205 23.4044L67.0591 32.8416C67.2259 32.9205 67.3773 32.9921 67.5257 33.0633L72.0398 23.6511ZM72.3118 23.7829C72.2258 23.7409 72.1348 23.6967 72.0407 23.6515L67.5248 33.0628C67.59 33.0941 67.658 33.1271 67.7309 33.1627L72.3118 23.7829ZM67.5263 33.0636C67.5911 33.0947 67.6587 33.1275 67.7315 33.163L72.3113 23.7826C72.2251 23.7405 72.1336 23.6961 72.0391 23.6508L67.5263 33.0636ZM67.0802 32.8517C67.2399 32.9272 67.3842 32.9955 67.5256 33.0633L72.0398 23.6511C71.8678 23.5687 71.6972 23.488 71.5418 23.4146L67.0802 32.8517ZM66.8865 32.7601L67.0787 32.851L71.5433 23.4153L71.3512 23.3243L66.8865 32.7601ZM65.5701 32.1439C66.0084 32.3463 66.446 32.5513 66.8835 32.7587L71.3542 23.3258C70.8885 23.1051 70.4193 22.8852 69.9463 22.6668L65.5701 32.1439ZM63.4538 24.4536L63.4538 24.4536L72.0627 30.3572L72.0628 30.3571L63.4538 24.4536ZM64.7294 31.7596C65.0137 31.8884 65.2934 32.0161 65.5697 32.1437L69.9469 22.6671C69.642 22.5262 69.3386 22.3878 69.0387 22.2519L64.7294 31.7596ZM61.1997 51.4173C63.3691 43.7872 66.7641 36.5038 71.2083 29.9284L62.5598 24.083C57.4981 31.572 53.6321 39.8643 51.159 48.5625L61.1997 51.4173ZM60.9483 52.3265C61.0288 52.0259 61.1127 51.7231 61.1996 51.4175L51.159 48.5622C51.0597 48.9116 50.9612 49.2666 50.8648 49.6266L60.9483 52.3265ZM60.902 52.5068C60.9249 52.4163 60.937 52.3686 60.9481 52.3274L50.8651 49.6257C50.8312 49.7521 50.8007 49.8731 50.781 49.9513L60.902 52.5068ZM60.883 52.5799L60.883 52.5799L50.8 49.8781L50.8 49.8782L60.883 52.5799ZM60.883 52.5799L60.883 52.5799L50.8 49.8782L50.8 49.8782L60.883 52.5799ZM60.883 52.58L60.883 52.5799L50.8 49.8782L50.8 49.8782L60.883 52.58ZM60.883 52.58L60.883 52.58L50.8 49.8782L50.8 49.8783L60.883 52.58ZM60.883 52.58L60.883 52.58L50.8 49.8783L50.8 49.8783L60.883 52.58ZM60.883 52.5801L60.883 52.58L50.8 49.8783L50.8 49.8783L60.883 52.5801ZM60.883 52.5801L60.883 52.5801L50.8 49.8783L50.8 49.8784L60.883 52.5801ZM60.8829 52.5801L60.883 52.5801L50.8 49.8784L50.7999 49.8784L60.8829 52.5801ZM60.8829 52.5802L60.8829 52.5801L50.7999 49.8784L50.7999 49.8784L60.8829 52.5802ZM60.8829 52.5802L60.8829 52.5802L50.7999 49.8784L50.7999 49.8785L60.8829 52.5802ZM60.8829 52.5802L60.8829 52.5802L50.7999 49.8785L50.7999 49.8785L60.8829 52.5802ZM60.8829 52.5803L60.8829 52.5802L50.7999 49.8785L50.7999 49.8785L60.8829 52.5803ZM60.8495 52.7127C60.8694 52.6359 60.8881 52.5618 60.9019 52.5073L50.7809 49.9515C50.7657 50.0117 50.7555 50.0522 50.7457 50.0898L60.8495 52.7127ZM59.0855 47.2027C58.7128 47.0078 58.3458 46.8295 57.9914 46.6654L53.6038 56.1371C53.8374 56.2453 54.0512 56.3499 54.2487 56.4532L59.0855 47.2027ZM61.7086 53.1788L61.7086 53.1788L51.6256 50.4771L51.6256 50.4771L61.7086 53.1788ZM71.4018 57.808C68.2055 54.2981 64.3041 49.9325 59.0863 47.2031L54.2479 56.4528C57.5465 58.1782 60.2424 61.0573 63.6838 64.8364L71.4018 57.808ZM71.6484 58.0996L71.6484 58.0995L63.4372 64.5449L63.4373 64.5449L71.6484 58.0996ZM78.117 64.4445C75.8337 62.6562 73.7847 60.4247 71.4019 57.8081L63.6838 64.8365C65.9592 67.3351 68.5883 70.2408 71.6803 72.6625L78.117 64.4445ZM79.0645 65.1391C78.736 64.9134 78.4192 64.6812 78.1166 64.4442L71.6807 72.6628C72.1608 73.0388 72.6527 73.3988 73.152 73.742L79.0645 65.1391Z" fill="#331400" mask="url(#path-1-outside-1_1_4300)"/>
<path d="M70.425 28.6706C77.1083 40.9831 79.1383 55.7664 76.1083 69.4406C76.3859 69.6314 76.6682 69.8162 76.955 69.9939C80.0479 56.427 78.2306 41.7803 71.879 29.396C71.7201 29.3149 71.5608 29.2348 71.4015 29.1547C72.2013 26.9034 73.6155 24.8744 75.3814 23.2562C76.797 21.9585 78.4333 20.9089 79.7755 19.5354C80.457 18.8381 81.072 18.0327 81.3187 17.0894C81.5656 16.146 81.3777 15.0421 80.6547 14.388C79.2194 13.0896 77.6817 14.6376 76.7242 15.6722C75.4419 17.0581 74.2657 18.5422 73.2072 20.1059C71.5349 22.5759 70.1611 25.2471 69.119 28.0422C69.3405 28.1471 69.5625 28.2515 69.7829 28.3572C69.9974 28.4601 70.211 28.566 70.425 28.6706Z" fill="#331400"/>
<path d="M67.8858 74.8986C62.9743 71.9029 62.3313 65.4866 59.0861 61.1626C57.2649 58.7359 54.7322 57.3607 51.7526 56.8639C49.8952 56.5542 48.0093 56.5244 46.1332 56.4259C43.7518 56.3009 41.4344 55.9344 39.1312 55.3207C32.6362 53.5902 26.9506 49.8554 23.7843 44.0521C23.1432 43.4195 22.5737 42.7145 22.1045 41.9226C22.0845 41.8888 22.0671 41.8541 22.0475 41.8201C16.6475 47.0708 12.8877 53.9982 11.4842 61.4013C9.93593 69.569 11.2594 78.252 15.1708 85.5875C17.333 89.6424 20.2316 93.2537 22.6536 97.1591C25.0755 101.064 27.0586 105.435 27.0686 110.03C27.0699 110.629 27.4302 111.108 27.9232 111.328C28.4055 111.571 29.004 111.548 29.469 111.172C33.0392 108.278 37.6808 107.057 42.2385 106.47C46.7963 105.883 51.4268 105.851 55.9365 104.968C64.0947 103.37 71.6643 98.9154 77.0212 92.5584C80.8379 88.029 83.5051 82.5546 84.7969 76.776C82.7514 77.3141 80.6178 77.5305 78.4907 77.4945C74.9752 77.4353 70.9361 76.7591 67.8858 74.8986Z" fill="#B25B1B"/>
<path d="M85.1664 74.8964C85.2273 74.5399 85.2819 74.1823 85.3324 73.8242C85.3671 73.5785 85.4 73.3327 85.4297 73.0863C85.4517 72.9031 85.4723 72.7196 85.4915 72.536C85.5069 72.3897 85.5208 72.2432 85.5343 72.0967C85.2121 72.1524 84.8873 72.195 84.5595 72.2169C81.8727 72.3959 79.271 71.4289 76.955 69.9939C76.6681 69.8163 76.3859 69.6315 76.1083 69.4406C75.6944 69.1562 75.29 68.8601 74.8987 68.5536C68.3812 63.4489 63.9136 55.6185 56.6671 51.8281C56.382 51.6789 56.0916 51.5375 55.7976 51.4013C55.6327 51.3249 55.4684 51.2474 55.3006 51.1753C50.4335 49.0838 45.0487 49.1519 39.7018 48.9313C39.3642 48.9173 39.0267 48.902 38.6894 48.8852C36.9971 48.8006 35.3121 48.672 33.6522 48.4203C30.0465 47.8736 26.3246 46.5587 23.7841 44.0522C26.9504 49.8554 32.6359 53.5902 39.1309 55.3208C41.4343 55.9344 43.7515 56.3009 46.1329 56.426C48.0091 56.5245 49.8949 56.5542 51.7524 56.864C54.732 57.3608 57.2646 58.736 59.0858 61.1626C62.331 65.4867 62.9741 71.903 67.8856 74.8987C70.9359 76.7591 74.975 77.4353 78.4904 77.4948C80.6175 77.5307 82.7512 77.3142 84.7966 76.7762C84.7974 76.7726 84.7982 76.7689 84.799 76.7652C84.9178 76.2331 85.024 75.6983 85.1197 75.1616C85.1356 75.0731 85.1512 74.9849 85.1664 74.8964Z" fill="#A34E17"/>
<path d="M48.1631 37.1643C44.6429 40.5279 41.6353 44.514 39.7019 48.9312C45.0487 49.1518 50.4336 49.0837 55.3006 51.1752C55.4685 51.2473 55.6327 51.3248 55.7976 51.4012C55.8343 51.2598 55.8688 51.1175 55.9066 50.9765C55.995 50.6463 56.0862 50.3173 56.1793 49.9898C58.5006 41.8257 62.1312 34.0379 66.884 27.0057C66.0633 26.6336 65.2367 26.2691 64.4045 25.9133C58.591 29.1052 52.9195 32.6179 48.1631 37.1643Z" fill="#D88737"/>
<path d="M92.3542 67.8761C93.5377 66.3603 94.3625 64.5933 94.8618 62.7307C95.1422 61.6841 95.3207 60.6077 95.4034 59.5297C95.9595 52.2891 92.3175 45.2141 87.1695 40.092C85.3204 38.2524 83.3206 36.5812 81.2148 35.0511C88.1 44.5409 92.0152 56.158 92.3542 67.8761Z" fill="#D88737"/>
<path d="M30.2334 30.5372C38.6375 25.9593 48.2063 23.1619 57.7543 23.34C55.2248 22.4738 52.6612 21.7336 50.0784 21.1735C42.7812 19.5911 35.1495 20.0159 28.6091 23.8817C27.4867 24.5453 26.427 25.315 25.4645 26.1959C22.2864 29.1045 20.3468 33.612 20.7684 37.784C21.5557 36.8518 22.4205 35.9835 23.3474 35.1791C25.44 33.3633 27.8255 31.8492 30.2334 30.5372Z" fill="#D88737"/>
<path d="M60.8069 24.4519C50.4614 23.5344 39.8777 26.3621 30.6869 31.3701C28.3172 32.661 25.9886 34.1423 23.9689 35.8954C22.8606 36.8573 21.8508 37.9037 20.9704 39.0417C21.186 40.0062 21.5404 40.9405 22.0473 41.8202C22.0669 41.8542 22.0842 41.8889 22.1042 41.9227C22.5735 42.7145 23.1429 43.4195 23.7841 44.0522C26.3246 46.5587 30.0465 47.8736 33.6522 48.4203C35.3121 48.672 36.997 48.8006 38.6894 48.8851C40.6765 44.1941 43.8272 39.9968 47.5078 36.4788C52.1789 32.0152 57.676 28.558 63.2905 25.4445C62.4674 25.103 61.6394 24.7718 60.8069 24.4519Z" fill="#D88737"/>
<path d="M76.955 69.994C79.271 71.4289 81.8728 72.396 84.5596 72.2169C84.8873 72.1951 85.2121 72.1526 85.5343 72.0968C87.7613 71.7117 89.8307 70.5434 91.4323 68.9237C91.292 56.0915 86.7599 43.292 78.6878 33.3146C76.4934 31.8841 74.2095 30.5863 71.8789 29.3961C78.2306 41.7804 80.0479 56.427 76.955 69.994Z" fill="#D88737"/>
<path d="M57.0915 50.2493C56.9996 50.5728 56.9096 50.8971 56.8226 51.222C56.7686 51.4235 56.7187 51.6259 56.667 51.828C63.9136 55.6185 68.3812 63.4488 74.8986 68.5536C75.29 68.86 75.6943 69.1561 76.1082 69.4406C79.1381 55.7664 77.1081 40.9831 70.4249 28.6706C70.2109 28.566 69.9973 28.4601 69.7826 28.3572C69.5622 28.2515 69.3402 28.1472 69.1188 28.0422C68.6672 27.8282 68.2137 27.6158 67.7581 27.4054C63.0182 34.3879 59.3995 42.1317 57.0915 50.2493Z" fill="#D88737"/>
<path d="M30.687 31.3701C39.8778 26.3622 50.4615 23.5344 60.807 24.4519C59.7955 24.0633 58.778 23.6906 57.7542 23.34C48.2063 23.1619 38.6374 25.9594 30.2333 30.5371C27.8255 31.8492 25.4399 33.3632 23.3473 35.179C22.4205 35.9834 21.5557 36.8516 20.7684 37.784C20.8111 38.2074 20.8779 38.6272 20.9705 39.0417C21.8509 37.9037 22.8607 36.8573 23.969 35.8954C25.9887 34.1423 28.3173 32.661 30.687 31.3701Z" fill="#331400"/>
<path d="M47.5078 36.4787C43.8272 39.9967 40.6766 44.194 38.6894 48.885C39.0266 48.9019 39.3642 48.9173 39.7018 48.9312C41.6353 44.5139 44.6429 40.5279 48.1631 37.1643C52.9195 32.6179 58.5909 29.1052 64.4045 25.9134C64.0342 25.7552 63.6629 25.5988 63.2905 25.4444C57.676 28.5579 52.179 32.0151 47.5078 36.4787Z" fill="#331400"/>
<path d="M91.4322 68.9236C91.7393 68.6131 92.0311 68.288 92.3015 67.9467C92.3197 67.9237 92.336 67.8993 92.3541 67.8761C92.0152 56.1581 88.0999 44.5409 81.2148 35.0511C80.3883 34.4505 79.5444 33.8731 78.6877 33.3146C86.7599 43.2919 91.2919 56.0915 91.4322 68.9236Z" fill="#331400"/>
<path d="M56.1792 49.9899C56.0861 50.3174 55.9949 50.6463 55.9065 50.9766C55.8687 51.1176 55.8342 51.2599 55.7975 51.4013C56.0915 51.5375 56.3819 51.679 56.6671 51.828C56.7188 51.626 56.7686 51.4236 56.8226 51.2221C56.9097 50.8971 56.9996 50.5728 57.0916 50.2494C59.3995 42.1317 63.0182 34.3879 67.7582 27.4054C67.4676 27.2712 67.1761 27.1382 66.884 27.0058C62.131 34.038 58.5005 41.8258 56.1792 49.9899Z" fill="#331400"/>
<path d="M27.0661 40.8677C27.4137 42.5289 28.8214 43.7991 30.3747 44.4835C31.5721 45.011 32.9138 45.2591 34.2048 45.0445C35.7278 44.7913 37.0814 43.9202 38.2501 42.9113C40.9222 40.605 42.8192 37.5488 45.1513 34.899C46.4986 33.3684 47.9956 31.9698 49.614 30.7295C50.1252 30.3379 50.7633 29.8518 50.8582 29.1664C50.948 28.5168 50.4446 27.956 49.864 27.7434C49.2576 27.5213 48.5834 27.6 47.9586 27.6893C44.096 28.2403 40.3176 28.9968 36.6948 30.4966C35.4057 31.0302 34.1622 31.6797 32.9855 32.4328C32.1541 32.9602 31.3559 33.5407 30.604 34.1759C30.232 34.4901 29.8713 34.8178 29.5236 35.159C28.7516 35.9167 28.0365 36.7511 27.5566 37.7204C27.0765 38.6897 26.8446 39.8088 27.0661 40.8677Z" fill="white"/>
<path d="M46.2172 90.0506C46.0703 90.597 46.2746 91.2213 46.716 91.5752C47.1788 91.9462 47.8221 92.0031 48.4113 91.9334C49.157 91.8454 49.9488 91.6201 50.5774 91.1797C51.2849 90.6841 51.6652 89.8296 51.4165 89.1698C51.2847 88.82 50.976 88.5249 50.4453 88.3672C49.6644 88.1352 48.8105 88.1578 48.0426 88.4292C47.3051 88.6895 46.4319 89.2516 46.2172 90.0506Z" fill="#A34E17"/>
<path d="M58.8754 88.8388C57.7735 88.5116 56.5684 88.5433 55.4845 88.9262C54.4439 89.2939 53.2115 90.087 52.9084 91.2147C52.7012 91.9856 52.9893 92.8666 53.6123 93.3662C54.2656 93.89 55.1733 93.97 56.005 93.8718C57.0575 93.7474 58.1748 93.4295 59.0619 92.8081C60.0603 92.1087 60.5971 90.9025 60.2463 89.9715C60.0601 89.4778 59.6244 89.0614 58.8754 88.8388Z" fill="#A34E17"/>
<path d="M48.4564 97.2691C47.1664 96.886 45.7557 96.9233 44.4871 97.3714C43.2688 97.8018 41.8263 98.7303 41.4715 100.05C41.2288 100.953 41.5663 101.984 42.2953 102.569C43.06 103.182 44.1228 103.276 45.0962 103.161C46.3283 103.015 47.6362 102.643 48.6747 101.915C49.8434 101.097 50.4718 99.6849 50.061 98.595C49.8432 98.0171 49.3331 97.5296 48.4564 97.2691Z" fill="#A34E17"/>
<path d="M70.8728 86.6601C69.5827 86.277 68.1721 86.3143 66.9034 86.7624C65.685 87.1928 64.2427 88.1214 63.8877 89.4413C63.6451 90.3438 63.9826 91.3751 64.7117 91.9598C65.4764 92.5729 66.539 92.6666 67.5124 92.5517C68.7445 92.406 70.0526 92.034 71.0911 91.3065C72.2598 90.4877 72.888 89.0759 72.4774 87.986C72.2596 87.4081 71.7495 86.9206 70.8728 86.6601Z" fill="#A34E17"/>
<path d="M56.222 97.9599C55.3276 97.6942 54.3493 97.72 53.4696 98.0307C52.6248 98.3292 51.6244 98.973 51.3783 99.8884C51.2101 100.514 51.4441 101.23 51.9497 101.635C52.48 102.06 53.2169 102.125 53.8919 102.045C54.7464 101.944 55.6535 101.686 56.3735 101.182C57.184 100.614 57.6198 99.6351 57.3348 98.8792C57.1837 98.4785 56.83 98.1405 56.222 97.9599Z" fill="#A34E17"/>
<path d="M43.515 95.1434C43.8334 95.3988 44.2758 95.4377 44.6811 95.3899C45.1941 95.3293 45.7386 95.1742 46.171 94.8714C46.6576 94.5305 46.9191 93.9427 46.7482 93.4889C46.6575 93.2484 46.4452 93.0454 46.0801 92.9369C45.543 92.7775 44.9557 92.7928 44.4275 92.9794C43.9202 93.1586 43.3197 93.5453 43.172 94.0948C43.071 94.4707 43.2113 94.8999 43.515 95.1434Z" fill="#A34E17"/>
<path d="M63.4631 92.3164C62.9262 92.1568 62.3389 92.1724 61.8105 92.3589C61.3033 92.5382 60.7027 92.9248 60.555 93.4743C60.454 93.85 60.5945 94.2793 60.8982 94.5229C61.2165 94.7781 61.659 94.8173 62.0642 94.7692C62.5772 94.7087 63.1218 94.5538 63.5541 94.2509C64.0408 93.9101 64.3024 93.3222 64.1313 92.8685C64.0406 92.6277 63.8282 92.4248 63.4631 92.3164Z" fill="#A34E17"/>
<path d="M61.9312 96.2909C61.3941 96.1314 60.8068 96.1469 60.2786 96.3334C59.7712 96.5126 59.1708 96.8992 59.023 97.4488C58.9221 97.8244 59.0624 98.2538 59.366 98.4974C59.6844 98.7526 60.1268 98.7917 60.5322 98.7437C61.0451 98.6831 61.5896 98.5282 62.022 98.2253C62.5087 97.8844 62.7702 97.2965 62.5993 96.8429C62.5087 96.6022 62.2963 96.3993 61.9312 96.2909Z" fill="#A34E17"/>
<path d="M51.219 92.8188C50.6819 92.6592 50.0946 92.6748 49.5664 92.8614C49.0591 93.0406 48.4586 93.4272 48.3109 93.9767C48.2099 94.3524 48.3503 94.7817 48.6538 95.0253C48.9723 95.2805 49.4147 95.3196 49.82 95.2716C50.333 95.2111 50.8775 95.0562 51.3099 94.7533C51.7964 94.4124 52.058 93.8245 51.8871 93.3709C51.7964 93.1301 51.5841 92.9272 51.219 92.8188Z" fill="#A34E17"/>
<path d="M53.1154 96.5646C53.4061 96.3609 53.5624 96.0098 53.4602 95.7385C53.406 95.5948 53.2791 95.4735 53.061 95.4087C52.7401 95.3133 52.3892 95.3227 52.0735 95.4342C51.7704 95.5412 51.4116 95.7722 51.3233 96.1005C51.263 96.3251 51.3468 96.5816 51.5282 96.7271C51.7185 96.8796 51.9829 96.903 52.2251 96.8744C52.5316 96.8382 52.857 96.7456 53.1154 96.5646Z" fill="#A34E17"/>
<path d="M56.0775 96.7596C56.4588 96.7146 56.8634 96.5994 57.1847 96.3743C57.5463 96.1211 57.7407 95.6841 57.6137 95.3469C57.5462 95.168 57.3885 95.0172 57.1171 94.9367C56.7179 94.8181 56.2816 94.8297 55.889 94.9683C55.5121 95.1015 55.0657 95.3888 54.9559 95.7971C54.8809 96.0765 54.9853 96.3955 55.2109 96.5764C55.4476 96.7662 55.7763 96.7951 56.0775 96.7596Z" fill="#A34E17"/>
<path d="M66.1317 95.2667C65.8608 95.1863 65.5644 95.1941 65.2979 95.2881C65.042 95.3786 64.7389 95.5737 64.6645 95.8508C64.6135 96.0405 64.6845 96.2572 64.8376 96.38C64.9982 96.5087 65.2215 96.5284 65.426 96.5043C65.6848 96.4737 65.9595 96.3955 66.1777 96.2427C66.4231 96.0708 66.5551 95.7742 66.4688 95.5452C66.4232 95.4238 66.3159 95.3214 66.1317 95.2667Z" fill="#A34E17"/>
<path d="M62.0778 88.7153C62.3233 88.5432 62.4554 88.2466 62.3691 88.0176C62.3233 87.8962 62.2162 87.7938 62.032 87.7392C61.761 87.6586 61.4646 87.6664 61.1982 87.7607C60.9422 87.8511 60.6392 88.046 60.5646 88.3233C60.5137 88.513 60.5845 88.7296 60.7377 88.8524C60.8983 88.9812 61.1216 89.0009 61.3261 88.9767C61.5849 88.9462 61.8596 88.8681 62.0778 88.7153Z" fill="#A34E17"/>
<path d="M43.5294 58.6137C47.9599 57.0749 52.1 58.1489 53.6163 58.8782L48.9 68.6832C47.72 68.1156 46.8906 68.4055 46.6233 68.6214C42.1841 63.6025 41.5245 57.7585 41.7496 55.4639C41.9822 56.6243 43.0331 58.0473 43.5294 58.6137Z" fill="white"/>
<path d="M59.9216 66.4985C58.3583 62.0766 54.9349 59.5125 53.4186 58.7831L48.7023 68.5881C49.8822 69.1557 50.1735 69.9847 50.1717 70.3282C56.8637 70.6636 61.8411 67.5311 63.4933 65.9229C62.4415 66.4655 60.6739 66.5327 59.9216 66.4985Z" fill="white"/>
<path d="M42.3047 65.6128C42.8443 66.6517 44.0994 68.9056 44.8031 69.61C42.9496 69.3368 39.8552 68.155 42.3047 65.6128Z" fill="white"/>
<path d="M41.4253 63.5634C41.0846 62.9117 40.7734 61.2 40.6604 60.4256C38.3946 61.2125 36.7829 64.1369 36.2602 65.5007C31.4972 75.4028 27.4111 79.1335 25.9635 79.761L31.3464 78.6619L31.907 84.3292L36.3023 83.1382L37.213 92.7588L38.395 90.3016L39.3192 84.5894C40.6637 78.6914 38.0622 74.5277 36.5934 73.1831L41.2384 72.8762L42.1869 71.2232C37.2562 68.8515 39.6247 65.1285 41.4253 63.5634Z" fill="white"/>
<path d="M55.2166 71.8237C54.0682 72.0506 51.5238 72.4768 50.5343 72.3668C51.9046 73.6443 54.7595 75.3242 55.2166 71.8237Z" fill="white"/>
<path d="M57.3667 71.2315C58.0885 71.0908 59.6201 70.2654 60.2956 69.8704C61.0951 72.1318 59.8164 75.2164 59.0772 76.476C54.3142 86.3781 53.9501 91.8991 54.3634 93.4218L51.8621 88.5303L47.0845 91.6298L45.2714 87.4525L37.1867 92.7462L38.3687 90.289L42.2544 86.0013C46.0232 81.2694 50.8999 80.7028 52.8673 81.011L50.2076 77.1905L50.907 75.4177C55.8377 77.7894 57.2679 73.6151 57.3667 71.2315Z" fill="white"/>
<path d="M43.8982 72.6788C44.8398 70.7213 46.9816 70.565 47.9348 70.7316L41.3657 84.3883C43.0846 80.8148 41.4531 76.6877 40.4225 75.0709L42.8718 74.8126L43.8982 72.6788Z" fill="white"/>
<path d="M48.9281 75.0982C49.8696 73.1407 48.6548 71.3699 47.9298 70.7292L41.3607 84.3859C43.0796 80.8124 47.3223 79.5109 49.2288 79.3068L47.9017 77.2321L48.9281 75.0982Z" fill="white"/>
</svg>
