<svg width="107" height="125" viewBox="0 0 107 125" fill="none" xmlns="http://www.w3.org/2000/svg">
<mask id="path-1-outside-1_1_6561" maskUnits="userSpaceOnUse" x="-7.04479" y="-7.34847" width="120.631" height="139.015" fill="black">
<rect fill="white" x="-7.04479" y="-7.34847" width="120.631" height="139.015"/>
<path fill-rule="evenodd" clip-rule="evenodd" d="M76.2713 69.4406C76.5489 69.6314 76.8312 69.8162 77.118 69.9939L77.118 69.994C76.8312 69.8163 76.5489 69.6315 76.2713 69.4406C75.8574 69.1562 75.453 68.8602 75.0617 68.5536C72.374 66.4485 70.0349 63.8799 67.7058 61.3222C64.3869 57.6777 61.0883 54.0554 56.8301 51.8281C56.545 51.6789 56.2546 51.5375 55.9606 51.4013L55.8826 51.3651L55.8823 51.365C55.7436 51.3005 55.6049 51.236 55.4636 51.1753C51.1684 49.3296 46.47 49.1657 41.7503 49.0011L41.7492 49.001C41.1212 48.9791 40.4928 48.9572 39.8648 48.9313C39.5272 48.9173 39.1897 48.902 38.8524 48.8852C37.1601 48.8006 35.4751 48.672 33.8152 48.4203C30.2098 47.8737 26.4881 46.5589 23.9476 44.0527L23.9474 44.0523C26.4879 46.5587 30.2098 47.8736 33.8153 48.4203C35.4753 48.6719 37.1602 48.8006 38.8525 48.8851L38.8526 48.8851C39.1898 48.9019 39.5273 48.9173 39.865 48.9312L39.865 48.9311C40.4931 48.9571 41.1217 48.979 41.7499 49.0009L41.751 49.0009C46.4705 49.1656 51.1686 49.3295 55.4636 51.1751C55.6049 51.2358 55.7435 51.3003 55.8821 51.3647L55.9606 51.4012C55.9754 51.344 55.9899 51.2867 56.0044 51.2294C56.0257 51.1449 56.0471 51.0604 56.0696 50.9764C56.1581 50.6462 56.2492 50.3173 56.3423 49.9898C58.6636 41.8256 62.2942 34.0378 67.047 27.0056C66.2263 26.6336 65.3997 26.269 64.5675 25.9133L64.5674 25.9133C64.1972 25.7551 63.826 25.5988 63.4537 25.4444L63.4536 25.4444C62.6305 25.1029 61.8025 24.7717 60.97 24.4519C59.9585 24.0633 58.941 23.6906 57.9173 23.34L57.9173 23.34C55.3878 22.4738 52.8242 21.7336 50.2414 21.1735C42.9442 19.5911 35.3125 20.0159 28.7721 23.8817C27.6497 24.5453 26.5899 25.315 25.6275 26.1959C22.4494 29.1045 20.5098 33.612 20.9313 37.784L20.9314 37.784C20.9742 38.2074 21.0409 38.6272 21.1335 39.0416C21.3492 40.0062 21.7036 40.9405 22.2105 41.8201C16.8104 47.0708 13.0507 53.9982 11.6472 61.4012C10.0989 69.569 11.4224 78.252 15.3337 85.5874C16.6427 88.0422 18.2215 90.3343 19.8011 92.6275L19.8011 92.6276C20.8308 94.1225 21.8608 95.6179 22.8165 97.159C25.2385 101.064 27.2216 105.435 27.2316 110.03C27.2329 110.629 27.5931 111.107 28.0862 111.328C28.5684 111.571 29.167 111.548 29.632 111.172C33.2021 108.278 37.8437 107.057 42.4015 106.47C44.1995 106.238 46.0089 106.093 47.8177 105.948C50.5939 105.725 53.3688 105.503 56.0994 104.968C64.2576 103.37 71.8272 98.9153 77.1842 92.5584C81.0009 88.0289 83.668 82.5546 84.9598 76.776L84.9597 76.776L84.962 76.7653C85.0808 76.2331 85.187 75.6983 85.2827 75.1616C85.2986 75.0731 85.3142 74.9849 85.3294 74.8964C85.3903 74.5399 85.4449 74.1823 85.4955 73.8242C85.5301 73.5785 85.5631 73.3327 85.5927 73.0863C85.6147 72.9031 85.6353 72.7196 85.6546 72.536C85.6699 72.3897 85.6838 72.2432 85.6973 72.0967C87.9244 71.7117 89.9938 70.5433 91.5953 68.9236C91.9023 68.613 92.1942 68.288 92.4645 67.9466C92.4741 67.9346 92.4831 67.9221 92.4922 67.9097L92.4923 67.9095L92.4925 67.9093L92.4926 67.9091L92.5045 67.8928C92.5086 67.8872 92.5129 67.8816 92.5172 67.8761C93.7008 66.3603 94.5255 64.5933 95.0248 62.7307C95.3053 61.6841 95.4837 60.6077 95.5664 59.5297C96.1225 52.2891 92.4805 45.2141 87.3325 40.092C85.4834 38.2524 83.4836 36.5812 81.3779 35.0511C80.5514 34.4505 79.7076 33.8731 78.851 33.3147L78.8508 33.3146C76.6564 31.884 74.3725 30.5862 72.042 29.396C71.8915 29.3192 71.7406 29.2433 71.5897 29.1674L71.5892 29.1671L71.5645 29.1547C72.3643 26.9034 73.7785 24.8744 75.5444 23.2562C76.1553 22.6961 76.8074 22.1823 77.4592 21.6686C78.3177 20.9922 79.1756 20.3161 79.9385 19.5354C80.62 18.8381 81.235 18.0327 81.4817 17.0894C81.7286 16.146 81.5407 15.0421 80.8177 14.388C79.3824 13.0896 77.8447 14.6376 76.8872 15.6722C75.6049 17.0581 74.4287 18.5422 73.3702 20.1059C71.6979 22.5759 70.3241 25.2471 69.282 28.0422L69.4516 28.1224L69.4524 28.1228L69.4529 28.123C69.6175 28.2008 69.7821 28.2787 69.9458 28.3572C70.0255 28.3954 70.105 28.434 70.1845 28.4728C70.105 28.434 70.0255 28.3954 69.9458 28.3572C69.7891 28.2821 69.6316 28.2076 69.4741 28.1331L69.2819 28.0422C68.8303 27.8282 68.3769 27.6158 67.9213 27.4054L67.9214 27.4054C67.6308 27.2711 67.3393 27.1381 67.0472 27.0057C62.2942 34.0379 58.6637 41.8257 56.3424 49.9899C56.2493 50.3174 56.1581 50.6463 56.0697 50.9765C56.0472 51.0604 56.0259 51.1447 56.0046 51.229L56.0046 51.229L56.0046 51.2291L56.0046 51.2291L56.0046 51.2291L56.0046 51.2292L56.0045 51.2292L56.0045 51.2292L56.0045 51.2293L56.0045 51.2293L56.0045 51.2293L56.0045 51.2294L56.0045 51.2294C55.99 51.2867 55.9755 51.3441 55.9607 51.4012C56.2546 51.5374 56.5451 51.6789 56.8302 51.8279L56.8302 51.828C61.0884 54.0554 64.387 57.6777 67.7059 61.3222L67.7059 61.3223C70.035 63.8799 72.3741 66.4485 75.0617 68.5535C75.4531 68.86 75.8575 69.1561 76.2713 69.4406Z"/>
</mask>
<path fill-rule="evenodd" clip-rule="evenodd" d="M76.2713 69.4406C76.5489 69.6314 76.8312 69.8162 77.118 69.9939L77.118 69.994C76.8312 69.8163 76.5489 69.6315 76.2713 69.4406C75.8574 69.1562 75.453 68.8602 75.0617 68.5536C72.374 66.4485 70.0349 63.8799 67.7058 61.3222C64.3869 57.6777 61.0883 54.0554 56.8301 51.8281C56.545 51.6789 56.2546 51.5375 55.9606 51.4013L55.8826 51.3651L55.8823 51.365C55.7436 51.3005 55.6049 51.236 55.4636 51.1753C51.1684 49.3296 46.47 49.1657 41.7503 49.0011L41.7492 49.001C41.1212 48.9791 40.4928 48.9572 39.8648 48.9313C39.5272 48.9173 39.1897 48.902 38.8524 48.8852C37.1601 48.8006 35.4751 48.672 33.8152 48.4203C30.2098 47.8737 26.4881 46.5589 23.9476 44.0527L23.9474 44.0523C26.4879 46.5587 30.2098 47.8736 33.8153 48.4203C35.4753 48.6719 37.1602 48.8006 38.8525 48.8851L38.8526 48.8851C39.1898 48.9019 39.5273 48.9173 39.865 48.9312L39.865 48.9311C40.4931 48.9571 41.1217 48.979 41.7499 49.0009L41.751 49.0009C46.4705 49.1656 51.1686 49.3295 55.4636 51.1751C55.6049 51.2358 55.7435 51.3003 55.8821 51.3647L55.9606 51.4012C55.9754 51.344 55.9899 51.2867 56.0044 51.2294C56.0257 51.1449 56.0471 51.0604 56.0696 50.9764C56.1581 50.6462 56.2492 50.3173 56.3423 49.9898C58.6636 41.8256 62.2942 34.0378 67.047 27.0056C66.2263 26.6336 65.3997 26.269 64.5675 25.9133L64.5674 25.9133C64.1972 25.7551 63.826 25.5988 63.4537 25.4444L63.4536 25.4444C62.6305 25.1029 61.8025 24.7717 60.97 24.4519C59.9585 24.0633 58.941 23.6906 57.9173 23.34L57.9173 23.34C55.3878 22.4738 52.8242 21.7336 50.2414 21.1735C42.9442 19.5911 35.3125 20.0159 28.7721 23.8817C27.6497 24.5453 26.5899 25.315 25.6275 26.1959C22.4494 29.1045 20.5098 33.612 20.9313 37.784L20.9314 37.784C20.9742 38.2074 21.0409 38.6272 21.1335 39.0416C21.3492 40.0062 21.7036 40.9405 22.2105 41.8201C16.8104 47.0708 13.0507 53.9982 11.6472 61.4012C10.0989 69.569 11.4224 78.252 15.3337 85.5874C16.6427 88.0422 18.2215 90.3343 19.8011 92.6275L19.8011 92.6276C20.8308 94.1225 21.8608 95.6179 22.8165 97.159C25.2385 101.064 27.2216 105.435 27.2316 110.03C27.2329 110.629 27.5931 111.107 28.0862 111.328C28.5684 111.571 29.167 111.548 29.632 111.172C33.2021 108.278 37.8437 107.057 42.4015 106.47C44.1995 106.238 46.0089 106.093 47.8177 105.948C50.5939 105.725 53.3688 105.503 56.0994 104.968C64.2576 103.37 71.8272 98.9153 77.1842 92.5584C81.0009 88.0289 83.668 82.5546 84.9598 76.776L84.9597 76.776L84.962 76.7653C85.0808 76.2331 85.187 75.6983 85.2827 75.1616C85.2986 75.0731 85.3142 74.9849 85.3294 74.8964C85.3903 74.5399 85.4449 74.1823 85.4955 73.8242C85.5301 73.5785 85.5631 73.3327 85.5927 73.0863C85.6147 72.9031 85.6353 72.7196 85.6546 72.536C85.6699 72.3897 85.6838 72.2432 85.6973 72.0967C87.9244 71.7117 89.9938 70.5433 91.5953 68.9236C91.9023 68.613 92.1942 68.288 92.4645 67.9466C92.4741 67.9346 92.4831 67.9221 92.4922 67.9097L92.4923 67.9095L92.4925 67.9093L92.4926 67.9091L92.5045 67.8928C92.5086 67.8872 92.5129 67.8816 92.5172 67.8761C93.7008 66.3603 94.5255 64.5933 95.0248 62.7307C95.3053 61.6841 95.4837 60.6077 95.5664 59.5297C96.1225 52.2891 92.4805 45.2141 87.3325 40.092C85.4834 38.2524 83.4836 36.5812 81.3779 35.0511C80.5514 34.4505 79.7076 33.8731 78.851 33.3147L78.8508 33.3146C76.6564 31.884 74.3725 30.5862 72.042 29.396C71.8915 29.3192 71.7406 29.2433 71.5897 29.1674L71.5892 29.1671L71.5645 29.1547C72.3643 26.9034 73.7785 24.8744 75.5444 23.2562C76.1553 22.6961 76.8074 22.1823 77.4592 21.6686C78.3177 20.9922 79.1756 20.3161 79.9385 19.5354C80.62 18.8381 81.235 18.0327 81.4817 17.0894C81.7286 16.146 81.5407 15.0421 80.8177 14.388C79.3824 13.0896 77.8447 14.6376 76.8872 15.6722C75.6049 17.0581 74.4287 18.5422 73.3702 20.1059C71.6979 22.5759 70.3241 25.2471 69.282 28.0422L69.4516 28.1224L69.4524 28.1228L69.4529 28.123C69.6175 28.2008 69.7821 28.2787 69.9458 28.3572C70.0255 28.3954 70.105 28.434 70.1845 28.4728C70.105 28.434 70.0255 28.3954 69.9458 28.3572C69.7891 28.2821 69.6316 28.2076 69.4741 28.1331L69.2819 28.0422C68.8303 27.8282 68.3769 27.6158 67.9213 27.4054L67.9214 27.4054C67.6308 27.2711 67.3393 27.1381 67.0472 27.0057C62.2942 34.0379 58.6637 41.8257 56.3424 49.9899C56.2493 50.3174 56.1581 50.6463 56.0697 50.9765C56.0472 51.0604 56.0259 51.1447 56.0046 51.229L56.0046 51.229L56.0046 51.2291L56.0046 51.2291L56.0046 51.2291L56.0046 51.2292L56.0045 51.2292L56.0045 51.2292L56.0045 51.2293L56.0045 51.2293L56.0045 51.2293L56.0045 51.2294L56.0045 51.2294C55.99 51.2867 55.9755 51.3441 55.9607 51.4012C56.2546 51.5374 56.5451 51.6789 56.8302 51.8279L56.8302 51.828C61.0884 54.0554 64.387 57.6777 67.7059 61.3222L67.7059 61.3223C70.035 63.8799 72.3741 66.4485 75.0617 68.5535C75.4531 68.86 75.8575 69.1561 76.2713 69.4406Z" fill="#A34E17"/>
<path d="M77.118 69.9939L81.7464 72.4062L83.9862 68.109L79.8667 65.5569L77.118 69.9939ZM76.2713 69.4406L79.228 65.1394L79.2276 65.1391L76.2713 69.4406ZM77.118 69.994L74.3694 74.4309L79.1482 77.3913L81.7464 72.4063L77.118 69.994ZM76.2713 69.4406L79.2279 65.1395L79.2274 65.1391L76.2713 69.4406ZM75.0617 68.5536L78.2802 64.4447L78.28 64.4446L75.0617 68.5536ZM67.7058 61.3222L71.5648 57.808L71.5648 57.808L67.7058 61.3222ZM56.8301 51.8281L54.4108 56.4528L54.411 56.4529L56.8301 51.8281ZM55.9606 51.4013L53.7618 56.1349L53.7669 56.1373L55.9606 51.4013ZM55.8826 51.3651L53.6363 56.0763L53.66 56.0876L53.6838 56.0987L55.8826 51.3651ZM55.8823 51.365L58.1286 46.6537L58.1057 46.6428L58.0827 46.6321L55.8823 51.365ZM55.4636 51.1753L57.5244 46.38L57.5242 46.3799L55.4636 51.1753ZM41.7503 49.0011L41.9322 43.7849L41.923 43.7846L41.9138 43.7843L41.7503 49.0011ZM41.7492 49.001L41.5673 54.2172L41.5765 54.2175L41.5857 54.2178L41.7492 49.001ZM39.8648 48.9313L39.6489 54.1462L39.6497 54.1462L39.8648 48.9313ZM38.8524 48.8852L38.5919 54.098L38.5922 54.098L38.8524 48.8852ZM33.8152 48.4203L33.0327 53.5807L33.0329 53.5807L33.8152 48.4203ZM23.9476 44.0527L19.3681 46.5566L19.7361 47.2297L20.2822 47.7684L23.9476 44.0527ZM23.9474 44.0523L27.613 40.3368L19.3679 46.5562L23.9474 44.0523ZM33.8153 48.4203L33.0329 53.5806L33.0331 53.5807L33.8153 48.4203ZM38.8525 48.8851L38.5921 54.0979L42.208 54.2786L43.6438 50.9551L38.8525 48.8851ZM38.8526 48.8851L39.1135 43.6722L35.4973 43.4912L34.0612 46.8151L38.8526 48.8851ZM39.865 48.9312L39.65 54.1461L43.2227 54.2933L44.6503 51.015L39.865 48.9312ZM39.865 48.9311L40.0801 43.7162L36.5073 43.5688L35.0797 46.8474L39.865 48.9311ZM41.7499 49.0009L41.568 54.2171L41.5772 54.2174L41.5864 54.2177L41.7499 49.0009ZM41.751 49.0009L41.933 43.7848L41.9237 43.7845L41.9145 43.7842L41.751 49.0009ZM55.4636 51.1751L53.403 55.9704L53.4031 55.9705L55.4636 51.1751ZM55.8821 51.3647L53.6816 56.0975L53.6832 56.0983L55.8821 51.3647ZM55.9606 51.4012L53.7617 56.1347L59.4395 58.7723L61.0125 52.7126L55.9606 51.4012ZM56.0044 51.2294L50.9439 49.9515L50.9439 49.9516L56.0044 51.2294ZM56.3423 49.9898L61.3626 51.4174L61.3627 51.4172L56.3423 49.9898ZM67.047 27.0056L71.3713 29.9283L74.8339 24.8051L69.202 22.252L67.047 27.0056ZM64.5675 25.9133L66.6188 21.114L64.2878 20.1177L62.0636 21.3338L64.5675 25.9133ZM64.5674 25.9133L62.5161 30.7127L64.8471 31.709L67.0713 30.4929L64.5674 25.9133ZM63.4537 25.4444L65.453 20.6232L63.1377 19.663L60.9407 20.8698L63.4537 25.4444ZM63.4536 25.4444L61.4537 30.2654L63.7693 31.226L65.9665 30.019L63.4536 25.4444ZM60.97 24.4519L62.8419 19.5797L62.8417 19.5797L60.97 24.4519ZM57.9173 23.34L55.3076 18.8199L45.3674 24.5589L56.2262 28.2778L57.9173 23.34ZM57.9173 23.34L60.527 27.8601L70.4677 22.1208L59.6082 18.4021L57.9173 23.34ZM50.2414 21.1735L49.1353 26.2743L49.1353 26.2743L50.2414 21.1735ZM28.7721 23.8817L26.1164 19.3886L26.116 19.3888L28.7721 23.8817ZM25.6275 26.1959L29.1513 30.0461L29.1514 30.0461L25.6275 26.1959ZM20.9313 37.784L15.7384 38.3088L17.2688 53.4537L25.3536 40.5562L20.9313 37.784ZM20.9314 37.784L26.1243 37.2595L24.5947 22.1131L16.5091 35.0118L20.9314 37.784ZM21.1335 39.0416L26.2272 37.9029L26.2271 37.9029L21.1335 39.0416ZM22.2105 41.8201L25.849 45.5622L28.7597 42.7319L26.7327 39.2143L22.2105 41.8201ZM11.6472 61.4012L6.51918 60.4291L6.51916 60.4292L11.6472 61.4012ZM15.3337 85.5874L10.7282 88.0431L10.7282 88.0432L15.3337 85.5874ZM19.8011 92.6275L15.5027 95.5882L15.5487 95.6551L15.5968 95.7204L19.8011 92.6275ZM19.8011 92.6276L24.0995 89.667L24.0535 89.6001L24.0054 89.5348L19.8011 92.6276ZM22.8165 97.159L18.3809 99.9098L18.3809 99.9098L22.8165 97.159ZM27.2316 110.03L22.0122 110.042L22.0122 110.042L27.2316 110.03ZM28.0862 111.328L30.4361 106.668L30.3277 106.613L30.2169 106.563L28.0862 111.328ZM29.632 111.172L32.9175 115.227L32.9181 115.227L29.632 111.172ZM42.4015 106.47L41.7349 101.293L41.7347 101.293L42.4015 106.47ZM47.8177 105.948L48.2351 111.151L48.2351 111.151L47.8177 105.948ZM56.0994 104.968L57.1024 110.09L57.1024 110.09L56.0994 104.968ZM77.1842 92.5584L81.1753 95.9217L81.1754 95.9216L77.1842 92.5584ZM84.9598 76.776L90.0534 77.9146L91.8772 69.7562L83.7464 71.6996L84.9598 76.776ZM84.9597 76.776L79.8563 75.6823L78.1215 83.7769L86.1731 81.8523L84.9597 76.776ZM84.962 76.7653L79.868 75.6283L79.8632 75.6499L79.8586 75.6716L84.962 76.7653ZM85.2827 75.1616L80.1457 74.2384L80.1445 74.2452L85.2827 75.1616ZM85.3294 74.8964L90.4736 75.7786L90.4741 75.7761L85.3294 74.8964ZM85.4955 73.8242L90.6636 74.5538L90.6636 74.5535L85.4955 73.8242ZM85.5927 73.0863L90.7746 73.7102L90.7748 73.7087L85.5927 73.0863ZM85.6546 72.536L90.8454 73.0809L90.8455 73.0795L85.6546 72.536ZM85.6973 72.0967L84.8081 66.9537L80.8662 67.6352L80.4999 71.6187L85.6973 72.0967ZM91.5953 68.9236L95.3067 72.5934L95.3069 72.5931L91.5953 68.9236ZM92.4645 67.9466L88.3744 64.7044L88.3732 64.7059L92.4645 67.9466ZM92.4922 67.9097L88.37 64.7083L88.3189 64.7741L88.2699 64.8415L92.4922 67.9097ZM92.4923 67.9095L88.3701 64.7081L92.4923 67.9095ZM92.4925 67.9093L96.6147 71.1107L92.4925 67.9093ZM92.4926 67.9091L96.6148 71.1105L96.6631 71.0484L96.7094 70.9849L92.4926 67.9091ZM92.5045 67.8928L88.3051 64.7934L88.2964 64.8052L88.2877 64.8171L92.5045 67.8928ZM92.5172 67.8761L88.4033 64.6639L88.3994 64.669L92.5172 67.8761ZM95.0248 62.7307L100.066 64.0822L100.066 64.0815L95.0248 62.7307ZM95.5664 59.5297L90.3624 59.13L90.3624 59.1304L95.5664 59.5297ZM87.3325 40.092L91.0138 36.392L91.0137 36.392L87.3325 40.092ZM81.3779 35.0511L84.446 30.8288L84.446 30.8287L81.3779 35.0511ZM78.851 33.3147L74.7992 36.6048L75.3151 37.2402L76.0008 37.6872L78.851 33.3147ZM78.8508 33.3146L82.9026 30.0245L82.3867 29.3891L81.7011 28.9422L78.8508 33.3146ZM72.042 29.396L69.6679 34.0442L69.6681 34.0443L72.042 29.396ZM71.5897 29.1674L73.9356 24.5049L73.9323 24.5033L71.5897 29.1674ZM71.5892 29.1671L69.2439 33.8298L69.2466 33.8312L71.5892 29.1671ZM71.5645 29.1547L66.6463 27.4074L65.1044 31.7477L69.2192 33.8174L71.5645 29.1547ZM75.5444 23.2562L79.0707 27.1041L79.0712 27.1037L75.5444 23.2562ZM77.4592 21.6686L80.6897 25.7681L80.6897 25.7681L77.4592 21.6686ZM79.9385 19.5354L76.2057 15.8874L76.2055 15.8876L79.9385 19.5354ZM81.4817 17.0894L76.4324 15.7681L76.4321 15.769L81.4817 17.0894ZM80.8177 14.388L84.3194 10.5177L84.3191 10.5174L80.8177 14.388ZM76.8872 15.6722L73.0565 12.1272L73.0562 12.1275L76.8872 15.6722ZM73.3702 20.1059L77.6922 23.032L77.6922 23.0318L73.3702 20.1059ZM69.282 28.0422L64.3915 26.2188L62.7168 30.7106L67.0503 32.7603L69.282 28.0422ZM69.4516 28.1224L71.6904 23.4076L71.6833 23.4042L69.4516 28.1224ZM69.4524 28.1228L67.2136 32.8376L67.2259 32.8434L69.4524 28.1228ZM69.4529 28.123L71.6836 23.4044L71.6794 23.4024L69.4529 28.123ZM69.9458 28.3572L72.2038 23.6515L72.2029 23.6511L69.9458 28.3572ZM70.1845 28.4728L67.8945 33.163L72.4749 23.7829L70.1845 28.4728ZM69.9458 28.3572L67.6887 33.0633L67.6894 33.0636L69.9458 28.3572ZM69.4741 28.1331L67.2418 32.851L67.2433 32.8517L69.4741 28.1331ZM69.2819 28.0422L67.0466 32.7587L67.0496 32.7601L69.2819 28.0422ZM67.9213 27.4054L63.6168 24.4536L60.1206 29.5522L65.7332 32.1439L67.9213 27.4054ZM67.9214 27.4054L72.2258 30.3571L75.7217 25.2591L70.11 22.6671L67.9214 27.4054ZM67.0472 27.0057L69.2018 22.2519L65.1896 20.4334L62.7229 24.083L67.0472 27.0057ZM56.3424 49.9899L61.3627 51.4175L61.3628 51.4173L56.3424 49.9899ZM56.0697 50.9765L61.1111 52.3274L61.1114 52.3265L56.0697 50.9765ZM56.0046 51.229L61.0461 52.5799L61.0559 52.5434L61.0651 52.5068L56.0046 51.229ZM56.0046 51.229L61.0461 52.5799L56.0046 51.229ZM56.0046 51.2291L50.9631 49.8782L56.0046 51.2291ZM56.0046 51.2291L50.9631 49.8782L56.0046 51.2291ZM56.0046 51.2292L61.0461 52.58L61.0461 52.58L56.0046 51.2292ZM56.0045 51.2292L50.963 49.8784L50.963 49.8784L56.0045 51.2292ZM56.0045 51.2293L61.046 52.5801L56.0045 51.2293ZM56.0045 51.2293L61.046 52.5802L56.0045 51.2293ZM56.0045 51.2293L50.963 49.8785L50.963 49.8785L56.0045 51.2293ZM56.0045 51.2294L61.046 52.5802L56.0045 51.2294ZM56.0045 51.2294L50.963 49.8785L50.9532 49.915L50.944 49.9515L56.0045 51.2294ZM55.9607 51.4012L50.9088 50.0898L49.8143 54.3062L53.7669 56.1371L55.9607 51.4012ZM56.8302 51.8279L61.8717 53.1788L62.9538 49.1401L59.2486 47.2027L56.8302 51.8279ZM56.8302 51.828L51.7887 50.4771L50.7067 54.5152L54.411 56.4528L56.8302 51.828ZM67.7059 61.3222L71.8115 58.0995L71.6935 57.9493L71.5649 57.808L67.7059 61.3222ZM67.7059 61.3223L63.6003 64.5449L63.7183 64.6952L63.8469 64.8365L67.7059 61.3223ZM75.0617 68.5535L71.8434 72.6625L71.8438 72.6628L75.0617 68.5535ZM79.8667 65.5569C79.6538 65.4251 79.4409 65.2858 79.228 65.1394L73.3147 73.7417C73.6569 73.977 74.0085 74.2073 74.3694 74.4308L79.8667 65.5569ZM81.7464 72.4063L81.7464 72.4062L72.4896 67.5815L72.4896 67.5816L81.7464 72.4063ZM73.3147 73.7418C73.6569 73.977 74.0085 74.2074 74.3694 74.4309L79.8666 65.557C79.6538 65.4252 79.4409 65.2859 79.2279 65.1395L73.3147 73.7418ZM71.8433 72.6625C72.3241 73.0391 72.8162 73.3992 73.3152 73.7421L79.2274 65.1391C78.8986 64.9132 78.582 64.6812 78.2802 64.4447L71.8433 72.6625ZM63.8468 64.8364C66.1221 67.3351 68.7513 70.2408 71.8434 72.6626L78.28 64.4446C75.9967 62.6562 73.9477 60.4247 71.5648 57.808L63.8468 64.8364ZM54.411 56.4529C57.7095 58.1783 60.4053 61.0573 63.8468 64.8364L71.5648 57.808C68.3685 54.2981 64.4671 49.9325 59.2493 47.2032L54.411 56.4529ZM53.7669 56.1373C54.0011 56.2457 54.2143 56.35 54.4108 56.4528L59.2495 47.2033C58.8758 47.0078 58.5082 46.8293 58.1542 46.6654L53.7669 56.1373ZM53.6838 56.0987L53.7618 56.1349L58.1594 46.6677L58.0814 46.6315L53.6838 56.0987ZM53.636 56.0762L53.6363 56.0763L58.1289 46.6539L58.1286 46.6537L53.636 56.0762ZM53.4027 55.9705C53.4622 55.9961 53.532 56.0281 53.682 56.0978L58.0827 46.6321C57.9552 46.5729 57.7475 46.4759 57.5244 46.38L53.4027 55.9705ZM41.5684 54.2172C46.4724 54.3883 50.1602 54.5771 53.4029 55.9706L57.5242 46.3799C52.1766 44.082 46.4677 43.9431 41.9322 43.7849L41.5684 54.2172ZM41.5857 54.2178L41.5868 54.2178L41.9138 43.7843L41.9127 43.7843L41.5857 54.2178ZM39.6497 54.1462C40.297 54.1729 40.942 54.1954 41.5673 54.2172L41.9312 43.7849C41.3004 43.7629 40.6885 43.7415 40.08 43.7164L39.6497 54.1462ZM38.5922 54.098C38.9452 54.1156 39.2975 54.1316 39.6489 54.1462L40.0808 43.7164C39.7569 43.703 39.4341 43.6884 39.1126 43.6723L38.5922 54.098ZM33.0329 53.5807C34.9392 53.8697 36.8195 54.0095 38.5919 54.098L39.1128 43.6723C37.5007 43.5918 36.0109 43.4742 34.5974 43.26L33.0329 53.5807ZM20.2822 47.7684C23.926 51.363 28.8852 52.9518 33.0327 53.5807L34.5976 43.26C31.5344 42.7955 29.0503 41.7549 27.6131 40.3371L20.2822 47.7684ZM19.3679 46.5562L19.3681 46.5566L28.5272 41.5489L28.5269 41.5484L19.3679 46.5562ZM34.5978 43.2599C31.5344 42.7954 29.0502 41.7547 27.613 40.3368L20.2818 47.7678C23.9256 51.3626 28.8851 52.9517 33.0329 53.5806L34.5978 43.2599ZM39.113 43.6723C37.5008 43.5917 36.0111 43.4742 34.5976 43.2599L33.0331 53.5807C34.9394 53.8697 36.8196 54.0094 38.5921 54.0979L39.113 43.6723ZM34.0612 46.8151L34.0612 46.8151L43.6438 50.9551L43.6439 50.955L34.0612 46.8151ZM40.0799 43.7163C39.7568 43.7029 39.4346 43.6883 39.1135 43.6722L38.5916 54.0979C38.9449 54.1155 39.2978 54.1316 39.65 54.1461L40.0799 43.7163ZM35.0797 46.8474L35.0796 46.8474L44.6503 51.015L44.6503 51.0149L35.0797 46.8474ZM41.9319 43.7847C41.301 43.7627 40.6889 43.7414 40.0801 43.7162L39.6498 54.146C40.2973 54.1728 40.9424 54.1953 41.568 54.2171L41.9319 43.7847ZM41.9145 43.7842L41.9134 43.7841L41.5864 54.2177L41.5875 54.2177L41.9145 43.7842ZM57.5242 46.3798C52.1769 44.0819 46.4682 43.943 41.933 43.7848L41.569 54.2171C46.4728 54.3882 50.1604 54.5771 53.403 55.9704L57.5242 46.3798ZM58.0827 46.6319C57.9553 46.5727 57.7475 46.4757 57.5241 46.3797L53.4031 55.9705C53.4622 55.9959 53.5317 56.0278 53.6816 56.0975L58.0827 46.6319ZM58.1595 46.6676L58.081 46.6312L53.6832 56.0983L53.7617 56.1347L58.1595 46.6676ZM50.9439 49.9516C50.9287 50.0117 50.9185 50.0522 50.9087 50.0898L61.0125 52.7126C61.0324 52.6359 61.0511 52.5618 61.0649 52.5073L50.9439 49.9516ZM51.0281 49.6256C50.9942 49.7521 50.9637 49.8732 50.9439 49.9515L61.0649 52.5073C61.0878 52.4167 61.0999 52.3688 61.1111 52.3273L51.0281 49.6256ZM51.322 48.5622C51.2225 48.9121 51.1242 49.2668 51.0281 49.6256L61.1111 52.3273C61.1919 52.0256 61.2759 51.7224 61.3626 51.4174L51.322 48.5622ZM62.7227 24.083C57.6612 31.5719 53.7951 39.8642 51.322 48.5624L61.3627 51.4172C63.5321 43.7871 66.9272 36.5038 71.3713 29.9283L62.7227 24.083ZM62.5161 30.7126C63.3118 31.0527 64.1038 31.402 64.892 31.7593L69.202 22.252C68.3488 21.8652 67.4876 21.4853 66.6188 21.114L62.5161 30.7126ZM67.0713 30.4929L67.0713 30.4928L62.0636 21.3338L62.0635 21.3338L67.0713 30.4929ZM61.4543 30.2656C61.809 30.4127 62.1629 30.5617 62.5161 30.7127L66.6187 21.114C66.2315 20.9485 65.843 20.7849 65.453 20.6232L61.4543 30.2656ZM65.9665 30.019L65.9666 30.0189L60.9407 20.8698L60.9407 20.8698L65.9665 30.019ZM59.0982 29.324C59.8861 29.6267 60.6713 29.9408 61.4537 30.2654L65.4535 20.6234C64.5896 20.265 63.7189 19.9167 62.8419 19.5797L59.0982 29.324ZM56.2262 28.2778C57.1806 28.6047 58.1374 28.9549 59.0983 29.3241L62.8417 19.5797C61.7797 19.1717 60.7014 18.7766 59.6084 18.4022L56.2262 28.2778ZM55.3077 18.8199L55.3076 18.8199L60.5269 27.8601L60.527 27.8601L55.3077 18.8199ZM49.1353 26.2743C51.4885 26.7846 53.8551 27.4658 56.2264 28.2778L59.6082 18.4021C56.9205 17.4817 54.1599 16.6826 51.3475 16.0727L49.1353 26.2743ZM31.4279 28.3749C36.5184 25.366 42.7115 24.8813 49.1353 26.2743L51.3475 16.0727C43.1768 14.3009 34.1066 14.6658 26.1164 19.3886L31.4279 28.3749ZM29.1514 30.0461C29.824 29.4305 30.5877 28.8716 31.4282 28.3747L26.116 19.3888C24.7116 20.219 23.3559 21.1996 22.1037 22.3457L29.1514 30.0461ZM26.1242 37.2593C25.8887 34.9278 27.0326 31.9852 29.1513 30.0461L22.1037 22.3456C17.8662 26.2238 15.1309 32.2963 15.7384 38.3088L26.1242 37.2593ZM16.5091 35.0118L16.509 35.0119L25.3536 40.5562L25.3537 40.5561L16.5091 35.0118ZM26.2271 37.9029C26.1818 37.7002 26.1472 37.4859 26.1243 37.2595L15.7385 38.3084C15.8011 38.9288 15.8999 39.5542 16.0399 40.1804L26.2271 37.9029ZM26.7327 39.2143C26.5012 38.8125 26.3329 38.3759 26.2272 37.9029L16.0399 40.1804C16.3654 41.6364 16.9059 43.0685 17.6882 44.426L26.7327 39.2143ZM16.7752 62.3734C17.9761 56.0391 21.208 50.0748 25.849 45.5622L18.572 38.0781C12.4129 44.0668 8.12526 51.9574 6.51918 60.4291L16.7752 62.3734ZM19.9393 83.1317C16.5876 76.8459 15.4484 69.3723 16.7752 62.3733L6.51916 60.4292C4.74931 69.7657 6.25716 79.658 10.7282 88.0431L19.9393 83.1317ZM24.0994 89.6669C22.4916 87.3325 21.0857 85.2816 19.9392 83.1316L10.7282 88.0432C12.1997 90.8027 13.9515 93.3361 15.5027 95.5882L24.0994 89.6669ZM24.0054 89.5348L24.0053 89.5347L15.5968 95.7204L15.5969 95.7205L24.0054 89.5348ZM27.2522 94.4082C26.2193 92.7427 25.1172 91.1445 24.0995 89.667L15.5028 95.5883C16.5444 97.1005 17.5023 98.493 18.3809 99.9098L27.2522 94.4082ZM32.4509 110.019C32.4378 103.976 29.8528 98.6017 27.2521 94.4082L18.3809 99.9098C20.6242 103.527 22.0054 106.894 22.0122 110.042L32.4509 110.019ZM30.2169 106.563C31.4166 107.1 32.4472 108.371 32.4509 110.019L22.0122 110.042C22.0186 112.887 23.7697 115.115 25.9555 116.093L30.2169 106.563ZM26.3464 107.116C27.6264 106.079 29.2622 106.076 30.4361 106.668L25.7362 115.988C27.8747 117.067 30.7075 117.017 32.9175 115.227L26.3464 107.116ZM41.7347 101.293C36.8405 101.924 31.0405 103.312 26.3458 107.117L32.9181 115.227C35.3638 113.245 38.847 112.19 43.0683 111.646L41.7347 101.293ZM47.4003 100.745C45.6124 100.889 43.6779 101.043 41.7349 101.293L43.0681 111.646C44.7211 111.434 46.4053 111.297 48.2351 111.151L47.4003 100.745ZM55.0965 99.8459C52.7048 100.314 50.2263 100.519 47.4003 100.745L48.2351 111.151C50.9616 110.932 54.0328 110.691 57.1024 110.09L55.0965 99.8459ZM73.193 89.195C68.6026 94.6423 62.0873 98.477 55.0964 99.8459L57.1024 110.09C66.428 108.264 75.0518 103.188 81.1753 95.9217L73.193 89.195ZM79.8662 75.6373C78.7522 80.6206 76.4528 85.3264 73.1929 89.1951L81.1754 95.9216C85.5489 90.7315 88.5839 84.4885 90.0534 77.9146L79.8662 75.6373ZM86.1731 81.8523L86.1732 81.8523L83.7464 71.6996L83.7463 71.6997L86.1731 81.8523ZM79.8586 75.6716L79.8563 75.6823L90.0632 77.8697L90.0655 77.859L79.8586 75.6716ZM80.1445 74.2452C80.0607 74.7149 79.969 75.1759 79.868 75.6283L90.056 77.9022C90.1926 77.2904 90.3133 76.6817 90.421 76.078L80.1445 74.2452ZM80.1851 74.0142C80.1729 74.0859 80.1598 74.1602 80.1457 74.2384L90.4198 76.0848C90.4375 75.9861 90.4556 75.8838 90.4736 75.7786L80.1851 74.0142ZM80.3274 73.0946C80.2821 73.415 80.2352 73.7212 80.1847 74.0168L90.4741 75.7761C90.5454 75.3586 90.6077 74.9496 90.6636 74.5538L80.3274 73.0946ZM80.4108 72.4625C80.3866 72.6635 80.3587 72.8725 80.3273 73.0949L90.6636 74.5535C90.7015 74.2846 90.7395 74.0019 90.7746 73.7102L80.4108 72.4625ZM80.4637 71.9911C80.447 72.1505 80.4293 72.3081 80.4106 72.4639L90.7748 73.7087C90.8001 73.498 90.8236 73.2887 90.8454 73.0809L80.4637 71.9911ZM80.4999 71.6187C80.4873 71.7559 80.4756 71.8777 80.4636 71.9925L90.8455 73.0795C90.8641 72.9018 90.8804 72.7306 90.8947 72.5747L80.4999 71.6187ZM87.8839 65.2539C86.9527 66.1956 85.8393 66.7754 84.8081 66.9537L86.5865 77.2398C90.0094 76.648 93.0348 74.891 95.3067 72.5934L87.8839 65.2539ZM88.3732 64.7059C88.2359 64.8792 88.0738 65.0618 87.8836 65.2541L95.3069 72.5931C95.7308 72.1643 96.1524 71.6967 96.5559 71.1874L88.3732 64.7059ZM88.2699 64.8415C88.2622 64.8521 88.2738 64.836 88.2881 64.8168C88.3043 64.7949 88.3345 64.7547 88.3744 64.7044L96.5547 71.1889C96.6041 71.1265 96.6436 71.074 96.6691 71.0398C96.6925 71.0082 96.7132 70.9797 96.7145 70.9779L88.2699 64.8415ZM88.3701 64.7081L88.37 64.7083L96.6144 71.1111L96.6145 71.1109L88.3701 64.7081ZM88.3703 64.7079L88.3701 64.7081L96.6145 71.1109L96.6147 71.1107L88.3703 64.7079ZM88.3704 64.7077L88.3703 64.7079L96.6147 71.1107L96.6148 71.1105L88.3704 64.7077ZM88.2877 64.8171L88.2759 64.8333L96.7094 70.9849L96.7213 70.9686L88.2877 64.8171ZM88.3994 64.669C88.3591 64.7207 88.3266 64.7643 88.3051 64.7934L96.7039 70.9923C96.6907 71.0101 96.6666 71.0425 96.635 71.0831L88.3994 64.669ZM89.9835 61.3791C89.6403 62.6592 89.1002 63.7714 88.4033 64.6639L96.631 71.0883C98.3013 68.9491 99.4106 66.5273 100.066 64.0822L89.9835 61.3791ZM90.3624 59.1304C90.303 59.9038 90.176 60.6607 89.9833 61.3798L100.066 64.0815C100.435 62.7074 100.664 61.3115 100.77 59.929L90.3624 59.1304ZM83.6512 43.792C88.0969 48.2152 90.7658 53.8776 90.3624 59.13L100.77 59.9294C101.479 50.7006 96.8642 42.2129 91.0138 36.392L83.6512 43.792ZM78.3097 39.2734C80.2254 40.6654 82.0155 42.1646 83.6513 43.7921L91.0137 36.392C88.9514 34.3402 86.7417 32.497 84.446 30.8288L78.3097 39.2734ZM76.0008 37.6872C76.7924 38.2031 77.5627 38.7306 78.3097 39.2734L84.446 30.8287C83.5401 30.1705 82.6228 29.5431 81.7011 28.9423L76.0008 37.6872ZM74.7991 36.6046L74.7992 36.6048L82.9027 30.0246L82.9026 30.0245L74.7991 36.6046ZM69.6681 34.0443C71.8615 35.1644 73.9829 36.3717 76.0006 37.6869L81.7011 28.9422C79.3299 27.3964 76.8835 26.008 74.4158 24.7478L69.6681 34.0443ZM69.2439 33.8298C69.3971 33.9069 69.5338 33.9757 69.6679 34.0442L74.416 24.7479C74.2491 24.6626 74.0841 24.5797 73.9356 24.5049L69.2439 33.8298ZM69.2466 33.8312L69.2471 33.8314L73.9323 24.5033L73.9319 24.503L69.2466 33.8312ZM69.2192 33.8174L69.2439 33.8298L73.9346 24.5044L73.9099 24.492L69.2192 33.8174ZM72.018 19.4082C69.6902 21.5415 67.7603 24.2718 66.6463 27.4074L76.4827 30.9019C76.9683 29.5351 77.8668 28.2074 79.0707 27.1041L72.018 19.4082ZM74.2288 17.5692C73.6027 18.0625 72.796 18.6951 72.0176 19.4087L79.0712 27.1037C79.5147 26.6971 80.0121 26.3021 80.6897 25.7681L74.2288 17.5692ZM76.2055 15.8876C75.7188 16.3857 75.1322 16.8572 74.2288 17.5692L80.6897 25.7681C81.5031 25.1272 82.6324 24.2465 83.6715 23.1832L76.2055 15.8876ZM76.4321 15.769C76.4858 15.5636 76.5526 15.476 76.5246 15.5182C76.5116 15.5377 76.4819 15.5797 76.4273 15.645C76.3728 15.7102 76.3006 15.7903 76.2057 15.8874L83.6712 23.1834C84.5805 22.253 85.9431 20.6589 86.5312 18.4098L76.4321 15.769ZM77.3159 18.2583C76.7443 17.7411 76.5067 17.1572 76.4201 16.7704C76.3359 16.3943 76.3556 16.0616 76.4324 15.7681L86.531 18.4108C87.1196 16.1616 86.8814 12.8357 84.3194 10.5177L77.3159 18.2583ZM80.718 19.2172C80.9371 18.9803 81.0773 18.8376 81.1895 18.7369C81.3132 18.6259 81.2707 18.6877 81.0737 18.7898C80.8712 18.8946 80.2821 19.1562 79.4252 19.1056C78.4706 19.0493 77.7373 18.6395 77.3163 18.2586L84.3191 10.5174C83.1804 9.48729 81.7167 8.78402 80.0401 8.68509C78.4613 8.59194 77.1588 9.06172 76.2728 9.52061C74.6652 10.3533 73.4714 11.6788 73.0565 12.1272L80.718 19.2172ZM77.6922 23.0318C78.6044 21.6845 79.6166 20.4074 80.7183 19.2168L73.0562 12.1275C71.5931 13.7088 70.2531 15.4 69.0481 17.18L77.6922 23.0318ZM74.1725 29.8656C75.0709 27.4561 76.2545 25.1554 77.6922 23.032L69.0482 17.1798C67.1413 19.9964 65.5774 23.0382 64.3915 26.2188L74.1725 29.8656ZM71.6833 23.4042L71.5137 23.324L67.0503 32.7603L67.2199 32.8405L71.6833 23.4042ZM71.6912 23.408L71.6904 23.4076L67.2128 32.8372L67.2136 32.8376L71.6912 23.408ZM71.6794 23.4024L71.6789 23.4022L67.2259 32.8434L67.2264 32.8436L71.6794 23.4024ZM72.2029 23.6511C72.0238 23.5652 71.846 23.4812 71.6836 23.4044L67.2222 32.8416C67.389 32.9205 67.5404 32.9921 67.6888 33.0633L72.2029 23.6511ZM72.4749 23.7829C72.3889 23.7409 72.2979 23.6967 72.2038 23.6515L67.6879 33.0628C67.7531 33.0941 67.8211 33.1271 67.894 33.1627L72.4749 23.7829ZM67.6894 33.0636C67.7542 33.0947 67.8218 33.1275 67.8945 33.163L72.4744 23.7826C72.3881 23.7405 72.2967 23.6961 72.2022 23.6508L67.6894 33.0636ZM67.2433 32.8517C67.403 32.9272 67.5473 32.9955 67.6887 33.0633L72.2029 23.6511C72.0309 23.5687 71.8603 23.488 71.7049 23.4146L67.2433 32.8517ZM67.0496 32.7601L67.2418 32.851L71.7064 23.4153L71.5142 23.3243L67.0496 32.7601ZM65.7332 32.1439C66.1715 32.3463 66.6091 32.5513 67.0466 32.7587L71.5173 23.3258C71.0516 23.1051 70.5824 22.8852 70.1094 22.6668L65.7332 32.1439ZM63.6169 24.4536L63.6168 24.4536L72.2258 30.3572L72.2258 30.3571L63.6169 24.4536ZM64.8925 31.7596C65.1768 31.8884 65.4565 32.0161 65.7327 32.1437L70.11 22.6671C69.805 22.5262 69.5017 22.3878 69.2018 22.2519L64.8925 31.7596ZM61.3628 51.4173C63.5322 43.7872 66.9272 36.5038 71.3714 29.9284L62.7229 24.083C57.6612 31.572 53.7952 39.8643 51.3221 48.5625L61.3628 51.4173ZM61.1114 52.3265C61.1919 52.0259 61.2758 51.7231 61.3627 51.4175L51.3221 48.5622C51.2228 48.9116 51.1243 49.2666 51.0279 49.6266L61.1114 52.3265ZM61.0651 52.5068C61.088 52.4163 61.1001 52.3686 61.1111 52.3274L51.0282 49.6257C50.9943 49.7521 50.9638 49.8731 50.9441 49.9513L61.0651 52.5068ZM61.0461 52.5799L61.0461 52.5799L50.9631 49.8781L50.9631 49.8782L61.0461 52.5799ZM61.0461 52.5799L61.0461 52.5799L50.9631 49.8782L50.9631 49.8782L61.0461 52.5799ZM61.0461 52.58L61.0461 52.5799L50.9631 49.8782L50.9631 49.8782L61.0461 52.58ZM61.0461 52.58L61.0461 52.58L50.9631 49.8782L50.9631 49.8783L61.0461 52.58ZM61.0461 52.58L61.0461 52.58L50.9631 49.8783L50.9631 49.8783L61.0461 52.58ZM61.046 52.5801L61.0461 52.58L50.9631 49.8783L50.9631 49.8783L61.046 52.5801ZM61.046 52.5801L61.046 52.5801L50.9631 49.8783L50.963 49.8784L61.046 52.5801ZM61.046 52.5801L61.046 52.5801L50.963 49.8784L50.963 49.8784L61.046 52.5801ZM61.046 52.5802L61.046 52.5801L50.963 49.8784L50.963 49.8784L61.046 52.5802ZM61.046 52.5802L61.046 52.5802L50.963 49.8784L50.963 49.8785L61.046 52.5802ZM61.046 52.5802L61.046 52.5802L50.963 49.8785L50.963 49.8785L61.046 52.5802ZM61.046 52.5803L61.046 52.5802L50.963 49.8785L50.963 49.8785L61.046 52.5803ZM61.0126 52.7127C61.0325 52.6359 61.0512 52.5618 61.065 52.5073L50.944 49.9515C50.9288 50.0117 50.9186 50.0522 50.9088 50.0898L61.0126 52.7127ZM59.2486 47.2027C58.8759 47.0078 58.5088 46.8295 58.1545 46.6654L53.7669 56.1371C54.0004 56.2453 54.2142 56.3499 54.4118 56.4532L59.2486 47.2027ZM61.8717 53.1788L61.8717 53.1788L51.7887 50.4771L51.7887 50.4771L61.8717 53.1788ZM71.5649 57.808C68.3686 54.2981 64.4672 49.9325 59.2493 47.2031L54.411 56.4528C57.7096 58.1782 60.4055 61.0573 63.8469 64.8364L71.5649 57.808ZM71.8115 58.0996L71.8115 58.0995L63.6003 64.5449L63.6003 64.5449L71.8115 58.0996ZM78.2801 64.4445C75.9968 62.6562 73.9478 60.4247 71.5649 57.8081L63.8469 64.8365C66.1223 67.3351 68.7514 70.2408 71.8434 72.6625L78.2801 64.4445ZM79.2276 65.1391C78.8991 64.9134 78.5823 64.6812 78.2797 64.4442L71.8438 72.6628C72.3239 73.0388 72.8158 73.3988 73.3151 73.742L79.2276 65.1391Z" fill="#331400" mask="url(#path-1-outside-1_1_6561)"/>
<path d="M70.5881 28.6706C77.2714 40.9831 79.3014 55.7664 76.2714 69.4406C76.549 69.6314 76.8313 69.8162 77.1181 69.9939C80.211 56.427 78.3937 41.7803 72.042 29.396C71.8832 29.3149 71.7239 29.2348 71.5646 29.1547C72.3644 26.9034 73.7786 24.8744 75.5445 23.2562C76.9601 21.9585 78.5964 20.9089 79.9386 19.5354C80.6201 18.8381 81.2351 18.0327 81.4818 17.0894C81.7286 16.146 81.5408 15.0421 80.8178 14.388C79.3825 13.0896 77.8448 14.6376 76.8873 15.6722C75.605 17.0581 74.4288 18.5422 73.3702 20.1059C71.698 22.5759 70.3242 25.2471 69.2821 28.0422C69.5036 28.1471 69.7255 28.2515 69.9459 28.3572C70.1605 28.4601 70.3741 28.566 70.5881 28.6706Z" fill="#331400"/>
<path d="M68.0489 74.8986C63.1374 71.9029 62.4944 65.4866 59.2492 61.1626C57.428 58.7359 54.8953 57.3607 51.9157 56.8639C50.0582 56.5542 48.1724 56.5244 46.2963 56.4259C43.9149 56.3009 41.5975 55.9344 39.2943 55.3207C32.7993 53.5902 27.1137 49.8554 23.9474 44.0521C23.3062 43.4195 22.7368 42.7145 22.2675 41.9226C22.2475 41.8888 22.2302 41.8541 22.2106 41.8201C16.8106 47.0708 13.0508 53.9982 11.6473 61.4013C10.099 69.569 11.4225 78.252 15.3339 85.5875C17.4961 89.6424 20.3947 93.2537 22.8167 97.1591C25.2386 101.064 27.2217 105.435 27.2317 110.03C27.233 110.629 27.5933 111.108 28.0863 111.328C28.5686 111.571 29.1671 111.548 29.6321 111.172C33.2023 108.278 37.8439 107.057 42.4016 106.47C46.9593 105.883 51.5899 105.851 56.0995 104.968C64.2578 103.37 71.8274 98.9154 77.1843 92.5584C81.001 88.029 83.6682 82.5546 84.96 76.776C82.9145 77.3141 80.7809 77.5305 78.6537 77.4945C75.1383 77.4353 71.0991 76.7591 68.0489 74.8986Z" fill="#B25B1B"/>
<path d="M85.3295 74.8964C85.3904 74.5399 85.445 74.1823 85.4955 73.8242C85.5302 73.5785 85.5631 73.3327 85.5928 73.0863C85.6148 72.9031 85.6354 72.7196 85.6546 72.536C85.6699 72.3897 85.6839 72.2432 85.6973 72.0967C85.3752 72.1524 85.0504 72.195 84.7226 72.2169C82.0358 72.3959 79.4341 71.4289 77.1181 69.9939C76.8312 69.8163 76.549 69.6315 76.2714 69.4406C75.8575 69.1562 75.4531 68.8601 75.0618 68.5536C68.5443 63.4489 64.0767 55.6185 56.8302 51.8281C56.5451 51.6789 56.2547 51.5375 55.9607 51.4013C55.7957 51.3249 55.6315 51.2474 55.4636 51.1753C50.5966 49.0838 45.2118 49.1519 39.8649 48.9313C39.5272 48.9173 39.1897 48.902 38.8524 48.8852C37.1602 48.8006 35.4752 48.672 33.8152 48.4203C30.2096 47.8736 26.4877 46.5587 23.9472 44.0522C27.1135 49.8554 32.799 53.5902 39.294 55.3208C41.5973 55.9344 43.9146 56.3009 46.296 56.426C48.1722 56.5245 50.058 56.5542 51.9155 56.864C54.895 57.3608 57.4277 58.736 59.2489 61.1626C62.4941 65.4867 63.1372 71.903 68.0486 74.8987C71.099 76.7591 75.1381 77.4353 78.6535 77.4948C80.7806 77.5307 82.9143 77.3142 84.9597 76.7762C84.9605 76.7726 84.9613 76.7689 84.9621 76.7652C85.0809 76.2331 85.1871 75.6983 85.2828 75.1616C85.2987 75.0731 85.3143 74.9849 85.3295 74.8964Z" fill="#A34E17"/>
<path d="M48.3262 37.1643C44.806 40.5279 41.7984 44.514 39.865 48.9312C45.2118 49.1518 50.5966 49.0837 55.4637 51.1752C55.6316 51.2473 55.7958 51.3248 55.9607 51.4012C55.9974 51.2598 56.0319 51.1175 56.0696 50.9765C56.1581 50.6463 56.2493 50.3173 56.3424 49.9898C58.6637 41.8257 62.2943 34.0379 67.0471 27.0057C66.2264 26.6336 65.3998 26.2691 64.5675 25.9133C58.754 29.1052 53.0826 32.6179 48.3262 37.1643Z" fill="#D88737"/>
<path d="M92.5172 67.8761C93.7008 66.3603 94.5256 64.5933 95.0249 62.7307C95.3053 61.6841 95.4838 60.6077 95.5665 59.5297C96.1226 52.2891 92.4806 45.2141 87.3326 40.092C85.4835 38.2524 83.4837 36.5812 81.3779 35.0511C88.263 44.5409 92.1783 56.158 92.5172 67.8761Z" fill="#D88737"/>
<path d="M30.3965 30.5372C38.8006 25.9593 48.3694 23.1619 57.9174 23.34C55.3879 22.4738 52.8243 21.7336 50.2415 21.1735C42.9443 19.5911 35.3126 20.0159 28.7722 23.8817C27.6498 24.5453 26.59 25.315 25.6276 26.1959C22.4495 29.1045 20.5099 33.612 20.9315 37.784C21.7188 36.8518 22.5836 35.9835 23.5104 35.1791C25.6031 33.3633 27.9886 31.8492 30.3965 30.5372Z" fill="#D88737"/>
<path d="M60.97 24.4519C50.6245 23.5344 40.0408 26.3621 30.85 31.3701C28.4802 32.661 26.1517 34.1423 24.132 35.8954C23.0237 36.8573 22.0138 37.9037 21.1335 39.0417C21.3491 40.0062 21.7035 40.9405 22.2104 41.8202C22.23 41.8542 22.2473 41.8889 22.2673 41.9227C22.7366 42.7145 23.3059 43.4195 23.9472 44.0522C26.4877 46.5587 30.2096 47.8736 33.8153 48.4203C35.4752 48.672 37.1601 48.8006 38.8525 48.8851C40.8396 44.1941 43.9902 39.9968 47.6709 36.4788C52.342 32.0152 57.8391 28.558 63.4536 25.4445C62.6305 25.103 61.8025 24.7718 60.97 24.4519Z" fill="#D88737"/>
<path d="M77.1181 69.994C79.4341 71.4289 82.0359 72.396 84.7226 72.2169C85.0504 72.1951 85.3752 72.1526 85.6974 72.0968C87.9244 71.7117 89.9938 70.5434 91.5953 68.9237C91.455 56.0915 86.923 43.292 78.8509 33.3146C76.6565 31.8841 74.3726 30.5863 72.042 29.3961C78.3937 41.7804 80.2109 56.427 77.1181 69.994Z" fill="#D88737"/>
<path d="M57.2546 50.2493C57.1626 50.5728 57.0727 50.8971 56.9857 51.222C56.9317 51.4235 56.8818 51.6259 56.8301 51.828C64.0767 55.6185 68.5442 63.4488 75.0617 68.5536C75.453 68.86 75.8574 69.1561 76.2713 69.4406C79.3012 55.7664 77.2712 40.9831 70.5879 28.6706C70.3739 28.566 70.1604 28.4601 69.9457 28.3572C69.7253 28.2515 69.5033 28.1472 69.2819 28.0422C68.8303 27.8282 68.3768 27.6158 67.9212 27.4054C63.1812 34.3879 59.5626 42.1317 57.2546 50.2493Z" fill="#D88737"/>
<path d="M30.8501 31.3701C40.0409 26.3622 50.6246 23.5344 60.9701 24.4519C59.9586 24.0633 58.941 23.6906 57.9173 23.34C48.3693 23.1619 38.8005 25.9594 30.3964 30.5371C27.9885 31.8492 25.603 33.3632 23.5104 35.179C22.5836 35.9834 21.7188 36.8516 20.9314 37.784C20.9742 38.2074 21.0409 38.6272 21.1336 39.0417C22.0139 37.9037 23.0238 36.8573 24.1321 35.8954C26.1518 34.1423 28.4804 32.661 30.8501 31.3701Z" fill="#331400"/>
<path d="M47.6708 36.4787C43.9902 39.9967 40.8397 44.194 38.8525 48.885C39.1897 48.9019 39.5272 48.9173 39.8649 48.9312C41.7984 44.5139 44.806 40.5279 48.3261 37.1643C53.0825 32.6179 58.754 29.1052 64.5676 25.9134C64.1973 25.7552 63.826 25.5988 63.4536 25.4444C57.839 28.5579 52.3421 32.0151 47.6708 36.4787Z" fill="#331400"/>
<path d="M91.5953 68.9236C91.9024 68.6131 92.1942 68.288 92.4646 67.9467C92.4828 67.9237 92.4991 67.8993 92.5172 67.8761C92.1783 56.1581 88.263 44.5409 81.3779 35.0511C80.5514 34.4505 79.7075 33.8731 78.8508 33.3146C86.9229 43.2919 91.455 56.0915 91.5953 68.9236Z" fill="#331400"/>
<path d="M56.3423 49.9899C56.2492 50.3174 56.158 50.6463 56.0696 50.9766C56.0318 51.1176 55.9973 51.2599 55.9606 51.4013C56.2546 51.5375 56.545 51.679 56.8302 51.828C56.8819 51.626 56.9317 51.4236 56.9857 51.2221C57.0728 50.8971 57.1627 50.5728 57.2547 50.2494C59.5626 42.1317 63.1813 34.3879 67.9213 27.4054C67.6307 27.2712 67.3392 27.1382 67.0471 27.0058C62.2941 34.038 58.6636 41.8258 56.3423 49.9899Z" fill="#331400"/>
<path d="M27.2292 40.8677C27.5767 42.5289 28.9845 43.7991 30.5378 44.4835C31.7352 45.011 33.0768 45.2591 34.3679 45.0445C35.8908 44.7913 37.2445 43.9202 38.4132 42.9113C41.0853 40.605 42.9823 37.5488 45.3144 34.899C46.6617 33.3684 48.1587 31.9698 49.7771 30.7295C50.2883 30.3379 50.9264 29.8518 51.0213 29.1664C51.1111 28.5168 50.6077 27.956 50.0271 27.7434C49.4207 27.5213 48.7465 27.6 48.1217 27.6893C44.2591 28.2403 40.4807 28.9968 36.8579 30.4966C35.5688 31.0302 34.3253 31.6797 33.1486 32.4328C32.3172 32.9602 31.519 33.5407 30.7671 34.1759C30.3951 34.4901 30.0344 34.8178 29.6867 35.159C28.9147 35.9167 28.1996 36.7511 27.7197 37.7204C27.2396 38.6897 27.0077 39.8088 27.2292 40.8677Z" fill="white"/>
<path d="M46.3803 90.0506C46.2334 90.597 46.4377 91.2213 46.8791 91.5752C47.3419 91.9462 47.9852 92.0031 48.5744 91.9334C49.3201 91.8454 50.1119 91.6201 50.7405 91.1797C51.448 90.6841 51.8283 89.8296 51.5796 89.1698C51.4477 88.82 51.1391 88.5249 50.6083 88.3672C49.8275 88.1352 48.9736 88.1578 48.2056 88.4292C47.4681 88.6895 46.595 89.2516 46.3803 90.0506Z" fill="#A34E17"/>
<path d="M59.0385 88.8388C57.9366 88.5116 56.7315 88.5433 55.6476 88.9262C54.607 89.2939 53.3746 90.087 53.0715 91.2147C52.8643 91.9856 53.1524 92.8666 53.7754 93.3662C54.4287 93.89 55.3364 93.97 56.1681 93.8718C57.2205 93.7474 58.3379 93.4295 59.225 92.8081C60.2234 92.1087 60.7602 90.9025 60.4094 89.9715C60.2232 89.4778 59.7875 89.0614 59.0385 88.8388Z" fill="#A34E17"/>
<path d="M48.6195 97.2691C47.3295 96.886 45.9188 96.9233 44.6501 97.3714C43.4318 97.8018 41.9894 98.7303 41.6346 100.05C41.3919 100.953 41.7293 101.984 42.4584 102.569C43.2231 103.182 44.2859 103.276 45.2593 103.161C46.4914 103.015 47.7993 102.643 48.8378 101.915C50.0065 101.097 50.6349 99.6849 50.2241 98.595C50.0063 98.0171 49.4962 97.5296 48.6195 97.2691Z" fill="#A34E17"/>
<path d="M71.0359 86.6601C69.7458 86.277 68.3352 86.3143 67.0665 86.7624C65.8481 87.1928 64.4058 88.1214 64.0508 89.4413C63.8082 90.3438 64.1457 91.3751 64.8747 91.9598C65.6395 92.5729 66.7021 92.6666 67.6755 92.5517C68.9076 92.406 70.2157 92.034 71.2541 91.3065C72.4229 90.4877 73.0511 89.0759 72.6404 87.986C72.4227 87.4081 71.9126 86.9206 71.0359 86.6601Z" fill="#A34E17"/>
<path d="M56.3851 97.9599C55.4907 97.6942 54.5124 97.72 53.6327 98.0307C52.7879 98.3292 51.7874 98.973 51.5414 99.8884C51.3732 100.514 51.6072 101.23 52.1127 101.635C52.6431 102.06 53.38 102.125 54.055 102.045C54.9094 101.944 55.8165 101.686 56.5366 101.182C57.3471 100.614 57.7828 99.6351 57.4979 98.8792C57.3468 98.4785 56.993 98.1405 56.3851 97.9599Z" fill="#A34E17"/>
<path d="M43.678 95.1434C43.9964 95.3988 44.4389 95.4377 44.8442 95.3899C45.3571 95.3293 45.9017 95.1742 46.3341 94.8714C46.8207 94.5305 47.0822 93.9427 46.9113 93.4889C46.8206 93.2484 46.6083 93.0454 46.2432 92.9369C45.7061 92.7775 45.1188 92.7928 44.5906 92.9794C44.0833 93.1586 43.4828 93.5453 43.3351 94.0948C43.2341 94.4707 43.3744 94.8999 43.678 95.1434Z" fill="#A34E17"/>
<path d="M63.6262 92.3164C63.0893 92.1568 62.5019 92.1724 61.9736 92.3589C61.4664 92.5382 60.8658 92.9248 60.7181 93.4743C60.6171 93.85 60.7576 94.2793 61.0612 94.5229C61.3796 94.7781 61.8221 94.8173 62.2273 94.7692C62.7402 94.7087 63.2849 94.5538 63.7172 94.2509C64.2039 93.9101 64.4655 93.3222 64.2944 92.8685C64.2037 92.6277 63.9913 92.4248 63.6262 92.3164Z" fill="#A34E17"/>
<path d="M62.0943 96.2909C61.5572 96.1314 60.9698 96.1469 60.4417 96.3334C59.9343 96.5126 59.3339 96.8992 59.1861 97.4488C59.0851 97.8244 59.2255 98.2538 59.5291 98.4974C59.8475 98.7526 60.2899 98.7917 60.6953 98.7437C61.2082 98.6831 61.7527 98.5282 62.1851 98.2253C62.6718 97.8844 62.9333 97.2965 62.7624 96.8429C62.6717 96.6022 62.4594 96.3993 62.0943 96.2909Z" fill="#A34E17"/>
<path d="M51.3821 92.8188C50.845 92.6592 50.2577 92.6748 49.7295 92.8614C49.2222 93.0406 48.6217 93.4272 48.474 93.9767C48.373 94.3524 48.5133 94.7817 48.8169 95.0253C49.1353 95.2805 49.5777 95.3196 49.9831 95.2716C50.496 95.2111 51.0406 95.0562 51.473 94.7533C51.9595 94.4124 52.2211 93.8245 52.0502 93.3709C51.9595 93.1301 51.7472 92.9272 51.3821 92.8188Z" fill="#A34E17"/>
<path d="M53.2784 96.5646C53.5692 96.3609 53.7255 96.0098 53.6233 95.7385C53.5691 95.5948 53.4421 95.4735 53.2241 95.4087C52.9032 95.3133 52.5523 95.3227 52.2366 95.4342C51.9335 95.5412 51.5747 95.7722 51.4864 96.1005C51.4261 96.3251 51.5099 96.5816 51.6913 96.7271C51.8816 96.8796 52.146 96.903 52.3882 96.8744C52.6947 96.8382 53.0201 96.7456 53.2784 96.5646Z" fill="#A34E17"/>
<path d="M56.2405 96.7596C56.6218 96.7146 57.0265 96.5994 57.3477 96.3743C57.7094 96.1211 57.9038 95.6841 57.7768 95.3469C57.7093 95.168 57.5516 95.0172 57.2801 94.9367C56.881 94.8181 56.4447 94.8297 56.0521 94.9683C55.6752 95.1015 55.2288 95.3888 55.119 95.7971C55.044 96.0765 55.1484 96.3955 55.374 96.5764C55.6107 96.7662 55.9394 96.7951 56.2405 96.7596Z" fill="#A34E17"/>
<path d="M66.2948 95.2667C66.0239 95.1863 65.7275 95.1941 65.461 95.2881C65.2051 95.3786 64.902 95.5737 64.8276 95.8508C64.7766 96.0405 64.8476 96.2572 65.0006 96.38C65.1613 96.5087 65.3846 96.5284 65.5891 96.5043C65.8479 96.4737 66.1226 96.3955 66.3408 96.2427C66.5862 96.0708 66.7182 95.7742 66.6319 95.5452C66.5863 95.4238 66.479 95.3214 66.2948 95.2667Z" fill="#A34E17"/>
<path d="M62.2409 88.7153C62.4864 88.5432 62.6185 88.2466 62.5322 88.0176C62.4864 87.8962 62.3793 87.7938 62.195 87.7392C61.924 87.6586 61.6277 87.6664 61.3613 87.7607C61.1053 87.8511 60.8023 88.046 60.7277 88.3233C60.6768 88.513 60.7476 88.7296 60.9008 88.8524C61.0614 88.9812 61.2847 89.0009 61.4892 88.9767C61.748 88.9462 62.0227 88.8681 62.2409 88.7153Z" fill="#A34E17"/>
<path fill-rule="evenodd" clip-rule="evenodd" d="M62.2727 63.1461C62.7858 63.1025 63.3074 63.1896 63.7831 63.3986C64.2589 63.6075 64.6715 63.9306 64.9779 64.3341C65.2843 64.7377 65.4733 65.2069 65.5253 65.6931C65.5774 66.1793 65.4905 66.6646 65.2737 67.0985L53.9905 89.6592C52.8999 91.8347 49.8005 92.3484 47.876 90.5327C46.2662 89.0137 43.8909 86.7045 41.8174 84.4152C40.7809 83.2697 37.6376 79.6536 38.6345 78.0397C39.489 76.6604 47.6729 72.9526 52.3881 70.7035C54.2392 69.8195 53.7986 68.8621 51.7147 69.5621C46.5399 71.3001 38.3071 73.8352 35.6518 74.4487C33.3096 74.9893 32.2066 74.873 31.014 74.3083C28.8381 73.2786 26.8852 72.1041 25.3565 70.9256C23.2907 69.3335 24.2895 66.383 26.7647 66.1719L62.2727 63.1461Z" fill="white"/>
</svg>
