<svg width="992" height="894" viewBox="0 0 992 894" fill="none" xmlns="http://www.w3.org/2000/svg">
<g filter="url(#filter0_f_0_4359)">
<mask id="mask0_0_4359" style="mask-type:luminance" maskUnits="userSpaceOnUse" x="0" y="-962" width="2004" height="1856">
<path d="M2003.61 -154.403L604.807 -962L0 85.5567L1398.8 893.154L2003.61 -154.403Z" fill="white"/>
</mask>
<g mask="url(#mask0_0_4359)">
<path d="M613.993 190.034C621.993 194.386 628.051 192.978 630.486 188.502C632.919 184.03 630.812 178.178 622.811 173.826C614.814 169.475 601.518 172.741 601.518 172.741C601.518 172.741 605.995 185.683 613.993 190.034Z" fill="#5DA131"/>
<path d="M613.993 190.034C621.994 194.386 628.051 192.978 630.486 188.502L601.518 172.741C601.518 172.741 605.995 185.683 613.993 190.034Z" fill="#307502"/>
<path d="M609.951 174.386L611.766 178.32L613.068 179.027L609.951 174.386Z" fill="#307502"/>
<path d="M606.091 173.5L607.158 175.813L607.922 176.228L606.091 173.5Z" fill="#307502"/>
<path d="M614.385 175.045L617.279 181.319L619.354 182.448L614.385 175.045Z" fill="#307502"/>
<path d="M620.065 176.355L624.054 185.005L626.914 186.561L620.065 176.355Z" fill="#307502"/>
<path d="M606.343 178.052L610.25 177.493L611.436 178.137L606.343 178.052Z" fill="#5DA131"/>
<path d="M603.755 175.536L606.051 175.207L606.747 175.587L603.755 175.536Z" fill="#5DA131"/>
<path d="M609.04 181.117L615.271 180.225L617.162 181.253L609.04 181.117Z" fill="#5DA131"/>
<path d="M612.854 184.812L621.444 183.583L624.05 185L612.854 184.812Z" fill="#5DA131"/>
<path d="M632.303 190.401L633.069 188.993L629.377 187.309L628.884 188.217L632.303 190.401Z" fill="#307502"/>
<path d="M629.13 187.763L632.686 189.699L633.069 188.993L629.377 187.309L629.13 187.763Z" fill="#5DA131"/>
<path d="M520.168 242.019C528.168 246.372 534.226 244.964 536.661 240.488C539.094 236.014 536.987 230.164 528.986 225.812C520.988 221.461 507.692 224.727 507.692 224.727C507.692 224.727 512.17 237.669 520.168 242.019Z" fill="#5DA131"/>
<path d="M520.168 242.019C528.168 246.372 534.225 244.964 536.661 240.488L507.692 224.727C507.692 224.727 512.17 237.669 520.168 242.019Z" fill="#307502"/>
<path d="M516.127 226.372L517.942 230.307L519.243 231.013L516.127 226.372Z" fill="#307502"/>
<path d="M512.266 225.488L513.332 227.799L514.096 228.213L512.266 225.488Z" fill="#307502"/>
<path d="M520.559 227.03L523.454 233.304L525.528 234.433L520.559 227.03Z" fill="#307502"/>
<path d="M526.239 228.342L530.229 236.991L533.089 238.547L526.239 228.342Z" fill="#307502"/>
<path d="M512.517 230.038L516.426 229.48L517.609 230.124L512.517 230.038Z" fill="#5DA131"/>
<path d="M509.931 227.523L512.226 227.195L512.922 227.573L509.931 227.523Z" fill="#5DA131"/>
<path d="M515.215 233.102L521.446 232.211L523.337 233.239L515.215 233.102Z" fill="#5DA131"/>
<path d="M519.029 236.798L527.618 235.569L530.224 236.986L519.029 236.798Z" fill="#5DA131"/>
<path d="M538.477 242.388L539.244 240.979L535.553 239.296L535.059 240.203L538.477 242.388Z" fill="#307502"/>
<path d="M535.305 239.751L538.86 241.685L539.244 240.979L535.553 239.296L535.305 239.751Z" fill="#5DA131"/>
<path d="M622.182 217.419C625.44 208.913 623.243 203.096 618.486 201.272C613.731 199.452 608.209 202.313 604.952 210.819C601.696 219.321 606.69 232.069 606.69 232.069C606.69 232.069 618.925 225.921 622.182 217.419Z" fill="#5DA131"/>
<path d="M622.182 217.419C625.44 208.913 623.243 203.096 618.486 201.272L606.69 232.069C606.69 232.069 618.925 225.921 622.182 217.419Z" fill="#307502"/>
<path d="M607.204 223.49L610.865 221.172L611.394 219.79L607.204 223.49Z" fill="#307502"/>
<path d="M606.837 227.435L608.988 226.074L609.299 225.261L606.837 227.435Z" fill="#307502"/>
<path d="M607.271 219.011L613.108 215.313L613.954 213.108L607.271 219.011Z" fill="#307502"/>
<path d="M607.82 213.207L615.868 208.109L617.033 205.068L607.82 213.207Z" fill="#307502"/>
<path d="M611.316 226.584L610.246 222.784L610.728 221.526L611.316 226.584Z" fill="#5DA131"/>
<path d="M609.164 229.48L608.535 227.248L608.819 226.509L609.164 229.48Z" fill="#5DA131"/>
<path d="M613.997 223.506L612.289 217.448L613.059 215.437L613.997 223.506Z" fill="#5DA131"/>
<path d="M617.156 219.237L614.803 210.885L615.865 208.115L617.156 219.237Z" fill="#5DA131"/>
<path d="M620.127 199.221L618.63 198.648L617.449 202.529L618.413 202.898L620.127 199.221Z" fill="#307502"/>
<path d="M617.932 202.713L619.38 198.935L618.63 198.648L617.449 202.529L617.932 202.713Z" fill="#5DA131"/>
<path d="M694.453 212.227C697.712 203.722 695.514 197.904 690.757 196.081C686.003 194.259 680.482 197.122 677.224 205.627C673.968 214.129 678.962 226.878 678.962 226.878C678.962 226.878 691.197 220.73 694.453 212.227Z" fill="#5DA131"/>
<path d="M694.453 212.227C697.712 203.722 695.514 197.904 690.757 196.081L678.962 226.878C678.962 226.878 691.197 220.73 694.453 212.227Z" fill="#307502"/>
<path d="M679.476 218.299L683.136 215.981L683.666 214.598L679.476 218.299Z" fill="#307502"/>
<path d="M679.108 222.244L681.258 220.881L681.57 220.069L679.108 222.244Z" fill="#307502"/>
<path d="M679.543 213.818L685.38 210.121L686.226 207.915L679.543 213.818Z" fill="#307502"/>
<path d="M680.092 208.016L688.14 202.918L689.304 199.877L680.092 208.016Z" fill="#307502"/>
<path d="M683.587 221.392L682.517 217.593L682.999 216.334L683.587 221.392Z" fill="#5DA131"/>
<path d="M681.436 224.289L680.807 222.057L681.09 221.318L681.436 224.289Z" fill="#5DA131"/>
<path d="M686.268 218.315L684.562 212.255L685.33 210.246L686.268 218.315Z" fill="#5DA131"/>
<path d="M689.427 214.046L687.074 205.693L688.135 202.922L689.427 214.046Z" fill="#5DA131"/>
<path d="M692.4 194.028L690.901 193.455L689.72 197.338L690.684 197.706L692.4 194.028Z" fill="#307502"/>
<path d="M690.203 197.521L691.651 193.741L690.9 193.455L689.72 197.338L690.203 197.521Z" fill="#5DA131"/>
<path d="M768.046 123.958C774.475 117.505 774.827 111.296 771.216 107.701C767.608 104.107 761.401 104.485 754.974 110.936C748.549 117.386 747.943 131.065 747.943 131.065C747.943 131.065 761.621 130.409 768.046 123.958Z" fill="#5DA131"/>
<path d="M768.046 123.958C774.475 117.505 774.827 111.296 771.216 107.701L747.942 131.066C747.942 131.066 761.621 130.409 768.046 123.958Z" fill="#307502"/>
<path d="M751.894 123.433L756.18 122.799L757.225 121.75L751.894 123.433Z" fill="#307502"/>
<path d="M749.958 126.889L752.476 126.517L753.09 125.9L749.958 126.889Z" fill="#307502"/>
<path d="M753.772 119.366L760.607 118.353L762.274 116.68L753.772 119.366Z" fill="#307502"/>
<path d="M756.628 114.284L766.051 112.887L768.349 110.581L756.628 114.284Z" fill="#307502"/>
<path d="M754.396 127.927L754.96 124.021L755.911 123.065L754.396 127.927Z" fill="#5DA131"/>
<path d="M751.255 129.704L751.585 127.408L752.145 126.848L751.255 129.704Z" fill="#5DA131"/>
<path d="M758.095 126.202L758.993 119.971L760.511 118.447L758.095 126.202Z" fill="#5DA131"/>
<path d="M762.715 123.582L763.953 114.994L766.045 112.891L762.715 123.582Z" fill="#5DA131"/>
<path d="M773.55 106.491L772.413 105.359L769.759 108.428L770.491 109.156L773.55 106.491Z" fill="#307502"/>
<path d="M770.127 108.793L772.983 105.927L772.413 105.359L769.759 108.428L770.127 108.793Z" fill="#5DA131"/>
<path d="M693.633 129.836C701.321 134.72 707.459 133.724 710.191 129.425C712.923 125.127 711.215 119.146 703.528 114.263C695.843 109.38 682.357 111.74 682.357 111.74C682.357 111.74 685.949 124.954 693.633 129.836Z" fill="#5DA131"/>
<path d="M693.633 129.836C701.321 134.72 707.459 133.724 710.191 129.425L682.355 111.739C682.355 111.739 685.949 124.954 693.633 129.836Z" fill="#307502"/>
<path d="M690.661 113.949L692.207 117.999L693.456 118.793L690.661 113.949Z" fill="#307502"/>
<path d="M686.87 112.805L687.778 115.184L688.512 115.651L686.87 112.805Z" fill="#307502"/>
<path d="M695.04 114.907L697.503 121.363L699.496 122.629L695.04 114.907Z" fill="#307502"/>
<path d="M700.618 116.6L704.013 125.5L706.76 127.246L700.618 116.6Z" fill="#307502"/>
<path d="M686.812 117.363L690.749 117.07L691.888 117.795L686.812 117.363Z" fill="#5DA131"/>
<path d="M684.402 114.679L686.714 114.507L687.383 114.931L684.402 114.679Z" fill="#5DA131"/>
<path d="M689.297 120.603L695.574 120.135L697.39 121.29L689.297 120.603Z" fill="#5DA131"/>
<path d="M692.851 124.548L701.505 123.905L704.008 125.495L692.851 124.548Z" fill="#5DA131"/>
<path d="M711.876 131.442L712.736 130.089L709.167 128.159L708.613 129.031L711.876 131.442Z" fill="#307502"/>
<path d="M708.89 128.597L712.305 130.767L712.736 130.089L709.167 128.159L708.89 128.597Z" fill="#5DA131"/>
<path d="M833.624 0.966698C840.052 -5.48515 840.405 -11.6952 836.794 -15.2906C833.186 -18.8844 826.979 -18.5065 820.552 -12.0547C814.127 -5.6034 813.521 8.07386 813.521 8.07386C813.521 8.07386 827.2 7.41656 833.624 0.966698Z" fill="#5DA131"/>
<path d="M833.624 0.966719C840.052 -5.48513 840.405 -11.6952 836.794 -15.2906L813.52 8.07525C813.52 8.07525 827.2 7.41658 833.624 0.966719Z" fill="#307502"/>
<path d="M817.472 0.44226L821.758 -0.191967L822.802 -1.24151L817.472 0.44226Z" fill="#307502"/>
<path d="M815.536 3.89788L818.055 3.52448L818.668 2.90853L815.536 3.89788Z" fill="#307502"/>
<path d="M819.974 4.93629L820.538 1.02988L821.489 0.0739402L819.974 4.93629Z" fill="#5DA131"/>
<path d="M816.834 6.71185L817.164 4.41596L817.723 3.85469L816.834 6.71185Z" fill="#5DA131"/>
<path d="M823.673 3.21104L824.571 -3.01983L826.089 -4.54386L823.673 3.21104Z" fill="#5DA131"/>
<path d="M828.293 0.590849L829.531 -7.99893L831.623 -10.1014L828.293 0.590849Z" fill="#5DA131"/>
<path d="M947.596 66.3318C960.274 66.0941 966.637 60.2224 966.504 53.1292C966.372 46.0405 959.793 40.4109 947.116 40.6472C934.443 40.8836 920.596 53.9869 920.596 53.9869C920.596 53.9869 934.922 66.5682 947.596 66.3318Z" fill="#5DA131"/>
<path d="M947.596 66.3317C960.274 66.0941 966.637 60.2223 966.504 53.1292L920.595 53.9882C920.595 53.9882 934.922 66.5682 947.596 66.3317Z" fill="#307502"/>
<path d="M931.937 50.1723L936.841 53.6862L938.902 53.6471L931.937 50.1723Z" fill="#307502"/>
<path d="M926.655 51.7592L929.537 53.8223L930.748 53.7994L926.655 51.7592Z" fill="#307502"/>
<path d="M937.755 47.9193L945.576 53.5237L948.863 53.4611L937.755 47.9193Z" fill="#307502"/>
<path d="M945.532 45.5979L956.314 53.3222L960.846 53.2369L945.532 45.5979Z" fill="#307502"/>
<path d="M930.091 57.0946L934.437 53.7285L936.314 53.6937L930.091 57.0946Z" fill="#5DA131"/>
<path d="M925.23 55.8302L927.781 53.853L928.886 53.8324L925.23 55.8302Z" fill="#5DA131"/>
<path d="M935.464 58.9469L942.393 53.5795L945.389 53.5241L935.464 58.9469Z" fill="#5DA131"/>
<path d="M942.623 60.7955L952.175 53.3965L956.304 53.3202L942.623 60.7955Z" fill="#5DA131"/>
<path d="M970.011 54.1784L969.968 51.9457L964.342 52.4481L964.369 53.8846L970.011 54.1784Z" fill="#307502"/>
<path d="M964.355 53.1681L969.988 53.0634L969.968 51.9457L964.342 52.4481L964.355 53.1681Z" fill="#5DA131"/>
<path d="M923.929 -5.41403C936.786 -15.8174 938.627 -26.9595 932.806 -34.1531C926.99 -41.342 915.708 -41.865 902.851 -31.4616C889.999 -21.0608 886.25 3.51979 886.25 3.51979C886.25 3.51979 911.076 4.986 923.929 -5.41403Z" fill="#5DA131"/>
<path d="M923.929 -5.41406C936.786 -15.8175 938.627 -26.9595 932.806 -34.1531L886.252 3.52057C886.252 3.52057 911.076 4.98597 923.929 -5.41406Z" fill="#307502"/>
<path d="M892.497 1.70278L893.539 -2.37893L894.658 -3.28288L892.497 1.70278Z" fill="#5DA131"/>
<path d="M642.668 18.6855C648.337 12.9784 648.639 7.49255 645.446 4.32094C642.255 1.15095 636.772 1.49336 631.103 7.20051C625.437 12.9057 624.919 24.9891 624.919 24.9891C624.919 24.9891 637.001 24.3907 642.668 18.6855Z" fill="#5DA131"/>
<path d="M642.667 18.6856C648.337 12.9784 648.639 7.49257 645.446 4.32096L624.919 24.9891C624.919 24.9891 637.001 24.3907 642.667 18.6856Z" fill="#307502"/>
<path d="M628.4 18.2423L632.185 17.6764L633.107 16.7483L628.4 18.2423Z" fill="#307502"/>
<path d="M626.694 21.2972L628.919 20.9647L629.46 20.4189L626.694 21.2972Z" fill="#307502"/>
<path d="M630.053 14.6459L636.09 13.7448L637.561 12.2642L630.053 14.6459Z" fill="#307502"/>
<path d="M632.57 10.1548L640.891 8.90888L642.917 6.86907L632.57 10.1548Z" fill="#307502"/>
<path d="M630.616 22.2092L631.109 18.7581L631.948 17.9126L630.616 22.2092Z" fill="#5DA131"/>
<path d="M627.843 23.7809L628.134 21.7533L628.626 21.2561L627.843 23.7809Z" fill="#5DA131"/>
<path d="M633.882 20.6801L634.666 15.1754L636.006 13.8266L633.882 20.6801Z" fill="#5DA131"/>
<path d="M637.958 18.3595L639.04 10.7719L640.886 8.91156L637.958 18.3595Z" fill="#5DA131"/>
<path d="M647.506 3.24983L646.502 2.2503L644.162 4.96533L644.809 5.60904L647.506 3.24983Z" fill="#307502"/>
<path d="M644.485 5.28792L647.005 2.75155L646.502 2.2503L644.162 4.96533L644.485 5.28792Z" fill="#5DA131"/>
<path d="M630.683 -11.907C634.236 -0.293583 641.318 4.0211 647.815 2.03319C654.307 0.0464512 657.764 -7.49188 654.211 -19.1053C650.66 -30.7143 634.952 -40.0203 634.952 -40.0203C634.952 -40.0203 627.131 -23.516 630.683 -11.907Z" fill="#5DA131"/>
<path d="M630.683 -11.9071C634.236 -0.293633 641.318 4.02105 647.815 2.03314L634.951 -40.0189C634.951 -40.0189 627.131 -23.5161 630.683 -11.9071Z" fill="#307502"/>
<path d="M647.771 5.5401L649.817 4.91392L647.872 -0.136565L646.556 0.265658L647.771 5.5401Z" fill="#307502"/>
<path d="M647.213 0.0648598L648.791 5.22648L649.817 4.91393L647.872 -0.136559L647.213 0.0648598Z" fill="#5DA131"/>
<path d="M773.479 30.5382C777.473 19.0688 774.308 11.4036 767.891 9.17031C761.479 6.93799 754.237 10.9783 750.245 22.4485C746.253 33.9138 753.432 50.7017 753.432 50.7017C753.432 50.7017 769.486 42.0027 773.479 30.5382Z" fill="#5DA131"/>
<path d="M773.479 30.5383C777.473 19.0689 774.308 11.4037 767.891 9.17038L753.431 50.701C753.431 50.701 769.486 42.0027 773.479 30.5383Z" fill="#307502"/>
<path d="M753.765 39.2449L758.55 36.0036L759.199 34.1387L753.765 39.2449Z" fill="#307502"/>
<path d="M753.439 44.5158L756.248 42.6127L756.63 41.5161L753.439 44.5158Z" fill="#307502"/>
<path d="M753.672 33.2714L761.301 28.1023L762.337 25.1289L753.672 33.2714Z" fill="#307502"/>
<path d="M754.166 25.5126L764.682 18.3886L766.111 14.2881L754.166 25.5126Z" fill="#307502"/>
<path d="M759.372 43.1981L757.79 38.1782L758.382 36.4791L759.372 43.1981Z" fill="#5DA131"/>
<path d="M756.624 47.1471L755.694 44.199L756.042 43.2002L756.624 47.1471Z" fill="#5DA131"/>
<path d="M762.82 38.9873L760.297 30.9808L761.241 28.271L762.82 38.9873Z" fill="#5DA131"/>
<path d="M766.857 33.1676L763.378 22.1304L764.678 18.3956L766.857 33.1676Z" fill="#5DA131"/>
<path d="M769.996 6.36662L767.976 5.6628L766.561 10.8851L767.861 11.3386L769.996 6.36662Z" fill="#307502"/>
<path d="M767.214 11.1124L768.987 6.01519L767.976 5.66284L766.561 10.8851L767.214 11.1124Z" fill="#5DA131"/>
<path d="M697.032 57.9358C711.647 46.2312 713.796 33.6278 707.248 25.4513C700.705 17.2795 687.936 16.6216 673.321 28.3262C658.711 40.0261 654.326 67.8335 654.326 67.8335C654.326 67.8335 682.421 69.6357 697.032 57.9358Z" fill="#5DA131"/>
<path d="M697.032 57.9359C711.647 46.2312 713.796 33.6278 707.248 25.4514L654.326 67.8335C654.326 67.8335 682.421 69.6357 697.032 57.9359Z" fill="#307502"/>
<path d="M664.153 53.1481L673.055 52.838L675.431 50.9348L664.153 53.1481Z" fill="#307502"/>
<path d="M659.404 59.7637L664.635 59.5812L666.03 58.4637L659.404 59.7637Z" fill="#307502"/>
<path d="M668.927 45.2699L683.125 44.7739L686.915 41.74L668.927 45.2699Z" fill="#307502"/>
<path d="M675.932 35.5442L695.503 34.8607L700.729 30.6769L675.932 35.5442Z" fill="#307502"/>
<path d="M668.231 62.9073L670.281 55.0544L672.445 53.3217L668.231 62.9073Z" fill="#5DA131"/>
<path d="M661.405 65.8112L662.61 61.1987L663.881 60.1794L661.405 65.8112Z" fill="#5DA131"/>
<path d="M676.186 60.2319L679.453 47.7086L682.907 44.9446L676.186 60.2319Z" fill="#5DA131"/>
<path d="M686.226 55.942L690.731 38.6779L695.49 34.8664L686.226 55.942Z" fill="#5DA131"/>
<path d="M712.295 23.5175L710.233 20.9435L704.106 26.6043L705.433 28.2601L712.295 23.5175Z" fill="#307502"/>
<path d="M704.77 27.4337L711.267 22.2322L710.233 20.9435L704.106 26.6043L704.77 27.4337Z" fill="#5DA131"/>
<path d="M836.573 171.677C854.944 156.966 857.645 141.122 849.414 130.844C841.189 120.573 825.139 119.746 806.768 134.458C788.404 149.164 782.891 184.116 782.891 184.116C782.891 184.116 818.208 186.384 836.573 171.677Z" fill="#5DA131"/>
<path d="M836.573 171.677C854.944 156.966 857.645 141.122 849.414 130.844L782.891 184.116C782.891 184.116 818.208 186.384 836.573 171.677Z" fill="#307502"/>
<path d="M795.245 165.658L806.435 165.268L809.422 162.876L795.245 165.658Z" fill="#307502"/>
<path d="M789.277 173.973L795.851 173.744L797.605 172.34L789.277 173.973Z" fill="#307502"/>
<path d="M801.246 155.756L819.092 155.134L823.856 151.317L801.246 155.756Z" fill="#307502"/>
<path d="M810.05 143.531L834.651 142.672L841.218 137.413L810.05 143.531Z" fill="#307502"/>
<path d="M800.373 177.926L802.948 168.055L805.668 165.876L800.373 177.926Z" fill="#5DA131"/>
<path d="M791.793 181.575L793.305 175.777L794.904 174.497L791.793 181.575Z" fill="#5DA131"/>
<path d="M810.372 174.563L814.478 158.822L818.818 155.346L810.372 174.563Z" fill="#5DA131"/>
<path d="M822.991 169.17L828.652 147.471L834.636 142.68L822.991 169.17Z" fill="#5DA131"/>
<path d="M855.758 128.414L853.168 125.178L845.465 132.292L847.131 134.375L855.758 128.414Z" fill="#307502"/>
<path d="M846.301 133.336L854.466 126.798L853.168 125.178L845.465 132.292L846.301 133.336Z" fill="#5DA131"/>
<path d="M859.478 84.7555C875.542 93.2462 887.589 90.2925 892.34 81.3064C897.087 72.3252 892.743 60.7062 876.68 52.2155C860.624 43.7289 834.179 50.5618 834.179 50.5618C834.179 50.5618 843.422 76.2688 859.478 84.7555Z" fill="#5DA131"/>
<path d="M859.478 84.7555C875.542 93.2462 887.589 90.2925 892.34 81.3064L834.179 50.5618C834.179 50.5618 843.422 76.2688 859.478 84.7555Z" fill="#307502"/>
<path d="M851.045 53.6395L854.759 61.4439L857.37 62.8251L851.045 53.6395Z" fill="#307502"/>
<path d="M843.323 51.9675L845.505 56.5524L847.038 57.363L843.323 51.9675Z" fill="#307502"/>
<path d="M859.901 54.8469L865.824 67.2937L869.99 69.4953L859.901 54.8469Z" fill="#307502"/>
<path d="M871.262 57.3257L879.428 74.4854L885.17 77.5191L871.262 57.3257Z" fill="#307502"/>
<path d="M843.933 61.0387L851.713 59.8312L854.093 61.0878L843.933 61.0387Z" fill="#5DA131"/>
<path d="M838.712 56.0832L843.283 55.3742L844.681 56.1122L838.712 56.0832Z" fill="#5DA131"/>
<path d="M849.386 67.0871L861.795 65.1596L865.589 67.1653L849.386 67.0871Z" fill="#5DA131"/>
<path d="M857.082 74.3671L874.187 71.7098L879.418 74.4762L857.082 74.3671Z" fill="#5DA131"/>
<path d="M896.01 85.0515L897.505 82.2236L890.101 78.9541L889.138 80.7741L896.01 85.0515Z" fill="#307502"/>
<path d="M889.618 79.8673L896.756 83.6397L897.505 82.2236L890.101 78.9541L889.618 79.8673Z" fill="#5DA131"/>
<path d="M999 256.732C1008.4 249.208 1009.78 241.104 1005.57 235.848C1001.36 230.593 993.153 230.172 983.757 237.696C974.363 245.218 971.545 263.095 971.545 263.095C971.545 263.095 989.607 264.254 999 256.732Z" fill="#5DA131"/>
<path d="M999 256.732C1008.4 249.208 1009.78 241.104 1005.57 235.848L971.543 263.095C971.543 263.095 989.607 264.254 999 256.732Z" fill="#307502"/>
<path d="M977.861 253.655L983.584 253.455L985.112 252.231L977.861 253.655Z" fill="#307502"/>
<path d="M974.809 257.908L978.17 257.789L979.068 257.071L974.809 257.908Z" fill="#307502"/>
<path d="M980.929 248.589L990.058 248.27L992.494 246.319L980.929 248.589Z" fill="#307502"/>
<path d="M985.433 242.336L998.016 241.896L1001.37 239.206L985.433 242.336Z" fill="#307502"/>
<path d="M980.483 259.928L981.801 254.88L983.192 253.766L980.483 259.928Z" fill="#5DA131"/>
<path d="M976.095 261.795L976.868 258.83L977.687 258.174L976.095 261.795Z" fill="#5DA131"/>
<path d="M985.598 258.208L987.699 250.157L989.918 248.38L985.598 258.208Z" fill="#5DA131"/>
<path d="M992.053 255.45L994.948 244.351L998.008 241.901L992.053 255.45Z" fill="#5DA131"/>
<path d="M852.447 367.366C859.152 369.441 863.513 367.458 864.673 363.708C865.834 359.96 863.353 355.861 856.65 353.784C849.949 351.71 840.399 356.195 840.399 356.195C840.399 356.195 845.746 365.291 852.447 367.366Z" fill="#5DA131"/>
<path d="M852.447 367.366C859.152 369.441 863.513 367.459 864.673 363.708L840.399 356.195C840.399 356.195 845.746 365.291 852.447 367.366Z" fill="#307502"/>
<path d="M847.021 356.158L848.989 358.855L850.08 359.192L847.021 356.158Z" fill="#307502"/>
<path d="M843.971 356.075L845.127 357.658L845.768 357.857L843.971 356.075Z" fill="#307502"/>
<path d="M850.47 355.983L853.608 360.283L855.347 360.823L850.47 355.983Z" fill="#307502"/>
<path d="M854.959 356.112L859.285 362.041L861.682 362.783L854.959 356.112Z" fill="#307502"/>
<path d="M844.852 359.475L847.719 358.461L848.711 358.767L844.852 359.475Z" fill="#5DA131"/>
<path d="M842.516 357.968L844.2 357.371L844.784 357.552L842.516 357.968Z" fill="#5DA131"/>
<path d="M847.354 361.38L851.927 359.762L853.509 360.252L847.354 361.38Z" fill="#5DA131"/>
<path d="M850.794 363.594L857.098 361.362L859.281 362.038L850.794 363.594Z" fill="#5DA131"/>
<path d="M866.336 364.867L866.7 363.686L863.657 362.976L863.421 363.735L866.336 364.867Z" fill="#307502"/>
<path d="M863.538 363.355L866.518 364.277L866.7 363.686L863.657 362.976L863.538 363.355Z" fill="#5DA131"/>
<path d="M652.356 272.247C651.921 265.243 648.522 261.866 644.603 262.109C640.688 262.351 637.732 266.122 638.166 273.126C638.6 280.127 646.176 287.47 646.176 287.47C646.176 287.47 652.789 279.249 652.356 272.247Z" fill="#5DA131"/>
<path d="M652.356 272.247C651.921 265.243 648.522 261.866 644.603 262.109L646.176 287.47C646.176 287.47 652.789 279.249 652.356 272.247Z" fill="#307502"/>
<path d="M643.796 281.291L645.622 278.496L645.551 277.356L643.796 281.291Z" fill="#307502"/>
<path d="M644.799 284.173L645.872 282.531L645.831 281.862L644.799 284.173Z" fill="#307502"/>
<path d="M642.412 278.129L645.321 273.671L645.209 271.855L642.412 278.129Z" fill="#307502"/>
<path d="M640.942 273.884L644.954 267.739L644.799 265.234L640.942 273.884Z" fill="#307502"/>
<path d="M647.666 282.146L645.702 279.823L645.638 278.787L647.666 282.146Z" fill="#5DA131"/>
<path d="M647.084 284.864L645.929 283.5L645.893 282.892L647.084 284.864Z" fill="#5DA131"/>
<path d="M648.562 279.13L645.429 275.428L645.327 273.773L648.562 279.13Z" fill="#5DA131"/>
<path d="M649.414 275.129L645.095 270.024L644.953 267.744L649.414 275.129Z" fill="#5DA131"/>
<path d="M645.099 260.146L643.867 260.221L644.279 263.32L645.073 263.272L645.099 260.146Z" fill="#307502"/>
<path d="M644.677 263.296L644.484 260.184L643.867 260.221L644.279 263.32L644.677 263.296Z" fill="#5DA131"/>
<path d="M1018.69 33.5634C1015.7 21.902 1008.89 17.3074 1002.36 18.9788C995.844 20.6499 992.078 27.9577 995.068 39.6191C998.056 51.2761 1013.19 61.2051 1013.19 61.2051C1013.19 61.2051 1021.68 45.221 1018.69 33.5634Z" fill="#5DA131"/>
<path d="M1018.69 33.5633C1015.7 21.9019 1008.89 17.3074 1002.36 18.9788L1013.19 61.2037C1013.19 61.2037 1021.68 45.2209 1018.69 33.5633Z" fill="#307502"/>
<path d="M958.221 372.935C973.525 360.68 975.775 347.483 968.918 338.92C962.066 330.362 948.696 329.674 933.391 341.93C918.092 354.182 913.5 383.298 913.5 383.298C913.5 383.298 942.921 385.185 958.221 372.935Z" fill="#5DA131"/>
<path d="M958.221 372.935C973.525 360.68 975.775 347.483 968.918 338.92L913.502 383.299C913.502 383.299 942.921 385.185 958.221 372.935Z" fill="#307502"/>
<path d="M923.792 367.921L933.115 367.596L935.603 365.603L923.792 367.921Z" fill="#307502"/>
<path d="M918.82 374.849L924.296 374.658L925.758 373.487L918.82 374.849Z" fill="#307502"/>
<path d="M928.79 359.672L943.658 359.152L947.626 355.974L928.79 359.672Z" fill="#307502"/>
<path d="M936.124 349.488L956.62 348.773L962.091 344.391L936.124 349.488Z" fill="#307502"/>
<path d="M928.064 378.14L930.21 369.918L932.476 368.102L928.064 378.14Z" fill="#5DA131"/>
<path d="M920.915 381.18L922.176 376.351L923.508 375.284L920.915 381.18Z" fill="#5DA131"/>
<path d="M936.392 375.339L939.814 362.227L943.43 359.33L936.392 375.339Z" fill="#5DA131"/>
<path d="M946.906 370.847L951.623 352.77L956.607 348.778L946.906 370.847Z" fill="#5DA131"/>
<path d="M974.202 336.894L972.045 334.199L965.628 340.125L967.017 341.86L974.202 336.894Z" fill="#307502"/>
<path d="M966.323 340.995L973.125 335.548L972.045 334.199L965.628 340.125L966.323 340.995Z" fill="#5DA131"/>
<path d="M716.301 434.614C738.58 427.026 746.508 413.046 742.262 400.581C738.02 388.124 723.207 381.89 700.929 389.478C678.658 397.063 661.588 428.057 661.588 428.057C661.588 428.057 694.03 442.199 716.301 434.614Z" fill="#5DA131"/>
<path d="M716.301 434.614C738.58 427.026 746.508 413.046 742.262 400.581L661.589 428.057C661.589 428.057 694.03 442.199 716.301 434.614Z" fill="#307502"/>
<path d="M679.483 414.901L690.139 418.34L693.761 417.106L679.483 414.901Z" fill="#307502"/>
<path d="M671.043 420.691L677.302 422.71L679.43 421.986L671.043 420.691Z" fill="#307502"/>
<path d="M688.494 407.628L705.488 413.111L711.265 411.144L688.494 407.628Z" fill="#307502"/>
<path d="M700.93 399.127L724.357 406.684L732.322 403.973L700.93 399.127Z" fill="#307502"/>
<path d="M680.133 428.179L685.911 419.774L689.212 418.65L680.133 428.179Z" fill="#5DA131"/>
<path d="M670.823 428.696L674.217 423.756L676.156 423.096L670.823 428.696Z" fill="#5DA131"/>
<path d="M690.68 428.418L699.894 415.012L705.157 413.218L690.68 428.418Z" fill="#5DA131"/>
<path d="M704.381 427.639L717.085 409.157L724.34 406.685L704.381 427.639Z" fill="#5DA131"/>
<path d="M749.054 400.453L747.719 396.531L738.056 400.602L738.915 403.127L749.054 400.453Z" fill="#307502"/>
<path d="M738.486 401.866L748.389 398.495L747.719 396.531L738.056 400.602L738.486 401.866Z" fill="#5DA131"/>
<path d="M113.296 92.426C121.775 95.4242 127.461 93.1083 129.139 88.3643C130.814 83.6244 127.849 78.2478 119.37 75.2488C110.894 72.2522 98.4383 77.5064 98.4383 77.5064C98.4383 77.5064 104.821 89.4294 113.296 92.426Z" fill="#5DA131"/>
<path d="M113.296 92.426C121.775 95.4242 127.461 93.1083 129.139 88.3642L98.4375 77.5078C98.4375 77.5078 104.821 89.4294 113.296 92.426Z" fill="#307502"/>
<path d="M106.921 77.7971L109.302 81.3505L110.681 81.8385L106.921 77.7971Z" fill="#307502"/>
<path d="M103.017 77.5353L104.417 79.6231L105.227 79.9098L103.017 77.5353Z" fill="#307502"/>
<path d="M111.344 77.7493L115.143 83.4168L117.342 84.1943L111.344 77.7493Z" fill="#307502"/>
<path d="M117.087 78.1424L122.325 85.9558L125.356 87.0286L117.087 78.1424Z" fill="#307502"/>
<path d="M103.971 81.9336L107.694 80.78L108.95 81.2251L103.971 81.9336Z" fill="#5DA131"/>
<path d="M101.057 79.8838L103.244 79.2068L103.983 79.4675L101.057 79.8838Z" fill="#5DA131"/>
<path d="M107.078 84.5016L113.015 82.6625L115.018 83.371L107.078 84.5016Z" fill="#5DA131"/>
<path d="M111.372 87.5121L119.558 84.9757L122.318 85.9518L111.372 87.5121Z" fill="#5DA131"/>
<path d="M131.208 89.9335L131.734 88.4397L127.873 87.3744L127.533 88.3345L131.208 89.9335Z" fill="#307502"/>
<path d="M127.703 87.8562L131.47 89.1881L131.734 88.4397L127.873 87.3744L127.703 87.8562Z" fill="#5DA131"/>
<path d="M278.864 46.7357C291.44 51.184 299.875 47.7472 302.364 40.7109C304.851 33.6795 300.45 25.7057 287.874 21.2574C275.302 16.8115 256.826 24.607 256.826 24.607C256.826 24.607 266.292 42.2898 278.864 46.7357Z" fill="#5DA131"/>
<path d="M278.864 46.7356C291.44 51.1839 299.875 47.7471 302.364 40.7108L256.826 24.6069C256.826 24.6069 266.292 42.2897 278.864 46.7356Z" fill="#307502"/>
<path d="M269.406 25.0377L272.938 30.3095L274.983 31.0314L269.406 25.0377Z" fill="#307502"/>
<path d="M263.617 24.6498L265.693 27.7471L266.893 28.1716L263.617 24.6498Z" fill="#307502"/>
<path d="M275.968 24.9656L281.603 33.3724L284.863 34.5255L275.968 24.9656Z" fill="#307502"/>
<path d="M284.485 25.5507L292.254 37.14L296.75 38.7305L284.485 25.5507Z" fill="#307502"/>
<path d="M265.031 31.1736L270.555 29.4631L272.416 30.1218L265.031 31.1736Z" fill="#5DA131"/>
<path d="M260.71 28.134L263.953 27.1289L265.047 27.5158L260.71 28.134Z" fill="#5DA131"/>
<path d="M269.639 34.983L278.448 32.2539L281.418 33.3049L269.639 34.983Z" fill="#5DA131"/>
<path d="M276.009 39.4473L288.151 35.6867L292.246 37.1337L276.009 39.4473Z" fill="#5DA131"/>
<path d="M305.43 43.0404L306.212 40.8253L300.484 39.2434L299.98 40.6683L305.43 43.0404Z" fill="#307502"/>
<path d="M300.232 39.9577L305.82 41.9342L306.212 40.8253L300.484 39.2434L300.232 39.9577Z" fill="#5DA131"/>
<path d="M961.95 167.536C970.428 170.535 976.114 168.219 977.792 163.475C979.468 158.733 976.503 153.358 968.023 150.359C959.547 147.363 947.092 152.617 947.092 152.617C947.092 152.617 953.475 164.538 961.95 167.536Z" fill="#5DA131"/>
<path d="M961.95 167.536C970.428 170.535 976.114 168.219 977.792 163.475L947.091 152.617C947.091 152.617 953.475 164.538 961.95 167.536Z" fill="#307502"/>
<path d="M955.574 152.907L957.957 156.462L959.336 156.948L955.574 152.907Z" fill="#307502"/>
<path d="M951.672 152.647L953.072 154.734L953.88 155.02L951.672 152.647Z" fill="#307502"/>
<path d="M959.997 152.86L963.798 158.527L965.995 159.305L959.997 152.86Z" fill="#307502"/>
<path d="M965.74 153.253L970.978 161.066L974.01 162.138L965.74 153.253Z" fill="#307502"/>
<path d="M952.626 157.045L956.348 155.891L957.605 156.335L952.626 157.045Z" fill="#5DA131"/>
<path d="M949.711 154.995L951.899 154.317L952.636 154.578L949.711 154.995Z" fill="#5DA131"/>
<path d="M955.733 159.613L961.671 157.772L963.673 158.481L955.733 159.613Z" fill="#5DA131"/>
<path d="M960.027 162.622L968.211 160.086L970.973 161.063L960.027 162.622Z" fill="#5DA131"/>
<path d="M979.861 165.044L980.389 163.551L976.526 162.485L976.187 163.445L979.861 165.044Z" fill="#307502"/>
<path d="M976.357 162.965L980.125 164.299L980.389 163.551L976.526 162.485L976.357 162.965Z" fill="#5DA131"/>
<path d="M1746.03 421.978C1746.09 422.178 1745.38 420.003 1744.23 416.935C1743.05 413.777 1741.25 409.268 1738.7 403.515C1733.59 392.044 1725.56 375.562 1712.44 356.164C1705.87 346.485 1697.99 336.098 1688.36 325.575C1678.73 315.07 1667.31 304.413 1653.68 294.669C1640.03 284.99 1624.05 276.351 1606.09 270.25C1588.15 264.154 1568.26 260.605 1547.75 260.675C1545.19 260.749 1542.62 260.823 1540.04 260.898L1536.16 261.021L1532.8 261.153C1530.41 261.261 1528.01 261.372 1525.6 261.482L1521.98 261.648L1518.64 261.659C1514.19 261.668 1509.72 261.75 1505.04 261.458C1502.73 261.334 1500.38 261.317 1498.06 261.112C1495.75 260.9 1493.42 260.688 1491.08 260.474C1488.73 260.316 1486.42 259.946 1484.09 259.613C1481.77 259.251 1479.4 259.015 1477.08 258.556C1472.45 257.645 1467.76 256.793 1463.17 255.507C1453.93 253.109 1444.75 250.031 1435.91 245.858C1427.05 241.752 1418.43 236.789 1410.16 230.964C1401.87 225.157 1394.04 218.355 1386.51 210.946C1378.99 203.516 1371.84 195.399 1364.99 186.773C1358.17 178.109 1351.66 168.94 1345.32 159.445C1332.66 140.449 1320.84 120.054 1308.95 99.2101C1305.98 93.981 1303.01 88.7361 1300.02 83.4757C1298.53 80.8381 1297.03 78.1962 1295.54 75.5519L1294.79 74.2479L1294.2 73.2732L1293.02 71.3231L1291.84 69.3721C1291.41 68.6976 1290.87 67.9143 1290.38 67.1935C1289.38 65.7333 1288.38 64.2281 1287.37 62.8184L1284.3 58.8163C1283.3 57.4573 1282.18 56.2209 1281.11 54.9392C1280.01 53.6822 1278.97 52.3576 1277.81 51.172C1273.33 46.2298 1268.5 41.7019 1263.54 37.3678C1243.48 20.2815 1220.62 7.72341 1197.08 -2.38933C1173.49 -12.5041 1149.01 -20.0359 1124.29 -25.9733C1074.78 -37.7016 1024.16 -42.9897 974.39 -43.0276C949.5 -43.0034 924.796 -41.5938 900.551 -38.5415C876.316 -35.472 852.507 -30.7871 829.676 -23.7401C818.263 -20.2245 807.114 -16.0532 796.401 -11.0628C793.711 -9.84643 791.071 -8.52435 788.453 -7.16907C785.918 -5.87973 783.39 -4.59437 780.867 -3.31298C778.335 -2.0647 775.782 -0.646253 773.288 0.452332C770.786 1.59678 768.291 2.73729 765.804 3.87537C755.713 8.22295 745.479 12.0481 735.155 14.7232C724.825 17.3197 714.404 18.8326 704.169 18.6973C693.929 18.6304 683.95 16.6645 674.654 13.131C665.337 9.62436 656.707 4.60599 648.724 -1.19841C632.7 -12.7716 618.821 -26.7024 603.6 -38.1088C596.017 -43.8298 588.119 -48.9533 579.856 -52.9777L578.316 -53.7417L577.548 -54.1221C577.164 -54.3043 577.218 -54.262 577.031 -54.342L576.643 -54.497L573.548 -55.7285C572.497 -56.1186 571.543 -56.5891 570.421 -56.909L567.094 -57.8894C565.99 -58.2061 564.888 -58.5494 563.791 -58.836L560.519 -59.5057C558.345 -59.9625 556.187 -60.4155 554.019 -60.6361C549.699 -61.3079 545.418 -61.5395 541.201 -61.8143C536.984 -61.8655 532.824 -62.0125 528.743 -61.7914C520.566 -61.568 512.683 -60.7328 505.094 -59.7208C474.743 -55.4169 449.149 -47.8129 428.346 -41.1073C407.55 -34.2993 391.556 -27.9955 380.716 -23.5785C369.879 -19.1425 364.209 -16.5247 364.209 -16.5247C364.209 -16.5247 369.944 -18.999 380.882 -23.1597C391.823 -27.3007 407.957 -33.1952 428.863 -39.4604C449.758 -45.6242 475.477 -52.55 505.55 -56.0405C513.061 -56.8517 520.839 -57.4767 528.832 -57.4912C532.831 -57.6087 536.869 -57.3591 540.961 -57.2104C545.031 -56.8395 549.16 -56.5143 553.268 -55.7655C555.344 -55.5049 557.379 -55.0179 559.426 -54.534L562.509 -53.8265L565.472 -52.8931L568.444 -51.9536C569.435 -51.6574 570.465 -51.1259 571.478 -50.7199L574.542 -49.4114C575.331 -49.1108 576.42 -48.4507 577.347 -47.9862C585.106 -43.9616 592.543 -38.8789 599.762 -33.1428C614.265 -21.7239 627.704 -7.50013 644.126 5.03629C652.307 11.3019 661.432 16.9636 671.543 21.0649C681.623 25.1984 692.682 27.6589 703.908 28.0158C715.141 28.4491 726.46 27.074 737.541 24.5812C748.621 22.0051 759.416 18.2743 770.119 13.9757C772.783 12.836 775.454 11.6924 778.132 10.5469C780.847 9.41968 783.295 8.13236 785.901 6.92689C788.485 5.69407 791.076 4.4573 793.672 3.21873C796.169 2.00595 798.684 0.821075 801.264 -0.265109C811.515 -4.72976 822.255 -8.45082 833.296 -11.5474C855.382 -17.7621 878.564 -21.7341 902.188 -24.1232C925.824 -26.4978 949.938 -27.2684 974.201 -26.6811C1022.71 -25.4326 1071.96 -18.9954 1119.38 -6.48531C1143.04 -0.175127 1166.28 7.6508 1188.19 17.7085C1199.13 22.732 1209.74 28.2988 1219.8 34.4993C1229.83 40.7395 1239.28 47.6405 1247.79 55.2748C1251.99 59.141 1256.02 63.1194 1259.66 67.3458C1260.62 68.366 1261.43 69.4828 1262.32 70.5477C1263.18 71.6292 1264.1 72.6762 1264.87 73.8051L1267.29 77.1272L1269.38 80.3334C1270.65 82.1483 1272.57 85.7267 1273.63 87.6027C1275.06 90.2812 1276.49 92.9568 1277.91 95.6279C1280.77 100.98 1283.63 106.319 1286.47 111.641C1297.93 132.935 1309.45 154.07 1322.25 174.374C1328.66 184.519 1335.34 194.466 1342.51 204.06C1349.72 213.627 1357.41 222.836 1365.71 231.46C1374.01 240.063 1382.87 248.154 1392.44 255.245C1401.99 262.351 1412.13 268.55 1422.61 273.724C1433.07 278.972 1443.95 282.949 1454.8 286.059C1460.22 287.708 1465.68 288.867 1471.1 290.059C1473.8 290.657 1476.52 291.019 1479.21 291.503C1481.91 291.957 1484.6 292.442 1487.28 292.704C1489.97 293.016 1492.64 293.327 1495.3 293.635C1497.96 293.932 1500.6 294.033 1503.23 294.236C1508.46 294.685 1513.82 294.755 1519.12 294.855L1523.06 294.922L1526.69 294.848C1529.1 294.798 1531.51 294.749 1533.89 294.7L1537.68 294.641L1540.91 294.633C1543.06 294.62 1545.19 294.608 1547.32 294.597C1564.28 294.97 1580.13 298.29 1594.36 303.521C1608.6 308.77 1621.24 315.99 1632.2 324.178C1654.09 340.759 1669.38 360.397 1680.34 377.385C1691.31 394.488 1698.03 409.208 1702.17 419.197C1704.24 424.201 1705.67 428.071 1706.54 430.602C1707.44 433.22 1707.67 434.024 1707.73 434.224L1746.03 421.978Z" fill="#170602"/>
<path d="M1004.4 -33.4227C1004.4 -33.4227 1004.38 -32.8836 1004.36 -31.8385C1004.32 -30.7327 1004.24 -29.0414 1004.02 -26.8083C1003.59 -22.3568 1002.73 -15.7191 1000.64 -7.49392C998.589 0.732416 995.231 10.5511 989.76 20.9818C984.182 31.3126 976.404 42.2777 965.497 51.8242C954.634 61.361 940.814 69.5276 924.767 74.816L921.749 75.8137L920.234 76.3168L920.044 76.3807C920.33 76.3052 920.008 76.3901 920.019 76.3872L919.616 76.494L918.808 76.7081C916.653 77.2785 914.485 77.8525 912.302 78.4292C907.944 79.5541 903.49 80.8766 899.123 81.6493C894.706 82.5102 890.319 83.545 885.74 84.3072C881.143 85.0364 876.502 85.7738 871.823 86.5168C853.003 89.1429 833.236 90.7584 813.086 93.3943C792.955 96.0075 772.41 99.9352 752.704 106.67L745.315 109.178C742.859 110.028 740.509 111.168 738.105 112.149L730.94 115.202L727.364 116.728L723.92 118.523C719.335 120.92 714.762 123.311 710.201 125.697C705.848 128.426 701.507 131.148 697.184 133.857C692.774 136.437 688.774 139.567 684.712 142.558C682.684 144.058 680.662 145.554 678.646 147.046C676.655 148.569 674.554 149.943 672.715 151.627C665.195 158.084 657.769 164.464 650.463 170.737C646.836 173.88 643.237 176.996 639.674 180.083L637.003 182.387L634.248 184.513C632.416 185.929 630.592 187.336 628.779 188.736C625.134 191.514 621.603 194.364 617.975 197.001C614.272 199.545 610.616 202.057 607.006 204.536C605.2 205.777 603.407 207.009 601.627 208.231C599.812 209.399 597.96 210.48 596.148 211.596C592.513 213.809 588.931 215.988 585.411 218.131C581.861 220.226 578.232 222.034 574.744 223.948C571.224 225.803 567.839 227.767 564.336 229.309C560.873 230.935 557.481 232.53 554.168 234.086C550.872 235.689 547.492 236.881 544.283 238.249C537.871 241.02 531.578 243.085 525.709 245.159C513.867 248.975 503.356 251.794 494.56 253.433C485.792 255.229 478.793 256.036 474.018 256.46C471.628 256.668 469.793 256.781 468.553 256.813C467.314 256.878 466.674 256.863 466.674 256.863C466.674 256.863 467.314 256.895 468.554 256.859C469.795 256.858 471.634 256.787 474.03 256.636C478.819 256.323 485.851 255.683 494.682 254.093C503.543 252.659 514.153 250.086 526.145 246.533C532.087 244.591 538.469 242.664 544.981 240.032C548.241 238.734 551.675 237.611 555.029 236.079C558.404 234.592 561.855 233.069 565.381 231.514C568.949 230.044 572.4 228.149 575.992 226.366C579.552 224.523 583.258 222.782 586.887 220.757C590.489 218.681 594.151 216.57 597.871 214.427C599.725 213.345 601.62 212.297 603.48 211.163C605.305 209.972 607.143 208.773 608.994 207.566C612.696 205.149 616.451 202.701 620.251 200.221C623.986 197.641 627.644 194.834 631.41 192.1C633.287 190.719 635.171 189.332 637.067 187.937L639.919 185.838L642.644 183.598C646.281 180.597 649.951 177.568 653.653 174.513C661.057 168.453 668.585 162.294 676.206 156.057C678.052 154.441 680.148 153.147 682.137 151.699C684.15 150.283 686.166 148.864 688.189 147.441C692.238 144.605 696.226 141.63 700.593 139.222C704.87 136.678 709.164 134.125 713.472 131.563C717.959 129.354 722.46 127.137 726.97 124.915L730.351 123.251L733.856 121.858L740.868 119.067C743.22 118.174 745.512 117.121 747.912 116.356L755.122 114.101C774.342 108.043 794.311 104.704 814.187 102.601C834.071 100.478 853.906 99.3331 873.181 97.115C878 96.4671 882.776 95.8268 887.508 95.1904C892.246 94.5167 896.987 93.5327 901.655 92.7252C906.408 91.9743 910.756 90.788 915.164 89.7617C917.36 89.2371 919.542 88.714 921.71 88.1957L922.524 88.0014L922.929 87.9034L923.307 87.8067L923.515 87.7439L925.171 87.2413L928.466 86.24C946.001 80.9245 961.641 72.2641 974.09 61.8326C986.602 51.3998 995.688 39.2389 1002.2 27.8072C1008.62 16.2723 1012.6 5.43532 1015.1 -3.64828C1017.64 -12.7379 1018.78 -20.0935 1019.39 -25.1708C1019.7 -27.7082 1019.84 -29.6923 1019.93 -31.0604C1019.97 -31.7841 1019.99 -32.3339 1020.01 -32.7019C1020.02 -33.0536 1020.03 -33.2327 1020.03 -33.2327L1004.4 -33.4227Z" fill="#170602"/>
<path d="M952.873 -42.6598C952.873 -42.6598 947.317 -43.3349 946.407 -43.5429C945.537 -43.7637 944.321 -44.0255 942.593 -44.4846C939.17 -45.3767 934.111 -46.7087 927.722 -48.7023C921.319 -50.6272 913.595 -53.2342 904.814 -56.454C900.408 -58.0224 895.812 -59.9468 890.91 -61.833C886.069 -63.8618 880.981 -66.0174 875.709 -68.3471C865.244 -73.1694 853.955 -78.5644 842.451 -85.0665C839.567 -86.6811 836.644 -88.3182 833.685 -89.9742C830.799 -91.7525 827.879 -93.5538 824.927 -95.3722C818.939 -98.8982 813.159 -102.994 807.193 -107.045C805.713 -108.075 804.181 -109.049 802.728 -110.136C801.281 -111.232 799.828 -112.334 798.371 -113.438C795.453 -115.649 792.513 -117.876 789.555 -120.115C786.616 -122.381 783.852 -124.887 780.965 -127.281C778.068 -129.741 775.156 -132.213 772.232 -134.694C769.257 -137.184 766.517 -139.743 763.282 -142.195C760.145 -144.673 757.011 -147.178 753.783 -149.441L748.97 -152.928L744.04 -156.245C740.777 -158.496 737.418 -160.594 734.052 -162.675C707.104 -179.321 678.245 -192.268 650.55 -202.261C622.828 -212.233 596.178 -219.202 573.019 -223.33C561.438 -225.393 550.726 -226.738 541.192 -227.393C531.66 -228.069 523.296 -228.006 516.466 -227.311C514.754 -227.214 513.149 -226.932 511.638 -226.708C510.126 -226.484 508.708 -226.296 507.417 -225.943C506.121 -225.633 504.923 -225.348 503.825 -225.086C502.759 -224.713 501.791 -224.374 500.924 -224.07C499.155 -223.553 497.977 -222.73 497.114 -222.347C496.272 -221.916 495.838 -221.693 495.838 -221.693C495.838 -221.693 496.28 -221.9 497.138 -222.302C498.016 -222.653 499.21 -223.428 500.991 -223.88C501.862 -224.151 502.835 -224.453 503.905 -224.786C505.005 -225.008 506.205 -225.249 507.502 -225.509C508.79 -225.814 510.209 -225.949 511.716 -226.12C513.223 -226.289 514.818 -226.511 516.524 -226.547C530.13 -227.477 549.661 -225.487 572.478 -220.591C595.304 -215.676 621.485 -207.818 648.539 -196.979C675.56 -186.128 703.556 -172.317 729.218 -155.164C732.423 -153.021 735.617 -150.865 738.699 -148.569L743.361 -145.187L747.888 -141.653C750.956 -139.337 753.798 -136.881 756.659 -134.458C759.53 -132.14 762.354 -129.326 765.187 -126.778C768.036 -124.179 770.874 -121.591 773.697 -119.015C776.585 -116.438 779.358 -113.747 782.302 -111.303C785.269 -108.884 788.217 -106.479 791.145 -104.091C792.609 -102.896 794.071 -101.706 795.526 -100.521C796.988 -99.3446 798.525 -98.2855 800.012 -97.1694C806.01 -92.7722 811.841 -88.3293 817.875 -84.4727C820.856 -82.4868 823.804 -80.5218 826.717 -78.5805C829.706 -76.7635 832.66 -74.9667 835.573 -73.1956C847.208 -66.0618 858.646 -60.0812 869.279 -54.7162C874.636 -52.1159 879.809 -49.7018 884.74 -47.4273C889.732 -45.2933 894.418 -43.1379 898.921 -41.3494C907.894 -37.6905 915.809 -34.7007 922.423 -32.4505C929.008 -30.1355 934.29 -28.5383 937.918 -27.4529C939.712 -26.9074 941.227 -26.5162 942.183 -26.2403C943.111 -25.9935 944.487 -27.2634 944.487 -27.2634L952.873 -42.6598Z" fill="#170602"/>
<path d="M731.865 115.906C731.865 115.906 730.356 119.27 727.528 125.159C724.704 131.032 720.583 139.392 715.325 149.255C712.685 154.18 709.791 159.499 706.577 165.03C703.409 170.592 699.876 176.333 696.107 182.195C692.273 188.002 688.233 193.972 683.643 199.61C681.336 202.482 679.011 205.378 676.678 208.283C674.426 211.301 672.064 214.273 669.921 217.355C665.492 223.437 661.346 229.705 657.347 235.921C653.356 242.142 649.619 248.381 646.087 254.466C644.371 257.536 642.683 260.554 641.03 263.509C639.453 266.504 637.909 269.434 636.406 272.285C634.98 275.177 633.594 277.989 632.252 280.708C630.993 283.467 629.776 286.133 628.607 288.692C627.527 291.289 626.491 293.778 625.506 296.145C624.527 298.513 623.775 300.834 622.975 302.972C622.146 305.102 621.605 307.179 621.021 309.067C620.433 310.954 619.924 312.697 619.618 314.313C619.264 315.914 618.949 317.343 618.674 318.587C618.524 319.853 618.397 320.928 618.294 321.801C618.091 323.544 617.984 324.474 617.984 324.474C617.984 324.474 618.117 323.548 618.368 321.811C618.496 320.944 618.653 319.875 618.836 318.62C619.145 317.388 619.501 315.97 619.897 314.385C620.246 312.786 620.8 311.064 621.44 309.199C622.076 307.333 622.669 305.287 623.555 303.185C624.413 301.075 625.222 298.792 626.265 296.46C627.311 294.13 628.411 291.682 629.559 289.126C630.792 286.611 632.079 283.992 633.41 281.28C634.821 278.61 636.279 275.849 637.779 273.011C639.354 270.215 640.973 267.341 642.627 264.405C644.353 261.511 646.116 258.555 647.91 255.547C651.594 249.593 655.484 243.492 659.621 237.421C663.767 231.358 668.059 225.249 672.612 219.353C674.828 216.348 677.209 213.523 679.496 210.624C681.912 207.784 684.319 204.952 686.707 202.144C691.584 196.481 695.852 190.536 699.912 184.744C703.898 178.909 707.639 173.192 710.996 167.665C714.403 162.164 717.472 156.878 720.276 151.983C725.861 142.18 730.252 133.867 733.268 128.016C736.276 122.177 737.929 118.754 737.929 118.754L731.865 115.906Z" fill="#170602"/>
<path d="M1232.34 23.1126C1232.34 23.1126 1232.3 23.1259 1232.24 23.1541C1232.21 23.1676 1231.93 23.2957 1232.36 23.0809C1232.66 22.9429 1233.05 22.797 1233.53 22.7158L1233.9 22.6685C1234.01 22.6582 1233.96 22.6548 1234 22.6477C1234.03 22.6361 1234.07 22.6275 1234.11 22.6226C1234.18 22.6119 1234.29 22.63 1234.36 22.6654C1234.29 22.633 1234.22 22.6075 1234.13 22.5973C1234.01 22.5539 1234.03 22.6669 1233.76 22.5401C1233.53 22.4591 1233.29 22.3716 1233.03 22.2787C1230.82 21.537 1226.34 18.7917 1221.08 14.1853C1219.77 12.9742 1218.39 11.6989 1216.94 10.3602C1215.49 9.02403 1214.08 7.40564 1212.54 5.84152C1209.43 2.75444 1206.35 -1.03917 1202.94 -4.92473C1199.61 -8.90574 1196.2 -13.3246 1192.57 -17.925C1189.1 -22.6972 1185.35 -27.6233 1181.62 -32.9372C1177.96 -38.3098 1174.03 -43.8161 1170.17 -49.6869C1166.36 -55.5899 1162.34 -61.6453 1158.34 -67.9613C1154.4 -74.3311 1150.36 -80.8736 1146.23 -87.562C1144.1 -90.9426 1141.94 -94.3603 1139.77 -97.8094C1138.73 -99.5116 1137.56 -101.231 1136.34 -102.958C1135.14 -104.683 1133.94 -106.417 1132.73 -108.157C1122.96 -121.867 1111.77 -135.232 1098.69 -147.17C1085.66 -159.109 1070.96 -169.642 1055.25 -178.129C1039.59 -186.726 1023.09 -193.32 1007.02 -199.557C990.958 -205.802 975.243 -211.909 961.64 -220.488C954.862 -224.771 948.611 -229.622 943.248 -235.153C937.909 -240.663 933.365 -246.864 929.611 -253.05C922.011 -266.178 916.434 -278.912 912.536 -291.414C908.772 -303.896 907.104 -315.818 906.644 -326.403C906.624 -329.052 906.391 -331.626 906.552 -334.101C906.664 -336.58 906.771 -338.969 906.874 -341.265C907.132 -343.55 907.379 -345.743 907.615 -347.837C907.823 -349.938 908.291 -351.9 908.589 -353.785C910.018 -361.29 911.801 -367.059 913.262 -370.889C914.73 -374.721 915.751 -376.664 915.751 -376.664C915.751 -376.664 914.669 -374.754 913.076 -370.963C911.489 -367.172 909.516 -361.445 907.837 -353.94C907.477 -352.053 906.943 -350.088 906.665 -347.981C906.36 -345.876 906.039 -343.674 905.705 -341.377C905.527 -339.062 905.341 -336.654 905.148 -334.154C904.907 -331.654 905.058 -329.053 904.994 -326.367C905.116 -315.641 906.422 -303.479 909.848 -290.654C913.342 -277.927 918.844 -264.301 925.938 -251.127C929.768 -244.313 934.224 -237.843 939.697 -231.8C945.161 -225.793 951.594 -220.464 958.543 -215.758C972.5 -206.329 988.443 -199.581 1004.27 -192.83C1020.13 -186.088 1036.04 -179.116 1050.85 -170.355C1065.71 -161.699 1079.36 -151.225 1091.4 -139.477C1103.46 -127.756 1113.77 -114.6 1122.63 -101.294C1123.71 -99.6263 1124.79 -97.9653 1125.86 -96.3125C1126.95 -94.6837 1128.01 -93.0165 1129.01 -91.241C1131.03 -87.8012 1133.03 -84.3937 1135.01 -81.0235C1138.97 -74.1306 1142.85 -67.3874 1146.62 -60.8234C1150.47 -54.2973 1154.35 -48.0156 1158.03 -41.8997C1161.76 -35.808 1165.61 -30.0437 1169.17 -24.4394C1172.81 -18.8782 1176.53 -13.6613 1179.94 -8.63674C1183.57 -3.71961 1186.96 0.974688 1190.35 5.28951C1193.84 9.5501 1196.94 13.6222 1200.27 17.1669C1201.92 18.9522 1203.37 20.7172 1204.98 22.3075C1206.6 23.8971 1208.13 25.4127 1209.59 26.8507C1215.71 32.4853 1221.32 36.6099 1226.8 38.8082C1227.51 39.067 1228.17 39.3131 1228.8 39.5409C1229.37 39.7762 1230.25 39.9038 1230.89 40.0485C1231.57 40.1685 1232.2 40.2787 1232.78 40.3784C1233.51 40.4272 1234.21 40.4297 1234.82 40.4204C1235.12 40.4105 1235.41 40.4002 1235.68 40.3924C1235.83 40.3801 1235.89 40.3899 1236.11 40.3592C1236.35 40.3212 1236.57 40.2833 1236.79 40.2478C1237.66 40.0844 1238.38 39.8679 1238.94 39.6748C1239.46 39.4768 1239.73 39.3756 1239.73 39.3756L1232.34 23.1126Z" fill="#170602"/>
<path d="M1296.37 84.5619C1296.37 84.5619 1296.26 84.4127 1296.04 84.119C1295.81 83.8133 1295.45 83.3565 1294.99 82.7549C1294.11 81.6737 1292.83 80.1213 1291.05 78.2736C1287.51 74.578 1282.04 69.4432 1273.85 64.5059C1265.76 59.5636 1254.56 55.0408 1241.2 54.0812C1234.56 53.604 1227.45 54.0103 1220.26 55.469C1213.09 56.9639 1205.87 59.454 1198.77 62.7215C1191.61 65.9239 1184.82 70.2297 1178.02 74.8839C1174.71 77.3177 1171.31 79.7459 1168.11 82.4826C1164.79 85.0977 1161.66 87.9711 1158.47 90.8763L1157.27 91.9642L1156.67 92.5085L1156.25 92.8981L1155.97 93.1764L1153.73 95.4117C1152.23 96.9072 1150.72 98.4114 1149.2 99.9239C1146.21 103.217 1142.98 106.533 1140.13 110.011C1134.22 116.855 1128.8 124.313 1123.51 132.01C1118.38 139.815 1113.5 147.928 1108.98 156.341C1104.5 164.769 1100.29 173.429 1096.3 182.239C1088.37 199.865 1081.32 218.06 1073.71 235.821C1066.04 253.524 1057.82 271.006 1046.67 286.013C1041.11 293.501 1034.83 300.325 1027.81 306.113C1020.81 311.931 1013.07 316.604 1005.01 320.349C988.58 327.969 971.966 333.497 955.925 337.953C939.881 342.386 924.43 345.686 910.218 349.078C896.002 352.429 883.004 356.021 871.962 360.559C860.911 365.082 852.027 370.768 845.642 376.459C839.31 382.229 835.283 387.676 832.87 391.539C831.584 393.424 830.834 395.016 830.217 396.02C829.635 397.044 829.336 397.572 829.336 397.572C829.336 397.572 829.652 397.051 830.263 396.044C830.91 395.06 831.702 393.494 833.038 391.648C835.553 387.867 839.719 382.563 846.146 377.037C852.628 371.588 861.538 366.242 872.57 362.09C883.601 357.925 896.562 354.734 910.826 351.802C925.084 348.826 940.656 345.968 956.969 341.962C973.249 337.944 990.365 332.788 1007.26 325.534C1015.85 321.848 1024.23 317.114 1031.85 311.142C1039.49 305.202 1046.37 298.139 1052.44 290.427C1064.63 274.955 1073.58 257.169 1081.86 239.468C1090.09 221.696 1097.62 203.802 1105.9 186.729C1110.06 178.207 1114.4 169.898 1118.96 161.877C1123.56 153.879 1128.47 146.239 1133.56 138.939C1138.81 131.76 1144.15 124.841 1149.9 118.556C1151.29 116.92 1152.75 115.441 1154.19 113.958C1155.63 112.47 1157.06 110.989 1158.49 109.52C1160.05 108.051 1161.6 106.59 1163.15 105.14L1165.45 102.971L1165.74 102.7C1165.81 102.629 1165.61 102.828 1165.76 102.685L1165.91 102.561L1166.49 102.067L1167.64 101.079C1170.71 98.4408 1173.73 95.828 1176.87 93.5038C1179.91 91.0381 1183.09 88.9198 1186.18 86.777C1192.46 82.7381 1198.67 79.0446 1204.94 76.4741C1211.17 73.826 1217.3 71.9234 1223.18 70.8684C1229.07 69.8548 1234.68 69.7209 1239.83 70.2401C1250.16 71.2978 1258.61 74.9761 1264.87 79.0531C1271.17 83.1054 1275.44 87.3432 1278.1 90.2889C1279.45 91.7676 1280.35 92.9486 1280.94 93.7075C1281.19 94.0458 1281.37 94.3023 1281.5 94.4733C1281.63 94.6659 1281.7 94.7647 1281.7 94.7647L1296.37 84.5619Z" fill="#170602"/>
<path d="M1086.88 210.032C1086.88 210.032 1086.33 210.342 1085.3 210.921C1084.25 211.487 1082.7 212.317 1080.74 213.373C1076.79 215.447 1071.08 218.338 1064.07 221.448C1060.56 222.981 1056.74 224.602 1052.64 226.148C1050.58 226.903 1048.48 227.72 1046.3 228.411C1044.12 229.168 1041.89 229.857 1039.6 230.49C1037.32 231.208 1034.96 231.663 1032.59 232.255C1031.4 232.505 1030.19 232.684 1028.98 232.904C1027.77 233.138 1026.55 233.327 1025.33 233.41C1024.12 233.515 1022.84 233.682 1021.68 233.74C1020.39 233.783 1019.12 233.799 1017.93 233.741C1015.47 233.651 1012.93 233.41 1010.43 233.037C1000.36 231.561 990.373 228.733 980.851 226.777C971.349 224.747 962.215 223.576 954.396 224.094C950.494 224.337 946.945 224.951 943.895 225.826C940.86 226.744 938.293 227.783 936.297 228.866C934.296 229.928 932.785 230.878 931.816 231.605C930.83 232.31 930.306 232.686 930.306 232.686C930.306 232.686 930.846 232.332 931.857 231.668C932.851 230.983 934.398 230.097 936.424 229.124C938.446 228.131 941.029 227.207 944.053 226.424C947.091 225.683 950.601 225.223 954.439 225.141C962.133 224.946 971.044 226.452 980.375 228.845C985.052 230.021 989.855 231.384 994.772 232.727C999.692 234.057 1004.72 235.399 1009.89 236.344C1012.48 236.835 1015.07 237.196 1017.76 237.403C1019.13 237.519 1020.43 237.552 1021.7 237.561C1023.1 237.55 1024.35 237.433 1025.68 237.371C1027 237.331 1028.29 237.185 1029.57 236.993C1030.85 236.814 1032.13 236.674 1033.39 236.462C1035.87 235.95 1038.37 235.564 1040.75 234.923C1043.15 234.363 1045.49 233.745 1047.75 233.059C1050.04 232.433 1052.22 231.687 1054.36 230.995C1058.63 229.582 1062.61 228.083 1066.26 226.661C1073.54 223.775 1079.48 221.066 1083.61 219.108C1085.67 218.104 1087.29 217.316 1088.39 216.778C1089.5 216.216 1090.08 215.915 1090.08 215.915L1086.88 210.032Z" fill="#170602"/>
<path d="M890.035 86.0071C890.035 86.0071 889.852 86.1199 889.498 86.3389C889.136 86.5791 888.54 86.9399 887.871 87.4041C886.507 88.3346 884.533 89.6996 882.155 91.5794C879.749 93.4279 876.948 95.8019 873.849 98.6399C872.278 100.036 870.729 101.649 869.032 103.28C867.393 104.969 865.708 106.781 863.959 108.675C860.569 112.563 857.002 116.869 853.627 121.713C851.942 124.137 850.19 126.607 848.629 129.287C847.822 130.607 847.005 131.941 846.181 133.288C845.437 134.68 844.684 136.085 843.925 137.502C843.187 138.93 842.368 140.328 841.683 141.809C841.007 143.293 840.327 144.787 839.641 146.292C838.188 149.261 837.084 152.423 835.885 155.569C833.536 161.761 831.326 168.186 828.579 174.209C825.894 180.314 822.853 186.309 819.664 192.083C818.091 194.985 816.337 197.755 814.71 200.555C813.024 203.319 811.227 205.967 809.53 208.618C807.762 211.221 805.941 213.727 804.203 216.211C802.362 218.621 800.56 220.977 798.806 223.271C796.957 225.489 795.158 227.648 793.418 229.735C791.588 231.745 789.818 233.687 788.119 235.55C786.335 237.332 784.625 239.04 782.999 240.664C781.291 242.201 779.67 243.66 778.145 245.031C776.539 246.304 775.036 247.496 773.646 248.597C772.178 249.593 770.83 250.506 769.612 251.332C768.387 252.148 767.173 252.673 766.179 253.239C765.19 253.828 764.276 254.16 763.525 254.405C762.037 254.937 761.243 255.221 761.243 255.221C761.243 255.221 762.045 254.962 763.551 254.476C764.313 254.254 765.242 253.947 766.251 253.388C767.265 252.853 768.505 252.36 769.759 251.579C771.01 250.787 772.394 249.911 773.902 248.956C775.334 247.891 776.883 246.74 778.537 245.509C780.111 244.178 781.788 242.762 783.554 241.27C785.241 239.686 787.014 238.023 788.865 236.284C790.631 234.462 792.473 232.564 794.378 230.599C796.194 228.551 798.074 226.436 800.004 224.259C801.842 222.002 803.73 219.685 805.66 217.317C807.489 214.87 809.404 212.4 811.269 209.829C813.063 207.209 814.96 204.592 816.75 201.854C818.482 199.08 820.342 196.333 822.023 193.448C825.433 187.699 828.69 181.751 831.63 175.592C834.67 169.417 837.041 163.139 839.597 156.99C840.86 153.969 842.02 150.936 843.522 148.098C844.231 146.661 844.935 145.234 845.633 143.815C846.34 142.401 847.18 141.071 847.937 139.712C848.713 138.364 849.481 137.028 850.242 135.703C851.08 134.426 851.909 133.161 852.73 131.91C854.314 129.37 856.083 127.036 857.78 124.75C861.177 120.18 864.745 116.143 868.116 112.507C869.854 110.737 871.526 109.049 873.147 107.478C874.826 105.967 876.353 104.465 877.898 103.179C880.944 100.558 883.686 98.3759 886.015 96.7008C888.321 94.9881 890.206 93.7734 891.479 92.9604C892.101 92.5787 892.577 92.2868 892.899 92.0905C893.246 91.8899 893.426 91.7863 893.426 91.7863L890.035 86.0071Z" fill="#170602"/>
<path d="M664.037 227.172C664.037 227.172 659.773 227.59 653.541 228.793C650.422 229.407 646.795 230.169 642.96 231.198C639.115 232.184 635.072 233.447 631.076 234.835C629.104 235.604 627.098 236.278 625.19 237.112C623.29 237.966 621.369 238.681 619.615 239.613C617.852 240.521 616.094 241.286 614.547 242.243C612.989 243.177 611.456 243.954 610.154 244.858C608.844 245.747 607.643 246.561 606.579 247.284C605.528 248.022 604.692 248.775 603.963 249.34C602.528 250.497 601.71 251.159 601.71 251.159C601.71 251.159 602.551 250.525 604.024 249.415C604.77 248.876 605.627 248.153 606.7 247.452C607.784 246.769 609.006 245.997 610.34 245.156C611.663 244.299 613.219 243.577 614.795 242.702C616.361 241.802 618.138 241.098 619.915 240.256C621.681 239.391 623.619 238.744 625.527 237.959C627.445 237.196 629.461 236.592 631.437 235.896C635.444 234.651 639.487 233.533 643.325 232.684C647.153 231.791 650.767 231.158 653.868 230.653C660.087 229.666 664.233 229.401 664.233 229.401L664.037 227.172Z" fill="#170602"/>
<path d="M935.924 343.807C935.924 343.807 933.043 345.711 929.252 349.06C925.421 352.378 920.672 357.212 916.605 362.583C915.558 363.902 914.595 365.282 913.673 366.657C912.705 368.001 911.886 369.412 911.069 370.757C910.219 372.083 909.54 373.447 908.866 374.722C908.167 375.984 907.576 377.211 907.091 378.373C906.589 379.527 906.093 380.566 905.718 381.514C905.371 382.473 905.068 383.309 904.819 383.999C904.321 385.375 904.036 386.162 904.036 386.162C904.036 386.162 904.354 385.389 904.908 384.034C905.185 383.358 905.523 382.537 905.908 381.595C906.321 380.666 906.86 379.649 907.406 378.525C907.936 377.391 908.575 376.197 909.322 374.972C910.044 373.734 910.771 372.413 911.671 371.132C912.538 369.833 913.404 368.473 914.417 367.184C915.386 365.863 916.392 364.54 917.48 363.283C921.713 358.151 926.582 353.597 930.466 350.507C934.34 347.367 937.131 345.69 937.131 345.69L935.924 343.807Z" fill="#170602"/>
</g>
</g>
<defs>
<filter id="filter0_f_0_4359" x="87.4375" y="-863.16" width="1669.59" height="1485.21" filterUnits="userSpaceOnUse" color-interpolation-filters="sRGB">
<feFlood flood-opacity="0" result="BackgroundImageFix"/>
<feBlend mode="normal" in="SourceGraphic" in2="BackgroundImageFix" result="shape"/>
<feGaussianBlur stdDeviation="5.5" result="effect1_foregroundBlur_0_4359"/>
</filter>
</defs>
</svg>
