<svg width="320" height="222" viewBox="0 0 320 222" fill="none" xmlns="http://www.w3.org/2000/svg">
<g filter="url(#filter0_f_0_6623)">
<mask id="mask0_0_6623" style="mask-type:luminance" maskUnits="userSpaceOnUse" x="-170" y="-268" width="610" height="490">
<path d="M-170 -192.53L383.442 -268L439.961 146.471L-113.481 221.941L-170 -192.53Z" fill="white"/>
</mask>
<g mask="url(#mask0_0_6623)">
<path d="M229.748 99.5683C226.618 99.9146 224.863 98.6713 224.669 96.9197C224.476 95.1697 225.916 93.5725 229.046 93.2262C232.176 92.8801 236.004 95.6653 236.004 95.6653C236.004 95.6653 232.878 99.2222 229.748 99.5683Z" fill="#5DA131"/>
<path d="M229.748 99.5683C226.618 99.9146 224.863 98.6713 224.669 96.9197L236.004 95.6654C236.004 95.6654 232.878 99.2222 229.748 99.5683Z" fill="#307502"/>
<path d="M233.09 95.0881L231.994 96.1102L231.485 96.1662L233.09 95.0881Z" fill="#307502"/>
<path d="M234.441 95.3098L233.797 95.9106L233.498 95.9434L234.441 95.3098Z" fill="#307502"/>
<path d="M231.584 94.719L229.837 96.3486L229.025 96.4385L231.584 94.719Z" fill="#307502"/>
<path d="M229.595 94.395L227.186 96.6419L226.067 96.7658L229.595 94.395Z" fill="#307502"/>
<path d="M233.765 96.734L232.588 96.044L232.124 96.0948L233.765 96.734Z" fill="#5DA131"/>
<path d="M234.922 96.2673L234.231 95.8616L233.958 95.892L234.922 96.2673Z" fill="#5DA131"/>
<path d="M232.5 97.362L230.622 96.2611L229.883 96.3429L232.5 97.362Z" fill="#5DA131"/>
<path d="M230.796 98.046L228.207 96.5285L227.188 96.641L230.796 98.046Z" fill="#5DA131"/>
<path d="M223.839 97.2899L223.778 96.739L225.18 96.6831L225.219 97.038L223.839 97.2899Z" fill="#307502"/>
<path d="M225.2 96.8608L223.808 97.0151L223.778 96.739L225.18 96.6831L225.2 96.8608Z" fill="#5DA131"/>
<path d="M252.979 128.487C249.849 128.833 248.094 127.59 247.9 125.838C247.707 124.088 249.147 122.491 252.277 122.145C255.407 121.799 259.236 124.584 259.236 124.584C259.236 124.584 256.109 128.141 252.979 128.487Z" fill="#5DA131"/>
<path d="M252.979 128.487C249.849 128.833 248.094 127.59 247.9 125.838L259.235 124.584C259.235 124.584 256.109 128.141 252.979 128.487Z" fill="#307502"/>
<path d="M256.32 124.007L255.224 125.029L254.716 125.085L256.32 124.007Z" fill="#307502"/>
<path d="M257.672 124.229L257.028 124.829L256.729 124.862L257.672 124.229Z" fill="#307502"/>
<path d="M254.815 123.638L253.068 125.267L252.256 125.357L254.815 123.638Z" fill="#307502"/>
<path d="M252.826 123.314L250.417 125.561L249.298 125.684L252.826 123.314Z" fill="#307502"/>
<path d="M256.996 125.653L255.818 124.963L255.355 125.014L256.996 125.653Z" fill="#5DA131"/>
<path d="M258.153 125.186L257.461 124.781L257.189 124.811L258.153 125.186Z" fill="#5DA131"/>
<path d="M255.732 126.281L253.854 125.18L253.114 125.262L255.732 126.281Z" fill="#5DA131"/>
<path d="M254.027 126.965L251.438 125.447L250.419 125.56L254.027 126.965Z" fill="#5DA131"/>
<path d="M247.07 126.209L247.009 125.658L248.411 125.602L248.45 125.957L247.07 126.209Z" fill="#307502"/>
<path d="M248.431 125.78L247.039 125.934L247.009 125.658L248.411 125.602L248.431 125.78Z" fill="#5DA131"/>
<path d="M223.543 107.263C223.613 104.114 225.078 102.539 226.839 102.578C228.6 102.617 229.993 104.256 229.922 107.405C229.852 110.553 226.585 113.98 226.585 113.98C226.585 113.98 223.473 110.411 223.543 107.263Z" fill="#5DA131"/>
<path d="M223.543 107.263C223.613 104.114 225.078 102.539 226.839 102.578L226.585 113.98C226.585 113.98 223.473 110.411 223.543 107.263Z" fill="#307502"/>
<path d="M227.543 111.166L226.675 109.945L226.686 109.433L227.543 111.166Z" fill="#307502"/>
<path d="M227.145 112.477L226.634 111.76L226.641 111.459L227.145 112.477Z" fill="#307502"/>
<path d="M228.108 109.724L226.724 107.776L226.741 106.96L228.108 109.724Z" fill="#307502"/>
<path d="M228.692 107.794L226.783 105.109L226.808 103.983L228.692 107.794Z" fill="#307502"/>
<path d="M225.822 111.618L226.662 110.542L226.672 110.076L225.822 111.618Z" fill="#5DA131"/>
<path d="M226.132 112.827L226.625 112.195L226.631 111.921L226.132 112.827Z" fill="#5DA131"/>
<path d="M225.367 110.283L226.706 108.567L226.723 107.822L225.367 110.283Z" fill="#5DA131"/>
<path d="M224.914 108.503L226.761 106.137L226.783 105.111L224.914 108.503Z" fill="#5DA131"/>
<path d="M226.582 101.706L227.137 101.719L227.007 103.116L226.65 103.108L226.582 101.706Z" fill="#307502"/>
<path d="M226.828 103.112L226.859 101.713L227.137 101.719L227.007 103.116L226.828 103.112Z" fill="#5DA131"/>
<path d="M201.088 96.1435C201.158 92.9945 202.623 91.4198 204.384 91.4587C206.145 91.4977 207.537 93.1365 207.467 96.2855C207.397 99.4328 204.13 102.86 204.13 102.86C204.13 102.86 201.018 99.2914 201.088 96.1435Z" fill="#5DA131"/>
<path d="M201.088 96.1435C201.159 92.9945 202.623 91.4199 204.384 91.4587L204.13 102.861C204.13 102.861 201.018 99.2914 201.088 96.1435Z" fill="#307502"/>
<path d="M205.088 100.047L204.22 98.826L204.231 98.3142L205.088 100.047Z" fill="#307502"/>
<path d="M204.69 101.358L204.18 100.64L204.186 100.34L204.69 101.358Z" fill="#307502"/>
<path d="M205.653 98.6041L204.268 96.6569L204.286 95.8399L205.653 98.6041Z" fill="#307502"/>
<path d="M206.237 96.6749L204.328 93.9897L204.353 92.8639L206.237 96.6749Z" fill="#307502"/>
<path d="M203.367 100.499L204.207 99.423L204.217 98.9571L203.367 100.499Z" fill="#5DA131"/>
<path d="M203.677 101.708L204.17 101.076L204.176 100.802L203.677 101.708Z" fill="#5DA131"/>
<path d="M202.912 99.1633L204.251 97.4468L204.268 96.7032L202.912 99.1633Z" fill="#5DA131"/>
<path d="M202.459 97.3833L204.305 95.0176L204.328 93.9918L202.459 97.3833Z" fill="#5DA131"/>
<path d="M204.127 90.5867L204.682 90.5995L204.552 91.9967L204.195 91.9885L204.127 90.5867Z" fill="#307502"/>
<path d="M204.373 91.9924L204.404 90.5929L204.682 90.5995L204.552 91.9968L204.373 91.9924Z" fill="#5DA131"/>
<path d="M203.569 14.1743C200.439 14.5205 198.684 13.2772 198.49 11.5256C198.297 9.77513 199.737 8.17843 202.867 7.83215C205.997 7.48602 209.826 10.2713 209.826 10.2713C209.826 10.2713 206.699 13.8281 203.569 14.1743Z" fill="#5DA131"/>
<path d="M203.569 14.1743C200.439 14.5206 198.684 13.2772 198.49 11.5257L209.825 10.2714C209.825 10.2714 206.699 13.8282 203.569 14.1743Z" fill="#307502"/>
<path d="M206.911 9.6936L205.815 10.7157L205.306 10.7722L206.911 9.6936Z" fill="#307502"/>
<path d="M208.262 9.91583L207.618 10.5166L207.319 10.5494L208.262 9.91583Z" fill="#307502"/>
<path d="M205.406 9.32434L203.658 10.9546L202.846 11.0444L205.406 9.32434Z" fill="#307502"/>
<path d="M203.416 9.00098L201.006 11.2479L199.887 11.3717L203.416 9.00098Z" fill="#307502"/>
<path d="M207.586 11.3395L206.408 10.6494L205.945 10.7008L207.586 11.3395Z" fill="#5DA131"/>
<path d="M208.744 10.8733L208.052 10.4676L207.779 10.498L208.744 10.8733Z" fill="#5DA131"/>
<path d="M206.322 11.968L204.444 10.8671L203.704 10.9488L206.322 11.968Z" fill="#5DA131"/>
<path d="M204.618 12.6519L202.028 11.134L201.009 11.2471L204.618 12.6519Z" fill="#5DA131"/>
<path d="M197.66 11.8959L197.599 11.3445L199.001 11.2891L199.04 11.644L197.66 11.8959Z" fill="#307502"/>
<path d="M199.021 11.4668L197.629 11.621L197.599 11.3445L199.001 11.2891L199.021 11.4668Z" fill="#5DA131"/>
<path d="M34.9662 72.7245C31.8357 73.0708 30.0809 71.8274 29.8872 70.0759C29.6936 68.3254 31.1338 66.7286 34.2643 66.3824C37.3937 66.0362 41.2225 68.8215 41.2225 68.8215C41.2225 68.8215 38.0951 72.3784 34.9662 72.7245Z" fill="#5DA131"/>
<path d="M34.9663 72.7245C31.8357 73.0708 30.081 71.8274 29.8872 70.0759L41.2225 68.8215C41.2225 68.8215 38.0952 72.3784 34.9663 72.7245Z" fill="#307502"/>
<path d="M38.3072 68.2444L37.2114 69.2665L36.7022 69.323L38.3072 68.2444Z" fill="#307502"/>
<path d="M39.6588 68.4665L39.0151 69.0667L38.7157 69.0997L39.6588 68.4665Z" fill="#307502"/>
<path d="M36.8024 67.8752L35.0543 69.5048L34.2429 69.5946L36.8024 67.8752Z" fill="#307502"/>
<path d="M34.8122 67.5518L32.403 69.7981L31.284 69.922L34.8122 67.5518Z" fill="#307502"/>
<path d="M38.9826 69.8903L37.805 69.2002L37.3413 69.2516L38.9826 69.8903Z" fill="#5DA131"/>
<path d="M40.1399 69.4235L39.4482 69.0184L39.1755 69.0482L40.1399 69.4235Z" fill="#5DA131"/>
<path d="M37.7186 70.5181L35.8401 69.4174L35.1009 69.499L37.7186 70.5181Z" fill="#5DA131"/>
<path d="M36.0142 71.2021L33.4249 69.6847L32.4053 69.7973L36.0142 71.2021Z" fill="#5DA131"/>
<path d="M29.0566 70.4467L28.9955 69.8953L30.3978 69.8393L30.4372 70.1942L29.0566 70.4467Z" fill="#307502"/>
<path d="M30.4176 70.0176L29.0264 70.1712L28.9955 69.8953L30.3978 69.8393L30.4176 70.0176Z" fill="#5DA131"/>
<path d="M189.082 58.258C187.868 55.3511 188.568 53.3176 190.194 52.6392C191.82 51.9609 193.757 52.8941 194.97 55.8004C196.183 58.7058 194.587 63.1638 194.587 63.1638C194.587 63.1638 190.294 61.1639 189.082 58.258Z" fill="#5DA131"/>
<path d="M189.082 58.258C187.869 55.3511 188.568 53.3175 190.194 52.6391L194.587 63.1643C194.587 63.1643 190.294 61.1638 189.082 58.258Z" fill="#307502"/>
<path d="M194.321 60.2038L193.032 59.4399L192.835 58.9673L194.321 60.2038Z" fill="#307502"/>
<path d="M194.488 61.5633L193.731 61.1147L193.615 60.8367L194.488 61.5633Z" fill="#307502"/>
<path d="M194.252 58.6562L192.197 57.4375L191.882 56.6839L194.252 58.6562Z" fill="#307502"/>
<path d="M194.003 56.6556L191.169 54.9754L190.735 53.9364L194.003 56.6556Z" fill="#307502"/>
<path d="M192.932 61.315L193.262 59.9908L193.083 59.5603L192.932 61.315Z" fill="#5DA131"/>
<path d="M193.704 62.2948L193.899 61.5167L193.793 61.264L193.704 62.2948Z" fill="#5DA131"/>
<path d="M191.974 60.2787L192.501 58.1666L192.215 57.4801L191.974 60.2787Z" fill="#5DA131"/>
<path d="M190.838 58.8354L191.565 55.9243L191.171 54.9775L190.838 58.8354Z" fill="#5DA131"/>
<path d="M189.606 51.9465L190.118 51.733L190.566 53.0626L190.236 53.2L189.606 51.9465Z" fill="#307502"/>
<path d="M190.4 53.1314L189.861 51.8401L190.118 51.733L190.566 53.0626L190.4 53.1314Z" fill="#5DA131"/>
<path d="M212.133 69.8771C209.033 70.4346 207.198 69.3126 206.886 67.5789C206.574 65.8456 207.904 64.1547 211.003 63.5973C214.102 63.04 218.11 65.56 218.11 65.56C218.11 65.56 215.231 69.3199 212.133 69.8771Z" fill="#5DA131"/>
<path d="M212.133 69.8771C209.033 70.4346 207.198 69.3126 206.886 67.5789L218.111 65.56C218.111 65.56 215.231 69.3199 212.133 69.8771Z" fill="#307502"/>
<path d="M215.163 65.1807L214.138 66.2748L213.634 66.3655L215.163 65.1807Z" fill="#307502"/>
<path d="M216.526 65.3105L215.924 65.9534L215.628 66.0068L216.526 65.3105Z" fill="#307502"/>
<path d="M213.636 64.9142L212.003 66.6584L211.199 66.803L213.636 64.9142Z" fill="#307502"/>
<path d="M211.629 64.7262L209.377 67.1309L208.269 67.3305L211.629 64.7262Z" fill="#307502"/>
<path d="M215.948 66.7772L214.726 66.1681L214.267 66.2511L215.948 66.7772Z" fill="#5DA131"/>
<path d="M217.071 66.2334L216.353 65.8757L216.084 65.9238L217.071 66.2334Z" fill="#5DA131"/>
<path d="M214.729 67.4892L212.781 66.518L212.048 66.65L214.729 67.4892Z" fill="#5DA131"/>
<path d="M213.075 68.2869L210.389 66.9484L209.38 67.13L213.075 68.2869Z" fill="#5DA131"/>
<path d="M206.083 68.0041L205.985 67.4583L207.38 67.3075L207.443 67.6591L206.083 68.0041Z" fill="#307502"/>
<path d="M207.411 67.4842L206.034 67.7317L205.985 67.4582L207.38 67.3075L207.411 67.4842Z" fill="#5DA131"/>
<path d="M184.184 10.3066C182.971 7.40029 183.671 5.36621 185.297 4.68781C186.922 4.00957 188.86 4.94274 190.073 7.84909C191.285 10.755 189.69 15.2124 189.69 15.2124C189.69 15.2124 185.397 13.212 184.184 10.3066Z" fill="#5DA131"/>
<path d="M184.184 10.3066C182.971 7.40026 183.671 5.36618 185.297 4.68779L189.69 15.2129C189.69 15.2129 185.397 13.2119 184.184 10.3066Z" fill="#307502"/>
<path d="M189.424 12.2524L188.134 11.4885L187.937 11.0158L189.424 12.2524Z" fill="#307502"/>
<path d="M189.591 13.6118L188.833 13.1627L188.718 12.8853L189.591 13.6118Z" fill="#307502"/>
<path d="M189.355 10.7042L187.299 9.48556L186.985 8.73184L189.355 10.7042Z" fill="#307502"/>
<path d="M189.105 8.70369L186.272 7.024L185.838 5.98499L189.105 8.70369Z" fill="#307502"/>
<path d="M188.035 13.3635L188.365 12.0393L188.186 11.6089L188.035 13.3635Z" fill="#5DA131"/>
<path d="M188.807 14.3428L189.002 13.5648L188.897 13.3119L188.807 14.3428Z" fill="#5DA131"/>
<path d="M187.076 12.3273L187.604 10.2151L187.318 9.52868L187.076 12.3273Z" fill="#5DA131"/>
<path d="M185.94 10.884L186.668 7.97227L186.273 7.02547L185.94 10.884Z" fill="#5DA131"/>
<path d="M184.708 3.99518L185.22 3.78106L185.668 5.11127L185.339 5.24867L184.708 3.99518Z" fill="#307502"/>
<path d="M185.503 5.18003L184.964 3.88819L185.22 3.78106L185.668 5.11127L185.503 5.18003Z" fill="#5DA131"/>
<path d="M139.148 16.316C135.121 14.581 133.853 11.8687 134.823 9.6156C135.793 7.36372 138.636 6.42252 142.663 8.15706C146.689 9.89119 149.406 15.8975 149.406 15.8975C149.406 15.8975 143.174 18.0502 139.148 16.316Z" fill="#5DA131"/>
<path d="M139.148 16.316C135.121 14.5809 133.853 11.8687 134.823 9.61558L149.406 15.8981C149.406 15.8981 143.174 18.0502 139.148 16.316Z" fill="#307502"/>
<path d="M146.275 13.1925L144.246 13.6756L143.591 13.3933L146.275 13.1925Z" fill="#307502"/>
<path d="M147.758 14.3917L146.566 14.6749L146.181 14.5092L147.758 14.3917Z" fill="#307502"/>
<path d="M144.708 11.71L141.471 12.4805L140.427 12.0304L144.708 11.71Z" fill="#307502"/>
<path d="M142.522 9.94917L138.06 11.0109L136.62 10.3904L142.522 9.94917Z" fill="#307502"/>
<path d="M145.96 15.6499L145.01 14.0037L144.413 13.7468L145.96 15.6499Z" fill="#5DA131"/>
<path d="M147.682 15.8813L147.124 14.9145L146.773 14.7633L147.682 15.8813Z" fill="#5DA131"/>
<path d="M143.998 15.5397L142.482 12.9148L141.531 12.505L143.998 15.5397Z" fill="#5DA131"/>
<path d="M141.464 15.1946L139.375 11.5763L138.063 11.0116L141.464 15.1946Z" fill="#5DA131"/>
<path d="M133.563 9.49256L133.869 8.78342L135.604 9.68047L135.408 10.1368L133.563 9.49256Z" fill="#307502"/>
<path d="M135.506 9.90922L133.716 9.13853L133.869 8.78342L135.604 9.68047L135.506 9.90922Z" fill="#5DA131"/>
<path d="M156.112 -3.55312C153.358 -8.56572 154.227 -12.3732 157.032 -13.9142C159.834 -15.4543 163.514 -14.1454 166.268 -9.13275C169.021 -4.12167 167.005 4.23726 167.005 4.23726C167.005 4.23726 158.866 1.45789 156.112 -3.55312Z" fill="#5DA131"/>
<path d="M156.112 -3.55311C153.358 -8.56571 154.227 -12.3732 157.032 -13.9142L167.004 4.23735C167.004 4.23735 158.866 1.4579 156.112 -3.55311Z" fill="#307502"/>
<path d="M166.516 1.36582L165.061 0.702252L164.798 0.223395L166.516 1.36582Z" fill="#307502"/>
<path d="M163.657 1.21954L163.998 -1.23581L163.59 -1.97787L163.657 1.21954Z" fill="#5DA131"/>
<path d="M165.243 2.83822L165.444 1.39533L165.204 0.959576L165.243 2.83822Z" fill="#5DA131"/>
<path d="M305.581 1.64847C304.372 -1.26014 305.075 -3.29238 306.702 -3.96864C308.328 -4.64419 310.264 -3.70855 311.473 -0.800485C312.681 2.1071 311.079 6.56261 311.079 6.56261C311.079 6.56261 306.789 4.5555 305.581 1.64847Z" fill="#5DA131"/>
<path d="M305.581 1.64853C304.372 -1.26008 305.074 -3.29232 306.702 -3.96858L311.079 6.56267C311.079 6.56267 306.789 4.55556 305.581 1.64853Z" fill="#307502"/>
<path d="M310.817 3.60211L309.529 2.8357L309.332 2.3631L310.817 3.60211Z" fill="#307502"/>
<path d="M310.982 4.96183L310.226 4.51141L310.11 4.23402L310.982 4.96183Z" fill="#307502"/>
<path d="M310.75 2.05358L308.696 0.832421L308.383 0.078004L310.75 2.05358Z" fill="#307502"/>
<path d="M310.504 0.0532037L307.673 -1.63074L307.241 -2.67052L310.504 0.0532037Z" fill="#307502"/>
<path d="M309.426 4.71121L309.759 3.38724L309.58 2.95669L309.426 4.71121Z" fill="#5DA131"/>
<path d="M310.198 5.69166L310.393 4.91412L310.288 4.66068L310.198 5.69166Z" fill="#5DA131"/>
<path d="M308.469 3.67304L309.001 1.56212L308.715 0.87504L308.469 3.67304Z" fill="#5DA131"/>
<path d="M307.335 2.22831L308.068 -0.681759L307.674 -1.62928L307.335 2.22831Z" fill="#5DA131"/>
<path d="M311.671 53.4775C310.06 49.5989 310.996 46.8887 313.166 45.9874C315.334 45.0863 317.917 46.334 319.528 50.212C321.14 54.0889 319.003 60.03 319.003 60.03C319.003 60.03 313.283 57.3544 311.671 53.4775Z" fill="#5DA131"/>
<path d="M311.672 53.4775C310.06 49.5989 310.996 46.8887 313.166 45.9874L319.002 60.0307C319.002 60.0307 313.283 57.3544 311.672 53.4775Z" fill="#307502"/>
<path d="M318.654 56.0825L316.936 55.0613L316.674 54.4307L318.654 56.0825Z" fill="#307502"/>
<path d="M318.874 57.8953L317.865 57.2956L317.711 56.9253L318.874 57.8953Z" fill="#307502"/>
<path d="M318.565 54.0184L315.826 52.3895L315.408 51.3833L318.565 54.0184Z" fill="#307502"/>
<path d="M318.236 51.3499L314.461 49.1047L313.885 47.7182L318.236 51.3499Z" fill="#307502"/>
<path d="M316.799 57.5614L317.243 55.7962L317.004 55.2216L316.799 57.5614Z" fill="#5DA131"/>
<path d="M317.828 58.8688L318.089 57.832L317.948 57.4944L317.828 58.8688Z" fill="#5DA131"/>
<path d="M315.523 56.1774L316.232 53.3624L315.851 52.4458L315.523 56.1774Z" fill="#5DA131"/>
<path d="M314.012 54.2509L314.988 50.3701L314.463 49.1072L314.012 54.2509Z" fill="#5DA131"/>
<path d="M312.382 45.0627L313.065 44.7784L313.66 46.5526L313.22 46.7354L312.382 45.0627Z" fill="#307502"/>
<path d="M313.44 46.6441L312.723 44.9209L313.065 44.7784L313.66 46.5526L313.44 46.6441Z" fill="#5DA131"/>
<path d="M242.992 40.9667C241.924 38.398 242.545 36.6024 243.982 36.005C245.418 35.4078 247.129 36.2349 248.197 38.8037C249.264 41.3714 247.848 45.3071 247.848 45.3071C247.848 45.3071 244.059 43.5345 242.992 40.9667Z" fill="#5DA131"/>
<path d="M242.992 40.9667C241.924 38.398 242.545 36.6024 243.982 36.005L247.848 45.3071C247.848 45.3071 244.059 43.5345 242.992 40.9667Z" fill="#307502"/>
<path d="M247.617 42.6919L246.479 42.0155L246.306 41.5977L247.617 42.6919Z" fill="#307502"/>
<path d="M247.763 43.893L247.094 43.4954L246.993 43.25L247.763 43.893Z" fill="#307502"/>
<path d="M247.558 41.3244L245.744 40.2459L245.467 39.5796L247.558 41.3244Z" fill="#307502"/>
<path d="M247.34 39.5574L244.84 38.0696L244.458 37.1515L247.34 39.5574Z" fill="#307502"/>
<path d="M246.388 43.6717L246.682 42.5025L246.524 42.122L246.388 43.6717Z" fill="#5DA131"/>
<path d="M247.07 44.5376L247.243 43.8506L247.15 43.627L247.07 44.5376Z" fill="#5DA131"/>
<path d="M245.543 42.7548L246.013 40.8902L245.76 40.2831L245.543 42.7548Z" fill="#5DA131"/>
<path d="M244.542 41.4786L245.189 38.9083L244.841 38.0712L244.542 41.4786Z" fill="#5DA131"/>
<path d="M243.463 35.3925L243.915 35.204L244.309 36.3793L244.018 36.5007L243.463 35.3925Z" fill="#307502"/>
<path d="M244.163 36.4403L243.688 35.2986L243.915 35.204L244.309 36.3793L244.163 36.4403Z" fill="#5DA131"/>
<path d="M250.831 32.7423C248.174 35.9948 245.343 36.4492 243.523 34.9627C241.705 33.4772 241.585 30.6118 244.242 27.3592C246.898 24.1078 253.144 23.1845 253.144 23.1845C253.144 23.1845 253.487 29.4909 250.831 32.7423Z" fill="#5DA131"/>
<path d="M250.831 32.7421C248.174 35.9946 245.343 36.449 243.523 34.9625L253.144 23.1849C253.144 23.1849 253.487 29.4907 250.831 32.7421Z" fill="#307502"/>
<path d="M249.829 25.3576L249.74 27.3535L249.308 27.8826L249.829 25.3576Z" fill="#307502"/>
<path d="M251.323 24.3071L251.271 25.4795L251.017 25.7904L251.323 24.3071Z" fill="#307502"/>
<path d="M248.052 26.4111L247.91 29.5942L247.221 30.4379L248.052 26.4111Z" fill="#307502"/>
<path d="M245.855 27.9611L245.66 32.3494L244.709 33.5123L245.855 27.9611Z" fill="#307502"/>
<path d="M252.009 26.2937L250.243 26.7363L249.85 27.2179L252.009 26.2937Z" fill="#5DA131"/>
<path d="M252.675 24.7687L251.638 25.0291L251.407 25.3121L252.675 24.7687Z" fill="#5DA131"/>
<path d="M251.392 28.072L248.576 28.7773L247.948 29.5461L251.392 28.072Z" fill="#5DA131"/>
<path d="M250.408 30.3145L246.526 31.2869L245.661 32.3464L250.408 30.3145Z" fill="#5DA131"/>
<path d="M243.078 36.0911L242.505 35.6229L243.789 34.2607L244.157 34.5616L243.078 36.0911Z" fill="#307502"/>
<path d="M243.973 34.4114L242.793 35.8571L242.505 35.6229L243.789 34.2607L243.973 34.4114Z" fill="#5DA131"/>
<path d="M303.309 37.1218C299.115 37.347 296.873 35.5591 296.747 33.2131C296.621 30.8682 298.659 28.8512 302.853 28.626C307.045 28.401 311.933 32.3983 311.933 32.3983C311.933 32.3983 307.501 36.8968 303.309 37.1218Z" fill="#5DA131"/>
<path d="M303.309 37.1218C299.115 37.347 296.873 35.559 296.747 33.213L311.933 32.3982C311.933 32.3982 307.501 36.8968 303.309 37.1218Z" fill="#307502"/>
<path d="M308.095 31.4091L306.559 32.6874L305.877 32.7241L308.095 31.4091Z" fill="#307502"/>
<path d="M309.878 31.8069L308.975 32.5574L308.575 32.5788L309.878 31.8069Z" fill="#307502"/>
<path d="M306.119 30.8042L303.669 32.8424L302.582 32.9005L306.119 30.8042Z" fill="#307502"/>
<path d="M303.495 30.2234L300.118 33.033L298.618 33.1135L303.495 30.2234Z" fill="#307502"/>
<path d="M308.87 33.6513L307.354 32.6438L306.733 32.6772L308.87 33.6513Z" fill="#5DA131"/>
<path d="M310.446 33.1173L309.556 32.5256L309.191 32.5449L310.446 33.1173Z" fill="#5DA131"/>
<path d="M307.14 34.3918L304.722 32.785L303.731 32.8378L307.14 34.3918Z" fill="#5DA131"/>
<path d="M304.819 35.1739L301.486 32.9586L300.121 33.032L304.819 35.1739Z" fill="#5DA131"/>
<path d="M295.614 33.6432L295.574 32.9045L297.445 32.9363L297.471 33.4114L295.614 33.6432Z" fill="#307502"/>
<path d="M297.458 33.1748L295.594 33.2745L295.574 32.9045L297.445 32.9363L297.458 33.1748Z" fill="#5DA131"/>
<path d="M275.568 34.7104C271.717 33.0359 270.511 30.4341 271.447 28.2792C272.384 26.126 275.109 25.2329 278.96 26.9074C282.811 28.5815 285.394 34.3423 285.394 34.3423C285.394 34.3423 279.418 36.3845 275.568 34.7104Z" fill="#5DA131"/>
<path d="M275.568 34.7104C271.717 33.0359 270.51 30.4342 271.447 28.2792L285.394 34.343C285.394 34.343 279.418 36.3845 275.568 34.7104Z" fill="#307502"/>
<path d="M282.404 31.7415L280.458 32.1978L279.832 31.9253L282.404 31.7415Z" fill="#307502"/>
<path d="M283.82 32.8945L282.678 33.1625L282.31 33.0024L283.82 32.8945Z" fill="#307502"/>
<path d="M280.907 30.3169L277.805 31.0438L276.806 30.6101L280.907 30.3169Z" fill="#307502"/>
<path d="M278.82 28.6234L274.543 29.6261L273.166 29.0274L278.82 28.6234Z" fill="#307502"/>
<path d="M282.094 34.0938L281.19 32.5147L280.619 32.2667L282.094 34.0938Z" fill="#5DA131"/>
<path d="M283.743 34.3212L283.211 33.3937L282.876 33.2477L283.743 34.3212Z" fill="#5DA131"/>
<path d="M280.215 33.9825L278.772 31.4638L277.862 31.0681L280.215 33.9825Z" fill="#5DA131"/>
<path d="M277.79 33.6436L275.8 30.1717L274.546 29.6262L277.79 33.6436Z" fill="#5DA131"/>
<path d="M270.241 28.1573L270.536 27.479L272.195 28.3441L272.005 28.7804L270.241 28.1573Z" fill="#307502"/>
<path d="M272.1 28.5628L270.388 27.8188L270.536 27.479L272.195 28.3441L272.1 28.5628Z" fill="#5DA131"/>
<path d="M199.567 27.6431C199.79 23.449 201.806 21.4096 204.152 21.5344C206.497 21.6589 208.286 23.8998 208.063 28.094C207.841 32.2864 203.346 36.7209 203.346 36.7209C203.346 36.7209 199.345 31.8354 199.567 27.6431Z" fill="#5DA131"/>
<path d="M199.567 27.6431C199.79 23.449 201.806 21.4096 204.152 21.5344L203.346 36.7208C203.346 36.7208 199.345 31.8354 199.567 27.6431Z" fill="#307502"/>
<path d="M204.739 33.0099L203.631 31.3462L203.667 30.6643L204.739 33.0099Z" fill="#307502"/>
<path d="M204.153 34.7397L203.503 33.7629L203.524 33.362L204.153 34.7397Z" fill="#307502"/>
<path d="M205.55 31.1099L203.785 28.457L203.842 27.3697L205.55 31.1099Z" fill="#307502"/>
<path d="M206.407 28.5616L203.973 24.9051L204.052 23.4055L206.407 28.5616Z" fill="#307502"/>
<path d="M202.426 33.5417L203.59 32.1417L203.623 31.5205L202.426 33.5417Z" fill="#5DA131"/>
<path d="M202.789 35.1653L203.473 34.3432L203.492 33.9781L202.789 35.1653Z" fill="#5DA131"/>
<path d="M201.874 31.7426L203.729 29.5098L203.782 28.5189L201.874 31.7426Z" fill="#5DA131"/>
<path d="M201.343 29.3515L203.901 26.2736L203.974 24.908L201.343 29.3515Z" fill="#5DA131"/>
<path d="M203.845 20.3614L204.584 20.4005L204.354 22.2573L203.878 22.2325L203.845 20.3614Z" fill="#307502"/>
<path d="M204.115 22.2447L204.214 20.381L204.584 20.4005L204.353 22.2573L204.115 22.2447Z" fill="#5DA131"/>
<path d="M220.453 46.4169C217.307 40.7577 218.268 36.442 221.434 34.6815C224.598 32.9219 228.771 34.3823 231.918 40.0415C235.064 45.6986 232.829 55.1736 232.829 55.1736C232.829 55.1736 223.599 52.074 220.453 46.4169Z" fill="#5DA131"/>
<path d="M220.453 46.4169C217.307 40.7577 218.268 36.442 221.434 34.6815L232.829 55.1736C232.829 55.1736 223.599 52.074 220.453 46.4169Z" fill="#307502"/>
<path d="M231.605 49.1869L228.796 47.9227L228.284 47.0025L231.605 49.1869Z" fill="#307502"/>
<path d="M232.259 51.9259L230.609 51.183L230.308 50.6428L232.259 51.9259Z" fill="#307502"/>
<path d="M231.107 46.0402L226.627 44.0236L225.811 42.5564L231.107 46.0402Z" fill="#307502"/>
<path d="M230.138 42.0104L223.962 39.2305L222.837 37.2074L230.138 42.0104Z" fill="#307502"/>
<path d="M229.022 51.7771L229.394 48.9951L228.927 48.1573L229.022 51.7771Z" fill="#5DA131"/>
<path d="M230.827 53.5998L231.045 51.9657L230.772 51.4731L230.827 53.5998Z" fill="#5DA131"/>
<path d="M226.826 49.8797L227.419 45.4434L226.675 44.1067L226.826 49.8797Z" fill="#5DA131"/>
<path d="M224.173 47.1927L224.991 41.0769L223.966 39.234L224.173 47.1927Z" fill="#5DA131"/>
<path d="M220.072 33.4022L221.068 32.848L222.289 35.4619L221.647 35.8183L220.072 33.4022Z" fill="#307502"/>
<path d="M221.968 35.6404L220.569 33.1253L221.068 32.848L222.289 35.4619L221.968 35.6404Z" fill="#5DA131"/>
<path d="M203.34 -5.66204C200.193 -11.3213 201.154 -15.6369 204.32 -17.3974C207.484 -19.157 211.658 -17.6967 214.804 -12.0374C217.95 -6.38036 215.715 3.09469 215.715 3.09469C215.715 3.09469 206.486 -0.00551485 203.34 -5.66204Z" fill="#5DA131"/>
<path d="M203.34 -5.66198C200.193 -11.3212 201.154 -15.6369 204.32 -17.3973L215.715 3.09475C215.715 3.09475 206.486 -0.00545681 203.34 -5.66198Z" fill="#307502"/>
<path d="M215.145 -0.153649L213.496 -0.896006L213.195 -1.43677L215.145 -0.153649Z" fill="#307502"/>
<path d="M213.713 1.52034L213.932 -0.113849L213.658 -0.605849L213.713 1.52034Z" fill="#5DA131"/>
<path d="M160.902 64.566C156.946 57.4527 158.155 52.0277 162.134 49.8146C166.112 47.6031 171.357 49.4387 175.313 56.552C179.267 63.6626 176.458 75.5723 176.458 75.5723C176.458 75.5723 164.856 71.6766 160.902 64.566Z" fill="#5DA131"/>
<path d="M160.902 64.5659C156.946 57.4526 158.155 52.0276 162.134 49.8146L176.458 75.5723C176.458 75.5723 164.856 71.6766 160.902 64.5659Z" fill="#307502"/>
<path d="M174.918 68.0472L171.388 66.4581L170.744 65.3017L174.918 68.0472Z" fill="#307502"/>
<path d="M175.741 71.49L173.666 70.5563L173.288 69.8773L175.741 71.49Z" fill="#307502"/>
<path d="M174.293 64.0922L168.662 61.5577L167.637 59.7127L174.293 64.0922Z" fill="#307502"/>
<path d="M173.075 59.0269L165.312 55.5328L163.898 52.9898L173.075 59.0269Z" fill="#307502"/>
<path d="M171.672 71.303L172.139 67.8067L171.553 66.7529L171.672 71.303Z" fill="#5DA131"/>
<path d="M173.941 73.5941L174.215 71.5401L173.871 70.9213L173.941 73.5941Z" fill="#5DA131"/>
<path d="M168.911 68.9183L169.656 63.3422L168.722 61.6617L168.911 68.9183Z" fill="#5DA131"/>
<path d="M165.577 65.5406L166.605 57.8539L165.316 55.5373L165.577 65.5406Z" fill="#5DA131"/>
<path d="M160.422 48.2064L161.674 47.5097L163.209 50.795L162.403 51.2437L160.422 48.2064Z" fill="#307502"/>
<path d="M162.805 51.0198L161.047 47.8585L161.674 47.5097L163.209 50.795L162.805 51.0198Z" fill="#5DA131"/>
<path d="M164.944 33.7445C158.691 34.3604 155.221 31.8384 154.876 28.3402C154.532 24.844 157.443 21.6932 163.696 21.0773C169.946 20.4618 177.517 26.1096 177.517 26.1096C177.517 26.1096 171.194 33.1289 164.944 33.7445Z" fill="#5DA131"/>
<path d="M164.944 33.7445C158.691 34.3604 155.221 31.8384 154.876 28.3402L177.517 26.1096C177.517 26.1096 171.194 33.1289 164.944 33.7445Z" fill="#307502"/>
<path d="M171.715 24.8877L169.505 26.9L168.488 27.0003L171.715 24.8877Z" fill="#307502"/>
<path d="M174.406 25.363L173.108 26.5451L172.511 26.604L174.406 25.363Z" fill="#307502"/>
<path d="M168.722 24.1154L165.198 27.3245L163.576 27.4841L168.722 24.1154Z" fill="#307502"/>
<path d="M164.761 23.4221L159.902 27.8465L157.667 28.0661L164.761 23.4221Z" fill="#307502"/>
<path d="M173.024 28.187L170.691 26.7823L169.765 26.873L173.024 28.187Z" fill="#5DA131"/>
<path d="M175.343 27.2838L173.973 26.4587L173.429 26.512L175.343 27.2838Z" fill="#5DA131"/>
<path d="M170.487 29.4095L166.767 27.1686L165.29 27.3142L170.487 29.4095Z" fill="#5DA131"/>
<path d="M167.071 30.7328L161.943 27.6437L159.906 27.8448L167.071 30.7328Z" fill="#5DA131"/>
<path d="M153.211 29.0588L153.103 27.958L155.901 27.8803L155.971 28.5889L153.211 29.0588Z" fill="#307502"/>
<path d="M155.936 28.2358L153.157 28.5092L153.103 27.958L155.901 27.8803L155.936 28.2358Z" fill="#5DA131"/>
<path d="M-7.90905 19.3346C-11.8646 12.2213 -10.656 6.7969 -6.67624 4.58386C-2.69908 2.3723 2.54647 4.20787 6.50201 11.3212C10.4561 18.4318 7.64693 30.3416 7.64693 30.3416C7.64693 30.3416 -3.95436 26.4458 -7.90905 19.3346Z" fill="#5DA131"/>
<path d="M-7.90915 19.3346C-11.8647 12.2213 -10.6561 6.79687 -6.67635 4.58383L7.64682 30.3415C7.64682 30.3415 -3.95447 26.4457 -7.90915 19.3346Z" fill="#307502"/>
<path d="M6.10764 22.8164L2.57674 21.2273L1.93369 20.0709L6.10764 22.8164Z" fill="#307502"/>
<path d="M6.92998 26.2592L4.85609 25.3255L4.47824 24.6464L6.92998 26.2592Z" fill="#307502"/>
<path d="M5.48311 18.8613L-0.148169 16.3263L-1.17423 14.4819L5.48311 18.8613Z" fill="#307502"/>
<path d="M4.2642 13.7961L-3.49853 10.302L-4.91245 7.759L4.2642 13.7961Z" fill="#307502"/>
<path d="M2.86141 26.0721L3.32834 22.5759L2.74268 21.5221L2.86141 26.0721Z" fill="#5DA131"/>
<path d="M5.12996 28.3633L5.40456 26.3093L5.06029 25.6905L5.12996 28.3633Z" fill="#5DA131"/>
<path d="M0.100914 23.6874L0.846278 18.1113L-0.0886692 16.4309L0.100914 23.6874Z" fill="#5DA131"/>
<path d="M73.3624 30.2698C70.0671 24.3439 71.0739 19.8253 74.3892 17.9813C77.7025 16.1388 82.0725 17.6681 85.3678 23.5941C88.6616 29.5179 86.3215 39.4391 86.3215 39.4391C86.3215 39.4391 76.6562 36.1931 73.3624 30.2698Z" fill="#5DA131"/>
<path d="M73.3623 30.2698C70.067 24.3439 71.0738 19.8253 74.3891 17.9813L86.3214 39.4391C86.3214 39.4391 76.6561 36.1931 73.3623 30.2698Z" fill="#307502"/>
<path d="M85.0393 33.1699L82.0976 31.846L81.562 30.8824L85.0393 33.1699Z" fill="#307502"/>
<path d="M85.724 36.0384L83.9961 35.2604L83.6816 34.6945L85.724 36.0384Z" fill="#307502"/>
<path d="M84.5184 29.8755L79.8277 27.7635L78.9732 26.2266L84.5184 29.8755Z" fill="#307502"/>
<path d="M83.5037 25.6556L77.0365 22.7447L75.8586 20.6262L83.5037 25.6556Z" fill="#307502"/>
<path d="M82.3345 35.8821L82.7236 32.9692L82.2359 32.0915L82.3345 35.8821Z" fill="#5DA131"/>
<path d="M84.2245 37.7908L84.4535 36.0797L84.1667 35.5641L84.2245 37.7908Z" fill="#5DA131"/>
<path d="M80.0348 33.8957L80.6556 29.2505L79.8773 27.8503L80.0348 33.8957Z" fill="#5DA131"/>
<path d="M77.2575 31.082L78.1132 24.678L77.04 22.7482L77.2575 31.082Z" fill="#5DA131"/>
<path d="M72.9623 16.6414L74.0062 16.061L75.2847 18.7978L74.6129 19.1713L72.9623 16.6414Z" fill="#307502"/>
<path d="M74.9478 18.9853L73.4837 16.3516L74.0062 16.061L75.2847 18.7978L74.9478 18.9853Z" fill="#5DA131"/>
<path d="M15.0474 1.27255C11.7521 -4.65335 12.7589 -9.17197 16.0742 -11.0159C19.3874 -12.8585 23.7575 -11.3291 27.0528 -5.4032C30.3466 0.520638 28.0065 10.4418 28.0065 10.4418C28.0065 10.4418 18.3412 7.19584 15.0474 1.27255Z" fill="#5DA131"/>
<path d="M15.0475 1.27257C11.7522 -4.65334 12.759 -9.17196 16.0743 -11.0159L28.0066 10.4418C28.0066 10.4418 18.3412 7.19585 15.0475 1.27257Z" fill="#307502"/>
<path d="M26.724 4.17337L23.7828 2.84884L23.2466 1.88525L26.724 4.17337Z" fill="#307502"/>
<path d="M27.4093 7.04123L25.6813 6.26325L25.3663 5.6974L27.4093 7.04123Z" fill="#307502"/>
<path d="M26.2035 0.878235L21.5122 -1.23361L20.6578 -2.76996L26.2035 0.878235Z" fill="#307502"/>
<path d="M24.0197 6.88491L24.4088 3.97203L23.9205 3.09434L24.0197 6.88491Z" fill="#5DA131"/>
<path d="M25.9098 8.79361L26.1381 7.08256L25.8519 6.56687L25.9098 8.79361Z" fill="#5DA131"/>
<path d="M21.7198 4.89849L22.3407 0.25321L21.5624 -1.14695L21.7198 4.89849Z" fill="#5DA131"/>
<path d="M18.9425 2.08479L19.7982 -4.31919L18.725 -6.24909L18.9425 2.08479Z" fill="#5DA131"/>
<path d="M97.778 70.5372C95.7548 66.8991 96.373 64.1241 98.4082 62.9925C100.442 61.8611 103.125 62.8003 105.149 66.4384C107.171 70.0755 105.734 76.167 105.734 76.167C105.734 76.167 99.8006 74.1743 97.778 70.5372Z" fill="#5DA131"/>
<path d="M97.778 70.5372C95.7547 66.8991 96.373 64.1241 98.4082 62.9925L105.734 76.1669C105.734 76.1669 99.8005 74.1743 97.778 70.5372Z" fill="#307502"/>
<path d="M104.948 72.3185L103.142 71.5055L102.813 70.9139L104.948 72.3185Z" fill="#307502"/>
<path d="M105.368 74.0792L104.307 73.6015L104.114 73.2541L105.368 74.0792Z" fill="#307502"/>
<path d="M104.628 70.2954L101.748 68.9987L101.223 68.0555L104.628 70.2954Z" fill="#307502"/>
<path d="M104.005 67.7043L100.034 65.917L99.3113 64.6164L104.005 67.7043Z" fill="#307502"/>
<path d="M103.287 73.9835L103.526 72.195L103.226 71.6563L103.287 73.9835Z" fill="#5DA131"/>
<path d="M104.447 75.1552L104.588 74.105L104.412 73.788L104.447 75.1552Z" fill="#5DA131"/>
<path d="M101.875 72.7634L102.256 69.9114L101.778 69.052L101.875 72.7634Z" fill="#5DA131"/>
<path d="M100.17 71.0358L100.695 67.1043L100.036 65.9195L100.17 71.0358Z" fill="#5DA131"/>
<path d="M97.5326 62.1699L98.1735 61.8136L98.9585 63.4942L98.5461 63.7235L97.5326 62.1699Z" fill="#307502"/>
<path d="M98.7515 63.6092L97.8523 61.9922L98.1735 61.8136L98.9585 63.4942L98.7515 63.6092Z" fill="#5DA131"/>
<path d="M130.213 125.129C127.795 124.916 126.658 123.711 126.778 122.358C126.897 121.007 128.227 120.019 130.645 120.232C133.061 120.445 135.531 123.13 135.531 123.13C135.531 123.13 132.629 125.342 130.213 125.129Z" fill="#5DA131"/>
<path d="M130.213 125.129C127.795 124.916 126.658 123.711 126.778 122.358L135.531 123.13C135.531 123.13 132.629 125.342 130.213 125.129Z" fill="#307502"/>
<path d="M133.416 122.251L132.434 122.857L132.04 122.822L133.416 122.251Z" fill="#307502"/>
<path d="M134.404 122.624L133.826 122.98L133.595 122.959L134.404 122.624Z" fill="#307502"/>
<path d="M132.335 121.744L130.768 122.71L130.141 122.655L132.335 121.744Z" fill="#307502"/>
<path d="M130.881 121.198L128.721 122.53L127.856 122.454L130.881 121.198Z" fill="#307502"/>
<path d="M133.676 123.597L132.892 122.897L132.534 122.866L133.676 123.597Z" fill="#5DA131"/>
<path d="M134.621 123.42L134.161 123.009L133.95 122.99L134.621 123.42Z" fill="#5DA131"/>
<path d="M132.626 123.88L131.374 122.763L130.804 122.713L132.626 123.88Z" fill="#5DA131"/>
<path d="M131.236 124.138L129.51 122.599L128.722 122.53L131.236 124.138Z" fill="#5DA131"/>
<path d="M126.094 122.512L126.132 122.086L127.199 122.257L127.175 122.531L126.094 122.512Z" fill="#307502"/>
<path d="M127.187 122.394L126.113 122.299L126.132 122.086L127.199 122.257L127.187 122.394Z" fill="#5DA131"/>
<path d="M70.422 59.0463C71.3352 56.7976 72.8211 56.0651 74.0791 56.5756C75.336 57.0864 75.89 58.6479 74.9772 60.896C74.0643 63.1435 70.7724 64.717 70.7724 64.717C70.7724 64.717 69.5091 61.2938 70.422 59.0463Z" fill="#5DA131"/>
<path d="M70.4218 59.0463C71.335 56.7976 72.8209 56.0651 74.0789 56.5756L70.7722 64.717C70.7722 64.717 69.5089 61.2938 70.4218 59.0463Z" fill="#307502"/>
<path d="M72.2326 62.953L71.9421 61.8358L72.0902 61.4706L72.2326 62.953Z" fill="#307502"/>
<path d="M71.5864 63.7874L71.4158 63.1314L71.5032 62.9166L71.5864 63.7874Z" fill="#307502"/>
<path d="M73.0348 62.0689L72.5708 60.2871L72.8076 59.704L73.0348 62.0689Z" fill="#307502"/>
<path d="M73.9833 60.8392L73.3445 58.3827L73.6707 57.5789L73.9833 60.8392Z" fill="#307502"/>
<path d="M70.8694 62.8073L71.7692 62.2624L71.9042 61.9294L70.8694 62.8073Z" fill="#5DA131"/>
<path d="M70.7612 63.763L71.2897 63.4429L71.369 63.2472L70.7612 63.763Z" fill="#5DA131"/>
<path d="M70.9077 61.7203L72.3424 60.8516L72.558 60.3205L70.9077 61.7203Z" fill="#5DA131"/>
<path d="M71.0689 60.315L73.0466 59.1168L73.3442 58.3845L71.0689 60.315Z" fill="#5DA131"/>
<path d="M74.1321 55.8773L74.5283 56.038L74.0518 57.0083L73.797 56.905L74.1321 55.8773Z" fill="#307502"/>
<path d="M73.9241 56.957L74.3301 55.9574L74.5283 56.038L74.0517 57.0084L73.9241 56.957Z" fill="#5DA131"/>
<path d="M206.71 120.865C207.766 118.68 209.296 118.044 210.518 118.634C211.74 119.224 212.193 120.818 211.137 123.003C210.082 125.187 206.696 126.546 206.696 126.546C206.696 126.546 205.655 123.05 206.71 120.865Z" fill="#5DA131"/>
<path d="M206.71 120.865C207.766 118.68 209.296 118.044 210.518 118.634L206.696 126.546C206.696 126.546 205.655 123.05 206.71 120.865Z" fill="#307502"/>
<path d="M208.267 124.88L208.048 123.746L208.22 123.391L208.267 124.88Z" fill="#307502"/>
<path d="M207.568 125.672L207.44 125.005L207.54 124.797L207.568 125.672Z" fill="#307502"/>
<path d="M209.123 124.049L208.775 122.241L209.049 121.675L209.123 124.049Z" fill="#307502"/>
<path d="M210.149 122.883L209.669 120.39L210.047 119.609L210.149 122.883Z" fill="#307502"/>
<path d="M206.916 124.647L207.848 124.161L208.004 123.837L206.916 124.647Z" fill="#5DA131"/>
<path d="M206.747 125.594L207.295 125.308L207.386 125.118L206.747 125.594Z" fill="#5DA131"/>
<path d="M207.023 123.565L208.511 122.79L208.76 122.273L207.023 123.565Z" fill="#5DA131"/>
<path d="M207.274 122.173L209.325 121.104L209.669 120.392L207.274 122.173Z" fill="#5DA131"/>
<path d="M210.616 117.941L211.001 118.126L210.464 119.064L210.216 118.945L210.616 117.941Z" fill="#307502"/>
<path d="M210.339 119.005L210.808 118.034L211.001 118.126L210.464 119.064L210.339 119.005Z" fill="#5DA131"/>
<path d="M120.678 -3.47673C123.161 -6.81834 125.944 -7.39735 127.813 -6.00849C129.682 -4.62051 129.931 -1.78846 127.448 1.55315C124.966 4.8935 118.823 6.09193 118.823 6.09193C118.823 6.09193 118.197 -0.135894 120.678 -3.47673Z" fill="#5DA131"/>
<path d="M120.678 -3.47673C123.161 -6.81834 125.944 -7.39736 127.814 -6.0085L118.823 6.09135C118.823 6.09135 118.197 -0.135899 120.678 -3.47673Z" fill="#307502"/>
<path d="M122.007 3.79015L122.004 1.80951L122.408 1.2663L122.007 3.79015Z" fill="#307502"/>
<path d="M120.575 4.89866L120.573 3.73532L120.811 3.41602L120.575 4.89866Z" fill="#307502"/>
<path d="M123.719 2.66602L123.715 -0.492603L124.358 -1.35889L123.719 2.66602Z" fill="#307502"/>
<path d="M125.824 1.03163L125.817 -3.32291L126.705 -4.51733L125.824 1.03163Z" fill="#307502"/>
<path d="M119.806 2.96224L121.534 2.44415L121.902 1.94922L119.806 2.96224Z" fill="#5DA131"/>
<path d="M119.215 4.50231L120.231 4.19808L120.446 3.9071L119.215 4.50231Z" fill="#5DA131"/>
<path d="M120.336 1.17343L123.092 0.346613L123.679 -0.442627L120.336 1.17343Z" fill="#5DA131"/>
<path d="M80.3026 81.0189C77.8718 78.9725 77.5593 76.8256 78.7042 75.4653C79.8482 74.1063 82.0173 74.0479 84.4482 76.0942C86.8783 78.1395 87.5066 82.8755 87.5066 82.8755C87.5066 82.8755 82.7328 83.0648 80.3026 81.0189Z" fill="#5DA131"/>
<path d="M80.3025 81.0189C77.8717 78.9725 77.5592 76.8256 78.7041 75.4653L87.5065 82.8754C87.5065 82.8754 82.7327 83.0647 80.3025 81.0189Z" fill="#307502"/>
<path d="M85.9008 80.3434L84.3912 80.2533L83.9964 79.921L85.9008 80.3434Z" fill="#307502"/>
<path d="M86.679 81.4854L85.7924 81.4326L85.56 81.2372L86.679 81.4854Z" fill="#307502"/>
<path d="M85.1234 78.9865L82.717 78.8434L82.0866 78.3132L85.1234 78.9865Z" fill="#307502"/>
<path d="M83.9755 77.3075L80.6581 77.1105L79.7888 76.3789L83.9755 77.3075Z" fill="#307502"/>
<path d="M85.1682 81.9817L84.8529 80.6413L84.493 80.3381L85.1682 81.9817Z" fill="#5DA131"/>
<path d="M86.3137 82.5031L86.129 81.7154L85.9176 81.5374L86.3137 82.5031Z" fill="#5DA131"/>
<path d="M83.8294 81.4951L83.3275 79.3565L82.7531 78.8734L83.8294 81.4951Z" fill="#5DA131"/>
<path d="M82.1443 80.7254L81.4515 77.778L80.6598 77.1114L82.1443 80.7254Z" fill="#5DA131"/>
<path d="M77.8559 75.1164L78.2163 74.6879L79.2325 75.674L79.0005 75.9491L77.8559 75.1164Z" fill="#307502"/>
<path d="M79.1166 75.8121L78.0359 74.9025L78.2163 74.6879L79.2325 75.674L79.1166 75.8121Z" fill="#5DA131"/>
<path d="M59.4483 7.97905C60.5538 3.09688 63.3328 1.10732 66.0645 1.72587C68.7944 2.34408 70.4449 5.33678 69.3389 10.219C68.2337 15.0995 62.061 19.4042 62.061 19.4042C62.061 19.4042 58.3431 12.8595 59.4483 7.97905Z" fill="#5DA131"/>
<path d="M59.4482 7.97902C60.5537 3.09685 63.3328 1.1073 66.0644 1.72584L62.0609 19.4042C62.0609 19.4042 58.343 12.8594 59.4482 7.97902Z" fill="#307502"/>
<path d="M64.4429 15.325L63.4769 13.1482L63.6567 12.3542L64.4429 15.325Z" fill="#307502"/>
<path d="M63.4073 17.2397L62.84 15.9607L62.9455 15.4947L63.4073 17.2397Z" fill="#307502"/>
<path d="M65.7791 13.2559L64.2386 9.78478L64.5254 8.51843L65.7791 13.2559Z" fill="#307502"/>
<path d="M67.2988 10.4352L65.1748 5.64954L65.5705 3.90438L67.2988 10.4352Z" fill="#307502"/>
<path d="M61.62 15.4844L63.2683 14.0741L63.4318 13.3511L61.62 15.4844Z" fill="#5DA131"/>
<path d="M61.7193 17.4654L62.6881 16.6365L62.7841 16.2119L61.7193 17.4654Z" fill="#5DA131"/>
<path d="M61.3331 13.2596L63.9623 11.0103L64.2233 9.85681L61.3331 13.2596Z" fill="#5DA131"/>
<path d="M61.1908 10.3442L64.815 7.24326L65.1754 5.65344L61.1908 10.3442Z" fill="#5DA131"/>
<path d="M65.9396 0.286168L66.7993 0.480663L66.1547 2.61606L65.6015 2.49079L65.9396 0.286168Z" fill="#307502"/>
<path d="M65.8772 2.55294L66.3689 0.383179L66.7993 0.480623L66.1547 2.61602L65.8772 2.55294Z" fill="#5DA131"/>
<path d="M95.6253 113.071C92.33 107.145 93.3368 102.626 96.6521 100.782C99.9653 98.9397 104.335 100.469 107.631 106.395C110.925 112.319 108.584 122.24 108.584 122.24C108.584 122.24 98.9196 118.994 95.6253 113.071Z" fill="#5DA131"/>
<path d="M95.6253 113.071C92.33 107.145 93.3368 102.626 96.6521 100.782L108.584 122.24C108.584 122.24 98.9196 118.994 95.6253 113.071Z" fill="#307502"/>
<path d="M107.302 115.971L104.361 114.647L103.825 113.683L107.302 115.971Z" fill="#307502"/>
<path d="M107.987 118.839L106.259 118.061L105.945 117.495L107.987 118.839Z" fill="#307502"/>
<path d="M106.782 112.676L102.09 110.564L101.236 109.028L106.782 112.676Z" fill="#307502"/>
<path d="M105.767 108.456L99.2995 105.546L98.1215 103.427L105.767 108.456Z" fill="#307502"/>
<path d="M104.597 118.683L104.987 115.77L104.499 114.892L104.597 118.683Z" fill="#5DA131"/>
<path d="M106.488 120.592L106.717 118.881L106.43 118.365L106.488 120.592Z" fill="#5DA131"/>
<path d="M102.298 116.697L102.919 112.051L102.14 110.651L102.298 116.697Z" fill="#5DA131"/>
<path d="M99.5204 113.883L100.376 107.479L99.3028 105.549L99.5204 113.883Z" fill="#5DA131"/>
<path d="M95.226 99.4423L96.2692 98.862L97.5478 101.599L96.876 101.972L95.226 99.4423Z" fill="#307502"/>
<path d="M97.2115 101.786L95.7468 99.1525L96.2692 98.862L97.5478 101.599L97.2115 101.786Z" fill="#5DA131"/>
<path d="M164.994 164.471C158.855 159.127 158.147 153.615 161.137 150.18C164.125 146.748 169.682 146.691 175.821 152.035C181.957 157.377 183.365 169.532 183.365 169.532C183.365 169.532 171.13 169.814 164.994 164.471Z" fill="#5DA131"/>
<path d="M164.994 164.471C158.855 159.127 158.147 153.615 161.137 150.18L183.365 169.532C183.365 169.532 171.13 169.814 164.994 164.471Z" fill="#307502"/>
<path d="M179.359 162.979L175.498 162.686L174.5 161.817L179.359 162.979Z" fill="#307502"/>
<path d="M181.303 165.937L179.035 165.764L178.449 165.254L181.303 165.937Z" fill="#307502"/>
<path d="M177.426 159.472L171.269 159.003L169.677 157.618L177.426 159.472Z" fill="#307502"/>
<path d="M174.558 155.123L166.07 154.477L163.875 152.567L174.558 155.123Z" fill="#307502"/>
<path d="M177.413 167.145L176.663 163.698L175.754 162.906L177.413 167.145Z" fill="#5DA131"/>
<path d="M180.326 168.528L179.885 166.503L179.351 166.038L180.326 168.528Z" fill="#5DA131"/>
<path d="M174.006 165.841L172.811 160.344L171.361 159.081L174.006 165.841Z" fill="#5DA131"/>
<path d="M169.722 163.799L168.074 156.22L166.075 154.48L169.722 163.799Z" fill="#5DA131"/>
<path d="M158.979 149.251L159.92 148.17L162.48 150.737L161.875 151.433L158.979 149.251Z" fill="#307502"/>
<path d="M162.177 151.086L159.449 148.711L159.92 148.17L162.48 150.737L162.177 151.086Z" fill="#5DA131"/>
<path d="M121.31 46.8338C118.204 46.684 116.686 45.1986 116.77 43.4604C116.854 41.7234 118.507 40.3909 121.614 40.5405C124.719 40.6904 128.018 44.0023 128.018 44.0023C128.018 44.0023 124.415 46.9831 121.31 46.8338Z" fill="#5DA131"/>
<path d="M121.31 46.8338C118.204 46.684 116.686 45.1986 116.77 43.4604L128.018 44.0023C128.018 44.0023 124.415 46.9831 121.31 46.8338Z" fill="#307502"/>
<path d="M125.265 42.9854L124.037 43.8112L123.532 43.7865L125.265 42.9854Z" fill="#307502"/>
<path d="M126.548 43.4124L125.827 43.8975L125.531 43.8832L126.548 43.4124Z" fill="#307502"/>
<path d="M123.855 42.3912L121.897 43.7079L121.092 43.6694L123.855 42.3912Z" fill="#307502"/>
<path d="M121.966 41.7655L119.267 43.5812L118.156 43.5275L121.966 41.7655Z" fill="#307502"/>
<path d="M125.668 44.6955L124.627 43.839L124.167 43.8167L125.668 44.6955Z" fill="#5DA131"/>
<path d="M126.869 44.4207L126.257 43.9172L125.987 43.9044L126.869 44.4207Z" fill="#5DA131"/>
<path d="M124.337 45.1109L122.677 43.7447L121.943 43.7095L124.337 45.1109Z" fill="#5DA131"/>
<path d="M122.568 45.5121L120.281 43.6295L119.269 43.5809L122.568 45.5121Z" fill="#5DA131"/>
<path d="M115.903 43.6921L115.929 43.1451L117.305 43.3092L117.288 43.661L115.903 43.6921Z" fill="#307502"/>
<path d="M117.296 43.4852L115.916 43.4192L115.929 43.1451L117.305 43.3092L117.296 43.4852Z" fill="#5DA131"/>
<path d="M17.378 105.302C16.1096 102.463 16.7508 100.438 18.339 99.7284C19.9267 99.0192 21.8622 99.8929 23.1305 102.733C24.3982 105.571 22.9318 110.01 22.9318 110.01C22.9318 110.01 18.6462 108.141 17.378 105.302Z" fill="#5DA131"/>
<path d="M17.378 105.302C16.1097 102.463 16.7508 100.438 18.339 99.7284L22.9318 110.01C22.9318 110.01 18.6462 108.141 17.378 105.302Z" fill="#307502"/>
<path d="M22.5974 107.095L21.3065 106.373L21.0998 105.911L22.5974 107.095Z" fill="#307502"/>
<path d="M22.7956 108.433L22.037 108.009L21.916 107.737L22.7956 108.433Z" fill="#307502"/>
<path d="M22.4914 105.569L20.4327 104.416L20.1034 103.68L22.4914 105.569Z" fill="#307502"/>
<path d="M22.1963 103.601L19.3582 102.011L18.9047 100.996L22.1963 103.601Z" fill="#307502"/>
<path d="M21.2526 108.226L21.5474 106.911L21.3598 106.491L21.2526 108.226Z" fill="#5DA131"/>
<path d="M22.0403 109.174L22.2129 108.401L22.1025 108.154L22.0403 109.174Z" fill="#5DA131"/>
<path d="M20.2821 107.227L20.7514 105.129L20.452 104.458L20.2821 107.227Z" fill="#5DA131"/>
<path d="M19.1252 105.83L19.7727 102.938L19.3596 102.013L19.1252 105.83Z" fill="#5DA131"/>
<path d="M17.7408 99.0597L18.2414 98.8364L18.7155 100.138L18.394 100.282L17.7408 99.0597Z" fill="#307502"/>
<path d="M18.5544 100.21L17.9906 98.9484L18.2414 98.8364L18.7155 100.138L18.5544 100.21Z" fill="#5DA131"/>
<path d="M41.8936 100.308C39.3387 102.081 37.2301 101.827 36.2386 100.397C35.2472 98.9685 35.7471 96.9047 38.302 95.1318C40.8564 93.3595 45.4906 93.9773 45.4906 93.9773C45.4906 93.9773 44.4475 98.5358 41.8936 100.308Z" fill="#5DA131"/>
<path d="M41.8936 100.308C39.3387 102.081 37.23 101.827 36.2385 100.397L45.4905 93.9773C45.4905 93.9773 44.4475 98.5358 41.8936 100.308Z" fill="#307502"/>
<path d="M42.6873 94.8466L42.2168 96.2497L41.8011 96.5375L42.6873 94.8466Z" fill="#307502"/>
<path d="M43.9651 94.4041L43.6886 95.2282L43.4444 95.3974L43.9651 94.4041Z" fill="#307502"/>
<path d="M41.2073 95.234L40.4564 97.4707L39.7936 97.9309L41.2073 95.234Z" fill="#307502"/>
<path d="M39.3275 95.8889L38.2925 98.9727L37.3788 99.6064L39.3275 95.8889Z" fill="#307502"/>
<path d="M44.048 95.9582L42.7006 95.9125L42.3221 96.1756L44.048 95.9582Z" fill="#5DA131"/>
<path d="M44.8335 95.0089L44.0418 94.9822L43.8198 95.1364L44.8335 95.0089Z" fill="#5DA131"/>
<path d="M43.2456 97.0982L41.0975 97.0252L40.4939 97.4441L43.2456 97.0982Z" fill="#5DA131"/>
<path d="M42.0874 98.4935L39.126 98.3934L38.2937 98.9708L42.0874 98.4935Z" fill="#5DA131"/>
<path d="M35.6912 101.109L35.379 100.659L36.5706 99.9511L36.7714 100.241L35.6912 101.109Z" fill="#307502"/>
<path d="M36.6709 100.096L35.5353 100.884L35.3789 100.659L36.5705 99.9511L36.6709 100.096Z" fill="#5DA131"/>
<path d="M-0.414687 75.5158C-5.06541 75.9752 -7.6472 74.0994 -7.90387 71.4979C-8.16087 68.898 -5.99563 66.5536 -1.3449 66.0941C3.30361 65.635 8.93635 69.8345 8.93635 69.8345C8.93635 69.8345 4.23438 75.0566 -0.414687 75.5158Z" fill="#5DA131"/>
<path d="M-0.414673 75.5158C-5.0654 75.9752 -7.64718 74.0994 -7.90386 71.4978L8.9359 69.8351C8.9359 69.8351 4.23439 75.0565 -0.414673 75.5158Z" fill="#307502"/>
<path d="M4.62067 68.9268L2.97689 70.4239L2.22098 70.4988L4.62067 68.9268Z" fill="#307502"/>
<path d="M6.62231 69.2803L5.65648 70.1595L5.21255 70.2031L6.62231 69.2803Z" fill="#307502"/>
<path d="M2.39453 68.3527L-0.22711 70.7402L-1.43299 70.8595L2.39453 68.3527Z" fill="#307502"/>
<path d="M5.59382 71.3806L3.85887 70.3364L3.17022 70.4044L5.59382 71.3806Z" fill="#5DA131"/>
<path d="M7.31918 70.709L6.29972 70.0954L5.89526 70.1348L7.31918 70.709Z" fill="#5DA131"/>
<path d="M3.70762 72.29L0.940311 70.6244L-0.158306 70.7325L3.70762 72.29Z" fill="#5DA131"/>
<path d="M1.16654 73.2752L-2.64801 70.9784L-4.16266 71.128L1.16654 73.2752Z" fill="#5DA131"/>
<path d="M6.77862 123.913C7.19382 121.133 8.66709 119.903 10.2225 120.135C11.7768 120.367 12.8258 121.974 12.4106 124.754C11.9953 127.533 8.71856 130.202 8.71856 130.202C8.71856 130.202 6.36327 126.692 6.77862 123.913Z" fill="#5DA131"/>
<path d="M6.77868 123.913C7.19388 121.133 8.66715 119.903 10.2226 120.135L8.71854 130.201C8.71854 130.201 6.36332 126.692 6.77868 123.913Z" fill="#307502"/>
<path d="M9.88161 127.817L9.2502 126.639L9.31762 126.187L9.88161 127.817Z" fill="#307502"/>
<path d="M9.38206 128.933L9.01087 128.241L9.05023 127.975L9.38206 128.933Z" fill="#307502"/>
<path d="M10.5437 126.604L9.53596 124.724L9.64394 124.003L10.5437 126.604Z" fill="#307502"/>
<path d="M11.2768 124.96L9.88794 122.369L10.0365 121.375L11.2768 124.96Z" fill="#307502"/>
<path d="M8.30764 128.025L9.17146 127.166L9.23315 126.755L8.30764 128.025Z" fill="#5DA131"/>
<path d="M8.44596 129.13L8.95387 128.626L8.98962 128.383L8.44596 129.13Z" fill="#5DA131"/>
<path d="M8.05428 126.791L9.43245 125.421L9.53064 124.765L8.05428 126.791Z" fill="#5DA131"/>
<path d="M7.85286 125.164L9.75283 123.277L9.88806 122.371L7.85286 125.164Z" fill="#5DA131"/>
<path d="M10.0925 119.334L10.5816 119.407L10.3103 120.63L9.99496 120.582L10.0925 119.334Z" fill="#307502"/>
<path d="M10.1521 120.606L10.3365 119.371L10.5817 119.407L10.3104 120.63L10.1521 120.606Z" fill="#5DA131"/>
<path d="M20.6563 131.46C18.1205 130.247 17.3764 128.478 18.0545 127.059C18.7321 125.642 20.5763 125.11 23.1127 126.322C25.6479 127.534 27.2376 131.449 27.2376 131.449C27.2376 131.449 23.1909 132.672 20.6563 131.46Z" fill="#5DA131"/>
<path d="M20.6563 131.46C18.1205 130.247 17.3764 128.478 18.0544 127.059L27.2376 131.449C27.2376 131.449 23.1909 132.672 20.6563 131.46Z" fill="#307502"/>
<path d="M25.2993 129.638L23.9872 129.897L23.5747 129.699L25.2993 129.638Z" fill="#307502"/>
<path d="M26.2194 130.443L25.4485 130.595L25.2061 130.479L26.2194 130.443Z" fill="#307502"/>
<path d="M24.3325 128.649L22.2403 129.061L21.5825 128.747L24.3325 128.649Z" fill="#307502"/>
<path d="M22.9772 127.466L20.0922 128.034L19.1858 127.601L22.9772 127.466Z" fill="#307502"/>
<path d="M25.036 131.204L24.4685 130.126L24.0928 129.946L25.036 131.204Z" fill="#5DA131"/>
<path d="M26.1327 131.395L25.7994 130.762L25.5787 130.656L26.1327 131.395Z" fill="#5DA131"/>
<path d="M23.7817 131.084L22.8769 129.365L22.2776 129.078L23.7817 131.084Z" fill="#5DA131"/>
<path d="M22.1679 130.8L20.9202 128.43L20.0947 128.035L22.1679 130.8Z" fill="#5DA131"/>
<path d="M17.2501 126.949L17.4638 126.502L18.5527 127.12L18.4154 127.408L17.2501 126.949Z" fill="#307502"/>
<path d="M18.4838 127.265L17.3573 126.726L17.4638 126.502L18.5527 127.12L18.4838 127.265Z" fill="#5DA131"/>
<path d="M-162.972 25.6784C-163.019 25.7339 -162.507 25.1307 -161.736 24.2995C-160.946 23.4425 -159.78 22.2349 -158.211 20.7267C-155.073 17.7242 -150.347 13.4984 -143.608 9.00596C-140.237 6.76826 -136.357 4.47355 -131.897 2.36578C-127.439 0.263451 -122.39 -1.65402 -116.752 -2.98945C-111.116 -4.30145 -104.871 -4.97602 -98.322 -4.57813C-91.7834 -4.18275 -84.9528 -2.7161 -78.395 -0.00921708C-77.5862 0.348957 -76.7738 0.708914 -75.9567 1.07102L-74.7304 1.61803L-73.6719 2.10001C-72.9222 2.44707 -72.1687 2.79643 -71.4118 3.14701L-70.2733 3.67444L-69.204 4.1155C-67.7826 4.70018 -66.3621 5.31147 -64.8268 5.82989C-64.0699 6.0931 -63.3168 6.39462 -62.5475 6.63247C-61.7781 6.86804 -61.005 7.10478 -60.2285 7.3422C-59.455 7.5992 -58.6672 7.78322 -57.8774 7.98163C-57.0867 8.16977 -56.2977 8.40383 -55.4968 8.56012C-53.8946 8.87438 -52.2809 9.21578 -50.6428 9.40506C-47.3728 9.84589 -44.0308 10.0621 -40.6565 9.88274C-37.2822 9.72815 -33.873 9.26775 -30.4631 8.48538C-27.051 7.71061 -23.6526 6.55886 -20.2739 5.17191C-16.8957 3.77712 -13.5438 2.1148 -10.2217 0.250205C-6.90523 -1.63055 -3.62026 -3.71333 -0.35107 -5.92419C6.1894 -10.3473 12.64 -15.3298 19.1751 -20.4456C20.8094 -21.7311 22.4483 -23.0206 24.0916 -24.3141C24.9147 -24.963 25.7387 -25.6132 26.5644 -26.2636L26.974 -26.5833L27.2904 -26.8181L27.9237 -27.2877L28.5576 -27.7575C28.7808 -27.9182 29.0592 -28.0971 29.3081 -28.2646C29.8185 -28.6015 30.3361 -28.9522 30.8451 -29.2708L32.351 -30.1504C32.849 -30.4545 33.3686 -30.704 33.8809 -30.9734C34.3969 -31.2321 34.9034 -31.5199 35.4305 -31.7474C37.5113 -32.7431 39.6485 -33.5611 41.8027 -34.2996C50.4594 -37.1442 59.42 -38.1728 68.2798 -38.329C77.1543 -38.48 85.9754 -37.6878 94.6676 -36.3526C112.05 -33.6285 128.945 -28.6974 144.882 -22.1965C152.846 -18.9317 160.569 -15.2478 167.931 -11.098C175.287 -6.94409 182.295 -2.32894 188.681 2.91447C191.874 5.53333 194.898 8.32759 197.674 11.3269C198.376 12.0683 199.048 12.8369 199.708 13.6133C200.351 14.3577 200.992 15.1001 201.632 15.8404C202.279 16.5713 202.911 17.3595 203.566 18.0375C204.217 18.7312 204.866 19.4228 205.513 20.1125C208.175 22.8248 210.95 25.3884 213.904 27.5956C216.871 29.7785 220.009 31.6265 223.303 32.9226C226.59 34.2412 230.041 34.9177 233.479 35.003C236.921 35.0997 240.34 34.6227 243.655 33.8093C250.299 32.2015 256.564 29.5584 262.929 27.899C266.105 27.06 269.304 26.4535 272.476 26.2465L273.068 26.2035L273.364 26.1823C273.511 26.1741 273.488 26.1806 273.558 26.1795L273.703 26.1806L274.855 26.1915C275.242 26.2041 275.609 26.1783 276.01 26.2228L277.203 26.3443C277.598 26.3874 277.996 26.4216 278.385 26.4735L279.52 26.6874C280.276 26.8256 281.025 26.9629 281.748 27.1761C283.219 27.5263 284.62 28.0123 286.005 28.4762C287.362 29.0116 288.713 29.509 289.991 30.1138C292.579 31.2554 294.993 32.5543 297.29 33.8713C306.442 39.2207 313.64 45.0039 319.421 49.8726C325.187 54.7733 329.482 58.8841 332.374 61.7165C335.262 64.5545 336.735 66.1345 336.735 66.1345C336.735 66.1345 335.223 64.592 332.266 61.8288C329.306 59.0716 324.913 55.0735 319.04 50.3322C313.158 45.6249 305.832 40.0423 296.662 34.9897C294.364 33.7472 291.956 32.5292 289.399 31.4787C288.134 30.9177 286.809 30.4693 285.48 29.9814C284.129 29.5676 282.764 29.1313 281.352 28.8335C280.653 28.6452 279.938 28.5347 279.219 28.4218L278.14 28.2449L277.069 28.1558L275.995 28.0678C275.639 28.0329 275.239 28.0682 274.862 28.0656L273.71 28.0834C273.418 28.0764 272.983 28.1453 272.626 28.1727C269.615 28.4456 266.569 29.0994 263.508 29.9909C257.371 31.7483 251.208 34.5427 244.311 36.4067C240.872 37.3418 237.21 37.9601 233.437 37.9498C229.67 37.9539 225.808 37.2944 222.167 35.9396C218.515 34.6083 215.072 32.687 211.851 30.439C208.641 28.1645 205.674 25.5577 202.81 22.7811C202.107 22.0676 201.401 21.352 200.694 20.6349C199.972 19.9188 199.357 19.1864 198.681 18.4595C198.015 17.7267 197.348 16.9918 196.678 16.2555C196.038 15.5407 195.388 14.8322 194.704 14.1469C192.007 11.3764 189.056 8.77974 185.927 6.34377C179.671 1.46433 172.77 -2.84072 165.52 -6.69687C158.265 -10.55 150.647 -13.9522 142.803 -16.9392C127.113 -22.887 110.504 -27.2719 93.6892 -29.4719C85.2876 -30.549 76.8244 -31.085 68.4966 -30.7318C64.3354 -30.5562 60.2113 -30.1624 56.1793 -29.4942C52.1542 -28.8083 48.2232 -27.8371 44.5002 -26.5069C42.6521 -25.818 40.8399 -25.0725 39.1234 -24.1952C38.6817 -23.9946 38.2763 -23.7431 37.8526 -23.5185C37.4351 -23.2851 37.005 -23.0698 36.6098 -22.8095L35.4004 -22.0629L34.3107 -21.3105C33.6677 -20.8953 32.5856 -20.0008 31.9991 -19.5397C31.1913 -18.8692 30.3846 -18.1994 29.5789 -17.5309C27.9626 -16.192 26.3503 -14.8565 24.7432 -13.5251C18.2896 -8.20795 11.8354 -2.95041 5.08007 1.8735C1.70327 4.28337 -1.73917 6.59226 -5.28901 8.72526C-8.84927 10.8439 -12.5154 12.7858 -16.2991 14.4608C-20.0832 16.128 -23.9768 17.5592 -27.9692 18.5761C-31.9572 19.6007 -36.0137 20.2582 -40.0456 20.5431C-44.0795 20.8547 -48.0828 20.7038 -51.9639 20.2793C-53.915 20.0977 -55.8136 19.7545 -57.7028 19.4275C-58.6472 19.2649 -59.5644 19.0253 -60.4906 18.8274C-61.4141 18.6196 -62.3378 18.4231 -63.2305 18.1559C-64.1301 17.9048 -65.0261 17.6549 -65.9176 17.4055C-66.8078 17.1526 -67.6669 16.839 -68.5371 16.5592C-70.2675 16.0194 -71.9945 15.3394 -73.7031 14.6783L-74.9747 14.1837L-76.1262 13.6851C-76.8919 13.3537 -77.6539 13.0236 -78.4118 12.6957L-79.6155 12.1817L-80.6488 11.756C-81.3343 11.4712 -82.0167 11.1877 -82.6955 10.906C-88.1751 8.8052 -93.6807 7.79489 -98.9209 7.60692C-104.167 7.42319 -109.159 8.08015 -113.739 9.26679C-122.915 11.7103 -130.379 15.9956 -136.111 19.999C-141.858 24.0394 -145.936 27.8718 -148.571 30.5267C-149.887 31.8579 -150.852 32.9095 -151.461 33.6059C-152.092 34.3261 -152.27 34.5539 -152.317 34.6093L-162.972 25.6784Z" fill="#170602"/>
<path d="M134.02 -23.0486C134.02 -23.0486 133.953 -22.8743 133.823 -22.537C133.693 -22.1771 133.498 -21.6251 133.276 -20.8816C132.83 -19.4008 132.236 -17.1636 131.83 -14.2568C131.409 -11.3554 131.199 -7.77297 131.585 -3.71825C132.019 0.31868 133.074 4.84648 135.316 9.32963C137.546 13.8039 140.901 18.2265 145.346 22.0193L146.181 22.7335L146.6 23.0929L146.653 23.1382C146.571 23.0766 146.663 23.1458 146.66 23.1434L146.775 23.2303L147.005 23.4046C147.62 23.8693 148.24 24.3367 148.863 24.807C150.11 25.7373 151.363 26.7436 152.66 27.5623C153.961 28.4159 155.23 29.3213 156.596 30.1644C157.972 30.9994 159.361 31.8427 160.762 32.6929C166.443 35.9963 172.559 39.1 178.664 42.5806C184.766 46.0514 190.829 49.9973 196.255 54.7317L198.292 56.5014C198.967 57.0949 199.57 57.7675 200.211 58.396L202.105 60.3109L203.05 61.2672L203.918 62.2927C205.072 63.6597 206.223 65.0237 207.371 66.3842C208.407 67.8275 209.44 69.2668 210.47 70.6998C211.544 72.1025 212.415 73.6281 213.323 75.117C213.776 75.8625 214.228 76.606 214.678 77.3474C215.116 78.0955 215.608 78.8102 215.977 79.5897C217.539 82.6407 219.081 85.655 220.599 88.619C221.349 90.0997 222.093 91.5682 222.83 93.0225L223.383 94.1095L223.987 95.1507C224.388 95.8435 224.788 96.5326 225.185 97.218C225.988 98.5844 226.745 99.9586 227.562 101.278C228.414 102.576 229.256 103.859 230.087 105.125C230.503 105.758 230.915 106.388 231.325 107.012C231.754 107.623 232.205 108.211 232.639 108.806C233.513 109.99 234.374 111.156 235.221 112.303C236.083 113.438 237.008 114.491 237.874 115.561C238.758 116.615 239.585 117.687 240.504 118.638C241.4 119.612 242.277 120.566 243.134 121.498C243.979 122.443 244.905 123.266 245.753 124.124C247.443 125.851 249.187 127.335 250.795 128.767C254.086 131.538 257.082 133.816 259.683 135.492C262.254 137.214 264.389 138.388 265.862 139.149C266.6 139.528 267.173 139.804 267.566 139.977C267.953 140.16 268.16 140.238 268.16 140.238C268.16 140.238 267.951 140.165 267.559 139.991C267.162 139.828 266.583 139.565 265.835 139.203C264.343 138.476 262.176 137.351 259.557 135.687C256.909 134.068 253.849 131.856 250.475 129.15C248.827 127.75 247.037 126.298 245.297 124.604C244.423 123.762 243.47 122.953 242.597 122.023C241.712 121.106 240.806 120.167 239.881 119.208C238.931 118.27 238.075 117.212 237.158 116.171C236.26 115.115 235.301 114.073 234.405 112.95C233.523 111.814 232.627 110.659 231.717 109.487C231.265 108.898 230.795 108.314 230.348 107.707C229.92 107.088 229.489 106.463 229.054 105.835C228.185 104.577 227.304 103.302 226.412 102.01C225.554 100.696 224.75 99.3186 223.903 97.9504C223.482 97.263 223.061 96.5724 222.636 95.8777L221.998 94.8328L221.419 93.759C220.647 92.3223 219.869 90.8726 219.084 89.4102C217.507 86.5016 215.903 83.5448 214.28 80.5512C213.9 79.7923 213.399 79.1036 212.952 78.3799C212.492 77.6634 212.033 76.9453 211.571 76.2252C210.646 74.7875 209.759 73.3131 208.677 71.9708C207.64 70.5968 206.6 69.2178 205.556 67.8341C204.409 66.5395 203.258 65.2408 202.105 63.9396L201.241 62.9645L200.301 62.0599L198.421 60.249C197.786 59.6552 197.19 59.0183 196.522 58.4594L194.509 56.7941C189.149 52.3397 183.194 48.6577 177.107 45.3838C171.02 42.102 164.82 39.14 158.94 35.9077C157.483 35.0698 156.037 34.2397 154.606 33.4168C153.177 32.5811 151.789 31.6458 150.4 30.7765C148.977 29.9141 147.74 28.9654 146.464 28.06C145.829 27.6047 145.199 27.1517 144.573 26.7021L144.338 26.5335L144.221 26.4491L144.113 26.3686L144.054 26.3213L143.59 25.9438L142.666 25.192C137.749 21.196 133.876 16.3771 131.256 11.4088C128.616 6.43194 127.299 1.35022 126.71 -3.16159C126.166 -7.69317 126.31 -11.6831 126.698 -14.9179C127.074 -18.1603 127.672 -20.6637 128.141 -22.3688C128.375 -23.2214 128.588 -23.8756 128.738 -24.3251C128.822 -24.5614 128.885 -24.7409 128.927 -24.8611C128.97 -24.9751 128.991 -25.0333 128.991 -25.0333L134.02 -23.0486Z" fill="#170602"/>
<path d="M151.721 -19.2631C151.721 -19.2631 153.588 -18.7521 153.906 -18.6997C154.214 -18.6565 154.637 -18.5812 155.251 -18.5019C156.463 -18.3397 158.257 -18.104 160.563 -17.9061C162.865 -17.6844 165.678 -17.5082 168.91 -17.3898C170.526 -17.3152 172.249 -17.3298 174.065 -17.2922C175.88 -17.308 177.791 -17.3323 179.783 -17.3881C183.764 -17.5623 188.084 -17.812 192.617 -18.3879C193.752 -18.5274 194.901 -18.669 196.065 -18.8119C197.222 -19.0034 198.392 -19.198 199.575 -19.3937C201.953 -19.7389 204.339 -20.2937 206.779 -20.8096C207.388 -20.9456 208.006 -21.0569 208.613 -21.2147C209.22 -21.3763 209.829 -21.5389 210.44 -21.7017C211.663 -22.0275 212.896 -22.3557 214.136 -22.6854C215.373 -23.026 216.586 -23.4666 217.823 -23.8551C219.072 -24.2634 220.328 -24.6736 221.589 -25.0851C222.867 -25.4928 224.079 -25.9534 225.435 -26.3149C226.764 -26.6979 228.095 -27.0896 229.424 -27.3915L231.421 -27.8781L233.433 -28.2945C234.772 -28.5882 236.122 -28.8202 237.472 -29.0459C248.276 -30.848 259.208 -31.2158 269.381 -30.7906C279.56 -30.355 289.003 -29.0985 296.956 -27.3892C300.933 -26.534 304.538 -25.5627 307.676 -24.5249C310.816 -23.4941 313.485 -22.3794 315.58 -21.2631C316.116 -21.0081 316.592 -20.7077 317.047 -20.4382C317.501 -20.1687 317.93 -19.9229 318.298 -19.6409C318.672 -19.3723 319.018 -19.1241 319.335 -18.8968C319.628 -18.6379 319.893 -18.4024 320.131 -18.1918C320.63 -17.7947 320.899 -17.3771 321.125 -17.1418C321.338 -16.8935 321.448 -16.7653 321.448 -16.7653C321.448 -16.7653 321.334 -16.8895 321.111 -17.1304C320.876 -17.3577 320.596 -17.7619 320.085 -18.1398C319.841 -18.3406 319.57 -18.5646 319.27 -18.8113C318.947 -19.026 318.595 -19.2603 318.214 -19.5133C317.841 -19.7793 317.405 -20.0085 316.945 -20.2603C316.484 -20.5115 316.003 -20.7914 315.461 -21.0259C311.228 -23.1044 304.716 -25.0232 296.771 -26.4416C288.821 -27.8555 279.412 -28.7659 269.334 -28.8364C259.264 -28.8991 248.495 -28.1415 238.036 -26.0089C236.73 -25.7422 235.425 -25.4702 234.138 -25.1385L232.203 -24.6661L230.292 -24.127C229.007 -23.7871 227.776 -23.3729 226.543 -22.9719C225.32 -22.6056 224.048 -22.0742 222.808 -21.6294C221.556 -21.17 220.309 -20.713 219.068 -20.258C217.806 -19.8109 216.566 -19.3126 215.304 -18.9155C214.038 -18.5292 212.78 -18.1451 211.53 -17.7638C210.905 -17.5732 210.281 -17.3833 209.66 -17.1943C209.038 -17.0092 208.408 -16.8713 207.786 -16.7087C205.29 -16.086 202.842 -15.4269 200.406 -14.9819C199.192 -14.7363 197.991 -14.4931 196.805 -14.2529C195.61 -14.0624 194.43 -13.8738 193.265 -13.688C188.607 -12.927 184.163 -12.5093 180.058 -12.1834C178.003 -12.052 176.031 -11.9562 174.155 -11.8734C172.278 -11.8435 170.495 -11.7668 168.82 -11.7836C165.469 -11.7866 162.544 -11.8652 160.132 -12.0104C157.722 -12.131 155.822 -12.3111 154.518 -12.4383C153.873 -12.4985 153.337 -12.5714 152.995 -12.6082C152.665 -12.6507 152.391 -13.2373 152.391 -13.2373L151.721 -19.2631Z" fill="#170602"/>
<path d="M201.717 60.4151C201.717 60.4151 201.76 61.6895 201.895 63.9447C202.03 66.1941 202.255 69.4094 202.648 73.2546C202.848 75.1767 203.079 77.2581 203.384 79.4489C203.67 81.644 204.05 83.9441 204.489 86.3139C204.956 88.6742 205.468 91.1141 206.2 93.5196C206.563 94.7408 206.928 95.9718 207.295 97.2071C207.62 98.4677 207.987 99.7283 208.27 100.995C208.892 103.522 209.399 106.071 209.866 108.584C210.329 111.097 210.709 113.584 211.043 115.994C211.191 117.201 211.336 118.388 211.478 119.55C211.592 120.715 211.703 121.855 211.81 122.964C211.888 124.077 211.964 125.158 212.038 126.204C212.08 127.252 212.121 128.265 212.16 129.237C212.166 130.21 212.172 131.142 212.177 132.028C212.181 132.915 212.118 133.756 212.094 134.545C212.081 135.335 211.982 136.071 211.922 136.752C211.863 137.433 211.798 138.057 211.685 138.614C211.588 139.173 211.502 139.672 211.427 140.106C211.31 140.531 211.21 140.892 211.129 141.185C210.965 141.769 210.878 142.081 210.878 142.081C210.878 142.081 210.957 141.767 211.103 141.178C211.176 140.884 211.266 140.521 211.371 140.095C211.434 139.661 211.505 139.16 211.586 138.601C211.683 138.044 211.731 137.42 211.77 136.739C211.811 136.059 211.889 135.326 211.881 134.537C211.882 133.75 211.922 132.913 211.893 132.03C211.863 131.147 211.831 130.22 211.798 129.251C211.733 128.285 211.664 127.278 211.592 126.236C211.49 125.196 211.385 124.122 211.276 123.017C211.138 121.916 210.996 120.784 210.85 119.628C210.676 118.476 210.499 117.299 210.318 116.101C209.918 113.713 209.471 111.251 208.941 108.766C208.408 106.283 207.833 103.766 207.147 101.283C206.831 100.031 206.439 98.8149 206.086 97.5878C205.684 96.3623 205.284 95.1412 204.888 93.9297C204.067 91.4788 203.479 89.0171 202.937 86.632C202.425 84.2423 201.976 81.9229 201.624 79.7142C201.254 77.5076 200.963 75.414 200.706 73.48C200.201 69.6112 199.883 66.3758 199.683 64.1081C199.485 61.8453 199.403 60.5333 199.403 60.5333L201.717 60.4151Z" fill="#170602"/>
<path d="M25.1197 -23.488C25.1197 -23.488 25.1744 -23.5214 25.2815 -23.5874C25.3969 -23.6544 25.5693 -23.7546 25.7965 -23.8865C26.22 -24.1173 26.833 -24.4467 27.6431 -24.8057C29.2616 -25.5248 31.6855 -26.4523 34.9511 -26.9619C38.1871 -27.4854 42.364 -27.4676 46.7659 -26.0266C48.9563 -25.3095 51.1782 -24.2494 53.288 -22.8419C55.3895 -21.4243 57.3746 -19.6825 59.2189 -17.7078C61.0902 -15.7464 62.7028 -13.4785 64.268 -11.0999C65.0094 -9.88754 65.7816 -8.66468 66.4469 -7.37031C67.1665 -6.09913 67.795 -4.7687 68.4347 -3.4218L68.6767 -2.91646L68.798 -2.66352L68.8805 -2.48423L68.9337 -2.35847L69.3594 -1.34936C69.6437 -0.674439 69.9302 0.00467441 70.2184 0.687523C70.7429 2.13243 71.3433 3.61662 71.8014 5.10329C72.7976 8.06742 73.5581 11.1646 74.2438 14.3205C74.8626 17.4894 75.3654 20.726 75.7106 24.01C76.0411 27.2938 76.2559 30.617 76.379 33.959C76.6129 40.6394 76.4872 47.3859 76.6006 54.0675C76.7367 60.7371 77.0805 67.4088 78.6872 73.6721C79.487 76.7966 80.605 79.8033 82.0934 82.574C83.5727 85.3522 85.4398 87.8616 87.529 90.1146C91.7914 94.704 96.3864 98.6475 100.938 102.173C105.493 105.691 110.008 108.77 114.113 111.715C118.225 114.648 121.916 117.499 124.857 120.396C127.802 123.29 129.902 126.273 131.201 128.93C132.473 131.606 133.049 133.877 133.316 135.429C133.481 136.201 133.513 136.809 133.579 137.21C133.631 137.614 133.658 137.823 133.658 137.823C133.658 137.823 133.625 137.615 133.561 137.212C133.483 136.813 133.434 136.208 133.248 135.442C132.938 133.903 132.298 131.659 130.964 129.05C129.602 126.457 127.45 123.58 124.462 120.807C121.476 118.03 117.744 115.313 113.562 112.508C109.387 109.689 104.777 106.737 100.079 103.32C95.3935 99.9031 90.5894 96.0128 86.1305 91.4802C83.8636 89.1764 81.7992 86.5637 80.1427 83.6552C78.4748 80.7545 77.1969 77.5931 76.262 74.3298C74.3843 67.7821 73.8473 60.9175 73.5132 54.1678C73.2045 47.4023 73.1364 40.689 72.7179 34.1397C72.5029 30.8678 72.2003 27.64 71.7902 24.4758C71.3659 21.3142 70.7931 18.2258 70.118 15.2224C69.3772 12.2376 68.5741 9.32436 67.5544 6.55962C67.3246 5.85415 67.0514 5.19013 66.7845 4.52693C66.518 3.862 66.2524 3.20031 65.9886 2.54344C65.6808 1.86893 65.3751 1.19803 65.0711 0.53199L64.6168 -0.464155L64.5604 -0.588381C64.5458 -0.620783 64.5864 -0.529926 64.5548 -0.596087L64.5249 -0.654589L64.4038 -0.888915L64.1631 -1.35614C63.5258 -2.60246 62.9019 -3.83369 62.2021 -4.98807C61.5497 -6.17595 60.8091 -7.27009 60.1019 -8.35974C58.6177 -10.4754 57.114 -12.47 55.4445 -14.1129C53.7972 -15.7756 52.0826 -17.1873 50.3373 -18.295C48.5853 -19.3899 46.8085 -20.1662 45.0909 -20.6744C41.6464 -21.6874 38.4598 -21.6158 35.9234 -21.1296C33.3748 -20.6575 31.4531 -19.8599 30.2162 -19.265C29.5927 -18.9675 29.1483 -18.7079 28.8609 -18.5419C28.7376 -18.4659 28.6446 -18.4081 28.5822 -18.3697C28.5144 -18.3255 28.4797 -18.3027 28.4797 -18.3027L25.1197 -23.488Z" fill="#170602"/>
<path d="M-58.4478 14.5136C-58.4478 14.5136 -58.4638 14.5406 -58.4961 14.5935C-58.5216 14.6381 -58.5593 14.7047 -58.6099 14.7922C-58.7274 15.0095 -58.9131 15.359 -59.1258 15.8497C-59.5519 16.8221 -60.1235 18.3472 -60.457 20.3708C-60.8048 22.3885 -60.8747 24.9145 -60.2722 27.7367C-59.6467 30.5462 -58.3156 33.6434 -56.0874 36.6306C-53.8973 39.6399 -50.8642 42.5191 -47.2813 45.1468C-46.4092 45.8329 -45.4362 46.4241 -44.4959 47.0777C-43.5381 47.7098 -42.5245 48.2932 -41.5235 48.916C-39.422 50.147 -37.2757 51.4052 -35.0921 52.6842C-30.7202 55.2691 -26.2279 57.9882 -21.7504 60.9512C-17.296 63.9302 -12.8025 67.183 -8.97672 71.2946L-7.57404 72.8622C-7.09916 73.3764 -6.71647 73.9792 -6.28521 74.5332C-5.40106 75.6303 -4.71103 76.8666 -3.99069 78.0729L-3.72261 78.5256L-3.49917 79.0025L-3.05412 79.9554L-2.61157 80.9064C-2.4555 81.22 -2.32102 81.5405 -2.21602 81.8723C-1.76408 83.1856 -1.24865 84.4767 -0.960628 85.8158C-0.794139 86.4786 -0.627161 87.1407 -0.461605 87.8008C-0.344277 88.4669 -0.227751 89.1315 -0.110797 89.7948C0.155838 91.1176 0.277192 92.4416 0.426347 93.7545C0.499199 94.3963 0.572404 95.0363 0.644653 95.6736C0.724728 96.3104 0.778886 96.9722 0.901627 97.5581C1.09455 98.7579 1.37504 99.9756 1.69498 101.164C2.98833 105.932 5.16041 110.289 7.5692 114.171C10.0118 118.044 12.7501 121.444 15.538 124.327C18.323 127.218 21.1647 129.586 23.855 131.435C26.5455 133.286 29.1076 134.575 31.3074 135.386C33.5102 136.203 35.3567 136.49 36.6125 136.542C37.2425 136.598 37.7248 136.551 38.0509 136.536C38.3773 136.52 38.5452 136.511 38.5452 136.511C38.5452 136.511 38.3775 136.525 38.0522 136.554C37.7271 136.58 37.2438 136.645 36.6101 136.611C35.3474 136.603 33.4754 136.382 31.221 135.637C28.9695 134.898 26.3307 133.686 23.541 131.911C20.7516 130.137 17.7869 127.842 14.8554 125.01C11.9204 122.185 9.01114 118.829 6.36872 114.954C3.76138 111.068 1.35748 106.668 -0.181629 101.714C-0.562401 100.477 -0.902841 99.2202 -1.16377 97.8938C-1.32185 97.2265 -1.39317 96.6043 -1.49762 95.9624C-1.59432 95.3194 -1.69142 94.6736 -1.78865 94.0267C-1.97863 92.7617 -2.14183 91.4823 -2.4422 90.2345C-2.57518 89.6066 -2.70891 88.9771 -2.84282 88.3465C-3.02194 87.7317 -3.20121 87.1157 -3.38071 86.4981C-3.69353 85.2459 -4.21946 84.0763 -4.67538 82.8785C-4.78158 82.575 -4.9164 82.285 -5.07078 82.0045L-5.50747 81.1502L-5.94304 80.2958L-6.16031 79.8683L-6.42106 79.4652C-7.12036 78.3925 -7.77589 77.2936 -8.62623 76.3204C-9.04113 75.8285 -9.39747 75.2947 -9.8569 74.8359L-11.2026 73.4381C-14.8647 69.7665 -19.2797 66.7826 -23.735 64.0331C-28.2103 61.2977 -32.7503 58.7655 -37.1691 56.3622C-39.391 55.1651 -41.5765 53.9879 -43.7152 52.8352C-44.8035 52.2135 -45.8974 51.6327 -46.9474 50.9934C-47.9845 50.3292 -49.0423 49.7322 -50.0208 49.0223C-54.0031 46.3137 -57.5249 43.2368 -60.2297 39.7971C-62.9657 36.3937 -64.8042 32.6143 -65.7267 29.0448C-66.6354 25.461 -66.664 22.1547 -66.3092 19.5188C-65.9682 16.8684 -65.3029 14.8598 -64.7673 13.5043C-64.5014 12.8254 -64.2541 12.3069 -64.0736 11.944C-64.0269 11.8525 -63.9859 11.7725 -63.9508 11.7035C-63.9048 11.6194 -63.8665 11.5488 -63.8359 11.4922C-63.7851 11.4013 -63.7592 11.3554 -63.7592 11.3554L-58.4478 14.5136Z" fill="#170602"/>
<path d="M75.7586 44.0887C75.7586 44.0887 75.8941 44.2597 76.1487 44.5801C76.4109 44.899 76.7959 45.3662 77.2858 45.9612C78.2806 47.1425 79.7298 48.8153 81.5656 50.7274C82.4889 51.6777 83.4999 52.6966 84.6102 53.7279C85.1692 54.2386 85.7351 54.7753 86.3443 55.2824C86.9403 55.8089 87.5662 56.3222 88.217 56.8248C88.8522 57.3527 89.5478 57.8069 90.2299 58.3069C90.5783 58.543 90.9408 58.7579 91.2989 58.9864C91.6554 59.2197 92.0202 59.4394 92.4008 59.626C92.7737 59.8175 93.1629 60.039 93.5261 60.2093C93.935 60.3926 94.3388 60.5636 94.728 60.7011C95.5254 60.9931 96.3698 61.2484 97.2201 61.4566C100.635 62.3015 104.203 62.7034 107.507 63.3234C110.815 63.917 113.892 64.7376 116.327 65.9265C117.544 66.5147 118.6 67.1758 119.461 67.8549C120.313 68.546 120.999 69.2147 121.496 69.8222C121.997 70.4241 122.357 70.9259 122.572 71.2855C122.795 71.6401 122.914 71.8291 122.914 71.8291C122.914 71.8291 122.787 71.6451 122.55 71.3003C122.322 70.9509 121.943 70.4648 121.422 69.8882C120.904 69.3059 120.198 68.6722 119.333 68.0258C118.457 67.3909 117.394 66.7844 116.176 66.256C113.739 65.1869 110.689 64.5029 107.389 64.0475C105.738 63.8121 104.022 63.6199 102.273 63.4064C100.524 63.1883 98.7392 62.9603 96.9604 62.5862C96.068 62.4046 95.189 62.18 94.3034 61.8954C93.8476 61.7524 93.4279 61.5932 93.0212 61.4304C92.5752 61.2438 92.188 61.0418 91.771 60.8483C91.3539 60.6628 90.9597 60.4471 90.5762 60.2186C90.1904 59.9939 89.7978 59.7814 89.4234 59.5489C88.6943 59.0598 87.9445 58.609 87.2681 58.0929C86.5723 57.5993 85.9042 57.0951 85.2696 56.5796C84.6198 56.0802 84.0189 55.5556 83.4234 55.0539C82.2415 54.0425 81.166 53.0431 80.1835 52.1099C78.2296 50.233 76.6841 48.5891 75.6173 47.4216C75.0891 46.8307 74.674 46.3664 74.3912 46.0499C74.1114 45.7255 73.9626 45.5524 73.9626 45.5524L75.7586 44.0887Z" fill="#170602"/>
<path d="M-121.079 1.76666C-121.107 1.76537 -120.848 1.77059 -120.799 1.75155C-120.773 1.74973 -120.745 1.74753 -120.714 1.74496L-120.661 1.74398C-120.624 1.7379 -120.587 1.73165 -120.547 1.72455C-120.389 1.69965 -120.206 1.67018 -119.999 1.63746C-119.13 1.44558 -117.76 1.12465 -116.002 0.388239C-114.241 -0.280295 -112.123 -1.35614 -109.735 -2.69648C-108.542 -3.37108 -107.309 -4.18858 -105.986 -4.99529C-104.69 -5.85922 -103.35 -6.81599 -101.936 -7.78794C-100.553 -8.81365 -99.1338 -9.92041 -97.6507 -11.0455C-96.1881 -12.2005 -94.7236 -13.4662 -93.1894 -14.729C-92.4165 -15.3536 -91.6624 -16.0247 -90.907 -16.7145C-90.1468 -17.3989 -89.3771 -18.0918 -88.5993 -18.792C-87.8265 -19.4989 -87.021 -20.186 -86.2515 -20.9302C-85.4815 -21.6745 -84.7039 -22.4254 -83.92 -23.1834C-80.7394 -26.1686 -77.6397 -29.4568 -74.4353 -32.7468C-71.3203 -36.1459 -68.1562 -39.5989 -64.9916 -43.0527C-63.406 -44.7819 -61.8205 -46.5118 -60.2408 -48.2346C-58.6378 -49.9443 -56.9639 -51.6005 -55.3465 -53.2664C-54.5329 -54.0961 -53.7228 -54.9231 -52.9167 -55.7456C-52.0834 -56.5385 -51.254 -57.327 -50.4296 -58.1114C-49.6057 -58.8946 -48.7868 -59.6731 -47.9734 -60.4464C-47.163 -61.2216 -46.3587 -61.9914 -45.5182 -62.7109C-43.861 -64.172 -42.2316 -65.6091 -40.6369 -67.0154C-38.988 -68.3587 -37.3751 -69.6729 -35.8048 -70.9525C-32.6091 -73.4419 -29.5285 -75.7173 -26.5786 -77.6653C-23.6402 -79.627 -20.85 -81.2787 -18.3204 -82.6333C-17.0686 -83.3339 -15.8329 -83.8716 -14.727 -84.4306C-13.599 -84.948 -12.5406 -85.3759 -11.5941 -85.7767C-9.6655 -86.4997 -8.12747 -86.9986 -7.05198 -87.2434C-6.51899 -87.382 -6.10379 -87.4583 -5.82337 -87.5062C-5.54441 -87.5606 -5.39758 -87.571 -5.39758 -87.571C-5.39758 -87.571 -5.54364 -87.555 -5.82046 -87.4891C-6.09818 -87.4298 -6.50886 -87.3366 -7.03504 -87.1769C-8.09515 -86.8897 -9.60837 -86.3288 -11.4931 -85.5323C-12.4188 -85.0943 -13.4515 -84.6265 -14.55 -84.0669C-15.6275 -83.465 -16.8284 -82.8829 -18.0428 -82.1361C-20.4973 -80.6886 -23.196 -78.9372 -26.028 -76.8728C-28.8715 -74.8226 -31.8323 -72.4413 -34.8947 -69.8465C-36.3976 -68.5158 -37.9413 -67.1485 -39.5192 -65.7512C-41.0414 -64.2932 -42.5965 -62.8032 -44.1781 -61.2881C-44.9796 -60.5435 -45.7453 -59.7468 -46.5172 -58.9454C-47.291 -58.1464 -48.0704 -57.3423 -48.8547 -56.5329C-49.6378 -55.7237 -50.4266 -54.9098 -51.2186 -54.0915C-51.9806 -53.2468 -52.7466 -52.3982 -53.5155 -51.5464C-55.0458 -49.8331 -56.6167 -48.1493 -58.1395 -46.3851C-59.6469 -44.5989 -61.1601 -42.8056 -62.6733 -41.0124C-65.7042 -37.4185 -68.7358 -33.8245 -71.7198 -30.2866C-74.821 -26.8275 -77.8212 -23.3713 -80.9298 -20.2021C-81.6952 -19.3992 -82.4548 -18.6028 -83.2069 -17.8136C-83.9589 -17.0244 -84.7525 -16.2871 -85.5117 -15.5336C-86.2772 -14.7854 -87.0343 -14.0451 -87.7824 -13.314C-88.526 -12.5778 -89.269 -11.8587 -90.0376 -11.1828C-91.5614 -9.81822 -93.0129 -8.45732 -94.4768 -7.20013C-95.9663 -5.96876 -97.3908 -4.76091 -98.7894 -3.63269C-100.231 -2.54937 -101.596 -1.49005 -102.93 -0.520037C-104.307 0.402851 -105.577 1.31969 -106.841 2.10593C-109.376 3.67039 -111.662 4.95459 -113.706 5.83533C-115.703 6.76667 -117.465 7.29166 -118.729 7.61112C-119.062 7.67859 -119.357 7.73849 -119.611 7.79011C-119.675 7.80275 -119.736 7.81443 -119.795 7.82583C-119.872 7.83584 -119.946 7.84533 -120.017 7.85443C-120.161 7.87066 -120.291 7.88498 -120.406 7.89791C-120.921 7.95009 -120.957 7.93809 -120.984 7.9429L-121.079 1.76666Z" fill="#170602"/>
<path d="M-2.54388 81.4812C-2.54388 81.4812 -2.464 81.6908 -2.31349 82.0835C-2.15236 82.4837 -1.90174 83.0731 -1.54851 83.8113C-0.839906 85.283 0.275095 87.3661 1.96883 89.6088C3.66254 91.8307 5.95086 94.2623 8.98624 95.9838C10.4955 96.8446 12.1765 97.5224 13.9633 97.9174C14.8555 98.1182 15.7732 98.2338 16.7006 98.3007C17.1642 98.3271 17.6317 98.3198 18.0989 98.3316L19.5625 98.3451L21.0109 98.3584L22.4759 98.4484L23.9337 98.5433C24.4135 98.5974 24.8915 98.6512 25.3679 98.7046C25.8438 98.7598 26.3175 98.8141 26.7889 98.8688C27.2572 98.9425 27.7233 99.0159 28.1865 99.0892C29.1142 99.2282 30.0258 99.3857 30.9161 99.5766C31.8099 99.7484 32.6849 99.9313 33.5346 100.143C34.3873 100.34 35.219 100.54 36.021 100.766C37.6316 101.187 39.1383 101.644 40.5189 102.091C43.2822 102.984 45.5394 103.852 47.1044 104.493C48.6695 105.135 49.5423 105.55 49.5423 105.55C49.5423 105.55 48.6543 105.168 47.0686 104.586C45.483 104.004 43.1982 103.223 40.4145 102.438C39.0232 102.045 37.5081 101.646 35.8926 101.287C35.0882 101.093 34.2551 100.925 33.402 100.762C32.5523 100.583 31.6781 100.435 30.7873 100.298C29.8996 100.142 28.9923 100.02 28.0712 99.9178C27.6116 99.8626 27.1492 99.8079 26.6844 99.7523C26.2183 99.7161 25.7494 99.6797 25.2788 99.6435C24.809 99.6084 24.3368 99.573 23.8635 99.5372L22.4454 99.4977L21.0222 99.4623L19.5745 99.5036L18.1414 99.544C17.644 99.5509 17.1463 99.576 16.6501 99.567C15.6561 99.5334 14.6644 99.446 13.6939 99.2655C11.7505 98.9126 9.8967 98.2454 8.22764 97.3743C4.8683 95.6293 2.32331 93.1137 0.43423 90.8193C-1.45628 88.502 -2.71523 86.3471 -3.52895 84.8074C-3.93465 84.0358 -4.22761 83.4128 -4.42132 82.9803C-4.6113 82.5338 -4.71249 82.2962 -4.71249 82.2962L-2.54388 81.4812Z" fill="#170602"/>
<path d="M154.999 30.1466C154.999 30.1466 155.043 30.2066 155.127 30.323C155.212 30.4473 155.355 30.6408 155.509 30.877C155.824 31.3532 156.277 32.0485 156.792 32.9614C157.32 33.868 157.906 34.9945 158.527 36.3085C158.847 36.961 159.132 37.6799 159.462 38.4241C159.765 39.1793 160.068 39.9797 160.379 40.8149C160.956 42.5031 161.534 44.3482 161.981 46.3404C162.203 47.3367 162.441 48.3568 162.589 49.4188C162.675 49.9472 162.762 50.4811 162.849 51.0199C162.906 51.563 162.963 52.1111 163.02 52.6642C163.07 53.2178 163.149 53.7724 163.174 54.336C163.196 54.8996 163.219 55.467 163.241 56.0384C163.318 57.1791 163.257 58.3356 163.23 59.4996C163.171 61.789 163.038 64.1348 163.129 66.4225C163.19 68.7277 163.379 71.0448 163.644 73.3104C163.768 74.4452 163.967 75.5613 164.121 76.6705C164.299 77.776 164.528 78.8588 164.724 79.9296C164.949 80.9942 165.204 82.0345 165.436 83.0571C165.71 84.0694 165.978 85.0594 166.239 86.0232C166.541 86.9754 166.834 87.9016 167.118 88.7976C167.441 89.6804 167.754 90.5335 168.053 91.3523C168.391 92.1564 168.715 92.9268 169.023 93.6594C169.369 94.375 169.697 95.054 170.006 95.6924C170.353 96.3102 170.678 96.8882 170.979 97.4228C171.319 97.9334 171.631 98.4022 171.913 98.826C172.198 99.2477 172.518 99.5745 172.762 99.8856C173.001 100.204 173.25 100.429 173.459 100.606C173.865 100.971 174.083 101.166 174.083 101.166C174.083 101.166 173.86 100.978 173.441 100.626C173.226 100.455 172.969 100.235 172.719 99.9241C172.465 99.62 172.132 99.3 171.833 98.8859C171.536 98.4686 171.208 98.0072 170.85 97.5041C170.531 96.9759 170.186 96.4046 169.818 95.7941C169.488 95.162 169.136 94.4895 168.766 93.7807C168.434 93.0531 168.084 92.2885 167.719 91.4898C167.392 90.6753 167.051 89.8266 166.698 88.9485C166.385 88.0554 166.06 87.1324 165.727 86.1828C165.434 85.2199 165.132 84.231 164.824 83.2205C164.559 82.198 164.27 81.1568 164.009 80.0897C163.778 79.0163 163.513 77.93 163.298 76.8194C163.107 75.7051 162.871 74.5822 162.71 73.4388C162.371 71.1524 162.107 68.8219 161.971 66.4659C161.807 64.0914 161.869 61.7715 161.856 59.4688C161.847 58.3364 161.872 57.2139 161.763 56.1087C161.724 55.5559 161.685 55.007 161.647 54.4614C161.606 53.9162 161.511 53.3807 161.447 52.8466C161.375 52.3135 161.304 51.7854 161.234 51.2617C161.132 50.7433 161.033 50.2299 160.933 49.7219C160.759 48.7017 160.498 47.7231 160.254 46.7693C159.764 44.8618 159.151 43.1027 158.547 41.4977C158.223 40.7037 157.908 39.9444 157.595 39.2294C157.255 38.526 156.963 37.8454 156.637 37.2314C156.005 35.994 155.412 34.9366 154.886 34.0957C154.372 33.2457 153.928 32.6101 153.627 32.1833C153.478 31.9798 153.363 31.824 153.286 31.719C153.201 31.6094 153.157 31.5528 153.157 31.5528L154.999 30.1466Z" fill="#170602"/>
<path d="M208.869 104.908C208.869 104.908 210.179 105.6 212.017 106.8C212.935 107.405 213.996 108.123 215.089 108.954C216.191 109.773 217.32 110.707 218.417 111.674C218.948 112.178 219.502 112.656 220.003 113.173C220.5 113.695 221.021 114.175 221.461 114.703C221.906 115.224 222.369 115.7 222.739 116.208C223.115 116.711 223.504 117.16 223.803 117.62C224.106 118.076 224.384 118.494 224.63 118.864C224.87 119.238 225.039 119.589 225.198 119.865C225.506 120.423 225.681 120.742 225.681 120.742C225.681 120.742 225.495 120.429 225.169 119.881C225.001 119.611 224.821 119.267 224.569 118.903C224.311 118.542 224.021 118.135 223.704 117.691C223.393 117.244 222.989 116.809 222.599 116.323C222.216 115.83 221.739 115.372 221.281 114.87C220.828 114.362 220.293 113.901 219.785 113.4C219.271 112.905 218.704 112.448 218.163 111.966C217.043 111.043 215.895 110.156 214.778 109.383C213.669 108.596 212.595 107.92 211.669 107.353C209.807 106.223 208.514 105.595 208.514 105.595L208.869 104.908Z" fill="#170602"/>
<path d="M106.574 106.664C106.574 106.664 107.247 107.651 108.023 109.219C108.815 110.782 109.702 112.951 110.301 115.203C110.464 115.762 110.591 116.33 110.707 116.89C110.841 117.447 110.918 118.006 111.004 118.543C111.102 119.079 111.141 119.605 111.19 120.101C111.249 120.596 111.277 121.067 111.28 121.502C111.29 121.937 111.313 122.335 111.309 122.687C111.294 123.04 111.282 123.347 111.272 123.6C111.251 124.106 111.239 124.395 111.239 124.395C111.239 124.395 111.239 124.106 111.238 123.6C111.238 123.347 111.238 123.04 111.238 122.688C111.227 122.337 111.188 121.941 111.16 121.509C111.139 121.077 111.09 120.611 111.012 120.121C110.942 119.631 110.882 119.112 110.762 118.585C110.654 118.056 110.555 117.507 110.4 116.962C110.262 116.412 110.113 115.857 109.93 115.312C109.246 113.115 108.283 111.02 107.444 109.523C106.615 108.011 105.942 107.109 105.942 107.109L106.574 106.664Z" fill="#170602"/>
<path d="M242.658 -28.5941C242.658 -28.5941 242.684 -28.5244 242.735 -28.3893C242.795 -28.2469 242.883 -28.0358 242.999 -27.76C243.243 -27.2066 243.63 -26.3934 244.198 -25.3952C245.336 -23.4133 247.191 -20.6244 250.16 -18.0138C251.64 -16.7167 253.381 -15.4506 255.401 -14.4352C257.417 -13.4145 259.691 -12.6186 262.128 -12.1538C264.564 -11.6844 267.158 -11.5488 269.781 -11.7323C270.437 -11.7777 271.093 -11.8616 271.753 -11.9246C272.481 -11.999 273.117 -12.0378 273.805 -12.0961C275.159 -12.1968 276.505 -12.36 277.908 -12.2813C280.696 -12.3029 283.433 -12.0206 286.103 -11.6011C286.768 -11.4803 287.431 -11.3598 288.09 -11.2394C288.749 -11.1236 289.405 -11.0067 290.043 -10.8276C291.322 -10.489 292.602 -10.2177 293.828 -9.83629C295.049 -9.44144 296.26 -9.08569 297.426 -8.67919C298.581 -8.24534 299.711 -7.8205 300.811 -7.4073C301.89 -6.94566 302.941 -6.49588 303.956 -6.06158C304.954 -5.58877 305.918 -5.13174 306.843 -4.69304C308.674 -3.77515 310.332 -2.89746 311.772 -2.06556C313.215 -1.24209 314.455 -0.490574 315.456 0.15645C317.468 1.43855 318.562 2.25347 318.562 2.25347C318.562 2.25347 317.446 1.46749 315.404 0.240886C314.386 -0.378588 313.129 -1.09557 311.667 -1.87887C310.209 -2.66996 308.533 -3.5006 306.686 -4.36613C305.754 -4.77787 304.782 -5.20747 303.777 -5.65158C302.756 -6.05692 301.701 -6.4756 300.615 -6.906C299.513 -7.28729 298.38 -7.67848 297.223 -8.07933C296.057 -8.45139 294.848 -8.77183 293.629 -9.13049C292.406 -9.47566 291.134 -9.70968 289.864 -10.0106C289.23 -10.1706 288.581 -10.2686 287.928 -10.3651C287.276 -10.4662 286.621 -10.5674 285.964 -10.6689C283.331 -11.0122 280.623 -11.214 277.96 -11.1238C276.634 -11.1707 275.271 -10.9707 273.923 -10.8342C273.261 -10.7609 272.546 -10.695 271.932 -10.6152C271.25 -10.5312 270.572 -10.4269 269.892 -10.3618C267.172 -10.099 264.446 -10.1654 261.852 -10.5936C259.259 -11.0167 256.805 -11.8011 254.615 -12.838C252.42 -13.8702 250.513 -15.1796 248.887 -16.5295C245.626 -19.2491 243.566 -22.1742 242.285 -24.273C241.645 -25.3307 241.203 -26.2005 240.915 -26.8074C240.772 -27.1115 240.666 -27.3507 240.597 -27.5148C240.527 -27.6868 240.49 -27.7754 240.49 -27.7754L242.658 -28.5941Z" fill="#170602"/>
</g>
</g>
<defs>
<filter id="filter0_f_0_6623" x="-169.119" y="-241.511" width="584.768" height="417.19" filterUnits="userSpaceOnUse" color-interpolation-filters="sRGB">
<feFlood flood-opacity="0" result="BackgroundImageFix"/>
<feBlend mode="normal" in="SourceGraphic" in2="BackgroundImageFix" result="shape"/>
<feGaussianBlur stdDeviation="3.0721" result="effect1_foregroundBlur_0_6623"/>
</filter>
</defs>
</svg>
