<svg width="107" height="125" viewBox="0 0 107 125" fill="none" xmlns="http://www.w3.org/2000/svg">
<mask id="path-1-outside-1_1_6441" maskUnits="userSpaceOnUse" x="-7.15343" y="-7.34847" width="120.631" height="139.015" fill="black">
<rect fill="white" x="-7.15343" y="-7.34847" width="120.631" height="139.015"/>
<path fill-rule="evenodd" clip-rule="evenodd" d="M76.1627 69.4406C76.4403 69.6314 76.7226 69.8162 77.0094 69.9939L77.0094 69.994C76.7225 69.8163 76.4403 69.6315 76.1626 69.4406C75.7488 69.1562 75.3444 68.8602 74.9531 68.5536C72.2654 66.4485 69.9263 63.8799 67.5971 61.3222C64.2783 57.6777 60.9797 54.0554 56.7215 51.8281C56.4364 51.6789 56.146 51.5375 55.8519 51.4013L55.774 51.3651L55.7737 51.365C55.635 51.3005 55.4962 51.236 55.3549 51.1753C51.0598 49.3296 46.3614 49.1657 41.6417 49.0011L41.6406 49.001C41.0125 48.9791 40.3841 48.9572 39.7562 48.9313C39.4185 48.9173 39.081 48.902 38.7437 48.8852C37.0514 48.8006 35.3664 48.672 33.7065 48.4203C30.1012 47.8737 26.3795 46.5589 23.839 44.0527L23.8387 44.0523C26.3793 46.5587 30.1011 47.8736 33.7067 48.4203C35.3666 48.6719 37.0515 48.8006 38.7439 48.8851L38.7439 48.8851C39.0811 48.9019 39.4187 48.9173 39.7563 48.9312L39.7563 48.9311C40.3844 48.9571 41.0131 48.979 41.6413 49.0009L41.6424 49.0009C46.3618 49.1656 51.06 49.3295 55.355 51.1751C55.4962 51.2358 55.6348 51.3003 55.7735 51.3647L55.852 51.4012C55.8668 51.344 55.8813 51.2867 55.8957 51.2294C55.9171 51.1449 55.9384 51.0604 55.9609 50.9764C56.0494 50.6462 56.1406 50.3173 56.2337 49.9898C58.555 41.8256 62.1856 34.0378 66.9384 27.0056C66.1177 26.6336 65.291 26.269 64.4588 25.9133L64.4588 25.9133C64.0886 25.7551 63.7174 25.5988 63.345 25.4444L63.345 25.4444C62.5218 25.1029 61.6939 24.7717 60.8614 24.4519C59.8499 24.0633 58.8324 23.6906 57.8086 23.34L57.8087 23.34C55.2792 22.4738 52.7156 21.7336 50.1327 21.1735C42.8355 19.5911 35.2038 20.0159 28.6635 23.8817C27.541 24.5453 26.4813 25.315 25.5189 26.1959C22.3408 29.1045 20.4011 33.612 20.8227 37.784L20.8228 37.784C20.8655 38.2074 20.9323 38.6272 21.0249 39.0416C21.2405 40.0062 21.5949 40.9405 22.1018 41.8201C16.7018 47.0708 12.942 53.9982 11.5385 61.4012C9.99023 69.569 11.3138 78.252 15.2251 85.5874C16.534 88.0422 18.1129 90.3343 19.6924 92.6275L19.6925 92.6276C20.7222 94.1225 21.7521 95.6179 22.7079 97.159C25.1299 101.064 27.1129 105.435 27.1229 110.03C27.1243 110.629 27.4845 111.107 27.9775 111.328C28.4598 111.571 29.0583 111.548 29.5233 111.172C33.0935 108.278 37.7351 107.057 42.2928 106.47C44.0909 106.238 45.9002 106.093 47.709 105.948C50.4853 105.725 53.2602 105.503 55.9908 104.968C64.149 103.37 71.7186 98.9153 77.0755 92.5584C80.8922 88.0289 83.5594 82.5546 84.8512 76.776L84.8511 76.776L84.8534 76.7653C84.9721 76.2331 85.0784 75.6983 85.1741 75.1616C85.19 75.0731 85.2056 74.9849 85.2207 74.8964C85.2817 74.5399 85.3363 74.1823 85.3868 73.8242C85.4215 73.5785 85.4544 73.3327 85.4841 73.0863C85.5061 72.9031 85.5266 72.7196 85.5459 72.536C85.5612 72.3897 85.5752 72.2432 85.5886 72.0967C87.8157 71.7117 89.8851 70.5433 91.4866 68.9236C91.7937 68.613 92.0855 68.288 92.3559 67.9466C92.3655 67.9346 92.3745 67.9221 92.3836 67.9097L92.3837 67.9095L92.3838 67.9093L92.384 67.9091L92.3958 67.8928C92.4 67.8872 92.4042 67.8816 92.4085 67.8761C93.5921 66.3603 94.4168 64.5933 94.9162 62.7307C95.1966 61.6841 95.3751 60.6077 95.4578 59.5297C96.0139 52.2891 92.3719 45.2141 87.2238 40.092C85.3748 38.2524 83.3749 36.5812 81.2692 35.0511C80.4428 34.4505 79.599 33.8731 78.7423 33.3147L78.7422 33.3146C76.5478 31.884 74.2639 30.5862 71.9333 29.396C71.7828 29.3192 71.632 29.2433 71.4811 29.1674L71.4806 29.1671L71.4559 29.1547C72.2557 26.9034 73.6699 24.8744 75.4357 23.2562C76.0467 22.6961 76.6988 22.1823 77.3506 21.6686C78.209 20.9922 79.067 20.3161 79.8298 19.5354C80.5114 18.8381 81.1264 18.0327 81.373 17.0894C81.6199 16.146 81.432 15.0421 80.709 14.388C79.2737 13.0896 77.736 14.6376 76.7786 15.6722C75.4962 17.0581 74.3201 18.5422 73.2615 20.1059C71.5893 22.5759 70.2155 25.2471 69.1734 28.0422L69.3429 28.1224L69.3438 28.1228L69.3442 28.123C69.5089 28.2008 69.6735 28.2787 69.8372 28.3572C69.9169 28.3954 69.9964 28.434 70.0758 28.4728C69.9963 28.434 69.9168 28.3954 69.8371 28.3572C69.6805 28.2821 69.523 28.2076 69.3655 28.1331L69.1733 28.0422C68.7217 27.8282 68.2683 27.6158 67.8127 27.4054L67.8127 27.4054C67.5221 27.2711 67.2306 27.1381 66.9385 27.0057C62.1856 34.0379 58.5551 41.8257 56.2338 49.9899C56.1406 50.3174 56.0494 50.6463 55.961 50.9765C55.9385 51.0604 55.9173 51.1447 55.896 51.229L55.896 51.229L55.8959 51.2291L55.8959 51.2291L55.8959 51.2291L55.8959 51.2292L55.8959 51.2292L55.8959 51.2292L55.8959 51.2293L55.8959 51.2293L55.8959 51.2293L55.8959 51.2294L55.8959 51.2294C55.8814 51.2867 55.8669 51.3441 55.8521 51.4012C56.146 51.5374 56.4364 51.6789 56.7215 51.8279L56.7215 51.828C60.9797 54.0554 64.2784 57.6777 67.5973 61.3222L67.5973 61.3223C69.9264 63.8799 72.2655 66.4485 74.9531 68.5535C75.3445 68.86 75.7488 69.1561 76.1627 69.4406Z"/>
</mask>
<path fill-rule="evenodd" clip-rule="evenodd" d="M76.1627 69.4406C76.4403 69.6314 76.7226 69.8162 77.0094 69.9939L77.0094 69.994C76.7225 69.8163 76.4403 69.6315 76.1626 69.4406C75.7488 69.1562 75.3444 68.8602 74.9531 68.5536C72.2654 66.4485 69.9263 63.8799 67.5971 61.3222C64.2783 57.6777 60.9797 54.0554 56.7215 51.8281C56.4364 51.6789 56.146 51.5375 55.8519 51.4013L55.774 51.3651L55.7737 51.365C55.635 51.3005 55.4962 51.236 55.3549 51.1753C51.0598 49.3296 46.3614 49.1657 41.6417 49.0011L41.6406 49.001C41.0125 48.9791 40.3841 48.9572 39.7562 48.9313C39.4185 48.9173 39.081 48.902 38.7437 48.8852C37.0514 48.8006 35.3664 48.672 33.7065 48.4203C30.1012 47.8737 26.3795 46.5589 23.839 44.0527L23.8387 44.0523C26.3793 46.5587 30.1011 47.8736 33.7067 48.4203C35.3666 48.6719 37.0515 48.8006 38.7439 48.8851L38.7439 48.8851C39.0811 48.9019 39.4187 48.9173 39.7563 48.9312L39.7563 48.9311C40.3844 48.9571 41.0131 48.979 41.6413 49.0009L41.6424 49.0009C46.3618 49.1656 51.06 49.3295 55.355 51.1751C55.4962 51.2358 55.6348 51.3003 55.7735 51.3647L55.852 51.4012C55.8668 51.344 55.8813 51.2867 55.8957 51.2294C55.9171 51.1449 55.9384 51.0604 55.9609 50.9764C56.0494 50.6462 56.1406 50.3173 56.2337 49.9898C58.555 41.8256 62.1856 34.0378 66.9384 27.0056C66.1177 26.6336 65.291 26.269 64.4588 25.9133L64.4588 25.9133C64.0886 25.7551 63.7174 25.5988 63.345 25.4444L63.345 25.4444C62.5218 25.1029 61.6939 24.7717 60.8614 24.4519C59.8499 24.0633 58.8324 23.6906 57.8086 23.34L57.8087 23.34C55.2792 22.4738 52.7156 21.7336 50.1327 21.1735C42.8355 19.5911 35.2038 20.0159 28.6635 23.8817C27.541 24.5453 26.4813 25.315 25.5189 26.1959C22.3408 29.1045 20.4011 33.612 20.8227 37.784L20.8228 37.784C20.8655 38.2074 20.9323 38.6272 21.0249 39.0416C21.2405 40.0062 21.5949 40.9405 22.1018 41.8201C16.7018 47.0708 12.942 53.9982 11.5385 61.4012C9.99023 69.569 11.3138 78.252 15.2251 85.5874C16.534 88.0422 18.1129 90.3343 19.6924 92.6275L19.6925 92.6276C20.7222 94.1225 21.7521 95.6179 22.7079 97.159C25.1299 101.064 27.1129 105.435 27.1229 110.03C27.1243 110.629 27.4845 111.107 27.9775 111.328C28.4598 111.571 29.0583 111.548 29.5233 111.172C33.0935 108.278 37.7351 107.057 42.2928 106.47C44.0909 106.238 45.9002 106.093 47.709 105.948C50.4853 105.725 53.2602 105.503 55.9908 104.968C64.149 103.37 71.7186 98.9153 77.0755 92.5584C80.8922 88.0289 83.5594 82.5546 84.8512 76.776L84.8511 76.776L84.8534 76.7653C84.9721 76.2331 85.0784 75.6983 85.1741 75.1616C85.19 75.0731 85.2056 74.9849 85.2207 74.8964C85.2817 74.5399 85.3363 74.1823 85.3868 73.8242C85.4215 73.5785 85.4544 73.3327 85.4841 73.0863C85.5061 72.9031 85.5266 72.7196 85.5459 72.536C85.5612 72.3897 85.5752 72.2432 85.5886 72.0967C87.8157 71.7117 89.8851 70.5433 91.4866 68.9236C91.7937 68.613 92.0855 68.288 92.3559 67.9466C92.3655 67.9346 92.3745 67.9221 92.3836 67.9097L92.3837 67.9095L92.3838 67.9093L92.384 67.9091L92.3958 67.8928C92.4 67.8872 92.4042 67.8816 92.4085 67.8761C93.5921 66.3603 94.4168 64.5933 94.9162 62.7307C95.1966 61.6841 95.3751 60.6077 95.4578 59.5297C96.0139 52.2891 92.3719 45.2141 87.2238 40.092C85.3748 38.2524 83.3749 36.5812 81.2692 35.0511C80.4428 34.4505 79.599 33.8731 78.7423 33.3147L78.7422 33.3146C76.5478 31.884 74.2639 30.5862 71.9333 29.396C71.7828 29.3192 71.632 29.2433 71.4811 29.1674L71.4806 29.1671L71.4559 29.1547C72.2557 26.9034 73.6699 24.8744 75.4357 23.2562C76.0467 22.6961 76.6988 22.1823 77.3506 21.6686C78.209 20.9922 79.067 20.3161 79.8298 19.5354C80.5114 18.8381 81.1264 18.0327 81.373 17.0894C81.6199 16.146 81.432 15.0421 80.709 14.388C79.2737 13.0896 77.736 14.6376 76.7786 15.6722C75.4962 17.0581 74.3201 18.5422 73.2615 20.1059C71.5893 22.5759 70.2155 25.2471 69.1734 28.0422L69.3429 28.1224L69.3438 28.1228L69.3442 28.123C69.5089 28.2008 69.6735 28.2787 69.8372 28.3572C69.9169 28.3954 69.9964 28.434 70.0758 28.4728C69.9963 28.434 69.9168 28.3954 69.8371 28.3572C69.6805 28.2821 69.523 28.2076 69.3655 28.1331L69.1733 28.0422C68.7217 27.8282 68.2683 27.6158 67.8127 27.4054L67.8127 27.4054C67.5221 27.2711 67.2306 27.1381 66.9385 27.0057C62.1856 34.0379 58.5551 41.8257 56.2338 49.9899C56.1406 50.3174 56.0494 50.6463 55.961 50.9765C55.9385 51.0604 55.9173 51.1447 55.896 51.229L55.896 51.229L55.8959 51.2291L55.8959 51.2291L55.8959 51.2291L55.8959 51.2292L55.8959 51.2292L55.8959 51.2292L55.8959 51.2293L55.8959 51.2293L55.8959 51.2293L55.8959 51.2294L55.8959 51.2294C55.8814 51.2867 55.8669 51.3441 55.8521 51.4012C56.146 51.5374 56.4364 51.6789 56.7215 51.8279L56.7215 51.828C60.9797 54.0554 64.2784 57.6777 67.5973 61.3222L67.5973 61.3223C69.9264 63.8799 72.2655 66.4485 74.9531 68.5535C75.3445 68.86 75.7488 69.1561 76.1627 69.4406Z" fill="#A34E17"/>
<path d="M77.0094 69.9939L81.6378 72.4062L83.8776 68.109L79.758 65.5569L77.0094 69.9939ZM76.1627 69.4406L79.1194 65.1394L79.1189 65.1391L76.1627 69.4406ZM77.0094 69.994L74.2607 74.4309L79.0395 77.3913L81.6378 72.4063L77.0094 69.994ZM76.1626 69.4406L79.1193 65.1395L79.1188 65.1391L76.1626 69.4406ZM74.9531 68.5536L78.1715 64.4447L78.1714 64.4446L74.9531 68.5536ZM67.5971 61.3222L71.4562 57.808L71.4562 57.808L67.5971 61.3222ZM56.7215 51.8281L54.3021 56.4528L54.3023 56.4529L56.7215 51.8281ZM55.8519 51.4013L53.6532 56.1349L53.6583 56.1373L55.8519 51.4013ZM55.774 51.3651L53.5277 56.0763L53.5514 56.0876L53.5752 56.0987L55.774 51.3651ZM55.7737 51.365L58.02 46.6537L57.9971 46.6428L57.9741 46.6321L55.7737 51.365ZM55.3549 51.1753L57.4158 46.38L57.4156 46.3799L55.3549 51.1753ZM41.6417 49.0011L41.8236 43.7849L41.8144 43.7846L41.8052 43.7843L41.6417 49.0011ZM41.6406 49.001L41.4587 54.2172L41.4679 54.2175L41.4771 54.2178L41.6406 49.001ZM39.7562 48.9313L39.5403 54.1462L39.5411 54.1462L39.7562 48.9313ZM38.7437 48.8852L38.4833 54.098L38.4836 54.098L38.7437 48.8852ZM33.7065 48.4203L32.9241 53.5807L32.9243 53.5807L33.7065 48.4203ZM23.839 44.0527L19.2595 46.5566L19.6275 47.2297L20.1735 47.7684L23.839 44.0527ZM23.8387 44.0523L27.5043 40.3368L19.2592 46.5562L23.8387 44.0523ZM33.7067 48.4203L32.9242 53.5806L32.9244 53.5807L33.7067 48.4203ZM38.7439 48.8851L38.4834 54.0979L42.0993 54.2786L43.5352 50.9551L38.7439 48.8851ZM38.7439 48.8851L39.0049 43.6722L35.3886 43.4912L33.9526 46.8151L38.7439 48.8851ZM39.7563 48.9312L39.5414 54.1461L43.1141 54.2933L44.5417 51.015L39.7563 48.9312ZM39.7563 48.9311L39.9715 43.7162L36.3987 43.5688L34.971 46.8474L39.7563 48.9311ZM41.6413 49.0009L41.4593 54.2171L41.4686 54.2174L41.4778 54.2177L41.6413 49.0009ZM41.6424 49.0009L41.8243 43.7848L41.8151 43.7845L41.8059 43.7842L41.6424 49.0009ZM55.355 51.1751L53.2943 55.9704L53.2944 55.9705L55.355 51.1751ZM55.7735 51.3647L53.573 56.0975L53.5746 56.0983L55.7735 51.3647ZM55.852 51.4012L53.6531 56.1347L59.3309 58.7723L60.9039 52.7126L55.852 51.4012ZM55.8957 51.2294L50.8353 49.9515L50.8353 49.9516L55.8957 51.2294ZM56.2337 49.9898L61.254 51.4174L61.254 51.4172L56.2337 49.9898ZM66.9384 27.0056L71.2627 29.9283L74.7253 24.8051L69.0934 22.252L66.9384 27.0056ZM64.4588 25.9133L66.5102 21.114L64.1792 20.1177L61.9549 21.3338L64.4588 25.9133ZM64.4588 25.9133L62.4075 30.7127L64.7384 31.709L66.9626 30.4929L64.4588 25.9133ZM63.345 25.4444L65.3444 20.6232L63.029 19.663L60.8321 20.8698L63.345 25.4444ZM63.345 25.4444L61.3451 30.2654L63.6607 31.226L65.8579 30.019L63.345 25.4444ZM60.8614 24.4519L62.7332 19.5797L62.7331 19.5797L60.8614 24.4519ZM57.8086 23.34L55.199 18.8199L45.2588 24.5589L56.1175 28.2778L57.8086 23.34ZM57.8087 23.34L60.4184 27.8601L70.359 22.1208L59.4996 18.4021L57.8087 23.34ZM50.1327 21.1735L49.0266 26.2743L49.0267 26.2743L50.1327 21.1735ZM28.6635 23.8817L26.0077 19.3886L26.0073 19.3888L28.6635 23.8817ZM25.5189 26.1959L29.0427 30.0461L29.0427 30.0461L25.5189 26.1959ZM20.8227 37.784L15.6298 38.3088L17.1601 53.4537L25.245 40.5562L20.8227 37.784ZM20.8228 37.784L26.0157 37.2595L24.4861 22.1131L16.4005 35.0118L20.8228 37.784ZM21.0249 39.0416L26.1185 37.9029L26.1185 37.9029L21.0249 39.0416ZM22.1018 41.8201L25.7403 45.5622L28.6511 42.7319L26.6241 39.2143L22.1018 41.8201ZM11.5385 61.4012L6.41053 60.4291L6.41051 60.4292L11.5385 61.4012ZM15.2251 85.5874L10.6195 88.0431L10.6196 88.0432L15.2251 85.5874ZM19.6924 92.6275L15.3941 95.5882L15.4401 95.6551L15.4882 95.7204L19.6924 92.6275ZM19.6925 92.6276L23.9908 89.667L23.9448 89.6001L23.8967 89.5348L19.6925 92.6276ZM22.7079 97.159L18.2723 99.9098L18.2723 99.9098L22.7079 97.159ZM27.1229 110.03L21.9036 110.042L21.9036 110.042L27.1229 110.03ZM27.9775 111.328L30.3275 106.668L30.2191 106.613L30.1082 106.563L27.9775 111.328ZM29.5233 111.172L32.8088 115.227L32.8094 115.227L29.5233 111.172ZM42.2928 106.47L41.6262 101.293L41.626 101.293L42.2928 106.47ZM47.709 105.948L48.1265 111.151L48.1265 111.151L47.709 105.948ZM55.9908 104.968L56.9937 110.09L56.9938 110.09L55.9908 104.968ZM77.0755 92.5584L81.0667 95.9217L81.0668 95.9216L77.0755 92.5584ZM84.8512 76.776L89.9448 77.9146L91.7686 69.7562L83.6378 71.6996L84.8512 76.776ZM84.8511 76.776L79.7476 75.6823L78.0129 83.7769L86.0644 81.8523L84.8511 76.776ZM84.8534 76.7653L79.7594 75.6283L79.7546 75.6499L79.7499 75.6716L84.8534 76.7653ZM85.1741 75.1616L80.0371 74.2384L80.0358 74.2452L85.1741 75.1616ZM85.2207 74.8964L90.365 75.7786L90.3654 75.7761L85.2207 74.8964ZM85.3868 73.8242L90.5549 74.5538L90.555 74.5535L85.3868 73.8242ZM85.4841 73.0863L90.666 73.7102L90.6662 73.7087L85.4841 73.0863ZM85.5459 72.536L90.7367 73.0809L90.7369 73.0795L85.5459 72.536ZM85.5886 72.0967L84.6994 66.9537L80.7576 67.6352L80.3912 71.6187L85.5886 72.0967ZM91.4866 68.9236L95.198 72.5934L95.1983 72.5931L91.4866 68.9236ZM92.3559 67.9466L88.2657 64.7044L88.2646 64.7059L92.3559 67.9466ZM92.3836 67.9097L88.2613 64.7083L88.2102 64.7741L88.1613 64.8415L92.3836 67.9097ZM92.3837 67.9095L88.2615 64.7081L92.3837 67.9095ZM92.3838 67.9093L96.5061 71.1107L92.3838 67.9093ZM92.384 67.9091L96.5062 71.1105L96.5544 71.0484L96.6007 70.9849L92.384 67.9091ZM92.3958 67.8928L88.1965 64.7934L88.1877 64.8052L88.1791 64.8171L92.3958 67.8928ZM92.4085 67.8761L88.2947 64.6639L88.2907 64.669L92.4085 67.8761ZM94.9162 62.7307L99.9575 64.0822L99.9577 64.0815L94.9162 62.7307ZM95.4578 59.5297L90.2538 59.13L90.2538 59.1304L95.4578 59.5297ZM87.2238 40.092L90.9051 36.392L90.905 36.392L87.2238 40.092ZM81.2692 35.0511L84.3374 30.8288L84.3373 30.8287L81.2692 35.0511ZM78.7423 33.3147L74.6906 36.6048L75.2065 37.2402L75.8922 37.6872L78.7423 33.3147ZM78.7422 33.3146L82.794 30.0245L82.2781 29.3891L81.5924 28.9422L78.7422 33.3146ZM71.9333 29.396L69.5592 34.0442L69.5595 34.0443L71.9333 29.396ZM71.4811 29.1674L73.827 24.5049L73.8237 24.5033L71.4811 29.1674ZM71.4806 29.1671L69.1352 33.8298L69.138 33.8312L71.4806 29.1671ZM71.4559 29.1547L66.5377 27.4074L64.9958 31.7477L69.1105 33.8174L71.4559 29.1547ZM75.4357 23.2562L78.9621 27.1041L78.9625 27.1037L75.4357 23.2562ZM77.3506 21.6686L80.581 25.7681L80.581 25.7681L77.3506 21.6686ZM79.8298 19.5354L76.0971 15.8874L76.0969 15.8876L79.8298 19.5354ZM81.373 17.0894L76.3237 15.7681L76.3235 15.769L81.373 17.0894ZM80.709 14.388L84.2108 10.5177L84.2105 10.5174L80.709 14.388ZM76.7786 15.6722L72.9479 12.1272L72.9476 12.1275L76.7786 15.6722ZM73.2615 20.1059L77.5835 23.032L77.5836 23.0318L73.2615 20.1059ZM69.1734 28.0422L64.2829 26.2188L62.6081 30.7106L66.9417 32.7603L69.1734 28.0422ZM69.3429 28.1224L71.5817 23.4076L71.5746 23.4042L69.3429 28.1224ZM69.3438 28.1228L67.1049 32.8376L67.1172 32.8434L69.3438 28.1228ZM69.3442 28.123L71.5749 23.4044L71.5708 23.4024L69.3442 28.123ZM69.8372 28.3572L72.0951 23.6515L72.0943 23.6511L69.8372 28.3572ZM70.0758 28.4728L67.7859 33.163L72.3663 23.7829L70.0758 28.4728ZM69.8371 28.3572L67.5801 33.0633L67.5807 33.0636L69.8371 28.3572ZM69.3655 28.1331L67.1332 32.851L67.1346 32.8517L69.3655 28.1331ZM69.1733 28.0422L66.938 32.7587L66.941 32.7601L69.1733 28.0422ZM67.8127 27.4054L63.5082 24.4536L60.0119 29.5522L65.6246 32.1439L67.8127 27.4054ZM67.8127 27.4054L72.1172 30.3571L75.6131 25.2591L70.0013 22.6671L67.8127 27.4054ZM66.9385 27.0057L69.0932 22.2519L65.081 20.4334L62.6143 24.083L66.9385 27.0057ZM56.2338 49.9899L61.2541 51.4175L61.2541 51.4173L56.2338 49.9899ZM55.961 50.9765L61.0025 52.3274L61.0027 52.3265L55.961 50.9765ZM55.896 51.229L60.9375 52.5799L60.9472 52.5434L60.9565 52.5068L55.896 51.229ZM55.896 51.229L60.9374 52.5799L55.896 51.229ZM55.8959 51.2291L50.8544 49.8782L50.8544 49.8782L55.8959 51.2291ZM55.8959 51.2291L60.9374 52.58L55.8959 51.2291ZM55.8959 51.2291L50.8544 49.8783L55.8959 51.2291ZM55.8959 51.2292L60.9374 52.58L60.9374 52.58L55.8959 51.2292ZM55.8959 51.2292L50.8544 49.8784L50.8544 49.8784L55.8959 51.2292ZM55.8959 51.2293L60.9374 52.5801L55.8959 51.2293ZM55.8959 51.2293L60.9374 52.5802L55.8959 51.2293ZM55.8959 51.2293L50.8544 49.8785L50.8544 49.8785L55.8959 51.2293ZM55.8959 51.2294L60.9374 52.5802L55.8959 51.2294ZM55.8959 51.2294L50.8544 49.8785L50.8446 49.915L50.8354 49.9515L55.8959 51.2294ZM55.8521 51.4012L50.8002 50.0898L49.7056 54.3062L53.6582 56.1371L55.8521 51.4012ZM56.7215 51.8279L61.763 53.1788L62.8452 49.1401L59.14 47.2027L56.7215 51.8279ZM56.7215 51.828L51.68 50.4771L50.598 54.5152L54.3024 56.4528L56.7215 51.828ZM67.5973 61.3222L71.7028 58.0995L71.5849 57.9493L71.4563 57.808L67.5973 61.3222ZM67.5973 61.3223L63.4917 64.5449L63.6097 64.6952L63.7383 64.8365L67.5973 61.3223ZM74.9531 68.5535L71.7348 72.6625L71.7351 72.6628L74.9531 68.5535ZM79.758 65.5569C79.5452 65.4251 79.3323 65.2858 79.1194 65.1394L73.206 73.7417C73.5483 73.977 73.8999 74.2073 74.2608 74.4308L79.758 65.5569ZM81.6378 72.4063L81.6378 72.4062L72.381 67.5815L72.381 67.5816L81.6378 72.4063ZM73.206 73.7418C73.5483 73.977 73.8999 74.2074 74.2607 74.4309L79.758 65.557C79.5452 65.4252 79.3322 65.2859 79.1193 65.1395L73.206 73.7418ZM71.7346 72.6625C72.2154 73.0391 72.7076 73.3992 73.2065 73.7421L79.1188 65.1391C78.79 64.9132 78.4734 64.6812 78.1715 64.4447L71.7346 72.6625ZM63.7381 64.8364C66.0135 67.3351 68.6427 70.2408 71.7347 72.6626L78.1714 64.4446C75.888 62.6562 73.839 60.4247 71.4562 57.808L63.7381 64.8364ZM54.3023 56.4529C57.6008 58.1783 60.2967 61.0573 63.7381 64.8364L71.4562 57.808C68.2599 54.2981 64.3585 49.9325 59.1406 47.2032L54.3023 56.4529ZM53.6583 56.1373C53.8924 56.2457 54.1057 56.35 54.3021 56.4528L59.1409 47.2033C58.7671 47.0078 58.3995 46.8293 58.0456 46.6654L53.6583 56.1373ZM53.5752 56.0987L53.6532 56.1349L58.0507 46.6677L57.9727 46.6315L53.5752 56.0987ZM53.5274 56.0762L53.5277 56.0763L58.0202 46.6539L58.02 46.6537L53.5274 56.0762ZM53.2941 55.9705C53.3535 55.9961 53.4233 56.0281 53.5733 56.0978L57.9741 46.6321C57.8466 46.5729 57.6389 46.4759 57.4158 46.38L53.2941 55.9705ZM41.4597 54.2172C46.3637 54.3883 50.0516 54.5771 53.2943 55.9706L57.4156 46.3799C52.068 44.082 46.359 43.9431 41.8236 43.7849L41.4597 54.2172ZM41.4771 54.2178L41.4782 54.2178L41.8052 43.7843L41.8041 43.7843L41.4771 54.2178ZM39.5411 54.1462C40.1883 54.1729 40.8334 54.1954 41.4587 54.2172L41.8226 43.7849C41.1917 43.7629 40.5799 43.7415 39.9713 43.7164L39.5411 54.1462ZM38.4836 54.098C38.8366 54.1156 39.1889 54.1316 39.5403 54.1462L39.9721 43.7164C39.6482 43.703 39.3255 43.6884 39.0039 43.6723L38.4836 54.098ZM32.9243 53.5807C34.8306 53.8697 36.7108 54.0095 38.4833 54.098L39.0042 43.6723C37.392 43.5918 35.9023 43.4742 34.4888 43.26L32.9243 53.5807ZM20.1735 47.7684C23.8173 51.363 28.7766 52.9518 32.9241 53.5807L34.489 43.26C31.4257 42.7955 28.9417 41.7549 27.5045 40.3371L20.1735 47.7684ZM19.2592 46.5562L19.2595 46.5566L28.4185 41.5489L28.4183 41.5484L19.2592 46.5562ZM34.4891 43.2599C31.4258 42.7954 28.9416 41.7547 27.5043 40.3368L20.1732 47.7678C23.817 51.3626 28.7764 52.9517 32.9242 53.5806L34.4891 43.2599ZM39.0043 43.6723C37.3921 43.5917 35.9024 43.4742 34.489 43.2599L32.9244 53.5807C34.8308 53.8697 36.711 54.0094 38.4834 54.0979L39.0043 43.6723ZM33.9526 46.8151L33.9526 46.8151L43.5352 50.9551L43.5352 50.955L33.9526 46.8151ZM39.9713 43.7163C39.6482 43.7029 39.326 43.6883 39.0049 43.6722L38.483 54.0979C38.8363 54.1155 39.1892 54.1316 39.5414 54.1461L39.9713 43.7163ZM34.971 46.8474L34.971 46.8474L44.5417 51.015L44.5417 51.0149L34.971 46.8474ZM41.8233 43.7847C41.1923 43.7627 40.5803 43.7414 39.9715 43.7162L39.5412 54.146C40.1886 54.1728 40.8338 54.1953 41.4593 54.2171L41.8233 43.7847ZM41.8059 43.7842L41.8048 43.7841L41.4778 54.2177L41.4788 54.2177L41.8059 43.7842ZM57.4156 46.3798C52.0682 44.0819 46.3595 43.943 41.8243 43.7848L41.4604 54.2171C46.3641 54.3882 50.0518 54.5771 53.2943 55.9704L57.4156 46.3798ZM57.974 46.6319C57.8467 46.5727 57.6388 46.4757 57.4155 46.3797L53.2944 55.9705C53.3536 55.9959 53.423 56.0278 53.573 56.0975L57.974 46.6319ZM58.0509 46.6676L57.9724 46.6312L53.5746 56.0983L53.6531 56.1347L58.0509 46.6676ZM50.8353 49.9516C50.8201 50.0117 50.8098 50.0522 50.8001 50.0898L60.9039 52.7126C60.9238 52.6359 60.9425 52.5618 60.9562 52.5073L50.8353 49.9516ZM50.9194 49.6256C50.8855 49.7521 50.855 49.8732 50.8353 49.9515L60.9562 52.5073C60.9791 52.4167 60.9913 52.3688 61.0024 52.3273L50.9194 49.6256ZM51.2134 48.5622C51.1139 48.9121 51.0156 49.2668 50.9194 49.6256L61.0024 52.3273C61.0833 52.0256 61.1673 51.7224 61.254 51.4174L51.2134 48.5622ZM62.6141 24.083C57.5526 31.5719 53.6865 39.8642 51.2133 48.5624L61.254 51.4172C63.4235 43.7871 66.8186 36.5038 71.2627 29.9283L62.6141 24.083ZM62.4075 30.7126C63.2031 31.0527 63.9952 31.402 64.7834 31.7593L69.0934 22.252C68.2402 21.8652 67.379 21.4853 66.5102 21.114L62.4075 30.7126ZM66.9626 30.4929L66.9627 30.4928L61.9549 21.3338L61.9549 21.3338L66.9626 30.4929ZM61.3457 30.2656C61.7004 30.4127 62.0543 30.5617 62.4075 30.7127L66.5101 21.114C66.1229 20.9485 65.7343 20.7849 65.3444 20.6232L61.3457 30.2656ZM65.8579 30.019L65.858 30.0189L60.8321 20.8698L60.832 20.8698L65.8579 30.019ZM58.9896 29.324C59.7775 29.6267 60.5627 29.9408 61.3451 30.2654L65.3449 20.6234C64.4809 20.265 63.6103 19.9167 62.7332 19.5797L58.9896 29.324ZM56.1175 28.2778C57.072 28.6047 58.0287 28.9549 58.9897 29.3241L62.7331 19.5797C61.671 19.1717 60.5927 18.7766 59.4997 18.4022L56.1175 28.2778ZM55.199 18.8199L55.199 18.8199L60.4183 27.8601L60.4184 27.8601L55.199 18.8199ZM49.0267 26.2743C51.3798 26.7846 53.7465 27.4658 56.1178 28.2778L59.4996 18.4021C56.8118 17.4817 54.0513 16.6826 51.2388 16.0727L49.0267 26.2743ZM31.3192 28.3749C36.4098 25.366 42.6028 24.8813 49.0266 26.2743L51.2388 16.0727C43.0682 14.3009 33.9979 14.6658 26.0077 19.3886L31.3192 28.3749ZM29.0427 30.0461C29.7153 29.4305 30.479 28.8716 31.3196 28.3747L26.0073 19.3888C24.603 20.219 23.2473 21.1996 21.995 22.3457L29.0427 30.0461ZM26.0156 37.2593C25.78 34.9278 26.9239 31.9852 29.0427 30.0461L21.9951 22.3456C17.7576 26.2238 15.0223 32.2963 15.6298 38.3088L26.0156 37.2593ZM16.4005 35.0118L16.4004 35.0119L25.245 40.5562L25.2451 40.5561L16.4005 35.0118ZM26.1185 37.9029C26.0732 37.7002 26.0385 37.4859 26.0157 37.2595L15.6298 38.3084C15.6925 38.9288 15.7913 39.5542 15.9313 40.1804L26.1185 37.9029ZM26.6241 39.2143C26.3926 38.8125 26.2243 38.3759 26.1185 37.9029L15.9313 40.1804C16.2568 41.6364 16.7973 43.0685 17.5796 44.426L26.6241 39.2143ZM16.6665 62.3734C17.8674 56.0391 21.0993 50.0748 25.7403 45.5622L18.4633 38.0781C12.3042 44.0668 8.01662 51.9574 6.41053 60.4291L16.6665 62.3734ZM19.8306 83.1317C16.479 76.8459 15.3398 69.3723 16.6666 62.3733L6.41051 60.4292C4.64067 69.7657 6.14852 79.658 10.6195 88.0431L19.8306 83.1317ZM23.9908 89.6669C22.3829 87.3325 20.977 85.2816 19.8306 83.1316L10.6196 88.0432C12.0911 90.8027 13.8428 93.3361 15.3941 95.5882L23.9908 89.6669ZM23.8967 89.5348L23.8967 89.5347L15.4882 95.7204L15.4882 95.7205L23.8967 89.5348ZM27.1435 94.4082C26.1106 92.7427 25.0086 91.1445 23.9908 89.667L15.3941 95.5883C16.4357 97.1005 17.3937 98.493 18.2723 99.9098L27.1435 94.4082ZM32.3422 110.019C32.3291 103.976 29.7442 98.6017 27.1435 94.4082L18.2723 99.9098C20.5155 103.527 21.8967 106.894 21.9036 110.042L32.3422 110.019ZM30.1082 106.563C31.3079 107.1 32.3386 108.371 32.3422 110.019L21.9036 110.042C21.9099 112.887 23.661 115.115 25.8468 116.093L30.1082 106.563ZM26.2378 107.116C27.5178 106.079 29.1536 106.076 30.3275 106.668L25.6276 115.988C27.766 117.067 30.5989 117.017 32.8088 115.227L26.2378 107.116ZM41.626 101.293C36.7318 101.924 30.9318 103.312 26.2372 107.117L32.8094 115.227C35.2552 113.245 38.7383 112.19 42.9597 111.646L41.626 101.293ZM47.2916 100.745C45.5038 100.889 43.5693 101.043 41.6262 101.293L42.9595 111.646C44.6124 111.434 46.2967 111.297 48.1265 111.151L47.2916 100.745ZM54.9878 99.8459C52.5962 100.314 50.1176 100.519 47.2916 100.745L48.1265 111.151C50.8529 110.932 53.9242 110.691 56.9937 110.09L54.9878 99.8459ZM73.0843 89.195C68.494 94.6423 61.9786 98.477 54.9878 99.8459L56.9938 110.09C66.3193 108.264 74.9432 103.188 81.0667 95.9217L73.0843 89.195ZM79.7576 75.6373C78.6435 80.6206 76.3442 85.3264 73.0842 89.1951L81.0668 95.9216C85.4402 90.7315 88.4752 84.4885 89.9448 77.9146L79.7576 75.6373ZM86.0644 81.8523L86.0645 81.8523L83.6378 71.6996L83.6377 71.6997L86.0644 81.8523ZM79.7499 75.6716L79.7476 75.6823L89.9545 77.8697L89.9568 77.859L79.7499 75.6716ZM80.0358 74.2452C79.9521 74.7149 79.8604 75.1759 79.7594 75.6283L89.9474 77.9022C90.0839 77.2904 90.2047 76.6817 90.3124 76.078L80.0358 74.2452ZM80.0765 74.0142C80.0642 74.0859 80.0511 74.1602 80.0371 74.2384L90.3111 76.0848C90.3289 75.9861 90.347 75.8838 90.365 75.7786L80.0765 74.0142ZM80.2187 73.0946C80.1735 73.415 80.1266 73.7212 80.0761 74.0168L90.3654 75.7761C90.4368 75.3586 90.499 74.9496 90.5549 74.5538L80.2187 73.0946ZM80.3022 72.4625C80.278 72.6635 80.2501 72.8725 80.2187 73.0949L90.555 74.5535C90.5929 74.2846 90.6309 74.0019 90.666 73.7102L80.3022 72.4625ZM80.3551 71.9911C80.3384 72.1505 80.3207 72.3081 80.302 72.4639L90.6662 73.7087C90.6915 73.498 90.7149 73.2887 90.7367 73.0809L80.3551 71.9911ZM80.3912 71.6187C80.3786 71.7559 80.367 71.8777 80.355 71.9925L90.7369 73.0795C90.7555 72.9018 90.7717 72.7306 90.786 72.5747L80.3912 71.6187ZM87.7752 65.2539C86.844 66.1956 85.7307 66.7754 84.6994 66.9537L86.4779 77.2398C89.9008 76.648 92.9262 74.891 95.198 72.5934L87.7752 65.2539ZM88.2646 64.7059C88.1273 64.8792 87.9652 65.0618 87.775 65.2541L95.1983 72.5931C95.6222 72.1643 96.0438 71.6967 96.4472 71.1874L88.2646 64.7059ZM88.1613 64.8415C88.1535 64.8521 88.1652 64.836 88.1794 64.8168C88.1957 64.7949 88.2259 64.7547 88.2657 64.7044L96.4461 71.1889C96.4955 71.1265 96.535 71.074 96.5604 71.0398C96.5839 71.0082 96.6045 70.9797 96.6058 70.9779L88.1613 64.8415ZM88.2615 64.7081L88.2613 64.7083L96.5058 71.1111L96.5059 71.1109L88.2615 64.7081ZM88.2616 64.7079L88.2615 64.7081L96.5059 71.1109L96.5061 71.1107L88.2616 64.7079ZM88.2618 64.7077L88.2616 64.7079L96.5061 71.1107L96.5062 71.1105L88.2618 64.7077ZM88.1791 64.8171L88.1672 64.8333L96.6007 70.9849L96.6126 70.9686L88.1791 64.8171ZM88.2907 64.669C88.2505 64.7207 88.2179 64.7643 88.1965 64.7934L96.5952 70.9923C96.5821 71.0101 96.558 71.0425 96.5263 71.0831L88.2907 64.669ZM89.8749 61.3791C89.5317 62.6592 88.9916 63.7714 88.2947 64.6639L96.5223 71.0883C98.1926 68.9491 99.302 66.5273 99.9575 64.0822L89.8749 61.3791ZM90.2538 59.1304C90.1944 59.9038 90.0674 60.6607 89.8747 61.3798L99.9577 64.0815C100.326 62.7074 100.556 61.3115 100.662 59.929L90.2538 59.1304ZM83.5426 43.792C87.9882 48.2152 90.6572 53.8776 90.2538 59.13L100.662 59.9294C101.371 50.7006 96.7556 42.2129 90.9051 36.392L83.5426 43.792ZM78.201 39.2734C80.1168 40.6654 81.9068 42.1646 83.5426 43.7921L90.905 36.392C88.8427 34.3402 86.6331 32.497 84.3374 30.8288L78.201 39.2734ZM75.8922 37.6872C76.6837 38.2031 77.4541 38.7306 78.2011 39.2734L84.3373 30.8287C83.4315 30.1705 82.5142 29.5431 81.5925 28.9423L75.8922 37.6872ZM74.6904 36.6046L74.6906 36.6048L82.7941 30.0246L82.794 30.0245L74.6904 36.6046ZM69.5595 34.0443C71.7528 35.1644 73.8743 36.3717 75.8919 37.6869L81.5924 28.9422C79.2212 27.3964 76.7749 26.008 74.3071 24.7478L69.5595 34.0443ZM69.1352 33.8298C69.2884 33.9069 69.4252 33.9757 69.5592 34.0442L74.3074 24.7479C74.1405 24.6626 73.9755 24.5797 73.827 24.5049L69.1352 33.8298ZM69.138 33.8312L69.1385 33.8314L73.8237 24.5033L73.8232 24.503L69.138 33.8312ZM69.1105 33.8174L69.1352 33.8298L73.826 24.5044L73.8012 24.492L69.1105 33.8174ZM71.9094 19.4082C69.5816 21.5415 67.6517 24.2718 66.5377 27.4074L76.3741 30.9019C76.8597 29.5351 77.7581 28.2074 78.9621 27.1041L71.9094 19.4082ZM74.1201 17.5692C73.4941 18.0625 72.6874 18.6951 71.9089 19.4087L78.9625 27.1037C79.406 26.6971 79.9035 26.3021 80.581 25.7681L74.1201 17.5692ZM76.0969 15.8876C75.6101 16.3857 75.0236 16.8572 74.1201 17.5692L80.581 25.7681C81.3944 25.1272 82.5238 24.2465 83.5628 23.1832L76.0969 15.8876ZM76.3235 15.769C76.3772 15.5636 76.444 15.476 76.416 15.5182C76.403 15.5377 76.3732 15.5797 76.3187 15.645C76.2641 15.7102 76.192 15.7903 76.0971 15.8874L83.5626 23.1834C84.4719 22.253 85.8345 20.6589 86.4226 18.4098L76.3235 15.769ZM77.2073 18.2583C76.6357 17.7411 76.3981 17.1572 76.3115 16.7704C76.2273 16.3943 76.2469 16.0616 76.3237 15.7681L86.4223 18.4108C87.0109 16.1616 86.7728 12.8357 84.2108 10.5177L77.2073 18.2583ZM80.6093 19.2172C80.8285 18.9803 80.9687 18.8376 81.0808 18.7369C81.2046 18.6259 81.1621 18.6877 80.9651 18.7898C80.7626 18.8946 80.1734 19.1562 79.3166 19.1056C78.3619 19.0493 77.6287 18.6395 77.2076 18.2586L84.2105 10.5174C83.0718 9.48729 81.608 8.78402 79.9315 8.68509C78.3527 8.59194 77.0501 9.06172 76.1642 9.52061C74.5566 10.3533 73.3628 11.6788 72.9479 12.1272L80.6093 19.2172ZM77.5836 23.0318C78.4957 21.6845 79.508 20.4074 80.6096 19.2168L72.9476 12.1275C71.4845 13.7088 70.1444 15.4 68.9394 17.18L77.5836 23.0318ZM74.0638 29.8656C74.9622 27.4561 76.1459 25.1554 77.5835 23.032L68.9395 17.1798C67.0327 19.9964 65.4688 23.0382 64.2829 26.2188L74.0638 29.8656ZM71.5746 23.4042L71.4051 23.324L66.9417 32.7603L67.1112 32.8405L71.5746 23.4042ZM71.5826 23.408L71.5817 23.4076L67.1041 32.8372L67.105 32.8376L71.5826 23.408ZM71.5708 23.4024L71.5703 23.4022L67.1172 32.8434L67.1177 32.8436L71.5708 23.4024ZM72.0943 23.6511C71.9152 23.5652 71.7374 23.4812 71.5749 23.4044L67.1136 32.8416C67.2804 32.9205 67.4318 32.9921 67.5801 33.0633L72.0943 23.6511ZM72.3663 23.7829C72.2803 23.7409 72.1892 23.6967 72.0951 23.6515L67.5793 33.0628C67.6445 33.0941 67.7124 33.1271 67.7853 33.1627L72.3663 23.7829ZM67.5807 33.0636C67.6455 33.0947 67.7132 33.1275 67.7859 33.163L72.3657 23.7826C72.2795 23.7405 72.1881 23.6961 72.0935 23.6508L67.5807 33.0636ZM67.1346 32.8517C67.2943 32.9272 67.4387 32.9955 67.5801 33.0633L72.0942 23.6511C71.9223 23.5687 71.7516 23.488 71.5963 23.4146L67.1346 32.8517ZM66.941 32.7601L67.1332 32.851L71.5978 23.4153L71.4056 23.3243L66.941 32.7601ZM65.6246 32.1439C66.0628 32.3463 66.5004 32.5513 66.938 32.7587L71.4086 23.3258C70.943 23.1051 70.4737 22.8852 70.0008 22.6668L65.6246 32.1439ZM63.5082 24.4536L63.5082 24.4536L72.1172 30.3572L72.1172 30.3571L63.5082 24.4536ZM64.7839 31.7596C65.0682 31.8884 65.3479 32.0161 65.6241 32.1437L70.0013 22.6671C69.6964 22.5262 69.3931 22.3878 69.0932 22.2519L64.7839 31.7596ZM61.2541 51.4173C63.4236 43.7872 66.8186 36.5038 71.2628 29.9284L62.6143 24.083C57.5526 31.572 53.6865 39.8643 51.2134 48.5625L61.2541 51.4173ZM61.0027 52.3265C61.0832 52.0259 61.1672 51.7231 61.2541 51.4175L51.2135 48.5622C51.1141 48.9116 51.0156 49.2666 50.9193 49.6266L61.0027 52.3265ZM60.9565 52.5068C60.9793 52.4163 60.9915 52.3686 61.0025 52.3274L50.9195 49.6257C50.8856 49.7521 50.8552 49.8731 50.8354 49.9513L60.9565 52.5068ZM60.9374 52.5799L60.9375 52.5799L50.8545 49.8781L50.8545 49.8782L60.9374 52.5799ZM60.9374 52.5799L60.9374 52.5799L50.8545 49.8782L50.8544 49.8782L60.9374 52.5799ZM60.9374 52.58L60.9374 52.5799L50.8544 49.8782L50.8544 49.8782L60.9374 52.58ZM60.9374 52.58L60.9374 52.58L50.8544 49.8782L50.8544 49.8783L60.9374 52.58ZM60.9374 52.58L60.9374 52.58L50.8544 49.8783L50.8544 49.8783L60.9374 52.58ZM60.9374 52.5801L60.9374 52.58L50.8544 49.8783L50.8544 49.8783L60.9374 52.5801ZM60.9374 52.5801L60.9374 52.5801L50.8544 49.8783L50.8544 49.8784L60.9374 52.5801ZM60.9374 52.5801L60.9374 52.5801L50.8544 49.8784L50.8544 49.8784L60.9374 52.5801ZM60.9374 52.5802L60.9374 52.5801L50.8544 49.8784L50.8544 49.8784L60.9374 52.5802ZM60.9374 52.5802L60.9374 52.5802L50.8544 49.8784L50.8544 49.8785L60.9374 52.5802ZM60.9374 52.5802L60.9374 52.5802L50.8544 49.8785L50.8544 49.8785L60.9374 52.5802ZM60.9373 52.5803L60.9374 52.5802L50.8544 49.8785L50.8544 49.8785L60.9373 52.5803ZM60.904 52.7127C60.9239 52.6359 60.9426 52.5618 60.9563 52.5073L50.8354 49.9515C50.8202 50.0117 50.8099 50.0522 50.8002 50.0898L60.904 52.7127ZM59.14 47.2027C58.7673 47.0078 58.4002 46.8295 58.0459 46.6654L53.6582 56.1371C53.8918 56.2453 54.1056 56.3499 54.3031 56.4532L59.14 47.2027ZM61.763 53.1788L61.763 53.1788L51.68 50.4771L51.68 50.4771L61.763 53.1788ZM71.4563 57.808C68.26 54.2981 64.3586 49.9325 59.1407 47.2031L54.3024 56.4528C57.6009 58.1782 60.2968 61.0573 63.7382 64.8364L71.4563 57.808ZM71.7029 58.0996L71.7028 58.0995L63.4917 64.5449L63.4917 64.5449L71.7029 58.0996ZM78.1714 64.4445C75.8881 62.6562 73.8391 60.4247 71.4563 57.8081L63.7383 64.8365C66.0136 67.3351 68.6428 70.2408 71.7348 72.6625L78.1714 64.4445ZM79.1189 65.1391C78.7905 64.9134 78.4736 64.6812 78.1711 64.4442L71.7351 72.6628C72.2153 73.0388 72.7072 73.3988 73.2064 73.742L79.1189 65.1391Z" fill="#331400" mask="url(#path-1-outside-1_1_6441)"/>
<path d="M70.4795 28.6706C77.1627 40.9831 79.1927 55.7664 76.1628 69.4406C76.4404 69.6314 76.7226 69.8162 77.0095 69.9939C80.1024 56.427 78.285 41.7803 71.9334 29.396C71.7745 29.3149 71.6152 29.2348 71.456 29.1547C72.2557 26.9034 73.6699 24.8744 75.4358 23.2562C76.8515 21.9585 78.4878 20.9089 79.8299 19.5354C80.5115 18.8381 81.1264 18.0327 81.3731 17.0894C81.62 16.146 81.4321 15.0421 80.7091 14.388C79.2738 13.0896 77.7361 14.6376 76.7787 15.6722C75.4963 17.0581 74.3202 18.5422 73.2616 20.1059C71.5894 22.5759 70.2156 25.2471 69.1735 28.0422C69.3949 28.1471 69.6169 28.2515 69.8373 28.3572C70.0519 28.4601 70.2655 28.566 70.4795 28.6706Z" fill="#331400"/>
<path d="M67.9403 74.8986C63.0288 71.9029 62.3857 65.4866 59.1405 61.1626C57.3193 58.7359 54.7866 57.3607 51.8071 56.8639C49.9496 56.5542 48.0638 56.5244 46.1876 56.4259C43.8062 56.3009 41.4889 55.9344 39.1856 55.3207C32.6906 53.5902 27.0051 49.8554 23.8388 44.0521C23.1976 43.4195 22.6282 42.7145 22.1589 41.9226C22.1389 41.8888 22.1216 41.8541 22.102 41.8201C16.7019 47.0708 12.9422 53.9982 11.5387 61.4013C9.99037 69.569 11.3139 78.252 15.2252 85.5875C17.3875 89.6424 20.2861 93.2537 22.708 97.1591C25.13 101.064 27.1131 105.435 27.1231 110.03C27.1244 110.629 27.4846 111.108 27.9777 111.328C28.4599 111.571 29.0585 111.548 29.5235 111.172C33.0936 108.278 37.7352 107.057 42.293 106.47C46.8507 105.883 51.4813 105.851 55.9909 104.968C64.1491 103.37 71.7187 98.9154 77.0756 92.5584C80.8923 88.029 83.5595 82.5546 84.8513 76.776C82.8059 77.3141 80.6722 77.5305 78.5451 77.4945C75.0297 77.4353 70.9905 76.7591 67.9403 74.8986Z" fill="#B25B1B"/>
<path d="M85.2208 74.8964C85.2818 74.5399 85.3363 74.1823 85.3869 73.8242C85.4215 73.5785 85.4545 73.3327 85.4841 73.0863C85.5062 72.9031 85.5267 72.7196 85.546 72.536C85.5613 72.3897 85.5752 72.2432 85.5887 72.0967C85.2665 72.1524 84.9417 72.195 84.614 72.2169C81.9271 72.3959 79.3254 71.4289 77.0094 69.9939C76.7226 69.8163 76.4403 69.6315 76.1627 69.4406C75.7489 69.1562 75.3445 68.8601 74.9531 68.5536C68.4356 63.4489 63.9681 55.6185 56.7216 51.8281C56.4364 51.6789 56.146 51.5375 55.852 51.4013C55.6871 51.3249 55.5228 51.2474 55.355 51.1753C50.488 49.0838 45.1032 49.1519 39.7563 48.9313C39.4186 48.9173 39.0811 48.902 38.7438 48.8852C37.0515 48.8006 35.3665 48.672 33.7066 48.4203C30.101 47.8736 26.379 46.5587 23.8385 44.0522C27.0048 49.8554 32.6904 53.5902 39.1854 55.3208C41.4887 55.9344 43.806 56.3009 46.1874 56.426C48.0636 56.5245 49.9493 56.5542 51.8068 56.864C54.7864 57.3608 57.3191 58.736 59.1403 61.1626C62.3855 65.4867 63.0286 71.903 67.94 74.8987C70.9903 76.7591 75.0294 77.4353 78.5449 77.4948C80.672 77.5307 82.8057 77.3142 84.8511 76.7762C84.8519 76.7726 84.8527 76.7689 84.8534 76.7652C84.9722 76.2331 85.0784 75.6983 85.1742 75.1616C85.1901 75.0731 85.2056 74.9849 85.2208 74.8964Z" fill="#A34E17"/>
<path d="M48.2175 37.1643C44.6973 40.5279 41.6898 44.514 39.7563 48.9312C45.1032 49.1518 50.488 49.0837 55.355 51.1752C55.5229 51.2473 55.6871 51.3248 55.8521 51.4012C55.8888 51.2598 55.9232 51.1175 55.961 50.9765C56.0495 50.6463 56.1406 50.3173 56.2338 49.9898C58.5551 41.8257 62.1856 34.0379 66.9385 27.0057C66.1178 26.6336 65.2911 26.2691 64.4589 25.9133C58.6454 29.1052 52.9739 32.6179 48.2175 37.1643Z" fill="#D88737"/>
<path d="M92.4086 67.8761C93.5922 66.3603 94.4169 64.5933 94.9163 62.7307C95.1967 61.6841 95.3752 60.6077 95.4579 59.5297C96.0139 52.2891 92.372 45.2141 87.2239 40.092C85.3748 38.2524 83.375 36.5812 81.2693 35.0511C88.1544 44.5409 92.0697 56.158 92.4086 67.8761Z" fill="#D88737"/>
<path d="M30.2878 30.5372C38.6919 25.9593 48.2608 23.1619 57.8088 23.34C55.2793 22.4738 52.7157 21.7336 50.1329 21.1735C42.8356 19.5911 35.204 20.0159 28.6636 23.8817C27.5411 24.5453 26.4814 25.315 25.519 26.1959C22.3409 29.1045 20.4013 33.612 20.8228 37.784C21.6101 36.8518 22.4749 35.9835 23.4018 35.1791C25.4944 33.3633 27.88 31.8492 30.2878 30.5372Z" fill="#D88737"/>
<path d="M60.8613 24.4519C50.5158 23.5344 39.9321 26.3621 30.7414 31.3701C28.3716 32.661 26.0431 34.1423 24.0234 35.8954C22.9151 36.8573 21.9052 37.9037 21.0248 39.0417C21.2405 40.0062 21.5949 40.9405 22.1018 41.8202C22.1213 41.8542 22.1387 41.8889 22.1587 41.9227C22.6279 42.7145 23.1973 43.4195 23.8385 44.0522C26.3791 46.5587 30.101 47.8736 33.7066 48.4203C35.3665 48.672 37.0515 48.8006 38.7438 48.8851C40.731 44.1941 43.8816 39.9968 47.5622 36.4788C52.2334 32.0152 57.7304 28.558 63.345 25.4445C62.5218 25.103 61.6939 24.7718 60.8613 24.4519Z" fill="#D88737"/>
<path d="M77.0095 69.994C79.3255 71.4289 81.9272 72.396 84.614 72.2169C84.9418 72.1951 85.2666 72.1526 85.5887 72.0968C87.8158 71.7117 89.8852 70.5434 91.4867 68.9237C91.3464 56.0915 86.8143 43.292 78.7422 33.3146C76.5478 31.8841 74.2639 30.5863 71.9333 29.3961C78.285 41.7804 80.1023 56.427 77.0095 69.994Z" fill="#D88737"/>
<path d="M57.146 50.2493C57.054 50.5728 56.9641 50.8971 56.877 51.222C56.823 51.4235 56.7732 51.6259 56.7215 51.828C63.968 55.6185 68.4356 63.4488 74.953 68.5536C75.3444 68.86 75.7488 69.1561 76.1626 69.4406C79.1926 55.7664 77.1626 40.9831 70.4793 28.6706C70.2653 28.566 70.0517 28.4601 69.8371 28.3572C69.6167 28.2515 69.3946 28.1472 69.1732 28.0422C68.7216 27.8282 68.2682 27.6158 67.8126 27.4054C63.0726 34.3879 59.4539 42.1317 57.146 50.2493Z" fill="#D88737"/>
<path d="M30.7415 31.3701C39.9322 26.3622 50.5159 23.5344 60.8614 24.4519C59.8499 24.0633 58.8324 23.6906 57.8087 23.34C48.2607 23.1619 38.6918 25.9594 30.2877 30.5371C27.8799 31.8492 25.4944 33.3632 23.4018 35.179C22.475 35.9834 21.6101 36.8516 20.8228 37.784C20.8656 38.2074 20.9323 38.6272 21.025 39.0417C21.9053 37.9037 22.9152 36.8573 24.0235 35.8954C26.0432 34.1423 28.3717 32.661 30.7415 31.3701Z" fill="#331400"/>
<path d="M47.5622 36.4787C43.8816 39.9967 40.731 44.194 38.7438 48.885C39.081 48.9019 39.4186 48.9173 39.7563 48.9312C41.6898 44.5139 44.6973 40.5279 48.2175 37.1643C52.9739 32.6179 58.6454 29.1052 64.4589 25.9134C64.0887 25.7552 63.7174 25.5988 63.345 25.4444C57.7304 28.5579 52.2334 32.0151 47.5622 36.4787Z" fill="#331400"/>
<path d="M91.4867 68.9236C91.7937 68.6131 92.0856 68.288 92.3559 67.9467C92.3742 67.9237 92.3905 67.8993 92.4086 67.8761C92.0697 56.1581 88.1544 44.5409 81.2693 35.0511C80.4428 34.4505 79.5989 33.8731 78.7422 33.3146C86.8143 43.2919 91.3464 56.0915 91.4867 68.9236Z" fill="#331400"/>
<path d="M56.2337 49.9899C56.1406 50.3174 56.0493 50.6463 55.9609 50.9766C55.9231 51.1176 55.8887 51.2599 55.852 51.4013C56.1459 51.5375 56.4364 51.679 56.7215 51.828C56.7732 51.626 56.8231 51.4236 56.8771 51.2221C56.9641 50.8971 57.054 50.5728 57.146 50.2494C59.4539 42.1317 63.0726 34.3879 67.8126 27.4054C67.5221 27.2712 67.2305 27.1382 66.9384 27.0058C62.1855 34.038 58.555 41.8258 56.2337 49.9899Z" fill="#331400"/>
<path d="M27.1205 40.8677C27.4681 42.5289 28.8758 43.7991 30.4291 44.4835C31.6266 45.011 32.9682 45.2591 34.2592 45.0445C35.7822 44.7913 37.1358 43.9202 38.3045 42.9113C40.9767 40.605 42.8737 37.5488 45.2057 34.899C46.553 33.3684 48.05 31.9698 49.6685 30.7295C50.1796 30.3379 50.8178 29.8518 50.9126 29.1664C51.0024 28.5168 50.4991 27.956 49.9185 27.7434C49.312 27.5213 48.6379 27.6 48.0131 27.6893C44.1504 28.2403 40.3721 28.9968 36.7492 30.4966C35.4602 31.0302 34.2166 31.6797 33.0399 32.4328C32.2085 32.9602 31.4104 33.5407 30.6584 34.1759C30.2864 34.4901 29.9258 34.8178 29.578 35.159C28.8061 35.9167 28.091 36.7511 27.6111 37.7204C27.131 38.6897 26.8991 39.8088 27.1205 40.8677Z" fill="white"/>
<path d="M46.2716 90.0506C46.1248 90.597 46.329 91.2213 46.7705 91.5752C47.2333 91.9462 47.8765 92.0031 48.4657 91.9334C49.2115 91.8454 50.0032 91.6201 50.6318 91.1797C51.3393 90.6841 51.7197 89.8296 51.471 89.1698C51.3391 88.82 51.0305 88.5249 50.4997 88.3672C49.7188 88.1352 48.8649 88.1578 48.097 88.4292C47.3595 88.6895 46.4864 89.2516 46.2716 90.0506Z" fill="#A34E17"/>
<path d="M58.9298 88.8388C57.8279 88.5116 56.6228 88.5433 55.539 88.9262C54.4984 89.2939 53.266 90.087 52.9629 91.2147C52.7556 91.9856 53.0437 92.8666 53.6667 93.3662C54.3201 93.89 55.2277 93.97 56.0594 93.8718C57.1119 93.7474 58.2292 93.4295 59.1164 92.8081C60.1147 92.1087 60.6516 90.9025 60.3008 89.9715C60.1145 89.4778 59.6789 89.0614 58.9298 88.8388Z" fill="#A34E17"/>
<path d="M48.5108 97.2691C47.2208 96.886 45.8101 96.9233 44.5415 97.3714C43.3232 97.8018 41.8808 98.7303 41.5259 100.05C41.2833 100.953 41.6207 101.984 42.3497 102.569C43.1144 103.182 44.1772 103.276 45.1507 103.161C46.3827 103.015 47.6907 102.643 48.7291 101.915C49.8979 101.097 50.5263 99.6849 50.1154 98.595C49.8976 98.0171 49.3875 97.5296 48.5108 97.2691Z" fill="#A34E17"/>
<path d="M70.9272 86.6601C69.6372 86.277 68.2266 86.3143 66.9579 86.7624C65.7395 87.1928 64.2972 88.1214 63.9422 89.4413C63.6995 90.3438 64.0371 91.3751 64.7661 91.9598C65.5309 92.5729 66.5934 92.6666 67.5669 92.5517C68.7989 92.406 70.107 92.034 71.1455 91.3065C72.3142 90.4877 72.9425 89.0759 72.5318 87.986C72.314 87.4081 71.8039 86.9206 70.9272 86.6601Z" fill="#A34E17"/>
<path d="M56.2765 97.9599C55.382 97.6942 54.4037 97.72 53.5241 98.0307C52.6792 98.3292 51.6788 98.973 51.4327 99.8884C51.2646 100.514 51.4985 101.23 52.0041 101.635C52.5344 102.06 53.2713 102.125 53.9463 102.045C54.8008 101.944 55.7079 101.686 56.428 101.182C57.2384 100.614 57.6742 99.6351 57.3892 98.8792C57.2382 98.4785 56.8844 98.1405 56.2765 97.9599Z" fill="#A34E17"/>
<path d="M43.5694 95.1434C43.8878 95.3988 44.3302 95.4377 44.7356 95.3899C45.2485 95.3293 45.7931 95.1742 46.2255 94.8714C46.712 94.5305 46.9736 93.9427 46.8027 93.4889C46.7119 93.2484 46.4996 93.0454 46.1345 92.9369C45.5974 92.7775 45.0101 92.7928 44.4819 92.9794C43.9746 93.1586 43.3741 93.5453 43.2264 94.0948C43.1254 94.4707 43.2657 94.8999 43.5694 95.1434Z" fill="#A34E17"/>
<path d="M63.5176 92.3164C62.9806 92.1568 62.3933 92.1724 61.865 92.3589C61.3578 92.5382 60.7572 92.9248 60.6095 93.4743C60.5085 93.85 60.649 94.2793 60.9526 94.5229C61.271 94.7781 61.7134 94.8173 62.1187 94.7692C62.6316 94.7087 63.1762 94.5538 63.6085 94.2509C64.0953 93.9101 64.3568 93.3222 64.1857 92.8685C64.095 92.6277 63.8826 92.4248 63.5176 92.3164Z" fill="#A34E17"/>
<path d="M61.9856 96.2909C61.4485 96.1314 60.8612 96.1469 60.333 96.3334C59.8256 96.5126 59.2252 96.8992 59.0775 97.4488C58.9765 97.8244 59.1169 98.2538 59.4204 98.4974C59.7389 98.7526 60.1813 98.7917 60.5866 98.7437C61.0996 98.6831 61.644 98.5282 62.0765 98.2253C62.5631 97.8844 62.8246 97.2965 62.6538 96.8429C62.5631 96.6022 62.3507 96.3993 61.9856 96.2909Z" fill="#A34E17"/>
<path d="M51.2734 92.8188C50.7364 92.6592 50.149 92.6748 49.6209 92.8614C49.1135 93.0406 48.5131 93.4272 48.3653 93.9767C48.2643 94.3524 48.4047 94.7817 48.7083 95.0253C49.0267 95.2805 49.4691 95.3196 49.8745 95.2716C50.3874 95.2111 50.9319 95.0562 51.3643 94.7533C51.8509 94.4124 52.1124 93.8245 51.9416 93.3709C51.8509 93.1301 51.6386 92.9272 51.2734 92.8188Z" fill="#A34E17"/>
<path d="M53.1698 96.5646C53.4606 96.3609 53.6168 96.0098 53.5147 95.7385C53.4605 95.5948 53.3335 95.4735 53.1155 95.4087C52.7946 95.3133 52.4436 95.3227 52.128 95.4342C51.8249 95.5412 51.466 95.7722 51.3777 96.1005C51.3174 96.3251 51.4013 96.5816 51.5827 96.7271C51.7729 96.8796 52.0374 96.903 52.2795 96.8744C52.5861 96.8382 52.9115 96.7456 53.1698 96.5646Z" fill="#A34E17"/>
<path d="M56.1319 96.7596C56.5132 96.7146 56.9178 96.5994 57.2391 96.3743C57.6007 96.1211 57.7951 95.6841 57.6681 95.3469C57.6007 95.168 57.4429 95.0172 57.1715 94.9367C56.7724 94.8181 56.336 94.8297 55.9434 94.9683C55.5665 95.1015 55.1202 95.3888 55.0103 95.7971C54.9353 96.0765 55.0397 96.3955 55.2653 96.5764C55.502 96.7662 55.8307 96.7951 56.1319 96.7596Z" fill="#A34E17"/>
<path d="M66.1861 95.2667C65.9152 95.1863 65.6189 95.1941 65.3524 95.2881C65.0964 95.3786 64.7934 95.5737 64.7189 95.8508C64.6679 96.0405 64.7389 96.2572 64.892 96.38C65.0527 96.5087 65.2759 96.5284 65.4804 96.5043C65.7392 96.4737 66.014 96.3955 66.2322 96.2427C66.4776 96.0708 66.6096 95.7742 66.5232 95.5452C66.4776 95.4238 66.3703 95.3214 66.1861 95.2667Z" fill="#A34E17"/>
<path d="M62.1322 88.7153C62.3778 88.5432 62.5099 88.2466 62.4235 88.0176C62.3777 87.8962 62.2706 87.7938 62.0864 87.7392C61.8154 87.6586 61.5191 87.6664 61.2526 87.7607C60.9966 87.8511 60.6936 88.046 60.6191 88.3233C60.5681 88.513 60.639 88.7296 60.7922 88.8524C60.9528 88.9812 61.176 89.0009 61.3805 88.9767C61.6393 88.9462 61.9141 88.8681 62.1322 88.7153Z" fill="#A34E17"/>
<path d="M43.9291 59.9699L34.2085 56L40.0565 74.451L24.625 81.251L28.3049 82.7539L40.9267 77.192L44.8299 89.5028L54.5504 93.4727L48.4555 74.2458L63.0925 67.7964L59.4125 66.2935L47.5853 71.5047L43.9291 59.9699ZM47.2394 87.5703L38.7423 60.7681L41.5196 61.9024L50.0167 88.7046L47.2394 87.5703Z" fill="white"/>
</svg>
