<svg width="294" height="102" viewBox="0 0 294 102" fill="none" xmlns="http://www.w3.org/2000/svg">
<g filter="url(#filter0_b_0_23)">
<rect x="0.601318" width="293" height="102" rx="10" fill="url(#paint0_linear_0_23)" style="mix-blend-mode:screen"/>
<rect x="2.60132" y="2" width="289" height="98" rx="8" stroke="url(#paint1_linear_0_23)" stroke-width="4" style="mix-blend-mode:screen"/>
<path d="M90.8871 43.2684V64.8873L67.6013 78.768L44.3026 64.8873V37.1127L67.6013 23.2187L85.4974 33.894L88.1987 32.2847L67.6013 20L41.6013 35.5034V66.4967L67.6013 82L93.6013 66.4967V41.6591L90.8871 43.2684Z" fill="#14013A"/>
<path d="M61.0819 64.9007H57.1858V51.4091H70.1728C71.4015 51.395 72.5755 50.8819 73.4407 49.9809C74.306 49.0799 74.7928 47.8633 74.7963 46.5944C74.8032 45.9669 74.6859 45.3447 74.4514 44.7658C74.2169 44.1868 73.8702 43.6636 73.4326 43.2282C73.0091 42.7788 72.5021 42.4225 71.9419 42.1805C71.3818 41.9385 70.7801 41.8159 70.1728 41.8201H57.1858V37.7162H70.1858C72.4618 37.7303 74.6407 38.6702 76.25 40.3321C77.8594 41.9941 78.7695 44.2441 78.7832 46.5944C78.7972 48.3934 78.2658 50.1519 77.2638 51.6236C76.3415 53.0317 75.0416 54.1316 73.5236 54.7888C72.0203 55.281 70.4512 55.5255 68.8741 55.5129H61.0819V64.9007Z" fill="#14013A"/>
<path d="M78.6923 64.5654H74.1468L70.6403 58.2488C72.0275 58.1612 73.3959 57.8723 74.7052 57.3905L78.6923 64.5654Z" fill="#14013A"/>
<path d="M88.1727 38.7757L90.8611 40.318L93.5493 38.7757V35.5167L90.8611 33.9074L88.1727 35.5167V38.7757Z" fill="#14013A"/>
<path d="M123.573 26.399H141.711C146.638 26.399 150.419 27.6431 153.057 30.1312C155.744 32.5695 157.088 35.9036 157.088 40.1334C157.088 43.1191 156.341 45.5077 154.848 47.2991C153.405 49.0906 151.34 50.3844 148.653 51.1806V51.5538C151.788 52.3002 154.251 53.6687 156.043 55.6592C157.884 57.5999 158.804 60.3617 158.804 63.9446C158.804 66.1341 158.431 68.1246 157.685 69.916C156.988 71.6577 155.968 73.1755 154.624 74.4693C153.331 75.7631 151.738 76.7583 149.847 77.455C148.006 78.1517 145.916 78.5 143.577 78.5H123.573V26.399ZM140.591 71.4089C143.328 71.4089 145.369 70.9113 146.712 69.916C148.106 68.871 148.802 67.1045 148.802 64.6164V62.1531C148.802 59.7148 148.106 57.998 146.712 57.0028C145.369 55.9577 143.328 55.4352 140.591 55.4352H133.127V71.4089H140.591ZM139.322 48.6427C141.96 48.6427 143.901 48.17 145.145 47.2245C146.438 46.279 147.085 44.6369 147.085 42.298V39.8348C147.085 37.496 146.438 35.8538 145.145 34.9084C143.901 33.9629 141.96 33.4901 139.322 33.4901H133.127V48.6427H139.322ZM176.764 26.399V58.8688C176.764 60.8096 176.814 62.5512 176.914 64.0939C177.063 65.6365 177.386 66.9552 177.884 68.05C178.431 69.095 179.227 69.916 180.272 70.5132C181.367 71.1103 182.86 71.4089 184.751 71.4089C186.642 71.4089 188.11 71.1103 189.155 70.5132C190.25 69.916 191.046 69.095 191.544 68.05C192.091 66.9552 192.414 65.6365 192.514 64.0939C192.663 62.5512 192.738 60.8096 192.738 58.8688V26.399H202.516V57.376C202.516 61.0584 202.292 64.268 201.844 67.0049C201.396 69.7419 200.526 72.0309 199.232 73.8721C197.938 75.7133 196.122 77.1067 193.783 78.0521C191.494 78.9479 188.483 79.3957 184.751 79.3957C181.019 79.3957 177.983 78.9479 175.645 78.0521C173.356 77.1067 171.564 75.7133 170.27 73.8721C168.976 72.0309 168.106 69.7419 167.658 67.0049C167.21 64.268 166.986 61.0584 166.986 57.376V26.399H176.764ZM224.656 78.5V59.466L207.712 26.399H218.61L224.656 38.9391L229.359 49.6131H229.881L234.658 38.9391L240.779 26.399H251.304L234.36 59.466V78.5H224.656Z" fill="#14013A"/>
</g>
<defs>
<filter id="filter0_b_0_23" x="-19.3987" y="-20" width="333" height="142" filterUnits="userSpaceOnUse" color-interpolation-filters="sRGB">
<feFlood flood-opacity="0" result="BackgroundImageFix"/>
<feGaussianBlur in="BackgroundImageFix" stdDeviation="10"/>
<feComposite in2="SourceAlpha" operator="in" result="effect1_backgroundBlur_0_23"/>
<feBlend mode="normal" in="SourceGraphic" in2="effect1_backgroundBlur_0_23" result="shape"/>
</filter>
<linearGradient id="paint0_linear_0_23" x1="-5.43722" y1="111.373" x2="262.198" y2="-34.2735" gradientUnits="userSpaceOnUse">
<stop/>
<stop offset="0.11" stop-color="#002A09"/>
<stop offset="0.68" stop-color="#00FF37"/>
<stop offset="0.69" stop-color="#02FF39"/>
<stop offset="0.84" stop-color="#42FF6B"/>
<stop offset="0.94" stop-color="#6AFF8A"/>
<stop offset="1" stop-color="#7AFF97"/>
</linearGradient>
<linearGradient id="paint1_linear_0_23" x1="-52.4327" y1="51" x2="305.153" y2="51" gradientUnits="userSpaceOnUse">
<stop stop-color="#7AFF97"/>
<stop offset="0.06" stop-color="#6AFF8A"/>
<stop offset="0.16" stop-color="#42FF6B"/>
<stop offset="0.31" stop-color="#02FF39"/>
<stop offset="0.32" stop-color="#00FF37"/>
<stop offset="0.89" stop-color="#002A09"/>
<stop offset="1"/>
</linearGradient>
</defs>
</svg>
