<svg width="102" height="102" viewBox="0 0 102 102" fill="none" xmlns="http://www.w3.org/2000/svg">
<g filter="url(#filter0_b_0_21)">
<rect y="0.199341" width="101.601" height="101.601" rx="9.93096" fill="url(#paint0_linear_0_21)" style="mix-blend-mode:screen"/>
<rect x="1.52784" y="1.72718" width="98.5457" height="98.5457" rx="8.40312" stroke="url(#paint1_linear_0_21)" stroke-width="3.05568" style="mix-blend-mode:screen"/>
<path fill-rule="evenodd" clip-rule="evenodd" d="M45.0262 28.3028C41.9388 29.8911 39.4129 31.2352 39.4135 31.2898C39.4148 31.4309 46.8233 35.1363 47.0862 35.1272C47.2058 35.1233 48.0735 34.7288 49.0144 34.2508L50.7252 33.3817L54.4621 35.2789L57.5219 33.9211C62.1324 31.875 62.6113 31.6508 62.5362 31.5755C62.4366 31.4755 60.7829 30.5981 56.2963 28.2654C54.128 27.138 52.0234 26.0326 51.6194 25.8089C51.2154 25.5852 50.8298 25.4053 50.7624 25.4087C50.695 25.4122 48.1137 26.7146 45.0262 28.3028ZM31.485 35.2279L28.2711 36.8674V44.0628C28.2711 48.0204 28.3133 51.2582 28.365 51.2582C28.4166 51.2582 29.9979 50.5813 31.8789 49.7539L35.2988 48.2496V40.6651L36.9701 41.5643C38.2579 42.2566 39.5465 42.9475 40.8358 43.637L43.0303 44.8104L44.0069 44.3743C44.6193 44.1004 45.2305 43.8238 45.8404 43.5445C46.3118 43.3277 47.4688 42.8131 48.4115 42.4006C49.3543 41.988 50.2269 41.573 50.3507 41.4784C50.515 41.3528 48.5106 40.2589 42.9369 37.4322C38.7355 35.3015 35.1633 33.565 34.9985 33.5733C34.8338 33.5816 33.2527 34.3261 31.485 35.2279ZM63.1155 35.6883C60.9266 36.6642 59.1341 37.5017 59.1321 37.5494C59.1302 37.5971 60.3232 38.2977 61.7834 39.106C63.2435 39.9144 64.4382 40.6191 64.4382 40.6722C64.4382 40.7252 63.1461 41.3434 61.5671 42.0464C59.9879 42.7492 55.9963 44.5294 52.6968 46.0025L41.6409 50.9379C38.8598 52.1795 36.353 53.2986 36.0702 53.4251C30.3896 55.9647 28.8283 56.6694 28.6139 56.7904C28.3983 56.9122 28.3494 57.6197 28.311 61.1708L28.2653 65.4061L34.0133 68.2985L37.9985 66.5223C40.1904 65.5454 41.9837 64.695 41.9837 64.6324C41.9837 64.5699 41.5787 64.3093 41.0839 64.0529C40.5888 63.7966 39.5669 63.2292 38.8127 62.7917C38.0585 62.3542 37.3065 61.9529 37.1414 61.8996C36.9764 61.8465 36.8437 61.7537 36.8464 61.6931C36.8492 61.6327 38.6041 60.8095 40.746 59.8636C44.9062 58.0266 48.09 56.6108 54.925 53.5582C57.9814 52.1935 61.0382 50.8296 64.0954 49.4665C66.7822 48.2688 69.9061 46.87 71.0374 46.3581L73.0943 45.4273L73.186 36.8603L70.271 35.3827C68.6677 34.5701 67.2973 33.9072 67.2254 33.9096C67.1536 33.9118 65.3042 34.7122 63.1155 35.6883ZM72.3133 51.1418C71.8838 51.349 71.0353 51.737 70.4279 52.0039C69.8204 52.2708 68.6677 52.7844 67.8664 53.1455L66.4094 53.8018L66.3761 57.5624C66.3578 59.6307 66.2807 61.3137 66.2048 61.3028C66.0323 61.2775 63.3016 59.8944 60.5567 58.4418C58.5755 57.3936 58.4511 57.3519 57.9855 57.5796C57.7164 57.7113 56.1078 58.4238 54.4108 59.1632C52.7139 59.9025 51.2701 60.5556 51.2022 60.6148C51.1345 60.6738 54.5498 62.5019 58.792 64.6775L66.5049 68.6329L69.7997 66.9497C71.6116 66.024 73.1524 65.1797 73.2234 65.0735C73.3831 64.8347 73.3694 50.7323 73.2095 50.7514C73.1463 50.7588 72.7429 50.9346 72.3133 51.1418ZM54.068 67.6945C53.4965 67.9371 52.9252 68.1801 52.3539 68.4235C50.629 69.1605 50.9671 69.1849 48.915 68.176C47.5482 67.5041 46.959 67.2967 46.7033 67.3974C46.5115 67.4728 44.8606 68.2063 43.0345 69.0273C41.2084 69.8483 39.651 70.52 39.5735 70.52C38.8074 70.52 40.0811 71.2716 44.9961 73.7201L50.7602 76.5913L53.1854 75.4089C54.5193 74.7585 57.2097 73.4561 59.1643 72.5148C61.1187 71.5732 62.6936 70.7784 62.6642 70.7484C62.6344 70.7185 60.9968 69.8881 59.0248 68.9029L55.4393 67.1119L54.068 67.6945Z" fill="#14013A"/>
</g>
<defs>
<filter id="filter0_b_0_21" x="-15.2784" y="-15.0791" width="132.158" height="132.158" filterUnits="userSpaceOnUse" color-interpolation-filters="sRGB">
<feFlood flood-opacity="0" result="BackgroundImageFix"/>
<feGaussianBlur in="BackgroundImageFix" stdDeviation="7.6392"/>
<feComposite in2="SourceAlpha" operator="in" result="effect1_backgroundBlur_0_21"/>
<feBlend mode="normal" in="SourceGraphic" in2="effect1_backgroundBlur_0_21" result="shape"/>
</filter>
<linearGradient id="paint0_linear_0_21" x1="-2.09394" y1="111.137" x2="114.029" y2="89.1378" gradientUnits="userSpaceOnUse">
<stop/>
<stop offset="0.11" stop-color="#002A09"/>
<stop offset="0.68" stop-color="#00FF37"/>
<stop offset="0.69" stop-color="#02FF39"/>
<stop offset="0.84" stop-color="#42FF6B"/>
<stop offset="0.94" stop-color="#6AFF8A"/>
<stop offset="1" stop-color="#7AFF97"/>
</linearGradient>
<linearGradient id="paint1_linear_0_21" x1="-18.3902" y1="51" x2="105.607" y2="51" gradientUnits="userSpaceOnUse">
<stop stop-color="#7AFF97"/>
<stop offset="0.06" stop-color="#6AFF8A"/>
<stop offset="0.16" stop-color="#42FF6B"/>
<stop offset="0.31" stop-color="#02FF39"/>
<stop offset="0.32" stop-color="#00FF37"/>
<stop offset="0.89" stop-color="#002A09"/>
<stop offset="1"/>
</linearGradient>
</defs>
</svg>
