<svg width="224" height="80" viewBox="0 0 224 80" fill="none" xmlns="http://www.w3.org/2000/svg">
<rect x="1.5" y="1.5" width="221" height="77" rx="18.5" fill="#FFC499" stroke="#421C00" stroke-width="3"/>
<path d="M88.2873 35.872C88.2873 35.794 88.2093 35.82 88.1313 35.82C87.8713 35.456 87.5333 35.3 87.1433 35.3C86.5713 35.3 85.9473 35.612 85.5313 35.924C85.1413 36.158 85.0633 36.522 85.0633 36.808C85.0633 37.042 85.1153 37.224 85.1153 37.276C85.1153 37.796 86.7273 38.446 87.8713 38.758C88.8593 39.122 89.9253 39.85 90.4193 40.812C90.7833 41.462 90.9913 42.242 90.9913 43.022C90.9913 44.166 90.5493 45.336 89.5093 46.168C88.3913 47.052 86.5713 47.65 84.6733 47.65C83.4773 47.65 82.3853 47.39 81.5533 46.766C80.6953 46.116 79.9933 45.206 79.9933 44.218C79.9933 43.49 80.3573 42.84 81.1113 42.294C81.3453 42.138 81.5793 42.086 81.7873 42.086C82.4893 42.086 82.9833 42.736 82.9833 43.386C82.9833 43.672 82.9053 44.01 82.6713 44.244C82.6713 44.27 82.6453 44.296 82.6453 44.348C82.6453 44.816 83.9713 45.024 84.8033 45.024C85.1413 45.024 85.4013 44.998 85.4273 44.92H85.6093C86.3893 44.842 87.1953 44.634 87.6113 44.27C88.1053 43.802 88.3913 43.178 88.3913 42.632C88.3913 42.19 88.2353 41.774 87.8193 41.436C86.1033 40.266 82.0733 39.954 82.0733 36.86C82.0733 34.676 85.4793 33.298 87.9753 33.298C89.3533 33.298 90.6793 33.948 90.6793 35.586C90.6793 35.82 90.6533 36.028 90.6273 36.21C90.4973 36.808 89.9773 37.094 89.5093 37.094C88.9633 37.094 88.2873 36.73 88.2873 36.002V35.872ZM95.3654 36.782L95.4434 36.652C95.5214 36.522 95.5734 36.392 95.5734 36.392L95.5994 36.314L95.6514 36.288C96.5354 35.17 97.9134 34.52 99.3694 34.26C99.3694 34 99.3694 33.844 99.3694 33.818V33.792L99.3954 33.766C99.3954 33.74 99.3954 33.688 99.3954 33.636C99.3954 33.558 99.3954 33.48 99.3954 33.35C99.3954 32.96 99.5514 32.388 100.409 32.206H100.435C100.435 32.206 100.669 32.18 100.955 32.18C101.189 32.18 101.475 32.206 101.735 32.284C102.411 32.492 102.723 33.142 102.723 33.792C102.723 33.87 102.723 33.974 102.697 34.052V34.078V34.104C102.671 34.13 102.645 34.338 102.619 34.468C103.659 34.754 104.517 35.3 105.167 36.158C106.259 37.484 106.779 38.94 106.779 40.37C106.779 41.93 106.129 43.49 104.881 44.868C103.581 46.298 101.579 47.26 99.4214 47.26C98.0434 47.26 96.6654 46.844 95.5994 45.804C94.4034 44.608 93.8314 43.204 93.8314 41.774C93.8314 40.058 94.5334 38.238 95.3654 36.782ZM98.2514 36.964C98.1994 37.042 98.1994 37.068 98.1214 37.146C98.1214 37.198 98.0434 37.276 98.0434 37.302H98.0174V37.328C97.9654 37.38 97.9654 37.406 97.9654 37.406L97.8874 37.51C97.3154 38.498 96.6914 40.162 96.6914 41.488C96.6914 42.242 96.7434 42.814 97.2114 43.282C98.0174 43.984 99.0054 44.374 99.7594 44.374C100.825 44.374 101.891 43.88 102.775 42.866C103.529 41.982 103.997 40.916 103.997 39.928C103.997 39.07 103.737 37.77 102.905 37.094C102.671 36.912 102.359 36.73 102.073 36.626C101.839 37.744 101.683 39.486 101.033 39.72V39.746H101.007C100.851 39.798 100.695 39.824 100.513 39.824C99.9934 39.824 98.9534 39.564 98.9534 38.68C98.9534 38.628 98.9534 38.576 98.9534 38.55V38.524C99.0054 38.316 99.1354 37.198 99.1874 36.34C98.8754 36.418 98.6154 36.574 98.2514 36.964ZM111.057 36.782L111.135 36.652C111.213 36.522 111.265 36.392 111.265 36.392L111.291 36.314L111.343 36.288C112.227 35.17 113.605 34.52 115.061 34.26C115.061 34 115.061 33.844 115.061 33.818V33.792L115.087 33.766C115.087 33.74 115.087 33.688 115.087 33.636C115.087 33.558 115.087 33.48 115.087 33.35C115.087 32.96 115.243 32.388 116.101 32.206H116.127C116.127 32.206 116.361 32.18 116.647 32.18C116.881 32.18 117.167 32.206 117.427 32.284C118.103 32.492 118.415 33.142 118.415 33.792C118.415 33.87 118.415 33.974 118.389 34.052V34.078V34.104C118.363 34.13 118.337 34.338 118.311 34.468C119.351 34.754 120.209 35.3 120.859 36.158C121.951 37.484 122.471 38.94 122.471 40.37C122.471 41.93 121.821 43.49 120.573 44.868C119.273 46.298 117.271 47.26 115.113 47.26C113.735 47.26 112.357 46.844 111.291 45.804C110.095 44.608 109.523 43.204 109.523 41.774C109.523 40.058 110.225 38.238 111.057 36.782ZM113.943 36.964C113.891 37.042 113.891 37.068 113.813 37.146C113.813 37.198 113.735 37.276 113.735 37.302H113.709V37.328C113.657 37.38 113.657 37.406 113.657 37.406L113.579 37.51C113.007 38.498 112.383 40.162 112.383 41.488C112.383 42.242 112.435 42.814 112.903 43.282C113.709 43.984 114.697 44.374 115.451 44.374C116.517 44.374 117.583 43.88 118.467 42.866C119.221 41.982 119.689 40.916 119.689 39.928C119.689 39.07 119.429 37.77 118.597 37.094C118.363 36.912 118.051 36.73 117.765 36.626C117.531 37.744 117.375 39.486 116.725 39.72V39.746H116.699C116.543 39.798 116.387 39.824 116.205 39.824C115.685 39.824 114.645 39.564 114.645 38.68C114.645 38.628 114.645 38.576 114.645 38.55V38.524C114.697 38.316 114.827 37.198 114.879 36.34C114.567 36.418 114.307 36.574 113.943 36.964ZM140.372 38.784C140.19 40.916 140.138 41.956 140.138 42.892C140.138 44.504 140.32 44.374 140.71 44.4C141.022 44.374 141.308 44.374 141.62 44.348C142.4 44.348 142.738 45.102 142.738 45.648C142.738 46.194 142.296 46.844 141.724 47.026C141.23 47.208 140.138 47.26 139.8 47.26H139.67C137.304 47.26 137.2 45.232 137.2 43.412C137.2 42.008 137.408 40.552 137.408 39.694V39.59C137.408 37.874 137.07 37.458 136.706 37.458C135.328 37.458 133.664 38.55 132.624 39.694C130.83 41.644 129.478 43.724 128.282 46.09C128.1 46.48 127.71 46.74 127.294 46.74C126.774 46.74 125.812 46.428 125.734 45.596C125.63 44.14 125.526 42.606 125.526 41.098C125.526 38.966 125.526 37.016 126.592 35.118C126.8 34.728 127.32 34.26 127.788 34.26C128.23 34.26 129.166 34.572 129.166 35.378C129.166 35.56 129.14 35.768 129.062 35.924C128.334 37.51 128.126 39.278 128.126 41.124V41.254C130.258 37.744 132.884 34.728 136.992 34.676H137.018L137.304 34.702C139.228 34.832 140.424 36.184 140.424 37.822V37.926C140.424 38.108 140.372 38.654 140.372 38.758V38.784Z" fill="#421C00"/>
</svg>
