<svg width="29" height="33" viewBox="0 0 29 33" fill="none" xmlns="http://www.w3.org/2000/svg">
<path d="M6.58978 4.45139C9.51072 1.67202 13.004 0.977173 14.4818 0.977173C15.9597 0.977173 19.6456 1.67202 22.5666 4.45139C23.1751 4.20323 24.5486 3.50839 25.1745 2.71428C24.4791 4.53411 21.732 8.71972 16.3074 10.9035C16.1781 10.6427 15.6319 10.121 14.4818 10.121C13.3318 10.121 12.9783 10.6427 12.8489 10.9035C7.42433 8.71972 4.67726 4.53411 3.9818 2.71428C4.60772 3.50839 5.98125 4.20323 6.58978 4.45139Z" fill="white"/>
<path d="M8.28518 10.1983C9.10784 10.7885 10.9594 12.0382 11.7846 12.3153C10.2135 12.7836 7.31423 13.0159 8.28518 10.1983Z" fill="white"/>
<path d="M5.00875 6.86875C5.39305 7.41404 6.29108 8.59702 6.80887 8.96654C5.97953 10.8077 5.52228 14.4901 10.328 14.4901L10.2066 16.0875L6.64684 18.0121C8.32136 18.4953 11.9657 20.701 13.1472 25.6575L14.5648 30.3203L16.008 25.6575C17.1894 20.701 20.8338 18.4953 22.5083 18.0121L18.9485 16.0875L18.8272 14.4901C23.6329 14.4901 23.1756 10.8077 22.3463 8.96654C22.8641 8.59702 23.7621 7.41404 24.1464 6.86875C25.6402 8.29016 25.8025 11.092 25.697 12.3153C25.697 21.5496 27.5108 25.8635 28.4177 26.8662L24.5755 24.0729L21.974 28.1606L18.9485 25.6575L14.5648 32.6118L10.2066 25.6575L7.18112 28.1606L4.57965 24.0729L0.737427 26.8662C1.64434 25.8635 3.45818 21.5496 3.45818 12.3153C3.35261 11.092 3.51494 8.29016 5.00875 6.86875Z" fill="white"/>
<path d="M20.87 10.1983C20.0473 10.7885 18.1957 12.0382 17.3706 12.3153C18.9416 12.7836 21.8409 13.0159 20.87 10.1983Z" fill="white"/>
<path d="M12.2368 14.9691C12.2368 13.1436 13.8676 12.245 14.6855 12.0239C15.5034 12.245 17.1392 13.1436 17.1392 14.9691V16.959L18.9795 18.0469C17.5482 18.8959 14.6904 21.4272 14.6904 24.7597C14.6904 21.4272 11.8277 18.8959 10.3964 18.0469L12.2368 16.959V14.9691Z" fill="white"/>
</svg>
