<svg width="30" height="27" viewBox="0 0 30 27" fill="none" xmlns="http://www.w3.org/2000/svg">
<path fill-rule="evenodd" clip-rule="evenodd" d="M26.1494 1.11871C26.5018 0.963015 26.8877 0.909315 27.2666 0.963204C27.6456 1.01709 28.0039 1.1766 28.3042 1.42512C28.6045 1.67365 28.8359 2.0021 28.9742 2.3763C29.1125 2.7505 29.1527 3.15677 29.0906 3.55281L25.8555 24.1468C25.5417 26.1333 23.4649 27.2725 21.7289 26.283C20.2769 25.4552 18.1202 24.1797 16.1803 22.8489C15.2103 22.1828 12.2391 20.0496 12.6043 18.5316C12.9181 17.2337 17.9105 12.3566 20.7633 9.45691C21.883 8.3177 21.3723 7.66053 20.0501 8.70842C16.7665 11.3102 11.4945 15.2667 9.75147 16.3805C8.21381 17.3625 7.41217 17.5301 6.45363 17.3625C4.70486 17.0571 3.08305 16.584 1.75935 16.0077C-0.029357 15.2293 0.0576534 12.6485 1.75792 11.897L26.1494 1.11871Z" fill="white"/>
</svg>
