<svg width="32" height="36" viewBox="0 0 32 36" fill="none" xmlns="http://www.w3.org/2000/svg">
<path fill-rule="evenodd" clip-rule="evenodd" d="M12.3005 2.01239C10.2012 3.1168 8.48375 4.05135 8.48412 4.08936C8.48505 4.18747 13.5224 6.76391 13.7012 6.75763C13.7825 6.75488 14.3725 6.48059 15.0122 6.14818L16.1755 5.54391L18.7164 6.86308L20.7969 5.91893C23.9318 4.49623 24.2574 4.34033 24.2064 4.28795C24.1386 4.21846 23.0142 3.6084 19.9635 1.98637C18.4892 1.20242 17.0582 0.433793 16.7835 0.278261C16.5088 0.122728 16.2466 -0.00238728 16.2008 3.45757e-05C16.155 0.00245643 14.3998 0.908026 12.3005 2.01239ZM3.09317 6.82762L0.907873 7.96761L0.907873 12.9708C0.907873 15.7226 0.936568 17.974 0.971767 17.974C1.00684 17.974 2.08202 17.5033 3.36098 16.928L5.68638 15.882V10.6083L6.82273 11.2335C7.69838 11.7149 8.57455 12.1953 9.45126 12.6747L10.9434 13.4906L11.6074 13.1874C12.0238 12.9969 12.4394 12.8046 12.8541 12.6104C13.1746 12.4597 13.9613 12.1018 14.6023 11.815C15.2433 11.5281 15.8367 11.2396 15.9208 11.1738C16.0326 11.0865 14.6697 10.3258 10.8799 8.36037C8.02317 6.8788 5.5942 5.67132 5.48218 5.67711C5.37017 5.6829 4.29512 6.20056 3.09317 6.82762ZM24.6002 7.14775C23.1119 7.82633 21.8931 8.40864 21.8917 8.44185C21.8904 8.47501 22.7016 8.96213 23.6945 9.52417C24.6873 10.0863 25.4996 10.5763 25.4996 10.6132C25.4996 10.65 24.6211 11.0799 23.5474 11.5688C22.4736 12.0574 19.7596 13.2953 17.516 14.3196L9.99866 17.7513C8.10767 18.6146 6.40315 19.3928 6.21086 19.4807C2.3484 21.2466 1.28676 21.7366 1.14097 21.8207C0.994365 21.9054 0.961158 22.3974 0.935064 24.8665L0.903931 27.8115L4.81228 29.8227L7.52202 28.5876C9.01242 27.9084 10.2318 27.3171 10.2318 27.2735C10.2318 27.2301 9.95635 27.0488 9.61989 26.8706C9.28327 26.6924 8.58841 26.2978 8.0756 25.9937C7.56282 25.6894 7.05152 25.4104 6.93925 25.3733C6.82703 25.3364 6.73684 25.2719 6.73867 25.2297C6.74054 25.1877 7.93379 24.6153 9.39017 23.9576C12.2189 22.6803 14.3837 21.6958 19.0312 19.5733C21.1093 18.6243 23.1878 17.676 25.2665 16.7282C27.0934 15.8954 29.2175 14.9228 29.9867 14.5668L31.3853 13.9196L31.4477 7.96269L29.4656 6.93525C28.3754 6.37022 27.4436 5.90928 27.3948 5.91097C27.346 5.91253 26.0884 6.46902 24.6002 7.14775ZM30.8543 17.8931C30.5622 18.0372 29.9853 18.3069 29.5723 18.4925C29.1592 18.6781 28.3754 19.0353 27.8306 19.2863L26.8399 19.7427L26.8173 22.3575C26.8048 23.7957 26.7524 24.966 26.7008 24.9584C26.5835 24.9408 24.7268 23.9791 22.8604 22.969C21.5133 22.2401 21.4287 22.2112 21.1121 22.3695C20.9291 22.4611 19.8354 22.9565 18.6815 23.4706C17.5277 23.9847 16.546 24.4388 16.4999 24.48C16.4538 24.521 18.776 25.7921 21.6605 27.3049L26.9048 30.0552L29.1451 28.8848C30.3772 28.2412 31.4248 27.6541 31.4731 27.5802C31.5817 27.4142 31.5723 17.6083 31.4636 17.6216C31.4206 17.6268 31.1464 17.749 30.8543 17.8931ZM18.4484 29.4027C18.0598 29.5714 17.6713 29.7404 17.283 29.9096C16.1101 30.422 16.34 30.439 14.9446 29.7375C14.0153 29.2703 13.6147 29.1261 13.4408 29.1961C13.3104 29.2486 12.1879 29.7586 10.9462 30.3295C9.70459 30.9003 8.64564 31.3674 8.59296 31.3674C8.07202 31.3674 8.93808 31.89 12.28 33.5925L16.1993 35.589L17.8483 34.7668C18.7553 34.3145 20.5846 33.409 21.9136 32.7544C23.2425 32.0997 24.3134 31.5471 24.2933 31.5262C24.2731 31.5054 23.1596 30.928 21.8188 30.2429L19.3808 28.9976L18.4484 29.4027Z" fill="white"/>
</svg>
