<svg width="218" height="34" viewBox="0 0 218 34" fill="none" xmlns="http://www.w3.org/2000/svg">
<path d="M0.440787 33.2373C0.163083 32.9446 0.0169237 32.586 0.00230778 32.1615C-0.0269241 30.7416 0.221547 28.6045 0.747722 25.7502C1.2739 22.8958 1.93161 19.9317 2.72088 16.8578C3.51014 13.7693 4.34325 10.8784 5.22021 8.18503C6.11178 5.4917 6.88642 3.59613 7.54414 2.49831C7.80723 2.07382 8.57457 1.69324 9.84616 1.35657C11.1324 1.00527 12.5501 0.763751 14.0994 0.632012C15.6487 0.500273 17.1395 0.507592 18.5719 0.653968C20.0042 0.785707 21.0054 1.11505 21.5755 1.64201C22.394 2.43244 23.3586 4.167 24.4694 6.84568C25.5949 9.52437 26.691 12.4446 27.758 15.6063C28.825 18.7534 29.7823 21.7761 30.6301 24.6743C31.4778 27.5726 32.0405 29.6218 32.3182 30.8221C32.5082 31.7004 32.4497 32.3152 32.1428 32.6665C31.8359 33.0031 31.3024 33.2373 30.5424 33.3691C29.2561 33.5886 27.6557 33.757 25.741 33.8741C23.8409 33.9765 22.6497 33.9985 22.1674 33.9399C21.9774 33.9107 21.802 33.8448 21.6412 33.7423C21.1151 33.4203 20.6035 32.4981 20.1066 30.9758C19.6242 29.4389 19.1492 28.385 18.6815 27.8141C18.4038 27.4774 18.0384 27.2798 17.5853 27.2213L13.9898 27.1993C12.8644 27.2286 12.1336 27.6018 11.7974 28.3191C11.3589 29.2413 10.862 30.2659 10.3066 31.393C9.75115 32.5201 9.34191 33.2154 9.07882 33.4788C8.94728 33.6399 8.74996 33.7496 8.48687 33.8082C7.88762 33.9399 6.46987 33.9765 4.23363 33.918C2.012 33.8448 0.747722 33.6179 0.440787 33.2373ZM14.6475 13.8717C14.1652 14.3841 13.6828 15.2477 13.2005 16.4626C12.7328 17.6629 12.5647 18.4533 12.6963 18.8339C12.9155 19.478 13.8582 19.7707 15.5245 19.7122C17.2053 19.639 18.1188 19.2291 18.2649 18.4826C18.3526 18.0288 17.9142 16.9969 16.9495 15.3867C15.9849 13.762 15.2175 13.257 14.6475 13.8717Z" fill="white"/>
<path d="M47.1826 1.5981C47.2557 2.28606 47.3069 3.56686 47.3361 5.44047C47.3799 7.31409 47.4165 9.26089 47.4457 11.2809C47.4749 13.3009 47.5042 15.1306 47.5334 16.77C47.5773 18.3948 47.6357 19.3096 47.7088 19.5146C47.8111 19.8512 48.2934 20.0415 49.1558 20.0854C50.0327 20.1147 51.0047 20.1001 52.0717 20.0415C53.1532 19.983 54.191 19.9244 55.1849 19.8659C56.1787 19.7927 56.8584 19.8146 57.2238 19.9317C57.75 20.1074 58.1738 20.8759 58.4954 22.2372C58.8315 23.5838 59.0435 25.0476 59.1312 26.6284C59.2335 28.1947 59.1969 29.6438 59.0216 30.9758C58.8462 32.2932 58.51 33.0104 58.013 33.1275C57.2676 33.3178 55.7768 33.5008 53.5406 33.6765C51.3189 33.8375 48.9658 33.9326 46.4811 33.9619C43.9963 33.9912 41.6943 33.918 39.575 33.7423C37.4557 33.5667 36.1476 33.2154 35.6506 32.6884C35.1537 32.1615 34.7664 30.4562 34.4887 27.5726C34.2256 24.689 34.0429 21.5199 33.9406 18.0654C33.8529 14.6109 33.8163 11.3248 33.8309 8.20698C33.8602 5.08917 33.9333 3.02526 34.0502 2.01527C34.1086 1.41513 34.8175 0.975996 36.1768 0.697881C37.5361 0.419766 39.0196 0.280709 40.6274 0.280709C42.2351 0.266071 43.7113 0.375854 45.056 0.610056C46.4153 0.844258 47.1242 1.1736 47.1826 1.5981Z" fill="white"/>
<path d="M74.5656 22.303C77.1234 22.2737 79.4327 22.2006 81.4936 22.0835C83.5544 21.9664 84.7676 22.1054 85.133 22.5006C85.5276 22.8227 85.8126 24.2206 85.988 26.6943C86.178 29.1681 86.1122 30.9612 85.7907 32.0736C85.6445 32.542 84.4972 32.9299 82.3486 33.2373C80.2001 33.5447 77.7884 33.757 75.1137 33.8741C72.439 33.9765 69.8739 33.9912 67.4184 33.918C64.9629 33.8448 63.3625 33.6472 62.6171 33.3252C62.1786 33.1495 61.8132 31.9712 61.5209 29.7902C61.2432 27.5945 61.0239 25.0329 60.8632 22.1054C60.7024 19.1632 60.6074 16.1699 60.5782 13.1252C60.5489 10.066 60.5782 7.57757 60.6658 5.66004C60.6658 4.60613 60.7535 3.64736 60.9289 2.78374C61.1043 1.90549 61.3747 1.35657 61.7401 1.13701C62.1055 0.917446 63.3917 0.727157 65.5987 0.566143C67.8057 0.405129 70.1881 0.309984 72.7459 0.280709C75.3037 0.236796 77.6715 0.280709 79.8493 0.412448C82.0271 0.529549 83.2767 0.749113 83.5983 1.07114C83.9929 1.39317 84.2122 2.66664 84.256 4.89156C84.3145 7.10184 84.1829 8.77053 83.8614 9.89763C83.7006 10.4246 82.6702 10.7539 80.7701 10.8857C78.8846 11.0028 76.6776 11.1052 74.1491 11.1931C74.1491 11.3687 74.1564 11.5736 74.171 11.8078C74.1856 12.042 74.2002 12.247 74.2148 12.4226C75.8664 12.4519 77.2111 12.5763 78.2488 12.7959C78.4973 12.8691 78.7385 13.3082 78.9723 14.1133C79.2208 14.9037 79.3889 15.7746 79.4766 16.7261C79.5789 17.6629 79.5789 18.5338 79.4766 19.3389C79.3743 20.144 79.1185 20.5758 78.7093 20.6343C78.4169 20.7222 77.8835 20.8027 77.1088 20.8759C76.3488 20.9344 75.501 20.9783 74.5656 21.0076C74.5656 21.1979 74.5656 21.4174 74.5656 21.6663C74.5656 21.9151 74.5656 22.1274 74.5656 22.303Z" fill="white"/>
<path d="M113.349 0.346578C113.671 0.27339 114.219 0.514911 114.993 1.07114C115.768 1.62737 116.572 2.31534 117.405 3.13505C118.238 3.95475 119.013 4.81837 119.729 5.72591C120.46 6.6188 120.935 7.37264 121.154 7.98742C121.3 8.42655 120.701 9.50241 119.356 11.215C118.012 12.913 116.323 14.8671 114.292 17.0774C116.133 19.1706 117.668 21.0076 118.896 22.5885C120.124 24.1693 120.774 25.194 120.847 25.6624C120.935 25.999 120.723 26.5699 120.211 27.375C119.7 28.1654 119.057 28.9997 118.282 29.878C117.522 30.7563 116.711 31.5686 115.848 32.3152C114.986 33.0617 114.255 33.5447 113.656 33.7643C113.232 33.9107 112.143 33.3178 110.389 31.9858C108.635 30.6392 106.757 28.9558 104.755 26.9358C103.089 28.5752 101.598 30.0024 100.282 31.2173C98.9816 32.4323 98.0462 33.2446 97.4761 33.6545C96.7307 34.1961 95.7149 34.1009 94.4287 33.3691C93.1571 32.6372 91.9513 31.6638 90.8113 30.4489C89.6712 29.2339 88.7723 27.9824 88.1146 26.6943C87.4715 25.3916 87.3911 24.4474 87.8735 23.8619C88.6189 22.9837 89.5689 21.9371 90.7236 20.7222C91.8782 19.5072 93.1352 18.2118 94.4945 16.8359C91.2936 13.5717 89.2108 11.3102 88.2462 10.0513C87.6761 9.31944 87.7346 8.30945 88.4216 7.02134C89.1085 5.71859 90.0366 4.48903 91.2059 3.33265C92.3898 2.17628 93.6175 1.26143 94.8891 0.588099C96.1607 -0.0852317 97.1034 -0.180376 97.7173 0.302665C98.6381 1.06382 99.7124 2.02991 100.94 3.20092C102.168 4.35729 103.461 5.61612 104.821 6.97742C106.882 5.11845 108.701 3.55954 110.28 2.3007C111.858 1.04187 112.881 0.390491 113.349 0.346578Z" fill="white"/>
<path d="M123.566 33.2373C123.288 32.9446 123.142 32.586 123.127 32.1615C123.098 30.7416 123.346 28.6045 123.873 25.7502C124.399 22.8958 125.056 19.9317 125.846 16.8578C126.635 13.7693 127.468 10.8784 128.345 8.18503C129.237 5.4917 130.011 3.59613 130.669 2.49831C130.932 2.07382 131.699 1.69324 132.971 1.35657C134.257 1.00527 135.675 0.763751 137.224 0.632012C138.774 0.500273 140.264 0.507592 141.697 0.653968C143.129 0.785707 144.13 1.11505 144.7 1.64201C145.519 2.43244 146.483 4.167 147.594 6.84568C148.72 9.52437 149.816 12.4446 150.883 15.6063C151.95 18.7534 152.907 21.7761 153.755 24.6743C154.603 27.5726 155.165 29.6218 155.443 30.8221C155.633 31.7004 155.575 32.3152 155.268 32.6665C154.961 33.0031 154.427 33.2373 153.667 33.3691C152.381 33.5886 150.781 33.757 148.866 33.8741C146.966 33.9765 145.775 33.9985 145.292 33.9399C145.102 33.9107 144.927 33.8448 144.766 33.7423C144.24 33.4203 143.728 32.4981 143.231 30.9758C142.749 29.4389 142.274 28.385 141.806 27.8141C141.529 27.4774 141.163 27.2798 140.71 27.2213L137.115 27.1993C135.989 27.2286 135.258 27.6018 134.922 28.3191C134.484 29.2413 133.987 30.2659 133.431 31.393C132.876 32.5201 132.467 33.2154 132.204 33.4788C132.072 33.6399 131.875 33.7496 131.612 33.8082C131.012 33.9399 129.595 33.9765 127.358 33.918C125.137 33.8448 123.873 33.6179 123.566 33.2373ZM137.772 13.8717C137.29 14.3841 136.808 15.2477 136.325 16.4626C135.858 17.6629 135.69 18.4533 135.821 18.8339C136.04 19.478 136.983 19.7707 138.649 19.7122C140.33 19.639 141.244 19.2291 141.39 18.4826C141.477 18.0288 141.039 16.9969 140.074 15.3867C139.11 13.762 138.342 13.257 137.772 13.8717Z" fill="white"/>
<path d="M168.554 33.2373C168.276 32.9446 168.13 32.586 168.115 32.1615C168.086 30.7416 168.334 28.6045 168.86 25.7502C169.387 22.8958 170.044 19.9317 170.834 16.8578C171.623 13.7693 172.456 10.8784 173.333 8.18503C174.225 5.4917 174.999 3.59613 175.657 2.49831C175.92 2.07382 176.687 1.69324 177.959 1.35657C179.245 1.00527 180.663 0.763751 182.212 0.632012C183.761 0.500273 185.252 0.507592 186.685 0.653968C188.117 0.785707 189.118 1.11505 189.688 1.64201C190.507 2.43244 191.471 4.167 192.582 6.84568C193.708 9.52437 194.804 12.4446 195.871 15.6063C196.938 18.7534 197.895 21.7761 198.743 24.6743C199.591 27.5726 200.153 29.6218 200.431 30.8221C200.621 31.7004 200.562 32.3152 200.256 32.6665C199.949 33.0031 199.415 33.2373 198.655 33.3691C197.369 33.5886 195.768 33.757 193.854 33.8741C191.954 33.9765 190.762 33.9985 190.28 33.9399C190.09 33.9107 189.915 33.8448 189.754 33.7423C189.228 33.4203 188.716 32.4981 188.219 30.9758C187.737 29.4389 187.262 28.385 186.794 27.8141C186.517 27.4774 186.151 27.2798 185.698 27.2213L182.103 27.1993C180.977 27.2286 180.246 27.6018 179.91 28.3191C179.472 29.2413 178.975 30.2659 178.419 31.393C177.864 32.5201 177.455 33.2154 177.192 33.4788C177.06 33.6399 176.863 33.7496 176.6 33.8082C176 33.9399 174.583 33.9765 172.346 33.918C170.125 33.8448 168.86 33.6179 168.554 33.2373ZM182.76 13.8717C182.278 14.3841 181.796 15.2477 181.313 16.4626C180.846 17.6629 180.677 18.4533 180.809 18.8339C181.028 19.478 181.971 19.7707 183.637 19.7122C185.318 19.639 186.232 19.2291 186.378 18.4826C186.465 18.0288 186.027 16.9969 185.062 15.3867C184.098 13.762 183.33 13.257 182.76 13.8717Z" fill="white"/>
<path d="M216.37 32.886C216.063 33.4715 214.535 33.8228 211.788 33.9399C209.04 34.0424 207.096 33.8521 205.956 33.3691C205.444 33.1495 204.962 31.6418 204.509 28.846C204.056 26.0503 203.668 22.9105 203.347 19.4267C203.025 15.943 202.791 12.591 202.645 9.37068C202.499 6.13576 202.492 3.97671 202.623 2.89353C202.726 2.00063 203.544 1.3273 205.079 0.873533C206.628 0.405129 208.316 0.14897 210.143 0.105057C211.985 0.0465069 213.666 0.192883 215.186 0.544186C216.72 0.895489 217.532 1.4444 217.619 2.19092C217.853 4.29874 217.977 6.99938 217.992 10.2928C218.021 13.5863 217.97 16.8359 217.839 20.0415C217.707 23.2471 217.51 26.0795 217.247 28.5386C216.984 30.9978 216.691 32.4469 216.37 32.886Z" fill="white"/>
</svg>
