<svg width="55" height="55" viewBox="0 0 55 55" fill="none" xmlns="http://www.w3.org/2000/svg">
<path fill-rule="evenodd" clip-rule="evenodd" d="M38.4282 15.9488C38.7672 15.8027 39.1382 15.7523 39.5026 15.8029C39.867 15.8534 40.2115 16.0031 40.5003 16.2364C40.7891 16.4696 41.0115 16.7778 41.1445 17.129C41.2775 17.4802 41.3162 17.8615 41.2565 18.2331L38.1457 37.56C37.8439 39.4242 35.8469 40.4933 34.1776 39.5647C32.7813 38.7878 30.7075 37.5909 28.8421 36.3419C27.9094 35.7168 25.0523 33.7148 25.4035 32.2903C25.7052 31.0723 30.5058 26.4952 33.249 23.7739C34.3258 22.7048 33.8347 22.0881 32.5632 23.0715C29.4058 25.5132 24.3364 29.2263 22.6603 30.2715C21.1817 31.1931 20.4108 31.3504 19.4891 31.1931C17.8075 30.9065 16.248 30.4625 14.9752 29.9217C13.2552 29.1911 13.3388 26.7691 14.9738 26.0639L38.4282 15.9488Z" fill="white"/>
<rect x="2" y="2" width="51" height="51" rx="12.4054" stroke="url(#paint0_linear_3_36)" stroke-width="2.06757"/>
<defs>
<linearGradient id="paint0_linear_3_36" x1="27.5" y1="2" x2="27.5" y2="53" gradientUnits="userSpaceOnUse">
<stop offset="0.35" stop-color="#FF5C00"/>
<stop offset="1" stop-color="#ECD8B9"/>
</linearGradient>
</defs>
</svg>
