<svg width="48" height="48" viewBox="0 0 48 48" fill="none" xmlns="http://www.w3.org/2000/svg">
<path d="M24 46C19.6488 46 15.3953 44.7097 11.7775 42.2923C8.15959 39.8749 5.33979 36.439 3.67466 32.419C2.00953 28.3991 1.57386 23.9756 2.42274 19.708C3.27161 15.4404 5.36691 11.5204 8.44366 8.44366C11.5204 5.3669 15.4404 3.27161 19.708 2.42273C23.9756 1.57386 28.3991 2.00953 32.419 3.67466C36.439 5.33979 39.8749 8.15958 42.2923 11.7775C44.7097 15.3953 46 19.6488 46 24C46 27.6373 45.12 31.0644 43.5556 34.0882L46 46L34.0882 43.5556C31.0669 45.1176 27.6349 46 24 46Z" stroke="black" stroke-width="3" stroke-linecap="round" stroke-linejoin="round"/>
</svg>
