<svg width="305" height="70" viewBox="0 0 305 70" fill="none" xmlns="http://www.w3.org/2000/svg">
<path d="M97.0323 44.2774C96.8918 44.7591 96.6309 45.0803 96.2495 45.2409C95.8682 45.4014 95.4667 45.4215 95.0452 45.3011C94.6438 45.2007 94.3126 44.99 94.0517 44.6688C93.8108 44.3276 93.7606 43.9061 93.9011 43.4043C93.5398 44.0064 93.1785 44.3376 92.8172 44.3978C92.4559 44.438 92.2151 44.2874 92.0947 43.9462C91.9742 43.5849 92.0947 43.1132 92.4559 42.5312C92.0947 42.7921 91.7133 42.8423 91.3119 42.6817C90.9305 42.5011 90.6093 42.2201 90.3484 41.8387C90.0875 41.4372 89.947 41.0258 89.9269 40.6043C89.9068 40.1828 90.0774 39.8415 90.4387 39.5806C89.7964 39.7613 89.3348 39.7813 89.0538 39.6408C88.7928 39.5003 88.7427 39.3096 88.9032 39.0688C89.0839 38.8078 89.5054 38.5971 90.1678 38.4365C89.6258 38.4566 89.2143 38.3362 88.9333 38.0752C88.6523 37.8143 88.4918 37.5032 88.4516 37.1419C88.4315 36.7605 88.5419 36.4193 88.7828 36.1182C89.0437 35.8171 89.4452 35.6465 89.9871 35.6064C89.5255 35.6064 89.1742 35.4157 88.9333 35.0343C88.7126 34.6329 88.6022 34.1913 88.6022 33.7096C88.6022 33.2078 88.7226 32.7662 88.9634 32.3849C89.2043 32.0035 89.5556 31.8128 90.0172 31.8128C89.6961 31.6924 89.4853 31.4515 89.385 31.0902C89.3047 30.7289 89.3047 30.3275 89.385 29.8859C89.4652 29.4243 89.6158 28.9927 89.8366 28.5913C90.0574 28.1698 90.3083 27.8486 90.5893 27.6278C90.8903 27.387 91.2015 27.3267 91.5226 27.4472C91.2416 27.0658 91.1613 26.6844 91.2817 26.3031C91.4022 25.9217 91.633 25.6006 91.9742 25.3396C92.3154 25.0787 92.6868 24.9482 93.0882 24.9482C93.4896 24.9282 93.8309 25.1088 94.1119 25.4902C94.0316 25.0687 94.1018 24.7074 94.3226 24.4063C94.5635 24.0851 94.8846 23.8443 95.2861 23.6837C95.6875 23.5031 96.109 23.4127 96.5506 23.4127C96.9922 23.3927 97.3735 23.473 97.6947 23.6536C98.0359 23.8342 98.2567 24.1353 98.3571 24.5568C98.3771 24.055 98.5578 23.6837 98.899 23.4428C99.2402 23.202 99.6216 23.0916 100.043 23.1117C100.485 23.1317 100.866 23.2823 101.187 23.5633C101.508 23.8242 101.659 24.2056 101.639 24.7074C101.799 24.2658 102.08 23.9748 102.482 23.8342C102.883 23.6737 103.315 23.6335 103.776 23.7138C104.258 23.7941 104.69 23.9647 105.071 24.2256C105.473 24.4665 105.764 24.7776 105.944 25.159C106.145 25.5404 106.165 25.9518 106.004 26.3934C106.326 26.0923 106.647 25.9518 106.968 25.9719C107.289 25.992 107.55 26.1124 107.751 26.3332C107.971 26.554 108.072 26.825 108.052 27.1461C108.052 27.4673 107.881 27.7784 107.54 28.0794C107.982 27.959 108.353 28.0192 108.654 28.2601C108.975 28.5009 109.196 28.8221 109.316 29.2235C109.437 29.6049 109.427 29.9762 109.286 30.3375C109.166 30.6988 108.885 30.9497 108.443 31.0902C108.443 31.7526 108.353 32.1942 108.172 32.415C107.992 32.6357 107.811 32.6357 107.63 32.415C107.45 32.1942 107.359 31.7526 107.359 31.0902C107.359 31.4515 107.209 31.7426 106.908 31.9633C106.627 32.1841 106.265 32.3347 105.824 32.415C105.402 32.4752 104.971 32.4752 104.529 32.415C104.108 32.3347 103.746 32.1841 103.445 31.9633C103.164 31.7426 103.024 31.4515 103.024 31.0902C102.622 31.5117 102.261 31.7024 101.94 31.6623C101.619 31.602 101.428 31.4114 101.368 31.0902C101.328 30.7691 101.508 30.4078 101.91 30.0063C101.448 30.5282 101.017 30.7791 100.615 30.759C100.234 30.7189 100.013 30.5182 99.9528 30.1569C99.7721 30.3576 99.6015 30.3777 99.4409 30.2171C99.2603 30.5985 98.9793 30.9397 98.5979 31.2408C98.2366 31.5218 97.8452 31.6924 97.4237 31.7526C97.7649 32.0737 97.8051 32.435 97.5442 32.8365C97.3033 33.2379 96.7915 33.4186 96.0087 33.3784C96.6911 33.3985 97.1427 33.5089 97.3635 33.7096C97.5843 33.9103 97.5843 34.111 97.3635 34.3117C97.1427 34.5125 96.6911 34.6128 96.0087 34.6128C96.651 34.5928 97.1126 34.7031 97.3936 34.944C97.6746 35.1648 97.7649 35.4157 97.6646 35.6967C97.5642 35.9777 97.2732 36.1885 96.7915 36.329C97.2732 36.3892 97.6646 36.6702 97.9657 37.172C98.2868 37.6738 98.4273 38.1655 98.3872 38.6473C98.5076 38.6272 98.608 38.6774 98.6883 38.7978C98.909 38.3964 99.2402 38.0953 99.6818 37.8946C100.143 37.6738 100.595 37.6035 101.037 37.6838C101.498 37.7641 101.86 38.0451 102.121 38.5268C102.02 38.1053 102.08 37.7541 102.301 37.4731C102.542 37.1921 102.843 37.0114 103.204 36.9311C103.586 36.8308 103.947 36.8508 104.288 36.9913C104.63 37.1318 104.85 37.4128 104.951 37.8344C104.951 37.2523 105.101 36.8107 105.402 36.5096C105.703 36.2085 106.055 36.058 106.456 36.058C106.857 36.058 107.209 36.2085 107.51 36.5096C107.811 36.8107 107.961 37.2523 107.961 37.8344C108.523 37.7741 108.915 37.8845 109.136 38.1655C109.356 38.4465 109.387 38.7476 109.226 39.0688C109.065 39.3698 108.694 39.5405 108.112 39.5806C108.513 39.8415 108.724 40.1627 108.744 40.5441C108.784 40.9053 108.694 41.2566 108.473 41.5978C108.252 41.919 107.961 42.1498 107.6 42.2903C107.259 42.4107 106.898 42.3405 106.516 42.0795C106.717 42.481 106.697 42.8824 106.456 43.2839C106.215 43.6652 105.864 43.9763 105.402 44.2172C104.941 44.4581 104.479 44.5685 104.017 44.5484C103.556 44.5283 103.224 44.3176 103.024 43.9161C103.144 44.5183 103.114 44.9398 102.933 45.1806C102.773 45.4215 102.562 45.4617 102.301 45.3011C102.04 45.1606 101.85 44.7993 101.729 44.2172C101.769 44.9197 101.559 45.4014 101.097 45.6624C100.635 45.9233 100.033 45.9434 99.2904 45.7226C98.5678 45.5018 97.8151 45.0201 97.0323 44.2774ZM111.413 42.1699C110.731 41.929 110.299 41.6781 110.119 41.4172C109.958 41.1362 110.029 40.9455 110.33 40.8451C110.631 40.7247 111.122 40.7849 111.805 41.0258C111.303 40.8451 110.972 40.5842 110.811 40.243C110.651 39.8817 110.631 39.5304 110.751 39.1892C110.872 38.848 111.102 38.5971 111.444 38.4365C111.785 38.2559 112.216 38.2559 112.738 38.4365C112.216 38.2559 111.885 37.9347 111.745 37.4731C111.624 37.0114 111.644 36.5498 111.805 36.0881C111.965 35.6064 112.236 35.225 112.618 34.944C113.019 34.663 113.481 34.6128 114.003 34.7935C113.541 34.6329 113.25 34.3619 113.13 33.9806C113.029 33.5791 113.049 33.1677 113.19 32.7461C113.33 32.3246 113.571 31.9934 113.912 31.7526C114.254 31.5117 114.655 31.4716 115.117 31.6322C114.675 31.4716 114.404 31.1705 114.304 30.7289C114.224 30.2673 114.264 29.7956 114.424 29.3139C114.605 28.8121 114.866 28.4106 115.207 28.1095C115.568 27.8085 115.97 27.7382 116.411 27.8988C116.09 27.6981 115.93 27.397 115.93 26.9956C115.95 26.5941 116.08 26.1927 116.321 25.7913C116.562 25.3697 116.853 25.0586 117.194 24.8579C117.535 24.6371 117.877 24.6271 118.218 24.8278C118.218 24.1052 118.338 23.6335 118.579 23.4127C118.82 23.1719 119.051 23.1719 119.272 23.4127C119.512 23.6335 119.633 24.1052 119.633 24.8278C119.633 24.4063 119.783 24.0751 120.085 23.8342C120.386 23.5733 120.757 23.4027 121.199 23.3224C121.66 23.2421 122.112 23.2421 122.553 23.3224C123.015 23.4027 123.396 23.5733 123.697 23.8342C123.999 24.0751 124.149 24.4063 124.149 24.8278C124.571 24.5669 124.952 24.4765 125.293 24.5568C125.654 24.6371 125.925 24.8178 126.106 25.0988C126.287 25.3798 126.337 25.7009 126.257 26.0622C126.196 26.4034 125.945 26.7146 125.504 26.9956C126.006 26.8149 126.437 26.8751 126.799 27.1762C127.18 27.4572 127.461 27.8486 127.642 28.3504C127.822 28.8321 127.852 29.3038 127.732 29.7655C127.611 30.2271 127.31 30.5483 126.829 30.7289C127.471 30.4881 127.953 30.4881 128.274 30.7289C128.595 30.9497 128.695 31.2508 128.575 31.6322C128.475 32.0135 128.103 32.3146 127.461 32.5354C128.023 32.3347 128.434 32.3046 128.695 32.4451C128.956 32.5856 129.027 32.7963 128.906 33.0773C128.806 33.3383 128.465 33.5691 127.882 33.7698C128.485 33.5691 128.926 33.5591 129.207 33.7397C129.488 33.9003 129.568 34.1411 129.448 34.4623C129.348 34.7634 128.996 35.0243 128.394 35.2451C128.756 35.1247 129.087 35.1748 129.388 35.3956C129.709 35.5963 129.98 35.8974 130.201 36.2989C130.422 36.7003 130.572 37.1318 130.652 37.5935C130.733 38.0351 130.713 38.4365 130.592 38.7978C130.492 39.1591 130.261 39.41 129.9 39.5505C130.301 39.41 130.662 39.4301 130.984 39.6107C131.305 39.7914 131.576 40.0724 131.796 40.4537C132.017 40.815 132.158 41.2064 132.218 41.6279C132.278 42.0494 132.238 42.4308 132.098 42.772C131.957 43.1132 131.686 43.3541 131.285 43.4946C131.465 43.9763 131.435 44.3477 131.194 44.6086C130.973 44.8695 130.692 44.9699 130.351 44.9097C130.01 44.8495 129.749 44.5785 129.568 44.0968C129.568 44.6387 129.448 45.0401 129.207 45.3011C128.966 45.5821 128.685 45.7226 128.364 45.7226C128.063 45.7226 127.792 45.5821 127.551 45.3011C127.31 45.0401 127.19 44.6387 127.19 44.0968C126.889 44.3778 126.558 44.4681 126.196 44.3677C125.835 44.2473 125.514 44.0265 125.233 43.7054C124.972 43.3842 124.821 43.043 124.781 42.6817C124.561 43.0029 124.3 43.1835 123.999 43.2236C123.718 43.2437 123.477 43.1333 123.276 42.8925C123.075 42.6516 122.995 42.2903 123.035 41.8086C122.895 42.2903 122.583 42.6215 122.102 42.8021C121.64 42.9828 121.158 43.0129 120.657 42.8925C120.155 42.772 119.793 42.5111 119.573 42.1097C119.613 42.6115 119.452 42.9928 119.091 43.2538C118.75 43.5147 118.348 43.605 117.887 43.5247C117.445 43.4244 117.104 43.0731 116.863 42.4709C117.044 42.8523 117.014 43.2236 116.773 43.5849C116.552 43.9262 116.221 44.2072 115.779 44.428C115.358 44.6287 114.936 44.719 114.515 44.6989C114.113 44.6789 113.812 44.4781 113.611 44.0968C113.611 44.7993 113.481 45.271 113.22 45.5118C112.979 45.7527 112.728 45.7527 112.467 45.5118C112.206 45.271 112.076 44.7993 112.076 44.0968C112.076 44.5785 111.996 44.9297 111.835 45.1505C111.694 45.3713 111.544 45.4215 111.383 45.3011C111.223 45.1806 111.122 44.8695 111.082 44.3677C111.062 43.8659 111.173 43.1333 111.413 42.1699ZM120.115 37.2924C120.115 36.9913 120.245 36.7605 120.506 36.5999C120.787 36.4394 121.108 36.349 121.469 36.329C121.831 36.3089 122.152 36.349 122.433 36.4494C122.413 36.2688 122.453 36.0881 122.553 35.9075C122.674 35.7067 122.834 35.5662 123.035 35.4859C122.714 35.4257 122.473 35.2451 122.312 34.944C122.172 34.6429 122.132 34.3419 122.192 34.0408C122.272 33.7196 122.493 33.4988 122.854 33.3784C122.513 33.4988 122.202 33.3784 121.921 33.0171C121.64 32.6558 121.459 32.2544 121.379 31.8128C121.199 31.9533 120.998 32.0737 120.777 32.1741C120.556 32.2544 120.355 32.2745 120.175 32.2343C120.396 32.4551 120.476 32.7562 120.416 33.1375C120.376 33.4988 120.235 33.81 119.994 34.0709C119.753 34.3318 119.462 34.4121 119.121 34.3117C119.382 34.392 119.543 34.6028 119.603 34.944C119.663 35.2852 119.693 35.6566 119.693 36.058C119.693 36.4394 119.713 36.7605 119.753 37.0214C119.793 37.2824 119.914 37.3727 120.115 37.2924ZM137.624 42.9828C137.082 42.9828 136.67 42.8423 136.389 42.5613C136.108 42.2803 135.968 41.9591 135.968 41.5978C135.968 41.2365 136.108 40.9154 136.389 40.6344C136.67 40.3534 137.082 40.2129 137.624 40.2129C137.062 40.2129 136.64 40.0824 136.359 39.8215C136.078 39.5405 135.938 39.2293 135.938 38.8881C135.938 38.5469 136.078 38.2458 136.359 37.9849C136.64 37.7039 137.062 37.5634 137.624 37.5634C137.162 37.5634 136.811 37.4128 136.57 37.1118C136.349 36.7906 136.239 36.4193 136.239 35.9978C136.239 35.5763 136.349 35.215 136.57 34.9139C136.811 34.5928 137.162 34.4322 137.624 34.4322C136.881 34.4322 136.379 34.3117 136.118 34.0709C135.857 33.83 135.847 33.5892 136.088 33.3483C136.329 33.1074 136.811 32.987 137.533 32.987C137.072 33.0071 136.7 32.8766 136.419 32.5956C136.158 32.3146 135.988 31.9734 135.908 31.5719C135.847 31.1705 135.887 30.7992 136.028 30.458C135.968 30.1769 135.938 29.8558 135.938 29.4945C135.938 29.9361 135.797 30.2873 135.516 30.5483C135.235 30.8092 134.884 30.9798 134.462 31.0601C134.061 31.1404 133.649 31.1404 133.228 31.0601C132.827 30.9598 132.485 30.7791 132.204 30.5182C131.943 30.2572 131.813 29.906 131.813 29.4644C131.291 29.4644 130.9 29.364 130.639 29.1633C130.378 28.9425 130.247 28.6916 130.247 28.4106C130.247 28.1296 130.378 27.8787 130.639 27.6579C130.9 27.4371 131.291 27.3267 131.813 27.3267C131.191 27.3267 130.769 27.1762 130.548 26.8751C130.348 26.554 130.348 26.2429 130.548 25.9418C130.769 25.6206 131.191 25.4601 131.813 25.4601C130.769 24.9984 130.297 24.6672 130.398 24.4665C130.478 24.2457 131.04 24.3662 132.084 24.8278C132.084 24.1654 132.194 23.7339 132.415 23.5332C132.636 23.3124 132.857 23.3124 133.077 23.5332C133.298 23.7339 133.409 24.1654 133.409 24.8278C133.409 24.2658 133.519 23.8443 133.74 23.5633C133.981 23.2823 134.252 23.1418 134.553 23.1418C134.854 23.1418 135.115 23.2823 135.336 23.5633C135.576 23.8443 135.697 24.2658 135.697 24.8278C135.697 24.3662 135.797 24.0249 135.998 23.8041C136.219 23.5633 136.47 23.4428 136.751 23.4428C137.052 23.4428 137.303 23.5633 137.503 23.8041C137.724 24.0249 137.834 24.3662 137.834 24.8278C137.834 24.1052 137.995 23.6335 138.316 23.4127C138.637 23.1719 138.958 23.1719 139.28 23.4127C139.601 23.6335 139.761 24.1052 139.761 24.8278C139.761 24.326 139.912 23.9547 140.213 23.7138C140.534 23.4529 140.895 23.3224 141.297 23.3224C141.718 23.3224 142.09 23.4529 142.411 23.7138C142.732 23.9547 142.893 24.326 142.893 24.8278C142.893 24.2457 143.073 23.8142 143.434 23.5332C143.796 23.2321 144.207 23.0816 144.669 23.0816C145.151 23.0816 145.572 23.2321 145.933 23.5332C146.295 23.8142 146.475 24.2457 146.475 24.8278C146.475 24.3059 146.606 23.9145 146.867 23.6536C147.148 23.3726 147.459 23.2321 147.8 23.2321C148.161 23.2321 148.473 23.3726 148.733 23.6536C148.994 23.9145 149.125 24.3059 149.125 24.8278C149.687 24.7877 150.108 24.8579 150.389 25.0386C150.69 25.2192 150.851 25.45 150.871 25.731C150.891 25.992 150.771 26.2429 150.51 26.4837C150.249 26.7045 149.837 26.835 149.275 26.8751C149.878 26.8751 150.279 27.0156 150.48 27.2966C150.68 27.5576 150.68 27.8285 150.48 28.1095C150.279 28.3906 149.878 28.5311 149.275 28.5311C149.476 28.9124 149.536 29.2536 149.456 29.5547C149.376 29.8558 149.215 30.0666 148.974 30.187C148.733 30.3074 148.462 30.3275 148.161 30.2472C147.88 30.1468 147.64 29.8959 147.439 29.4945C147.439 30.0967 147.268 30.5182 146.927 30.759C146.606 30.9999 146.265 31.0701 145.903 30.9698C145.883 31.311 145.763 31.6221 145.542 31.9031C145.341 32.1841 145.08 32.3648 144.759 32.4451C145.241 32.6458 145.371 32.8866 145.151 33.1677C144.93 33.4487 144.368 33.5892 143.465 33.5892C143.986 33.5892 144.368 33.7598 144.609 34.101C144.87 34.4422 145 34.8336 145 35.2752C145 35.7168 144.87 36.1082 144.609 36.4494C144.368 36.7906 143.986 36.9612 143.465 36.9612C144.227 36.9612 144.729 37.0817 144.97 37.3225C145.231 37.5634 145.231 37.8042 144.97 38.0451C144.729 38.286 144.227 38.4064 143.465 38.4064C143.946 38.4064 144.298 38.5168 144.518 38.7376C144.759 38.9383 144.88 39.1691 144.88 39.4301C144.88 39.691 144.759 39.9319 144.518 40.1527C144.298 40.3534 143.946 40.4537 143.465 40.4537C144.187 40.4537 144.669 40.5942 144.91 40.8752C145.151 41.1562 145.151 41.4372 144.91 41.7183C144.669 41.9993 144.187 42.1398 143.465 42.1398C144.187 42.1398 144.659 42.2401 144.88 42.4408C145.121 42.6416 145.121 42.8423 144.88 43.043C144.659 43.2437 144.187 43.3441 143.465 43.3441C143.565 43.7857 143.485 44.157 143.224 44.4581C142.983 44.7591 142.662 44.9599 142.26 45.0602C141.859 45.1606 141.477 45.1405 141.116 45C140.755 44.8394 140.524 44.5383 140.424 44.0968C140.424 44.6588 140.273 45.0803 139.972 45.3613C139.691 45.6423 139.36 45.7427 138.979 45.6624C138.617 45.6022 138.296 45.3513 138.015 44.9097C137.734 44.4681 137.604 43.8258 137.624 42.9828ZM158.814 44.2473C158.714 44.6889 158.493 44.9799 158.152 45.1204C157.811 45.281 157.449 45.3111 157.068 45.2108C156.707 45.1305 156.406 44.9498 156.165 44.6688C155.944 44.3677 155.894 43.9964 156.014 43.5548C155.753 43.9362 155.422 44.1369 155.021 44.157C154.619 44.157 154.238 44.0366 153.877 43.7957C153.535 43.5548 153.285 43.2538 153.124 42.8925C152.984 42.5111 153.044 42.1297 153.305 41.7484C152.903 41.9692 152.552 42.0394 152.251 41.9591C151.95 41.8588 151.729 41.6881 151.589 41.4473C151.448 41.1864 151.428 40.9154 151.528 40.6344C151.629 40.3333 151.88 40.0724 152.281 39.8516C152.161 39.4301 152.191 39.0888 152.371 38.8279C152.572 38.5469 152.833 38.3562 153.154 38.2559C153.475 38.1555 153.786 38.1756 154.087 38.3161C154.409 38.4566 154.629 38.7276 154.75 39.129C154.83 38.7075 155.091 38.4265 155.533 38.286C155.974 38.1455 156.466 38.1154 157.008 38.1956C157.55 38.2759 158.022 38.4465 158.423 38.7075C158.844 38.9684 159.075 39.3096 159.115 39.7311C159.176 39.3899 159.366 39.119 159.688 38.9182C160.009 38.7175 160.39 38.587 160.832 38.5268C161.273 38.4666 161.695 38.4767 162.096 38.5569C162.076 38.3161 162.156 38.0752 162.337 37.8344C162.156 37.6336 162.116 37.3526 162.217 36.9913C162.036 37.3727 161.695 37.6136 161.193 37.7139C160.711 37.8143 160.199 37.8042 159.657 37.6838C159.115 37.5634 158.654 37.3526 158.272 37.0516C157.911 36.7505 157.771 36.3791 157.851 35.9376C157.69 36.339 157.399 36.5799 156.978 36.6602C156.576 36.7204 156.165 36.6602 155.743 36.4795C155.322 36.2989 154.991 36.0379 154.75 35.6967C154.509 35.3555 154.479 34.9942 154.66 34.6128C154.298 34.8738 153.937 34.9641 153.576 34.8838C153.214 34.7834 152.923 34.5827 152.703 34.2816C152.482 33.9806 152.371 33.6494 152.371 33.2881C152.371 32.9268 152.552 32.6056 152.913 32.3246C152.411 32.3849 152.02 32.3246 151.739 32.144C151.478 31.9633 151.328 31.7426 151.287 31.4816C151.247 31.2006 151.338 30.9397 151.558 30.6988C151.779 30.4379 152.14 30.2773 152.642 30.2171C152.1 30.0766 151.709 29.8759 151.468 29.6149C151.247 29.3339 151.167 29.063 151.227 28.802C151.308 28.5411 151.508 28.3504 151.829 28.23C152.171 28.0895 152.612 28.0995 153.154 28.2601C152.713 27.9189 152.452 27.5776 152.371 27.2364C152.291 26.8751 152.331 26.5841 152.492 26.3633C152.672 26.1425 152.933 26.0321 153.275 26.0321C153.636 26.0321 154.037 26.2027 154.479 26.5439C154.238 26.1425 154.148 25.7812 154.208 25.4601C154.268 25.1389 154.419 24.9081 154.66 24.7676C154.9 24.607 155.171 24.5769 155.472 24.6773C155.794 24.7576 156.075 24.9984 156.315 25.3999C156.215 24.9583 156.275 24.597 156.496 24.316C156.737 24.0149 157.048 23.8142 157.429 23.7138C157.811 23.6135 158.172 23.6335 158.513 23.774C158.875 23.9145 159.115 24.1955 159.236 24.617C159.256 24.1955 159.417 23.8644 159.718 23.6235C160.019 23.3626 160.38 23.202 160.801 23.1418C161.243 23.0615 161.675 23.0816 162.096 23.202C162.538 23.3023 162.889 23.493 163.15 23.774C163.431 24.035 163.561 24.3862 163.541 24.8278C163.742 24.4264 164.033 24.1755 164.414 24.0751C164.796 23.9748 165.207 23.9848 165.649 24.1052C166.11 24.2056 166.522 24.3963 166.883 24.6773C167.265 24.9382 167.536 25.2593 167.696 25.6407C167.877 26.002 167.877 26.3733 167.696 26.7547C168.017 26.5741 168.349 26.5741 168.69 26.7547C169.031 26.9353 169.312 27.2164 169.533 27.5977C169.754 27.9791 169.864 28.3604 169.864 28.7418C169.864 29.1232 169.703 29.4142 169.382 29.6149C169.382 30.0164 169.181 30.3175 168.78 30.5182C168.399 30.7189 167.957 30.8192 167.455 30.8192C166.954 30.8192 166.502 30.7189 166.1 30.5182C165.719 30.3175 165.528 30.0164 165.528 29.6149C165.448 29.9963 165.237 30.2472 164.896 30.3676C164.555 30.4881 164.184 30.5182 163.782 30.458C163.381 30.3777 163.029 30.2171 162.728 29.9762C162.447 29.7354 162.317 29.4343 162.337 29.073C162.277 29.3941 162.096 29.625 161.795 29.7655C161.514 29.906 161.213 29.9562 160.892 29.916C160.972 30.4379 160.812 30.8694 160.41 31.2106C160.43 31.3512 160.41 31.5117 160.35 31.6924C160.571 31.3913 160.932 31.2106 161.434 31.1504C161.956 31.0701 162.488 31.1003 163.029 31.2408C163.591 31.3612 164.053 31.5719 164.414 31.873C164.776 32.154 164.926 32.4952 164.866 32.8967C165.007 32.5354 165.278 32.3347 165.679 32.2945C166.1 32.2343 166.542 32.2945 167.004 32.4752C167.465 32.6357 167.837 32.8766 168.118 33.1978C168.419 33.5189 168.499 33.8501 168.359 34.1913C168.7 33.9906 169.041 33.9906 169.382 34.1913C169.743 34.392 170.045 34.6931 170.285 35.0945C170.526 35.496 170.647 35.9075 170.647 36.329C170.667 36.7304 170.506 37.0315 170.165 37.2322C170.607 37.2924 170.908 37.5132 171.068 37.8946C171.249 38.2759 171.299 38.6874 171.219 39.129C171.159 39.5706 170.988 39.9419 170.707 40.243C170.446 40.5441 170.085 40.6645 169.623 40.6043C169.864 40.8853 169.934 41.2165 169.834 41.5978C169.754 41.9591 169.563 42.3204 169.262 42.6817C168.961 43.0229 168.609 43.314 168.208 43.5548C167.807 43.7756 167.415 43.9061 167.034 43.9462C166.652 43.9663 166.341 43.8258 166.1 43.5247C166.201 43.9864 166.1 44.3677 165.799 44.6688C165.498 44.9699 165.107 45.1706 164.625 45.271C164.164 45.3914 163.732 45.3713 163.331 45.2108C162.929 45.0703 162.678 44.7792 162.578 44.3376C162.618 45.3011 162.297 45.7828 161.614 45.7828C160.952 45.8029 160.019 45.291 158.814 44.2473ZM178.698 42.9828C178.156 42.9828 177.745 42.8423 177.464 42.5613C177.183 42.2803 177.043 41.9591 177.043 41.5978C177.043 41.2365 177.183 40.9154 177.464 40.6344C177.745 40.3534 178.156 40.2129 178.698 40.2129C178.136 40.2129 177.715 40.0824 177.434 39.8215C177.153 39.5405 177.012 39.2293 177.012 38.8881C177.012 38.5469 177.153 38.2458 177.434 37.9849C177.715 37.7039 178.136 37.5634 178.698 37.5634C178.237 37.5634 177.886 37.4128 177.645 37.1118C177.424 36.7906 177.313 36.4193 177.313 35.9978C177.313 35.5763 177.424 35.215 177.645 34.9139C177.886 34.5928 178.237 34.4322 178.698 34.4322C177.956 34.4322 177.454 34.3117 177.193 34.0709C176.932 33.83 176.922 33.5892 177.163 33.3483C177.404 33.1074 177.886 32.987 178.608 32.987C178.146 33.0071 177.775 32.8766 177.494 32.5956C177.233 32.3146 177.063 31.9734 176.982 31.5719C176.922 31.1705 176.962 30.7992 177.103 30.458C177.043 30.1769 177.012 29.8558 177.012 29.4945C177.012 29.9361 176.872 30.2873 176.591 30.5483C176.31 30.8092 175.959 30.9798 175.537 31.0601C175.136 31.1404 174.724 31.1404 174.303 31.0601C173.901 30.9598 173.56 30.7791 173.279 30.5182C173.018 30.2572 172.888 29.906 172.888 29.4644C172.366 29.4644 171.974 29.364 171.713 29.1633C171.453 28.9425 171.322 28.6916 171.322 28.4106C171.322 28.1296 171.453 27.8787 171.713 27.6579C171.974 27.4371 172.366 27.3267 172.888 27.3267C172.265 27.3267 171.844 27.1762 171.623 26.8751C171.422 26.554 171.422 26.2429 171.623 25.9418C171.844 25.6206 172.265 25.4601 172.888 25.4601C171.844 24.9984 171.372 24.6672 171.473 24.4665C171.553 24.2457 172.115 24.3662 173.159 24.8278C173.159 24.1654 173.269 23.7339 173.49 23.5332C173.711 23.3124 173.931 23.3124 174.152 23.5332C174.373 23.7339 174.483 24.1654 174.483 24.8278C174.483 24.2658 174.594 23.8443 174.815 23.5633C175.055 23.2823 175.326 23.1418 175.627 23.1418C175.929 23.1418 176.189 23.2823 176.41 23.5633C176.651 23.8443 176.772 24.2658 176.772 24.8278C176.772 24.3662 176.872 24.0249 177.073 23.8041C177.293 23.5633 177.544 23.4428 177.825 23.4428C178.126 23.4428 178.377 23.5633 178.578 23.8041C178.799 24.0249 178.909 24.3662 178.909 24.8278C178.909 24.1052 179.07 23.6335 179.391 23.4127C179.712 23.1719 180.033 23.1719 180.354 23.4127C180.676 23.6335 180.836 24.1052 180.836 24.8278C180.836 24.326 180.987 23.9547 181.288 23.7138C181.609 23.4529 181.97 23.3224 182.372 23.3224C182.793 23.3224 183.164 23.4529 183.486 23.7138C183.807 23.9547 183.967 24.326 183.967 24.8278C183.967 24.2457 184.148 23.8142 184.509 23.5332C184.871 23.2321 185.282 23.0816 185.744 23.0816C186.225 23.0816 186.647 23.2321 187.008 23.5332C187.369 23.8142 187.55 24.2457 187.55 24.8278C187.55 24.3059 187.681 23.9145 187.942 23.6536C188.223 23.3726 188.534 23.2321 188.875 23.2321C189.236 23.2321 189.547 23.3726 189.808 23.6536C190.069 23.9145 190.2 24.3059 190.2 24.8278C190.762 24.7877 191.183 24.8579 191.464 25.0386C191.765 25.2192 191.926 25.45 191.946 25.731C191.966 25.992 191.845 26.2429 191.585 26.4837C191.324 26.7045 190.912 26.835 190.35 26.8751C190.952 26.8751 191.354 27.0156 191.554 27.2966C191.755 27.5576 191.755 27.8285 191.554 28.1095C191.354 28.3906 190.952 28.5311 190.35 28.5311C190.551 28.9124 190.611 29.2536 190.531 29.5547C190.45 29.8558 190.29 30.0666 190.049 30.187C189.808 30.3074 189.537 30.3275 189.236 30.2472C188.955 30.1468 188.714 29.8959 188.514 29.4945C188.514 30.0967 188.343 30.5182 188.002 30.759C187.681 30.9999 187.339 31.0701 186.978 30.9698C186.958 31.311 186.838 31.6221 186.617 31.9031C186.416 32.1841 186.155 32.3648 185.834 32.4451C186.316 32.6458 186.446 32.8866 186.225 33.1677C186.005 33.4487 185.443 33.5892 184.539 33.5892C185.061 33.5892 185.443 33.7598 185.683 34.101C185.944 34.4422 186.075 34.8336 186.075 35.2752C186.075 35.7168 185.944 36.1082 185.683 36.4494C185.443 36.7906 185.061 36.9612 184.539 36.9612C185.302 36.9612 185.804 37.0817 186.045 37.3225C186.306 37.5634 186.306 37.8042 186.045 38.0451C185.804 38.286 185.302 38.4064 184.539 38.4064C185.021 38.4064 185.372 38.5168 185.593 38.7376C185.834 38.9383 185.954 39.1691 185.954 39.4301C185.954 39.691 185.834 39.9319 185.593 40.1527C185.372 40.3534 185.021 40.4537 184.539 40.4537C185.262 40.4537 185.744 40.5942 185.985 40.8752C186.225 41.1562 186.225 41.4372 185.985 41.7183C185.744 41.9993 185.262 42.1398 184.539 42.1398C185.262 42.1398 185.734 42.2401 185.954 42.4408C186.195 42.6416 186.195 42.8423 185.954 43.043C185.734 43.2437 185.262 43.3441 184.539 43.3441C184.64 43.7857 184.559 44.157 184.298 44.4581C184.058 44.7591 183.736 44.9599 183.335 45.0602C182.934 45.1606 182.552 45.1405 182.191 45C181.83 44.8394 181.599 44.5383 181.498 44.0968C181.498 44.6588 181.348 45.0803 181.047 45.3613C180.766 45.6423 180.435 45.7427 180.053 45.6624C179.692 45.6022 179.371 45.3513 179.09 44.9097C178.809 44.4681 178.678 43.8258 178.698 42.9828ZM191.328 42.1699C190.646 41.929 190.214 41.6781 190.034 41.4172C189.873 41.1362 189.943 40.9455 190.245 40.8451C190.546 40.7247 191.037 40.7849 191.72 41.0258C191.218 40.8451 190.887 40.5842 190.726 40.243C190.566 39.8817 190.546 39.5304 190.666 39.1892C190.786 38.848 191.017 38.5971 191.359 38.4365C191.7 38.2559 192.131 38.2559 192.653 38.4365C192.131 38.2559 191.8 37.9347 191.66 37.4731C191.539 37.0114 191.559 36.5498 191.72 36.0881C191.88 35.6064 192.151 35.225 192.533 34.944C192.934 34.663 193.396 34.6128 193.918 34.7935C193.456 34.6329 193.165 34.3619 193.045 33.9806C192.944 33.5791 192.964 33.1677 193.105 32.7461C193.245 32.3246 193.486 31.9934 193.827 31.7526C194.169 31.5117 194.57 31.4716 195.032 31.6322C194.59 31.4716 194.319 31.1705 194.219 30.7289C194.138 30.2673 194.179 29.7956 194.339 29.3139C194.52 28.8121 194.781 28.4106 195.122 28.1095C195.483 27.8085 195.885 27.7382 196.326 27.8988C196.005 27.6981 195.845 27.397 195.845 26.9956C195.865 26.5941 195.995 26.1927 196.236 25.7913C196.477 25.3697 196.768 25.0586 197.109 24.8579C197.45 24.6371 197.792 24.6271 198.133 24.8278C198.133 24.1052 198.253 23.6335 198.494 23.4127C198.735 23.1719 198.966 23.1719 199.187 23.4127C199.427 23.6335 199.548 24.1052 199.548 24.8278C199.548 24.4063 199.698 24.0751 199.999 23.8342C200.301 23.5733 200.672 23.4027 201.113 23.3224C201.575 23.2421 202.027 23.2421 202.468 23.3224C202.93 23.4027 203.311 23.5733 203.612 23.8342C203.913 24.0751 204.064 24.4063 204.064 24.8278C204.485 24.5669 204.867 24.4765 205.208 24.5568C205.569 24.6371 205.84 24.8178 206.021 25.0988C206.202 25.3798 206.252 25.7009 206.172 26.0622C206.111 26.4034 205.86 26.7146 205.419 26.9956C205.921 26.8149 206.352 26.8751 206.713 27.1762C207.095 27.4572 207.376 27.8486 207.556 28.3504C207.737 28.8321 207.767 29.3038 207.647 29.7655C207.526 30.2271 207.225 30.5483 206.744 30.7289C207.386 30.4881 207.868 30.4881 208.189 30.7289C208.51 30.9497 208.61 31.2508 208.49 31.6322C208.389 32.0135 208.018 32.3146 207.376 32.5354C207.938 32.3347 208.349 32.3046 208.61 32.4451C208.871 32.5856 208.941 32.7963 208.821 33.0773C208.721 33.3383 208.379 33.5691 207.797 33.7698C208.399 33.5691 208.841 33.5591 209.122 33.7397C209.403 33.9003 209.483 34.1411 209.363 34.4623C209.263 34.7634 208.911 35.0243 208.309 35.2451C208.67 35.1247 209.002 35.1748 209.303 35.3956C209.624 35.5963 209.895 35.8974 210.116 36.2989C210.336 36.7003 210.487 37.1318 210.567 37.5935C210.648 38.0351 210.627 38.4365 210.507 38.7978C210.407 39.1591 210.176 39.41 209.815 39.5505C210.216 39.41 210.577 39.4301 210.898 39.6107C211.22 39.7914 211.491 40.0724 211.711 40.4537C211.932 40.815 212.073 41.2064 212.133 41.6279C212.193 42.0494 212.153 42.4308 212.012 42.772C211.872 43.1132 211.601 43.3541 211.2 43.4946C211.38 43.9763 211.35 44.3477 211.109 44.6086C210.888 44.8695 210.607 44.9699 210.266 44.9097C209.925 44.8495 209.664 44.5785 209.483 44.0968C209.483 44.6387 209.363 45.0401 209.122 45.3011C208.881 45.5821 208.6 45.7226 208.279 45.7226C207.978 45.7226 207.707 45.5821 207.466 45.3011C207.225 45.0401 207.105 44.6387 207.105 44.0968C206.804 44.3778 206.473 44.4681 206.111 44.3677C205.75 44.2473 205.429 44.0265 205.148 43.7054C204.887 43.3842 204.736 43.043 204.696 42.6817C204.475 43.0029 204.215 43.1835 203.913 43.2236C203.632 43.2437 203.392 43.1333 203.191 42.8925C202.99 42.6516 202.91 42.2903 202.95 41.8086C202.809 42.2903 202.498 42.6215 202.017 42.8021C201.555 42.9828 201.073 43.0129 200.571 42.8925C200.07 42.772 199.708 42.5111 199.488 42.1097C199.528 42.6115 199.367 42.9928 199.006 43.2538C198.665 43.5147 198.263 43.605 197.802 43.5247C197.36 43.4244 197.019 43.0731 196.778 42.4709C196.959 42.8523 196.928 43.2236 196.688 43.5849C196.467 43.9262 196.136 44.2072 195.694 44.428C195.273 44.6287 194.851 44.719 194.429 44.6989C194.028 44.6789 193.727 44.4781 193.526 44.0968C193.526 44.7993 193.396 45.271 193.135 45.5118C192.894 45.7527 192.643 45.7527 192.382 45.5118C192.121 45.271 191.991 44.7993 191.991 44.0968C191.991 44.5785 191.91 44.9297 191.75 45.1505C191.609 45.3713 191.459 45.4215 191.298 45.3011C191.138 45.1806 191.037 44.8695 190.997 44.3677C190.977 43.8659 191.088 43.1333 191.328 42.1699ZM200.03 37.2924C200.03 36.9913 200.16 36.7605 200.421 36.5999C200.702 36.4394 201.023 36.349 201.384 36.329C201.746 36.3089 202.067 36.349 202.348 36.4494C202.328 36.2688 202.368 36.0881 202.468 35.9075C202.589 35.7067 202.749 35.5662 202.95 35.4859C202.629 35.4257 202.388 35.2451 202.227 34.944C202.087 34.6429 202.047 34.3419 202.107 34.0408C202.187 33.7196 202.408 33.4988 202.769 33.3784C202.428 33.4988 202.117 33.3784 201.836 33.0171C201.555 32.6558 201.374 32.2544 201.294 31.8128C201.113 31.9533 200.913 32.0737 200.692 32.1741C200.471 32.2544 200.27 32.2745 200.09 32.2343C200.311 32.4551 200.391 32.7562 200.331 33.1375C200.29 33.4988 200.15 33.81 199.909 34.0709C199.668 34.3318 199.377 34.4121 199.036 34.3117C199.297 34.392 199.457 34.6028 199.518 34.944C199.578 35.2852 199.608 35.6566 199.608 36.058C199.608 36.4394 199.628 36.7605 199.668 37.0214C199.708 37.2824 199.829 37.3727 200.03 37.2924ZM219.217 43.9161C218.956 44.5183 218.635 44.8695 218.253 44.9699C217.892 45.0502 217.601 44.9297 217.38 44.6086C217.159 44.2674 217.179 43.7957 217.44 43.1935C217.139 43.5548 216.818 43.7555 216.477 43.7957C216.136 43.8358 215.835 43.7555 215.574 43.5548C215.333 43.3541 215.192 43.0831 215.152 42.7419C215.132 42.4007 215.273 42.0494 215.574 41.6881C215.132 41.8889 214.731 41.8889 214.369 41.6881C214.028 41.4874 213.757 41.1864 213.556 40.7849C213.376 40.3835 213.316 39.982 213.376 39.5806C213.456 39.1792 213.707 38.8781 214.128 38.6774C213.566 38.7175 213.125 38.6071 212.804 38.3462C212.503 38.0853 212.332 37.7741 212.292 37.4128C212.272 37.0315 212.392 36.6903 212.653 36.3892C212.914 36.0881 213.326 35.9175 213.888 35.8774C213.406 35.8774 213.035 35.7168 212.774 35.3956C212.533 35.0544 212.412 34.673 212.412 34.2515C212.412 33.81 212.533 33.4286 212.774 33.1074C213.035 32.7662 213.406 32.5956 213.888 32.5956C213.566 32.5354 213.346 32.3347 213.225 31.9935C213.105 31.6322 213.065 31.2207 213.105 30.759C213.145 30.2974 213.245 29.8558 213.406 29.4343C213.566 28.9927 213.777 28.6415 214.038 28.3805C214.299 28.1196 214.59 28.0192 214.911 28.0794C214.57 27.7181 214.44 27.3267 214.52 26.9052C214.62 26.4637 214.841 26.0823 215.182 25.7611C215.543 25.44 215.935 25.2593 216.356 25.2192C216.798 25.159 217.189 25.3095 217.531 25.6708C217.29 25.0486 217.23 24.5869 217.35 24.2859C217.49 23.9848 217.711 23.8945 218.012 24.0149C218.333 24.1353 218.625 24.5067 218.885 25.1289C218.725 24.5067 218.765 24.055 219.006 23.774C219.267 23.493 219.568 23.4228 219.909 23.5633C220.25 23.7038 220.491 24.0851 220.632 24.7074C220.612 24.1855 220.752 23.7841 221.053 23.5031C221.374 23.2221 221.746 23.0715 222.167 23.0514C222.609 23.0314 223 23.1418 223.341 23.3826C223.683 23.6235 223.863 24.0049 223.883 24.5267C223.944 24.0049 224.084 23.6235 224.305 23.3826C224.546 23.1217 224.797 23.0113 225.058 23.0514C225.339 23.0715 225.569 23.2321 225.75 23.5332C225.931 23.8142 225.991 24.2256 225.931 24.7676C226.051 24.326 226.292 24.035 226.653 23.8945C227.015 23.754 227.386 23.7439 227.767 23.8644C228.149 23.9848 228.45 24.1955 228.67 24.4966C228.891 24.7977 228.941 25.169 228.821 25.6106C229.102 25.2292 229.463 25.0586 229.905 25.0988C230.346 25.1389 230.758 25.3095 231.139 25.6106C231.541 25.9117 231.812 26.273 231.952 26.6945C232.113 27.0959 232.043 27.4873 231.741 27.8687C232.143 27.9088 232.424 28.0493 232.584 28.2902C232.765 28.5311 232.835 28.802 232.795 29.1031C232.775 29.3841 232.655 29.635 232.434 29.8558C232.233 30.0565 231.942 30.1368 231.561 30.0967C231.561 30.3777 231.4 30.6085 231.079 30.7891C230.778 30.9698 230.407 31.0902 229.965 31.1504C229.524 31.1906 229.072 31.1906 228.61 31.1504C228.169 31.0902 227.797 30.9698 227.496 30.7891C227.195 30.6085 227.045 30.3777 227.045 30.0967C226.884 30.478 226.623 30.739 226.262 30.8795C225.921 30.9999 225.539 31.02 225.118 30.9397C224.716 30.8594 224.335 30.7089 223.974 30.4881C223.632 30.2673 223.382 29.9963 223.221 29.6752C223.08 29.9963 222.84 30.2472 222.498 30.4278C222.177 30.6085 221.846 30.6787 221.505 30.6386C221.665 30.9999 221.635 31.3712 221.415 31.7526C221.194 32.134 220.822 32.3146 220.301 32.2945C220.702 32.3949 220.943 32.5856 221.023 32.8666C221.123 33.1275 221.073 33.3784 220.873 33.6193C220.692 33.8601 220.371 33.9705 219.909 33.9505C220.451 33.9505 220.812 34.111 220.993 34.4322C221.194 34.7333 221.214 35.0343 221.053 35.3354C220.893 35.6365 220.561 35.787 220.06 35.787C220.501 35.787 220.832 35.9175 221.053 36.1784C221.274 36.4193 221.384 36.7103 221.384 37.0516C221.384 37.3928 221.264 37.6738 221.023 37.8946C221.304 37.8946 221.545 37.9849 221.746 38.1655C221.966 38.3462 222.107 38.567 222.167 38.8279C222.468 38.5068 222.84 38.3362 223.281 38.3161C223.723 38.296 224.104 38.4164 224.425 38.6774C224.405 38.4566 224.455 38.306 224.576 38.2258C224.716 38.1455 224.897 38.1455 225.118 38.2258L225.088 38.1956C224.726 38.0351 224.455 37.7541 224.275 37.3526C224.114 36.9512 224.194 36.5297 224.516 36.0881C223.954 36.0881 223.572 35.9576 223.372 35.6967C223.191 35.4358 223.191 35.1849 223.372 34.944C223.572 34.6831 223.954 34.5526 224.516 34.5526C223.934 34.5526 223.542 34.4422 223.341 34.2214C223.161 34.0006 223.161 33.7798 223.341 33.5591C223.542 33.3383 223.934 33.2279 224.516 33.2279C224.516 32.9067 224.656 32.6458 224.937 32.4451C225.218 32.2443 225.569 32.1139 225.991 32.0537C226.412 31.9734 226.834 31.9633 227.255 32.0236C227.677 32.0838 228.028 32.2142 228.309 32.415C228.59 32.6157 228.731 32.8766 228.731 33.1978C228.771 32.8164 228.992 32.5555 229.393 32.415C229.815 32.2544 230.276 32.2042 230.778 32.2644C231.3 32.3046 231.741 32.4451 232.103 32.6859C232.484 32.9067 232.655 33.2078 232.615 33.5892C233.197 33.5892 233.638 33.7096 233.939 33.9505C234.24 34.1913 234.391 34.4723 234.391 34.7935C234.391 35.0945 234.24 35.3655 233.939 35.6064C233.638 35.8472 233.197 35.9677 232.615 35.9677C233.177 35.9877 233.588 36.1584 233.849 36.4795C234.11 36.7806 234.23 37.1218 234.21 37.5032C234.19 37.8845 234.03 38.2057 233.729 38.4666C233.428 38.7276 232.996 38.8379 232.434 38.7978C232.815 39.0186 233.006 39.3498 233.006 39.7914C233.026 40.2329 232.916 40.6645 232.675 41.086C232.454 41.5075 232.153 41.8286 231.772 42.0494C231.39 42.2502 230.999 42.2401 230.597 42.0193C230.878 42.5211 230.949 42.9727 230.808 43.3742C230.688 43.7756 230.437 44.0867 230.055 44.3075C229.694 44.5283 229.303 44.6086 228.881 44.5484C228.46 44.4681 228.098 44.1771 227.797 43.6753C227.998 44.3778 227.988 44.8796 227.767 45.1806C227.567 45.4817 227.296 45.552 226.954 45.3914C226.613 45.2308 226.352 44.8093 226.172 44.1269C226.232 44.7491 225.961 45.1806 225.359 45.4215C224.777 45.6624 223.944 45.6624 222.86 45.4215C221.796 45.2007 220.582 44.6989 219.217 43.9161ZM237.129 41.2967C236.406 41.2967 235.924 41.1663 235.683 40.9053C235.443 40.6444 235.443 40.3835 235.683 40.1225C235.924 39.8616 236.406 39.7311 237.129 39.7311C236.767 39.7311 236.476 39.5806 236.256 39.2795C236.035 38.9584 235.884 38.567 235.804 38.1053C235.744 37.6437 235.744 37.182 235.804 36.7204C235.884 36.2386 236.035 35.8472 236.256 35.5462C236.476 35.225 236.767 35.0644 237.129 35.0644C236.627 35.0644 236.245 34.9039 235.985 34.5827C235.724 34.2415 235.593 33.8601 235.593 33.4386C235.593 33.0171 235.724 32.6458 235.985 32.3246C236.245 31.9834 236.627 31.8128 237.129 31.8128C236.446 31.8128 235.985 31.6823 235.744 31.4214C235.523 31.1605 235.523 30.8995 235.744 30.6386C235.985 30.3777 236.446 30.2472 237.129 30.2472C236.426 30.2472 235.954 30.1468 235.714 29.9461C235.493 29.7454 235.493 29.5547 235.714 29.3741C235.954 29.1734 236.426 29.073 237.129 29.073C236.426 29.073 235.954 28.9526 235.714 28.7117C235.493 28.4708 235.493 28.23 235.714 27.9891C235.954 27.7483 236.426 27.6278 237.129 27.6278C236.486 27.6278 236.055 27.4773 235.834 27.1762C235.633 26.8751 235.633 26.5741 235.834 26.273C236.055 25.9719 236.486 25.8214 237.129 25.8214C236.807 25.3597 236.717 24.9683 236.858 24.6472C236.998 24.326 237.239 24.1654 237.58 24.1654C237.942 24.1454 238.283 24.3662 238.604 24.8278C238.604 24.045 238.754 23.5332 239.056 23.2923C239.357 23.0314 239.658 23.0314 239.959 23.2923C240.26 23.5332 240.41 24.045 240.41 24.8278C240.41 24.2457 240.551 23.8142 240.832 23.5332C241.113 23.2522 241.434 23.1117 241.795 23.1117C242.157 23.1117 242.478 23.2522 242.759 23.5332C243.04 23.8142 243.18 24.2457 243.18 24.8278C243.18 24.3461 243.311 23.9948 243.572 23.774C243.853 23.5332 244.164 23.4127 244.505 23.4127C244.846 23.4127 245.147 23.5332 245.408 23.774C245.689 23.9948 245.83 24.3461 245.83 24.8278C245.89 24.3662 246.131 24.045 246.552 23.8644C246.994 23.6837 247.476 23.6335 247.998 23.7138C248.519 23.774 248.961 23.9446 249.322 24.2256C249.684 24.5067 249.834 24.878 249.774 25.3396C250.075 24.617 250.386 24.1855 250.707 24.045C251.028 23.9045 251.249 24.0049 251.37 24.3461C251.49 24.6672 251.41 25.1891 251.129 25.9117C251.39 25.6507 251.711 25.6006 252.092 25.7611C252.494 25.9016 252.865 26.1525 253.206 26.5138C253.567 26.8751 253.808 27.2565 253.929 27.6579C254.069 28.0594 254.009 28.3906 253.748 28.6515C254.27 28.5311 254.681 28.5612 254.983 28.7418C255.304 28.9024 255.494 29.1332 255.555 29.4343C255.635 29.7153 255.565 29.9963 255.344 30.2773C255.143 30.5583 254.782 30.759 254.26 30.8795C254.621 30.9798 254.842 31.2508 254.922 31.6924C255.003 32.1139 254.973 32.5856 254.832 33.1074C254.692 33.6092 254.471 34.0307 254.17 34.372C253.889 34.6931 253.567 34.8035 253.206 34.7031C253.588 35.1447 253.708 35.5763 253.567 35.9978C253.447 36.4193 253.216 36.7304 252.875 36.9311C252.995 37.2322 252.755 37.5032 252.152 37.744C252.534 37.7641 252.875 37.9146 253.176 38.1956C253.477 38.4767 253.698 38.8179 253.838 39.2193C253.979 39.6007 253.999 39.982 253.899 40.3634C253.798 40.7448 253.547 41.0559 253.146 41.2967C253.748 40.9555 254.21 40.815 254.531 40.8752C254.872 40.9154 255.013 41.076 254.952 41.357C254.892 41.6179 254.601 41.919 254.079 42.2602C254.541 42.0193 254.922 41.9993 255.223 42.2C255.524 42.3806 255.665 42.6616 255.645 43.043C255.645 43.4043 255.404 43.7555 254.922 44.0968C254.922 44.4982 254.772 44.8194 254.471 45.0602C254.19 45.3011 253.838 45.4617 253.417 45.5419C252.995 45.6222 252.574 45.6222 252.152 45.5419C251.731 45.4617 251.37 45.3011 251.069 45.0602C250.788 44.8194 250.647 44.4982 250.647 44.0968C250.466 44.4982 250.195 44.7391 249.834 44.8194C249.473 44.8796 249.112 44.8294 248.75 44.6688C248.389 44.5082 248.118 44.2674 247.937 43.9462C247.757 43.605 247.757 43.2437 247.937 42.8623C247.556 43.0229 247.205 43.043 246.884 42.9226C246.582 42.7821 246.352 42.5613 246.191 42.2602C246.031 41.9591 245.97 41.648 246.01 41.3269C246.071 40.9856 246.261 40.7046 246.582 40.4838C246.181 40.6645 245.77 40.6143 245.348 40.3333C244.947 40.0523 244.656 39.691 244.475 39.2494C244.334 39.3297 244.174 39.3698 243.993 39.3698C244.094 39.7311 244.043 40.0924 243.843 40.4537C243.662 40.795 243.331 40.9656 242.849 40.9656C243.251 40.9656 243.552 41.076 243.752 41.2967C243.953 41.5175 244.053 41.7684 244.053 42.0494C244.053 42.3304 243.953 42.5813 243.752 42.8021C243.552 43.0029 243.251 43.1032 242.849 43.1032C243.15 43.5046 243.251 43.8559 243.15 44.157C243.05 44.438 242.839 44.5986 242.518 44.6387C242.217 44.6588 241.916 44.4781 241.615 44.0968C241.615 44.5785 241.454 44.9498 241.133 45.2108C240.832 45.4717 240.451 45.6022 239.989 45.6022C239.547 45.6222 239.106 45.4817 238.664 45.1806C238.223 44.8996 237.851 44.448 237.55 43.8258C237.249 43.1835 237.109 42.3405 237.129 41.2967ZM242.849 31.7225C243.251 31.7225 243.532 31.873 243.692 32.1741C243.873 32.4551 243.953 32.7261 243.933 32.987C244.254 32.7461 244.686 32.6257 245.228 32.6257C245.77 32.6056 246.191 32.706 246.492 32.9268C246.472 32.5856 246.582 32.2142 246.823 31.8128C247.064 31.3913 247.335 31.1203 247.636 30.9999C247.375 30.8995 247.305 30.749 247.425 30.5483C247.044 30.6486 246.733 30.5583 246.492 30.2773C246.271 29.9963 246.241 29.6752 246.402 29.3139C246.161 29.4343 245.86 29.4945 245.499 29.4945C245.157 29.4945 244.836 29.4443 244.535 29.344C244.234 29.2235 244.043 29.0529 243.963 28.8321C244.003 29.2336 243.883 29.4744 243.602 29.5547C243.622 29.7554 243.572 29.9461 243.451 30.1268C243.331 30.3074 243.13 30.3977 242.849 30.3977C243.23 30.3977 243.481 30.5081 243.602 30.7289C243.742 30.9497 243.742 31.1705 243.602 31.3913C243.481 31.6121 243.23 31.7225 242.849 31.7225ZM257.954 42.1699C257.271 41.929 256.84 41.6781 256.659 41.4172C256.498 41.1362 256.569 40.9455 256.87 40.8451C257.171 40.7247 257.663 40.7849 258.345 41.0258C257.843 40.8451 257.512 40.5842 257.351 40.243C257.191 39.8817 257.171 39.5304 257.291 39.1892C257.412 38.848 257.642 38.5971 257.984 38.4365C258.325 38.2559 258.756 38.2559 259.278 38.4365C258.756 38.2559 258.425 37.9347 258.285 37.4731C258.164 37.0114 258.184 36.5498 258.345 36.0881C258.506 35.6064 258.777 35.225 259.158 34.944C259.559 34.663 260.021 34.6128 260.543 34.7935C260.081 34.6329 259.79 34.3619 259.67 33.9806C259.569 33.5791 259.589 33.1677 259.73 32.7461C259.87 32.3246 260.111 31.9934 260.453 31.7526C260.794 31.5117 261.195 31.4716 261.657 31.6322C261.215 31.4716 260.944 31.1705 260.844 30.7289C260.764 30.2673 260.804 29.7956 260.964 29.3139C261.145 28.8121 261.406 28.4106 261.747 28.1095C262.108 27.8085 262.51 27.7382 262.951 27.8988C262.63 27.6981 262.47 27.397 262.47 26.9956C262.49 26.5941 262.62 26.1927 262.861 25.7913C263.102 25.3697 263.393 25.0586 263.734 24.8579C264.075 24.6371 264.417 24.6271 264.758 24.8278C264.758 24.1052 264.878 23.6335 265.119 23.4127C265.36 23.1719 265.591 23.1719 265.812 23.4127C266.053 23.6335 266.173 24.1052 266.173 24.8278C266.173 24.4063 266.324 24.0751 266.625 23.8342C266.926 23.5733 267.297 23.4027 267.739 23.3224C268.2 23.2421 268.652 23.2421 269.093 23.3224C269.555 23.4027 269.936 23.5733 270.238 23.8342C270.539 24.0751 270.689 24.4063 270.689 24.8278C271.111 24.5669 271.492 24.4765 271.833 24.5568C272.195 24.6371 272.466 24.8178 272.646 25.0988C272.827 25.3798 272.877 25.7009 272.797 26.0622C272.736 26.4034 272.486 26.7146 272.044 26.9956C272.546 26.8149 272.977 26.8751 273.339 27.1762C273.72 27.4572 274.001 27.8486 274.182 28.3504C274.362 28.8321 274.392 29.3038 274.272 29.7655C274.152 30.2271 273.85 30.5483 273.369 30.7289C274.011 30.4881 274.493 30.4881 274.814 30.7289C275.135 30.9497 275.235 31.2508 275.115 31.6322C275.015 32.0135 274.643 32.3146 274.001 32.5354C274.563 32.3347 274.974 32.3046 275.235 32.4451C275.496 32.5856 275.567 32.7963 275.446 33.0773C275.346 33.3383 275.005 33.5691 274.423 33.7698C275.025 33.5691 275.466 33.5591 275.747 33.7397C276.028 33.9003 276.109 34.1411 275.988 34.4623C275.888 34.7634 275.536 35.0243 274.934 35.2451C275.296 35.1247 275.627 35.1748 275.928 35.3956C276.249 35.5963 276.52 35.8974 276.741 36.2989C276.962 36.7003 277.112 37.1318 277.192 37.5935C277.273 38.0351 277.253 38.4365 277.132 38.7978C277.032 39.1591 276.801 39.41 276.44 39.5505C276.841 39.41 277.202 39.4301 277.524 39.6107C277.845 39.7914 278.116 40.0724 278.337 40.4537C278.557 40.815 278.698 41.2064 278.758 41.6279C278.818 42.0494 278.778 42.4308 278.638 42.772C278.497 43.1132 278.226 43.3541 277.825 43.4946C278.005 43.9763 277.975 44.3477 277.734 44.6086C277.514 44.8695 277.233 44.9699 276.891 44.9097C276.55 44.8495 276.289 44.5785 276.109 44.0968C276.109 44.6387 275.988 45.0401 275.747 45.3011C275.506 45.5821 275.225 45.7226 274.904 45.7226C274.603 45.7226 274.332 45.5821 274.091 45.3011C273.85 45.0401 273.73 44.6387 273.73 44.0968C273.429 44.3778 273.098 44.4681 272.736 44.3677C272.375 44.2473 272.054 44.0265 271.773 43.7054C271.512 43.3842 271.362 43.043 271.321 42.6817C271.101 43.0029 270.84 43.1835 270.539 43.2236C270.258 43.2437 270.017 43.1333 269.816 42.8925C269.615 42.6516 269.535 42.2903 269.575 41.8086C269.435 42.2903 269.124 42.6215 268.642 42.8021C268.18 42.9828 267.698 43.0129 267.197 42.8925C266.695 42.772 266.334 42.5111 266.113 42.1097C266.153 42.6115 265.992 42.9928 265.631 43.2538C265.29 43.5147 264.888 43.605 264.427 43.5247C263.985 43.4244 263.644 43.0731 263.403 42.4709C263.584 42.8523 263.554 43.2236 263.313 43.5849C263.092 43.9262 262.761 44.2072 262.319 44.428C261.898 44.6287 261.476 44.719 261.055 44.6989C260.653 44.6789 260.352 44.4781 260.151 44.0968C260.151 44.7993 260.021 45.271 259.76 45.5118C259.519 45.7527 259.268 45.7527 259.007 45.5118C258.746 45.271 258.616 44.7993 258.616 44.0968C258.616 44.5785 258.536 44.9297 258.375 45.1505C258.235 45.3713 258.084 45.4215 257.923 45.3011C257.763 45.1806 257.663 44.8695 257.622 44.3677C257.602 43.8659 257.713 43.1333 257.954 42.1699ZM266.655 37.2924C266.655 36.9913 266.785 36.7605 267.046 36.5999C267.327 36.4394 267.648 36.349 268.01 36.329C268.371 36.3089 268.692 36.349 268.973 36.4494C268.953 36.2688 268.993 36.0881 269.093 35.9075C269.214 35.7067 269.374 35.5662 269.575 35.4859C269.254 35.4257 269.013 35.2451 268.853 34.944C268.712 34.6429 268.672 34.3419 268.732 34.0408C268.812 33.7196 269.033 33.4988 269.395 33.3784C269.053 33.4988 268.742 33.3784 268.461 33.0171C268.18 32.6558 268 32.2544 267.919 31.8128C267.739 31.9533 267.538 32.0737 267.317 32.1741C267.096 32.2544 266.896 32.2745 266.715 32.2343C266.936 32.4551 267.016 32.7562 266.956 33.1375C266.916 33.4988 266.775 33.81 266.534 34.0709C266.293 34.3318 266.002 34.4121 265.661 34.3117C265.922 34.392 266.083 34.6028 266.143 34.944C266.203 35.2852 266.233 35.6566 266.233 36.058C266.233 36.4394 266.253 36.7605 266.293 37.0214C266.334 37.2824 266.454 37.3727 266.655 37.2924ZM281.585 40.2129C280.982 40.2129 280.531 40.0222 280.23 39.6408C279.949 39.2595 279.808 38.8179 279.808 38.3161C279.808 37.7942 279.949 37.3426 280.23 36.9612C280.531 36.5799 280.982 36.3892 281.585 36.3892C281.223 36.3892 280.932 36.2386 280.712 35.9376C280.491 35.6365 280.34 35.2652 280.26 34.8236C280.18 34.382 280.18 33.9404 280.26 33.4988C280.34 33.0573 280.491 32.6859 280.712 32.3849C280.932 32.0838 281.223 31.9332 281.585 31.9332C281.003 31.9332 280.561 31.7426 280.26 31.3612C279.979 30.9598 279.838 30.4981 279.838 29.9762C279.838 29.4343 279.979 28.9726 280.26 28.5913C280.561 28.1898 281.003 27.9891 281.585 27.9891C280.822 27.9891 280.31 27.8386 280.049 27.5375C279.808 27.2364 279.808 26.9353 280.049 26.6343C280.31 26.3332 280.822 26.1827 281.585 26.1827C280.962 26.1827 280.541 26.0622 280.32 25.8214C280.119 25.5805 280.119 25.3396 280.32 25.0988C280.541 24.8579 280.962 24.7375 281.585 24.7375C281.605 24.2558 281.775 23.9045 282.096 23.6837C282.418 23.4428 282.779 23.3325 283.18 23.3525C283.602 23.3525 283.963 23.483 284.264 23.7439C284.565 23.9848 284.716 24.3461 284.716 24.8278C284.856 24.4866 285.077 24.2859 285.378 24.2256C285.699 24.1454 286.021 24.1755 286.342 24.316C286.663 24.4364 286.904 24.6371 287.064 24.9181C287.245 25.1791 287.265 25.4801 287.124 25.8214C287.586 25.5604 287.998 25.4902 288.359 25.6106C288.74 25.711 289.031 25.9217 289.232 26.2429C289.433 26.564 289.493 26.9153 289.413 27.2966C289.332 27.678 289.071 28.0092 288.63 28.2902C289.212 27.9289 289.654 27.7884 289.955 27.8687C290.276 27.9289 290.396 28.1095 290.316 28.4106C290.236 28.7117 289.894 29.0429 289.292 29.4042C289.834 29.083 290.296 29.0128 290.677 29.1934C291.079 29.3741 291.33 29.6651 291.43 30.0666C291.53 30.468 291.4 30.8594 291.038 31.2408C291.34 31.0601 291.651 31.03 291.972 31.1504C292.152 30.8494 292.403 30.6386 292.724 30.5182C293.066 30.3777 293.417 30.4178 293.778 30.6386C293.317 30.3576 293.036 30.0465 292.935 29.7053C292.835 29.364 292.865 29.063 293.026 28.802C293.206 28.521 293.467 28.3504 293.808 28.2902C294.17 28.23 294.571 28.3303 295.013 28.5913C294.551 28.3103 294.26 28.0092 294.14 27.688C294.039 27.3669 294.059 27.0859 294.2 26.845C294.34 26.6042 294.581 26.4637 294.922 26.4235C295.264 26.3633 295.665 26.4737 296.127 26.7547C295.665 26.4536 295.374 26.1325 295.254 25.7913C295.133 25.45 295.153 25.159 295.314 24.9181C295.474 24.6773 295.725 24.5368 296.066 24.4966C296.428 24.4565 296.849 24.5869 297.331 24.888C297.311 24.4063 297.451 24.045 297.752 23.8041C298.054 23.5432 298.395 23.4127 298.776 23.4127C299.178 23.3927 299.529 23.5031 299.83 23.7439C300.131 23.9848 300.292 24.3461 300.312 24.8278C300.492 24.4866 300.723 24.2859 301.004 24.2256C301.285 24.1454 301.546 24.1755 301.787 24.316C302.048 24.4364 302.229 24.6371 302.329 24.9181C302.449 25.1791 302.419 25.4801 302.239 25.8214C302.981 25.8214 303.473 25.9719 303.714 26.273C303.955 26.5741 303.955 26.8751 303.714 27.1762C303.473 27.4773 302.981 27.6278 302.239 27.6278C302.941 27.6278 303.403 27.7683 303.624 28.0493C303.864 28.3303 303.864 28.6113 303.624 28.8924C303.403 29.1734 302.941 29.3139 302.239 29.3139C302.841 29.3139 303.242 29.4744 303.443 29.7956C303.644 30.0967 303.644 30.4078 303.443 30.7289C303.242 31.0501 302.841 31.2106 302.239 31.2106C302.68 31.2106 303.031 31.3612 303.292 31.6623C303.573 31.9633 303.754 32.3347 303.834 32.7763C303.935 33.2178 303.935 33.6594 303.834 34.101C303.754 34.5426 303.573 34.9139 303.292 35.215C303.031 35.5161 302.68 35.6666 302.239 35.6666C302.72 35.6666 303.082 35.777 303.322 35.9978C303.563 36.2186 303.684 36.4695 303.684 36.7505C303.684 37.0315 303.563 37.2824 303.322 37.5032C303.082 37.724 302.72 37.8344 302.239 37.8344C302.68 37.8344 303.031 37.9949 303.292 38.3161C303.553 38.6172 303.724 38.9985 303.804 39.4602C303.905 39.9218 303.905 40.3935 303.804 40.8752C303.724 41.3369 303.553 41.7283 303.292 42.0494C303.031 42.3505 302.68 42.5011 302.239 42.5011C303.021 42.5011 303.543 42.6014 303.804 42.8021C304.065 43.0029 304.065 43.2036 303.804 43.4043C303.543 43.605 303.021 43.7054 302.239 43.7054C302.299 44.2272 302.188 44.6387 301.907 44.9398C301.626 45.2409 301.275 45.4115 300.854 45.4516C300.452 45.5118 300.081 45.4315 299.74 45.2108C299.398 44.99 299.198 44.6186 299.137 44.0968C298.977 44.5183 298.746 44.7892 298.445 44.9097C298.144 45.0301 297.843 45.0301 297.542 44.9097C297.261 44.7892 297.05 44.5885 296.909 44.3075C296.789 44.0064 296.809 43.6452 296.97 43.2236C296.207 43.2236 295.695 43.1032 295.434 42.8623C295.193 42.6215 295.193 42.3907 295.434 42.1699C295.695 41.929 296.207 41.8086 296.97 41.8086C296.408 41.8086 295.976 41.6179 295.675 41.2365C295.394 40.8351 295.233 40.3734 295.193 39.8516C295.173 39.3297 295.284 38.858 295.525 38.4365C295.765 37.9949 296.147 37.734 296.669 37.6537C296.227 37.6537 295.926 37.4831 295.765 37.1419C295.565 37.2222 295.404 37.1619 295.284 36.9612C295.043 36.9211 294.792 36.8207 294.531 36.6602C294.872 36.901 295.033 37.2021 295.013 37.5634C295.013 37.9247 294.902 38.2659 294.682 38.587C294.461 38.8881 294.18 39.0989 293.838 39.2193C293.517 39.3397 293.186 39.2795 292.845 39.0387C292.644 39.3799 292.333 39.5505 291.912 39.5505C291.49 39.5304 291.059 39.4 290.617 39.1591C290.195 38.8982 289.864 38.5971 289.623 38.2559C289.403 37.8946 289.393 37.5333 289.593 37.172C289.433 37.2723 289.272 37.3526 289.112 37.4128C288.991 37.6939 288.81 37.9347 288.57 38.1354C288.329 38.3362 288.068 38.4465 287.787 38.4666C288.088 38.6673 288.248 38.9383 288.269 39.2795C288.309 39.6207 288.208 39.9319 287.967 40.2129C287.727 40.4738 287.355 40.6043 286.853 40.6043C287.516 40.6043 287.957 40.7448 288.178 41.0258C288.399 41.3068 288.399 41.5878 288.178 41.8688C287.957 42.1297 287.516 42.2602 286.853 42.2602C287.496 42.4408 287.877 42.7218 287.998 43.1032C288.138 43.4645 288.058 43.7656 287.757 44.0064C287.476 44.2473 287.004 44.2774 286.342 44.0968C286.342 44.6186 286.181 45.01 285.86 45.271C285.539 45.5319 285.167 45.6624 284.746 45.6624C284.324 45.6624 283.953 45.5319 283.632 45.271C283.311 45.01 283.15 44.6186 283.15 44.0968C283.15 44.6789 283.07 45.0903 282.909 45.3312C282.749 45.5921 282.558 45.6022 282.337 45.3613C282.117 45.1405 281.926 44.6186 281.765 43.7957C281.625 42.9727 281.565 41.7785 281.585 40.2129Z" fill="#FF7C03"/>
<circle cx="35.4465" cy="35.0207" r="33.7556" fill="#6238D8" stroke="black" stroke-width="1.75101"/>
<mask id="mask0_0_7" style="mask-type:alpha" maskUnits="userSpaceOnUse" x="1" y="2" width="69" height="66">
<path d="M68.3257 35.0214C68.3257 53.1806 53.6047 67.9016 35.4455 67.9016C17.2863 67.9016 2.56541 53.1806 2.56541 35.0214C2.56541 16.8623 -9.88618 0.876643 35.4455 2.14133C78.8317 0.292972 68.3257 16.8623 68.3257 35.0214Z" fill="#6238D8"/>
</mask>
<g mask="url(#mask0_0_7)">
<path d="M66.1317 49.3451L64.7968 48.5562C64.8659 48.5087 64.9363 48.4636 65.0074 48.4221C65.4656 48.1541 65.6905 48.179 65.7541 48.2079C66.1057 48.3677 66.5205 48.2783 66.775 47.9878C67.0294 47.6973 67.0635 47.2744 66.8588 46.9469C66.3596 46.1482 65.0447 44.5421 63.2091 43.5363C63.436 43.2257 63.6598 42.8851 63.8463 42.5406C64.0457 42.1722 64.2291 41.7515 64.3067 41.3288C64.3833 40.9121 64.3789 40.3564 64.0121 39.8848C63.6579 39.4295 63.0763 38.8731 62.5362 38.3906C62.1439 38.0401 61.7473 37.7054 61.424 37.4411C61.4846 36.2189 61.526 34.5426 61.4758 33.0074C61.4476 32.1419 61.3896 31.3 61.2844 30.6014C61.2319 30.2526 61.165 29.9207 61.077 29.6308C60.9942 29.3576 60.8707 29.0444 60.6656 28.7937C60.2898 28.3345 59.8693 28.0135 59.4568 27.7958C59.4919 27.7608 59.527 27.7263 59.562 27.6925C59.7576 27.5032 59.9293 27.3534 60.0619 27.2568C60.0993 27.2296 60.1277 27.2108 60.1478 27.1985C60.4651 27.1397 60.7298 26.9086 60.8259 26.5914C60.9377 26.2221 60.7946 25.8232 60.4736 25.6092C60.2398 25.4533 59.884 25.2601 59.4781 25.1172L60.7004 23.406C60.837 23.2147 60.891 22.9765 60.8501 22.745C60.8248 22.6014 60.8106 22.0568 61.0101 21.0678C61.204 20.107 61.588 18.784 62.2989 17.1111C63.0593 15.3221 63.3549 13.9411 63.387 12.9119C63.4174 11.9359 63.2114 11.1203 62.7574 10.6663C62.5519 10.4608 62.258 10.3707 61.9727 10.4256C61.6875 10.4806 61.448 10.6734 61.3336 10.9405C60.978 11.7701 60.3042 13.0712 59.4593 14.236C58.585 15.4414 57.6535 16.3229 56.8275 16.577C56.8189 16.5797 56.8102 16.5825 56.8016 16.5854C56.1341 16.8138 55.0435 17.1632 53.9537 17.4651C52.8382 17.7742 51.8095 18.0086 51.2245 18.0452C50.9807 18.0605 50.7543 18.1769 50.6001 18.3663C50.4459 18.5557 50.3779 18.801 50.4124 19.0428C50.4505 19.3093 50.5885 19.6785 50.8684 19.9977L50.0401 20.9132C44.3062 17.5935 31.122 14.0853 18.9528 23.9168C17.9099 24.1239 15.5141 24.1423 13.4092 22.6181C11.0077 20.8791 7.00528 16.5611 5.27657 14.5803C5.03064 14.2985 4.63284 14.204 4.28648 14.3452C3.94012 14.4864 3.7217 14.832 3.74284 15.2054C3.79831 16.1855 3.95264 17.7355 4.23821 19.2262C4.381 19.9716 4.55977 20.719 4.78181 21.3805C4.96061 21.9132 5.18303 22.4386 5.46803 22.8678C5.49172 23.8069 5.55126 25.1166 5.6617 26.3007C5.72239 26.9514 5.80012 27.5829 5.89985 28.1006C5.94955 28.3586 6.00808 28.6064 6.079 28.8223C6.14203 29.0142 6.24442 29.277 6.42509 29.4878C6.75454 29.8722 7.17922 30.1474 7.50978 30.34C7.39784 30.4308 7.28676 30.5263 7.18002 30.6252C6.96118 30.8281 6.73675 31.0674 6.5612 31.3308C6.39361 31.5822 6.21432 31.9392 6.21432 32.3586C6.21432 32.6184 6.32973 32.8648 6.52934 33.0312C6.93609 33.3701 7.56136 33.9393 8.09843 34.5287C8.36719 34.8237 8.60036 35.109 8.77106 35.3621C8.82476 35.4417 8.86785 35.5117 8.90218 35.5723C8.81212 35.6843 8.70211 35.8074 8.57564 35.9274C8.29971 36.1893 8.00208 36.3826 7.7196 36.4597C7.37492 36.5537 7.12193 36.8477 7.08039 37.2025C7.03884 37.5574 7.21708 37.9019 7.53072 38.0729C7.6868 38.1581 7.94479 38.3209 8.17315 38.5104C8.23451 38.5613 8.28951 38.6106 8.33738 38.6574L8.13453 39.0631C8.02907 39.274 8.01315 39.5186 8.09038 39.7414C8.16761 39.9642 8.33145 40.1464 8.54482 40.2468C8.9464 40.4358 9.42966 40.8853 9.54145 41.6095C9.65297 42.332 9.42879 43.5539 7.92498 45.3422C7.7182 45.5881 7.66271 45.9275 7.78043 46.2264C7.89815 46.5254 8.17015 46.7358 8.48907 46.7747C9.16199 46.8568 10.1285 47.0838 10.8555 47.4675C11.6277 47.8751 11.7704 48.2366 11.7131 48.5373C11.7125 48.5407 11.7118 48.5441 11.7112 48.5476C11.7104 48.552 11.7097 48.5565 11.7089 48.5609C11.5142 49.7617 10.5361 52.9665 8.25002 55.6608C7.98693 55.9709 7.97197 56.4213 8.21392 56.7482C10.3048 59.5726 16.2206 65.8327 23.2567 68.2374C31.941 71.2055 39.7998 71.3155 49.2598 67.2456C54.0562 65.182 58.2443 61.3351 61.2654 57.8786C62.7823 56.143 64.0204 54.488 64.9097 53.173C65.3542 52.5157 65.7147 51.9386 65.9808 51.4749C66.2323 51.0364 66.4373 50.6354 66.5231 50.3563C66.6422 49.9693 66.4804 49.5511 66.1317 49.3451ZM60.1795 27.1805C60.1877 27.1765 60.1868 27.1777 60.1777 27.1814C60.1783 27.1811 60.1789 27.1808 60.1795 27.1805Z" fill="#FC8A29" stroke="black" stroke-width="1.75101" stroke-linejoin="round"/>
<path d="M6.33721 22.5746C5.21904 21.1984 4.72446 17.0554 4.61694 15.1559C5.21366 15.8397 6.0924 16.8149 7.08982 17.8726C7.08982 19.5474 7.54139 23.8433 9.34767 27.6279C9.31183 29.599 9.45519 33.8853 10.3153 35.2615C10.3153 36.6951 10.5734 39.8202 11.6055 40.8524C11.5338 41.605 11.541 43.2178 12.1431 43.6478C12.7882 43.8987 13.9924 44.7015 13.6483 45.9057C14.3651 46.8375 16.3147 48.7011 18.3791 48.7011H19.6693C19.2392 46.5508 19.6693 41.4545 24.8301 38.272C31.281 34.2939 28.7006 37.5194 27.6255 38.272C26.5503 39.0246 22.4647 43.6478 21.8196 45.4756C21.1745 47.3034 23.7549 48.5936 24.8301 49.3462C25.9052 50.0988 26.8729 51.174 27.6255 50.9589C28.3781 50.7439 30.7435 47.6259 32.2487 46.5508C33.4529 45.6906 34.3273 45.4756 34.6141 45.4756L29.5608 52.4642C30.7076 52.9659 33.3239 53.9909 34.6141 54.0769C36.2268 54.1844 37.6245 54.722 38.3771 54.0769C38.9792 53.5608 39.9899 52.7867 40.4199 52.4642C40.85 52.1775 41.6886 51.7761 41.6026 52.4642C41.4951 53.3243 40.7425 54.0769 41.1726 54.0769C41.6026 54.0769 48.0536 51.389 48.5912 50.9589C49.0213 50.6149 51.2791 49.3104 52.3543 48.7011C52.9277 48.5577 54.1176 48.4216 54.2896 49.0236C54.5046 49.7763 55.3647 49.6687 56.0098 49.6687C56.6549 49.6687 57.9451 48.4861 58.6978 48.271C59.2999 48.099 60.5972 48.1993 61.1706 48.271L63.321 48.7011L65.6863 50.0988C65.585 50.4282 65.1135 51.2888 64.331 52.4642C63.1342 52.3925 59.3429 52.6147 53.752 54.0769C46.7634 55.9047 46.0108 57.5174 43.2154 57.625C40.4199 57.7325 39.4523 57.625 39.5598 56.5498C39.6673 55.4746 39.1297 58.3776 36.2268 58.1625C33.3239 57.9475 26.1203 56.3348 24.8301 55.3671C23.5399 54.3995 23.7549 54.9371 22.7872 54.9371C22.0131 54.9371 20.386 54.0052 19.6693 53.5393C18.1282 54.5684 14.702 57.5004 13.3258 60.9963C11.3225 59.1678 9.78375 57.3973 8.9176 56.2272C11.326 53.3888 12.3581 50.0271 12.5732 48.7011C12.9172 46.8948 10.0644 46.0849 8.59506 45.9057C11.7775 42.1211 10.1361 40.0281 8.9176 39.4547L9.34767 38.5945C9.17564 38.0785 8.34418 37.5194 7.94996 37.3043C8.8961 37.0463 9.63438 36.1217 9.88525 35.6916C9.71323 34.7454 7.94996 33.0754 7.08982 32.3586C7.08982 31.6705 8.30834 30.7817 8.9176 30.4233C8.9176 29.8857 7.73492 29.6707 7.08982 28.9181C6.57374 28.316 6.37305 24.4382 6.33721 22.5746Z" fill="#E65104"/>
<path d="M51.2791 43.2178C50.505 45.4541 47.301 47.5184 45.7958 48.271C44.3981 48.7011 47.086 50.6364 50.204 46.8733C53.3219 43.1102 52.9994 41.82 52.3543 40.0998C51.7092 38.3795 49.3438 36.0141 47.9461 35.0465C46.5484 34.0788 42.6778 32.8962 42.6778 33.7563C42.6778 34.6164 45.5807 36.2292 47.516 36.9818C49.4513 37.7344 52.2468 40.4223 51.2791 43.2178Z" fill="#E65104"/>
<path d="M17.4114 40.8527C19.7338 41.8849 22.5364 43.0031 23.6474 43.4331C24.0775 44.0782 20.6369 43.4331 19.6693 42.7881C18.7016 42.143 17.4114 41.7129 14.616 41.3903C11.8205 41.0678 7.08985 41.4979 5.26207 41.7129C3.43429 41.9279 3.32677 40.8527 5.69214 40.3152C8.0575 39.7776 14.5085 39.5625 17.4114 40.8527Z" fill="black"/>
<path d="M20.3868 47.2181C21.401 47.0284 22.3237 46.8722 23.0023 46.7662C23.3536 47.4689 22.1263 47.8128 20.5514 48.091C20.7711 48.8933 21.1985 49.702 21.9608 50.2989C23.1661 49.2991 24.2846 48.4386 24.5075 48.2714C24.8516 48.0134 25.2243 48.5939 25.3676 48.9165C24.806 49.4667 24.0514 50.2171 23.268 51.0143C25.6591 52.0551 26.1511 51.5277 26.5503 51.927C26.9804 52.357 27.1954 52.7871 24.9376 52.6796C24.2036 52.6446 23.2311 52.4279 22.3302 51.9777C20.9807 53.3784 19.7396 54.7368 19.4542 55.26C18.8091 56.4427 16.9814 57.3028 16.9814 56.8727C16.9814 56.4427 17.734 54.5074 19.0242 53.0021C19.4745 52.4767 20.2262 51.781 21.0323 51.0841C20.3043 50.3934 19.7988 49.4533 19.8066 48.2154C19.6898 48.2341 19.5722 48.2528 19.4542 48.2714C17.4114 48.5939 14.1859 50.3142 10.7454 51.927C7.99297 53.2172 8.73842 52.1062 9.45519 51.3894C10.0286 50.9235 11.67 49.7766 13.6483 48.9165C14.9484 48.3512 17.5889 47.755 19.8975 47.311C19.9916 46.8122 20.1618 46.273 20.4219 45.691C20.3531 46.0806 20.3217 46.6234 20.3868 47.2181Z" fill="black"/>
<path d="M23.3248 57.0878C23.5829 56.8297 23.0023 56.3351 22.6797 56.1201L18.4866 58.808C19.9918 58.3421 23.0668 57.3458 23.3248 57.0878Z" fill="black"/>
<path d="M29.5608 55.69C30.5069 56.0341 31.8186 55.8334 32.3562 55.69C32.3562 56.3351 30.5284 57.6253 29.5608 57.4103C28.5931 57.1953 25.1526 55.69 24.9376 55.69C24.7225 55.69 25.6902 55.26 26.8729 55.0449C28.0556 54.8299 28.3781 55.26 29.5608 55.69Z" fill="black"/>
<path d="M37.517 41.3903C38.1191 41.8204 37.9829 43.3615 37.8396 44.0783C38.1621 44.4008 39.2588 45.1104 41.0651 45.3685C43.3229 45.691 44.2906 46.7662 44.6131 47.7338C44.9356 48.7015 43.3229 48.7015 42.7853 47.9488C42.3553 47.3468 40.1691 46.4078 39.1298 46.0135C38.3771 46.9812 36.0118 46.4436 35.7967 47.0887C35.5817 47.7338 32.7863 50.4217 31.6036 51.3894C30.6575 52.1635 31.066 52.4287 31.3886 52.4645C32.2129 52.4645 33.9905 52.5721 34.5065 53.0021C35.1516 53.5397 35.2592 54.7224 34.9366 54.5074C34.6141 54.2923 33.2163 54.2923 32.3562 54.5074C31.4961 54.7224 29.0232 55.0449 28.1631 54.2923C27.475 53.6902 27.5897 51.6761 27.733 50.7443C28.8798 49.5974 31.3241 47.1962 31.9262 46.7662C32.5282 46.3361 35.1875 44.58 36.4418 43.7557C36.406 43.1823 36.3558 41.9064 36.4418 41.3903C36.5494 40.7452 36.7644 40.8527 37.517 41.3903Z" fill="black"/>
<path d="M39.7749 53.4322C40.721 52.7441 41.0292 51.4969 41.0651 50.9593C40.635 50.5292 37.517 53.4322 37.1945 54.2923C36.8719 55.1525 38.5922 54.2923 39.7749 53.4322Z" fill="black"/>
<path d="M42.0327 53.0021C41.6887 53.0021 41.8894 52.5004 42.0327 52.2495C41.8894 52.142 41.4951 52.228 41.0651 53.4322C40.5275 54.9374 41.7102 55.0449 42.3553 54.7224C43.0004 54.3998 50.7415 50.0992 52.2468 49.5616C53.752 49.024 52.8919 47.0887 51.7092 48.2714C50.5265 49.4541 42.4628 53.0021 42.0327 53.0021Z" fill="black"/>
<path d="M51.7092 50.7443C52.1393 50.5651 53.1069 50.0777 53.537 49.5616C54.0746 48.9165 54.2896 50.0992 54.0746 50.7443C53.9025 51.2604 53.6445 51.9628 53.537 52.2495C53.9312 52.1778 54.8057 52.0775 55.1497 52.2495C55.5798 52.4645 56.2249 53.4322 55.1497 53.4322C54.177 53.4322 52.1483 53.4322 51.7705 53.5914C51.7319 53.6603 51.7092 53.6845 51.7092 53.6472C51.7092 53.6267 51.7307 53.6082 51.7705 53.5914C51.9543 53.2634 52.4991 51.9225 52.6768 51.3894C52.8919 50.7443 52.5693 50.5292 51.7092 50.7443Z" fill="black"/>
<path d="M58.1602 47.9488C57.5151 48.3789 55.3648 49.9917 55.1497 50.0992C55.2931 50.2067 55.7948 50.3572 56.655 50.0992C57.7301 49.7766 58.1602 48.9165 58.9128 48.2714C59.6654 47.6263 58.8053 47.5188 58.1602 47.9488Z" fill="black"/>
<path d="M64.6112 48.0564C64.0951 48.1424 61.7441 48.2356 60.6331 48.2714C59.4504 49.1315 63.2135 49.1315 63.8586 49.1315C64.5037 49.1315 65.2563 47.9488 64.6112 48.0564Z" fill="black"/>
<path d="M51.3866 45.691C49.6664 45.433 47.0143 44.0782 45.9033 43.4331C45.9033 43.9707 47.9461 46.3361 50.204 46.7662C52.4618 47.1962 52.8919 47.0887 53.537 46.7662C54.1821 46.4436 53.537 46.0135 51.3866 45.691Z" fill="black"/>
<path d="M55.6873 38.9175C53.1069 39.1755 47.6594 41.0319 45.2582 41.9279C49.0571 41.4979 57.214 40.7883 59.4504 41.3903C62.2458 42.1429 62.5684 42.4655 63.6435 43.6482C64.7187 44.8309 64.6112 43.1106 63.8586 41.7129C63.1059 40.3152 58.9128 38.5949 55.6873 38.9175Z" fill="black"/>
<path d="M56.3324 32.2515C51.0856 34.1438 46.7634 37.7706 45.2582 39.3476C45.9033 39.5625 47.6236 37.8424 49.5589 37.3048C51.4942 36.7672 55.6873 33.3267 59.2354 32.8966C62.7834 32.4665 66.439 33.0041 68.4818 33.2192C70.5246 33.4342 69.6645 31.9289 69.3419 31.3913C69.0194 30.8537 62.8909 29.8861 56.3324 32.2515Z" fill="black"/>
<path d="M29.6691 29.3478C29.8412 29.6058 29.4541 30.5304 29.2391 30.9605C28.594 35.5838 25.5835 36.0138 23.7558 35.6912C21.928 35.3687 19.9927 33.9709 19.24 32.0356C18.6379 30.4874 19.3476 29.0252 19.7776 28.4876V27.735C20.2077 27.4769 21.462 27.3408 22.0355 27.305C27.7338 27.0899 29.4541 29.0252 29.6691 29.3478Z" fill="black"/>
<path d="M49.5597 25.3696V27.0899C51.28 32.4657 47.5169 32.4657 45.4741 32.0356C43.4313 31.6055 44.0764 30.638 43.5388 29.9929C43.1087 29.4768 42.4278 28.4876 42.1411 28.0576C42.7862 26.7674 43.9689 24.9395 46.5493 24.832C48.6136 24.746 49.4164 25.1546 49.5597 25.3696Z" fill="black"/>
<path d="M39.3457 37.9491C39.0016 38.2931 37.7687 39.6694 37.1953 40.3145C36.0126 40.3145 35.3675 38.3792 35.045 37.9491C34.7224 37.519 33.5398 37.4115 32.5721 37.304C31.6045 37.1965 32.142 36.0138 32.3571 35.9063C32.5291 35.8203 33.2172 34.9386 33.5398 34.5086C33.7548 33.9351 34.6794 32.7023 36.6577 32.3582C38.636 32.0142 40.5642 33.29 41.281 33.971C41.3168 34.6878 41.1949 36.1858 40.4208 36.4439C39.4532 36.7664 39.7757 37.519 39.3457 37.9491Z" fill="black"/>
<path d="M25.5833 28.3802C26.5294 28.3802 27.196 29.3837 27.411 29.8854C27.1243 30.2438 26.4004 31.0251 25.7983 31.2832C25.0457 31.6057 24.1855 30.3155 24.1855 29.6704C24.1855 29.0253 24.4006 28.3802 25.5833 28.3802Z" fill="white"/>
<path d="M48.2693 26.9825C48.2693 27.4126 47.6242 27.8785 47.3016 28.0577C46.9791 28.0577 46.2694 27.9717 46.0114 27.6276C45.6889 27.1975 46.334 26.9825 47.0866 26.6599C47.8392 26.3374 48.2693 26.4449 48.2693 26.9825Z" fill="white"/>
<path d="M39.0375 38.2722C38.5265 38.8226 37.6507 39.801 37.1937 40.3151C36.7034 40.3151 36.3055 39.9825 35.9847 39.5624C36.5669 38.6665 37.3012 36.7455 35.581 36.2294C33.8607 35.7134 32.5616 36.5919 32.127 37.0957C31.9413 36.8648 32.0089 36.4965 32.127 36.2294C32.9916 35.9427 34.8284 35.3263 35.2584 35.1543C35.796 34.9392 37.1937 34.0791 37.6238 34.0791C38.0539 34.0791 38.0539 34.2941 38.699 35.1543C39.215 35.8424 38.914 36.1578 38.699 36.2294C37.6668 36.9175 38.4946 37.878 39.0375 38.2722Z" fill="#F47270"/>
<path d="M26.8735 22.0371C27.9057 21.607 26.9452 20.8003 26.3359 20.4507C32.0398 18.0206 37.6042 17.9963 42.1171 18.9191C40.8706 19.7075 38.5498 21.435 39.2379 22.0371C39.926 22.6391 38.6645 24.3666 37.9477 25.155L39.7755 24.0799C38.772 26.3377 36.636 30.4663 36.1199 28.9181C35.6039 27.3699 32.321 26.266 30.7441 25.9076L32.6794 25.155C30.314 24.2949 25.8414 22.4671 26.8735 22.0371Z" fill="#F2C292"/>
</g>
</svg>
