<svg width="33" height="44" viewBox="0 0 33 44" fill="none" xmlns="http://www.w3.org/2000/svg">
<path d="M0 5.50009C0 4.04137 0.579462 2.64241 1.61091 1.61094C2.64236 0.579472 4.04131 0 5.5 0L27.5 0C28.9587 0 30.3576 0.579472 31.3891 1.61094C32.4205 2.64241 33 4.04137 33 5.50009V42.6257C32.9999 42.8744 32.9323 43.1184 32.8044 43.3318C32.6766 43.5451 32.4933 43.7198 32.274 43.8372C32.0547 43.9546 31.8077 44.0103 31.5593 43.9984C31.3109 43.9865 31.0703 43.9075 30.8632 43.7697L16.5 36.0283L2.13675 43.7697C1.92969 43.9075 1.68913 43.9865 1.4407 43.9984C1.19227 44.0103 0.945266 43.9546 0.725999 43.8372C0.506731 43.7198 0.323411 43.5451 0.195564 43.3318C0.0677161 43.1184 0.000128481 42.8744 0 42.6257V5.50009ZM5.5 2.75004C4.77065 2.75004 4.07118 3.03978 3.55546 3.55551C3.03973 4.07125 2.75 4.77073 2.75 5.50009V40.0571L15.7382 33.2315C15.9639 33.0814 16.2289 33.0012 16.5 33.0012C16.7711 33.0012 17.0361 33.0814 17.2618 33.2315L30.25 40.0571V5.50009C30.25 4.77073 29.9603 4.07125 29.4445 3.55551C28.9288 3.03978 28.2293 2.75004 27.5 2.75004H5.5Z" fill="black"/>
</svg>
