<svg width="40" height="40" viewBox="0 0 40 40" fill="none" xmlns="http://www.w3.org/2000/svg">
<path d="M5 11.6664V6.6664C5 6.22444 5.17557 5.80059 5.48808 5.48808C5.80059 5.17557 6.22444 5 6.6664 5H11.6664M35 11.6664V6.6664C35 6.22444 34.8244 5.80059 34.5119 5.48808C34.1994 5.17557 33.7756 5 33.3336 5H28.3336M5 28.3336V33.3336C5 33.7756 5.17557 34.1994 5.48808 34.5119C5.80059 34.8244 6.22444 35 6.6664 35H11.6664M35 28.3336V33.3336C35 33.7756 34.8244 34.1994 34.5119 34.5119C34.1994 34.8244 33.7756 35 33.3336 35H28.3336" stroke="#02FFCF" stroke-width="2" stroke-linecap="round" stroke-linejoin="round"/>
<path fill-rule="evenodd" clip-rule="evenodd" d="M15.7379 12.1876C15.9707 11.8223 16.2862 11.5228 16.6563 11.3156C17.0264 11.1084 17.4397 11 17.8595 11H21.1405C21.5603 11 21.9736 11.1084 22.3437 11.3156C22.7138 11.5228 23.0293 11.8223 23.2621 12.1876L23.9523 13.2711C24.0299 13.3928 24.1351 13.4926 24.2585 13.5616C24.3819 13.6306 24.5196 13.6667 24.6595 13.6667H25.45C26.1263 13.6667 26.7749 13.9476 27.2531 14.4477C27.7313 14.9478 28 15.6261 28 16.3333V24.3333C28 25.0406 27.7313 25.7189 27.2531 26.219C26.7749 26.719 26.1263 27 25.45 27H13.55C12.8737 27 12.2251 26.719 11.7469 26.219C11.2687 25.7189 11 25.0406 11 24.3333V16.3333C11 15.6261 11.2687 14.9478 11.7469 14.4477C12.2251 13.9476 12.8737 13.6667 13.55 13.6667H14.3405C14.4804 13.6667 14.6181 13.6306 14.7415 13.5616C14.8649 13.4926 14.9701 13.3928 15.0477 13.2711L15.7379 12.1876ZM17.8 19.8889C17.8 19.4174 17.9791 18.9652 18.2979 18.6318C18.6167 18.2984 19.0491 18.1111 19.5 18.1111C19.9509 18.1111 20.3833 18.2984 20.7021 18.6318C21.0209 18.9652 21.2 19.4174 21.2 19.8889C21.2 20.3604 21.0209 20.8126 20.7021 21.146C20.3833 21.4794 19.9509 21.6667 19.5 21.6667C19.0491 21.6667 18.6167 21.4794 18.2979 21.146C17.9791 20.8126 17.8 20.3604 17.8 19.8889ZM19.5 16.3333C18.5983 16.3333 17.7335 16.7079 17.0958 17.3747C16.4582 18.0415 16.1 18.9459 16.1 19.8889C16.1 20.8319 16.4582 21.7363 17.0958 22.403C17.7335 23.0698 18.5983 23.4444 19.5 23.4444C20.4017 23.4444 21.2665 23.0698 21.9042 22.403C22.5418 21.7363 22.9 20.8319 22.9 19.8889C22.9 18.9459 22.5418 18.0415 21.9042 17.3747C21.2665 16.7079 20.4017 16.3333 19.5 16.3333Z" fill="#02FFCF"/>
</svg>
