<svg width="34" height="34" viewBox="0 0 34 34" fill="none" xmlns="http://www.w3.org/2000/svg">
<path d="M16.9967 0.330078C19.0033 0.330078 20.9267 0.685078 22.7083 1.33341L20.7167 3.32341C17.7025 2.50381 14.502 2.70311 11.6129 3.89032C8.72368 5.07753 6.30774 7.18612 4.74072 9.8882C3.1737 12.5903 2.54341 15.7344 2.94787 18.8317C3.35232 21.929 4.76886 24.8059 6.9772 27.0149C9.18554 29.224 12.0619 30.6415 15.1591 31.047C18.2562 31.4525 21.4006 30.8233 24.1032 29.2572C26.8058 27.691 28.9152 25.2758 30.1034 22.387C31.2915 19.4983 31.4919 16.2978 30.6733 13.2834L32.6633 11.2934C33.3284 13.1225 33.668 15.0539 33.6667 17.0001C33.6667 26.2067 26.2033 33.6701 16.9967 33.6701C7.78999 33.6701 0.32666 26.2067 0.32666 17.0001C0.32666 7.79341 7.78999 0.330078 16.9967 0.330078ZM16.9967 7.00008C17.8411 6.99951 18.6823 7.10591 19.5 7.31674V9.92841C17.8962 9.36102 16.1472 9.35571 14.5401 9.91335C12.9329 10.471 11.563 11.5584 10.6553 12.9972C9.74766 14.436 9.35607 16.1406 9.54486 17.8313C9.73364 19.5219 10.4916 21.0982 11.6943 22.3013C12.8969 23.5044 14.4729 24.2629 16.1635 24.4523C17.8541 24.6417 19.5589 24.2508 20.998 23.3436C22.4371 22.4364 23.525 21.067 24.0832 19.46C24.6415 17.853 24.6368 16.104 24.07 14.5001H26.6817C27.2031 16.5194 27.08 18.6513 26.3298 20.5972C25.5796 22.5432 24.2397 24.2059 22.4977 25.3527C20.7557 26.4994 18.6988 27.0729 16.6148 26.9927C14.5307 26.9125 12.5239 26.1827 10.8752 24.9055C9.22642 23.6283 8.01827 21.8676 7.41979 19.8697C6.8213 17.8719 6.86244 15.7369 7.53745 13.7635C8.21245 11.7902 9.48754 10.0773 11.1843 8.86457C12.881 7.65182 14.9144 6.99991 17 7.00008M20.3333 17.0001C20.3331 17.7165 20.102 18.4138 19.6744 18.9886C19.2468 19.5634 18.6453 19.9852 17.9592 20.1913C17.2731 20.3975 16.5388 20.3771 15.8651 20.1332C15.1915 19.8893 14.6144 19.4348 14.2193 18.8372C13.8242 18.2395 13.6322 17.5305 13.6717 16.8152C13.7113 16.0998 13.9802 15.4162 14.4387 14.8657C14.8972 14.3152 15.5209 13.9271 16.2173 13.7589C16.9137 13.5906 17.6457 13.6513 18.305 13.9317L21.1717 11.0651L21.1667 5.75008C21.167 5.41867 21.2988 5.10094 21.5333 4.86674L25.7 0.700078C25.8748 0.525484 26.0974 0.40661 26.3398 0.358469C26.5821 0.310329 26.8333 0.335081 27.0615 0.4296C27.2898 0.524119 27.4849 0.684165 27.6223 0.889524C27.7597 1.09488 27.8331 1.33634 27.8333 1.58341V6.16674H32.4167C32.6637 6.16696 32.9052 6.24039 33.1105 6.37776C33.3159 6.51512 33.476 6.71027 33.5705 6.93854C33.665 7.16681 33.6897 7.41797 33.6416 7.66031C33.5935 7.90264 33.4746 8.12527 33.3 8.30008L29.1333 12.4667C28.8991 12.7012 28.5814 12.8331 28.25 12.8334H22.9333L20.0667 15.7001C20.2367 16.1001 20.33 16.5384 20.33 17.0001M27.7317 10.3334L29.3983 8.66675H26.5817C26.2501 8.66675 25.9322 8.53505 25.6978 8.30063C25.4634 8.06621 25.3317 7.74827 25.3317 7.41674V4.60008L23.6667 6.26674V10.2351L23.765 10.3351L27.7317 10.3334Z" fill="#02FFCF"/>
</svg>
