<svg width="40" height="44" viewBox="0 0 40 44" fill="none" xmlns="http://www.w3.org/2000/svg">
<g opacity="0.9">
<path d="M24.2858 0.857178H15.7144C14.6098 0.857178 13.7144 1.75261 13.7144 2.85718V11.4286C13.7144 12.5332 14.6098 13.4286 15.7144 13.4286H24.2858C25.3904 13.4286 26.2858 12.5332 26.2858 11.4286V2.85718C26.2858 1.75261 25.3904 0.857178 24.2858 0.857178Z" fill="#02FFCF"/>
<path d="M24.2858 30.5715H15.7144C14.6098 30.5715 13.7144 31.467 13.7144 32.5715V41.143C13.7144 42.2475 14.6098 43.143 15.7144 43.143H24.2858C25.3904 43.143 26.2858 42.2475 26.2858 41.143V32.5715C26.2858 31.467 25.3904 30.5715 24.2858 30.5715Z" fill="#02FFCF"/>
<path d="M8.20669 29.3105H2C0.89543 29.3105 0 30.206 0 31.3105V37.5172C0 38.6218 0.89543 39.5172 2 39.5172H8.20669C9.31126 39.5172 10.2067 38.6218 10.2067 37.5172V31.3105C10.2067 30.206 9.31126 29.3105 8.20669 29.3105Z" fill="#02FFCF"/>
<path d="M38.0001 29.3105H31.7935C30.6889 29.3105 29.7935 30.206 29.7935 31.3105V37.5172C29.7935 38.6218 30.6889 39.5172 31.7935 39.5172H38.0001C39.1047 39.5172 40.0001 38.6218 40.0001 37.5172V31.3105C40.0001 30.206 39.1047 29.3105 38.0001 29.3105Z" fill="#02FFCF"/>
<path d="M6.33523 24.2414C6.33523 23.6892 6.78295 23.2414 7.33523 23.2414H17.9655C18.5178 23.2414 18.9655 23.6892 18.9655 24.2414V26.931C18.9655 27.4833 19.4132 27.931 19.9655 27.931H20.0345C20.5868 27.931 21.0345 27.4833 21.0345 26.931V24.2414C21.0345 23.6892 21.4822 23.2414 22.0345 23.2414H32.9747C33.527 23.2414 33.9747 23.6892 33.9747 24.2414V27.1746C33.9747 27.6837 34.3875 28.0965 34.8967 28.0965C35.4058 28.0965 35.8186 27.6837 35.8186 27.1746V21.6609C35.8186 21.4065 35.6123 21.2002 35.3578 21.2002H34.9109C34.9033 21.2002 34.8971 21.194 34.8971 21.1863C34.8971 21.1787 34.8909 21.1725 34.8832 21.1725H22.0345C21.4822 21.1725 21.0345 20.7247 21.0345 20.1725V17.4829C21.0345 16.9306 20.5868 16.4829 20.0345 16.4829H19.9655C19.4132 16.4829 18.9655 16.9306 18.9655 17.4829V20.1725C18.9655 20.7247 18.5178 21.1725 17.9655 21.1725H5.11764C5.10998 21.1725 5.10378 21.1787 5.10378 21.1863C5.10378 21.194 5.09757 21.2002 5.08992 21.2002H4.79798C4.6291 21.2002 4.49219 21.3371 4.49219 21.506V27.175C4.49219 27.6839 4.90477 28.0965 5.41371 28.0965C5.92265 28.0965 6.33523 27.6839 6.33523 27.175V24.2414Z" fill="#02FFCF"/>
<path d="M24 7.14279C24 7.14279 22.2116 9.99993 20 9.99993C17.7887 9.99993 16 7.14279 16 7.14279C16 7.14279 17.7884 4.28564 20 4.28564C22.2116 4.28564 24 7.14279 24 7.14279ZM20 5.71404C19.6969 5.71404 19.4061 5.86457 19.1918 6.13251C18.9774 6.40045 18.857 6.76386 18.857 7.14279C18.857 7.52171 18.9774 7.88512 19.1918 8.15306C19.4061 8.421 19.6969 8.57153 20 8.57153C20.3031 8.57153 20.5939 8.421 20.8082 8.15306C21.0226 7.88512 21.143 7.52171 21.143 7.14279C21.143 6.76386 21.0226 6.40045 20.8082 6.13251C20.5939 5.86457 20.3031 5.71404 20 5.71404Z" stroke="black" stroke-width="0.8" stroke-linecap="round" stroke-linejoin="round"/>
<path d="M24 34V35.8559H23.7635C23.6234 35.4277 23.468 35.1209 23.2972 34.9355C23.1264 34.7467 22.8922 34.5967 22.5944 34.4855C22.428 34.4248 22.1368 34.3944 21.7209 34.3944H21.0575V39.6839C21.0575 40.0346 21.0816 40.2537 21.1297 40.3413C21.1823 40.429 21.2808 40.5065 21.4253 40.574C21.5742 40.638 21.7756 40.67 22.0296 40.67H22.3251V40.8571H17.6617V40.67H17.9573C18.2157 40.67 18.4236 40.6346 18.5813 40.5638C18.6951 40.5166 18.7849 40.4357 18.8506 40.3211C18.8987 40.2402 18.9228 40.0278 18.9228 39.6839V34.3944H18.2791C17.6793 34.3944 17.2436 34.4922 16.9721 34.6877C16.5911 34.9608 16.3503 35.3502 16.2496 35.8559H16V34H24Z" fill="black"/>
</g>
</svg>
