<svg width="38" height="40" viewBox="0 0 38 40" fill="none" xmlns="http://www.w3.org/2000/svg">
<g clip-path="url(#clip0_8_4945)">
<path d="M35.3332 21.3333H20.6665C19.5619 21.3333 18.6665 22.2287 18.6665 23.3332V37.9999C18.6665 39.1045 19.5619 39.9999 20.6665 39.9999H35.3332C36.4377 39.9999 37.3332 39.1045 37.3332 37.9999V23.3333C37.3332 22.2287 36.4377 21.3333 35.3332 21.3333Z" fill="#02FFCF"/>
<path d="M33.3332 26.6667V29.1928H33.0179C32.8311 28.61 32.6238 28.1925 32.3961 27.9401C32.1684 27.6831 31.8561 27.4789 31.4591 27.3275C31.2372 27.2449 30.849 27.2036 30.2943 27.2036H29.4098V34.4032C29.4098 34.8804 29.4419 35.1787 29.5061 35.298C29.5762 35.4173 29.7076 35.5229 29.9002 35.6146C30.0987 35.7018 30.3673 35.7454 30.7059 35.7454H31.1V36.0001H24.8822V35.7454H25.2762C25.6207 35.7454 25.898 35.6972 26.1082 35.6009C26.26 35.5366 26.3797 35.4265 26.4673 35.2705C26.5315 35.1604 26.5636 34.8713 26.5636 34.4032V27.2036H25.7054C24.9055 27.2036 24.3246 27.3367 23.9626 27.6028C23.4547 27.9745 23.1336 28.5045 22.9993 29.1928H22.6665V26.6667H33.3332Z" fill="black"/>
<path d="M0 2.66667C0 1.95942 0.280952 1.28115 0.781049 0.781049C1.28115 0.280952 1.95942 0 2.66667 0H16C16.7072 0 17.3855 0.280952 17.8856 0.781049C18.3857 1.28115 18.6667 1.95942 18.6667 2.66667V16C18.6667 16.7072 18.3857 17.3855 17.8856 17.8856C17.3855 18.3857 16.7072 18.6667 16 18.6667H2.66667C1.95942 18.6667 1.28115 18.3857 0.781049 17.8856C0.280952 17.3855 0 16.7072 0 16V2.66667ZM1.33333 14.6667V16C1.33333 16.3536 1.47381 16.6928 1.72386 16.9428C1.97391 17.1929 2.31304 17.3333 2.66667 17.3333H16C16.3536 17.3333 16.6928 17.1929 16.9428 16.9428C17.1929 16.6928 17.3333 16.3536 17.3333 16V11.3333L13.9974 8.73733C13.8724 8.6747 13.7308 8.65297 13.5927 8.67522C13.4547 8.69748 13.3271 8.76258 13.2281 8.86133L9.248 13.808L5.70133 11.4453C5.57328 11.3601 5.41968 11.3217 5.26658 11.3368C5.11349 11.3519 4.97031 11.4194 4.86133 11.528L1.33333 14.6667ZM8 6C8 5.46957 7.78929 4.96086 7.41421 4.58579C7.03914 4.21071 6.53043 4 6 4C5.46957 4 4.96086 4.21071 4.58579 4.58579C4.21071 4.96086 4 5.46957 4 6C4 6.53043 4.21071 7.03914 4.58579 7.41421C4.96086 7.78929 5.46957 8 6 8C6.53043 8 7.03914 7.78929 7.41421 7.41421C7.78929 7.03914 8 6.53043 8 6Z" fill="#02FFCF"/>
<path fill-rule="evenodd" clip-rule="evenodd" d="M20 10.6666C20 9.93021 20.597 9.33325 21.3333 9.33325H29.3333V18.6666C29.3333 19.403 28.7364 19.9999 28 19.9999C27.2636 19.9999 26.6667 19.403 26.6667 18.6666V11.9999H21.3333C20.597 11.9999 20 11.403 20 10.6666Z" fill="#02FFCF"/>
</g>
<defs>
<clipPath id="clip0_8_4945">
<rect width="37.3333" height="40" fill="white"/>
</clipPath>
</defs>
</svg>
