<svg width="30" height="30" viewBox="0 0 30 30" fill="none" xmlns="http://www.w3.org/2000/svg">
<path fill-rule="evenodd" clip-rule="evenodd" d="M0.833496 14.9999C0.833496 11.2427 2.32605 7.63934 4.98282 4.98257C7.63958 2.32581 11.2429 0.833252 15.0002 0.833252C18.7574 0.833252 22.3607 2.32581 25.0175 4.98257C27.6743 7.63934 29.1668 11.2427 29.1668 14.9999C29.1668 18.7572 27.6743 22.3605 25.0175 25.0173C22.3607 27.674 18.7574 29.1666 15.0002 29.1666C11.2429 29.1666 7.63958 27.674 4.98282 25.0173C2.32605 22.3605 0.833496 18.7572 0.833496 14.9999ZM16.2502 6.66658C16.2502 6.33506 16.1185 6.01712 15.884 5.7827C15.6496 5.54828 15.3317 5.41658 15.0002 5.41658C14.6686 5.41658 14.3507 5.54828 14.1163 5.7827C13.8819 6.01712 13.7502 6.33506 13.7502 6.66658V14.9999C13.7501 15.2118 13.8039 15.4203 13.9065 15.6057C14.0091 15.7912 14.1572 15.9475 14.3368 16.0599L19.3368 19.1849C19.618 19.3608 19.9575 19.4179 20.2806 19.3435C20.4407 19.3067 20.5919 19.2387 20.7256 19.1434C20.8594 19.0481 20.9731 18.9275 21.0602 18.7883C21.1473 18.649 21.2061 18.4941 21.2333 18.3321C21.2605 18.1702 21.2556 18.0045 21.2187 17.8444C21.1819 17.6844 21.1139 17.5332 21.0186 17.3995C20.9234 17.2657 20.8027 17.152 20.6635 17.0649L16.2502 14.3066V6.66658Z" fill="#02FFCF"/>
</svg>
