<svg width="40" height="40" viewBox="0 0 40 40" fill="none" xmlns="http://www.w3.org/2000/svg">
<path d="M17.1283 27.5251C17.1366 27.3418 17.4383 27.2684 17.5283 27.4284C17.9516 28.1784 18.6716 29.2801 19.4883 29.7818C20.3049 30.2834 21.6149 30.4251 22.4749 30.4618C22.6583 30.4701 22.7299 30.7718 22.5699 30.8618C21.8199 31.2851 20.7199 32.0051 20.2183 32.8218C19.7166 33.6384 19.5749 34.9484 19.5383 35.8084C19.5299 35.9918 19.2266 36.0634 19.1383 35.9034C18.7149 35.1534 17.9949 34.0534 17.1766 33.5518C16.3599 33.0501 15.0499 32.9084 14.1916 32.8718C14.0083 32.8634 13.9349 32.5601 14.0949 32.4718C14.8449 32.0484 15.9466 31.3284 16.4483 30.5101C16.9483 29.6934 17.0916 28.3834 17.1283 27.5251Z" fill="#02FFCF"/>
<path d="M30.8202 25.8582C30.8052 25.6749 30.4869 25.5982 30.3902 25.7549C30.1036 26.2266 29.6902 26.7932 29.2286 27.0766C28.7669 27.3599 28.0752 27.4699 27.5252 27.5132C27.3419 27.5266 27.2652 27.8466 27.4219 27.9416C27.8919 28.2282 28.4602 28.6416 28.7436 29.1032C29.0269 29.5649 29.1369 30.2582 29.1802 30.8082C29.1936 30.9916 29.5136 31.0666 29.6086 30.9099C29.8952 30.4399 30.3086 29.8716 30.7702 29.5899C31.2319 29.3082 31.9252 29.1949 32.4752 29.1532C32.6586 29.1382 32.7336 28.8199 32.5769 28.7232C32.1069 28.4366 31.5386 28.0232 31.2569 27.5616C30.9752 27.0999 30.8619 26.4082 30.8202 25.8582Z" fill="#02FFCF"/>
<mask id="path-3-inside-1_8_4952" fill="white">
<path d="M24.5048 6.67007L24.1015 6.16007C22.5398 4.1884 21.7598 3.20174 20.8515 3.34674C19.9448 3.4934 19.5098 4.6734 18.6415 7.03507L18.4165 7.64507C18.1698 8.31674 18.0465 8.65174 17.8098 8.8984C17.5732 9.14507 17.2498 9.2734 16.6032 9.53174L16.0148 9.76674L15.6032 9.9334C13.6032 10.7334 12.5965 11.1884 12.4665 12.0717C12.3298 13.0134 13.2832 13.8201 15.1898 15.4317L15.6832 15.8484C16.2265 16.3067 16.4965 16.5367 16.6515 16.8484C16.8082 17.1601 16.8298 17.5201 16.8732 18.2401L16.9132 18.8951C17.0698 21.4284 17.1465 22.6951 17.9715 23.1317C18.7948 23.5684 19.8182 22.8867 21.8648 21.5217L22.3948 21.1684C22.9765 20.7801 23.2665 20.5851 23.5998 20.5334C23.9332 20.4817 24.2682 20.5734 24.9432 20.7601L25.5548 20.9301C27.9265 21.5867 29.1115 21.9151 29.7565 21.2434C30.4032 20.5717 30.0815 19.3434 29.4398 16.8884L29.2732 16.2534C29.0915 15.5551 28.9998 15.2067 29.0498 14.8617C29.0998 14.5167 29.2865 14.2134 29.6598 13.6084L29.9982 13.0584C31.3065 10.9317 31.9615 9.8684 31.5382 9.01507C31.1132 8.16507 29.8915 8.08674 27.4482 7.93507L26.8148 7.89507C26.1215 7.85174 25.7748 7.83007 25.4732 7.67007C25.1715 7.51007 24.9498 7.23007 24.5065 6.67007"/>
</mask>
<path d="M24.1015 6.16007L25.6702 4.91945L25.6693 4.91829L24.1015 6.16007ZM20.8515 3.34674L20.5362 1.37174L20.5321 1.3724L20.8515 3.34674ZM18.6415 7.03507L20.5179 7.7272L20.5186 7.72525L18.6415 7.03507ZM18.4165 7.64507L16.5401 6.95294L16.5391 6.9556L18.4165 7.64507ZM16.6032 9.53174L17.345 11.3891L17.3451 11.389L16.6032 9.53174ZM16.0148 9.76674L15.2729 7.9094L15.2643 7.91291L16.0148 9.76674ZM15.6032 9.9334L16.346 11.7904L16.3537 11.7872L15.6032 9.9334ZM12.4665 12.0717L10.4878 11.7805L10.4872 11.7845L12.4665 12.0717ZM15.1898 15.4317L13.8987 16.9592L13.8993 16.9597L15.1898 15.4317ZM15.6832 15.8484L14.3927 17.3763L14.3936 17.3771L15.6832 15.8484ZM16.6515 16.8484L14.8607 17.739L14.8646 17.7466L16.6515 16.8484ZM16.8732 18.2401L14.8768 18.3602L14.8769 18.362L16.8732 18.2401ZM16.9132 18.8951L14.9169 19.017L14.917 19.0185L16.9132 18.8951ZM17.9715 23.1317L18.9086 21.3649L18.9071 21.3641L17.9715 23.1317ZM21.8648 21.5217L20.7554 19.8576L20.7551 19.8578L21.8648 21.5217ZM22.3948 21.1684L23.5042 22.8325L23.5053 22.8318L22.3948 21.1684ZM24.9432 20.7601L25.4787 18.8331L25.4762 18.8324L24.9432 20.7601ZM25.5548 20.9301L25.0193 22.857L25.0212 22.8575L25.5548 20.9301ZM29.7565 21.2434L28.3157 19.8563L28.3139 19.8581L29.7565 21.2434ZM29.4398 16.8884L31.3748 16.3826L31.3743 16.3807L29.4398 16.8884ZM29.2732 16.2534L27.3376 16.7569L27.3387 16.7611L29.2732 16.2534ZM29.6598 13.6084L31.3619 14.6587L31.3633 14.6563L29.6598 13.6084ZM29.9982 13.0584L28.2947 12.0104L28.2947 12.0105L29.9982 13.0584ZM31.5382 9.01507L33.3298 8.12624L33.327 8.12064L31.5382 9.01507ZM27.4482 7.93507L27.3221 9.93109L27.3243 9.93123L27.4482 7.93507ZM26.8148 7.89507L26.9409 5.89905L26.9396 5.89896L26.8148 7.89507ZM26.0735 5.42945L25.6702 4.91945L22.5328 7.40069L22.9361 7.91069L26.0735 5.42945ZM25.6693 4.91829C24.9303 3.98533 24.2391 3.10376 23.6036 2.50453C22.965 1.90239 21.9325 1.14886 20.5362 1.37174L21.1668 5.32173C20.6789 5.39962 20.4905 5.06691 20.8594 5.41478C21.2314 5.76555 21.711 6.36314 22.5337 7.40185L25.6693 4.91829ZM20.5321 1.3724C19.1387 1.59781 18.3936 2.63454 17.9747 3.40548C17.5575 4.17341 17.1756 5.22637 16.7644 6.34489L20.5186 7.72525C20.9757 6.4821 21.2455 5.76423 21.4895 5.31507C21.7319 4.86893 21.6576 5.24233 21.1709 5.32107L20.5321 1.3724ZM16.7651 6.34295L16.5401 6.95294L20.2929 8.33719L20.5179 7.7272L16.7651 6.34295ZM16.5391 6.9556C16.476 7.12751 16.4277 7.25865 16.3845 7.37089C16.3414 7.48274 16.3126 7.55133 16.2922 7.5959C16.2553 7.67605 16.2772 7.60697 16.3667 7.51375L19.253 10.2831C19.8476 9.66335 20.1079 8.84098 20.2939 8.33454L16.5391 6.9556ZM16.3667 7.51375C16.4603 7.41613 16.5358 7.38701 16.4689 7.42028C16.4297 7.43981 16.3668 7.46855 16.2601 7.51312C16.1528 7.55795 16.0277 7.60795 15.8612 7.67445L17.3451 11.389C17.8245 11.1975 18.6469 10.9148 19.253 10.2831L16.3667 7.51375ZM15.8613 7.67442L15.273 7.90942L16.7567 11.6241L17.345 11.3891L15.8613 7.67442ZM15.2643 7.91291L14.8526 8.07957L16.3537 11.7872L16.7654 11.6206L15.2643 7.91291ZM14.8604 8.07645C13.9055 8.45841 12.9724 8.83791 12.2725 9.27601C11.5251 9.74382 10.6753 10.5065 10.4878 11.7805L14.4452 12.3629C14.3877 12.7537 14.1063 12.8472 14.3947 12.6666C14.7306 12.4564 15.3008 12.2084 16.3459 11.7904L14.8604 8.07645ZM10.4872 11.7845C10.292 13.1297 10.966 14.148 11.5623 14.8238C12.1423 15.4811 12.9958 16.1959 13.8987 16.9592L16.4809 13.9043C15.4772 13.0559 14.9007 12.5615 14.5616 12.1772C14.2387 11.8113 14.5043 11.9555 14.4458 12.359L10.4872 11.7845ZM13.8993 16.9597L14.3927 17.3763L16.9737 14.3205L16.4803 13.9038L13.8993 16.9597ZM14.3936 17.3771C14.532 17.4939 14.6376 17.5832 14.7268 17.661C14.8158 17.7386 14.8694 17.7885 14.9035 17.8224C14.9631 17.8815 14.9122 17.8424 14.8607 17.739L18.4423 15.9578C18.061 15.1912 17.3937 14.6748 16.9727 14.3197L14.3936 17.3771ZM14.8646 17.7466C14.8112 17.6404 14.8113 17.5758 14.8239 17.6663C14.8309 17.7168 14.8388 17.7925 14.848 17.9135C14.8572 18.0349 14.8657 18.1758 14.8768 18.3602L18.8696 18.1199C18.8365 17.5706 18.823 16.7152 18.4384 15.9502L14.8646 17.7466ZM14.8769 18.362L14.9169 19.017L18.9094 18.7732L18.8694 18.1182L14.8769 18.362ZM14.917 19.0185C14.9913 20.2196 15.0553 21.3424 15.2329 22.2036C15.4118 23.071 15.8157 24.2536 17.0359 24.8994L18.9071 21.3641C19.3023 21.5732 19.2554 21.9042 19.1505 21.3957C19.0443 20.8811 18.9917 20.1039 18.9094 18.7716L14.917 19.0185ZM17.0344 24.8986C18.2834 25.561 19.4943 25.1927 20.3043 24.8151C21.0909 24.4485 22.0091 23.8295 22.9745 23.1856L20.7551 19.8578C19.6739 20.579 19.0571 20.9833 18.6145 21.1896C18.1953 21.385 18.4829 21.1391 18.9086 21.3649L17.0344 24.8986ZM22.9742 23.1858L23.5042 22.8325L21.2854 19.5043L20.7554 19.8576L22.9742 23.1858ZM23.5053 22.8318C23.6553 22.7317 23.7679 22.6565 23.8661 22.593C23.9639 22.53 24.0233 22.4943 24.0612 22.4732C24.1273 22.4366 24.0529 22.4871 23.9062 22.5098L23.2935 18.557C22.4198 18.6924 21.7067 19.2231 21.2843 19.505L23.5053 22.8318ZM23.9062 22.5098C23.7723 22.5306 23.6954 22.508 23.7707 22.5223C23.8142 22.5306 23.8823 22.5459 23.9944 22.5749C24.1068 22.604 24.2375 22.64 24.4101 22.6877L25.4762 18.8324C24.9697 18.6923 24.15 18.4242 23.2935 18.557L23.9062 22.5098ZM24.4076 22.687L25.0193 22.857L26.0904 19.0031L25.4787 18.8331L24.4076 22.687ZM25.0212 22.8575C26.1396 23.1672 27.2053 23.4682 28.0666 23.5708C28.953 23.6764 30.2193 23.6489 31.1991 22.6287L28.3139 19.8581C28.6487 19.5095 28.9999 19.6537 28.5397 19.5989C28.0544 19.5411 27.3417 19.3496 26.0885 19.0026L25.0212 22.8575ZM31.1973 22.6305C32.1545 21.6364 32.1689 20.3866 32.0683 19.5075C31.9684 18.6336 31.6792 17.5471 31.3748 16.3827L27.5048 17.3942C27.8421 18.6847 28.0346 19.4398 28.0942 19.9618C28.1533 20.4785 28.0052 20.1788 28.3157 19.8563L31.1973 22.6305ZM31.3743 16.3807L31.2076 15.7457L27.3387 16.7611L27.5054 17.3961L31.3743 16.3807ZM31.2087 15.7499C31.1621 15.5705 31.1264 15.4334 31.0972 15.3142C31.0682 15.1956 31.0519 15.1202 31.0426 15.0688C31.0258 14.976 31.0457 15.0343 31.0292 15.1486L27.0705 14.5749C26.9489 15.414 27.1994 16.2256 27.3376 16.7569L31.2087 15.7499ZM31.0292 15.1486C31.0122 15.2655 30.9751 15.3197 31.014 15.2437C31.0361 15.2004 31.0719 15.136 31.1326 15.034C31.1936 14.9315 31.2663 14.8135 31.3619 14.6587L27.9578 12.5581C27.672 13.0212 27.1937 13.7249 27.0705 14.5749L31.0292 15.1486ZM31.3633 14.6563L31.7017 14.1063L28.2947 12.0105L27.9563 12.5605L31.3633 14.6563ZM31.7016 14.1064C32.3209 13.0997 32.9089 12.1543 33.255 11.349C33.611 10.5208 33.9338 9.34364 33.3298 8.12625L29.7465 9.90389C29.5659 9.53983 29.7728 9.321 29.5801 9.76944C29.3775 10.2409 28.9837 10.8905 28.2947 12.0104L31.7016 14.1064ZM33.327 8.12064C32.7111 6.88871 31.562 6.45229 30.6762 6.25912C29.8263 6.07379 28.7257 6.01052 27.5721 5.93891L27.3243 9.93123C28.614 10.0113 29.3458 10.063 29.8239 10.1673C30.266 10.2637 29.9403 10.2914 29.7493 9.9095L33.327 8.12064ZM27.5742 5.93905L26.9409 5.89905L26.6888 9.89109L27.3221 9.93109L27.5742 5.93905ZM26.9396 5.89896C26.7616 5.88784 26.6275 5.87941 26.5124 5.87032C26.3978 5.86129 26.3293 5.85362 26.2863 5.84733C26.213 5.83663 26.2924 5.84071 26.4103 5.90321L24.536 9.43693C25.3073 9.846 26.172 9.85879 26.6901 9.89118L26.9396 5.89896ZM26.4103 5.90321C26.5257 5.96442 26.5687 6.02397 26.5087 5.95932C26.4754 5.92344 26.4267 5.86735 26.3509 5.7746C26.2748 5.68149 26.1882 5.57214 26.0746 5.42866L22.9384 7.91148C23.2713 8.33199 23.7765 9.03408 24.536 9.43693L26.4103 5.90321Z" fill="#02FFCF" mask="url(#path-3-inside-1_8_4952)"/>
<path d="M14.7251 22.2099C11.1634 23.9499 8.19839 26.7066 7.08005 29.9999C5.82672 22.1549 7.56672 17.0882 10.3551 13.9382C10.5951 14.4299 10.9084 14.8366 11.1884 15.1549C11.7717 15.8149 12.6084 16.5216 13.4584 17.2399L14.0701 17.7566L14.3534 17.9982C14.3617 18.1049 14.3701 18.2316 14.3784 18.3932L14.4284 19.2016C14.4951 20.2932 14.5617 21.3582 14.7251 22.2099Z" fill="#02FFCF"/>
</svg>
