<svg width="40" height="40" viewBox="0 0 40 40" fill="none" xmlns="http://www.w3.org/2000/svg">
<path fill-rule="evenodd" clip-rule="evenodd" d="M12.7552 24.8751C13.0523 25.6064 13.1092 26.4305 12.9158 27.2036C12.7225 27.9768 12.2912 28.6501 11.697 29.1064C11.1029 29.5626 10.3836 29.7728 9.6643 29.7004C8.94503 29.628 8.27141 29.2776 7.76073 28.7102C7.25006 28.1427 6.93468 27.3942 6.86952 26.5951C6.80437 25.7959 6.99356 24.9966 7.40415 24.3364C7.81475 23.6763 8.42073 23.1971 9.11657 22.9822C9.81242 22.7674 10.554 22.8306 11.2123 23.1607L14.8442 19.1252C14.6322 18.603 14.5412 18.0301 14.5798 17.4588C14.6183 16.8875 14.785 16.3361 15.0648 15.8548C15.3445 15.3736 15.7283 14.9779 16.1811 14.7039C16.6339 14.4299 17.1413 14.2863 17.6569 14.2863C18.1725 14.2863 18.6799 14.4299 19.1327 14.7039C19.5855 14.9779 19.9693 15.3736 20.249 15.8548C20.5287 16.3361 20.6955 16.8875 20.734 17.4588C20.7725 18.0301 20.6816 18.603 20.4695 19.1252L24.1015 23.1607C24.5005 22.9605 24.9334 22.857 25.3713 22.857C25.8091 22.857 26.242 22.9605 26.641 23.1607L31.8158 17.4109C31.5187 16.6795 31.4619 15.8554 31.6552 15.0823C31.8486 14.3091 32.2799 13.6358 32.874 13.1796C33.4681 12.7233 34.1875 12.5131 34.9067 12.5855C35.626 12.6579 36.2996 13.0083 36.8103 13.5758C37.321 14.1432 37.6363 14.8917 37.7015 15.6909C37.7666 16.4901 37.5775 17.2893 37.1669 17.9495C36.7563 18.6096 36.1503 19.0889 35.4544 19.3037C34.7586 19.5185 34.017 19.4554 33.3587 19.1252L28.1839 24.8751C28.396 25.3972 28.4869 25.9702 28.4484 26.5414C28.4099 27.1127 28.2431 27.6642 27.9634 28.1454C27.6836 28.6267 27.2998 29.0224 26.847 29.2964C26.3942 29.5704 25.8869 29.7139 25.3713 29.7139C24.8557 29.7139 24.3483 29.5704 23.8955 29.2964C23.4427 29.0224 23.0589 28.6267 22.7791 28.1454C22.4994 27.6642 22.3327 27.1127 22.2941 26.5414C22.2556 25.9702 22.3465 25.3972 22.5586 24.8751L18.9267 20.8395C18.5276 21.0397 18.0947 21.1433 17.6569 21.1433C17.219 21.1433 16.7862 21.0397 16.3871 20.8395L12.7552 24.8751Z" fill="#02FFCF"/>
<path d="M2.28564 6.28564V37.7142H37.7142" stroke="#02FFCF" stroke-width="2" stroke-linecap="round"/>
</svg>
