<svg width="40" height="40" viewBox="0 0 40 40" fill="none" xmlns="http://www.w3.org/2000/svg">
<path d="M37.5 12.5H2.5C1.1193 12.5 0 11.3807 0 10V5C0 3.6193 1.1193 2.5 2.5 2.5H37.5C38.8807 2.5 40 3.6193 40 5V10C40 11.3807 38.8807 12.5 37.5 12.5ZM33.75 5.625C32.7145 5.625 31.875 6.46445 31.875 7.5C31.875 8.53555 32.7145 9.375 33.75 9.375C34.7855 9.375 35.625 8.53555 35.625 7.5C35.625 6.46445 34.7855 5.625 33.75 5.625ZM28.75 5.625C27.7145 5.625 26.875 6.46445 26.875 7.5C26.875 8.53555 27.7145 9.375 28.75 9.375C29.7855 9.375 30.625 8.53555 30.625 7.5C30.625 6.46445 29.7855 5.625 28.75 5.625ZM37.5 25H2.5C1.1193 25 0 23.8807 0 22.5V17.5C0 16.1193 1.1193 15 2.5 15H37.5C38.8807 15 40 16.1193 40 17.5V22.5C40 23.8807 38.8807 25 37.5 25ZM33.75 18.125C32.7145 18.125 31.875 18.9645 31.875 20C31.875 21.0355 32.7145 21.875 33.75 21.875C34.7855 21.875 35.625 21.0355 35.625 20C35.625 18.9645 34.7855 18.125 33.75 18.125ZM28.75 18.125C27.7145 18.125 26.875 18.9645 26.875 20C26.875 21.0355 27.7145 21.875 28.75 21.875C29.7855 21.875 30.625 21.0355 30.625 20C30.625 18.9645 29.7855 18.125 28.75 18.125ZM37.5 37.5H2.5C1.1193 37.5 0 36.3807 0 35V30C0 28.6193 1.1193 27.5 2.5 27.5H37.5C38.8807 27.5 40 28.6193 40 30V35C40 36.3807 38.8807 37.5 37.5 37.5ZM33.75 30.625C32.7145 30.625 31.875 31.4645 31.875 32.5C31.875 33.5355 32.7145 34.375 33.75 34.375C34.7855 34.375 35.625 33.5355 35.625 32.5C35.625 31.4645 34.7855 30.625 33.75 30.625ZM28.75 30.625C27.7145 30.625 26.875 31.4645 26.875 32.5C26.875 33.5355 27.7145 34.375 28.75 34.375C29.7855 34.375 30.625 33.5355 30.625 32.5C30.625 31.4645 29.7855 30.625 28.75 30.625Z" fill="#02FFCF"/>
</svg>
