<svg width="47" height="47" viewBox="0 0 47 47" fill="none" xmlns="http://www.w3.org/2000/svg">
<g opacity="0.5">
<path d="M1 10.9996V3.4996C1 2.83667 1.26335 2.20088 1.73212 1.73212C2.20088 1.26335 2.83667 1 3.4996 1H10.9996M46 10.9996V3.4996C46 2.83667 45.7367 2.20088 45.2679 1.73212C44.7991 1.26335 44.1633 1 43.5004 1H36.0004M1 36.0004V43.5004C1 44.1633 1.26335 44.7991 1.73212 45.2679C2.20088 45.7367 2.83667 46 3.4996 46H10.9996M46 36.0004V43.5004C46 44.1633 45.7367 44.7991 45.2679 45.2679C44.7991 45.7367 44.1633 46 43.5004 46H36.0004" stroke="#02FFCF" stroke-width="2" stroke-linecap="round" stroke-linejoin="round"/>
<path fill-rule="evenodd" clip-rule="evenodd" d="M17.1068 11.7813C17.4561 11.2334 17.9293 10.7842 18.4845 10.4734C19.0396 10.1627 19.6596 10 20.2892 10H25.2108C25.8404 10 26.4604 10.1627 27.0155 10.4734C27.5707 10.7842 28.0439 11.2334 28.3932 11.7813L29.4285 13.4067C29.5449 13.5892 29.7027 13.7389 29.8877 13.8424C30.0728 13.9459 30.2794 14 30.4892 14H31.675C32.6895 14 33.6624 14.4214 34.3797 15.1716C35.097 15.9217 35.5 16.9391 35.5 18V30C35.5 31.0609 35.097 32.0783 34.3797 32.8284C33.6624 33.5786 32.6895 34 31.675 34H13.825C12.8105 34 11.8376 33.5786 11.1203 32.8284C10.403 32.0783 10 31.0609 10 30V18C10 16.9391 10.403 15.9217 11.1203 15.1716C11.8376 14.4214 12.8105 14 13.825 14H15.0107C15.2206 14 15.4272 13.9459 15.6123 13.8424C15.7973 13.7389 15.9551 13.5892 16.0715 13.4067L17.1068 11.7813ZM20.2 23.3333C20.2 22.6261 20.4687 21.9478 20.9469 21.4477C21.4251 20.9476 22.0737 20.6667 22.75 20.6667C23.4263 20.6667 24.0749 20.9476 24.5531 21.4477C25.0313 21.9478 25.3 22.6261 25.3 23.3333C25.3 24.0406 25.0313 24.7189 24.5531 25.219C24.0749 25.719 23.4263 26 22.75 26C22.0737 26 21.4251 25.719 20.9469 25.219C20.4687 24.7189 20.2 24.0406 20.2 23.3333ZM22.75 18C21.3974 18 20.1002 18.5619 19.1438 19.5621C18.1873 20.5623 17.65 21.9188 17.65 23.3333C17.65 24.7478 18.1873 26.1044 19.1438 27.1046C20.1002 28.1048 21.3974 28.6667 22.75 28.6667C24.1026 28.6667 25.3998 28.1048 26.3562 27.1046C27.3127 26.1044 27.85 24.7478 27.85 23.3333C27.85 21.9188 27.3127 20.5623 26.3562 19.5621C25.3998 18.5619 24.1026 18 22.75 18Z" fill="#02FFCF"/>
</g>
</svg>
