<svg width="21" height="25" viewBox="0 0 21 25" fill="none" xmlns="http://www.w3.org/2000/svg">
<path d="M4.53015 3.43218C6.64811 1.39034 9.18107 0.879883 10.2527 0.879883C11.3242 0.879883 13.9969 1.39034 16.1149 3.43218C16.5561 3.24987 17.5521 2.73941 18.0059 2.15603C17.5016 3.49295 15.5097 6.56786 11.5764 8.17216C11.4826 7.98053 11.0866 7.59727 10.2527 7.59727C9.41876 7.59727 9.16243 7.98053 9.06864 8.17216C5.13528 6.56786 3.14339 3.49295 2.63911 2.15603C3.09296 2.73941 4.08891 3.24987 4.53015 3.43218Z" fill="white"/>
<path d="M4.53015 3.43218C6.64811 1.39034 9.18107 0.879883 10.2527 0.879883C11.3242 0.879883 13.9969 1.39034 16.1149 3.43218C16.5561 3.24987 17.5521 2.73941 18.0059 2.15603C17.5016 3.49295 15.5097 6.56786 11.5764 8.17216C11.4826 7.98053 11.0866 7.59727 10.2527 7.59727C9.41876 7.59727 9.16243 7.98053 9.06864 8.17216C5.13528 6.56786 3.14339 3.49295 2.63911 2.15603C3.09296 2.73941 4.08891 3.24987 4.53015 3.43218Z" fill="url(#paint0_linear_8_246)"/>
<path d="M4.53015 3.43218C6.64811 1.39034 9.18107 0.879883 10.2527 0.879883C11.3242 0.879883 13.9969 1.39034 16.1149 3.43218C16.5561 3.24987 17.5521 2.73941 18.0059 2.15603C17.5016 3.49295 15.5097 6.56786 11.5764 8.17216C11.4826 7.98053 11.0866 7.59727 10.2527 7.59727C9.41876 7.59727 9.16243 7.98053 9.06864 8.17216C5.13528 6.56786 3.14339 3.49295 2.63911 2.15603C3.09296 2.73941 4.08891 3.24987 4.53015 3.43218Z" fill="url(#paint1_linear_8_246)" fill-opacity="0.3"/>
<path d="M5.75948 7.65406C6.35599 8.08764 7.69858 9.00572 8.29687 9.20932C7.15772 9.55336 5.05544 9.72396 5.75948 7.65406Z" fill="white"/>
<path d="M5.75948 7.65406C6.35599 8.08764 7.69858 9.00572 8.29687 9.20932C7.15772 9.55336 5.05544 9.72396 5.75948 7.65406Z" fill="url(#paint2_linear_8_246)"/>
<path d="M5.75948 7.65406C6.35599 8.08764 7.69858 9.00572 8.29687 9.20932C7.15772 9.55336 5.05544 9.72396 5.75948 7.65406Z" fill="url(#paint3_linear_8_246)" fill-opacity="0.3"/>
<path d="M3.38375 5.20806C3.6624 5.60866 4.31356 6.47772 4.68901 6.74918C4.08766 8.10178 3.7561 10.807 7.24071 10.807L7.15272 11.9805L4.57152 13.3944C5.78571 13.7494 8.42825 15.3697 9.2849 19.011L10.3128 22.4365L11.3593 19.011C12.2159 15.3697 14.8585 13.7494 16.0726 13.3944L13.4915 11.9805L13.4035 10.807C16.8881 10.807 16.5565 8.10178 15.9552 6.74918C16.3306 6.47772 16.9818 5.60866 17.2604 5.20806C18.3436 6.25229 18.4613 8.31066 18.3847 9.20932C18.3847 15.9932 19.6999 19.1624 20.3575 19.8989L17.5716 17.8469L15.6852 20.8499L13.4915 19.011L10.3128 24.1199L7.15272 19.011L4.95893 20.8499L3.07261 17.8469L0.286621 19.8989C0.944225 19.1624 2.25943 15.9932 2.25943 9.20932C2.18289 8.31066 2.30059 6.25229 3.38375 5.20806Z" fill="white"/>
<path d="M3.38375 5.20806C3.6624 5.60866 4.31356 6.47772 4.68901 6.74918C4.08766 8.10178 3.7561 10.807 7.24071 10.807L7.15272 11.9805L4.57152 13.3944C5.78571 13.7494 8.42825 15.3697 9.2849 19.011L10.3128 22.4365L11.3593 19.011C12.2159 15.3697 14.8585 13.7494 16.0726 13.3944L13.4915 11.9805L13.4035 10.807C16.8881 10.807 16.5565 8.10178 15.9552 6.74918C16.3306 6.47772 16.9818 5.60866 17.2604 5.20806C18.3436 6.25229 18.4613 8.31066 18.3847 9.20932C18.3847 15.9932 19.6999 19.1624 20.3575 19.8989L17.5716 17.8469L15.6852 20.8499L13.4915 19.011L10.3128 24.1199L7.15272 19.011L4.95893 20.8499L3.07261 17.8469L0.286621 19.8989C0.944225 19.1624 2.25943 15.9932 2.25943 9.20932C2.18289 8.31066 2.30059 6.25229 3.38375 5.20806Z" fill="url(#paint4_linear_8_246)"/>
<path d="M3.38375 5.20806C3.6624 5.60866 4.31356 6.47772 4.68901 6.74918C4.08766 8.10178 3.7561 10.807 7.24071 10.807L7.15272 11.9805L4.57152 13.3944C5.78571 13.7494 8.42825 15.3697 9.2849 19.011L10.3128 22.4365L11.3593 19.011C12.2159 15.3697 14.8585 13.7494 16.0726 13.3944L13.4915 11.9805L13.4035 10.807C16.8881 10.807 16.5565 8.10178 15.9552 6.74918C16.3306 6.47772 16.9818 5.60866 17.2604 5.20806C18.3436 6.25229 18.4613 8.31066 18.3847 9.20932C18.3847 15.9932 19.6999 19.1624 20.3575 19.8989L17.5716 17.8469L15.6852 20.8499L13.4915 19.011L10.3128 24.1199L7.15272 19.011L4.95893 20.8499L3.07261 17.8469L0.286621 19.8989C0.944225 19.1624 2.25943 15.9932 2.25943 9.20932C2.18289 8.31066 2.30059 6.25229 3.38375 5.20806Z" fill="url(#paint5_linear_8_246)" fill-opacity="0.3"/>
<path d="M14.8847 7.65406C14.2882 8.08764 12.9456 9.00572 12.3473 9.20932C13.4864 9.55336 15.5887 9.72396 14.8847 7.65406Z" fill="white"/>
<path d="M14.8847 7.65406C14.2882 8.08764 12.9456 9.00572 12.3473 9.20932C13.4864 9.55336 15.5887 9.72396 14.8847 7.65406Z" fill="url(#paint6_linear_8_246)"/>
<path d="M14.8847 7.65406C14.2882 8.08764 12.9456 9.00572 12.3473 9.20932C13.4864 9.55336 15.5887 9.72396 14.8847 7.65406Z" fill="url(#paint7_linear_8_246)" fill-opacity="0.3"/>
<path d="M8.62476 11.1589C8.62476 9.8178 9.80731 9.15767 10.4003 8.99523C10.9934 9.15767 12.1795 9.8178 12.1795 11.1589V12.6208L13.5139 13.4199C12.4761 14.0437 10.4039 15.9032 10.4039 18.3514C10.4039 15.9032 8.32818 14.0437 7.29033 13.4199L8.62476 12.6208V11.1589Z" fill="white"/>
<path d="M8.62476 11.1589C8.62476 9.8178 9.80731 9.15767 10.4003 8.99523C10.9934 9.15767 12.1795 9.8178 12.1795 11.1589V12.6208L13.5139 13.4199C12.4761 14.0437 10.4039 15.9032 10.4039 18.3514C10.4039 15.9032 8.32818 14.0437 7.29033 13.4199L8.62476 12.6208V11.1589Z" fill="url(#paint8_linear_8_246)"/>
<path d="M8.62476 11.1589C8.62476 9.8178 9.80731 9.15767 10.4003 8.99523C10.9934 9.15767 12.1795 9.8178 12.1795 11.1589V12.6208L13.5139 13.4199C12.4761 14.0437 10.4039 15.9032 10.4039 18.3514C10.4039 15.9032 8.32818 14.0437 7.29033 13.4199L8.62476 12.6208V11.1589Z" fill="url(#paint9_linear_8_246)" fill-opacity="0.3"/>
<defs>
<linearGradient id="paint0_linear_8_246" x1="10.3221" y1="6.68989" x2="10.3221" y2="14.904" gradientUnits="userSpaceOnUse">
<stop stop-color="#49B187"/>
<stop offset="1" stop-color="#00FCCE"/>
</linearGradient>
<linearGradient id="paint1_linear_8_246" x1="10.5241" y1="8.0923" x2="9.38485" y2="13.0714" gradientUnits="userSpaceOnUse">
<stop stop-color="#051E19"/>
<stop offset="0.519" stop-color="#051E19" stop-opacity="0"/>
</linearGradient>
<linearGradient id="paint2_linear_8_246" x1="10.3221" y1="6.68989" x2="10.3221" y2="14.904" gradientUnits="userSpaceOnUse">
<stop stop-color="#49B187"/>
<stop offset="1" stop-color="#00FCCE"/>
</linearGradient>
<linearGradient id="paint3_linear_8_246" x1="10.5241" y1="8.0923" x2="9.38485" y2="13.0714" gradientUnits="userSpaceOnUse">
<stop stop-color="#051E19"/>
<stop offset="0.519" stop-color="#051E19" stop-opacity="0"/>
</linearGradient>
<linearGradient id="paint4_linear_8_246" x1="10.3221" y1="6.68989" x2="10.3221" y2="14.904" gradientUnits="userSpaceOnUse">
<stop stop-color="#49B187"/>
<stop offset="1" stop-color="#00FCCE"/>
</linearGradient>
<linearGradient id="paint5_linear_8_246" x1="10.5241" y1="8.0923" x2="9.38485" y2="13.0714" gradientUnits="userSpaceOnUse">
<stop stop-color="#051E19"/>
<stop offset="0.519" stop-color="#051E19" stop-opacity="0"/>
</linearGradient>
<linearGradient id="paint6_linear_8_246" x1="10.3221" y1="6.68989" x2="10.3221" y2="14.904" gradientUnits="userSpaceOnUse">
<stop stop-color="#49B187"/>
<stop offset="1" stop-color="#00FCCE"/>
</linearGradient>
<linearGradient id="paint7_linear_8_246" x1="10.5241" y1="8.0923" x2="9.38485" y2="13.0714" gradientUnits="userSpaceOnUse">
<stop stop-color="#051E19"/>
<stop offset="0.519" stop-color="#051E19" stop-opacity="0"/>
</linearGradient>
<linearGradient id="paint8_linear_8_246" x1="10.3221" y1="6.68989" x2="10.3221" y2="14.904" gradientUnits="userSpaceOnUse">
<stop stop-color="#49B187"/>
<stop offset="1" stop-color="#00FCCE"/>
</linearGradient>
<linearGradient id="paint9_linear_8_246" x1="10.5241" y1="8.0923" x2="9.38485" y2="13.0714" gradientUnits="userSpaceOnUse">
<stop stop-color="#051E19"/>
<stop offset="0.519" stop-color="#051E19" stop-opacity="0"/>
</linearGradient>
</defs>
</svg>
