<svg width="23" height="28" viewBox="0 0 23 28" fill="none" xmlns="http://www.w3.org/2000/svg">
<path d="M5.3583 3.35229C7.70664 1.00395 10.67 0.41687 11.8582 0.41687V8.14261C10.9336 8.14261 10.4944 8.58339 10.3905 8.80379C6.02925 6.95866 3.8207 3.42218 3.26157 1.88458C3.76479 2.55553 4.86906 3.14262 5.3583 3.35229Z" fill="#FFF4EF"/>
<path d="M18.2031 3.35229C15.8548 1.00395 12.8914 0.41687 11.7033 0.41687V8.14261C12.6279 8.14261 13.067 8.58339 13.171 8.80379C17.5322 6.95866 19.7407 3.42218 20.2998 1.88458C19.7966 2.55553 18.6924 3.14262 18.2031 3.35229Z" fill="#FFF4EF"/>
<path d="M6.72135 8.20791C7.38274 8.70659 8.87137 9.76248 9.53473 9.99664C8.27168 10.3923 5.94073 10.5885 6.72135 8.20791Z" fill="#FFF4EF"/>
<path d="M5.53444 7.16721C5.11816 6.85499 4.39616 5.85548 4.0872 5.39475C2.88623 6.59573 2.75572 8.96308 2.84059 9.99664C2.84059 17.7989 1.38233 21.4437 0.653198 22.2909L3.74222 19.9308L5.83372 23.3846L8.26613 21.2697L11.7905 27.1454V25.2093L10.6302 21.2697C9.6804 17.0818 6.75043 15.2182 5.40418 14.8099L8.26613 13.1838L8.36369 11.8341C4.50006 11.8341 4.86768 8.72285 5.53444 7.16721Z" fill="#FFF4EF"/>
<path d="M16.8391 8.20791C16.1777 8.70659 14.6891 9.76248 14.0257 9.99664C15.2888 10.3923 17.6197 10.5885 16.8391 8.20791Z" fill="#FFF4EF"/>
<path d="M18.026 7.16721C18.4423 6.85499 19.1643 5.85548 19.4733 5.39475C20.6742 6.59573 20.8047 8.96308 20.7199 9.99664C20.7199 17.7989 22.1781 21.4437 22.9073 22.2909L19.8182 19.9308L17.7267 23.3846L15.2943 21.2697L11.7699 27.1454V25.2093L12.9302 21.2697C13.8801 17.0818 16.81 15.2182 18.1563 14.8099L15.2943 13.1838L15.1968 11.8341C19.0604 11.8341 18.6928 8.72285 18.026 7.16721Z" fill="#FFF4EF"/>
<path d="M9.89829 12.2388C9.89829 10.6965 11.2134 9.93723 11.8709 9.75041V20.5111C11.8709 17.6954 9.56945 15.5567 8.41871 14.8393L9.89829 13.9202V12.2388Z" fill="#FFF4EF"/>
<path d="M13.8397 12.2388C13.8397 10.6965 12.5246 9.93723 11.867 9.75041V20.5111C11.867 17.6954 14.1685 15.5567 15.3192 14.8393L13.8397 13.9202V12.2388Z" fill="#FFF4EF"/>
</svg>
