<svg width="27" height="22" viewBox="0 0 27 22" fill="none" xmlns="http://www.w3.org/2000/svg">
<path fill-rule="evenodd" clip-rule="evenodd" d="M23.9021 0.400656C24.2238 0.273149 24.576 0.229173 24.9219 0.273304C25.2679 0.317435 25.5949 0.44806 25.869 0.651583C26.1432 0.855106 26.3543 1.12409 26.4806 1.43053C26.6068 1.73697 26.6435 2.06967 26.5869 2.394L23.6339 19.259C23.3474 20.8858 21.4517 21.8187 19.8671 21.0084C18.5417 20.3304 16.573 19.2859 14.8023 18.1961C13.9169 17.6506 11.2048 15.9036 11.5381 14.6606C11.8245 13.5977 16.3816 9.60363 18.9857 7.22903C20.0077 6.2961 19.5416 5.75792 18.3347 6.61607C15.3374 8.74671 10.5251 11.9868 8.93406 12.8989C7.53048 13.7031 6.79874 13.8404 5.92379 13.7031C4.32751 13.453 2.84711 13.0656 1.63883 12.5937C0.00610062 11.9562 0.0855239 9.84269 1.63753 9.22727L23.9021 0.400656Z" fill="#FFF4EF"/>
</svg>
