<svg width="22" height="19" viewBox="0 0 22 19" fill="none" xmlns="http://www.w3.org/2000/svg">
<path fill-rule="evenodd" clip-rule="evenodd" d="M19.5258 0.383307C19.7855 0.271324 20.0699 0.232701 20.3491 0.27146C20.6284 0.310218 20.8925 0.42494 21.1138 0.603685C21.3351 0.78243 21.5056 1.01866 21.6075 1.2878C21.7094 1.55693 21.739 1.84913 21.6933 2.13397L19.3092 16.9457C19.078 18.3745 17.5475 19.1938 16.2682 18.4821C15.1981 17.8867 13.6087 16.9694 12.1791 16.0122C11.4643 15.5331 9.27474 13.9989 9.54384 12.9071C9.7751 11.9737 13.4542 8.46586 15.5565 6.38036C16.3817 5.56101 16.0054 5.08835 15.031 5.84202C12.6112 7.71327 8.72603 10.5589 7.44149 11.36C6.30833 12.0662 5.71757 12.1868 5.01118 12.0662C3.72244 11.8466 2.52726 11.5064 1.55177 11.0919C0.233602 10.532 0.297724 8.67581 1.55072 8.13533L19.5258 0.383307Z" fill="white"/>
<path fill-rule="evenodd" clip-rule="evenodd" d="M19.5258 0.383307C19.7855 0.271324 20.0699 0.232701 20.3491 0.27146C20.6284 0.310218 20.8925 0.42494 21.1138 0.603685C21.3351 0.78243 21.5056 1.01866 21.6075 1.2878C21.7094 1.55693 21.739 1.84913 21.6933 2.13397L19.3092 16.9457C19.078 18.3745 17.5475 19.1938 16.2682 18.4821C15.1981 17.8867 13.6087 16.9694 12.1791 16.0122C11.4643 15.5331 9.27474 13.9989 9.54384 12.9071C9.7751 11.9737 13.4542 8.46586 15.5565 6.38036C16.3817 5.56101 16.0054 5.08835 15.031 5.84202C12.6112 7.71327 8.72603 10.5589 7.44149 11.36C6.30833 12.0662 5.71757 12.1868 5.01118 12.0662C3.72244 11.8466 2.52726 11.5064 1.55177 11.0919C0.233602 10.532 0.297724 8.67581 1.55072 8.13533L19.5258 0.383307Z" fill="url(#paint0_linear_8_244)"/>
<path fill-rule="evenodd" clip-rule="evenodd" d="M19.5258 0.383307C19.7855 0.271324 20.0699 0.232701 20.3491 0.27146C20.6284 0.310218 20.8925 0.42494 21.1138 0.603685C21.3351 0.78243 21.5056 1.01866 21.6075 1.2878C21.7094 1.55693 21.739 1.84913 21.6933 2.13397L19.3092 16.9457C19.078 18.3745 17.5475 19.1938 16.2682 18.4821C15.1981 17.8867 13.6087 16.9694 12.1791 16.0122C11.4643 15.5331 9.27474 13.9989 9.54384 12.9071C9.7751 11.9737 13.4542 8.46586 15.5565 6.38036C16.3817 5.56101 16.0054 5.08835 15.031 5.84202C12.6112 7.71327 8.72603 10.5589 7.44149 11.36C6.30833 12.0662 5.71757 12.1868 5.01118 12.0662C3.72244 11.8466 2.52726 11.5064 1.55177 11.0919C0.233602 10.532 0.297724 8.67581 1.55072 8.13533L19.5258 0.383307Z" fill="url(#paint1_linear_8_244)" fill-opacity="0.3"/>
<defs>
<linearGradient id="paint0_linear_8_244" x1="11.1506" y1="4.87843" x2="11.1506" y2="11.4124" gradientUnits="userSpaceOnUse">
<stop stop-color="#49B187"/>
<stop offset="1" stop-color="#00FCCE"/>
</linearGradient>
<linearGradient id="paint1_linear_8_244" x1="11.3633" y1="5.99399" x2="10.6635" y2="10.041" gradientUnits="userSpaceOnUse">
<stop stop-color="#051E19"/>
<stop offset="0.519" stop-color="#051E19" stop-opacity="0"/>
</linearGradient>
</defs>
</svg>
