<svg width="24" height="27" viewBox="0 0 24 27" fill="none" xmlns="http://www.w3.org/2000/svg">
<path fill-rule="evenodd" clip-rule="evenodd" d="M9.2336 1.78872C7.67784 2.60826 6.40501 3.30175 6.40528 3.32996C6.40598 3.40276 10.1392 5.31463 10.2717 5.30997C10.3319 5.30793 10.7692 5.10439 11.2433 4.85773L12.1054 4.40932L13.9884 5.38822L15.5303 4.68761C17.8536 3.63188 18.0949 3.51619 18.0571 3.47732C18.0069 3.42575 17.1736 2.97305 14.9127 1.76941C13.8201 1.18768 12.7596 0.61731 12.556 0.501896C12.3524 0.386482 12.1581 0.293639 12.1241 0.295436C12.0902 0.297233 10.7894 0.969219 9.2336 1.78872ZM2.41005 5.36191L0.790519 6.20785L0.790519 9.92054C0.790519 11.9625 0.811785 13.6332 0.837871 13.6332C0.863866 13.6332 1.66068 13.2839 2.60852 12.857L4.33188 12.0808V8.1674L5.17403 8.63137C5.82297 8.98857 6.47231 9.34505 7.12203 9.7008L8.22786 10.3063L8.71993 10.0813C9.02854 9.93991 9.33653 9.79719 9.64389 9.6531C9.8814 9.54125 10.4644 9.2757 10.9395 9.06287C11.4145 8.84995 11.8543 8.63585 11.9166 8.58705C11.9995 8.52223 10.9894 7.9578 8.18078 6.4993C6.06367 5.39989 4.26356 4.50387 4.18055 4.50816C4.09753 4.51246 3.30081 4.89659 2.41005 5.36191ZM18.3489 5.59947C17.2459 6.10301 16.3427 6.53512 16.3417 6.55976C16.3407 6.58437 16.9419 6.94584 17.6777 7.36291C18.4135 7.78006 19.0155 8.14367 19.0155 8.17105C19.0155 8.19837 18.3644 8.51739 17.5687 8.88011C16.7729 9.24274 14.7616 10.1613 13.0989 10.9214L7.52771 13.4679C6.1263 14.1086 4.86308 14.686 4.72057 14.7513C1.8581 16.0617 1.07131 16.4253 0.963268 16.4877C0.854619 16.5505 0.830009 16.9156 0.810671 18.7479L0.787598 20.9332L3.68408 22.4256L5.69227 21.5091C6.79681 21.0051 7.70046 20.5663 7.70046 20.534C7.70046 20.5017 7.49636 20.3673 7.24701 20.235C6.99754 20.1027 6.48258 19.81 6.10253 19.5842C5.72251 19.3585 5.34358 19.1514 5.26039 19.1239C5.17722 19.0965 5.11038 19.0486 5.11173 19.0174C5.11312 18.9862 5.99744 18.5614 7.07676 18.0734C9.17315 17.1255 10.7775 16.395 14.2217 14.8199C15.7619 14.1158 17.3022 13.412 18.8427 12.7087C20.1966 12.0907 21.7708 11.369 22.3409 11.1048L23.3774 10.6246L23.4236 6.2042L21.9547 5.44177C21.1468 5.02249 20.4562 4.68045 20.42 4.6817C20.3838 4.68285 19.4519 5.0958 18.3489 5.59947ZM22.9838 13.5731C22.7674 13.68 22.3398 13.8802 22.0337 14.0179C21.7276 14.1557 21.1468 14.4207 20.743 14.607L20.0088 14.9456L19.992 16.886C19.9828 17.9532 19.9439 18.8216 19.9057 18.816C19.8188 18.8029 18.4427 18.0893 17.0595 17.3398C16.0612 16.7989 15.9985 16.7774 15.7639 16.8949C15.6283 16.9629 14.8177 17.3305 13.9626 17.712C13.1075 18.0934 12.38 18.4305 12.3458 18.461C12.3116 18.4914 14.0326 19.4347 16.1703 20.5572L20.0569 22.5982L21.7172 21.7297C22.6302 21.252 23.4067 20.8164 23.4424 20.7616C23.5229 20.6384 23.516 13.3618 23.4354 13.3717C23.4036 13.3755 23.2003 13.4662 22.9838 13.5731ZM13.7899 22.1139C13.5019 22.2391 13.2139 22.3645 12.9261 22.4901C12.0569 22.8704 12.2273 22.883 11.1932 22.3624C10.5044 22.0157 10.2076 21.9087 10.0787 21.9607C9.98204 21.9996 9.15016 22.3781 8.22994 22.8017C7.30978 23.2253 6.52499 23.5719 6.48595 23.5719C6.09988 23.5719 6.74171 23.9597 9.21842 25.223L12.123 26.7045L13.3451 26.0944C14.0173 25.7588 15.373 25.0868 16.3579 24.6011C17.3428 24.1153 18.1364 23.7052 18.1215 23.6897C18.1066 23.6743 17.2813 23.2458 16.2876 22.7375L14.4809 21.8134L13.7899 22.1139Z" fill="white"/>
<path fill-rule="evenodd" clip-rule="evenodd" d="M9.2336 1.78872C7.67784 2.60826 6.40501 3.30175 6.40528 3.32996C6.40598 3.40276 10.1392 5.31463 10.2717 5.30997C10.3319 5.30793 10.7692 5.10439 11.2433 4.85773L12.1054 4.40932L13.9884 5.38822L15.5303 4.68761C17.8536 3.63188 18.0949 3.51619 18.0571 3.47732C18.0069 3.42575 17.1736 2.97305 14.9127 1.76941C13.8201 1.18768 12.7596 0.61731 12.556 0.501896C12.3524 0.386482 12.1581 0.293639 12.1241 0.295436C12.0902 0.297233 10.7894 0.969219 9.2336 1.78872ZM2.41005 5.36191L0.790519 6.20785L0.790519 9.92054C0.790519 11.9625 0.811785 13.6332 0.837871 13.6332C0.863866 13.6332 1.66068 13.2839 2.60852 12.857L4.33188 12.0808V8.1674L5.17403 8.63137C5.82297 8.98857 6.47231 9.34505 7.12203 9.7008L8.22786 10.3063L8.71993 10.0813C9.02854 9.93991 9.33653 9.79719 9.64389 9.6531C9.8814 9.54125 10.4644 9.2757 10.9395 9.06287C11.4145 8.84995 11.8543 8.63585 11.9166 8.58705C11.9995 8.52223 10.9894 7.9578 8.18078 6.4993C6.06367 5.39989 4.26356 4.50387 4.18055 4.50816C4.09753 4.51246 3.30081 4.89659 2.41005 5.36191ZM18.3489 5.59947C17.2459 6.10301 16.3427 6.53512 16.3417 6.55976C16.3407 6.58437 16.9419 6.94584 17.6777 7.36291C18.4135 7.78006 19.0155 8.14367 19.0155 8.17105C19.0155 8.19837 18.3644 8.51739 17.5687 8.88011C16.7729 9.24274 14.7616 10.1613 13.0989 10.9214L7.52771 13.4679C6.1263 14.1086 4.86308 14.686 4.72057 14.7513C1.8581 16.0617 1.07131 16.4253 0.963268 16.4877C0.854619 16.5505 0.830009 16.9156 0.810671 18.7479L0.787598 20.9332L3.68408 22.4256L5.69227 21.5091C6.79681 21.0051 7.70046 20.5663 7.70046 20.534C7.70046 20.5017 7.49636 20.3673 7.24701 20.235C6.99754 20.1027 6.48258 19.81 6.10253 19.5842C5.72251 19.3585 5.34358 19.1514 5.26039 19.1239C5.17722 19.0965 5.11038 19.0486 5.11173 19.0174C5.11312 18.9862 5.99744 18.5614 7.07676 18.0734C9.17315 17.1255 10.7775 16.395 14.2217 14.8199C15.7619 14.1158 17.3022 13.412 18.8427 12.7087C20.1966 12.0907 21.7708 11.369 22.3409 11.1048L23.3774 10.6246L23.4236 6.2042L21.9547 5.44177C21.1468 5.02249 20.4562 4.68045 20.42 4.6817C20.3838 4.68285 19.4519 5.0958 18.3489 5.59947ZM22.9838 13.5731C22.7674 13.68 22.3398 13.8802 22.0337 14.0179C21.7276 14.1557 21.1468 14.4207 20.743 14.607L20.0088 14.9456L19.992 16.886C19.9828 17.9532 19.9439 18.8216 19.9057 18.816C19.8188 18.8029 18.4427 18.0893 17.0595 17.3398C16.0612 16.7989 15.9985 16.7774 15.7639 16.8949C15.6283 16.9629 14.8177 17.3305 13.9626 17.712C13.1075 18.0934 12.38 18.4305 12.3458 18.461C12.3116 18.4914 14.0326 19.4347 16.1703 20.5572L20.0569 22.5982L21.7172 21.7297C22.6302 21.252 23.4067 20.8164 23.4424 20.7616C23.5229 20.6384 23.516 13.3618 23.4354 13.3717C23.4036 13.3755 23.2003 13.4662 22.9838 13.5731ZM13.7899 22.1139C13.5019 22.2391 13.2139 22.3645 12.9261 22.4901C12.0569 22.8704 12.2273 22.883 11.1932 22.3624C10.5044 22.0157 10.2076 21.9087 10.0787 21.9607C9.98204 21.9996 9.15016 22.3781 8.22994 22.8017C7.30978 23.2253 6.52499 23.5719 6.48595 23.5719C6.09988 23.5719 6.74171 23.9597 9.21842 25.223L12.123 26.7045L13.3451 26.0944C14.0173 25.7588 15.373 25.0868 16.3579 24.6011C17.3428 24.1153 18.1364 23.7052 18.1215 23.6897C18.1066 23.6743 17.2813 23.2458 16.2876 22.7375L14.4809 21.8134L13.7899 22.1139Z" fill="url(#paint0_linear_8_247)"/>
<path fill-rule="evenodd" clip-rule="evenodd" d="M9.2336 1.78872C7.67784 2.60826 6.40501 3.30175 6.40528 3.32996C6.40598 3.40276 10.1392 5.31463 10.2717 5.30997C10.3319 5.30793 10.7692 5.10439 11.2433 4.85773L12.1054 4.40932L13.9884 5.38822L15.5303 4.68761C17.8536 3.63188 18.0949 3.51619 18.0571 3.47732C18.0069 3.42575 17.1736 2.97305 14.9127 1.76941C13.8201 1.18768 12.7596 0.61731 12.556 0.501896C12.3524 0.386482 12.1581 0.293639 12.1241 0.295436C12.0902 0.297233 10.7894 0.969219 9.2336 1.78872ZM2.41005 5.36191L0.790519 6.20785L0.790519 9.92054C0.790519 11.9625 0.811785 13.6332 0.837871 13.6332C0.863866 13.6332 1.66068 13.2839 2.60852 12.857L4.33188 12.0808V8.1674L5.17403 8.63137C5.82297 8.98857 6.47231 9.34505 7.12203 9.7008L8.22786 10.3063L8.71993 10.0813C9.02854 9.93991 9.33653 9.79719 9.64389 9.6531C9.8814 9.54125 10.4644 9.2757 10.9395 9.06287C11.4145 8.84995 11.8543 8.63585 11.9166 8.58705C11.9995 8.52223 10.9894 7.9578 8.18078 6.4993C6.06367 5.39989 4.26356 4.50387 4.18055 4.50816C4.09753 4.51246 3.30081 4.89659 2.41005 5.36191ZM18.3489 5.59947C17.2459 6.10301 16.3427 6.53512 16.3417 6.55976C16.3407 6.58437 16.9419 6.94584 17.6777 7.36291C18.4135 7.78006 19.0155 8.14367 19.0155 8.17105C19.0155 8.19837 18.3644 8.51739 17.5687 8.88011C16.7729 9.24274 14.7616 10.1613 13.0989 10.9214L7.52771 13.4679C6.1263 14.1086 4.86308 14.686 4.72057 14.7513C1.8581 16.0617 1.07131 16.4253 0.963268 16.4877C0.854619 16.5505 0.830009 16.9156 0.810671 18.7479L0.787598 20.9332L3.68408 22.4256L5.69227 21.5091C6.79681 21.0051 7.70046 20.5663 7.70046 20.534C7.70046 20.5017 7.49636 20.3673 7.24701 20.235C6.99754 20.1027 6.48258 19.81 6.10253 19.5842C5.72251 19.3585 5.34358 19.1514 5.26039 19.1239C5.17722 19.0965 5.11038 19.0486 5.11173 19.0174C5.11312 18.9862 5.99744 18.5614 7.07676 18.0734C9.17315 17.1255 10.7775 16.395 14.2217 14.8199C15.7619 14.1158 17.3022 13.412 18.8427 12.7087C20.1966 12.0907 21.7708 11.369 22.3409 11.1048L23.3774 10.6246L23.4236 6.2042L21.9547 5.44177C21.1468 5.02249 20.4562 4.68045 20.42 4.6817C20.3838 4.68285 19.4519 5.0958 18.3489 5.59947ZM22.9838 13.5731C22.7674 13.68 22.3398 13.8802 22.0337 14.0179C21.7276 14.1557 21.1468 14.4207 20.743 14.607L20.0088 14.9456L19.992 16.886C19.9828 17.9532 19.9439 18.8216 19.9057 18.816C19.8188 18.8029 18.4427 18.0893 17.0595 17.3398C16.0612 16.7989 15.9985 16.7774 15.7639 16.8949C15.6283 16.9629 14.8177 17.3305 13.9626 17.712C13.1075 18.0934 12.38 18.4305 12.3458 18.461C12.3116 18.4914 14.0326 19.4347 16.1703 20.5572L20.0569 22.5982L21.7172 21.7297C22.6302 21.252 23.4067 20.8164 23.4424 20.7616C23.5229 20.6384 23.516 13.3618 23.4354 13.3717C23.4036 13.3755 23.2003 13.4662 22.9838 13.5731ZM13.7899 22.1139C13.5019 22.2391 13.2139 22.3645 12.9261 22.4901C12.0569 22.8704 12.2273 22.883 11.1932 22.3624C10.5044 22.0157 10.2076 21.9087 10.0787 21.9607C9.98204 21.9996 9.15016 22.3781 8.22994 22.8017C7.30978 23.2253 6.52499 23.5719 6.48595 23.5719C6.09988 23.5719 6.74171 23.9597 9.21842 25.223L12.123 26.7045L13.3451 26.0944C14.0173 25.7588 15.373 25.0868 16.3579 24.6011C17.3428 24.1153 18.1364 23.7052 18.1215 23.6897C18.1066 23.6743 17.2813 23.2458 16.2876 22.7375L14.4809 21.8134L13.7899 22.1139Z" fill="url(#paint1_linear_8_247)" fill-opacity="0.3"/>
<defs>
<linearGradient id="paint0_linear_8_247" x1="12.1435" y1="6.89769" x2="12.1435" y2="16.2319" gradientUnits="userSpaceOnUse">
<stop stop-color="#49B187"/>
<stop offset="1" stop-color="#00FCCE"/>
</linearGradient>
<linearGradient id="paint1_linear_8_247" x1="12.3722" y1="8.49134" x2="11.0726" y2="14.147" gradientUnits="userSpaceOnUse">
<stop stop-color="#051E19"/>
<stop offset="0.519" stop-color="#051E19" stop-opacity="0"/>
</linearGradient>
</defs>
</svg>
