<svg width="34" height="34" viewBox="0 0 34 34" fill="none" xmlns="http://www.w3.org/2000/svg">
<path d="M8.49984 28.3333C7.72067 28.3333 7.05389 28.0561 6.4995 27.5017C5.94511 26.9474 5.66745 26.2801 5.6665 25.5V22.6667C5.6665 22.2653 5.8025 21.929 6.0745 21.658C6.3465 21.3869 6.68273 21.2509 7.08317 21.25C7.48361 21.249 7.82031 21.385 8.09325 21.658C8.3662 21.9309 8.50173 22.2672 8.49984 22.6667V25.5H25.4998V22.6667C25.4998 22.2653 25.6358 21.929 25.9078 21.658C26.1798 21.3869 26.5161 21.2509 26.9165 21.25C27.3169 21.249 27.6536 21.385 27.9266 21.658C28.1995 21.9309 28.3351 22.2672 28.3332 22.6667V25.5C28.3332 26.2792 28.056 26.9464 27.5016 27.5017C26.9472 28.0571 26.2799 28.3343 25.4998 28.3333H8.49984ZM15.5832 11.1208L12.9269 13.7771C12.6436 14.0604 12.3074 14.1964 11.9183 14.1851C11.5291 14.1737 11.1924 14.0259 10.9082 13.7417C10.6484 13.4583 10.5124 13.1278 10.5002 12.75C10.4879 12.3722 10.6239 12.0417 10.9082 11.7583L16.0082 6.65833C16.1498 6.51666 16.3033 6.41655 16.4686 6.35799C16.6339 6.29944 16.8109 6.26969 16.9998 6.26874C17.1887 6.2678 17.3658 6.29755 17.5311 6.35799C17.6964 6.41844 17.8498 6.51855 17.9915 6.65833L23.0915 11.7583C23.3748 12.0417 23.5108 12.3722 23.4995 12.75C23.4882 13.1278 23.3522 13.4583 23.0915 13.7417C22.8082 14.025 22.4719 14.1728 22.0828 14.1851C21.6937 14.1974 21.357 14.0614 21.0728 13.7771L18.4165 11.1208V21.25C18.4165 21.6514 18.2805 21.9881 18.0085 22.2601C17.7365 22.5321 17.4003 22.6676 16.9998 22.6667C16.5994 22.6657 16.2632 22.5297 15.9912 22.2587C15.7192 21.9876 15.5832 21.6514 15.5832 21.25V11.1208Z" fill="#000"/>
</svg>
