<svg width="23" height="19" viewBox="0 0 23 19" fill="none" xmlns="http://www.w3.org/2000/svg">
<path d="M7.37103 -0.00732422L0.144531 -0.00732422L8.67179 10.4649L0.609092 19.0072H3.34484L9.93953 12.0203L15.6299 19.0072H22.8564L13.9698 8.09478L21.6175 -0.00732422L18.8818 -0.00732422L12.7021 6.53939L7.37103 -0.00732422ZM16.6622 17.1058L4.27396 1.89413H6.33867L18.7269 17.1058H16.6622Z" fill="white"/>
<path d="M7.37103 -0.00732422L0.144531 -0.00732422L8.67179 10.4649L0.609092 19.0072H3.34484L9.93953 12.0203L15.6299 19.0072H22.8564L13.9698 8.09478L21.6175 -0.00732422L18.8818 -0.00732422L12.7021 6.53939L7.37103 -0.00732422ZM16.6622 17.1058L4.27396 1.89413H6.33867L18.7269 17.1058H16.6622Z" fill="url(#paint0_linear_8_245)"/>
<path d="M7.37103 -0.00732422L0.144531 -0.00732422L8.67179 10.4649L0.609092 19.0072H3.34484L9.93953 12.0203L15.6299 19.0072H22.8564L13.9698 8.09478L21.6175 -0.00732422L18.8818 -0.00732422L12.7021 6.53939L7.37103 -0.00732422ZM16.6622 17.1058L4.27396 1.89413H6.33867L18.7269 17.1058H16.6622Z" fill="url(#paint1_linear_8_245)" fill-opacity="0.3"/>
<defs>
<linearGradient id="paint0_linear_8_245" x1="11.5005" y1="4.74632" x2="11.5005" y2="11.467" gradientUnits="userSpaceOnUse">
<stop stop-color="#49B187"/>
<stop offset="1" stop-color="#00FCCE"/>
</linearGradient>
<linearGradient id="paint1_linear_8_245" x1="11.7291" y1="5.89375" x2="11.0387" y2="10.0666" gradientUnits="userSpaceOnUse">
<stop stop-color="#051E19"/>
<stop offset="0.519" stop-color="#051E19" stop-opacity="0"/>
</linearGradient>
</defs>
</svg>
