<svg width="247" height="54" viewBox="0 0 247 54" fill="none" xmlns="http://www.w3.org/2000/svg">
<g filter="url(#filter0_iiii_5_22)">
<rect width="247" height="54" fill="#BFB8BF"/>
</g>
<path d="M25.3866 19.8464H23.0046V15.0823H25.3866V19.8464ZM32.5328 36.491H30.1507V31.7566H32.5328V36.491ZM27.7687 24.6105H25.3866V19.8464H27.7687V24.6105ZM18.2405 36.491H15.8882V31.7566H18.2405V36.491ZM27.7687 24.6105H30.1507V31.7566H18.2405V24.6105H20.6225V29.3746H27.7687V24.6105ZM23.0046 24.6105H20.6225V19.8464H23.0046V24.6105ZM37.897 34.1387H35.5448V24.6105H37.897V34.1387ZM45.0432 15.0823H47.4252V36.491H37.897V34.1387H45.0432V24.6105H37.897V22.1987H45.0432V15.0823ZM59.931 36.5207H52.7849V34.1387H59.931V36.5207ZM52.7849 34.1387H50.4326V24.6105H52.7849V34.1387ZM59.931 24.6105H52.7849V22.2284H59.931V24.6105ZM62.3131 34.1387H59.931V24.6105H62.3131V34.1387ZM67.6727 24.6105V34.1387H74.8188V36.491H67.6727V41.2551H65.3204V22.2284H74.8188V24.6105H67.6727ZM77.2009 34.1387H74.8188V24.6105H77.2009V34.1387ZM84.9425 24.6105H82.5605V34.1387H80.2082V17.4643H82.5605V22.2284H84.9425V24.6105ZM84.9425 36.5207H82.5605V34.1387H84.9425V36.5207ZM103.955 24.6105H96.8086V22.1987H103.955V24.6105ZM96.8086 34.1387H94.4563V29.3448H96.8086V34.1387ZM103.955 24.6105H106.337V36.491H96.8086V34.1387H103.955V29.3448H96.8086V26.9925H103.955V24.6105ZM127.738 19.8464H125.356V17.4643H127.738V19.8464ZM118.21 17.4643V34.1387H125.356V36.491H115.858V15.0823H125.356V17.4643H118.21ZM127.738 34.1387H125.356V31.7566H127.738V34.1387ZM130.12 31.7566H127.738V19.8464H130.12V31.7566ZM142.628 36.5207H135.482V34.1387H142.628V36.5207ZM135.482 34.1387H133.13V24.6105H135.482V34.1387ZM142.628 24.6105H135.482V22.2284H142.628V24.6105ZM145.01 34.1387H142.628V24.6105H145.01V34.1387ZM157.516 41.2551H148.018V38.873H157.516V41.2551ZM150.37 34.1387H148.018V24.6105H150.37V34.1387ZM150.37 22.2284H159.898V38.873H157.516V36.491H150.37V34.1387H157.516V24.6105H150.37V22.2284ZM172.404 34.1387H170.052V31.7566H172.404V34.1387ZM170.022 31.7566H167.64V29.3746H170.022V31.7566ZM165.258 34.1387H162.905V31.7566H165.258V34.1387ZM170.052 36.5207H165.258V34.1387H170.052V36.5207ZM167.64 29.3746H165.258V26.9925H167.64V29.3746ZM172.404 26.9925H170.052V24.6105H172.404V26.9925ZM170.052 24.6105H165.258V22.2284H170.052V24.6105ZM165.258 26.9925H162.905V24.6105H165.258V26.9925ZM189.039 26.9925H186.657V22.2284H189.039V26.9925ZM184.275 17.4643H186.657V22.2284H184.275V36.491H181.922V15.0823H184.275V17.4643ZM193.803 15.0823H196.185V36.491H193.803V34.1387H191.421V29.3746H193.803V15.0823ZM191.421 29.3746H189.039V26.9925H191.421V29.3746ZM208.693 36.5207H201.547V34.1387H208.693V36.5207ZM201.547 34.1387H199.194V24.6105H201.547V34.1387ZM208.693 24.6105H201.547V22.2284H208.693V24.6105ZM211.075 34.1387H208.693V24.6105H211.075V34.1387ZM216.435 31.7566H214.082V22.1987H216.435V31.7566ZM221.199 31.7566H218.817V26.9925H221.199V31.7566ZM218.817 36.491H216.435V31.7566H218.817V36.491ZM228.345 36.491H225.963V31.7566H228.345V36.491ZM230.727 31.7566H228.345V22.1987H230.727V31.7566ZM223.581 26.9925H221.199V22.1987H223.581V26.9925ZM225.963 31.7566H223.581V26.9925H225.963V31.7566Z" fill="black"/>
<path d="M14.3994 37.95H232.245V39.409H14.3994V37.95Z" fill="black"/>
<defs>
<filter id="filter0_iiii_5_22" x="0" y="0" width="247" height="54" filterUnits="userSpaceOnUse" color-interpolation-filters="sRGB">
<feFlood flood-opacity="0" result="BackgroundImageFix"/>
<feBlend mode="normal" in="SourceGraphic" in2="BackgroundImageFix" result="shape"/>
<feColorMatrix in="SourceAlpha" type="matrix" values="0 0 0 0 0 0 0 0 0 0 0 0 0 0 0 0 0 0 127 0" result="hardAlpha"/>
<feOffset dx="4.32113" dy="4.32113"/>
<feComposite in2="hardAlpha" operator="arithmetic" k2="-1" k3="1"/>
<feColorMatrix type="matrix" values="0 0 0 0 1 0 0 0 0 0.972549 0 0 0 0 1 0 0 0 1 0"/>
<feBlend mode="normal" in2="shape" result="effect1_innerShadow_5_22"/>
<feColorMatrix in="SourceAlpha" type="matrix" values="0 0 0 0 0 0 0 0 0 0 0 0 0 0 0 0 0 0 127 0" result="hardAlpha"/>
<feOffset dx="-4.32113" dy="-4.32113"/>
<feComposite in2="hardAlpha" operator="arithmetic" k2="-1" k3="1"/>
<feColorMatrix type="matrix" values="0 0 0 0 0.498039 0 0 0 0 0.470588 0 0 0 0 0.498039 0 0 0 1 0"/>
<feBlend mode="normal" in2="effect1_innerShadow_5_22" result="effect2_innerShadow_5_22"/>
<feColorMatrix in="SourceAlpha" type="matrix" values="0 0 0 0 0 0 0 0 0 0 0 0 0 0 0 0 0 0 127 0" result="hardAlpha"/>
<feOffset dx="2.16056" dy="2.16056"/>
<feComposite in2="hardAlpha" operator="arithmetic" k2="-1" k3="1"/>
<feColorMatrix type="matrix" values="0 0 0 0 0.87451 0 0 0 0 0.847059 0 0 0 0 0.87451 0 0 0 1 0"/>
<feBlend mode="normal" in2="effect2_innerShadow_5_22" result="effect3_innerShadow_5_22"/>
<feColorMatrix in="SourceAlpha" type="matrix" values="0 0 0 0 0 0 0 0 0 0 0 0 0 0 0 0 0 0 127 0" result="hardAlpha"/>
<feOffset dx="-2.16056" dy="-2.16056"/>
<feComposite in2="hardAlpha" operator="arithmetic" k2="-1" k3="1"/>
<feColorMatrix type="matrix" values="0 0 0 0 0 0 0 0 0 0 0 0 0 0 0 0 0 0 1 0"/>
<feBlend mode="normal" in2="effect3_innerShadow_5_22" result="effect4_innerShadow_5_22"/>
</filter>
</defs>
</svg>
