<svg width="282" height="124" viewBox="0 0 282 124" fill="none" xmlns="http://www.w3.org/2000/svg">
<g filter="url(#filter0_i_1_3008)">
<g clip-path="url(#clip0_1_3008)">
<rect x="20" y="20" width="242" height="84" rx="9.81538" fill="#FF320E"/>
<path d="M105.715 60.7377C108.343 61.2977 110.454 62.6116 112.048 64.6794C113.642 66.7041 114.439 69.0303 114.439 71.6581C114.439 75.449 113.103 78.4644 110.432 80.7045C107.805 82.9015 104.122 84 99.3829 84H78.253V38.6386H98.6721C103.281 38.6386 106.879 39.694 109.463 41.8048C112.091 43.9157 113.405 46.7804 113.405 50.3989C113.405 53.0698 112.694 55.2883 111.273 57.0545C109.894 58.8207 108.042 60.0485 105.715 60.7377ZM89.3026 56.9899H96.5397C98.349 56.9899 99.7275 56.6022 100.675 55.8268C101.666 55.0083 102.161 53.8237 102.161 52.2728C102.161 50.722 101.666 49.5374 100.675 48.7189C99.7275 47.9004 98.349 47.4912 96.5397 47.4912H89.3026V56.9899ZM97.4444 75.0828C99.2967 75.0828 100.718 74.6736 101.709 73.8551C102.743 72.9935 103.26 71.7658 103.26 70.1719C103.26 68.578 102.721 67.3287 101.645 66.4241C100.611 65.5194 99.1675 65.0671 97.3151 65.0671H89.3026V75.0828H97.4444ZM131.703 38.6386V65.7779C131.703 68.4918 132.371 70.5811 133.706 72.0458C135.042 73.5104 137.002 74.2428 139.587 74.2428C142.171 74.2428 144.153 73.5104 145.531 72.0458C146.91 70.5811 147.599 68.4918 147.599 65.7779V38.6386H158.649V65.7133C158.649 69.7626 157.787 73.1873 156.064 75.9874C154.341 78.7875 152.015 80.8984 149.085 82.3199C146.199 83.7415 142.968 84.4523 139.393 84.4523C135.817 84.4523 132.608 83.7631 129.765 82.3846C126.965 80.963 124.746 78.8521 123.109 76.0521C121.472 73.2089 120.654 69.7626 120.654 65.7133V38.6386H131.703ZM205.308 38.6386L189.605 69.0088V84H178.556V69.0088L162.854 38.6386H175.39L184.178 57.6361L192.901 38.6386H205.308Z" fill="white"/>
</g>
<rect x="20" y="20" width="242" height="84" rx="9.81538" stroke="#EDEDED" stroke-width="4.80615"/>
</g>
<g style="mix-blend-mode:plus-lighter" filter="url(#filter1_if_1_3008)">
<g clip-path="url(#clip1_1_3008)">
<rect x="20" y="20" width="242" height="84" rx="9.81538" fill="#FF320E"/>
<path d="M105.715 60.7377C108.343 61.2977 110.454 62.6116 112.048 64.6794C113.642 66.7041 114.439 69.0303 114.439 71.6581C114.439 75.449 113.103 78.4644 110.432 80.7045C107.805 82.9015 104.122 84 99.3829 84H78.253V38.6386H98.6721C103.281 38.6386 106.879 39.694 109.463 41.8048C112.091 43.9157 113.405 46.7804 113.405 50.3989C113.405 53.0698 112.694 55.2883 111.273 57.0545C109.894 58.8207 108.042 60.0485 105.715 60.7377ZM89.3026 56.9899H96.5397C98.349 56.9899 99.7275 56.6022 100.675 55.8268C101.666 55.0083 102.161 53.8237 102.161 52.2728C102.161 50.722 101.666 49.5374 100.675 48.7189C99.7275 47.9004 98.349 47.4912 96.5397 47.4912H89.3026V56.9899ZM97.4444 75.0828C99.2967 75.0828 100.718 74.6736 101.709 73.8551C102.743 72.9935 103.26 71.7658 103.26 70.1719C103.26 68.578 102.721 67.3287 101.645 66.4241C100.611 65.5194 99.1675 65.0671 97.3151 65.0671H89.3026V75.0828H97.4444ZM131.703 38.6386V65.7779C131.703 68.4918 132.371 70.5811 133.706 72.0458C135.042 73.5104 137.002 74.2428 139.587 74.2428C142.171 74.2428 144.153 73.5104 145.531 72.0458C146.91 70.5811 147.599 68.4918 147.599 65.7779V38.6386H158.649V65.7133C158.649 69.7626 157.787 73.1873 156.064 75.9874C154.341 78.7875 152.015 80.8984 149.085 82.3199C146.199 83.7415 142.968 84.4523 139.393 84.4523C135.817 84.4523 132.608 83.7631 129.765 82.3846C126.965 80.963 124.746 78.8521 123.109 76.0521C121.472 73.2089 120.654 69.7626 120.654 65.7133V38.6386H131.703ZM205.308 38.6386L189.605 69.0088V84H178.556V69.0088L162.854 38.6386H175.39L184.178 57.6361L192.901 38.6386H205.308Z" fill="white"/>
</g>
<rect x="20" y="20" width="242" height="84" rx="9.81538" stroke="#EDEDED" stroke-width="4.80615"/>
</g>
<defs>
<filter id="filter0_i_1_3008" x="17.5969" y="17.5969" width="246.806" height="88.8062" filterUnits="userSpaceOnUse" color-interpolation-filters="sRGB">
<feFlood flood-opacity="0" result="BackgroundImageFix"/>
<feBlend mode="normal" in="SourceGraphic" in2="BackgroundImageFix" result="shape"/>
<feColorMatrix in="SourceAlpha" type="matrix" values="0 0 0 0 0 0 0 0 0 0 0 0 0 0 0 0 0 0 127 0" result="hardAlpha"/>
<feOffset/>
<feGaussianBlur stdDeviation="2.20192"/>
<feComposite in2="hardAlpha" operator="arithmetic" k2="-1" k3="1"/>
<feColorMatrix type="matrix" values="0 0 0 0 0.545833 0 0 0 0 0.545833 0 0 0 0 0.545833 0 0 0 1 0"/>
<feBlend mode="normal" in2="shape" result="effect1_innerShadow_1_3008"/>
</filter>
<filter id="filter1_if_1_3008" x="0.174616" y="0.174616" width="281.651" height="123.651" filterUnits="userSpaceOnUse" color-interpolation-filters="sRGB">
<feFlood flood-opacity="0" result="BackgroundImageFix"/>
<feBlend mode="normal" in="SourceGraphic" in2="BackgroundImageFix" result="shape"/>
<feColorMatrix in="SourceAlpha" type="matrix" values="0 0 0 0 0 0 0 0 0 0 0 0 0 0 0 0 0 0 127 0" result="hardAlpha"/>
<feOffset/>
<feGaussianBlur stdDeviation="2.20192"/>
<feComposite in2="hardAlpha" operator="arithmetic" k2="-1" k3="1"/>
<feColorMatrix type="matrix" values="0 0 0 0 0.545833 0 0 0 0 0.545833 0 0 0 0 0.545833 0 0 0 1 0"/>
<feBlend mode="normal" in2="shape" result="effect1_innerShadow_1_3008"/>
<feGaussianBlur stdDeviation="8.71115" result="effect2_foregroundBlur_1_3008"/>
</filter>
<clipPath id="clip0_1_3008">
<rect x="20" y="20" width="242" height="84" rx="9.81538" fill="white"/>
</clipPath>
<clipPath id="clip1_1_3008">
<rect x="20" y="20" width="242" height="84" rx="9.81538" fill="white"/>
</clipPath>
</defs>
</svg>
