<svg width="110" height="111" viewBox="0 0 110 111" fill="none" xmlns="http://www.w3.org/2000/svg">
<g filter="url(#filter0_i_1_79)">
<rect x="20.0183" y="20.5831" width="69.6892" height="69.6892" rx="9.81538" fill="#FF320E"/>
<rect x="20.0183" y="20.5831" width="69.6892" height="69.6892" rx="9.81538" stroke="#EDEDED" stroke-width="4.80615"/>
<path d="M42.8595 38.4077C46.9112 34.356 52.024 33.3431 54.074 33.3431V46.6727C52.4788 46.6727 51.7211 47.4332 51.5417 47.8135C44.0171 44.63 40.2066 38.5283 39.2419 35.8754C40.1101 37.033 42.0154 38.046 42.8595 38.4077Z" fill="#EDEDED"/>
<path d="M65.0213 38.4077C60.9696 34.356 55.8567 33.3431 53.8067 33.3431V46.6727C55.402 46.6727 56.1596 47.4332 56.3391 47.8135C63.8637 44.63 67.6742 38.5283 68.6389 35.8754C67.7707 37.033 65.8654 38.046 65.0213 38.4077Z" fill="#EDEDED"/>
<path d="M45.2112 46.7854C46.3523 47.6458 48.9207 49.4675 50.0653 49.8715C47.8861 50.5542 43.8644 50.8928 45.2112 46.7854Z" fill="#EDEDED"/>
<path d="M43.1634 44.9898C42.4451 44.4511 41.1994 42.7266 40.6664 41.9317C38.5943 44.0038 38.3691 48.0883 38.5155 49.8715C38.5155 63.3331 35.9995 69.6218 34.7415 71.0834L40.0712 67.0114L43.6797 72.9705L47.8765 69.3215L53.9573 79.4593V76.1187L51.9554 69.3215C50.3166 62.0959 45.2614 58.8806 42.9386 58.1761L47.8765 55.3705L48.0448 53.0419C41.3787 53.0419 42.013 47.6738 43.1634 44.9898Z" fill="#EDEDED"/>
<path d="M62.6679 46.7854C61.5268 47.6458 58.9584 49.4675 57.8138 49.8715C59.993 50.5542 64.0147 50.8928 62.6679 46.7854Z" fill="#EDEDED"/>
<path d="M64.7157 44.9898C65.434 44.4511 66.6797 42.7266 67.2127 41.9317C69.2848 44.0038 69.51 48.0883 69.3636 49.8715C69.3636 63.3331 71.8796 69.6218 73.1376 71.0834L67.8079 67.0114L64.1994 72.9705L60.0026 69.3215L53.9218 79.4593V76.1187L55.9237 69.3215C57.5625 62.0959 62.6177 58.8806 64.9405 58.1761L60.0026 55.3705L59.8343 53.0419C66.5004 53.0419 65.8661 47.6738 64.7157 44.9898Z" fill="#EDEDED"/>
<path d="M50.6925 53.7401C50.6925 51.079 52.9615 49.769 54.096 49.4467V68.0126C54.096 63.1546 50.1252 59.4646 48.1397 58.2269L50.6925 56.641V53.7401Z" fill="#EDEDED"/>
<path d="M57.4928 53.7401C57.4928 51.079 55.2238 49.769 54.0893 49.4467V68.0126C54.0893 63.1546 58.0602 59.4646 60.0456 58.2269L57.4928 56.641V53.7401Z" fill="#EDEDED"/>
</g>
<g style="mix-blend-mode:plus-lighter" filter="url(#filter1_if_1_79)">
<rect x="20.0183" y="20.5831" width="69.6892" height="69.6892" rx="9.81538" fill="#FF320E"/>
<rect x="20.0183" y="20.5831" width="69.6892" height="69.6892" rx="9.81538" stroke="#EDEDED" stroke-width="4.80615"/>
<path d="M42.8595 38.4077C46.9112 34.356 52.024 33.3431 54.074 33.3431V46.6727C52.4788 46.6727 51.7211 47.4332 51.5417 47.8135C44.0171 44.63 40.2066 38.5283 39.2419 35.8754C40.1101 37.033 42.0154 38.046 42.8595 38.4077Z" fill="#EDEDED"/>
<path d="M65.0213 38.4077C60.9696 34.356 55.8567 33.3431 53.8067 33.3431V46.6727C55.402 46.6727 56.1596 47.4332 56.3391 47.8135C63.8637 44.63 67.6742 38.5283 68.6389 35.8754C67.7707 37.033 65.8654 38.046 65.0213 38.4077Z" fill="#EDEDED"/>
<path d="M45.2112 46.7854C46.3523 47.6458 48.9207 49.4675 50.0653 49.8715C47.8861 50.5542 43.8644 50.8928 45.2112 46.7854Z" fill="#EDEDED"/>
<path d="M43.1634 44.9898C42.4451 44.4511 41.1994 42.7266 40.6664 41.9317C38.5943 44.0038 38.3691 48.0883 38.5155 49.8715C38.5155 63.3331 35.9995 69.6218 34.7415 71.0834L40.0712 67.0114L43.6797 72.9705L47.8765 69.3215L53.9573 79.4593V76.1187L51.9554 69.3215C50.3166 62.0959 45.2614 58.8806 42.9386 58.1761L47.8765 55.3705L48.0448 53.0419C41.3787 53.0419 42.013 47.6738 43.1634 44.9898Z" fill="#EDEDED"/>
<path d="M62.6679 46.7854C61.5268 47.6458 58.9584 49.4675 57.8138 49.8715C59.993 50.5542 64.0147 50.8928 62.6679 46.7854Z" fill="#EDEDED"/>
<path d="M64.7157 44.9898C65.434 44.4511 66.6797 42.7266 67.2127 41.9317C69.2848 44.0038 69.51 48.0883 69.3636 49.8715C69.3636 63.3331 71.8796 69.6218 73.1376 71.0834L67.8079 67.0114L64.1994 72.9705L60.0026 69.3215L53.9218 79.4593V76.1187L55.9237 69.3215C57.5625 62.0959 62.6177 58.8806 64.9405 58.1761L60.0026 55.3705L59.8343 53.0419C66.5004 53.0419 65.8661 47.6738 64.7157 44.9898Z" fill="#EDEDED"/>
<path d="M50.6925 53.7401C50.6925 51.079 52.9615 49.769 54.096 49.4467V68.0126C54.096 63.1546 50.1252 59.4646 48.1397 58.2269L50.6925 56.641V53.7401Z" fill="#EDEDED"/>
<path d="M57.4928 53.7401C57.4928 51.079 55.2238 49.769 54.0893 49.4467V68.0126C54.0893 63.1546 58.0602 59.4646 60.0456 58.2269L57.4928 56.641V53.7401Z" fill="#EDEDED"/>
</g>
<defs>
<filter id="filter0_i_1_79" x="17.6152" y="18.18" width="74.4954" height="74.4954" filterUnits="userSpaceOnUse" color-interpolation-filters="sRGB">
<feFlood flood-opacity="0" result="BackgroundImageFix"/>
<feBlend mode="normal" in="SourceGraphic" in2="BackgroundImageFix" result="shape"/>
<feColorMatrix in="SourceAlpha" type="matrix" values="0 0 0 0 0 0 0 0 0 0 0 0 0 0 0 0 0 0 127 0" result="hardAlpha"/>
<feOffset/>
<feGaussianBlur stdDeviation="2.20192"/>
<feComposite in2="hardAlpha" operator="arithmetic" k2="-1" k3="1"/>
<feColorMatrix type="matrix" values="0 0 0 0 0.545833 0 0 0 0 0.545833 0 0 0 0 0.545833 0 0 0 1 0"/>
<feBlend mode="normal" in2="shape" result="effect1_innerShadow_1_79"/>
</filter>
<filter id="filter1_if_1_79" x="0.192926" y="0.757684" width="109.34" height="109.34" filterUnits="userSpaceOnUse" color-interpolation-filters="sRGB">
<feFlood flood-opacity="0" result="BackgroundImageFix"/>
<feBlend mode="normal" in="SourceGraphic" in2="BackgroundImageFix" result="shape"/>
<feColorMatrix in="SourceAlpha" type="matrix" values="0 0 0 0 0 0 0 0 0 0 0 0 0 0 0 0 0 0 127 0" result="hardAlpha"/>
<feOffset/>
<feGaussianBlur stdDeviation="2.20192"/>
<feComposite in2="hardAlpha" operator="arithmetic" k2="-1" k3="1"/>
<feColorMatrix type="matrix" values="0 0 0 0 0.545833 0 0 0 0 0.545833 0 0 0 0 0.545833 0 0 0 1 0"/>
<feBlend mode="normal" in2="shape" result="effect1_innerShadow_1_79"/>
<feGaussianBlur stdDeviation="8.71115" result="effect2_foregroundBlur_1_79"/>
</filter>
</defs>
</svg>
