<svg width="307" height="146" viewBox="0 0 307 146" fill="none" xmlns="http://www.w3.org/2000/svg">
<rect x="4.255" y="4.255" width="297.592" height="117.581" rx="58.7905" fill="#E4624E" stroke="#010200" stroke-width="8.51"/>
<mask id="path-2-outside-1_1_2495" maskUnits="userSpaceOnUse" x="51.8978" y="25" width="203" height="81" fill="black">
<rect fill="white" x="51.8978" y="25" width="203" height="81"/>
<path d="M86.1768 77.4503C86.3033 77.5451 86.667 77.5926 87.268 77.5926C87.8689 77.5926 88.3275 77.387 88.6438 76.9758C88.96 76.5647 89.1182 75.8372 89.1182 74.7935V73.8921C89.1182 72.7219 88.9759 71.8838 88.6912 71.3777C88.4382 70.8717 87.9954 70.6186 87.3628 70.6186C86.7619 70.6186 86.3507 70.6819 86.1294 70.8084C86.161 70.9666 86.1768 71.2354 86.1768 71.6149V77.4503ZM86.1768 59.5647C86.3033 59.6596 86.667 59.707 87.268 59.707C87.8689 59.707 88.3275 59.4698 88.6438 58.9954C88.96 58.521 89.1182 57.7461 89.1182 56.6708V56.3861C89.1182 55.2475 88.9759 54.441 88.6912 53.9666C88.4382 53.4605 87.9954 53.2075 87.3628 53.2075C86.7619 53.2075 86.3507 53.2708 86.1294 53.3973C86.161 53.5554 86.1768 53.8243 86.1768 54.2038V59.5647ZM60.4159 41.2996C60.4159 40.5722 61.0168 39.7499 62.2187 38.8326C64.7489 36.9034 69.2084 35.401 75.5973 34.3257C78.9182 33.788 82.5712 33.5192 86.5563 33.5192C96.0447 33.5192 103.224 35.3536 108.095 39.0224C112.365 42.2485 114.5 46.4866 114.5 51.7368C114.5 53.6345 114.167 55.5005 113.503 57.3349C112.839 59.1377 111.89 60.4977 110.657 61.4149C108.98 60.561 107.367 60.134 105.818 60.134C105.09 60.134 104.537 60.2763 104.157 60.561C103.778 60.8456 103.588 61.3675 103.588 62.1266C108.237 62.3163 111.859 63.9926 114.452 67.1554C116.761 70.0335 117.915 73.6075 117.915 77.8772C117.915 84.4875 115.148 89.2949 109.613 92.2995C104.426 95.1144 96.614 96.5219 86.1768 96.5219C78.8708 96.5219 73.5098 96.3005 70.094 95.8577C66.6782 95.3833 64.2112 94.2921 62.6931 92.5842C61.175 90.8763 60.4159 88.2828 60.4159 84.8037V41.2996ZM165.566 33.9461C169.361 33.9461 172.651 34.9741 175.434 37.0299C178.217 39.0857 179.609 42.0112 179.609 45.8066V72.1842C179.609 80.2177 177.157 86.4168 172.255 90.7814C167.353 95.1144 160.569 97.2809 151.903 97.2809C143.268 97.2809 136.547 95.146 131.74 90.8763C126.838 86.6065 124.386 80.3758 124.386 72.1842V38.3582C128.118 35.3852 132.436 33.8987 137.338 33.8987C141.45 33.8987 144.707 34.9899 147.111 37.1722C149.515 39.3229 150.717 42.5964 150.717 46.9926V74.6512C151.065 74.9042 151.46 75.0307 151.903 75.0307C152.377 75.0307 152.709 74.92 152.899 74.6986C153.12 74.4456 153.231 73.987 153.231 73.3228V46.9452C153.231 44.9526 153.136 43.3712 152.946 42.201C152.757 41.0308 152.377 39.8606 151.808 38.6903C155.603 35.5275 160.189 33.9461 165.566 33.9461ZM206.954 81.5777C207.84 81.5777 208.282 81.0875 208.282 80.107C201.293 75.4577 195.948 69.7489 192.247 62.9805C188.578 56.2122 186.522 48.748 186.08 40.588C187.503 38.4689 189.622 36.8401 192.437 35.7015C195.283 34.5629 198.209 33.9936 201.214 33.9936C205.167 33.9936 208.567 34.7685 211.414 36.3182C213.185 41.094 214.64 45.6485 215.778 49.9815C214.228 56.8131 213.454 60.2289 213.454 60.2289C213.327 60.7033 213.264 61.1461 213.264 61.5573C213.264 62.6326 213.833 63.1703 214.972 63.1703C215.351 61.9684 216.237 58.3312 217.628 52.2587C217.976 50.7089 218.435 48.5582 219.004 45.8066C219.605 43.0233 220.364 39.7499 221.282 35.9861C224.191 34.5945 227.512 33.8987 231.244 33.8987C235.767 33.8987 239.373 35.0057 242.061 37.2196C244.749 39.402 246.094 42.5647 246.094 46.708C246.094 52.7805 244.386 58.6949 240.97 64.4512C238.281 69.0056 234.723 73.2596 230.295 77.2131V92.8688C227.67 94.4819 225.314 95.5414 223.227 96.0474C221.139 96.5851 218.941 96.854 216.632 96.854C212.268 96.854 208.836 96.0316 206.337 94.387C203.839 92.7423 202.589 90.2912 202.589 87.0335V78.6837C203.159 79.2531 203.886 79.8856 204.772 80.5814C205.657 81.2456 206.385 81.5777 206.954 81.5777Z"/>
</mask>
<path d="M86.1768 77.4503C86.3033 77.5451 86.667 77.5926 87.268 77.5926C87.8689 77.5926 88.3275 77.387 88.6438 76.9758C88.96 76.5647 89.1182 75.8372 89.1182 74.7935V73.8921C89.1182 72.7219 88.9759 71.8838 88.6912 71.3777C88.4382 70.8717 87.9954 70.6186 87.3628 70.6186C86.7619 70.6186 86.3507 70.6819 86.1294 70.8084C86.161 70.9666 86.1768 71.2354 86.1768 71.6149V77.4503ZM86.1768 59.5647C86.3033 59.6596 86.667 59.707 87.268 59.707C87.8689 59.707 88.3275 59.4698 88.6438 58.9954C88.96 58.521 89.1182 57.7461 89.1182 56.6708V56.3861C89.1182 55.2475 88.9759 54.441 88.6912 53.9666C88.4382 53.4605 87.9954 53.2075 87.3628 53.2075C86.7619 53.2075 86.3507 53.2708 86.1294 53.3973C86.161 53.5554 86.1768 53.8243 86.1768 54.2038V59.5647ZM60.4159 41.2996C60.4159 40.5722 61.0168 39.7499 62.2187 38.8326C64.7489 36.9034 69.2084 35.401 75.5973 34.3257C78.9182 33.788 82.5712 33.5192 86.5563 33.5192C96.0447 33.5192 103.224 35.3536 108.095 39.0224C112.365 42.2485 114.5 46.4866 114.5 51.7368C114.5 53.6345 114.167 55.5005 113.503 57.3349C112.839 59.1377 111.89 60.4977 110.657 61.4149C108.98 60.561 107.367 60.134 105.818 60.134C105.09 60.134 104.537 60.2763 104.157 60.561C103.778 60.8456 103.588 61.3675 103.588 62.1266C108.237 62.3163 111.859 63.9926 114.452 67.1554C116.761 70.0335 117.915 73.6075 117.915 77.8772C117.915 84.4875 115.148 89.2949 109.613 92.2995C104.426 95.1144 96.614 96.5219 86.1768 96.5219C78.8708 96.5219 73.5098 96.3005 70.094 95.8577C66.6782 95.3833 64.2112 94.2921 62.6931 92.5842C61.175 90.8763 60.4159 88.2828 60.4159 84.8037V41.2996ZM165.566 33.9461C169.361 33.9461 172.651 34.9741 175.434 37.0299C178.217 39.0857 179.609 42.0112 179.609 45.8066V72.1842C179.609 80.2177 177.157 86.4168 172.255 90.7814C167.353 95.1144 160.569 97.2809 151.903 97.2809C143.268 97.2809 136.547 95.146 131.74 90.8763C126.838 86.6065 124.386 80.3758 124.386 72.1842V38.3582C128.118 35.3852 132.436 33.8987 137.338 33.8987C141.45 33.8987 144.707 34.9899 147.111 37.1722C149.515 39.3229 150.717 42.5964 150.717 46.9926V74.6512C151.065 74.9042 151.46 75.0307 151.903 75.0307C152.377 75.0307 152.709 74.92 152.899 74.6986C153.12 74.4456 153.231 73.987 153.231 73.3228V46.9452C153.231 44.9526 153.136 43.3712 152.946 42.201C152.757 41.0308 152.377 39.8606 151.808 38.6903C155.603 35.5275 160.189 33.9461 165.566 33.9461ZM206.954 81.5777C207.84 81.5777 208.282 81.0875 208.282 80.107C201.293 75.4577 195.948 69.7489 192.247 62.9805C188.578 56.2122 186.522 48.748 186.08 40.588C187.503 38.4689 189.622 36.8401 192.437 35.7015C195.283 34.5629 198.209 33.9936 201.214 33.9936C205.167 33.9936 208.567 34.7685 211.414 36.3182C213.185 41.094 214.64 45.6485 215.778 49.9815C214.228 56.8131 213.454 60.2289 213.454 60.2289C213.327 60.7033 213.264 61.1461 213.264 61.5573C213.264 62.6326 213.833 63.1703 214.972 63.1703C215.351 61.9684 216.237 58.3312 217.628 52.2587C217.976 50.7089 218.435 48.5582 219.004 45.8066C219.605 43.0233 220.364 39.7499 221.282 35.9861C224.191 34.5945 227.512 33.8987 231.244 33.8987C235.767 33.8987 239.373 35.0057 242.061 37.2196C244.749 39.402 246.094 42.5647 246.094 46.708C246.094 52.7805 244.386 58.6949 240.97 64.4512C238.281 69.0056 234.723 73.2596 230.295 77.2131V92.8688C227.67 94.4819 225.314 95.5414 223.227 96.0474C221.139 96.5851 218.941 96.854 216.632 96.854C212.268 96.854 208.836 96.0316 206.337 94.387C203.839 92.7423 202.589 90.2912 202.589 87.0335V78.6837C203.159 79.2531 203.886 79.8856 204.772 80.5814C205.657 81.2456 206.385 81.5777 206.954 81.5777Z" fill="#FCF2E8"/>
<path d="M86.1768 77.4503H77.6668V81.7053L81.0708 84.2583L86.1768 77.4503ZM88.6912 71.3777L81.0796 75.1835L81.1724 75.369L81.2741 75.5498L88.6912 71.3777ZM86.1294 70.8084L81.9072 63.4197L76.5817 66.4628L77.7846 72.4774L86.1294 70.8084ZM86.1768 59.5647H77.6668V63.8197L81.0708 66.3727L86.1768 59.5647ZM88.6912 53.9666L81.0796 57.7724L81.2258 58.0647L81.3939 58.3449L88.6912 53.9666ZM86.1294 53.3973L81.9072 46.0085L76.5817 49.0517L77.7846 55.0662L86.1294 53.3973ZM62.2187 38.8326L57.0587 32.0655L57.0559 32.0676L62.2187 38.8326ZM75.5973 34.3257L74.2372 25.9251L74.211 25.9293L74.1848 25.9337L75.5973 34.3257ZM108.095 39.0224L113.225 32.2326L113.215 32.225L108.095 39.0224ZM113.503 57.3349L121.489 60.2769L121.497 60.2545L121.505 60.2321L113.503 57.3349ZM110.657 61.4149L106.794 68.9977L111.498 71.3942L115.735 68.2439L110.657 61.4149ZM103.588 62.1266H95.0779V70.2963L103.241 70.6295L103.588 62.1266ZM114.452 67.1554L121.09 61.8303L121.062 61.7947L121.033 61.7594L114.452 67.1554ZM109.613 92.2995L113.672 99.7791L113.673 99.7786L109.613 92.2995ZM70.094 95.8577L68.9233 104.287L68.9617 104.292L69 104.297L70.094 95.8577ZM81.0708 84.2583C82.2725 85.1595 83.4262 85.5349 83.9435 85.6851C84.558 85.8635 85.0916 85.9496 85.4438 85.9955C86.1463 86.0872 86.7997 86.1026 87.268 86.1026V69.0826C87.1353 69.0826 87.3063 69.0743 87.6451 69.1185C87.8155 69.1407 88.1969 69.1972 88.6888 69.34C89.0836 69.4546 90.1444 69.7884 91.2828 70.6423L81.0708 84.2583ZM87.268 86.1026C90.0373 86.1026 93.1935 85.0187 95.389 82.1645L81.8985 71.7872C82.5699 70.9144 83.4842 70.1649 84.5815 69.673C85.6399 69.1985 86.5996 69.0826 87.268 69.0826V86.1026ZM95.389 82.1645C97.5404 79.3677 97.6282 76.1254 97.6282 74.7935H80.6082C80.6082 74.9299 80.5938 74.7281 80.6838 74.3141C80.7641 73.9447 81.0309 72.9151 81.8985 71.7872L95.389 82.1645ZM97.6282 74.7935V73.8921H80.6082V74.7935H97.6282ZM97.6282 73.8921C97.6282 72.4644 97.5299 69.7328 96.1083 67.2056L81.2741 75.5498C81.0072 75.0753 80.854 74.6686 80.7674 74.3958C80.6796 74.1197 80.6392 73.9146 80.6215 73.8106C80.5893 73.6209 80.6082 73.6203 80.6082 73.8921H97.6282ZM96.3028 67.5719C95.5103 65.987 94.229 64.4697 92.3915 63.4197C90.6095 62.4014 88.8078 62.1086 87.3628 62.1086V79.1286C86.5504 79.1286 85.2864 78.9624 83.9472 78.1972C82.5525 77.4002 81.6191 76.2624 81.0796 75.1835L96.3028 67.5719ZM87.3628 62.1086C86.8018 62.1086 86.0857 62.1357 85.3098 62.255C84.6412 62.3579 83.3148 62.6153 81.9072 63.4197L90.3515 78.1972C89.7091 78.5642 89.1455 78.7657 88.7763 78.8765C88.396 78.9906 88.0893 79.0477 87.8978 79.0771C87.533 79.1333 87.323 79.1286 87.3628 79.1286V62.1086ZM77.7846 72.4774C77.7315 72.2117 77.7051 72.0041 77.6922 71.8875C77.6784 71.7635 77.6723 71.6732 77.6696 71.6284C77.6647 71.5446 77.6668 71.5303 77.6668 71.6149H94.6868C94.6868 71.2221 94.6869 70.2035 94.4741 69.1395L77.7846 72.4774ZM77.6668 71.6149V77.4503H94.6868V71.6149H77.6668ZM81.0708 66.3727C82.2725 67.274 83.4262 67.6493 83.9435 67.7995C84.558 67.9779 85.0916 68.064 85.4438 68.11C86.1463 68.2016 86.7997 68.217 87.268 68.217V51.197C87.1353 51.197 87.3063 51.1887 87.6451 51.2329C87.8155 51.2552 88.1969 51.3116 88.6888 51.4544C89.0836 51.569 90.1444 51.9029 91.2828 52.7567L81.0708 66.3727ZM87.268 68.217C90.531 68.217 93.7309 66.7063 95.7245 63.7159L81.563 54.2749C82.1192 53.4407 82.9719 52.5812 84.1529 51.9704C85.3159 51.3688 86.4312 51.197 87.268 51.197V68.217ZM95.7245 63.7159C97.4881 61.0705 97.6282 58.1609 97.6282 56.6708H80.6082C80.6082 56.8258 80.5938 56.6883 80.6614 56.3568C80.7231 56.0547 80.9238 55.2337 81.563 54.2749L95.7245 63.7159ZM97.6282 56.6708V56.3861H80.6082V56.6708H97.6282ZM97.6282 56.3861C97.6282 55.0221 97.5448 52.1821 95.9885 49.5882L81.3939 58.3449C81.0849 57.8298 80.9064 57.3809 80.8047 57.0758C80.7018 56.767 80.6532 56.5323 80.6309 56.4062C80.5899 56.1739 80.6082 56.1365 80.6082 56.3861H97.6282ZM96.3028 50.1608C95.5103 48.5759 94.229 47.0586 92.3915 46.0085C90.6095 44.9903 88.8078 44.6975 87.3628 44.6975V61.7175C86.5504 61.7175 85.2864 61.5513 83.9472 60.786C82.5525 59.989 81.6191 58.8513 81.0796 57.7724L96.3028 50.1608ZM87.3628 44.6975C86.8018 44.6975 86.0857 44.7245 85.3098 44.8439C84.6412 44.9468 83.3148 45.2042 81.9072 46.0085L90.3515 60.786C89.7091 61.1531 89.1455 61.3546 88.7763 61.4654C88.396 61.5794 88.0893 61.6365 87.8978 61.666C87.533 61.7221 87.323 61.7175 87.3628 61.7175V44.6975ZM77.7846 55.0662C77.7315 54.8006 77.7051 54.5929 77.6922 54.4764C77.6784 54.3523 77.6723 54.262 77.6696 54.2172C77.6647 54.1335 77.6668 54.1192 77.6668 54.2038H94.6868C94.6868 53.811 94.6869 52.7924 94.4741 51.7283L77.7846 55.0662ZM77.6668 54.2038V59.5647H94.6868V54.2038H77.6668ZM68.9259 41.2996C68.9259 43.3356 68.0876 44.6793 67.7375 45.1583C67.3829 45.6436 67.1482 45.7757 67.3815 45.5977L57.0559 32.0676C56.0873 32.8068 54.9512 33.8087 53.9957 35.1163C53.0447 36.4176 51.9059 38.5362 51.9059 41.2996H68.9259ZM67.3787 45.5998C68.1619 45.0026 70.8495 43.7545 77.0098 42.7176L74.1848 25.9337C67.5674 27.0475 61.3359 28.8041 57.0587 32.0655L67.3787 45.5998ZM76.9574 42.7263C79.7555 42.2733 82.9462 42.0292 86.5563 42.0292V25.0092C82.1963 25.0092 78.0809 25.3027 74.2372 25.9251L76.9574 42.7263ZM86.5563 42.0292C95.1599 42.0292 100.198 43.7281 102.975 45.8198L113.215 32.225C106.251 26.9791 96.9295 25.0092 86.5563 25.0092V42.0292ZM102.965 45.8123C105.154 47.4665 105.99 49.2145 105.99 51.7368H123.01C123.01 43.7587 119.575 37.0305 113.225 32.2326L102.965 45.8123ZM105.99 51.7368C105.99 52.6188 105.839 53.5058 105.502 54.4378L121.505 60.2321C122.496 57.4953 123.01 54.6502 123.01 51.7368H105.99ZM105.518 54.393C105.399 54.7169 105.313 54.8401 105.314 54.8378C105.316 54.8355 105.338 54.8046 105.384 54.7559C105.432 54.7066 105.496 54.6473 105.579 54.586L115.735 68.2439C118.59 66.1204 120.396 63.2428 121.489 60.2769L105.518 54.393ZM114.52 53.8322C111.9 52.4975 108.968 51.624 105.818 51.624V68.644C105.767 68.644 106.061 68.6245 106.794 68.9977L114.52 53.8322ZM105.818 51.624C104.174 51.624 101.503 51.914 99.0512 53.753L109.263 67.369C107.57 68.6387 106.006 68.644 105.818 68.644V51.624ZM99.0512 53.753C95.4993 56.4169 95.0779 60.3103 95.0779 62.1266H112.098C112.098 62.4247 112.056 65.2744 109.263 67.369L99.0512 53.753ZM103.241 70.6295C105.835 70.7354 107.038 71.5347 107.872 72.5514L121.033 61.7594C116.679 56.4505 110.64 53.8973 103.935 53.6236L103.241 70.6295ZM107.814 72.4804C108.726 73.6167 109.405 75.2246 109.405 77.8772H126.425C126.425 71.9904 124.796 66.4503 121.09 61.8303L107.814 72.4804ZM109.405 77.8772C109.405 79.9786 108.974 81.31 108.464 82.1948C107.968 83.0577 107.129 83.9648 105.553 84.8205L113.673 99.7786C117.632 97.6296 120.944 94.6307 123.215 90.6861C125.473 86.7635 126.425 82.3861 126.425 77.8772H109.405ZM105.554 84.82C102.236 86.6205 96.1333 88.0119 86.1768 88.0119V105.032C97.0947 105.032 106.616 103.608 113.672 99.7791L105.554 84.82ZM86.1768 88.0119C78.9257 88.0119 74.0266 87.7863 71.188 87.4183L69 104.297C72.993 104.815 78.8158 105.032 86.1768 105.032V88.0119ZM71.2647 87.4286C70.1342 87.2716 69.4658 87.0519 69.1243 86.9008C68.8059 86.76 68.8706 86.7246 69.0536 86.9305L56.3327 98.2379C59.734 102.064 64.4863 103.671 68.9233 104.287L71.2647 87.4286ZM69.0536 86.9305C69.2698 87.1737 69.2425 87.2749 69.1526 86.9677C69.0546 86.6331 68.9259 85.9536 68.9259 84.8037H51.9059C51.9059 89.3154 52.8621 94.3336 56.3327 98.2379L69.0536 86.9305ZM68.9259 84.8037V41.2996H51.9059V84.8037H68.9259ZM172.255 90.7814L177.891 97.1577L177.903 97.1475L177.914 97.1373L172.255 90.7814ZM131.74 90.8763L137.391 84.5135L137.36 84.4861L137.329 84.4591L131.74 90.8763ZM124.386 38.3582L119.084 31.702L115.876 34.2573V38.3582H124.386ZM147.111 37.1722L141.391 43.4728L141.414 43.4936L141.437 43.5142L147.111 37.1722ZM150.717 74.6512H142.207V78.9847L145.711 81.5335L150.717 74.6512ZM152.899 74.6986L146.494 69.0948L146.466 69.1274L146.438 69.1604L152.899 74.6986ZM151.808 38.6903L146.36 32.1528L141.24 36.4197L144.155 42.4132L151.808 38.6903ZM165.566 42.4561C167.727 42.4561 169.201 43.006 170.378 43.875L180.49 30.1847C176.1 26.9421 170.995 25.4361 165.566 25.4361V42.4561ZM170.378 43.875C170.723 44.1301 170.826 44.3073 170.88 44.4214C170.947 44.5623 171.099 44.9581 171.099 45.8066H188.119C188.119 39.6138 185.678 34.0169 180.49 30.1847L170.378 43.875ZM171.099 45.8066V72.1842H188.119V45.8066H171.099ZM171.099 72.1842C171.099 78.3786 169.287 82.03 166.596 84.4255L177.914 97.1373C185.028 90.8036 188.119 82.0568 188.119 72.1842H171.099ZM166.619 84.4051C163.719 86.9688 159.178 88.7709 151.903 88.7709V105.791C161.96 105.791 170.987 103.26 177.891 97.1577L166.619 84.4051ZM151.903 88.7709C144.628 88.7709 140.174 86.9852 137.391 84.5135L126.089 97.2391C132.921 103.307 141.908 105.791 151.903 105.791V88.7709ZM137.329 84.4591C134.746 82.2091 132.896 78.6046 132.896 72.1842H115.876C115.876 82.1471 118.929 91.004 126.151 97.2935L137.329 84.4591ZM132.896 72.1842V38.3582H115.876V72.1842H132.896ZM129.689 45.0144C131.87 43.2768 134.305 42.4087 137.338 42.4087V25.3887C130.567 25.3887 124.367 27.4936 119.084 31.702L129.689 45.0144ZM137.338 42.4087C139.919 42.4087 140.937 43.0613 141.391 43.4728L152.831 30.8715C148.477 26.9184 142.981 25.3887 137.338 25.3887V42.4087ZM141.437 43.5142C141.45 43.5262 142.207 44.1004 142.207 46.9926H159.227C159.227 41.0923 157.58 35.1196 152.785 30.8302L141.437 43.5142ZM142.207 46.9926V74.6512H159.227V46.9926H142.207ZM145.711 81.5335C147.559 82.8771 149.718 83.5407 151.903 83.5407V66.5207C153.202 66.5207 154.57 66.9313 155.722 67.7689L145.711 81.5335ZM151.903 83.5407C153.336 83.5407 156.772 83.2561 159.36 80.2369L146.438 69.1604C148.646 66.584 151.418 66.5207 151.903 66.5207V83.5407ZM159.303 80.3025C161.699 77.5651 161.741 74.3244 161.741 73.3228H144.721C144.721 73.232 144.724 72.7976 144.876 72.1681C145.02 71.5691 145.41 70.3341 146.494 69.0948L159.303 80.3025ZM161.741 73.3228V46.9452H144.721V73.3228H161.741ZM161.741 46.9452C161.741 44.7587 161.642 42.6601 161.347 40.8388L144.546 43.5632C144.63 44.0824 144.721 45.1465 144.721 46.9452H161.741ZM161.347 40.8388C161.012 38.7737 160.357 36.8116 159.46 34.9675L144.155 42.4132C144.397 42.9095 144.501 43.2879 144.546 43.5632L161.347 40.8388ZM157.256 45.2279C159.383 43.4553 161.991 42.4561 165.566 42.4561V25.4361C158.387 25.4361 151.823 27.5997 146.36 32.1528L157.256 45.2279ZM208.282 80.107H216.792V75.5469L212.996 73.0213L208.282 80.107ZM192.247 62.9805L184.766 67.0359L184.773 67.0494L184.78 67.0629L192.247 62.9805ZM186.08 40.588L179.015 35.8432L177.428 38.2065L177.582 41.0491L186.08 40.588ZM192.437 35.7015L189.276 27.8002L189.261 27.8063L189.246 27.8124L192.437 35.7015ZM211.414 36.3182L219.393 33.3591L218.284 30.3691L215.483 28.8442L211.414 36.3182ZM215.778 49.9815L224.077 51.8641L224.538 49.833L224.009 47.8187L215.778 49.9815ZM213.454 60.2289L221.676 62.4216L221.717 62.2673L221.753 62.1116L213.454 60.2289ZM214.972 63.1703V71.6803H221.209L223.087 65.7329L214.972 63.1703ZM217.628 52.2587L225.923 54.1596L225.928 54.1412L225.932 54.1227L217.628 52.2587ZM219.004 45.8066L210.686 44.0106L210.678 44.0465L210.671 44.0824L219.004 45.8066ZM221.282 35.9861L217.61 28.309L213.969 30.0502L213.013 33.9712L221.282 35.9861ZM242.061 37.2196L236.651 43.7888L236.674 43.8078L236.698 43.8267L242.061 37.2196ZM240.97 64.4512L233.651 60.1084L233.646 60.1169L233.641 60.1254L240.97 64.4512ZM230.295 77.2131L224.628 70.8651L221.785 73.4028V77.2131H230.295ZM230.295 92.8688L234.751 100.119L238.805 97.6279V92.8688H230.295ZM223.227 96.0474L221.222 87.777L221.163 87.7913L221.104 87.8064L223.227 96.0474ZM202.589 78.6837L208.607 72.6663L194.079 58.1388V78.6837H202.589ZM204.772 80.5814L199.514 87.273L199.589 87.3321L199.666 87.3894L204.772 80.5814ZM206.954 90.0877C208.945 90.0877 211.933 89.4969 214.266 86.9142C216.45 84.496 216.792 81.7071 216.792 80.107H199.772C199.772 79.4874 199.894 77.4338 201.635 75.5059C203.525 73.4134 205.849 73.0677 206.954 73.0677V90.0877ZM212.996 73.0213C207.05 69.0665 202.696 64.3526 199.714 58.8982L184.78 67.0629C189.199 75.1452 195.536 81.8489 203.569 87.1927L212.996 73.0213ZM199.729 58.9251C196.697 53.3324 194.956 47.1074 194.577 40.1269L177.582 41.0491C178.089 50.3886 180.459 59.0919 184.766 67.0359L199.729 58.9251ZM193.144 45.3328C193.451 44.8753 194.085 44.2147 195.628 43.5905L189.246 27.8124C185.159 29.4655 181.554 32.0626 179.015 35.8432L193.144 45.3328ZM195.597 43.6028C197.46 42.8579 199.314 42.5036 201.214 42.5036V25.4836C197.104 25.4836 193.107 26.2678 189.276 27.8002L195.597 43.6028ZM201.214 42.5036C204.055 42.5036 205.993 43.0564 207.344 43.7923L215.483 28.8442C211.141 26.4805 206.279 25.4836 201.214 25.4836V42.5036ZM203.435 39.2773C205.122 43.8266 206.489 48.1141 207.548 52.1442L224.009 47.8187C222.791 43.1828 221.248 38.3615 219.393 33.3591L203.435 39.2773ZM207.479 48.0988C207.476 48.1121 207.473 48.1255 207.47 48.1388C207.467 48.1521 207.464 48.1654 207.461 48.1787C207.458 48.192 207.455 48.2053 207.452 48.2185C207.449 48.2318 207.446 48.245 207.443 48.2583C207.44 48.2715 207.437 48.2848 207.434 48.298C207.431 48.3112 207.428 48.3244 207.425 48.3376C207.422 48.3507 207.419 48.3639 207.416 48.3771C207.413 48.3902 207.41 48.4034 207.407 48.4165C207.404 48.4297 207.401 48.4428 207.398 48.4559C207.395 48.469 207.392 48.4821 207.389 48.4952C207.386 48.5083 207.383 48.5213 207.38 48.5344C207.377 48.5474 207.374 48.5605 207.371 48.5735C207.368 48.5865 207.366 48.5996 207.363 48.6126C207.36 48.6256 207.357 48.6386 207.354 48.6515C207.351 48.6645 207.348 48.6775 207.345 48.6904C207.342 48.7034 207.339 48.7163 207.336 48.7293C207.333 48.7422 207.33 48.7551 207.327 48.768C207.324 48.7809 207.321 48.7938 207.319 48.8067C207.316 48.8195 207.313 48.8324 207.31 48.8452C207.307 48.8581 207.304 48.8709 207.301 48.8837C207.298 48.8966 207.295 48.9094 207.292 48.9222C207.289 48.935 207.287 48.9477 207.284 48.9605C207.281 48.9733 207.278 48.986 207.275 48.9988C207.272 49.0115 207.269 49.0243 207.266 49.037C207.263 49.0497 207.261 49.0624 207.258 49.0751C207.255 49.0878 207.252 49.1005 207.249 49.1131C207.246 49.1258 207.243 49.1384 207.24 49.1511C207.238 49.1637 207.235 49.1763 207.232 49.189C207.229 49.2016 207.226 49.2142 207.223 49.2268C207.22 49.2393 207.218 49.2519 207.215 49.2645C207.212 49.277 207.209 49.2896 207.206 49.3021C207.203 49.3147 207.2 49.3272 207.198 49.3397C207.195 49.3522 207.192 49.3647 207.189 49.3772C207.186 49.3897 207.183 49.4021 207.181 49.4146C207.178 49.427 207.175 49.4395 207.172 49.4519C207.169 49.4644 207.167 49.4768 207.164 49.4892C207.161 49.5016 207.158 49.514 207.155 49.5264C207.152 49.5387 207.15 49.5511 207.147 49.5634C207.144 49.5758 207.141 49.5881 207.138 49.6005C207.136 49.6128 207.133 49.6251 207.13 49.6374C207.127 49.6497 207.125 49.662 207.122 49.6743C207.119 49.6865 207.116 49.6988 207.113 49.7111C207.111 49.7233 207.108 49.7355 207.105 49.7478C207.102 49.76 207.1 49.7722 207.097 49.7844C207.094 49.7966 207.091 49.8088 207.088 49.8209C207.086 49.8331 207.083 49.8453 207.08 49.8574C207.077 49.8696 207.075 49.8817 207.072 49.8938C207.069 49.9059 207.066 49.918 207.064 49.9301C207.061 49.9422 207.058 49.9543 207.055 49.9664C207.053 49.9784 207.05 49.9905 207.047 50.0025C207.045 50.0146 207.042 50.0266 207.039 50.0386C207.036 50.0506 207.034 50.0626 207.031 50.0746C207.028 50.0866 207.025 50.0986 207.023 50.1105C207.02 50.1225 207.017 50.1344 207.015 50.1464C207.012 50.1583 207.009 50.1702 207.007 50.1821C207.004 50.194 207.001 50.2059 206.998 50.2178C206.996 50.2297 206.993 50.2416 206.99 50.2534C206.988 50.2653 206.985 50.2771 206.982 50.289C206.98 50.3008 206.977 50.3126 206.974 50.3244C206.972 50.3362 206.969 50.348 206.966 50.3598C206.964 50.3716 206.961 50.3834 206.958 50.3951C206.956 50.4069 206.953 50.4186 206.95 50.4303C206.948 50.4421 206.945 50.4538 206.942 50.4655C206.94 50.4772 206.937 50.4889 206.934 50.5005C206.932 50.5122 206.929 50.5239 206.926 50.5355C206.924 50.5472 206.921 50.5588 206.918 50.5704C206.916 50.5821 206.913 50.5937 206.911 50.6053C206.908 50.6169 206.905 50.6284 206.903 50.64C206.9 50.6516 206.897 50.6631 206.895 50.6747C206.892 50.6862 206.89 50.6978 206.887 50.7093C206.884 50.7208 206.882 50.7323 206.879 50.7438C206.876 50.7553 206.874 50.7668 206.871 50.7782C206.869 50.7897 206.866 50.8012 206.863 50.8126C206.861 50.824 206.858 50.8355 206.856 50.8469C206.853 50.8583 206.851 50.8697 206.848 50.8811C206.845 50.8925 206.843 50.9038 206.84 50.9152C206.838 50.9266 206.835 50.9379 206.832 50.9493C206.83 50.9606 206.827 50.9719 206.825 50.9832C206.822 50.9945 206.82 51.0058 206.817 51.0171C206.815 51.0284 206.812 51.0397 206.809 51.0509C206.807 51.0622 206.804 51.0734 206.802 51.0847C206.799 51.0959 206.797 51.1071 206.794 51.1183C206.792 51.1295 206.789 51.1407 206.787 51.1519C206.784 51.1631 206.781 51.1743 206.779 51.1854C206.776 51.1966 206.774 51.2077 206.771 51.2188C206.769 51.23 206.766 51.2411 206.764 51.2522C206.761 51.2633 206.759 51.2744 206.756 51.2854C206.754 51.2965 206.751 51.3076 206.749 51.3186C206.746 51.3297 206.744 51.3407 206.741 51.3517C206.739 51.3628 206.736 51.3738 206.734 51.3848C206.731 51.3958 206.729 51.4068 206.726 51.4177C206.724 51.4287 206.721 51.4397 206.719 51.4506C206.716 51.4615 206.714 51.4725 206.711 51.4834C206.709 51.4943 206.706 51.5052 206.704 51.5161C206.701 51.527 206.699 51.5379 206.696 51.5488C206.694 51.5596 206.692 51.5705 206.689 51.5813C206.687 51.5922 206.684 51.603 206.682 51.6138C206.679 51.6246 206.677 51.6354 206.674 51.6462C206.672 51.657 206.669 51.6678 206.667 51.6785C206.665 51.6893 206.662 51.7001 206.66 51.7108C206.657 51.7215 206.655 51.7322 206.652 51.743C206.65 51.7537 206.648 51.7644 206.645 51.7751C206.643 51.7857 206.64 51.7964 206.638 51.8071C206.635 51.8177 206.633 51.8284 206.631 51.839C206.628 51.8496 206.626 51.8603 206.623 51.8709C206.621 51.8815 206.619 51.8921 206.616 51.9026C206.614 51.9132 206.611 51.9238 206.609 51.9343C206.607 51.9449 206.604 51.9554 206.602 51.966C206.599 51.9765 206.597 51.987 206.595 51.9975C206.592 52.008 206.59 52.0185 206.588 52.029C206.585 52.0395 206.583 52.0499 206.58 52.0604C206.578 52.0708 206.576 52.0813 206.573 52.0917C206.571 52.1021 206.569 52.1125 206.566 52.1229C206.564 52.1333 206.562 52.1437 206.559 52.1541C206.557 52.1644 206.554 52.1748 206.552 52.1852C206.55 52.1955 206.547 52.2058 206.545 52.2162C206.543 52.2265 206.54 52.2368 206.538 52.2471C206.536 52.2574 206.533 52.2677 206.531 52.2779C206.529 52.2882 206.526 52.2984 206.524 52.3087C206.522 52.3189 206.519 52.3292 206.517 52.3394C206.515 52.3496 206.513 52.3598 206.51 52.37C206.508 52.3802 206.506 52.3903 206.503 52.4005C206.501 52.4107 206.499 52.4208 206.496 52.431C206.494 52.4411 206.492 52.4512 206.489 52.4613C206.487 52.4714 206.485 52.4815 206.483 52.4916C206.48 52.5017 206.478 52.5118 206.476 52.5218C206.473 52.5319 206.471 52.542 206.469 52.552C206.467 52.562 206.464 52.572 206.462 52.582C206.46 52.5921 206.458 52.602 206.455 52.612C206.453 52.622 206.451 52.632 206.449 52.6419C206.446 52.6519 206.444 52.6618 206.442 52.6718C206.439 52.6817 206.437 52.6916 206.435 52.7015C206.433 52.7114 206.43 52.7213 206.428 52.7312C206.426 52.7411 206.424 52.7509 206.422 52.7608C206.419 52.7706 206.417 52.7805 206.415 52.7903C206.413 52.8001 206.41 52.8099 206.408 52.8197C206.406 52.8295 206.404 52.8393 206.402 52.8491C206.399 52.8588 206.397 52.8686 206.395 52.8784C206.393 52.8881 206.39 52.8978 206.388 52.9076C206.386 52.9173 206.384 52.927 206.382 52.9367C206.379 52.9464 206.377 52.9561 206.375 52.9657C206.373 52.9754 206.371 52.985 206.368 52.9947C206.366 53.0043 206.364 53.014 206.362 53.0236C206.36 53.0332 206.358 53.0428 206.355 53.0524C206.353 53.062 206.351 53.0716 206.349 53.0811C206.347 53.0907 206.345 53.1002 206.342 53.1098C206.34 53.1193 206.338 53.1288 206.336 53.1383C206.334 53.1479 206.332 53.1574 206.329 53.1668C206.327 53.1763 206.325 53.1858 206.323 53.1953C206.321 53.2047 206.319 53.2142 206.317 53.2236C206.314 53.233 206.312 53.2425 206.31 53.2519C206.308 53.2613 206.306 53.2707 206.304 53.28C206.302 53.2894 206.299 53.2988 206.297 53.3082C206.295 53.3175 206.293 53.3269 206.291 53.3362C206.289 53.3455 206.287 53.3548 206.285 53.3641C206.283 53.3734 206.28 53.3827 206.278 53.392C206.276 53.4013 206.274 53.4105 206.272 53.4198C206.27 53.4291 206.268 53.4383 206.266 53.4475C206.264 53.4567 206.262 53.466 206.259 53.4752C206.257 53.4844 206.255 53.4935 206.253 53.5027C206.251 53.5119 206.249 53.521 206.247 53.5302C206.245 53.5393 206.243 53.5485 206.241 53.5576C206.239 53.5667 206.237 53.5758 206.235 53.5849C206.233 53.594 206.23 53.6031 206.228 53.6122C206.226 53.6212 206.224 53.6303 206.222 53.6393C206.22 53.6484 206.218 53.6574 206.216 53.6664C206.214 53.6754 206.212 53.6844 206.21 53.6934C206.208 53.7024 206.206 53.7114 206.204 53.7204C206.202 53.7293 206.2 53.7383 206.198 53.7472C206.196 53.7562 206.194 53.7651 206.192 53.774C206.19 53.7829 206.188 53.7918 206.186 53.8007C206.184 53.8096 206.182 53.8185 206.18 53.8273C206.178 53.8362 206.176 53.845 206.174 53.8539C206.172 53.8627 206.17 53.8715 206.168 53.8803C206.166 53.8891 206.164 53.8979 206.162 53.9067C206.16 53.9155 206.158 53.9243 206.156 53.933C206.154 53.9418 206.152 53.9505 206.15 53.9593C206.148 53.968 206.146 53.9767 206.144 53.9854C206.142 53.9941 206.14 54.0028 206.138 54.0115C206.136 54.0202 206.134 54.0288 206.132 54.0375C206.13 54.0461 206.128 54.0548 206.126 54.0634C206.124 54.072 206.122 54.0806 206.12 54.0892C206.118 54.0978 206.116 54.1064 206.114 54.115C206.112 54.1236 206.11 54.1321 206.109 54.1407C206.107 54.1492 206.105 54.1578 206.103 54.1663C206.101 54.1748 206.099 54.1833 206.097 54.1918C206.095 54.2003 206.093 54.2088 206.091 54.2173C206.089 54.2257 206.087 54.2342 206.085 54.2426C206.083 54.2511 206.082 54.2595 206.08 54.2679C206.078 54.2763 206.076 54.2847 206.074 54.2931C206.072 54.3015 206.07 54.3099 206.068 54.3183C206.066 54.3266 206.064 54.335 206.063 54.3433C206.061 54.3517 206.059 54.36 206.057 54.3683C206.055 54.3766 206.053 54.3849 206.051 54.3932C206.049 54.4015 206.047 54.4098 206.046 54.418C206.044 54.4263 206.042 54.4345 206.04 54.4428C206.038 54.451 206.036 54.4592 206.034 54.4674C206.033 54.4756 206.031 54.4838 206.029 54.492C206.027 54.5002 206.025 54.5084 206.023 54.5165C206.021 54.5247 206.02 54.5328 206.018 54.541C206.016 54.5491 206.014 54.5572 206.012 54.5653C206.01 54.5734 206.008 54.5815 206.007 54.5896C206.005 54.5977 206.003 54.6057 206.001 54.6138C205.999 54.6218 205.998 54.6299 205.996 54.6379C205.994 54.6459 205.992 54.6539 205.99 54.6619C205.988 54.6699 205.987 54.6779 205.985 54.6859C205.983 54.6939 205.981 54.7018 205.979 54.7098C205.978 54.7177 205.976 54.7257 205.974 54.7336C205.972 54.7415 205.97 54.7494 205.969 54.7573C205.967 54.7652 205.965 54.7731 205.963 54.781C205.961 54.7889 205.96 54.7967 205.958 54.8046C205.956 54.8124 205.954 54.8202 205.953 54.828C205.951 54.8359 205.949 54.8437 205.947 54.8515C205.945 54.8593 205.944 54.867 205.942 54.8748C205.94 54.8826 205.938 54.8903 205.937 54.8981C205.935 54.9058 205.933 54.9135 205.931 54.9212C205.93 54.929 205.928 54.9367 205.926 54.9443C205.924 54.952 205.923 54.9597 205.921 54.9674C205.919 54.975 205.917 54.9827 205.916 54.9903C205.914 54.9979 205.912 55.0056 205.911 55.0132C205.909 55.0208 205.907 55.0284 205.905 55.036C205.904 55.0436 205.902 55.0511 205.9 55.0587C205.899 55.0662 205.897 55.0738 205.895 55.0813C205.893 55.0888 205.892 55.0964 205.89 55.1039C205.888 55.1114 205.887 55.1189 205.885 55.1263C205.883 55.1338 205.882 55.1413 205.88 55.1487C205.878 55.1562 205.876 55.1636 205.875 55.1711C205.873 55.1785 205.871 55.1859 205.87 55.1933C205.868 55.2007 205.866 55.2081 205.865 55.2155C205.863 55.2229 205.861 55.2302 205.86 55.2376C205.858 55.2449 205.856 55.2522 205.855 55.2596C205.853 55.2669 205.851 55.2742 205.85 55.2815C205.848 55.2888 205.846 55.2961 205.845 55.3034C205.843 55.3106 205.841 55.3179 205.84 55.3251C205.838 55.3324 205.837 55.3396 205.835 55.3468C205.833 55.354 205.832 55.3612 205.83 55.3684C205.828 55.3756 205.827 55.3828 205.825 55.39C205.823 55.3971 205.822 55.4043 205.82 55.4114C205.819 55.4186 205.817 55.4257 205.815 55.4328C205.814 55.4399 205.812 55.447 205.811 55.4541C205.809 55.4612 205.807 55.4683 205.806 55.4753C205.804 55.4824 205.803 55.4895 205.801 55.4965C205.799 55.5035 205.798 55.5106 205.796 55.5176C205.795 55.5246 205.793 55.5316 205.791 55.5386C205.79 55.5455 205.788 55.5525 205.787 55.5595C205.785 55.5664 205.783 55.5734 205.782 55.5803C205.78 55.5872 205.779 55.5942 205.777 55.6011C205.776 55.608 205.774 55.6149 205.773 55.6217C205.771 55.6286 205.769 55.6355 205.768 55.6423C205.766 55.6492 205.765 55.656 205.763 55.6629C205.762 55.6697 205.76 55.6765 205.759 55.6833C205.757 55.6901 205.755 55.6969 205.754 55.7037C205.752 55.7105 205.751 55.7172 205.749 55.724C205.748 55.7307 205.746 55.7375 205.745 55.7442C205.743 55.7509 205.742 55.7576 205.74 55.7643C205.739 55.771 205.737 55.7777 205.736 55.7844C205.734 55.791 205.733 55.7977 205.731 55.8043C205.73 55.811 205.728 55.8176 205.727 55.8242C205.725 55.8309 205.724 55.8375 205.722 55.8441C205.721 55.8507 205.719 55.8572 205.718 55.8638C205.716 55.8704 205.715 55.8769 205.713 55.8835C205.712 55.89 205.71 55.8965 205.709 55.903C205.707 55.9096 205.706 55.9161 205.704 55.9226C205.703 55.929 205.701 55.9355 205.7 55.942C205.698 55.9484 205.697 55.9549 205.695 55.9613C205.694 55.9678 205.693 55.9742 205.691 55.9806C205.69 55.987 205.688 55.9934 205.687 55.9998C205.685 56.0062 205.684 56.0126 205.682 56.0189C205.681 56.0253 205.68 56.0316 205.678 56.0379C205.677 56.0443 205.675 56.0506 205.674 56.0569C205.672 56.0632 205.671 56.0695 205.67 56.0758C205.668 56.0821 205.667 56.0883 205.665 56.0946C205.664 56.1008 205.662 56.1071 205.661 56.1133C205.66 56.1195 205.658 56.1258 205.657 56.132C205.655 56.1382 205.654 56.1444 205.653 56.1505C205.651 56.1567 205.65 56.1629 205.648 56.169C205.647 56.1752 205.646 56.1813 205.644 56.1874C205.643 56.1936 205.641 56.1997 205.64 56.2058C205.639 56.2119 205.637 56.2179 205.636 56.224C205.635 56.2301 205.633 56.2361 205.632 56.2422C205.63 56.2482 205.629 56.2543 205.628 56.2603C205.626 56.2663 205.625 56.2723 205.624 56.2783C205.622 56.2843 205.621 56.2903 205.62 56.2963C205.618 56.3022 205.617 56.3082 205.615 56.3141C205.614 56.3201 205.613 56.326 205.611 56.3319C205.61 56.3378 205.609 56.3437 205.607 56.3496C205.606 56.3555 205.605 56.3614 205.603 56.3672C205.602 56.3731 205.601 56.379 205.599 56.3848C205.598 56.3906 205.597 56.3965 205.595 56.4023C205.594 56.4081 205.593 56.4139 205.592 56.4197C205.59 56.4255 205.589 56.4312 205.588 56.437C205.586 56.4427 205.585 56.4485 205.584 56.4542C205.582 56.46 205.581 56.4657 205.58 56.4714C205.578 56.4771 205.577 56.4828 205.576 56.4885C205.575 56.4941 205.573 56.4998 205.572 56.5055C205.571 56.5111 205.569 56.5168 205.568 56.5224C205.567 56.528 205.566 56.5336 205.564 56.5392C205.563 56.5448 205.562 56.5504 205.561 56.556C205.559 56.5616 205.558 56.5672 205.557 56.5727C205.556 56.5783 205.554 56.5838 205.553 56.5893C205.552 56.5948 205.551 56.6004 205.549 56.6059C205.548 56.6114 205.547 56.6168 205.546 56.6223C205.544 56.6278 205.543 56.6332 205.542 56.6387C205.541 56.6441 205.539 56.6496 205.538 56.655C205.537 56.6604 205.536 56.6658 205.534 56.6712C205.533 56.6766 205.532 56.682 205.531 56.6874C205.53 56.6927 205.528 56.6981 205.527 56.7034C205.526 56.7088 205.525 56.7141 205.524 56.7194C205.522 56.7247 205.521 56.73 205.52 56.7353C205.519 56.7406 205.518 56.7459 205.516 56.7512C205.515 56.7564 205.514 56.7617 205.513 56.7669C205.512 56.7722 205.51 56.7774 205.509 56.7826C205.508 56.7878 205.507 56.793 205.506 56.7982C205.504 56.8034 205.503 56.8085 205.502 56.8137C205.501 56.8189 205.5 56.824 205.499 56.8291C205.497 56.8343 205.496 56.8394 205.495 56.8445C205.494 56.8496 205.493 56.8547 205.492 56.8598C205.491 56.8649 205.489 56.8699 205.488 56.875C205.487 56.8801 205.486 56.8851 205.485 56.8901C205.484 56.8952 205.483 56.9002 205.481 56.9052C205.48 56.9102 205.479 56.9152 205.478 56.9201C205.477 56.9251 205.476 56.9301 205.475 56.935C205.473 56.94 205.472 56.9449 205.471 56.9499C205.47 56.9548 205.469 56.9597 205.468 56.9646C205.467 56.9695 205.466 56.9744 205.465 56.9793C205.463 56.9841 205.462 56.989 205.461 56.9938C205.46 56.9987 205.459 57.0035 205.458 57.0083C205.457 57.0132 205.456 57.018 205.455 57.0228C205.454 57.0276 205.453 57.0323 205.451 57.0371C205.45 57.0419 205.449 57.0466 205.448 57.0514C205.447 57.0561 205.446 57.0608 205.445 57.0656C205.444 57.0703 205.443 57.075 205.442 57.0797C205.441 57.0844 205.44 57.089 205.439 57.0937C205.438 57.0984 205.436 57.103 205.435 57.1077C205.434 57.1123 205.433 57.1169 205.432 57.1215C205.431 57.1262 205.43 57.1308 205.429 57.1353C205.428 57.1399 205.427 57.1445 205.426 57.1491C205.425 57.1536 205.424 57.1582 205.423 57.1627C205.422 57.1672 205.421 57.1718 205.42 57.1763C205.419 57.1808 205.418 57.1853 205.417 57.1898C205.416 57.1942 205.415 57.1987 205.414 57.2032C205.413 57.2076 205.412 57.2121 205.411 57.2165C205.41 57.2209 205.409 57.2253 205.408 57.2297C205.407 57.2341 205.406 57.2385 205.405 57.2429C205.404 57.2473 205.403 57.2517 205.402 57.256C205.401 57.2604 205.4 57.2647 205.399 57.269C205.398 57.2734 205.397 57.2777 205.396 57.282C205.395 57.2863 205.394 57.2906 205.393 57.2948C205.392 57.2991 205.391 57.3034 205.39 57.3076C205.389 57.3119 205.388 57.3161 205.387 57.3203C205.386 57.3245 205.385 57.3288 205.384 57.3329C205.383 57.3371 205.382 57.3413 205.381 57.3455C205.381 57.3497 205.38 57.3538 205.379 57.358C205.378 57.3621 205.377 57.3662 205.376 57.3704C205.375 57.3745 205.374 57.3786 205.373 57.3827C205.372 57.3868 205.371 57.3908 205.37 57.3949C205.369 57.399 205.368 57.403 205.368 57.4071C205.367 57.4111 205.366 57.4151 205.365 57.4191C205.364 57.4232 205.363 57.4272 205.362 57.4311C205.361 57.4351 205.36 57.4391 205.359 57.4431C205.358 57.447 205.358 57.451 205.357 57.4549C205.356 57.4588 205.355 57.4628 205.354 57.4667C205.353 57.4706 205.352 57.4745 205.351 57.4784C205.35 57.4822 205.35 57.4861 205.349 57.49C205.348 57.4938 205.347 57.4977 205.346 57.5015C205.345 57.5053 205.344 57.5092 205.344 57.513C205.343 57.5168 205.342 57.5206 205.341 57.5243C205.34 57.5281 205.339 57.5319 205.338 57.5356C205.338 57.5394 205.337 57.5431 205.336 57.5469C205.335 57.5506 205.334 57.5543 205.333 57.558C205.332 57.5617 205.332 57.5654 205.331 57.5691C205.33 57.5727 205.329 57.5764 205.328 57.58C205.327 57.5837 205.327 57.5873 205.326 57.5909C205.325 57.5946 205.324 57.5982 205.323 57.6018C205.323 57.6054 205.322 57.609 205.321 57.6125C205.32 57.6161 205.319 57.6197 205.318 57.6232C205.318 57.6267 205.317 57.6303 205.316 57.6338C205.315 57.6373 205.314 57.6408 205.314 57.6443C205.313 57.6478 205.312 57.6513 205.311 57.6547C205.311 57.6582 205.31 57.6617 205.309 57.6651C205.308 57.6685 205.307 57.672 205.307 57.6754C205.306 57.6788 205.305 57.6822 205.304 57.6856C205.304 57.689 205.303 57.6923 205.302 57.6957C205.301 57.6991 205.301 57.7024 205.3 57.7058C205.299 57.7091 205.298 57.7124 205.298 57.7157C205.297 57.719 205.296 57.7223 205.295 57.7256C205.295 57.7289 205.294 57.7322 205.293 57.7354C205.292 57.7387 205.292 57.7419 205.291 57.7452C205.29 57.7484 205.289 57.7516 205.289 57.7548C205.288 57.758 205.287 57.7612 205.286 57.7644C205.286 57.7676 205.285 57.7707 205.284 57.7739C205.284 57.777 205.283 57.7802 205.282 57.7833C205.281 57.7864 205.281 57.7896 205.28 57.7927C205.279 57.7958 205.279 57.7988 205.278 57.8019C205.277 57.805 205.277 57.8081 205.276 57.8111C205.275 57.8142 205.274 57.8172 205.274 57.8202C205.273 57.8232 205.272 57.8262 205.272 57.8292C205.271 57.8322 205.27 57.8352 205.27 57.8382C205.269 57.8412 205.268 57.8441 205.268 57.8471C205.267 57.85 205.266 57.8529 205.266 57.8559C205.265 57.8588 205.264 57.8617 205.264 57.8646C205.263 57.8675 205.262 57.8704 205.262 57.8732C205.261 57.8761 205.26 57.8789 205.26 57.8818C205.259 57.8846 205.259 57.8875 205.258 57.8903C205.257 57.8931 205.257 57.8959 205.256 57.8987C205.255 57.9015 205.255 57.9042 205.254 57.907C205.253 57.9098 205.253 57.9125 205.252 57.9152C205.252 57.918 205.251 57.9207 205.25 57.9234C205.25 57.9261 205.249 57.9288 205.249 57.9315C205.248 57.9342 205.247 57.9369 205.247 57.9395C205.246 57.9422 205.246 57.9448 205.245 57.9475C205.244 57.9501 205.244 57.9527 205.243 57.9553C205.243 57.9579 205.242 57.9605 205.241 57.9631C205.241 57.9657 205.24 57.9682 205.24 57.9708C205.239 57.9733 205.238 57.9759 205.238 57.9784C205.237 57.9809 205.237 57.9835 205.236 57.986C205.236 57.9885 205.235 57.991 205.235 57.9934C205.234 57.9959 205.233 57.9984 205.233 58.0008C205.232 58.0033 205.232 58.0057 205.231 58.0081C205.231 58.0105 205.23 58.013 205.23 58.0154C205.229 58.0178 205.228 58.0201 205.228 58.0225C205.227 58.0249 205.227 58.0272 205.226 58.0296C205.226 58.0319 205.225 58.0343 205.225 58.0366C205.224 58.0389 205.224 58.0412 205.223 58.0435C205.223 58.0458 205.222 58.0481 205.222 58.0503C205.221 58.0526 205.221 58.0549 205.22 58.0571C205.22 58.0593 205.219 58.0616 205.219 58.0638C205.218 58.066 205.218 58.0682 205.217 58.0704C205.217 58.0726 205.216 58.0748 205.216 58.0769C205.215 58.0791 205.215 58.0812 205.214 58.0834C205.214 58.0855 205.213 58.0876 205.213 58.0897C205.212 58.0919 205.212 58.094 205.211 58.096C205.211 58.0981 205.21 58.1002 205.21 58.1023C205.209 58.1043 205.209 58.1064 205.208 58.1084C205.208 58.1104 205.208 58.1124 205.207 58.1145C205.207 58.1165 205.206 58.1185 205.206 58.1204C205.205 58.1224 205.205 58.1244 205.204 58.1263C205.204 58.1283 205.203 58.1302 205.203 58.1322C205.203 58.1341 205.202 58.136 205.202 58.1379C205.201 58.1398 205.201 58.1417 205.2 58.1436C205.2 58.1455 205.2 58.1473 205.199 58.1492C205.199 58.151 205.198 58.1529 205.198 58.1547C205.198 58.1565 205.197 58.1583 205.197 58.1601C205.196 58.1619 205.196 58.1637 205.195 58.1655C205.195 58.1672 205.195 58.169 205.194 58.1707C205.194 58.1725 205.193 58.1742 205.193 58.1759C205.193 58.1777 205.192 58.1794 205.192 58.1811C205.192 58.1828 205.191 58.1844 205.191 58.1861C205.19 58.1878 205.19 58.1894 205.19 58.1911C205.189 58.1927 205.189 58.1943 205.189 58.196C205.188 58.1976 205.188 58.1992 205.187 58.2008C205.187 58.2024 205.187 58.2039 205.186 58.2055C205.186 58.2071 205.186 58.2086 205.185 58.2101C205.185 58.2117 205.185 58.2132 205.184 58.2147C205.184 58.2162 205.184 58.2177 205.183 58.2192C205.183 58.2207 205.183 58.2222 205.182 58.2236C205.182 58.2251 205.182 58.2265 205.181 58.228C205.181 58.2294 205.181 58.2308 205.18 58.2322C205.18 58.2336 205.18 58.235 205.179 58.2364C205.179 58.2378 205.179 58.2392 205.178 58.2405C205.178 58.2419 205.178 58.2432 205.178 58.2445C205.177 58.2459 205.177 58.2472 205.177 58.2485C205.176 58.2498 205.176 58.2511 205.176 58.2524C205.175 58.2536 205.175 58.2549 205.175 58.2562C205.175 58.2574 205.174 58.2586 205.174 58.2599C205.174 58.2611 205.174 58.2623 205.173 58.2635C205.173 58.2647 205.173 58.2659 205.172 58.2671C205.172 58.2682 205.172 58.2694 205.172 58.2705C205.171 58.2717 205.171 58.2728 205.171 58.2739C205.171 58.2751 205.17 58.2762 205.17 58.2773C205.17 58.2784 205.17 58.2794 205.169 58.2805C205.169 58.2816 205.169 58.2826 205.169 58.2837C205.168 58.2847 205.168 58.2857 205.168 58.2868C205.168 58.2878 205.168 58.2888 205.167 58.2898C205.167 58.2908 205.167 58.2917 205.167 58.2927C205.166 58.2937 205.166 58.2946 205.166 58.2956C205.166 58.2965 205.166 58.2974 205.165 58.2983C205.165 58.2992 205.165 58.3001 205.165 58.301C205.165 58.3019 205.164 58.3028 205.164 58.3036C205.164 58.3045 205.164 58.3054 205.164 58.3062C205.163 58.307 205.163 58.3078 205.163 58.3087C205.163 58.3095 205.163 58.3103 205.162 58.311C205.162 58.3118 205.162 58.3126 205.162 58.3133C205.162 58.3141 205.162 58.3148 205.161 58.3156C205.161 58.3163 205.161 58.317 205.161 58.3177C205.161 58.3184 205.161 58.3191 205.16 58.3198C205.16 58.3205 205.16 58.3211 205.16 58.3218C205.16 58.3224 205.16 58.3231 205.16 58.3237C205.159 58.3243 205.159 58.3249 205.159 58.3255C205.159 58.3261 205.159 58.3267 205.159 58.3273C205.159 58.3279 205.159 58.3284 205.158 58.329C205.158 58.3295 205.158 58.3301 205.158 58.3306C205.158 58.3311 205.158 58.3316 205.158 58.3321C205.158 58.3326 205.157 58.3331 205.157 58.3336C205.157 58.334 205.157 58.3345 205.157 58.3349C205.157 58.3354 205.157 58.3358 205.157 58.3362C205.157 58.3366 205.157 58.337 205.156 58.3374C205.156 58.3378 205.156 58.3382 205.156 58.3386C205.156 58.3389 205.156 58.3393 205.156 58.3396C205.156 58.34 205.156 58.3403 205.156 58.3406C205.156 58.3409 205.156 58.3412 205.156 58.3415C205.155 58.3418 205.155 58.3421 205.155 58.3423C205.155 58.3426 205.155 58.3428 205.155 58.3431C205.155 58.3433 205.155 58.3435 205.155 58.3437C205.155 58.3439 205.155 58.3441 205.155 58.3443C205.155 58.3445 205.155 58.3447 205.155 58.3448C205.155 58.345 205.155 58.3451 205.155 58.3452C205.155 58.3454 205.155 58.3455 205.155 58.3456C205.155 58.3457 205.155 58.3458 205.155 58.3459C205.155 58.3459 205.155 58.346 205.155 58.3461C205.154 58.3461 205.154 58.3462 205.154 58.3462C205.154 58.3462 205.154 58.3462 213.454 60.2289C221.753 62.1116 221.753 62.1116 221.753 62.1115C221.753 62.1115 221.753 62.1115 221.753 62.1114C221.753 62.1114 221.753 62.1113 221.753 62.1112C221.753 62.1111 221.753 62.111 221.753 62.1109C221.753 62.1108 221.753 62.1107 221.753 62.1106C221.753 62.1105 221.753 62.1103 221.753 62.1102C221.753 62.11 221.753 62.1098 221.753 62.1097C221.753 62.1095 221.753 62.1093 221.753 62.1091C221.753 62.1089 221.753 62.1086 221.753 62.1084C221.754 62.1082 221.754 62.1079 221.754 62.1077C221.754 62.1074 221.754 62.1071 221.754 62.1068C221.754 62.1066 221.754 62.1063 221.754 62.1059C221.754 62.1056 221.754 62.1053 221.754 62.105C221.754 62.1046 221.754 62.1043 221.754 62.1039C221.755 62.1035 221.755 62.1032 221.755 62.1028C221.755 62.1024 221.755 62.102 221.755 62.1016C221.755 62.1011 221.755 62.1007 221.755 62.1003C221.755 62.0998 221.756 62.0994 221.756 62.0989C221.756 62.0984 221.756 62.098 221.756 62.0975C221.756 62.097 221.756 62.0965 221.756 62.0959C221.756 62.0954 221.757 62.0949 221.757 62.0943C221.757 62.0938 221.757 62.0932 221.757 62.0926C221.757 62.0921 221.757 62.0915 221.757 62.0909C221.758 62.0903 221.758 62.0897 221.758 62.0891C221.758 62.0884 221.758 62.0878 221.758 62.0871C221.758 62.0865 221.759 62.0858 221.759 62.0851C221.759 62.0845 221.759 62.0838 221.759 62.0831C221.759 62.0824 221.76 62.0816 221.76 62.0809C221.76 62.0802 221.76 62.0794 221.76 62.0787C221.76 62.0779 221.761 62.0772 221.761 62.0764C221.761 62.0756 221.761 62.0748 221.761 62.074C221.761 62.0732 221.762 62.0724 221.762 62.0715C221.762 62.0707 221.762 62.0699 221.762 62.069C221.763 62.0681 221.763 62.0673 221.763 62.0664C221.763 62.0655 221.763 62.0646 221.764 62.0637C221.764 62.0628 221.764 62.0618 221.764 62.0609C221.764 62.06 221.765 62.059 221.765 62.0581C221.765 62.0571 221.765 62.0561 221.766 62.0551C221.766 62.0541 221.766 62.0531 221.766 62.0521C221.766 62.0511 221.767 62.0501 221.767 62.049C221.767 62.048 221.767 62.0469 221.768 62.0459C221.768 62.0448 221.768 62.0437 221.768 62.0426C221.769 62.0415 221.769 62.0404 221.769 62.0393C221.769 62.0382 221.77 62.037 221.77 62.0359C221.77 62.0347 221.77 62.0336 221.771 62.0324C221.771 62.0312 221.771 62.0301 221.772 62.0289C221.772 62.0277 221.772 62.0264 221.772 62.0252C221.773 62.024 221.773 62.0228 221.773 62.0215C221.773 62.0203 221.774 62.019 221.774 62.0177C221.774 62.0164 221.775 62.0151 221.775 62.0138C221.775 62.0125 221.776 62.0112 221.776 62.0099C221.776 62.0086 221.776 62.0072 221.777 62.0059C221.777 62.0045 221.777 62.0031 221.778 62.0018C221.778 62.0004 221.778 61.999 221.779 61.9976C221.779 61.9962 221.779 61.9948 221.78 61.9933C221.78 61.9919 221.78 61.9904 221.781 61.989C221.781 61.9875 221.781 61.986 221.782 61.9846C221.782 61.9831 221.782 61.9816 221.783 61.9801C221.783 61.9786 221.783 61.977 221.784 61.9755C221.784 61.974 221.784 61.9724 221.785 61.9708C221.785 61.9693 221.785 61.9677 221.786 61.9661C221.786 61.9645 221.786 61.9629 221.787 61.9613C221.787 61.9597 221.788 61.9581 221.788 61.9564C221.788 61.9548 221.789 61.9531 221.789 61.9515C221.789 61.9498 221.79 61.9481 221.79 61.9464C221.791 61.9447 221.791 61.943 221.791 61.9413C221.792 61.9396 221.792 61.9378 221.793 61.9361C221.793 61.9343 221.793 61.9326 221.794 61.9308C221.794 61.929 221.795 61.9273 221.795 61.9255C221.795 61.9237 221.796 61.9218 221.796 61.92C221.797 61.9182 221.797 61.9164 221.797 61.9145C221.798 61.9127 221.798 61.9108 221.799 61.9089C221.799 61.907 221.8 61.9052 221.8 61.9033C221.8 61.9014 221.801 61.8994 221.801 61.8975C221.802 61.8956 221.802 61.8936 221.803 61.8917C221.803 61.8897 221.804 61.8878 221.804 61.8858C221.804 61.8838 221.805 61.8818 221.805 61.8798C221.806 61.8778 221.806 61.8758 221.807 61.8737C221.807 61.8717 221.808 61.8697 221.808 61.8676C221.809 61.8655 221.809 61.8635 221.809 61.8614C221.81 61.8593 221.81 61.8572 221.811 61.8551C221.811 61.853 221.812 61.8509 221.812 61.8487C221.813 61.8466 221.813 61.8444 221.814 61.8423C221.814 61.8401 221.815 61.8379 221.815 61.8357C221.816 61.8336 221.816 61.8314 221.817 61.8291C221.817 61.8269 221.818 61.8247 221.818 61.8225C221.819 61.8202 221.819 61.818 221.82 61.8157C221.82 61.8134 221.821 61.8111 221.821 61.8088C221.822 61.8066 221.822 61.8042 221.823 61.8019C221.824 61.7996 221.824 61.7973 221.825 61.7949C221.825 61.7926 221.826 61.7902 221.826 61.7879C221.827 61.7855 221.827 61.7831 221.828 61.7807C221.828 61.7783 221.829 61.7759 221.829 61.7735C221.83 61.771 221.831 61.7686 221.831 61.7662C221.832 61.7637 221.832 61.7612 221.833 61.7588C221.833 61.7563 221.834 61.7538 221.834 61.7513C221.835 61.7488 221.836 61.7463 221.836 61.7438C221.837 61.7412 221.837 61.7387 221.838 61.7361C221.838 61.7336 221.839 61.731 221.84 61.7284C221.84 61.7259 221.841 61.7233 221.841 61.7207C221.842 61.7181 221.843 61.7154 221.843 61.7128C221.844 61.7102 221.844 61.7075 221.845 61.7049C221.846 61.7022 221.846 61.6995 221.847 61.6969C221.847 61.6942 221.848 61.6915 221.849 61.6888C221.849 61.6861 221.85 61.6833 221.851 61.6806C221.851 61.6779 221.852 61.6751 221.852 61.6723C221.853 61.6696 221.854 61.6668 221.854 61.664C221.855 61.6612 221.856 61.6584 221.856 61.6556C221.857 61.6528 221.857 61.65 221.858 61.6471C221.859 61.6443 221.859 61.6414 221.86 61.6386C221.861 61.6357 221.861 61.6328 221.862 61.6299C221.863 61.627 221.863 61.6241 221.864 61.6212C221.865 61.6183 221.865 61.6154 221.866 61.6124C221.867 61.6095 221.867 61.6065 221.868 61.6035C221.869 61.6006 221.869 61.5976 221.87 61.5946C221.871 61.5916 221.871 61.5886 221.872 61.5856C221.873 61.5825 221.873 61.5795 221.874 61.5765C221.875 61.5734 221.876 61.5703 221.876 61.5673C221.877 61.5642 221.878 61.5611 221.878 61.558C221.879 61.5549 221.88 61.5518 221.88 61.5487C221.881 61.5455 221.882 61.5424 221.883 61.5392C221.883 61.5361 221.884 61.5329 221.885 61.5297C221.885 61.5266 221.886 61.5234 221.887 61.5202C221.888 61.517 221.888 61.5137 221.889 61.5105C221.89 61.5073 221.891 61.504 221.891 61.5008C221.892 61.4975 221.893 61.4942 221.894 61.491C221.894 61.4877 221.895 61.4844 221.896 61.4811C221.897 61.4778 221.897 61.4744 221.898 61.4711C221.899 61.4678 221.9 61.4644 221.9 61.4611C221.901 61.4577 221.902 61.4543 221.903 61.4509C221.903 61.4475 221.904 61.4441 221.905 61.4407C221.906 61.4373 221.906 61.4339 221.907 61.4305C221.908 61.427 221.909 61.4236 221.91 61.4201C221.91 61.4166 221.911 61.4131 221.912 61.4097C221.913 61.4062 221.914 61.4027 221.914 61.3991C221.915 61.3956 221.916 61.3921 221.917 61.3885C221.918 61.385 221.918 61.3814 221.919 61.3779C221.92 61.3743 221.921 61.3707 221.922 61.3671C221.922 61.3635 221.923 61.3599 221.924 61.3563C221.925 61.3527 221.926 61.349 221.927 61.3454C221.927 61.3417 221.928 61.3381 221.929 61.3344C221.93 61.3307 221.931 61.327 221.932 61.3233C221.932 61.3196 221.933 61.3159 221.934 61.3122C221.935 61.3085 221.936 61.3047 221.937 61.301C221.937 61.2972 221.938 61.2935 221.939 61.2897C221.94 61.2859 221.941 61.2821 221.942 61.2783C221.943 61.2745 221.943 61.2707 221.944 61.2669C221.945 61.263 221.946 61.2592 221.947 61.2553C221.948 61.2515 221.949 61.2476 221.95 61.2437C221.951 61.2398 221.951 61.2359 221.952 61.232C221.953 61.2281 221.954 61.2242 221.955 61.2203C221.956 61.2163 221.957 61.2124 221.958 61.2084C221.959 61.2045 221.959 61.2005 221.96 61.1965C221.961 61.1925 221.962 61.1885 221.963 61.1845C221.964 61.1805 221.965 61.1765 221.966 61.1724C221.967 61.1684 221.968 61.1643 221.969 61.1603C221.969 61.1562 221.97 61.1521 221.971 61.148C221.972 61.1439 221.973 61.1398 221.974 61.1357C221.975 61.1316 221.976 61.1275 221.977 61.1233C221.978 61.1192 221.979 61.115 221.98 61.1108C221.981 61.1067 221.982 61.1025 221.983 61.0983C221.984 61.0941 221.985 61.0899 221.985 61.0857C221.986 61.0814 221.987 61.0772 221.988 61.073C221.989 61.0687 221.99 61.0645 221.991 61.0602C221.992 61.0559 221.993 61.0516 221.994 61.0473C221.995 61.043 221.996 61.0387 221.997 61.0344C221.998 61.0301 221.999 61.0257 222 61.0214C222.001 61.017 222.002 61.0126 222.003 61.0083C222.004 61.0039 222.005 60.9995 222.006 60.9951C222.007 60.9907 222.008 60.9863 222.009 60.9818C222.01 60.9774 222.011 60.973 222.012 60.9685C222.013 60.9641 222.014 60.9596 222.015 60.9551C222.016 60.9506 222.017 60.9461 222.018 60.9416C222.019 60.9371 222.02 60.9326 222.021 60.9281C222.022 60.9235 222.023 60.919 222.024 60.9144C222.025 60.9099 222.026 60.9053 222.027 60.9007C222.028 60.8961 222.03 60.8915 222.031 60.8869C222.032 60.8823 222.033 60.8777 222.034 60.873C222.035 60.8684 222.036 60.8637 222.037 60.8591C222.038 60.8544 222.039 60.8497 222.04 60.845C222.041 60.8403 222.042 60.8356 222.043 60.8309C222.044 60.8262 222.045 60.8215 222.046 60.8167C222.048 60.812 222.049 60.8072 222.05 60.8025C222.051 60.7977 222.052 60.7929 222.053 60.7881C222.054 60.7833 222.055 60.7785 222.056 60.7737C222.057 60.7689 222.058 60.764 222.06 60.7592C222.061 60.7543 222.062 60.7495 222.063 60.7446C222.064 60.7397 222.065 60.7348 222.066 60.7299C222.067 60.725 222.068 60.7201 222.07 60.7152C222.071 60.7103 222.072 60.7053 222.073 60.7004C222.074 60.6954 222.075 60.6905 222.076 60.6855C222.077 60.6805 222.079 60.6755 222.08 60.6705C222.081 60.6655 222.082 60.6605 222.083 60.6555C222.084 60.6504 222.085 60.6454 222.087 60.6403C222.088 60.6353 222.089 60.6302 222.09 60.6251C222.091 60.6201 222.092 60.615 222.093 60.6099C222.095 60.6047 222.096 60.5996 222.097 60.5945C222.098 60.5894 222.099 60.5842 222.1 60.5791C222.102 60.5739 222.103 60.5687 222.104 60.5635C222.105 60.5583 222.106 60.5531 222.107 60.5479C222.109 60.5427 222.11 60.5375 222.111 60.5323C222.112 60.527 222.113 60.5218 222.115 60.5165C222.116 60.5112 222.117 60.506 222.118 60.5007C222.119 60.4954 222.121 60.4901 222.122 60.4848C222.123 60.4795 222.124 60.4741 222.125 60.4688C222.127 60.4634 222.128 60.4581 222.129 60.4527C222.13 60.4473 222.132 60.442 222.133 60.4366C222.134 60.4312 222.135 60.4258 222.136 60.4203C222.138 60.4149 222.139 60.4095 222.14 60.404C222.141 60.3986 222.143 60.3931 222.144 60.3877C222.145 60.3822 222.146 60.3767 222.148 60.3712C222.149 60.3657 222.15 60.3602 222.151 60.3547C222.153 60.3491 222.154 60.3436 222.155 60.3381C222.156 60.3325 222.158 60.3269 222.159 60.3214C222.16 60.3158 222.161 60.3102 222.163 60.3046C222.164 60.299 222.165 60.2934 222.166 60.2877C222.168 60.2821 222.169 60.2765 222.17 60.2708C222.172 60.2652 222.173 60.2595 222.174 60.2538C222.175 60.2481 222.177 60.2424 222.178 60.2367C222.179 60.231 222.181 60.2253 222.182 60.2196C222.183 60.2138 222.185 60.2081 222.186 60.2023C222.187 60.1966 222.188 60.1908 222.19 60.185C222.191 60.1792 222.192 60.1734 222.194 60.1676C222.195 60.1618 222.196 60.156 222.198 60.1501C222.199 60.1443 222.2 60.1385 222.202 60.1326C222.203 60.1267 222.204 60.1209 222.206 60.115C222.207 60.1091 222.208 60.1032 222.21 60.0973C222.211 60.0913 222.212 60.0854 222.214 60.0795C222.215 60.0735 222.216 60.0676 222.218 60.0616C222.219 60.0556 222.22 60.0497 222.222 60.0437C222.223 60.0377 222.225 60.0317 222.226 60.0256C222.227 60.0196 222.229 60.0136 222.23 60.0075C222.231 60.0015 222.233 59.9954 222.234 59.9894C222.236 59.9833 222.237 59.9772 222.238 59.9711C222.24 59.965 222.241 59.9589 222.242 59.9528C222.244 59.9467 222.245 59.9405 222.247 59.9344C222.248 59.9282 222.249 59.9221 222.251 59.9159C222.252 59.9097 222.254 59.9035 222.255 59.8973C222.256 59.8911 222.258 59.8849 222.259 59.8787C222.261 59.8724 222.262 59.8662 222.264 59.8599C222.265 59.8537 222.266 59.8474 222.268 59.8411C222.269 59.8349 222.271 59.8286 222.272 59.8223C222.274 59.8159 222.275 59.8096 222.276 59.8033C222.278 59.797 222.279 59.7906 222.281 59.7843C222.282 59.7779 222.284 59.7715 222.285 59.7651C222.286 59.7588 222.288 59.7524 222.289 59.7459C222.291 59.7395 222.292 59.7331 222.294 59.7267C222.295 59.7202 222.297 59.7138 222.298 59.7073C222.3 59.7009 222.301 59.6944 222.303 59.6879C222.304 59.6814 222.306 59.6749 222.307 59.6684C222.308 59.6619 222.31 59.6553 222.311 59.6488C222.313 59.6423 222.314 59.6357 222.316 59.6291C222.317 59.6226 222.319 59.616 222.32 59.6094C222.322 59.6028 222.323 59.5962 222.325 59.5896C222.326 59.583 222.328 59.5763 222.329 59.5697C222.331 59.563 222.332 59.5564 222.334 59.5497C222.335 59.543 222.337 59.5364 222.338 59.5297C222.34 59.523 222.341 59.5163 222.343 59.5095C222.345 59.5028 222.346 59.4961 222.348 59.4893C222.349 59.4826 222.351 59.4758 222.352 59.469C222.354 59.4623 222.355 59.4555 222.357 59.4487C222.358 59.4419 222.36 59.435 222.361 59.4282C222.363 59.4214 222.365 59.4146 222.366 59.4077C222.368 59.4008 222.369 59.394 222.371 59.3871C222.372 59.3802 222.374 59.3733 222.375 59.3664C222.377 59.3595 222.379 59.3526 222.38 59.3457C222.382 59.3387 222.383 59.3318 222.385 59.3248C222.387 59.3179 222.388 59.3109 222.39 59.3039C222.391 59.2969 222.393 59.2899 222.394 59.2829C222.396 59.2759 222.398 59.2689 222.399 59.2618C222.401 59.2548 222.402 59.2478 222.404 59.2407C222.406 59.2336 222.407 59.2266 222.409 59.2195C222.41 59.2124 222.412 59.2053 222.414 59.1982C222.415 59.1911 222.417 59.1839 222.419 59.1768C222.42 59.1696 222.422 59.1625 222.423 59.1553C222.425 59.1482 222.427 59.141 222.428 59.1338C222.43 59.1266 222.432 59.1194 222.433 59.1122C222.435 59.1049 222.436 59.0977 222.438 59.0905C222.44 59.0832 222.441 59.076 222.443 59.0687C222.445 59.0614 222.446 59.0541 222.448 59.0468C222.45 59.0396 222.451 59.0322 222.453 59.0249C222.455 59.0176 222.456 59.0103 222.458 59.0029C222.46 58.9956 222.461 58.9882 222.463 58.9808C222.465 58.9734 222.466 58.9661 222.468 58.9587C222.47 58.9513 222.471 58.9438 222.473 58.9364C222.475 58.929 222.476 58.9216 222.478 58.9141C222.48 58.9066 222.481 58.8992 222.483 58.8917C222.485 58.8842 222.487 58.8767 222.488 58.8692C222.49 58.8617 222.492 58.8542 222.493 58.8467C222.495 58.8391 222.497 58.8316 222.499 58.824C222.5 58.8165 222.502 58.8089 222.504 58.8013C222.505 58.7937 222.507 58.7861 222.509 58.7785C222.511 58.7709 222.512 58.7633 222.514 58.7557C222.516 58.748 222.518 58.7404 222.519 58.7327C222.521 58.7251 222.523 58.7174 222.524 58.7097C222.526 58.702 222.528 58.6943 222.53 58.6866C222.531 58.6789 222.533 58.6711 222.535 58.6634C222.537 58.6557 222.538 58.6479 222.54 58.6401C222.542 58.6324 222.544 58.6246 222.546 58.6168C222.547 58.609 222.549 58.6012 222.551 58.5934C222.553 58.5856 222.554 58.5777 222.556 58.5699C222.558 58.5621 222.56 58.5542 222.562 58.5463C222.563 58.5385 222.565 58.5306 222.567 58.5227C222.569 58.5148 222.57 58.5069 222.572 58.499C222.574 58.491 222.576 58.4831 222.578 58.4751C222.579 58.4672 222.581 58.4592 222.583 58.4513C222.585 58.4433 222.587 58.4353 222.589 58.4273C222.59 58.4193 222.592 58.4113 222.594 58.4033C222.596 58.3952 222.598 58.3872 222.599 58.3791C222.601 58.3711 222.603 58.363 222.605 58.3549C222.607 58.3469 222.609 58.3388 222.61 58.3307C222.612 58.3226 222.614 58.3144 222.616 58.3063C222.618 58.2982 222.62 58.29 222.622 58.2819C222.623 58.2737 222.625 58.2656 222.627 58.2574C222.629 58.2492 222.631 58.241 222.633 58.2328C222.635 58.2246 222.636 58.2164 222.638 58.2081C222.64 58.1999 222.642 58.1916 222.644 58.1834C222.646 58.1751 222.648 58.1668 222.649 58.1585C222.651 58.1503 222.653 58.142 222.655 58.1336C222.657 58.1253 222.659 58.117 222.661 58.1087C222.663 58.1003 222.665 58.092 222.666 58.0836C222.668 58.0752 222.67 58.0669 222.672 58.0585C222.674 58.0501 222.676 58.0417 222.678 58.0333C222.68 58.0248 222.682 58.0164 222.684 58.008C222.686 57.9995 222.687 57.9911 222.689 57.9826C222.691 57.9741 222.693 57.9656 222.695 57.9572C222.697 57.9487 222.699 57.9401 222.701 57.9316C222.703 57.9231 222.705 57.9146 222.707 57.906C222.709 57.8975 222.711 57.8889 222.713 57.8803C222.715 57.8718 222.717 57.8632 222.718 57.8546C222.72 57.846 222.722 57.8374 222.724 57.8287C222.726 57.8201 222.728 57.8115 222.73 57.8028C222.732 57.7942 222.734 57.7855 222.736 57.7768C222.738 57.7681 222.74 57.7595 222.742 57.7508C222.744 57.7421 222.746 57.7333 222.748 57.7246C222.75 57.7159 222.752 57.7071 222.754 57.6984C222.756 57.6896 222.758 57.6808 222.76 57.6721C222.762 57.6633 222.764 57.6545 222.766 57.6457C222.768 57.6369 222.77 57.628 222.772 57.6192C222.774 57.6104 222.776 57.6015 222.778 57.5927C222.78 57.5838 222.782 57.5749 222.784 57.566C222.786 57.5572 222.788 57.5483 222.79 57.5393C222.792 57.5304 222.794 57.5215 222.796 57.5126C222.798 57.5036 222.8 57.4947 222.802 57.4857C222.804 57.4768 222.806 57.4678 222.808 57.4588C222.81 57.4498 222.812 57.4408 222.814 57.4318C222.816 57.4228 222.818 57.4137 222.821 57.4047C222.823 57.3956 222.825 57.3866 222.827 57.3775C222.829 57.3684 222.831 57.3594 222.833 57.3503C222.835 57.3412 222.837 57.3321 222.839 57.3229C222.841 57.3138 222.843 57.3047 222.845 57.2955C222.847 57.2864 222.849 57.2772 222.852 57.2681C222.854 57.2589 222.856 57.2497 222.858 57.2405C222.86 57.2313 222.862 57.2221 222.864 57.2129C222.866 57.2036 222.868 57.1944 222.87 57.1851C222.872 57.1759 222.875 57.1666 222.877 57.1574C222.879 57.1481 222.881 57.1388 222.883 57.1295C222.885 57.1202 222.887 57.1109 222.889 57.1015C222.891 57.0922 222.894 57.0829 222.896 57.0735C222.898 57.0641 222.9 57.0548 222.902 57.0454C222.904 57.036 222.906 57.0266 222.908 57.0172C222.911 57.0078 222.913 56.9984 222.915 56.9889C222.917 56.9795 222.919 56.9701 222.921 56.9606C222.923 56.9511 222.926 56.9417 222.928 56.9322C222.93 56.9227 222.932 56.9132 222.934 56.9037C222.936 56.8942 222.938 56.8847 222.941 56.8751C222.943 56.8656 222.945 56.856 222.947 56.8465C222.949 56.8369 222.951 56.8273 222.954 56.8177C222.956 56.8081 222.958 56.7985 222.96 56.7889C222.962 56.7793 222.965 56.7697 222.967 56.76C222.969 56.7504 222.971 56.7407 222.973 56.7311C222.976 56.7214 222.978 56.7117 222.98 56.702C222.982 56.6923 222.984 56.6826 222.987 56.6729C222.989 56.6632 222.991 56.6534 222.993 56.6437C222.995 56.634 222.998 56.6242 223 56.6144C223.002 56.6046 223.004 56.5949 223.006 56.5851C223.009 56.5753 223.011 56.5655 223.013 56.5556C223.015 56.5458 223.018 56.536 223.02 56.5261C223.022 56.5163 223.024 56.5064 223.027 56.4965C223.029 56.4866 223.031 56.4768 223.033 56.4669C223.036 56.457 223.038 56.447 223.04 56.4371C223.042 56.4272 223.045 56.4172 223.047 56.4073C223.049 56.3973 223.051 56.3874 223.054 56.3774C223.056 56.3674 223.058 56.3574 223.06 56.3474C223.063 56.3374 223.065 56.3274 223.067 56.3173C223.069 56.3073 223.072 56.2973 223.074 56.2872C223.076 56.2771 223.079 56.2671 223.081 56.257C223.083 56.2469 223.085 56.2368 223.088 56.2267C223.09 56.2166 223.092 56.2064 223.095 56.1963C223.097 56.1862 223.099 56.176 223.102 56.1659C223.104 56.1557 223.106 56.1455 223.108 56.1353C223.111 56.1251 223.113 56.1149 223.115 56.1047C223.118 56.0945 223.12 56.0843 223.122 56.074C223.125 56.0638 223.127 56.0535 223.129 56.0433C223.132 56.033 223.134 56.0227 223.136 56.0124C223.139 56.0021 223.141 55.9918 223.143 55.9815C223.146 55.9712 223.148 55.9608 223.15 55.9505C223.153 55.9402 223.155 55.9298 223.157 55.9194C223.16 55.9091 223.162 55.8987 223.165 55.8883C223.167 55.8779 223.169 55.8675 223.172 55.857C223.174 55.8466 223.176 55.8362 223.179 55.8257C223.181 55.8153 223.183 55.8048 223.186 55.7943C223.188 55.7839 223.191 55.7734 223.193 55.7629C223.195 55.7524 223.198 55.7418 223.2 55.7313C223.202 55.7208 223.205 55.7103 223.207 55.6997C223.21 55.6891 223.212 55.6786 223.214 55.668C223.217 55.6574 223.219 55.6468 223.222 55.6362C223.224 55.6256 223.227 55.615 223.229 55.6044C223.231 55.5937 223.234 55.5831 223.236 55.5724C223.239 55.5618 223.241 55.5511 223.243 55.5404C223.246 55.5297 223.248 55.519 223.251 55.5083C223.253 55.4976 223.256 55.4869 223.258 55.4761C223.26 55.4654 223.263 55.4546 223.265 55.4439C223.268 55.4331 223.27 55.4223 223.273 55.4116C223.275 55.4008 223.278 55.39 223.28 55.3792C223.282 55.3683 223.285 55.3575 223.287 55.3467C223.29 55.3358 223.292 55.325 223.295 55.3141C223.297 55.3032 223.3 55.2924 223.302 55.2815C223.305 55.2706 223.307 55.2597 223.31 55.2487C223.312 55.2378 223.315 55.2269 223.317 55.2159C223.32 55.205 223.322 55.194 223.324 55.1831C223.327 55.1721 223.329 55.1611 223.332 55.1501C223.334 55.1391 223.337 55.1281 223.339 55.1171C223.342 55.1061 223.344 55.095 223.347 55.084C223.349 55.0729 223.352 55.0619 223.354 55.0508C223.357 55.0397 223.36 55.0286 223.362 55.0175C223.365 55.0064 223.367 54.9953 223.37 54.9842C223.372 54.973 223.375 54.9619 223.377 54.9508C223.38 54.9396 223.382 54.9284 223.385 54.9173C223.387 54.9061 223.39 54.8949 223.392 54.8837C223.395 54.8725 223.397 54.8613 223.4 54.85C223.403 54.8388 223.405 54.8275 223.408 54.8163C223.41 54.805 223.413 54.7938 223.415 54.7825C223.418 54.7712 223.42 54.7599 223.423 54.7486C223.426 54.7373 223.428 54.7259 223.431 54.7146C223.433 54.7033 223.436 54.6919 223.438 54.6806C223.441 54.6692 223.444 54.6578 223.446 54.6464C223.449 54.635 223.451 54.6236 223.454 54.6122C223.457 54.6008 223.459 54.5894 223.462 54.5779C223.464 54.5665 223.467 54.555 223.47 54.5436C223.472 54.5321 223.475 54.5206 223.477 54.5091C223.48 54.4977 223.483 54.4861 223.485 54.4746C223.488 54.4631 223.49 54.4516 223.493 54.44C223.496 54.4285 223.498 54.4169 223.501 54.4054C223.504 54.3938 223.506 54.3822 223.509 54.3706C223.511 54.359 223.514 54.3474 223.517 54.3358C223.519 54.3242 223.522 54.3125 223.525 54.3009C223.527 54.2892 223.53 54.2776 223.533 54.2659C223.535 54.2542 223.538 54.2425 223.541 54.2308C223.543 54.2191 223.546 54.2074 223.548 54.1957C223.551 54.1839 223.554 54.1722 223.556 54.1605C223.559 54.1487 223.562 54.1369 223.564 54.1252C223.567 54.1134 223.57 54.1016 223.573 54.0898C223.575 54.078 223.578 54.0662 223.581 54.0543C223.583 54.0425 223.586 54.0306 223.589 54.0188C223.591 54.0069 223.594 53.9951 223.597 53.9832C223.599 53.9713 223.602 53.9594 223.605 53.9475C223.607 53.9356 223.61 53.9237 223.613 53.9117C223.616 53.8998 223.618 53.8878 223.621 53.8759C223.624 53.8639 223.626 53.8519 223.629 53.84C223.632 53.828 223.635 53.816 223.637 53.8039C223.64 53.7919 223.643 53.7799 223.646 53.7679C223.648 53.7558 223.651 53.7438 223.654 53.7317C223.656 53.7196 223.659 53.7076 223.662 53.6955C223.665 53.6834 223.667 53.6713 223.67 53.6592C223.673 53.647 223.676 53.6349 223.678 53.6228C223.681 53.6106 223.684 53.5985 223.687 53.5863C223.689 53.5741 223.692 53.5619 223.695 53.5497C223.698 53.5375 223.701 53.5253 223.703 53.5131C223.706 53.5009 223.709 53.4887 223.712 53.4764C223.714 53.4642 223.717 53.4519 223.72 53.4396C223.723 53.4273 223.726 53.4151 223.728 53.4028C223.731 53.3905 223.734 53.3781 223.737 53.3658C223.74 53.3535 223.742 53.3412 223.745 53.3288C223.748 53.3164 223.751 53.3041 223.754 53.2917C223.756 53.2793 223.759 53.2669 223.762 53.2545C223.765 53.2421 223.768 53.2297 223.77 53.2173C223.773 53.2048 223.776 53.1924 223.779 53.1799C223.782 53.1675 223.785 53.155 223.787 53.1425C223.79 53.13 223.793 53.1175 223.796 53.105C223.799 53.0925 223.802 53.08 223.804 53.0675C223.807 53.0549 223.81 53.0424 223.813 53.0298C223.816 53.0173 223.819 53.0047 223.822 52.9921C223.824 52.9795 223.827 52.9669 223.83 52.9543C223.833 52.9417 223.836 52.9291 223.839 52.9164C223.842 52.9038 223.844 52.8911 223.847 52.8785C223.85 52.8658 223.853 52.8531 223.856 52.8404C223.859 52.8277 223.862 52.815 223.865 52.8023C223.867 52.7896 223.87 52.7769 223.873 52.7641C223.876 52.7514 223.879 52.7386 223.882 52.7259C223.885 52.7131 223.888 52.7003 223.891 52.6875C223.894 52.6747 223.896 52.6619 223.899 52.6491C223.902 52.6363 223.905 52.6234 223.908 52.6106C223.911 52.5977 223.914 52.5849 223.917 52.572C223.92 52.5591 223.923 52.5462 223.926 52.5333C223.929 52.5204 223.931 52.5075 223.934 52.4946C223.937 52.4817 223.94 52.4687 223.943 52.4558C223.946 52.4428 223.949 52.4299 223.952 52.4169C223.955 52.4039 223.958 52.3909 223.961 52.3779C223.964 52.3649 223.967 52.3519 223.97 52.3389C223.973 52.3258 223.976 52.3128 223.979 52.2997C223.982 52.2867 223.985 52.2736 223.987 52.2605C223.99 52.2474 223.993 52.2343 223.996 52.2212C223.999 52.2081 224.002 52.195 224.005 52.1819C224.008 52.1687 224.011 52.1556 224.014 52.1424C224.017 52.1293 224.02 52.1161 224.023 52.1029C224.026 52.0897 224.029 52.0765 224.032 52.0633C224.035 52.0501 224.038 52.0369 224.041 52.0236C224.044 52.0104 224.047 51.9971 224.05 51.9839C224.053 51.9706 224.056 51.9573 224.059 51.944C224.062 51.9308 224.065 51.9174 224.068 51.9041C224.071 51.8908 224.074 51.8775 224.077 51.8641L207.479 48.0988ZM205.231 58.0362C204.949 59.092 204.754 60.279 204.754 61.5573H221.774C221.774 62.0132 221.705 62.3146 221.676 62.4216L205.231 58.0362ZM204.754 61.5573C204.754 63.5349 205.301 66.5487 207.848 68.9539C210.303 71.2729 213.208 71.6803 214.972 71.6803V54.6603C215.597 54.6603 217.648 54.7988 219.534 56.5801C221.511 58.4477 221.774 60.6549 221.774 61.5573H204.754ZM223.087 65.7329C223.596 64.1195 224.571 60.0608 225.923 54.1596L209.334 50.3577C207.903 56.6016 207.106 59.8174 206.857 60.6077L223.087 65.7329ZM225.932 54.1227C226.295 52.5041 226.765 50.2995 227.338 47.5308L210.671 44.0824C210.105 46.8169 209.658 48.9137 209.325 50.3947L225.932 54.1227ZM227.323 47.6026C227.903 44.9132 228.644 41.7159 229.55 38.001L213.013 33.9712C212.084 37.7838 211.307 41.1335 210.686 44.0106L227.323 47.6026ZM224.953 43.6633C226.55 42.8998 228.584 42.4087 231.244 42.4087V25.3887C226.441 25.3887 221.833 26.2892 217.61 28.309L224.953 43.6633ZM231.244 42.4087C234.391 42.4087 235.892 43.1632 236.651 43.7888L247.471 30.6505C242.854 26.8481 237.143 25.3887 231.244 25.3887V42.4087ZM236.698 43.8267C236.998 44.071 237.584 44.5696 237.584 46.708H254.604C254.604 40.5598 252.5 34.7329 247.424 30.6125L236.698 43.8267ZM237.584 46.708C237.584 51.099 236.369 55.5282 233.651 60.1084L248.288 68.794C252.402 61.8617 254.604 54.4621 254.604 46.708H237.584ZM233.641 60.1254C231.45 63.838 228.48 67.4254 224.628 70.8651L235.963 83.561C240.967 79.0937 245.113 74.1733 248.298 68.7771L233.641 60.1254ZM221.785 77.2131V92.8688H238.805V77.2131H221.785ZM225.84 85.6182C223.673 86.9497 222.158 87.5501 221.222 87.777L225.232 104.318C228.47 103.533 231.667 102.014 234.751 100.119L225.84 85.6182ZM221.104 87.8064C219.757 88.1533 218.276 88.3439 216.632 88.3439V105.364C219.606 105.364 222.521 105.017 225.349 104.288L221.104 87.8064ZM216.632 88.3439C213.208 88.3439 211.625 87.6792 211.016 87.2787L201.658 101.495C206.047 104.384 211.328 105.364 216.632 105.364V88.3439ZM211.016 87.2787C210.934 87.2244 210.934 87.2121 210.976 87.2573C210.995 87.2786 211.019 87.3076 211.044 87.3436C211.069 87.3796 211.091 87.4162 211.108 87.4508C211.146 87.5245 211.147 87.5537 211.137 87.5063C211.126 87.454 211.099 87.3051 211.099 87.0335H194.079C194.079 92.8519 196.526 98.1172 201.658 101.495L211.016 87.2787ZM211.099 87.0335V78.6837H194.079V87.0335H211.099ZM196.572 84.7012C197.454 85.5834 198.458 86.4434 199.514 87.273L210.029 73.8899C209.314 73.3278 208.863 72.9227 208.607 72.6663L196.572 84.7012ZM199.666 87.3894C200.844 88.2735 203.475 90.0877 206.954 90.0877V73.0677C208.278 73.0677 209.189 73.438 209.516 73.5872C209.874 73.7508 210.003 73.8677 209.878 73.7734L199.666 87.3894Z" fill="#010200" mask="url(#path-2-outside-1_1_2495)"/>
</svg>
