<svg width="95" height="95" viewBox="0 0 95 95" fill="none" xmlns="http://www.w3.org/2000/svg">
<g filter="url(#filter0_d_1_2450)">
<rect x="5.07812" y="5" width="80.0312" height="80.0312" rx="40.0156" fill="#FCF2E8" shape-rendering="crispEdges"/>
<rect x="2.61562" y="2.5375" width="84.9563" height="84.9563" rx="42.4781" stroke="#010200" stroke-width="4.925" shape-rendering="crispEdges"/>
<path fill-rule="evenodd" clip-rule="evenodd" d="M41.1254 29.113C39.0037 30.2258 37.2679 31.1675 37.2683 31.2058C37.2692 31.3047 42.3603 33.9008 42.541 33.8945C42.6232 33.8917 43.2195 33.6153 43.8661 33.2804L45.0418 32.6715L47.6098 34.0008L49.7125 33.0494C52.8809 31.6158 53.21 31.4587 53.1584 31.4059C53.0899 31.3359 51.9535 30.7212 48.8703 29.0868C47.3802 28.2968 45.9339 27.5223 45.6563 27.3656C45.3787 27.2089 45.1136 27.0828 45.0673 27.0852C45.021 27.0877 43.2471 28.0002 41.1254 29.113ZM31.8198 33.965L29.6112 35.1137V40.1552C29.6112 42.928 29.6402 45.1966 29.6757 45.1966C29.7112 45.1966 30.7978 44.7223 32.0905 44.1426L34.4407 43.0887V37.7746L35.5892 38.4046C36.4742 38.8897 37.3597 39.3737 38.2458 39.8568L39.7538 40.679L40.4249 40.3734C40.8457 40.1815 41.2658 39.9877 41.6849 39.792C42.0088 39.6402 42.804 39.2796 43.4518 38.9906C44.0997 38.7014 44.6994 38.4107 44.7844 38.3444C44.8974 38.2564 43.5199 37.49 39.6896 35.5095C36.8024 34.0166 34.3475 32.7999 34.2343 32.8057C34.1211 32.8115 33.0346 33.3332 31.8198 33.965ZM53.5564 34.2876C52.0522 34.9714 50.8204 35.5581 50.819 35.5916C50.8177 35.625 51.6376 36.1159 52.641 36.6822C53.6444 37.2486 54.4654 37.7424 54.4654 37.7796C54.4654 37.8167 53.5775 38.2499 52.4924 38.7424C51.4072 39.2348 48.6641 40.4821 46.3966 41.5142L38.799 44.9722C36.8878 45.8421 35.1651 46.6262 34.9708 46.7149C31.0671 48.4942 29.9941 48.988 29.8467 49.0727C29.6986 49.1581 29.665 49.6538 29.6386 52.1418L29.6072 55.1093L33.5573 57.1359L36.2959 55.8914C37.8022 55.207 39.0346 54.6111 39.0346 54.5672C39.0346 54.5234 38.7562 54.3408 38.4162 54.1612C38.076 53.9816 37.3737 53.5841 36.8554 53.2776C36.3372 52.971 35.8204 52.6898 35.7069 52.6525C35.5935 52.6153 35.5024 52.5503 35.5042 52.5078C35.5061 52.4655 36.7121 51.8887 38.184 51.226C41.043 49.9389 43.2308 48.9469 47.9279 46.8081C50.0283 45.8519 52.1289 44.8963 54.2298 43.9413C56.0762 43.1021 58.223 42.1221 59.0004 41.7634L60.414 41.1112L60.477 35.1088L58.4738 34.0735C57.372 33.5041 56.4302 33.0397 56.3808 33.0414C56.3315 33.0429 55.0605 33.6037 53.5564 34.2876ZM59.8773 45.1151C59.5821 45.2603 58.999 45.5321 58.5816 45.7191C58.1641 45.9061 57.372 46.266 56.8213 46.519L55.82 46.9788L55.7972 49.6137C55.7846 51.0628 55.7316 52.242 55.6794 52.2344C55.5609 52.2166 53.6843 51.2476 51.798 50.2298C50.4366 49.4954 50.351 49.4662 50.0311 49.6257C49.8462 49.718 48.7407 50.2172 47.5746 50.7352C46.4084 51.2532 45.4163 51.7109 45.3696 51.7523C45.3231 51.7937 47.6701 53.0745 50.5853 54.5988L55.8857 57.3702L58.1499 56.1908C59.395 55.5423 60.4539 54.9507 60.5026 54.8763C60.6124 54.709 60.603 44.8281 60.4931 44.8415C60.4497 44.8468 60.1725 44.9699 59.8773 45.1151ZM47.339 56.7127C46.9462 56.8827 46.5536 57.0529 46.1611 57.2234C44.9757 57.7398 45.208 57.7569 43.7978 57.0501C42.8585 56.5793 42.4536 56.434 42.2779 56.5045C42.1461 56.5574 41.0116 57.0713 39.7567 57.6465C38.5018 58.2218 37.4315 58.6924 37.3783 58.6924C36.8518 58.6924 37.7271 59.219 41.1047 60.9345L45.0658 62.9462L46.7325 62.1177C47.6491 61.6621 49.498 60.7496 50.8412 60.09C52.1842 59.4303 53.2665 58.8734 53.2463 58.8524C53.2259 58.8315 52.1005 58.2496 50.7453 57.5593L48.2813 56.3045L47.339 56.7127Z" fill="#010200"/>
</g>
<defs>
<filter id="filter0_d_1_2450" x="0.153137" y="0.0749512" width="94.8062" height="94.8063" filterUnits="userSpaceOnUse" color-interpolation-filters="sRGB">
<feFlood flood-opacity="0" result="BackgroundImageFix"/>
<feColorMatrix in="SourceAlpha" type="matrix" values="0 0 0 0 0 0 0 0 0 0 0 0 0 0 0 0 0 0 127 0" result="hardAlpha"/>
<feOffset dx="4.925" dy="4.925"/>
<feComposite in2="hardAlpha" operator="out"/>
<feColorMatrix type="matrix" values="0 0 0 0 1 0 0 0 0 0.909804 0 0 0 0 0.643137 0 0 0 1 0"/>
<feBlend mode="normal" in2="BackgroundImageFix" result="effect1_dropShadow_1_2450"/>
<feBlend mode="normal" in="SourceGraphic" in2="effect1_dropShadow_1_2450" result="shape"/>
</filter>
</defs>
</svg>
