<svg width="1920" height="2160" viewBox="0 0 1920 2160" fill="none" xmlns="http://www.w3.org/2000/svg">
<path d="M1815.42 57.7726C1814.57 57.7726 1813.74 57.8128 1812.92 57.8933C1815.06 53.5485 1816.26 48.6538 1816.26 43.4775C1816.26 25.3739 1801.59 10.7034 1783.49 10.7034C1779.45 10.7034 1775.6 11.4409 1772.04 12.7685C1764.84 -13.6091 1740.71 -33 1712.05 -33C1689.79 -33 1670.27 -21.293 1659.29 -3.71245C1655.32 -5.25461 1651.01 -6.11285 1646.51 -6.11285C1627.01 -6.11285 1611.21 9.69759 1611.21 29.1824C1611.21 34.0368 1612.19 38.6767 1613.97 42.8875C1597.75 48.104 1586 63.3244 1586 81.2938C1586 103.568 1604.06 121.631 1626.34 121.631C1628.55 121.631 1630.74 121.444 1632.85 121.095C1641.71 141.197 1661.79 155.25 1685.17 155.25C1706.77 155.25 1725.59 143.248 1735.29 125.56C1743.13 131.018 1752.63 134.237 1762.91 134.237C1782.78 134.237 1799.84 122.235 1807.27 105.097C1809.81 106.009 1812.56 106.505 1815.43 106.505C1828.9 106.505 1839.81 95.589 1839.81 82.1253C1839.81 68.6616 1828.9 57.7458 1815.43 57.7458L1815.42 57.7726Z" fill="#FCF2E8"/>
<path d="M1010.79 941.261C1012.29 937.694 1013.13 933.778 1013.13 929.661C1013.13 913.154 999.743 899.77 983.235 899.77C979.413 899.77 975.765 900.494 972.413 901.795C963.106 886.91 946.585 877 927.731 877C903.472 877 883.048 893.414 876.947 915.742C873.93 914.615 870.657 913.998 867.251 913.998C851.924 913.998 839.506 926.416 839.506 941.744C839.506 943.997 839.774 946.196 840.284 948.288C825.68 948.771 814 960.759 814 975.47C814 990.181 826.176 1002.67 841.196 1002.67C843.851 1002.67 846.425 1002.28 848.853 1001.57C853.01 1018.88 868.579 1031.74 887.152 1031.74C897.867 1031.74 907.589 1027.46 914.683 1020.51C923.533 1030.25 936.3 1036.36 950.488 1036.36C970.281 1036.36 987.285 1024.47 994.781 1007.45C996.578 1007.75 998.415 1007.91 1000.29 1007.91C1019.16 1007.91 1034.45 992.621 1034.45 973.753C1034.45 958.546 1024.5 945.659 1010.77 941.234L1010.79 941.261Z" fill="white"/>
<path d="M297.109 46.6134C298.517 43.2877 299.281 39.6267 299.281 35.7915C299.281 20.3967 286.81 7.92537 271.415 7.92537C267.861 7.92537 264.455 8.59588 261.331 9.81619C252.654 -4.06321 237.246 -13.3027 219.679 -13.3027C197.056 -13.3027 178.014 1.99813 172.328 22.8239C169.512 21.778 166.468 21.2013 163.29 21.2013C148.995 21.2013 137.422 32.7876 137.422 47.0693C137.422 49.1747 137.677 51.213 138.146 53.1709C124.535 53.6268 113.646 64.7974 113.646 78.5159C113.646 92.2343 125.004 103.874 139.004 103.874C141.485 103.874 143.872 103.512 146.138 102.855C150.014 118.987 164.524 130.989 181.849 130.989C191.84 130.989 200.905 126.993 207.516 120.53C215.763 129.608 227.672 135.307 240.907 135.307C259.359 135.307 275.21 124.217 282.21 108.353C283.886 108.621 285.603 108.769 287.346 108.769C304.927 108.769 319.195 94.5141 319.195 76.9201C319.195 62.7457 309.929 50.7302 297.109 46.6134Z" fill="white"/>
<path d="M744.927 553.914C751.015 539.484 754.381 523.62 754.381 506.978C754.381 440.223 700.258 386.1 633.502 386.1C618.054 386.1 603.303 389.024 589.719 394.307C552.09 334.083 485.254 294 409.005 294C310.87 294 228.278 360.407 203.603 450.723C191.387 446.164 178.178 443.67 164.379 443.67C102.384 443.67 52.1367 493.917 52.1367 555.912C52.1367 565.044 53.2363 573.908 55.3014 582.396C-3.74301 584.354 -51 632.832 -51 692.345C-51 751.859 -1.74489 802.362 59.016 802.362C69.7709 802.362 80.1503 800.819 89.9798 797.936C106.769 867.937 169.756 919.968 244.906 919.968C288.247 919.968 327.552 902.655 356.277 874.561C392.068 913.946 443.697 938.675 501.118 938.675C581.176 938.675 649.956 890.586 680.277 821.739C687.545 822.919 694.987 823.563 702.578 823.563C778.867 823.563 840.728 761.716 840.728 685.412C840.728 623.901 800.511 571.789 744.94 553.914H744.927Z" fill="#FCF2E8"/>
<path d="M1242.84 160.639C1244.35 157.032 1245.2 153.076 1245.2 148.905C1245.2 132.223 1231.68 118.706 1215 118.706C1211.14 118.706 1207.45 119.444 1204.06 120.758C1194.66 105.712 1177.95 95.6943 1158.91 95.6943C1134.38 95.6943 1113.75 112.283 1107.59 134.852C1104.53 133.712 1101.23 133.082 1097.78 133.082C1082.29 133.082 1069.74 145.633 1069.74 161.122C1069.74 163.402 1070.02 165.614 1070.53 167.747C1055.78 168.229 1043.97 180.352 1043.97 195.224C1043.97 210.095 1056.28 222.714 1071.46 222.714C1074.14 222.714 1076.74 222.325 1079.2 221.615C1083.39 239.101 1099.14 252.109 1117.91 252.109C1128.75 252.109 1138.56 247.778 1145.74 240.764C1154.68 250.607 1167.58 256.789 1181.93 256.789C1201.94 256.789 1219.12 244.774 1226.69 227.569C1228.5 227.864 1230.37 228.025 1232.27 228.025C1251.34 228.025 1266.79 212.576 1266.79 193.507C1266.79 178.139 1256.74 165.118 1242.85 160.653L1242.84 160.639Z" fill="white"/>
<path d="M-40.3238 248.915C-48.56 222.562 -37.5624 192.218 -16.1374 175.336C-3.95865 165.739 12.814 159.704 28.2999 163.309C36.0737 165.092 43.1546 169.78 47.2645 176.72C49.1678 179.931 50.4063 183.623 50.4665 187.388C50.5227 190.941 49.2609 195.407 45.4245 196.482C39.5638 198.097 33.9234 191.731 33.9808 186.302C34.0477 177.493 42.288 170.797 49.1157 166.577C63.1295 157.955 80.718 155.384 96.5615 159.731C104.135 161.811 111.931 165.686 116.515 172.286C120.488 177.979 121.316 185.646 117.791 191.812C117 193.189 115.964 194.484 114.704 195.489C114.12 195.963 113.376 196.559 112.632 196.811C112.025 197.041 111.153 196.815 110.381 196.612C107.351 195.784 105.08 193.256 103.759 190.496C102.283 187.383 101.856 183.719 102.672 180.392C103.487 177.065 105.973 173.937 108.734 171.796C114.89 167.052 123.081 165.522 130.693 165.709C138.305 165.896 146.322 167.999 152.62 172.535C158.309 176.614 162.333 182.662 162.714 189.75C163.049 195.771 161.101 202.194 156.734 206.502C154.651 208.561 152.05 209.893 149.19 210.505L151.29 211.595C148.106 203.15 151.013 194.041 156.708 187.395C163.331 179.694 172.635 176.068 182.671 176.045C194.18 176.043 205.33 180.37 215.291 185.851C224.054 190.688 232.17 196.618 239.436 203.489C253.665 216.95 264.716 234.253 268.499 253.667C270.258 262.683 270.313 271.995 268.253 280.981C266.192 289.966 262.543 297.821 257.466 305.111C247.67 319.165 232.12 329.997 214.693 330.941C212.555 331.058 210.426 331.019 208.269 330.868C206.113 330.717 206.296 334.061 208.428 334.207C227.029 335.62 244.577 326.091 256.32 312.061C268.644 297.345 274.858 278.189 272.672 259.062C270.313 238.39 259.725 219.529 245.433 204.732C238.135 197.193 229.82 190.636 220.846 185.223C210.78 179.163 199.549 174.157 187.755 172.984C176.943 171.904 166.265 174.264 157.916 181.437C150.972 187.427 145.95 196.553 146.599 205.922C146.762 208.205 147.248 210.456 148.076 212.601C148.424 213.5 149.231 213.896 150.176 213.69C164.801 210.572 169.783 191.266 163.11 179.273C154.555 163.864 133.025 159.454 117.172 164.009C109.376 166.236 101.148 171.615 99.2888 180.065C97.7522 187.11 100.773 196.152 107.723 199.225C109.259 199.894 111.539 200.655 113.247 200.228C114.955 199.801 116.741 198.229 117.997 197.011C120.673 194.322 122.356 190.666 122.996 186.955C124.453 178.413 120.691 170.417 114.188 164.936C107.285 159.126 98.2698 156.081 89.4341 154.9C80.5984 153.719 70.901 154.454 62.0525 157.127C53.2039 159.8 44.4732 164.376 37.9666 170.995C32.1879 176.855 27.5689 186.522 33.0641 194.097C37.0199 199.522 45.5455 202.745 50.682 196.922C56.637 190.177 53.2513 179.044 48.5153 172.648C36.6154 156.63 14.2875 156.502 -2.69607 163.571C-17.0235 169.532 -28.7607 180.657 -36.4533 194.058C-44.1458 207.458 -47.9187 223.449 -45.9666 238.876C-45.482 242.633 -44.6929 246.328 -43.5682 249.941C-42.9295 251.99 -39.7216 251.008 -40.3797 248.929L-40.3238 248.915Z" fill="white"/>
<path d="M1081.68 1052.92C1073.44 1026.56 1084.44 996.218 1105.86 979.336C1118.04 969.739 1134.81 963.704 1150.3 967.309C1158.07 969.092 1165.15 973.78 1169.26 980.72C1171.17 983.931 1172.41 987.623 1172.47 991.388C1172.52 994.941 1171.26 999.407 1167.42 1000.48C1161.56 1002.1 1155.92 995.731 1155.98 990.302C1156.05 981.493 1164.29 974.797 1171.12 970.577C1185.13 961.955 1202.72 959.384 1218.56 963.731C1226.14 965.811 1233.93 969.686 1238.51 976.286C1242.49 981.979 1243.32 989.646 1239.79 995.812C1239 997.189 1237.96 998.484 1236.7 999.489C1236.12 999.963 1235.38 1000.56 1234.63 1000.81C1234.02 1001.04 1233.15 1000.81 1232.38 1000.61C1229.35 999.784 1227.08 997.256 1225.76 994.496C1224.28 991.383 1223.86 987.719 1224.67 984.392C1225.49 981.065 1227.97 977.937 1230.73 975.796C1236.89 971.052 1245.08 969.522 1252.69 969.709C1260.3 969.896 1268.32 971.999 1274.62 976.535C1280.31 980.614 1284.33 986.662 1284.71 993.75C1285.05 999.771 1283.1 1006.19 1278.73 1010.5C1276.65 1012.56 1274.05 1013.89 1271.19 1014.51L1273.29 1015.59C1270.11 1007.15 1273.01 998.041 1278.71 991.395C1285.33 983.694 1294.64 980.068 1304.67 980.045C1316.18 980.043 1327.33 984.37 1337.29 989.851C1346.05 994.688 1354.17 1000.62 1361.44 1007.49C1375.66 1020.95 1386.72 1038.25 1390.5 1057.67C1392.26 1066.68 1392.31 1076 1390.25 1084.98C1388.19 1093.97 1384.54 1101.82 1379.47 1109.11C1369.67 1123.17 1354.12 1134 1336.69 1134.94C1334.55 1135.06 1332.43 1135.02 1330.27 1134.87C1328.11 1134.72 1328.3 1138.06 1330.43 1138.21C1349.03 1139.62 1366.58 1130.09 1378.32 1116.06C1390.64 1101.34 1396.86 1082.19 1394.67 1063.06C1392.31 1042.39 1381.73 1023.53 1367.43 1008.73C1360.14 1001.19 1351.82 994.636 1342.85 989.223C1332.78 983.163 1321.55 978.157 1309.75 976.984C1298.94 975.904 1288.27 978.264 1279.92 985.437C1272.97 991.427 1267.95 1000.55 1268.6 1009.92C1268.76 1012.2 1269.25 1014.46 1270.08 1016.6C1270.42 1017.5 1271.23 1017.9 1272.18 1017.69C1286.8 1014.57 1291.78 995.266 1285.11 983.273C1276.56 967.864 1255.02 963.454 1239.17 968.009C1231.38 970.236 1223.15 975.615 1221.29 984.065C1219.75 991.11 1222.77 1000.15 1229.72 1003.23C1231.26 1003.89 1233.54 1004.66 1235.25 1004.23C1236.96 1003.8 1238.74 1002.23 1240 1001.01C1242.67 998.322 1244.36 994.666 1245 990.955C1246.45 982.413 1242.69 974.417 1236.19 968.936C1229.29 963.126 1220.27 960.081 1211.43 958.9C1202.6 957.719 1192.9 958.454 1184.05 961.127C1175.2 963.8 1166.47 968.376 1159.97 974.995C1154.19 980.855 1149.57 990.522 1155.06 998.097C1159.02 1003.52 1167.55 1006.75 1172.68 1000.92C1178.64 994.177 1175.25 983.044 1170.52 976.648C1158.62 960.63 1136.29 960.502 1119.3 967.571C1104.98 973.532 1093.24 984.657 1085.55 998.058C1077.85 1011.46 1074.08 1027.45 1076.03 1042.88C1076.52 1046.63 1077.31 1050.33 1078.43 1053.94C1079.07 1055.99 1082.28 1055.01 1081.62 1052.93L1081.68 1052.92Z" fill="white"/>
<path d="M1886.02 1167.13C1884.29 1167.13 1882.59 1167.21 1880.91 1167.37C1885.28 1158.46 1887.76 1148.43 1887.76 1137.81C1887.76 1100.69 1857.7 1070.61 1820.61 1070.61C1812.34 1070.61 1804.45 1072.12 1797.15 1074.85C1782.39 1020.76 1732.97 981 1674.26 981C1628.65 981 1588.65 1005 1566.15 1041.05C1558.01 1037.89 1549.19 1036.13 1539.96 1036.13C1500.02 1036.13 1467.65 1068.55 1467.65 1108.5C1467.65 1118.46 1469.66 1127.97 1473.31 1136.6C1440.07 1147.3 1416 1178.51 1416 1215.36C1416 1261.03 1453.01 1298.07 1498.64 1298.07C1503.17 1298.07 1507.65 1297.68 1511.99 1296.97C1530.13 1338.18 1571.28 1367 1619.17 1367C1663.43 1367 1701.98 1342.39 1721.87 1306.12C1737.91 1317.31 1757.39 1323.91 1778.44 1323.91C1819.15 1323.91 1854.1 1299.3 1869.32 1264.16C1874.54 1266.03 1880.17 1267.05 1886.05 1267.05C1913.64 1267.05 1936 1244.67 1936 1217.06C1936 1189.45 1913.64 1167.07 1886.05 1167.07L1886.02 1167.13Z" fill="#FCF2E8"/>
<path d="M1010.79 2054.26C1012.29 2050.69 1013.13 2046.78 1013.13 2042.66C1013.13 2026.15 999.743 2012.77 983.235 2012.77C979.413 2012.77 975.765 2013.49 972.413 2014.8C963.106 1999.91 946.585 1990 927.731 1990C903.472 1990 883.048 2006.41 876.947 2028.74C873.93 2027.62 870.657 2027 867.251 2027C851.924 2027 839.506 2039.42 839.506 2054.74C839.506 2057 839.774 2059.2 840.284 2061.29C825.68 2061.77 814 2073.76 814 2088.47C814 2103.18 826.176 2115.67 841.196 2115.67C843.851 2115.67 846.425 2115.28 848.853 2114.57C853.01 2131.88 868.579 2144.74 887.152 2144.74C897.867 2144.74 907.589 2140.46 914.683 2133.51C923.533 2143.25 936.3 2149.36 950.488 2149.36C970.281 2149.36 987.285 2137.47 994.781 2120.45C996.578 2120.75 998.415 2120.91 1000.29 2120.91C1019.16 2120.91 1034.45 2105.62 1034.45 2086.75C1034.45 2071.55 1024.5 2058.66 1010.77 2054.23L1010.79 2054.26Z" fill="white"/>
<path d="M297.109 1159.61C298.517 1156.29 299.281 1152.63 299.281 1148.79C299.281 1133.4 286.81 1120.93 271.415 1120.93C267.861 1120.93 264.455 1121.6 261.331 1122.82C252.654 1108.94 237.246 1099.7 219.679 1099.7C197.056 1099.7 178.014 1115 172.328 1135.82C169.512 1134.78 166.468 1134.2 163.29 1134.2C148.995 1134.2 137.422 1145.79 137.422 1160.07C137.422 1162.17 137.677 1164.21 138.146 1166.17C124.535 1166.63 113.646 1177.8 113.646 1191.52C113.646 1205.23 125.004 1216.87 139.004 1216.87C141.485 1216.87 143.872 1216.51 146.138 1215.86C150.014 1231.99 164.524 1243.99 181.849 1243.99C191.84 1243.99 200.905 1239.99 207.516 1233.53C215.763 1242.61 227.672 1248.31 240.907 1248.31C259.359 1248.31 275.21 1237.22 282.21 1221.35C283.886 1221.62 285.603 1221.77 287.346 1221.77C304.927 1221.77 319.195 1207.51 319.195 1189.92C319.195 1175.75 309.929 1163.73 297.109 1159.61Z" fill="white"/>
<path d="M744.927 1666.91C751.015 1652.48 754.381 1636.62 754.381 1619.98C754.381 1553.22 700.258 1499.1 633.502 1499.1C618.054 1499.1 603.303 1502.02 589.719 1507.31C552.09 1447.08 485.254 1407 409.005 1407C310.87 1407 228.278 1473.41 203.603 1563.72C191.387 1559.16 178.178 1556.67 164.379 1556.67C102.384 1556.67 52.1367 1606.92 52.1367 1668.91C52.1367 1678.04 53.2363 1686.91 55.3014 1695.4C-3.74301 1697.35 -51 1745.83 -51 1805.35C-51 1864.86 -1.74489 1915.36 59.016 1915.36C69.7709 1915.36 80.1503 1913.82 89.9798 1910.94C106.769 1980.94 169.756 2032.97 244.906 2032.97C288.247 2032.97 327.552 2015.66 356.277 1987.56C392.068 2026.95 443.697 2051.67 501.118 2051.67C581.176 2051.67 649.956 2003.59 680.277 1934.74C687.545 1935.92 694.987 1936.56 702.578 1936.56C778.867 1936.56 840.728 1874.72 840.728 1798.41C840.728 1736.9 800.511 1684.79 744.94 1666.91H744.927Z" fill="#FCF2E8"/>
<path d="M1242.84 1273.64C1244.35 1270.03 1245.2 1266.08 1245.2 1261.91C1245.2 1245.22 1231.68 1231.71 1215 1231.71C1211.14 1231.71 1207.45 1232.44 1204.06 1233.76C1194.66 1218.71 1177.95 1208.69 1158.91 1208.69C1134.38 1208.69 1113.75 1225.28 1107.59 1247.85C1104.53 1246.71 1101.23 1246.08 1097.78 1246.08C1082.29 1246.08 1069.74 1258.63 1069.74 1274.12C1069.74 1276.4 1070.02 1278.61 1070.53 1280.75C1055.78 1281.23 1043.97 1293.35 1043.97 1308.22C1043.97 1323.1 1056.28 1335.71 1071.46 1335.71C1074.14 1335.71 1076.74 1335.33 1079.2 1334.61C1083.39 1352.1 1099.14 1365.11 1117.91 1365.11C1128.75 1365.11 1138.56 1360.78 1145.74 1353.76C1154.68 1363.61 1167.58 1369.79 1181.93 1369.79C1201.94 1369.79 1219.12 1357.77 1226.69 1340.57C1228.5 1340.86 1230.37 1341.02 1232.27 1341.02C1251.34 1341.02 1266.79 1325.58 1266.79 1306.51C1266.79 1291.14 1256.74 1278.12 1242.85 1273.65L1242.84 1273.64Z" fill="white"/>
<path d="M-91.3238 1422.92C-99.56 1396.56 -88.5624 1366.22 -67.1374 1349.34C-54.9586 1339.74 -38.186 1333.7 -22.7001 1337.31C-14.9263 1339.09 -7.84537 1343.78 -3.73549 1350.72C-1.83223 1353.93 -0.59374 1357.62 -0.533452 1361.39C-0.477271 1364.94 -1.73909 1369.41 -5.5755 1370.48C-11.4362 1372.1 -17.0766 1365.73 -17.0192 1360.3C-16.9523 1351.49 -8.71199 1344.8 -1.88432 1340.58C12.1295 1331.96 29.718 1329.38 45.5615 1333.73C53.1351 1335.81 60.9306 1339.69 65.5145 1346.29C69.4879 1351.98 70.3164 1359.65 66.7906 1365.81C65.9996 1367.19 64.9636 1368.48 63.7035 1369.49C63.1198 1369.96 62.3761 1370.56 61.632 1370.81C61.0248 1371.04 60.1528 1370.81 59.3812 1370.61C56.3506 1369.78 54.0798 1367.26 52.7595 1364.5C51.2825 1361.38 50.8559 1357.72 51.6717 1354.39C52.4874 1351.07 54.9735 1347.94 57.7345 1345.8C63.8904 1341.05 72.0808 1339.52 79.6927 1339.71C87.3046 1339.9 95.3217 1342 101.62 1346.53C107.309 1350.61 111.333 1356.66 111.714 1363.75C112.049 1369.77 110.101 1376.19 105.734 1380.5C103.651 1382.56 101.05 1383.89 98.1903 1384.51L100.29 1385.59C97.1057 1377.15 100.013 1368.04 105.708 1361.4C112.331 1353.69 121.635 1350.07 131.671 1350.05C143.18 1350.04 154.33 1354.37 164.291 1359.85C173.054 1364.69 181.17 1370.62 188.436 1377.49C202.665 1390.95 213.716 1408.25 217.499 1427.67C219.258 1436.68 219.313 1446 217.253 1454.98C215.192 1463.97 211.543 1471.82 206.466 1479.11C196.67 1493.17 181.12 1504 163.693 1504.94C161.555 1505.06 159.426 1505.02 157.269 1504.87C155.113 1504.72 155.296 1508.06 157.428 1508.21C176.029 1509.62 193.577 1500.09 205.32 1486.06C217.644 1471.34 223.858 1452.19 221.672 1433.06C219.313 1412.39 208.725 1393.53 194.433 1378.73C187.135 1371.19 178.82 1364.64 169.846 1359.22C159.78 1353.16 148.549 1348.16 136.755 1346.98C125.943 1345.9 115.265 1348.26 106.916 1355.44C99.9725 1361.43 94.9498 1370.55 95.5989 1379.92C95.7616 1382.2 96.2483 1384.46 97.0762 1386.6C97.4243 1387.5 98.2309 1387.9 99.1756 1387.69C113.801 1384.57 118.783 1365.27 112.11 1353.27C103.555 1337.86 82.0247 1333.45 66.1722 1338.01C58.376 1340.24 50.1477 1345.61 48.2888 1354.07C46.7522 1361.11 49.773 1370.15 56.7229 1373.23C58.2588 1373.89 60.5391 1374.66 62.2472 1374.23C63.9554 1373.8 65.7412 1372.23 66.9972 1371.01C69.6727 1368.32 71.3559 1364.67 71.9957 1360.96C73.4534 1352.41 69.6913 1344.42 63.1879 1338.94C56.285 1333.13 47.2698 1330.08 38.4341 1328.9C29.5984 1327.72 19.901 1328.45 11.0525 1331.13C2.20389 1333.8 -6.52675 1338.38 -13.0334 1344.99C-18.8121 1350.86 -23.4311 1360.52 -17.9359 1368.1C-13.9801 1373.52 -5.45446 1376.75 -0.317986 1370.92C5.63702 1364.18 2.25126 1353.04 -2.48475 1346.65C-14.3846 1330.63 -36.7125 1330.5 -53.6961 1337.57C-68.0235 1343.53 -79.7607 1354.66 -87.4533 1368.06C-95.1458 1381.46 -98.9187 1397.45 -96.9666 1412.88C-96.482 1416.63 -95.6929 1420.33 -94.5682 1423.94C-93.9295 1425.99 -90.7216 1425.01 -91.3797 1422.93L-91.3238 1422.92Z" fill="white"/>
<path d="M1630.78 2228.45C1593.71 2207.29 1574.23 2161.36 1580.71 2119.7C1584.39 2096.02 1597.03 2071.53 1618.35 2059.31C1629.03 2053.15 1641.98 2051 1653.94 2054.53C1659.47 2056.16 1664.76 2059.04 1668.79 2063.24C1672.6 2067.2 1675.87 2073.58 1672.66 2078.84C1667.72 2086.84 1654.64 2085.57 1648.99 2079.36C1639.79 2069.32 1642.07 2053.06 1645.36 2041.1C1652.15 2016.59 1669.35 1995.16 1691.86 1983.41C1702.63 1977.79 1715.53 1973.97 1727.67 1976.62C1738.16 1978.88 1747.17 1986.69 1749.67 1997.38C1750.22 1999.77 1750.41 2002.33 1750.04 2004.79C1749.88 2005.94 1749.66 2007.4 1749.09 2008.47C1748.64 2009.37 1747.42 2010.03 1746.33 2010.61C1742.03 2012.86 1736.8 2012.39 1732.4 2010.66C1727.45 2008.69 1723.11 2004.99 1720.53 2000.36C1717.95 1995.74 1717.47 1989.58 1718.34 1984.25C1720.32 1972.4 1727.98 1962.05 1736.8 1954.25C1745.61 1946.45 1756.9 1940.39 1768.8 1938.89C1779.54 1937.52 1790.46 1940.13 1798.35 1947.76C1805.07 1954.22 1809.62 1963.54 1809.21 1973.02C1809.02 1977.54 1807.48 1981.79 1804.89 1985.49L1808.41 1984.51C1795.92 1978.3 1789.62 1964.93 1789.07 1951.41C1788.46 1935.72 1795.18 1921.83 1806.52 1911.24C1819.54 1899.12 1836.72 1892.28 1853.77 1888C1868.78 1884.25 1884.21 1882.42 1899.67 1882.55C1929.94 1882.81 1960.67 1890.77 1985.38 1908.77C1996.87 1917.12 2006.73 1927.61 2013.86 1939.95C2020.98 1952.29 2025.12 1965.02 2027.05 1978.62C2030.75 2004.84 2024.55 2033.47 2005.81 2052.88C2003.52 2055.26 2001.06 2057.46 1998.46 2059.56C1995.86 2061.66 1999.59 2065.25 2002.16 2063.17C2024.7 2045.19 2034.54 2015.93 2033.06 1987.69C2031.52 1958.06 2018.4 1929.83 1995.79 1910.48C1971.36 1889.56 1939.52 1879.35 1907.76 1877.65C1891.57 1876.8 1875.25 1878.13 1859.4 1881.44C1841.62 1885.18 1823.64 1891.33 1809.05 1902.42C1795.67 1912.58 1786.07 1926.49 1784.17 1943.4C1782.61 1957.49 1786.53 1973.1 1797.13 1983.03C1799.72 1985.44 1802.64 1987.48 1805.83 1989.03C1807.17 1989.69 1808.5 1989.29 1809.36 1988.06C1822.63 1969.13 1807.95 1942.03 1787.77 1935.48C1761.87 1927.04 1732.85 1944.71 1719.7 1966.55C1713.22 1977.28 1709.57 1992.03 1716.36 2003.56C1722.03 2013.15 1734.97 2020.2 1746.07 2016.37C1748.51 2015.51 1751.9 2013.97 1753.38 2011.69C1754.87 2009.41 1755.23 2005.75 1755.37 2003.05C1755.57 1997.19 1753.63 1991.28 1750.45 1986.4C1743.1 1975.2 1730.43 1970.1 1717.3 1970.75C1703.37 1971.43 1689.96 1977.48 1678.71 1985.44C1667.47 1993.4 1657.26 2004.44 1650.06 2016.78C1642.85 2029.12 1637.79 2043.49 1637.39 2057.84C1637.02 2070.55 1641.96 2086.36 1656.16 2089.15C1666.34 2091.13 1679.39 2085.8 1679.07 2073.8C1678.72 2059.9 1663.16 2050.86 1651.07 2048.6C1620.74 2043 1595.33 2066.35 1583.54 2092.23C1573.6 2114.06 1572.02 2139.01 1577.42 2162.28C1582.81 2185.55 1595.37 2207.62 1613.82 2223.03C1618.33 2226.77 1623.11 2230.12 1628.18 2233.03C1631.06 2234.68 1633.66 2230.19 1630.73 2228.53L1630.78 2228.45Z" fill="white"/>
</svg>
