<svg width="95" height="95" viewBox="0 0 95 95" fill="none" xmlns="http://www.w3.org/2000/svg">
<g filter="url(#filter0_d_1_2448)">
<rect x="5.04688" y="5" width="80.0312" height="80.0312" rx="40.0156" fill="#FCF2E8" shape-rendering="crispEdges"/>
<rect x="2.58437" y="2.5375" width="84.9563" height="84.9563" rx="42.4781" stroke="#010200" stroke-width="4.925" shape-rendering="crispEdges"/>
<path d="M36.4606 31.0466C39.6061 27.9011 43.3679 27.1147 44.9594 27.1147C46.5509 27.1147 50.5202 27.9011 53.6656 31.0466C54.3209 30.7658 55.8001 29.9794 56.4741 29.0807C55.7252 31.1402 52.7669 35.8772 46.9253 38.3486C46.786 38.0534 46.1978 37.463 44.9594 37.463C43.7209 37.463 43.3402 38.0534 43.201 38.3486C37.3593 35.8772 34.4011 31.1402 33.6522 29.0807C34.3262 29.9794 35.8053 30.7658 36.4606 31.0466Z" fill="#010200"/>
<path d="M38.2864 37.5505C39.1723 38.2184 41.1662 39.6327 42.0548 39.9464C40.363 40.4764 37.2408 40.7392 38.2864 37.5505Z" fill="#010200"/>
<path d="M34.7581 33.7824C35.1719 34.3995 36.139 35.7383 36.6966 36.1565C35.8035 38.2402 35.3111 42.4076 40.4862 42.4076L40.3555 44.2154L36.5221 46.3935C38.3253 46.9404 42.2499 49.4366 43.5221 55.0461L45.0487 60.323L46.6029 55.0461C47.8751 49.4366 51.7997 46.9404 53.6029 46.3935L49.7695 44.2154L49.6388 42.4076C54.8139 42.4076 54.3215 38.2402 53.4284 36.1565C53.986 35.7383 54.9531 34.3995 55.3669 33.7824C56.9756 35.391 57.1504 38.562 57.0367 39.9464C57.0367 50.3971 58.99 55.2792 59.9666 56.4139L55.829 53.2526L53.0276 57.8789L49.7695 55.0461L45.0487 62.9164L40.3555 55.0461L37.0974 57.8789L34.296 53.2526L30.1584 56.4139C31.135 55.2792 33.0883 50.3971 33.0883 39.9464C32.9746 38.562 33.1494 35.391 34.7581 33.7824Z" fill="#010200"/>
<path d="M51.8386 37.5505C50.9527 38.2184 48.9588 39.6327 48.0702 39.9464C49.762 40.4764 52.8842 40.7392 51.8386 37.5505Z" fill="#010200"/>
<path d="M42.5417 42.9497C42.5417 40.8837 44.298 39.8668 45.1787 39.6166C46.0595 39.8668 47.821 40.8837 47.821 42.9497V45.2018L49.8028 46.4329C48.2615 47.3938 45.184 50.2584 45.184 54.03C45.184 50.2584 42.1013 47.3938 40.5599 46.4329L42.5417 45.2018V42.9497Z" fill="#010200"/>
</g>
<defs>
<filter id="filter0_d_1_2448" x="0.121887" y="0.0749512" width="94.8062" height="94.8063" filterUnits="userSpaceOnUse" color-interpolation-filters="sRGB">
<feFlood flood-opacity="0" result="BackgroundImageFix"/>
<feColorMatrix in="SourceAlpha" type="matrix" values="0 0 0 0 0 0 0 0 0 0 0 0 0 0 0 0 0 0 127 0" result="hardAlpha"/>
<feOffset dx="4.925" dy="4.925"/>
<feComposite in2="hardAlpha" operator="out"/>
<feColorMatrix type="matrix" values="0 0 0 0 1 0 0 0 0 0.909804 0 0 0 0 0.643137 0 0 0 1 0"/>
<feBlend mode="normal" in2="BackgroundImageFix" result="effect1_dropShadow_1_2448"/>
<feBlend mode="normal" in="SourceGraphic" in2="effect1_dropShadow_1_2448" result="shape"/>
</filter>
</defs>
</svg>
