<svg width="95" height="95" viewBox="0 0 95 95" fill="none" xmlns="http://www.w3.org/2000/svg">
<g filter="url(#filter0_d_1_2452)">
<rect x="5.10938" y="5" width="80.0312" height="80.0312" rx="40.0156" fill="#FCF2E8" shape-rendering="crispEdges"/>
<rect x="2.64687" y="2.5375" width="84.9563" height="84.9563" rx="42.4781" stroke="#010200" stroke-width="4.925" shape-rendering="crispEdges"/>
<path d="M37.5186 46.3291C38.2371 47.0476 38.2371 48.2125 37.5186 48.931L35.3545 51.0952C34.1143 52.3354 34.1537 54.3579 35.4412 55.5488C36.1871 56.2388 36.2325 57.4028 35.5425 58.1488C34.8525 58.8947 33.6884 58.9401 32.9425 58.2501C30.1219 55.641 30.0356 51.2102 32.7525 48.4933L34.9167 46.3291C35.6352 45.6106 36.8001 45.6106 37.5186 46.3291Z" fill="#010200"/>
<path fill-rule="evenodd" clip-rule="evenodd" d="M36.2177 36.1083L44.6208 27.7052C49.5402 22.7858 57.5161 22.7858 62.4355 27.7052C67.3548 32.6245 67.3548 40.6004 62.4355 45.5198L54.0323 53.923L45.6292 62.3261C40.7098 67.2455 32.7339 67.2455 27.8145 62.3261C22.8952 57.4067 22.8952 49.4308 27.8145 44.5114L36.2177 36.1083ZM40.1206 37.4093L52.7314 50.0201L59.8335 42.9179C63.3159 39.4355 63.3159 33.7895 59.8335 30.3071C56.3512 26.8247 50.7051 26.8247 47.2227 30.3071L40.1206 37.4093ZM50.1294 52.622L37.5186 40.0112L30.4165 47.1134C26.9341 50.5957 26.9341 56.2418 30.4165 59.7242C33.8988 63.2065 39.5449 63.2065 43.0273 59.7242L50.1294 52.622Z" fill="#010200"/>
</g>
<defs>
<filter id="filter0_d_1_2452" x="0.184387" y="0.0749512" width="94.8062" height="94.8063" filterUnits="userSpaceOnUse" color-interpolation-filters="sRGB">
<feFlood flood-opacity="0" result="BackgroundImageFix"/>
<feColorMatrix in="SourceAlpha" type="matrix" values="0 0 0 0 0 0 0 0 0 0 0 0 0 0 0 0 0 0 127 0" result="hardAlpha"/>
<feOffset dx="4.925" dy="4.925"/>
<feComposite in2="hardAlpha" operator="out"/>
<feColorMatrix type="matrix" values="0 0 0 0 1 0 0 0 0 0.909804 0 0 0 0 0.643137 0 0 0 1 0"/>
<feBlend mode="normal" in2="BackgroundImageFix" result="effect1_dropShadow_1_2452"/>
<feBlend mode="normal" in="SourceGraphic" in2="effect1_dropShadow_1_2452" result="shape"/>
</filter>
</defs>
</svg>
