<svg width="95" height="95" viewBox="0 0 95 95" fill="none" xmlns="http://www.w3.org/2000/svg">
<g filter="url(#filter0_d_1_2444)">
<rect x="4.98438" y="5" width="80.0312" height="80.0312" rx="40.0156" fill="#FCF2E8" shape-rendering="crispEdges"/>
<rect x="2.52187" y="2.5375" width="84.9563" height="84.9563" rx="42.4781" stroke="#010200" stroke-width="4.925" shape-rendering="crispEdges"/>
<path fill-rule="evenodd" clip-rule="evenodd" d="M58.8953 31.1113C59.3262 30.9406 59.798 30.8816 60.2613 30.9408C60.7247 30.9999 61.1627 31.1748 61.5299 31.4474C61.8971 31.7201 62.1799 32.0803 62.349 32.4908C62.5181 32.9013 62.5673 33.3469 62.4914 33.7813L58.536 56.3711C58.1523 58.5501 55.6131 59.7998 53.4906 58.7144C51.7152 57.8063 49.0783 56.4073 46.7065 54.9475C45.5206 54.2168 41.8878 51.8768 42.3343 50.2118C42.718 48.7881 48.822 43.4383 52.3099 40.2576C53.679 39.008 53.0546 38.2871 51.438 39.4366C47.4233 42.2905 40.9775 46.6304 38.8463 47.8521C36.9663 48.9293 35.9862 49.1132 34.8142 48.9293C32.6761 48.5943 30.6932 48.0755 29.0747 47.4433C26.8878 46.5894 26.9941 43.7585 29.073 42.9342L58.8953 31.1113Z" fill="#010200"/>
</g>
<defs>
<filter id="filter0_d_1_2444" x="0.0593872" y="0.0749512" width="94.8062" height="94.8063" filterUnits="userSpaceOnUse" color-interpolation-filters="sRGB">
<feFlood flood-opacity="0" result="BackgroundImageFix"/>
<feColorMatrix in="SourceAlpha" type="matrix" values="0 0 0 0 0 0 0 0 0 0 0 0 0 0 0 0 0 0 127 0" result="hardAlpha"/>
<feOffset dx="4.925" dy="4.925"/>
<feComposite in2="hardAlpha" operator="out"/>
<feColorMatrix type="matrix" values="0 0 0 0 1 0 0 0 0 0.909804 0 0 0 0 0.643137 0 0 0 1 0"/>
<feBlend mode="normal" in2="BackgroundImageFix" result="effect1_dropShadow_1_2444"/>
<feBlend mode="normal" in="SourceGraphic" in2="effect1_dropShadow_1_2444" result="shape"/>
</filter>
</defs>
</svg>
