<svg width="26" height="21" viewBox="0 0 26 21" fill="none" xmlns="http://www.w3.org/2000/svg">
<path d="M12.9975 21C2.33086 21 0.0660156 10.8078 0.0431641 10.706L0 10.5L0.0431641 10.294C0.0634766 10.1922 2.32832 0 12.9975 0C23.6666 0 25.9314 10.1922 25.9518 10.294L26 10.5254L25.9391 10.7544C25.9162 10.8561 23.1334 21 12.9975 21ZM2.04648 10.4975C2.39434 11.8405 4.64141 18.9982 13 18.9982C20.8914 18.9982 23.5041 11.8888 23.9459 10.4746C23.5752 9.06286 21.3002 1.99927 13 1.99927C4.61094 1.99927 2.3918 9.1468 2.04648 10.4975Z" fill="white"/>
<path d="M12.9975 15.5007C10.2451 15.5007 8.00566 13.2573 8.00566 10.5C8.00566 7.74273 10.2451 5.49927 12.9975 5.49927C13.5484 5.49927 13.9953 5.94695 13.9953 6.49891C13.9953 7.05087 13.5484 7.49855 12.9975 7.49855C11.3471 7.49855 10.0039 8.84411 10.0039 10.4975C10.0039 12.1508 11.3471 13.4964 12.9975 13.4964C14.6479 13.4964 15.9936 12.1533 15.9936 10.5C15.9936 9.86919 15.8006 9.26635 15.4375 8.75763C15.115 8.30741 15.2191 7.68423 15.6686 7.36119C16.118 7.03815 16.74 7.14244 17.06 7.59266C17.6693 8.44477 17.9893 9.44949 17.9893 10.5C17.9893 13.2573 15.7498 15.5007 12.9975 15.5007Z" fill="white"/>
</svg>
