<svg width="22" height="22" viewBox="0 0 22 22" fill="none" xmlns="http://www.w3.org/2000/svg">
<path fill-rule="evenodd" clip-rule="evenodd" d="M0.846154 13.5385C1.31347 13.5385 1.69231 13.9173 1.69231 14.3846C1.69231 16.004 1.6941 17.1335 1.80868 17.9857C1.91998 18.8136 2.12356 19.2519 2.43581 19.5642C2.74805 19.8765 3.18645 20.08 4.01429 20.1914C4.86648 20.3059 5.99595 20.3077 7.61539 20.3077H14.3846C16.004 20.3077 17.1335 20.3059 17.9857 20.1914C18.8136 20.08 19.2519 19.8765 19.5642 19.5642C19.8765 19.2519 20.08 18.8136 20.1914 17.9857C20.3059 17.1335 20.3077 16.004 20.3077 14.3846C20.3077 13.9173 20.6865 13.5385 21.1538 13.5385C21.6211 13.5385 22 13.9173 22 14.3846V14.4466C22 15.9895 22 17.2331 21.8686 18.2113C21.732 19.2268 21.44 20.0817 20.7609 20.7608C20.0817 21.44 19.2268 21.732 18.2113 21.8686C17.2331 22 15.9895 22 14.4466 22H7.55348C6.01056 22 4.76692 22 3.7888 21.8686C2.77329 21.732 1.91825 21.44 1.23916 20.7609C0.560075 20.0817 0.267994 19.2268 0.131459 18.2113C-4.46112e-05 17.2331 -2.1973e-05 15.9895 5.91128e-07 14.4466C5.91128e-07 14.4259 5.91128e-07 14.4053 5.91128e-07 14.3846C5.91128e-07 13.9173 0.378841 13.5385 0.846154 13.5385Z" fill="black"/>
<path fill-rule="evenodd" clip-rule="evenodd" d="M11 16.359C11.2376 16.359 11.4641 16.2591 11.6245 16.0838L16.1373 11.1479C16.4526 10.803 16.4287 10.2678 16.0838 9.95246C15.7389 9.63713 15.2037 9.66105 14.8884 10.0059L11.8462 13.3334V0.846154C11.8462 0.37884 11.4673 0 11 0C10.5327 0 10.1538 0.37884 10.1538 0.846154V13.3334L7.11168 10.0059C6.79634 9.66105 6.26112 9.63713 5.91623 9.95246C5.57134 10.2678 5.54736 10.803 5.8627 11.1479L10.3755 16.0838C10.5359 16.2591 10.7624 16.359 11 16.359Z" fill="black"/>
</svg>
