<svg width="44" height="44" viewBox="0 0 44 44" fill="none" xmlns="http://www.w3.org/2000/svg">
<path d="M22 2C24.6264 2 27.2272 2.51732 29.6537 3.52241C32.0802 4.52751 34.285 6.0007 36.1421 7.85787C37.9993 9.71504 39.4725 11.9198 40.4776 14.3463C41.4827 16.7729 42 19.3736 42 22M22 2V22M22 2C10.9543 2 2 10.9543 2 22C2 33.0457 10.9543 42 22 42C33.0457 42 42 33.0457 42 22M22 2C33.0457 2 42 10.9543 42 22M42 22L22 22M42 22C42 25.1562 41.253 28.2676 39.8201 31.0798C38.3872 33.892 36.3091 36.3252 33.7557 38.1803L22 22" stroke="#1AFFF1" stroke-width="3" stroke-linecap="round" stroke-linejoin="round"/>
</svg>
