<svg width="40" height="36" viewBox="0 0 40 36" fill="none" xmlns="http://www.w3.org/2000/svg">
<path d="M38 12.5H26M38 2H2M38 23.5H26M38 34H2M5.2 26H14.8C15.9201 26 16.4802 26 16.908 25.782C17.2843 25.5903 17.5903 25.2843 17.782 24.908C18 24.4802 18 23.9201 18 22.8V13.2C18 12.0799 18 11.5198 17.782 11.092C17.5903 10.7157 17.2843 10.4097 16.908 10.218C16.4802 10 15.9201 10 14.8 10H5.2C4.0799 10 3.51984 10 3.09202 10.218C2.71569 10.4097 2.40973 10.7157 2.21799 11.092C2 11.5198 2 12.0799 2 13.2V22.8C2 23.9201 2 24.4802 2.21799 24.908C2.40973 25.2843 2.71569 25.5903 3.09202 25.782C3.51984 26 4.07989 26 5.2 26Z" stroke="#1AFFF1" stroke-width="3" stroke-linecap="round" stroke-linejoin="round"/>
</svg>
