<svg width="44" height="40" viewBox="0 0 44 40" fill="none" xmlns="http://www.w3.org/2000/svg">
<path d="M22 28V38M22 28L34 38M22 28L10 38M40 2V18.4C40 21.7603 40 23.4405 39.346 24.7239C38.7708 25.8529 37.8529 26.7708 36.7239 27.346C35.4405 28 33.7603 28 30.4 28H13.6C10.2397 28 8.55953 28 7.27606 27.346C6.14708 26.7708 5.2292 25.8529 4.65396 24.7239C4 23.4405 4 21.7603 4 18.4V2M14 14V20M22 10V20M30 18V20M42 2H2" stroke="#1AFFF1" stroke-width="3" stroke-linecap="round" stroke-linejoin="round"/>
</svg>
