<svg width="42" height="38" viewBox="0 0 42 38" fill="none" xmlns="http://www.w3.org/2000/svg">
<path d="M37 36V22M21 36V16M5 36L5 28M23.8134 6.05501L34.1502 9.93134M18.5975 6.80184L7.40046 15.1997M39.1213 8.87868C40.2929 10.0503 40.2929 11.9497 39.1213 13.1213C37.9497 14.2929 36.0503 14.2929 34.8787 13.1213C33.7071 11.9497 33.7071 10.0503 34.8787 8.87868C36.0503 7.70711 37.9497 7.70711 39.1213 8.87868ZM7.12132 14.8787C8.29289 16.0503 8.29289 17.9497 7.12132 19.1213C5.94975 20.2929 4.05025 20.2929 2.87868 19.1213C1.70711 17.9497 1.70711 16.0503 2.87868 14.8787C4.05025 13.7071 5.94975 13.7071 7.12132 14.8787ZM23.1213 2.87868C24.2929 4.05025 24.2929 5.94975 23.1213 7.12132C21.9497 8.29289 20.0503 8.29289 18.8787 7.12132C17.7071 5.94975 17.7071 4.05025 18.8787 2.87868C20.0503 1.70711 21.9497 1.70711 23.1213 2.87868Z" stroke="#1AFFF1" stroke-width="3" stroke-linecap="round" stroke-linejoin="round"/>
</svg>
