<svg width="40" height="40" viewBox="0 0 40 40" fill="none" xmlns="http://www.w3.org/2000/svg">
<path d="M14 10H5.2C4.07989 10 3.51984 10 3.09202 10.218C2.71569 10.4097 2.40973 10.7157 2.21799 11.092C2 11.5198 2 12.0799 2 13.2V34.8C2 35.9201 2 36.4802 2.21799 36.908C2.40973 37.2843 2.71569 37.5903 3.09202 37.782C3.51984 38 4.0799 38 5.2 38H14M14 38H26M14 38L14 5.2C14 4.0799 14 3.51984 14.218 3.09202C14.4097 2.7157 14.7157 2.40973 15.092 2.21799C15.5198 2 16.0799 2 17.2 2L22.8 2C23.9201 2 24.4802 2 24.908 2.21799C25.2843 2.40973 25.5903 2.71569 25.782 3.09202C26 3.51984 26 4.0799 26 5.2V38M26 18H34.8C35.9201 18 36.4802 18 36.908 18.218C37.2843 18.4097 37.5903 18.7157 37.782 19.092C38 19.5198 38 20.0799 38 21.2V34.8C38 35.9201 38 36.4802 37.782 36.908C37.5903 37.2843 37.2843 37.5903 36.908 37.782C36.4802 38 35.9201 38 34.8 38H26" stroke="#1AFFF1" stroke-width="3" stroke-linecap="round" stroke-linejoin="round"/>
</svg>
