<svg width="24" height="24" viewBox="0 0 24 24" fill="none" xmlns="http://www.w3.org/2000/svg">
<path fill-rule="evenodd" clip-rule="evenodd" d="M8 1.968V5.59188e-07H7.82C7.194 5.59188e-07 6.588 0.124 6.002 0.37C5.41876 0.614497 4.89139 0.975151 4.452 1.43C4.02439 1.85977 3.68889 2.3722 3.466 2.936V2.938C3.26759 3.47335 3.13462 4.03073 3.07 4.598V4.602C3.01312 5.17547 2.99708 5.75226 3.022 6.328C3.046 6.908 3.058 7.488 3.058 8.066C3.058 8.472 2.978 8.852 2.824 9.21C2.53048 9.90867 1.98406 10.4728 1.294 10.786C0.942119 10.9397 0.561972 11.018 0.178 11.016H0V12.984H0.18C0.57 12.984 0.94 13.064 1.292 13.226L1.294 13.228C1.65 13.384 1.952 13.596 2.204 13.864L2.208 13.868C2.468 14.128 2.674 14.438 2.822 14.798L2.824 14.802C2.98 15.162 3.058 15.538 3.058 15.934C3.058 16.514 3.046 17.094 3.022 17.672C2.998 18.264 3.014 18.842 3.07 19.412C3.136 19.978 3.268 20.53 3.464 21.062C3.676 21.608 4.006 22.112 4.452 22.57C4.898 23.03 5.416 23.384 6.002 23.63C6.588 23.876 7.194 24 7.822 24H8V22.032H7.82C7.42 22.032 7.046 21.956 6.694 21.802C6.35447 21.6434 6.04518 21.4268 5.78 21.162C5.52257 20.8879 5.31359 20.5721 5.162 20.228C5.014 19.868 4.942 19.488 4.942 19.082C4.942 18.626 4.948 18.176 4.964 17.738C4.98 17.282 4.98 16.838 4.964 16.408C4.95695 15.9793 4.9202 15.5516 4.854 15.128C4.79038 14.7102 4.67759 14.3013 4.518 13.91C4.20671 13.1527 3.69762 12.4931 3.044 12C3.69836 11.5072 4.20816 10.8475 4.52 10.09C4.68 9.706 4.79 9.304 4.856 8.886C4.922 8.466 4.958 8.04 4.966 7.606C4.982 7.166 4.982 6.722 4.966 6.274C4.95 5.826 4.942 5.374 4.942 4.918C4.93853 4.34477 5.10271 3.78303 5.41434 3.3019C5.72598 2.82077 6.17147 2.44124 6.696 2.21C7.04916 2.04807 7.4335 1.96547 7.822 1.968H8ZM16 22.032V24H16.18C16.806 24 17.412 23.876 17.998 23.63C18.584 23.384 19.102 23.03 19.548 22.57C19.994 22.11 20.324 21.61 20.534 21.064C20.734 20.532 20.864 19.976 20.93 19.402V19.398C20.986 18.838 21.002 18.264 20.978 17.672C20.954 17.092 20.942 16.512 20.942 15.934C20.942 15.528 21.022 15.148 21.176 14.79V14.788C21.4692 14.0891 22.0157 13.5269 22.706 13.214C23.058 13.0605 23.4381 12.9822 23.822 12.984H24V11.016H23.82C23.428 11.016 23.058 10.936 22.706 10.774L22.704 10.772C22.3606 10.624 22.051 10.4076 21.794 10.136L21.79 10.132C21.5257 9.86576 21.317 9.54963 21.176 9.202V9.198C21.0197 8.84111 20.9393 8.45562 20.94 8.066C20.94 7.486 20.952 6.906 20.976 6.328C21.001 5.74759 20.9849 5.16615 20.928 4.588C20.8632 4.02487 20.7309 3.46956 20.534 2.938V2.936C20.3105 2.37203 19.9743 1.85958 19.546 1.43C19.1066 0.975194 18.5792 0.614546 17.996 0.37C17.4204 0.125537 16.8014 -0.000306121 16.176 5.59188e-07H16V1.968H16.18C16.58 1.968 16.954 2.044 17.304 2.198C17.652 2.362 17.956 2.574 18.218 2.838C18.472 3.106 18.678 3.418 18.836 3.772C18.984 4.132 19.056 4.512 19.056 4.918C19.056 5.374 19.05 5.822 19.034 6.262C19.018 6.718 19.018 7.162 19.034 7.592C19.042 8.036 19.078 8.462 19.144 8.872C19.21 9.3 19.322 9.704 19.48 10.09C19.7919 10.8474 20.3017 11.5071 20.956 12C20.3017 12.4929 19.7919 13.1526 19.48 13.91C19.3216 14.2969 19.2088 14.701 19.144 15.114C19.078 15.534 19.042 15.96 19.034 16.394C19.0178 16.8379 19.0178 17.2821 19.034 17.726C19.05 18.174 19.058 18.626 19.058 19.082C19.0612 19.6552 18.8969 20.2168 18.5853 20.6979C18.2737 21.179 17.8284 21.5586 17.304 21.79C16.9508 21.9519 16.5665 22.0345 16.178 22.032H16Z" fill="white"/>
</svg>
