<svg width="43" height="50" viewBox="0 0 43 50" fill="none" xmlns="http://www.w3.org/2000/svg">
<path d="M9.30223 5.49128C13.6953 1.09826 19.2388 0 21.4615 0V14.4525C19.7319 14.4525 18.9104 15.2771 18.7159 15.6894C10.5574 12.2377 6.42584 5.62203 5.37988 2.74564C6.32125 4.00079 8.38701 5.09905 9.30223 5.49128Z" fill="white"/>
<path d="M33.3308 5.49128C28.9378 1.09826 23.3942 0 21.1716 0V14.4525C22.9012 14.4525 23.7227 15.2771 23.9172 15.6894C32.0757 12.2377 36.2072 5.62203 37.2532 2.74564C36.3118 4.00079 34.246 5.09905 33.3308 5.49128Z" fill="white"/>
<path d="M11.8522 14.5736C13.0894 15.5065 15.8742 17.4817 17.1151 17.9198C14.7524 18.66 10.3919 19.027 11.8522 14.5736Z" fill="white"/>
<path d="M9.63181 12.6268C8.85307 12.0427 7.50244 10.1729 6.92447 9.31104C4.67781 11.5577 4.43368 15.9863 4.59244 17.9198C4.59244 32.5154 1.86447 39.3338 0.500488 40.9186L6.27912 36.5035L10.1917 42.9646L14.742 39.0082L21.3351 50V46.3781L19.1645 39.0082C17.3876 31.174 11.9066 27.6878 9.38813 26.924L14.742 23.882L14.9245 21.3572C7.6968 21.3572 8.3845 15.5369 9.63181 12.6268Z" fill="white"/>
<path d="M30.7797 14.5736C29.5424 15.5065 26.7576 17.4817 25.5167 17.9198C27.8795 18.66 32.24 19.027 30.7797 14.5736Z" fill="white"/>
<path d="M33 12.6268C33.7788 12.0427 35.1294 10.1729 35.7074 9.31104C37.954 11.5577 38.1982 15.9863 38.0394 17.9198C38.0394 32.5154 40.7674 39.3338 42.1313 40.9186L36.3527 36.5035L32.4402 42.9646L27.8899 39.0082L21.2968 50V46.3781L23.4674 39.0082C25.2442 31.174 30.7253 27.6878 33.2437 26.924L27.8899 23.882L27.7073 21.3572C34.935 21.3572 34.2473 15.5369 33 12.6268Z" fill="white"/>
<path d="M17.7952 22.1142C17.7952 19.2289 20.2553 17.8086 21.4854 17.4591V37.5891C21.4854 32.3217 17.18 28.3209 15.0273 26.9789L17.7952 25.2595V22.1142Z" fill="white"/>
<path d="M25.1689 22.1142C25.1689 19.2289 22.7088 17.8086 21.4787 17.4591V37.5891C21.4787 32.3217 25.7841 28.3209 27.9368 26.9789L25.1689 25.2595V22.1142Z" fill="white"/>
</svg>
