<svg width="21" height="26" viewBox="0 0 21 26" fill="none" xmlns="http://www.w3.org/2000/svg">
<path fill-rule="evenodd" clip-rule="evenodd" d="M1.16667 0.5C0.52234 0.5 0 1.00877 0 1.63636V24.3636C0 24.9913 0.52234 25.5 1.16667 25.5C1.81099 25.5 2.33333 24.9913 2.33333 24.3636V14.8163C2.87702 14.5526 3.73652 14.1851 4.65793 13.9608C6.31063 13.5584 7.63698 13.7069 8.36267 14.767C9.71717 16.7459 12.3039 16.9202 14.2947 16.727C16.3955 16.5232 18.4739 15.8531 19.5246 15.4745C20.4478 15.142 21 14.2882 21 13.3873V5.86747C21 4.10451 19.0841 3.07527 17.5571 3.74978C16.3188 4.2968 14.6736 4.90767 13.1869 5.10943C11.6315 5.32053 10.7282 5.03489 10.304 4.41527C8.77345 2.17912 6.15484 1.91439 4.2781 2.06672C3.55763 2.1252 2.88819 2.24791 2.33333 2.37783V1.63636C2.33333 1.00877 1.81099 0.5 1.16667 0.5ZM2.33333 4.72849V12.3235C2.84764 12.119 3.44885 11.9125 4.09205 11.7559C5.93935 11.3061 8.69633 11.1576 10.304 13.5063C10.8624 14.322 12.1491 14.6512 14.0633 14.4656C15.8384 14.2933 17.6659 13.7183 18.6667 13.3605V5.86747C18.6667 5.81584 18.5595 5.80253 18.5208 5.81961C17.2171 6.3955 15.3295 7.11332 13.509 7.36041C11.7572 7.59817 9.5788 7.45284 8.36267 5.676C7.55987 4.50323 6.09513 4.19984 4.47188 4.33159C3.64473 4.39874 2.87498 4.5753 2.33333 4.72849Z" fill="#0F0F0F"/>
</svg>
