<svg width="31" height="24" viewBox="0 0 31 24" fill="none" xmlns="http://www.w3.org/2000/svg">
<path d="M26.9211 4.27596C28.8925 6.24507 30 8.91504 30 11.6988C30 14.4826 28.8925 17.1526 26.9211 19.1216M24.1317 16.3914C25.3643 15.1606 26.0568 13.4915 26.0568 11.7512C26.0568 10.0109 25.3643 8.342 24.1317 7.11125M16.2548 1.36207C14.6372 0.758268 11.2049 2.67456 8.36437 5.18165H6.26023C4.86512 5.18165 3.52716 5.73491 2.54068 6.71955C1.55419 7.7042 1 9.0396 1 10.4322V13.0574C1 14.4498 1.55419 15.7854 2.54068 16.7701C3.52716 17.7547 4.86512 18.3078 6.26023 18.3078H8.36437C11.1391 20.8543 14.5715 22.7313 16.2548 22.1407C19.0164 21.1168 19.4765 15.5776 19.4765 11.7448C19.4765 7.91189 19.0164 2.38591 16.2548 1.36207Z" stroke="black" stroke-width="2" stroke-linecap="round" stroke-linejoin="round"/>
</svg>
