<svg width="44" height="38" viewBox="0 0 44 38" fill="none" xmlns="http://www.w3.org/2000/svg">
<path fill-rule="evenodd" clip-rule="evenodd" d="M39.4423 0.25997C39.9833 0.0297804 40.5755 -0.0496103 41.1571 0.0300599C41.7388 0.10973 42.2886 0.345549 42.7495 0.712972C43.2104 1.08039 43.5655 1.56599 43.7777 2.11921C43.99 2.67244 44.0517 3.27306 43.9565 3.85858L38.9914 34.3051C38.5098 37.242 35.3223 38.9262 32.6581 37.4633C30.4295 36.2394 27.1194 34.3538 24.1421 32.3863C22.6535 31.4014 18.0934 28.2477 18.6538 26.0035C19.1354 24.0847 26.7976 16.8742 31.176 12.5873C32.8945 10.9031 32.1108 9.93151 30.0814 11.4807C25.0419 15.3272 16.9506 21.1766 14.2754 22.8232C11.9155 24.275 10.6852 24.5229 9.21405 24.275C6.5301 23.8236 4.041 23.1242 2.00943 22.2721C-0.735812 21.1213 -0.602272 17.3058 2.00724 16.1948L39.4423 0.25997Z" fill="white"/>
</svg>
