<svg width="27" height="24" viewBox="0 0 27 24" fill="none" xmlns="http://www.w3.org/2000/svg">
<path d="M13.5 6.17647H26M13.5 6.17647C13.5 9.0353 11.2614 11.3529 8.5 11.3529C5.73858 11.3529 3.5 9.0353 3.5 6.17647M13.5 6.17647C13.5 3.31759 11.2614 1 8.5 1C5.73858 1 3.5 3.31759 3.5 6.17647M1 6.17647H3.5M23.5 17.8235H26M23.5 17.8235C23.5 20.6824 21.2614 23 18.5 23C15.7386 23 13.5 20.6824 13.5 17.8235M23.5 17.8235C23.5 14.9647 21.2614 12.6471 18.5 12.6471C15.7386 12.6471 13.5 14.9647 13.5 17.8235M1 17.8235H13.5" stroke="black" stroke-width="2" stroke-linecap="round" stroke-linejoin="round"/>
</svg>
