<svg width="274" height="81" viewBox="0 0 274 81" fill="none" xmlns="http://www.w3.org/2000/svg">
<rect width="274" height="81" rx="40.5" fill="#FFCEAF"/>
<path d="M113.932 40.908V38.762H117.209C117.77 38.762 118.243 38.675 118.63 38.501C119.036 38.327 119.345 38.0853 119.558 37.776C119.771 37.4473 119.877 37.051 119.877 36.587C119.877 35.891 119.645 35.369 119.181 35.021C118.717 34.673 118.06 34.499 117.209 34.499H115.179V47.201H117.673C118.311 47.201 118.881 47.1237 119.384 46.969C119.887 46.795 120.283 46.5243 120.573 46.157C120.882 45.7703 121.037 45.2483 121.037 44.591C121.037 44.1657 120.95 43.7983 120.776 43.489C120.602 43.1797 120.36 42.9283 120.051 42.735C119.742 42.5417 119.384 42.4063 118.978 42.329C118.591 42.2323 118.156 42.184 117.673 42.184H113.932V39.516H118.224C119.21 39.516 120.167 39.6223 121.095 39.835C122.023 40.0477 122.864 40.3957 123.618 40.879C124.372 41.343 124.971 41.9423 125.416 42.677C125.88 43.3923 126.112 44.2623 126.112 45.287C126.112 46.6403 125.783 47.7327 125.126 48.564C124.488 49.3953 123.579 50.014 122.4 50.42C121.221 50.8067 119.829 51 118.224 51H110.278V30.7H117.731C119.142 30.7 120.38 30.8933 121.443 31.28C122.526 31.6473 123.376 32.2177 123.995 32.991C124.633 33.745 124.952 34.702 124.952 35.862C124.952 36.9253 124.633 37.834 123.995 38.588C123.376 39.342 122.526 39.922 121.443 40.328C120.38 40.7147 119.142 40.908 117.731 40.908H113.932ZM129.391 30.7H134.292V43.982C134.292 45.0067 134.562 45.838 135.104 46.476C135.645 47.114 136.457 47.433 137.54 47.433C138.642 47.433 139.463 47.114 140.005 46.476C140.546 45.838 140.817 45.0067 140.817 43.982V30.7H145.718V44.33C145.718 45.606 145.505 46.7177 145.08 47.665C144.674 48.6123 144.094 49.3953 143.34 50.014C142.605 50.6133 141.735 51.0677 140.73 51.377C139.744 51.6863 138.68 51.841 137.54 51.841C136.399 51.841 135.336 51.6863 134.35 51.377C133.364 51.0677 132.494 50.6133 131.74 50.014C131.005 49.3953 130.425 48.6123 130 47.665C129.594 46.7177 129.391 45.606 129.391 44.33V30.7ZM161.267 30.7H166.893L159.788 42.735V51H154.8V42.764L147.695 30.7H153.321L157.294 38.327L161.267 30.7Z" fill="black"/>
</svg>
