<svg width="47" height="57" viewBox="0 0 47 57" fill="none" xmlns="http://www.w3.org/2000/svg">
<path d="M10.6104 6.87473C15.4799 2.00522 21.6248 0.787842 24.0885 0.787842V16.8079C22.1713 16.8079 21.2607 17.7219 21.0451 18.1789C12.0017 14.3529 7.42206 7.01965 6.26266 3.83128C7.30612 5.22257 9.59595 6.43995 10.6104 6.87473Z" fill="#B94800"/>
<path d="M37.2458 6.87473C32.3763 2.00522 26.2314 0.787842 23.7677 0.787842V16.8079C25.6849 16.8079 26.5955 17.7219 26.8111 18.1789C35.8545 14.3529 40.4342 7.01965 41.5936 3.83128C40.5501 5.22257 38.2603 6.43995 37.2458 6.87473Z" fill="#B94800"/>
<path d="M13.4369 16.9434C14.8084 17.9774 17.8952 20.1669 19.2707 20.6525C16.6517 21.4729 11.8182 21.8798 13.4369 16.9434Z" fill="#B94800"/>
<path d="M10.9757 14.7854C10.1125 14.1379 8.61541 12.0654 7.97475 11.11C5.4844 13.6003 5.21379 18.5093 5.38978 20.6525C5.38978 36.8311 2.36592 44.3891 0.853996 46.1458L7.2594 41.2518L11.5963 48.4137L16.6402 44.0282L23.9484 56.2122V52.1974L21.5424 44.0282C19.5728 35.3442 13.4972 31.4799 10.7056 30.6333L16.6402 27.2614L16.8425 24.4627C8.83085 24.4627 9.59314 18.0111 10.9757 14.7854Z" fill="#B94800"/>
<path d="M34.4167 16.9434C33.0453 17.9774 29.9585 20.1669 28.5829 20.6525C31.202 21.4729 36.0354 21.8798 34.4167 16.9434Z" fill="#B94800"/>
<path d="M36.8779 14.7854C37.7411 14.1379 39.2382 12.0654 39.8789 11.11C42.3692 13.6003 42.6399 18.5093 42.4639 20.6525C42.4639 36.8311 45.4877 44.3891 46.9997 46.1458L40.5943 41.2518L36.2573 48.4137L31.2135 44.0282L23.9053 56.2122V52.1974L26.3113 44.0282C28.2809 35.3442 34.3564 31.4799 37.148 30.6333L31.2135 27.2614L31.0112 24.4627C39.0228 24.4627 38.2605 18.0111 36.8779 14.7854Z" fill="#B94800"/>
<path d="M20.0243 25.3018C20.0243 22.1036 22.7513 20.5292 24.1148 20.1418V42.4552C24.1148 36.6165 19.3424 32.1817 16.9563 30.6942L20.0243 28.7882V25.3018Z" fill="#B94800"/>
<path d="M28.1975 25.3018C28.1975 22.1036 25.4705 20.5292 24.107 20.1418V42.4552C24.107 36.6165 28.8793 32.1817 31.2655 30.6942L28.1975 28.7882V25.3018Z" fill="#B94800"/>
</svg>
