<svg width="55" height="45" viewBox="0 0 55 45" fill="none" xmlns="http://www.w3.org/2000/svg">
<path fill-rule="evenodd" clip-rule="evenodd" d="M49.2151 0.861642C49.8823 0.595849 50.6127 0.504179 51.3301 0.596172C52.0475 0.688165 52.7257 0.960459 53.2942 1.38471C53.8626 1.80896 54.3006 2.36967 54.5624 3.00846C54.8242 3.64725 54.9003 4.34078 54.7828 5.01686L48.6588 40.1726C48.0648 43.5637 44.1334 45.5085 40.8473 43.8193C38.0986 42.4061 34.016 40.2288 30.3438 37.957C28.5077 36.8198 22.8833 33.1783 23.5745 30.587C24.1686 28.3714 33.6191 20.0456 39.0193 15.0957C41.139 13.151 40.1723 12.0291 37.6693 13.8179C31.4535 18.2594 21.4738 25.0135 18.1742 26.9148C15.2635 28.5912 13.746 28.8774 11.9315 28.5912C8.62112 28.0699 5.55106 27.2623 3.04532 26.2785C-0.340656 24.9496 -0.175948 20.544 3.04262 19.2611L49.2151 0.861642Z" fill="#B94800"/>
</svg>
