<svg width="168" height="76" viewBox="0 0 168 76" fill="none" xmlns="http://www.w3.org/2000/svg">
<rect width="168" height="76" rx="38" fill="url(#paint0_linear_1_233)"/>
<rect x="0.5" y="0.5" width="167" height="75" rx="37.5" stroke="url(#paint1_linear_1_233)" stroke-opacity="0.2"/>
<path d="M54.3473 46.5V29.0455H56.9808V44.233H64.8899V46.5H54.3473ZM73.2038 46.7642C71.9766 46.7642 70.9055 46.483 69.9908 45.9205C69.076 45.358 68.3658 44.571 67.8601 43.5597C67.3544 42.5483 67.1016 41.3665 67.1016 40.0142C67.1016 38.6562 67.3544 37.4687 67.8601 36.4517C68.3658 35.4347 69.076 34.6449 69.9908 34.0824C70.9055 33.5199 71.9766 33.2386 73.2038 33.2386C74.4311 33.2386 75.5021 33.5199 76.4169 34.0824C77.3317 34.6449 78.0419 35.4347 78.5476 36.4517C79.0533 37.4687 79.3061 38.6562 79.3061 40.0142C79.3061 41.3665 79.0533 42.5483 78.5476 43.5597C78.0419 44.571 77.3317 45.358 76.4169 45.9205C75.5021 46.483 74.4311 46.7642 73.2038 46.7642ZM73.2124 44.625C74.0078 44.625 74.6669 44.4148 75.1896 43.9943C75.7124 43.5739 76.0987 43.0142 76.3487 42.3153C76.6044 41.6165 76.7322 40.8466 76.7322 40.0057C76.7322 39.1705 76.6044 38.4034 76.3487 37.7045C76.0987 37 75.7124 36.4347 75.1896 36.0085C74.6669 35.5824 74.0078 35.3693 73.2124 35.3693C72.4112 35.3693 71.7464 35.5824 71.218 36.0085C70.6953 36.4347 70.3061 37 70.0504 37.7045C69.8004 38.4034 69.6754 39.1705 69.6754 40.0057C69.6754 40.8466 69.8004 41.6165 70.0504 42.3153C70.3061 43.0142 70.6953 43.5739 71.218 43.9943C71.7464 44.4148 72.4112 44.625 73.2124 44.625ZM87.6392 51.6818C86.5994 51.6818 85.7045 51.5455 84.9545 51.2727C84.2102 51 83.6023 50.6392 83.1307 50.1903C82.6591 49.7415 82.3068 49.25 82.0739 48.7159L84.2642 47.8125C84.4176 48.0625 84.6222 48.3267 84.8778 48.6051C85.1392 48.8892 85.4915 49.1307 85.9347 49.3295C86.3835 49.5284 86.9602 49.6278 87.6648 49.6278C88.6307 49.6278 89.429 49.392 90.0597 48.9205C90.6903 48.4545 91.0057 47.7102 91.0057 46.6875V44.1136H90.8438C90.6903 44.392 90.4688 44.7017 90.179 45.0426C89.8949 45.3835 89.5028 45.679 89.0028 45.929C88.5028 46.179 87.8523 46.304 87.0511 46.304C86.017 46.304 85.0852 46.0625 84.2557 45.5795C83.4318 45.0909 82.7784 44.3722 82.2955 43.4233C81.8182 42.4687 81.5795 41.2955 81.5795 39.9034C81.5795 38.5114 81.8153 37.3182 82.2869 36.3239C82.7642 35.3295 83.4176 34.5682 84.2472 34.0398C85.0767 33.5057 86.017 33.2386 87.0682 33.2386C87.8807 33.2386 88.5369 33.375 89.0369 33.6477C89.5369 33.9148 89.9261 34.2273 90.2045 34.5852C90.4886 34.9432 90.7074 35.2585 90.8608 35.5312H91.0483V33.4091H93.5455V46.7898C93.5455 47.9148 93.2841 48.8381 92.7614 49.5597C92.2386 50.2813 91.5313 50.8153 90.6392 51.1619C89.7528 51.5085 88.7528 51.6818 87.6392 51.6818ZM87.6136 44.1903C88.3466 44.1903 88.9659 44.0199 89.4716 43.679C89.983 43.3324 90.3693 42.8381 90.6307 42.196C90.8977 41.5483 91.0312 40.7727 91.0312 39.8693C91.0312 38.9886 90.9006 38.2131 90.6392 37.5426C90.3778 36.8722 89.9943 36.3494 89.4886 35.9744C88.983 35.5937 88.358 35.4034 87.6136 35.4034C86.8466 35.4034 86.2074 35.6023 85.696 36C85.1847 36.392 84.7983 36.9261 84.5369 37.6023C84.2813 38.2784 84.1534 39.0341 84.1534 39.8693C84.1534 40.7273 84.2841 41.4801 84.5455 42.1278C84.8068 42.7756 85.1932 43.2812 85.7045 43.6449C86.2216 44.0085 86.858 44.1903 87.6136 44.1903ZM96.9631 46.5V33.4091H99.5114V46.5H96.9631ZM98.25 31.3892C97.8068 31.3892 97.4261 31.2415 97.108 30.946C96.7955 30.6449 96.6392 30.2869 96.6392 29.8722C96.6392 29.4517 96.7955 29.0937 97.108 28.7983C97.4261 28.4972 97.8068 28.3466 98.25 28.3466C98.6932 28.3466 99.071 28.4972 99.3835 28.7983C99.7017 29.0937 99.8608 29.4517 99.8608 29.8722C99.8608 30.2869 99.7017 30.6449 99.3835 30.946C99.071 31.2415 98.6932 31.3892 98.25 31.3892ZM105.488 38.7273V46.5H102.94V33.4091H105.386V35.5398H105.548C105.849 34.8466 106.32 34.2898 106.962 33.8693C107.61 33.4489 108.425 33.2386 109.408 33.2386C110.3 33.2386 111.082 33.4261 111.752 33.8011C112.423 34.1705 112.942 34.7216 113.312 35.4545C113.681 36.1875 113.866 37.0937 113.866 38.1733V46.5H111.317V38.4801C111.317 37.5312 111.07 36.7898 110.576 36.2557C110.082 35.7159 109.403 35.446 108.539 35.446C107.948 35.446 107.423 35.5739 106.962 35.8295C106.508 36.0852 106.147 36.4602 105.88 36.9545C105.619 37.4432 105.488 38.0341 105.488 38.7273Z" fill="#FAFAFA"/>
<defs>
<linearGradient id="paint0_linear_1_233" x1="-37.8462" y1="38.4578" x2="168" y2="38.4578" gradientUnits="userSpaceOnUse">
<stop stop-color="#3D004D"/>
<stop offset="1" stop-color="#140A8A"/>
</linearGradient>
<linearGradient id="paint1_linear_1_233" x1="84" y1="-7.48548e-06" x2="235.5" y2="105.5" gradientUnits="userSpaceOnUse">
<stop stop-color="white"/>
<stop offset="1" stop-color="#999999"/>
</linearGradient>
</defs>
</svg>
