<svg width="38" height="44" viewBox="0 0 38 44" fill="none" xmlns="http://www.w3.org/2000/svg">
<path d="M8.39326 5.35242C12.3328 1.60378 17.0443 0.666626 19.0375 0.666626C21.0308 0.666626 26.0021 1.60378 29.9417 5.35242C30.7624 5.01772 32.6149 4.08056 33.4591 3.00952C32.5211 5.46399 28.8161 11.1093 21.4998 14.0546C21.3253 13.7028 20.5886 12.9992 19.0375 12.9992C17.4864 12.9992 17.0096 13.7028 16.8352 14.0546C9.51885 11.1093 5.81379 5.46399 4.87579 3.00952C5.71999 4.08056 7.57252 5.01772 8.39326 5.35242Z" fill="#FAFAFA"/>
<path d="M10.6799 13.1034C11.7895 13.8995 14.2868 15.585 15.3996 15.9587C13.2807 16.5904 9.37034 16.9036 10.6799 13.1034Z" fill="#FAFAFA"/>
<path d="M6.26087 8.61278C6.77918 9.34824 7.9904 10.9438 8.68875 11.4421C7.57019 13.9254 6.95348 18.8919 13.4351 18.8919L13.2714 21.0464L8.47022 23.6422C10.7287 24.2939 15.644 27.2687 17.2374 33.9538L19.1494 40.2426L21.0959 33.9538C22.6893 27.2687 27.6046 24.2939 29.8631 23.6422L25.0619 21.0464L24.8982 18.8919C31.3799 18.8919 30.7631 13.9254 29.6446 11.4421C30.3429 10.9438 31.5541 9.34824 32.0725 8.61278C34.0872 10.5299 34.3061 14.3089 34.1638 15.9587C34.1638 28.4134 36.6101 34.2317 37.8333 35.584L32.6512 31.8165L29.1425 37.3299L25.0619 33.9538L19.1494 43.3333L13.2714 33.9538L9.19081 37.3299L5.68214 31.8165L0.5 35.584C1.72319 34.2317 4.16957 28.4134 4.16957 15.9587C4.02719 14.3089 4.24612 10.5299 6.26087 8.61278Z" fill="#FAFAFA"/>
<path d="M27.6534 13.1034C26.5439 13.8995 24.0466 15.585 22.9337 15.9587C25.0526 16.5904 28.963 16.9036 27.6534 13.1034Z" fill="#FAFAFA"/>
<path d="M16.0095 19.5379C16.0095 17.0759 18.2091 15.8639 19.3122 15.5657C20.4153 15.8639 22.6215 17.0759 22.6215 19.5379V22.2219L25.1037 23.6891C23.1732 24.8342 19.3188 28.2482 19.3188 32.7429C19.3188 28.2482 15.4579 24.8342 13.5274 23.6891L16.0095 22.2219V19.5379Z" fill="#FAFAFA"/>
</svg>
