<svg width="40" height="36" viewBox="0 0 40 36" fill="none" xmlns="http://www.w3.org/2000/svg">
<path fill-rule="evenodd" clip-rule="evenodd" d="M35.1615 0.903791C35.6369 0.693794 36.1572 0.621367 36.6684 0.694049C37.1795 0.766731 37.6627 0.981864 38.0678 1.31706C38.4728 1.65225 38.7848 2.09525 38.9714 2.59994C39.1579 3.10464 39.2121 3.65258 39.1284 4.18673L34.7651 31.9625C34.3419 34.6418 31.5408 36.1782 29.1995 34.8437C27.241 33.7271 24.3322 32.0069 21.7158 30.212C20.4076 29.3135 16.4003 26.4364 16.8928 24.3891C17.316 22.6386 24.0494 16.0606 27.8971 12.1498C29.4073 10.6133 28.7185 9.72695 26.9352 11.1403C22.5065 14.6493 15.396 19.9856 13.0451 21.4878C10.9712 22.8123 9.89001 23.0384 8.59719 22.8123C6.23857 22.4004 4.05118 21.7624 2.26586 20.9851C-0.146623 19.9352 -0.0292693 16.4544 2.26394 15.4408L35.1615 0.903791Z" fill="#FAFAFA"/>
</svg>
