<svg width="43" height="48" viewBox="0 0 43 48" fill="none" xmlns="http://www.w3.org/2000/svg">
<path fill-rule="evenodd" clip-rule="evenodd" d="M16.2043 2.71418C13.3729 4.20373 11.0565 5.46419 11.057 5.51545C11.0583 5.64777 17.8523 9.12271 18.0934 9.11424C18.2031 9.11053 18.9989 8.74059 19.8617 8.29226L21.4306 7.47725L24.8576 9.25647L27.6636 7.98305C31.8918 6.06421 32.331 5.85394 32.2621 5.7833C32.1708 5.68957 30.6542 4.86676 26.5397 2.67908C24.5512 1.62175 22.6212 0.585071 22.2507 0.375299C21.8802 0.165528 21.5265 -0.0032198 21.4647 4.66334e-05C21.403 0.00331307 19.0357 1.22468 16.2043 2.71418ZM3.78608 9.20863L0.838691 10.7462L0.838691 17.4942C0.838691 21.2056 0.877393 24.2422 0.924867 24.2422C0.972175 24.2422 2.4223 23.6073 4.14728 22.8314L7.28362 21.4206L7.28362 14.3078L8.81625 15.1511C9.99726 15.8003 11.179 16.4482 12.3614 17.0948L14.3739 18.1953L15.2695 17.7863C15.8311 17.5294 16.3916 17.27 16.951 17.0081C17.3832 16.8048 18.4443 16.3222 19.3088 15.9353C20.1734 15.5483 20.9737 15.1592 21.0871 15.0705C21.2379 14.9527 19.3997 13.9268 14.2883 11.2759C10.4353 9.27767 7.15929 7.6491 7.00821 7.65691C6.85713 7.66471 5.40718 8.3629 3.78608 9.20863ZM32.7933 9.64041C30.786 10.5556 29.1422 11.341 29.1403 11.3858C29.1385 11.4305 30.2326 12.0875 31.5717 12.8456C32.9107 13.6038 34.0063 14.2646 34.0063 14.3144C34.0063 14.3641 32.8214 14.9439 31.3734 15.6032C29.9251 16.2623 26.2646 17.9318 23.2387 19.3133L13.0997 23.9418C10.5493 25.1062 8.25035 26.1557 7.991 26.2743C2.78158 28.656 1.34971 29.3169 1.15308 29.4303C0.955346 29.5445 0.910559 30.2081 0.875365 33.5383L0.833374 37.5103L6.10469 40.2228L9.7594 38.5571C11.7696 37.641 13.4141 36.8434 13.4141 36.7847C13.4141 36.7261 13.0427 36.4817 12.5889 36.2413C12.1349 36.0009 11.1977 35.4687 10.506 35.0585C9.81444 34.6482 9.12482 34.2718 8.97341 34.2218C8.82206 34.1721 8.70041 34.085 8.70288 34.0282C8.7054 33.9715 10.3148 33.1995 12.279 32.3124C16.0943 30.5897 19.014 29.2619 25.2822 26.3991C28.0851 25.1193 30.8883 23.8402 33.692 22.5619C36.1559 21.4387 39.0208 20.1268 40.0583 19.6467L41.9446 18.7738L42.0287 10.7395L39.3554 9.35379C37.8851 8.59172 36.6283 7.97004 36.5624 7.97231C36.4966 7.97442 34.8005 8.72498 32.7933 9.64041ZM41.2284 24.133C40.8345 24.3273 40.0564 24.6912 39.4993 24.9415C38.9422 25.1917 37.8851 25.6735 37.1502 26.0121L35.814 26.6276L35.7836 30.1544C35.7667 32.094 35.696 33.6724 35.6264 33.6622C35.4682 33.6384 32.964 32.3414 30.4467 30.9791C28.6299 29.996 28.5157 29.9569 28.0888 30.1705C27.842 30.294 26.3668 30.9622 24.8106 31.6556C23.2544 32.3489 21.9304 32.9614 21.8681 33.0169C21.806 33.0723 24.9381 34.7867 28.8284 36.827L35.9016 40.5365L38.9232 38.9579C40.5849 38.0898 41.9979 37.2979 42.0629 37.1983C42.2094 36.9744 42.1969 23.7489 42.0502 23.7668C41.9922 23.7738 41.6223 23.9387 41.2284 24.133ZM24.4962 39.6564C23.9721 39.8839 23.4481 40.1118 22.9243 40.34C21.3424 41.0312 21.6524 41.0541 19.7705 40.108C18.5171 39.4778 17.9768 39.2834 17.7423 39.3778C17.5664 39.4485 16.0524 40.1364 14.3777 40.9064C12.7031 41.6763 11.2749 42.3062 11.2038 42.3062C10.5012 42.3062 11.6693 43.011 16.1766 45.3073L21.4627 48L23.6868 46.8911C24.9101 46.2811 27.3774 45.0598 29.1698 44.1769C30.9621 43.2939 32.4065 42.5485 32.3794 42.5204C32.3522 42.4924 30.8504 41.7136 29.0419 40.7896L25.7538 39.11L24.4962 39.6564Z" fill="#FAFAFA"/>
</svg>
