<svg width="91" height="41" viewBox="0 0 91 41" fill="none" xmlns="http://www.w3.org/2000/svg">
<path d="M90.08 29.3919H86.152V11.9529H90.08V29.3919Z" fill="white"/>
<path d="M90.08 29.3919H86.152V11.9529H90.08V29.3919Z" fill="#4C4D4D"/>
<path d="M84.4734 29.3919H80.1927L78.9522 25.5125H72.7501L71.5218 29.3919H67.2654L73.6135 11.9529H78.2712L84.4734 29.3919ZM78.0523 22.4966L76.1795 16.635C76.0417 16.1972 75.9444 15.6742 75.8876 15.0662H75.7904C75.7498 15.5769 75.6485 16.0837 75.4863 16.5863L73.5892 22.4966H78.0523Z" fill="white"/>
<path d="M84.4734 29.3919H80.1927L78.9522 25.5125H72.7501L71.5218 29.3919H67.2654L73.6135 11.9529H78.2712L84.4734 29.3919ZM78.0523 22.4966L76.1795 16.635C76.0417 16.1972 75.9444 15.6742 75.8876 15.0662H75.7904C75.7498 15.5769 75.6485 16.0837 75.4863 16.5863L73.5892 22.4966H78.0523Z" fill="#4C4D4D"/>
<path d="M60.4542 29.3919H49.9957V11.9529H60.0529V15.1513H53.9237V19.0307H59.6273V22.2169H53.9237V26.2057H60.4542V29.3919Z" fill="white"/>
<path d="M60.4542 29.3919H49.9957V11.9529H60.0529V15.1513H53.9237V19.0307H59.6273V22.2169H53.9237V26.2057H60.4542V29.3919Z" fill="#4C4D4D"/>
<path d="M48.8521 29.3919H44.3403L41.6284 24.9045C41.4257 24.564 41.2311 24.26 41.0447 23.9924C40.8582 23.7249 40.6677 23.4979 40.4731 23.3114C40.2866 23.1168 40.088 22.9709 39.8772 22.8736C39.6745 22.7682 39.4516 22.7155 39.2083 22.7155H38.1503V29.3919H34.2223V11.9529H40.4488C44.6808 11.9529 46.7969 13.5339 46.7969 16.6958C46.7969 17.3038 46.7036 17.8673 46.5171 18.3862C46.3307 18.8969 46.0672 19.359 45.7267 19.7725C45.3862 20.186 44.9727 20.5427 44.4862 20.8427C44.0079 21.1427 43.4728 21.3778 42.881 21.548V21.5967C43.1404 21.6778 43.3917 21.8115 43.635 21.998C43.8782 22.1764 44.1133 22.3872 44.3403 22.6304C44.5673 22.8736 44.7822 23.1371 44.9848 23.4208C45.1956 23.6965 45.3862 23.9681 45.5564 24.2356L48.8521 29.3919ZM38.1503 14.8959V19.7482H39.8529C40.696 19.7482 41.373 19.505 41.8838 19.0185C42.4026 18.524 42.6621 17.9119 42.6621 17.1822C42.6621 15.658 41.75 14.8959 39.9258 14.8959H38.1503Z" fill="white"/>
<path d="M48.8521 29.3919H44.3403L41.6284 24.9045C41.4257 24.564 41.2311 24.26 41.0447 23.9924C40.8582 23.7249 40.6677 23.4979 40.4731 23.3114C40.2866 23.1168 40.088 22.9709 39.8772 22.8736C39.6745 22.7682 39.4516 22.7155 39.2083 22.7155H38.1503V29.3919H34.2223V11.9529H40.4488C44.6808 11.9529 46.7969 13.5339 46.7969 16.6958C46.7969 17.3038 46.7036 17.8673 46.5171 18.3862C46.3307 18.8969 46.0672 19.359 45.7267 19.7725C45.3862 20.186 44.9727 20.5427 44.4862 20.8427C44.0079 21.1427 43.4728 21.3778 42.881 21.548V21.5967C43.1404 21.6778 43.3917 21.8115 43.635 21.998C43.8782 22.1764 44.1133 22.3872 44.3403 22.6304C44.5673 22.8736 44.7822 23.1371 44.9848 23.4208C45.1956 23.6965 45.3862 23.9681 45.5564 24.2356L48.8521 29.3919ZM38.1503 14.8959V19.7482H39.8529C40.696 19.7482 41.373 19.505 41.8838 19.0185C42.4026 18.524 42.6621 17.9119 42.6621 17.1822C42.6621 15.658 41.75 14.8959 39.9258 14.8959H38.1503Z" fill="#4C4D4D"/>
<path d="M23.1917 29.6961C20.6946 29.6961 18.6596 28.8853 17.0868 27.2639C15.514 25.6343 14.7276 23.5142 14.7276 20.9036C14.7276 18.1471 15.5261 15.9176 17.1233 14.215C18.7204 12.5125 20.8365 11.6612 23.4714 11.6612C25.9603 11.6612 27.971 12.476 29.5033 14.1056C31.0437 15.7352 31.8139 17.8836 31.8139 20.5509C31.8139 23.2912 31.0153 25.5005 29.4181 27.1787C27.8291 28.857 25.7536 29.6961 23.1917 29.6961ZM23.3619 15.042C21.9837 15.042 20.8892 15.5608 20.0784 16.5986C19.2677 17.6282 18.8623 18.9943 18.8623 20.6969C18.8623 22.4238 19.2677 23.7898 20.0784 24.7952C20.8892 25.8005 21.9512 26.3031 23.2646 26.3031C24.6186 26.3031 25.6928 25.8167 26.4873 24.8438C27.2818 23.8628 27.6791 22.5048 27.6791 20.7698C27.6791 18.9619 27.294 17.5553 26.5238 16.5499C25.7536 15.5446 24.6996 15.042 23.3619 15.042Z" fill="white"/>
<path d="M23.1917 29.6961C20.6946 29.6961 18.6596 28.8853 17.0868 27.2639C15.514 25.6343 14.7276 23.5142 14.7276 20.9036C14.7276 18.1471 15.5261 15.9176 17.1233 14.215C18.7204 12.5125 20.8365 11.6612 23.4714 11.6612C25.9603 11.6612 27.971 12.476 29.5033 14.1056C31.0437 15.7352 31.8139 17.8836 31.8139 20.5509C31.8139 23.2912 31.0153 25.5005 29.4181 27.1787C27.8291 28.857 25.7536 29.6961 23.1917 29.6961ZM23.3619 15.042C21.9837 15.042 20.8892 15.5608 20.0784 16.5986C19.2677 17.6282 18.8623 18.9943 18.8623 20.6969C18.8623 22.4238 19.2677 23.7898 20.0784 24.7952C20.8892 25.8005 21.9512 26.3031 23.2646 26.3031C24.6186 26.3031 25.6928 25.8167 26.4873 24.8438C27.2818 23.8628 27.6791 22.5048 27.6791 20.7698C27.6791 18.9619 27.294 17.5553 26.5238 16.5499C25.7536 15.5446 24.6996 15.042 23.3619 15.042Z" fill="#4C4D4D"/>
<path d="M13.5961 28.7719C12.3232 29.3881 10.6612 29.6961 8.61005 29.6961C5.93461 29.6961 3.83074 28.9097 2.29844 27.3369C0.766148 25.7641 0 23.6683 0 21.0496C0 18.2607 0.859383 15.9987 2.57815 14.2637C4.30502 12.5287 6.54266 11.6613 9.29107 11.6613C10.9936 11.6613 12.4286 11.8761 13.5961 12.3058V16.0879C12.4286 15.3907 11.099 15.042 9.60725 15.042C7.96956 15.042 6.64806 15.5569 5.64274 16.5865C4.63743 17.6161 4.13477 19.0106 4.13477 20.7699C4.13477 22.4562 4.60905 23.8021 5.55761 24.8074C6.50618 25.8046 7.78309 26.3032 9.38835 26.3032C10.9207 26.3032 12.3232 25.9303 13.5961 25.1844V28.7719Z" fill="white"/>
<path d="M13.5961 28.7719C12.3232 29.3881 10.6612 29.6961 8.61005 29.6961C5.93461 29.6961 3.83074 28.9097 2.29844 27.3369C0.766148 25.7641 0 23.6683 0 21.0496C0 18.2607 0.859383 15.9987 2.57815 14.2637C4.30502 12.5287 6.54266 11.6613 9.29107 11.6613C10.9936 11.6613 12.4286 11.8761 13.5961 12.3058V16.0879C12.4286 15.3907 11.099 15.042 9.60725 15.042C7.96956 15.042 6.64806 15.5569 5.64274 16.5865C4.63743 17.6161 4.13477 19.0106 4.13477 20.7699C4.13477 22.4562 4.60905 23.8021 5.55761 24.8074C6.50618 25.8046 7.78309 26.3032 9.38835 26.3032C10.9207 26.3032 12.3232 25.9303 13.5961 25.1844V28.7719Z" fill="#4C4D4D"/>
<path fill-rule="evenodd" clip-rule="evenodd" d="M0.0833893 33.1654C0.31973 35.1238 1.05806 36.7396 2.29838 38.0127C3.83068 39.5855 5.93454 40.3719 8.60998 40.3719C10.6612 40.3719 12.3232 40.0639 13.596 39.4477V35.8602C12.3232 36.6061 10.9206 36.979 9.38829 36.979C7.78303 36.979 6.50611 36.4804 5.55755 35.4832C4.95725 34.847 4.5469 34.0744 4.3265 33.1654H0.0833893ZM14.8324 33.1654C15.0941 35.0623 15.8455 36.6537 17.0867 37.9397C18.6596 39.5612 20.6945 40.3719 23.1916 40.3719C25.7535 40.3719 27.829 39.5328 29.4181 37.8546C30.6196 36.5921 31.3692 35.029 31.6668 33.1654H27.5261C27.3434 34.1054 26.9971 34.8902 26.4873 35.5197C25.6927 36.4926 24.6185 36.979 23.2646 36.979C21.9512 36.979 20.8891 36.4763 20.0784 35.471C19.5721 34.8432 19.2238 34.0747 19.0337 33.1654H14.8324ZM34.2222 33.1654V40.0679H38.1502V33.3915H39.2082C39.4515 33.3915 39.6744 33.4442 39.8771 33.5496C40.0879 33.6469 40.2865 33.7928 40.473 33.9874C40.6676 34.1738 40.8581 34.4008 41.0446 34.6684C41.231 34.9359 41.4256 35.24 41.6283 35.5805L44.3402 40.0679H48.852L45.5563 34.9116C45.3861 34.6441 45.1955 34.3725 44.9848 34.0968C44.7821 33.8131 44.5672 33.5496 44.3402 33.3064C44.2952 33.2581 44.2498 33.2111 44.2041 33.1654H34.2222ZM49.9956 33.1654V40.0679H60.4541V36.8817H53.9236V33.1654H49.9956ZM69.7779 33.1654L67.2653 40.0679H71.5217L72.75 36.1885H78.9521L80.1925 40.0679H84.4732L82.0184 33.1654H78.0499L78.0522 33.1726H73.5891L73.5914 33.1654H69.7779ZM86.152 33.1654V40.0679H90.08V33.1654H86.152Z" fill="white"/>
<path fill-rule="evenodd" clip-rule="evenodd" d="M0.0833893 33.1654C0.31973 35.1238 1.05806 36.7396 2.29838 38.0127C3.83068 39.5855 5.93454 40.3719 8.60998 40.3719C10.6612 40.3719 12.3232 40.0639 13.596 39.4477V35.8602C12.3232 36.6061 10.9206 36.979 9.38829 36.979C7.78303 36.979 6.50611 36.4804 5.55755 35.4832C4.95725 34.847 4.5469 34.0744 4.3265 33.1654H0.0833893ZM14.8324 33.1654C15.0941 35.0623 15.8455 36.6537 17.0867 37.9397C18.6596 39.5612 20.6945 40.3719 23.1916 40.3719C25.7535 40.3719 27.829 39.5328 29.4181 37.8546C30.6196 36.5921 31.3692 35.029 31.6668 33.1654H27.5261C27.3434 34.1054 26.9971 34.8902 26.4873 35.5197C25.6927 36.4926 24.6185 36.979 23.2646 36.979C21.9512 36.979 20.8891 36.4763 20.0784 35.471C19.5721 34.8432 19.2238 34.0747 19.0337 33.1654H14.8324ZM34.2222 33.1654V40.0679H38.1502V33.3915H39.2082C39.4515 33.3915 39.6744 33.4442 39.8771 33.5496C40.0879 33.6469 40.2865 33.7928 40.473 33.9874C40.6676 34.1738 40.8581 34.4008 41.0446 34.6684C41.231 34.9359 41.4256 35.24 41.6283 35.5805L44.3402 40.0679H48.852L45.5563 34.9116C45.3861 34.6441 45.1955 34.3725 44.9848 34.0968C44.7821 33.8131 44.5672 33.5496 44.3402 33.3064C44.2952 33.2581 44.2498 33.2111 44.2041 33.1654H34.2222ZM49.9956 33.1654V40.0679H60.4541V36.8817H53.9236V33.1654H49.9956ZM69.7779 33.1654L67.2653 40.0679H71.5217L72.75 36.1885H78.9521L80.1925 40.0679H84.4732L82.0184 33.1654H78.0499L78.0522 33.1726H73.5891L73.5914 33.1654H69.7779ZM86.152 33.1654V40.0679H90.08V33.1654H86.152Z" fill="#4C4D4D"/>
<path fill-rule="evenodd" clip-rule="evenodd" d="M31.7153 7.30219C31.4627 5.35639 30.7254 3.73712 29.5034 2.44438C27.9711 0.814792 25.9604 0 23.4715 0C20.8366 0 18.7205 0.851276 17.1234 2.55383C15.9195 3.83719 15.1693 5.41998 14.8729 7.30219H19.0252C19.2133 6.37862 19.5644 5.59035 20.0785 4.9374C20.8893 3.89965 21.9838 3.38078 23.362 3.38078C24.6997 3.38078 25.7537 3.88344 26.5239 4.88875C27.0152 5.52997 27.3497 6.33445 27.5277 7.30219H31.7153ZM46.263 7.30219C46.3595 7.11727 46.4443 6.92489 46.5172 6.72508C46.7037 6.20621 46.7969 5.64274 46.7969 5.03469C46.7969 1.87281 44.6809 0.291866 40.4488 0.291866H34.2224V7.30219H38.1504V3.23485H39.9259C41.7501 3.23485 42.6622 3.99694 42.6622 5.52113C42.6622 6.22386 42.4215 6.81754 41.9403 7.30219H46.263ZM53.9238 7.30219H49.9958V0.291866H60.053V3.49023H53.9238V7.30219ZM80.7645 7.30219L78.2713 0.291866H73.6136L71.0617 7.30219H74.7234L75.4864 4.92524C75.6485 4.42258 75.7499 3.91587 75.7904 3.4051H75.8877C75.9444 4.01316 76.0417 4.53608 76.1796 4.97388L76.9234 7.30219H80.7645ZM90.0802 7.30219H86.1521V0.291866H90.0802V7.30219ZM0.177536 7.30219C0.510149 5.44887 1.31039 3.88229 2.57825 2.60247C4.30512 0.86749 6.54276 0 9.29117 0C10.9937 0 12.4287 0.214846 13.5962 0.644537V4.42663C12.4287 3.7294 11.0991 3.38078 9.60735 3.38078C7.96966 3.38078 6.64816 3.8956 5.64284 4.92524C5.01027 5.57311 4.57672 6.36543 4.34218 7.30219H0.177536Z" fill="white"/>
<path fill-rule="evenodd" clip-rule="evenodd" d="M31.7153 7.30219C31.4627 5.35639 30.7254 3.73712 29.5034 2.44438C27.9711 0.814792 25.9604 0 23.4715 0C20.8366 0 18.7205 0.851276 17.1234 2.55383C15.9195 3.83719 15.1693 5.41998 14.8729 7.30219H19.0252C19.2133 6.37862 19.5644 5.59035 20.0785 4.9374C20.8893 3.89965 21.9838 3.38078 23.362 3.38078C24.6997 3.38078 25.7537 3.88344 26.5239 4.88875C27.0152 5.52997 27.3497 6.33445 27.5277 7.30219H31.7153ZM46.263 7.30219C46.3595 7.11727 46.4443 6.92489 46.5172 6.72508C46.7037 6.20621 46.7969 5.64274 46.7969 5.03469C46.7969 1.87281 44.6809 0.291866 40.4488 0.291866H34.2224V7.30219H38.1504V3.23485H39.9259C41.7501 3.23485 42.6622 3.99694 42.6622 5.52113C42.6622 6.22386 42.4215 6.81754 41.9403 7.30219H46.263ZM53.9238 7.30219H49.9958V0.291866H60.053V3.49023H53.9238V7.30219ZM80.7645 7.30219L78.2713 0.291866H73.6136L71.0617 7.30219H74.7234L75.4864 4.92524C75.6485 4.42258 75.7499 3.91587 75.7904 3.4051H75.8877C75.9444 4.01316 76.0417 4.53608 76.1796 4.97388L76.9234 7.30219H80.7645ZM90.0802 7.30219H86.1521V0.291866H90.0802V7.30219ZM0.177536 7.30219C0.510149 5.44887 1.31039 3.88229 2.57825 2.60247C4.30512 0.86749 6.54276 0 9.29117 0C10.9937 0 12.4287 0.214846 13.5962 0.644537V4.42663C12.4287 3.7294 11.0991 3.38078 9.60735 3.38078C7.96966 3.38078 6.64816 3.8956 5.64284 4.92524C5.01027 5.57311 4.57672 6.36543 4.34218 7.30219H0.177536Z" fill="#4C4D4D"/>
</svg>
