<svg width="402" height="111" viewBox="0 0 402 111" fill="none" xmlns="http://www.w3.org/2000/svg">
<rect width="402" height="110.731" rx="55.3653" fill="#AAE940"/>
<path d="M133.397 77.2575V35.6613H164.825C166.365 35.6613 167.771 36.0465 169.042 36.8168C170.352 37.5871 171.392 38.627 172.162 39.9365C172.971 41.2075 173.375 42.6325 173.375 44.2117V52.0109C173.375 52.5116 173.337 52.9931 173.26 53.4553C173.221 53.8789 173.125 54.2833 172.971 54.6685C173.548 55.4003 174.03 56.2476 174.415 57.2105C174.8 58.1733 174.993 59.1362 174.993 60.0991V68.7072C174.993 70.2478 174.588 71.6728 173.78 72.9823C173.009 74.2919 171.969 75.3318 170.66 76.1021C169.389 76.8724 167.964 77.2575 166.385 77.2575H133.397ZM142.351 68.245H165.923V60.619H142.351V68.245ZM142.351 51.6065H164.305V44.6738H142.351V51.6065ZM189.727 77.2575C188.186 77.2575 186.761 76.8724 185.451 76.1021C184.142 75.3318 183.102 74.2919 182.332 72.9823C181.561 71.6728 181.176 70.2478 181.176 68.7072V35.6613H190.131V68.245H213.702V35.6613H222.772V68.7072C222.772 70.2478 222.368 71.6728 221.559 72.9823C220.789 74.2919 219.749 75.3318 218.439 76.1021C217.168 76.8724 215.763 77.2575 214.222 77.2575H189.727ZM244.618 77.2575V61.7167L225.379 35.6613H236.067L249.124 52.0687L262.123 35.6613H272.926L253.63 61.7745V77.2575H244.618Z" fill="#E27EB6"/>
</svg>
