<svg width="172" height="172" viewBox="0 0 172 172" fill="none" xmlns="http://www.w3.org/2000/svg">
<g filter="url(#filter0_b_1_141)">
<rect x="1" y="1" width="170" height="170" rx="29.3958" fill="black" fill-opacity="0.1"/>
<rect x="0.5" y="0.5" width="171" height="171" rx="29.8958" stroke="url(#paint0_linear_1_141)" stroke-opacity="0.5"/>
<path fill-rule="evenodd" clip-rule="evenodd" d="M86.0404 37.9998C59.0254 37.9998 37.1864 59.9998 37.1864 87.2168C37.1864 108.973 51.1794 127.389 70.5914 133.907C73.0184 134.397 73.9074 132.848 73.9074 131.545C73.9074 130.404 73.8274 126.493 73.8274 122.418C60.2374 125.352 57.4074 116.551 57.4074 116.551C55.2234 110.847 51.9874 109.381 51.9874 109.381C47.5394 106.366 52.3114 106.366 52.3114 106.366C57.2454 106.692 59.8344 111.418 59.8344 111.418C64.2014 118.914 71.2384 116.796 74.0694 115.492C74.4734 112.314 75.7684 110.114 77.1434 108.892C66.3044 107.751 54.9004 103.514 54.9004 84.6088C54.9004 79.2308 56.8404 74.8308 59.9144 71.4088C59.4294 70.1868 57.7304 65.1338 60.4004 58.3708C60.4004 58.3708 64.5254 57.0668 73.8264 63.4228C77.8085 62.3454 81.9152 61.7974 86.0404 61.7928C90.1654 61.7928 94.3704 62.3638 98.2534 63.4228C107.555 57.0668 111.68 58.3708 111.68 58.3708C114.35 65.1338 112.65 70.1868 112.165 71.4088C115.32 74.8308 117.18 79.2308 117.18 84.6088C117.18 103.514 105.776 107.669 94.8564 108.892C96.6364 110.44 98.1724 113.373 98.1724 118.018C98.1724 124.618 98.0924 129.915 98.0924 131.544C98.0924 132.848 98.9824 134.397 101.408 133.908C120.82 127.388 134.813 108.973 134.813 87.2168C134.893 59.9998 112.974 37.9998 86.0404 37.9998Z" fill="white"/>
</g>
<defs>
<filter id="filter0_b_1_141" x="-24.7" y="-24.7" width="221.4" height="221.4" filterUnits="userSpaceOnUse" color-interpolation-filters="sRGB">
<feFlood flood-opacity="0" result="BackgroundImageFix"/>
<feGaussianBlur in="BackgroundImageFix" stdDeviation="12.35"/>
<feComposite in2="SourceAlpha" operator="in" result="effect1_backgroundBlur_1_141"/>
<feBlend mode="normal" in="SourceGraphic" in2="effect1_backgroundBlur_1_141" result="shape"/>
</filter>
<linearGradient id="paint0_linear_1_141" x1="161.685" y1="-40.2121" x2="-36.2041" y2="-29.9415" gradientUnits="userSpaceOnUse">
<stop stop-color="#00FF00"/>
<stop offset="1" stop-color="#FEFF00"/>
</linearGradient>
</defs>
</svg>
