<svg width="74" height="73" viewBox="0 0 74 73" fill="none" xmlns="http://www.w3.org/2000/svg">
<rect x="2.77725" y="2.2883" width="68.4456" height="68.4456" rx="34.2228" fill="#AAE940"/>
<rect x="2.77725" y="2.2883" width="68.4456" height="68.4456" rx="34.2228" stroke="#AAE940" stroke-width="3.80097"/>
<path d="M30.0519 25.2278C32.5926 22.6871 35.6312 22.0519 36.9167 22.0519C38.2022 22.0519 41.4084 22.6871 43.9491 25.2278C44.4784 25.001 45.6732 24.3658 46.2176 23.6399C45.6127 25.3034 43.2232 29.1297 38.5047 31.126C38.3922 30.8875 37.9171 30.4106 36.9167 30.4106C35.9163 30.4106 35.6088 30.8875 35.4963 31.126C30.7778 29.1297 28.3883 25.3034 27.7834 23.6399C28.3278 24.3658 29.5226 25.001 30.0519 25.2278Z" fill="#F286AC"/>
<path d="M31.5266 30.4813C32.2422 31.0208 33.8528 32.1632 34.5705 32.4165C33.204 32.8446 30.6821 33.0569 31.5266 30.4813Z" fill="#F286AC"/>
<path d="M28.6767 27.4376C29.0109 27.9361 29.7921 29.0175 30.2425 29.3553C29.5211 31.0384 29.1233 34.4046 33.3035 34.4046L33.198 35.8648L30.1015 37.6242C31.5581 38.0659 34.7281 40.0822 35.7558 44.6132L36.9888 48.8756L38.2442 44.6132C39.2719 40.0822 42.4419 38.0659 43.8984 37.6242L40.802 35.8648L40.6964 34.4046C44.8766 34.4046 44.4789 31.0384 43.7575 29.3553C44.2079 29.0175 44.989 27.9361 45.3233 27.4376C46.6227 28.737 46.7639 31.2983 46.6721 32.4165C46.6721 40.858 48.2498 44.8015 49.0387 45.7181L45.6966 43.1646L43.4337 46.9014L40.802 44.6132L36.9888 50.9704L33.198 44.6132L30.5663 46.9014L28.3034 43.1646L24.9613 45.7181C25.7502 44.8015 27.3279 40.858 27.3279 32.4165C27.2361 31.2983 27.3773 28.737 28.6767 27.4376Z" fill="#F286AC"/>
<path d="M42.4734 30.4813C41.7578 31.0208 40.1472 32.1632 39.4295 32.4165C40.796 32.8446 43.3179 33.0569 42.4734 30.4813Z" fill="#F286AC"/>
<path d="M34.9639 34.8424C34.9639 33.1737 36.3825 32.3523 37.0939 32.1501C37.8053 32.3523 39.2281 33.1737 39.2281 34.8424V36.6615L40.829 37.656C39.5839 38.4321 37.0981 40.746 37.0981 43.7924C37.0981 40.746 34.6081 38.4321 33.363 37.656L34.9639 36.6615V34.8424Z" fill="#F286AC"/>
</svg>
