<svg width="125" height="125" viewBox="0 0 125 125" fill="none" xmlns="http://www.w3.org/2000/svg">
<g filter="url(#filter0_b_1_137)">
<rect x="1" y="1" width="123" height="123" rx="21.3946" fill="black" fill-opacity="0.1"/>
<rect x="0.5" y="0.5" width="124" height="124" rx="21.8946" stroke="url(#paint0_linear_1_137)" stroke-opacity="0.5"/>
<path d="M44.2669 33.0537C50.9343 26.423 58.9081 24.7654 62.2815 24.7654C65.6548 24.7654 74.0684 26.423 80.7358 33.0537C82.1248 32.4616 85.2601 30.804 86.6888 28.9095C85.1013 33.251 78.8308 43.2364 66.4486 48.4462C66.1533 47.8239 64.9066 46.5793 62.2815 46.5793C59.6563 46.5793 58.8494 47.8239 58.5542 48.4462C46.1719 43.2364 39.9014 33.251 38.3139 28.9095C39.7427 30.804 42.8779 32.4616 44.2669 33.0537Z" fill="white"/>
<path d="M48.1369 46.7637C50.0147 48.1717 54.2412 51.1531 56.1246 51.8142C52.5386 52.9315 45.9206 53.4855 48.1369 46.7637Z" fill="white"/>
<path d="M40.6581 38.8206C41.5353 40.1215 43.5851 42.9437 44.767 43.8252C42.874 48.2176 41.8302 57.0025 52.7998 57.0025L52.5228 60.8133L44.3972 65.4047C48.2195 66.5576 56.5382 71.8195 59.2349 83.6441L62.4708 94.7678L65.7651 83.6441C68.4618 71.8195 76.7806 66.5576 80.6028 65.4047L72.4772 60.8133L72.2002 57.0025C83.1698 57.0025 82.1261 48.2176 80.233 43.8252C81.4149 42.9437 83.4648 40.1215 84.342 38.8206C87.7518 42.2116 88.1223 48.8959 87.8813 51.8142C87.8813 73.8441 92.0216 84.1355 94.0918 86.5275L85.3214 79.8636L79.3833 89.6157L72.4772 83.6441L62.4708 100.235L52.5228 83.6441L45.6167 89.6157L39.6786 79.8636L30.9083 86.5275C32.9784 84.1355 37.1187 73.8441 37.1187 51.8142C36.8777 48.8959 37.2483 42.2116 40.6581 38.8206Z" fill="white"/>
<path d="M76.8631 46.7637C74.9853 48.1717 70.7588 51.1531 68.8754 51.8142C72.4615 52.9315 79.0795 53.4855 76.8631 46.7637Z" fill="white"/>
<path d="M57.1568 58.1451C57.1568 53.7902 60.8795 51.6465 62.7464 51.119C64.6133 51.6465 68.3471 53.7902 68.3471 58.1451V62.8925L72.5479 65.4877C69.2808 67.5132 62.7575 73.5519 62.7575 81.5022C62.7575 73.5519 56.2232 67.5132 52.956 65.4877L57.1568 62.8925V58.1451Z" fill="white"/>
</g>
<defs>
<filter id="filter0_b_1_137" x="-24.7" y="-24.7" width="174.4" height="174.4" filterUnits="userSpaceOnUse" color-interpolation-filters="sRGB">
<feFlood flood-opacity="0" result="BackgroundImageFix"/>
<feGaussianBlur in="BackgroundImageFix" stdDeviation="12.35"/>
<feComposite in2="SourceAlpha" operator="in" result="effect1_backgroundBlur_1_137"/>
<feBlend mode="normal" in="SourceGraphic" in2="effect1_backgroundBlur_1_137" result="shape"/>
</filter>
<linearGradient id="paint0_linear_1_137" x1="117.26" y1="-28.8182" x2="-25.9182" y2="-21.3871" gradientUnits="userSpaceOnUse">
<stop stop-color="#00FF00"/>
<stop offset="1" stop-color="#FEFF00"/>
</linearGradient>
</defs>
</svg>
