<svg width="73" height="73" viewBox="0 0 73 73" fill="none" xmlns="http://www.w3.org/2000/svg">
<rect x="2.09952" y="2.2883" width="68.4456" height="68.4456" rx="34.2228" fill="#AAE940"/>
<rect x="2.09952" y="2.2883" width="68.4456" height="68.4456" rx="34.2228" stroke="#AAE940" stroke-width="3.80097"/>
<path fill-rule="evenodd" clip-rule="evenodd" d="M47.5461 25.2801C47.8942 25.1422 48.2752 25.0946 48.6495 25.1423C49.0238 25.1901 49.3776 25.3314 49.6742 25.5516C49.9708 25.7718 50.1993 26.0628 50.3358 26.3944C50.4724 26.7259 50.5121 27.0859 50.4508 27.4368L47.2559 45.6835C46.946 47.4436 44.8949 48.453 43.1806 47.5762C41.7465 46.8428 39.6166 45.7127 37.7007 44.5336C36.7428 43.9433 33.8085 42.0533 34.1691 40.7084C34.479 39.5584 39.4095 35.2371 42.2269 32.668C43.3327 31.6586 42.8284 31.0763 41.5225 32.0048C38.2797 34.31 33.0732 37.8156 31.3517 38.8024C29.8332 39.6725 29.0415 39.821 28.0948 39.6725C26.3678 39.4019 24.7661 38.9828 23.4588 38.4721C21.6923 37.7824 21.7782 35.4958 23.4574 34.8299L47.5461 25.2801Z" fill="#F286AC"/>
</svg>
