<svg width="172" height="172" viewBox="0 0 172 172" fill="none" xmlns="http://www.w3.org/2000/svg">
<g filter="url(#filter0_b_1_139)">
<rect x="1" y="1" width="170" height="170" rx="29.6988" fill="black" fill-opacity="0.1"/>
<rect x="0.5" y="0.5" width="171" height="171" rx="30.1988" stroke="url(#paint0_linear_1_139)" stroke-opacity="0.5"/>
<path fill-rule="evenodd" clip-rule="evenodd" d="M123.001 47.4841C124.149 47.011 125.405 46.8479 126.639 47.0116C127.873 47.1754 129.039 47.66 130.017 48.4152C130.995 49.1703 131.748 50.1684 132.198 51.3054C132.648 52.4424 132.779 53.6769 132.577 54.8802L122.045 117.456C121.023 123.492 114.261 126.954 108.609 123.947C103.882 121.432 96.86 117.556 90.5441 113.512C87.3862 111.488 77.7127 105.006 78.9016 100.394C79.9233 96.4504 96.1773 81.6309 105.465 72.8201C109.111 69.3586 107.448 67.3617 103.143 70.5458C92.4528 78.4514 75.2885 90.4735 69.6135 93.8576C64.6072 96.8416 61.9973 97.351 58.8765 96.8416C53.1829 95.9136 47.9027 94.4763 43.593 92.725C37.7694 90.3597 38.0527 82.5179 43.5884 80.2344L123.001 47.4841Z" fill="white"/>
</g>
<defs>
<filter id="filter0_b_1_139" x="-24.7" y="-24.7" width="221.4" height="221.4" filterUnits="userSpaceOnUse" color-interpolation-filters="sRGB">
<feFlood flood-opacity="0" result="BackgroundImageFix"/>
<feGaussianBlur in="BackgroundImageFix" stdDeviation="12.35"/>
<feComposite in2="SourceAlpha" operator="in" result="effect1_backgroundBlur_1_139"/>
<feBlend mode="normal" in="SourceGraphic" in2="effect1_backgroundBlur_1_139" result="shape"/>
</filter>
<linearGradient id="paint0_linear_1_139" x1="161.685" y1="-40.2121" x2="-36.2041" y2="-29.9415" gradientUnits="userSpaceOnUse">
<stop stop-color="#00FF00"/>
<stop offset="1" stop-color="#FEFF00"/>
</linearGradient>
</defs>
</svg>
