<svg width="654" height="323" viewBox="0 0 654 323" fill="none" xmlns="http://www.w3.org/2000/svg">
<path d="M54.0816 145.031H219.595L213.355 211.593L153.627 258.84H128.369L126.289 280.235H84.391L86.4711 258.84H2.37721L6.24018 217.239H142.038L173.239 192.278L173.834 186.929H8.32024L15.4519 109.967L58.2417 70.743H103.706L105.786 48.1595H147.684L145.604 70.743H208.006L204.143 112.641H71.6135L55.5673 127.202L54.0816 145.031ZM389.15 281.423L347.252 295.687L338.337 260.623H230.471L249.786 50.8338H438.18L418.865 260.623H384.098L389.15 281.423ZM276.827 218.13H327.045L321.399 196.141L364.189 181.58L373.401 218.13H380.235L391.824 93.3265H310.702L269.992 74.9031L286.633 113.236L276.827 218.13ZM601.857 281.423L559.959 295.687L551.044 260.623H443.178L462.493 50.8338H650.887L631.572 260.623H596.805L601.857 281.423ZM489.534 218.13H539.752L534.107 196.141L576.896 181.58L586.108 218.13H592.943L604.531 93.3265H523.409L482.699 74.9031L499.34 113.236L489.534 218.13Z" fill="#AAE940"/>
<path d="M11 155.595C118.992 125.519 398.78 88.8201 654 182.624C409.135 112.88 123.306 135.545 11 155.595Z" fill="white"/>
<path d="M398.971 6.41642L398.984 110.661L464.711 74.6268L405.437 133.007L454.857 199.934L395.571 154.069L379.264 257.031L379.251 152.786L313.525 188.82L372.798 130.44L323.378 63.5132L382.665 109.378L398.971 6.41642Z" fill="white"/>
</svg>
