<svg width="102" height="102" viewBox="0 0 102 102" fill="none" xmlns="http://www.w3.org/2000/svg">
<g filter="url(#filter0_b_1_143)">
<rect x="1" y="1" width="100" height="100" rx="17.394" fill="black" fill-opacity="0.1"/>
<rect x="0.5" y="0.5" width="101" height="101" rx="17.894" stroke="url(#paint0_linear_1_143)" stroke-opacity="0.5"/>
<path fill-rule="evenodd" clip-rule="evenodd" d="M44.4591 24.7853C40.9619 26.6198 38.1008 28.1721 38.1014 28.2352C38.1029 28.3982 46.4946 32.6778 46.7925 32.6673C46.928 32.6628 47.9109 32.2072 48.9765 31.655L50.9145 30.6513L55.1473 32.8425L58.6132 31.2742C63.8357 28.9111 64.3781 28.6521 64.2931 28.5651C64.1803 28.4497 62.3071 27.4363 57.225 24.7421C54.7689 23.44 52.385 22.1632 51.9273 21.9049C51.4698 21.6465 51.0329 21.4387 50.9566 21.4427C50.8803 21.4468 47.9563 22.9509 44.4591 24.7853ZM29.1206 32.7836L25.4801 34.6771V42.9877C25.4801 47.5585 25.5279 51.2981 25.5865 51.2981C25.645 51.2981 27.4361 50.5163 29.5667 49.5607L33.4406 47.8233V39.0634L35.3336 40.102C36.7924 40.9015 38.252 41.6995 39.7125 42.4958L42.1983 43.8511L43.3044 43.3474C43.9981 43.031 44.6904 42.7116 45.3813 42.389C45.9152 42.1387 47.2258 41.5442 48.2937 41.0678C49.3615 40.5913 50.35 40.112 50.4902 40.0028C50.6764 39.8577 48.4059 38.5942 42.0925 35.3295C37.3335 32.8686 33.287 30.8629 33.1004 30.8726C32.9138 30.8822 31.1229 31.742 29.1206 32.7836ZM64.9492 33.3153C62.4698 34.4425 60.4394 35.4097 60.4371 35.4649C60.435 35.52 61.7863 36.3291 63.4404 37.2626C65.0942 38.1964 66.4475 39.0103 66.4475 39.0716C66.4475 39.1328 64.9839 39.8468 63.1954 40.6588C61.4065 41.4705 56.8852 43.5266 53.1477 45.228L40.6244 50.9282C37.4742 52.3622 34.6347 53.6547 34.3143 53.8008C27.8799 56.734 26.1113 57.5479 25.8684 57.6876C25.6242 57.8283 25.5688 58.6454 25.5254 62.7468L25.4735 67.6385L31.9844 70.9791L36.4986 68.9276C38.9815 67.7994 41.0128 66.8172 41.0128 66.7448C41.0128 66.6727 40.554 66.3717 39.9935 66.0756C39.4327 65.7796 38.2751 65.1242 37.4208 64.619C36.5666 64.1137 35.7148 63.6501 35.5278 63.5886C35.3408 63.5273 35.1906 63.42 35.1936 63.3501C35.1967 63.2803 37.1846 62.3295 39.6108 61.237C44.3232 59.1154 47.9295 57.4802 55.6717 53.9545C59.1338 52.3783 62.5963 50.8031 66.0592 49.2288C69.1026 47.8455 72.6411 46.2299 73.9226 45.6386L76.2525 44.5636L76.3564 34.669L73.0545 32.9624C71.2384 32.0238 69.6861 31.2582 69.6047 31.261C69.5234 31.2636 67.4284 32.1879 64.9492 33.3153ZM75.3679 51.1637C74.8813 51.403 73.9202 51.8511 73.2322 52.1593C72.5441 52.4676 71.2384 53.0608 70.3307 53.4779L68.6803 54.2359L68.6427 58.5793C68.6219 60.9681 68.5345 62.912 68.4485 62.8993C68.2532 62.8701 65.1601 61.2727 62.0508 59.595C59.8067 58.3843 59.6657 58.3361 59.1384 58.5991C58.8336 58.7512 57.0114 59.5741 55.0893 60.4281C53.167 61.282 51.5317 62.0364 51.4548 62.1047C51.3781 62.1729 55.2467 64.2843 60.0519 66.7969L68.7885 71.3654L72.5206 69.4213C74.573 68.3522 76.3183 67.377 76.3987 67.2543C76.5796 66.9785 76.5641 50.6907 76.383 50.7127C76.3114 50.7214 75.8544 50.9243 75.3679 51.1637ZM54.7009 70.2815C54.0536 70.5617 53.4064 70.8424 52.7594 71.1235C50.8055 71.9747 51.1884 72.0029 48.8639 70.8377C47.3158 70.0616 46.6484 69.8221 46.3587 69.9384C46.1415 70.0255 44.2715 70.8727 42.203 71.8209C40.1346 72.7691 38.3704 73.5449 38.2827 73.5449C37.4149 73.5449 38.8576 74.4129 44.4249 77.2409L50.9541 80.5571L53.7012 79.1914C55.2122 78.4402 58.2597 76.936 60.4736 75.8488C62.6874 74.7613 64.4714 73.8434 64.438 73.8087C64.4043 73.7742 62.5494 72.815 60.3156 71.6772L56.2542 69.6087L54.7009 70.2815Z" fill="white"/>
</g>
<defs>
<filter id="filter0_b_1_143" x="-24.7" y="-24.7" width="151.4" height="151.4" filterUnits="userSpaceOnUse" color-interpolation-filters="sRGB">
<feFlood flood-opacity="0" result="BackgroundImageFix"/>
<feGaussianBlur in="BackgroundImageFix" stdDeviation="12.35"/>
<feComposite in2="SourceAlpha" operator="in" result="effect1_backgroundBlur_1_143"/>
<feBlend mode="normal" in="SourceGraphic" in2="effect1_backgroundBlur_1_143" result="shape"/>
</filter>
<linearGradient id="paint0_linear_1_143" x1="95.5205" y1="-23.2424" x2="37.8368" y2="117.59" gradientUnits="userSpaceOnUse">
<stop stop-color="#00FF00"/>
<stop offset="1" stop-color="#FEFF00"/>
</linearGradient>
</defs>
</svg>
