<svg width="73" height="73" viewBox="0 0 73 73" fill="none" xmlns="http://www.w3.org/2000/svg">
<rect x="2.11612" y="2.2883" width="68.4456" height="68.4456" rx="34.2228" fill="#AAE940"/>
<rect x="2.11612" y="2.2883" width="68.4456" height="68.4456" rx="34.2228" stroke="#AAE940" stroke-width="3.80097"/>
<path fill-rule="evenodd" clip-rule="evenodd" d="M33.1335 23.6658C31.4197 24.5647 30.0176 25.3253 30.0179 25.3562C30.0187 25.4361 34.131 27.5331 34.2769 27.528C34.3433 27.5258 34.825 27.3025 35.3472 27.032L36.2969 26.5401L38.3712 27.6138L40.0696 26.8454C42.6289 25.6874 42.8947 25.5605 42.853 25.5179C42.7977 25.4613 41.8798 24.9648 39.3893 23.6446C38.1857 23.0065 37.0175 22.3809 36.7933 22.2543C36.569 22.1277 36.3549 22.0259 36.3175 22.0279C36.2801 22.0298 34.8473 22.7669 33.1335 23.6658ZM25.6169 27.585L23.8329 28.5128V32.585C23.8329 34.8248 23.8564 36.6572 23.8851 36.6572C23.9137 36.6572 24.7915 36.2741 25.8356 35.8059L27.7339 34.9545V30.6621L28.6616 31.171C29.3765 31.5628 30.0917 31.9538 30.8075 32.344L32.0256 33.0081L32.5676 32.7613C32.9076 32.6063 33.2468 32.4497 33.5854 32.2917C33.8471 32.169 34.4893 31.8777 35.0126 31.6443C35.5359 31.4108 36.0203 31.1759 36.089 31.1224C36.1802 31.0513 35.0676 30.4322 31.9737 28.8325C29.6416 27.6266 27.6587 26.6438 27.5672 26.6485C27.4758 26.6533 26.5982 27.0746 25.6169 27.585ZM43.1745 27.8455C41.9595 28.3978 40.9646 28.8718 40.9634 28.8988C40.9624 28.9258 41.6246 29.3223 42.4351 29.7797C43.2456 30.2373 43.9088 30.6361 43.9088 30.6661C43.9088 30.6961 43.1916 31.046 42.3151 31.4439C41.4385 31.8416 39.2228 32.8491 37.3913 33.6828L31.2543 36.4759C29.7106 37.1786 28.3191 37.812 28.1621 37.8836C25.0089 39.3208 24.1422 39.7196 24.0232 39.7881C23.9035 39.857 23.8764 40.2574 23.8551 42.2672L23.8297 44.6641L27.0204 46.3011L29.2325 45.2958C30.4492 44.743 31.4446 44.2617 31.4446 44.2262C31.4446 44.1909 31.2198 44.0434 30.9451 43.8983C30.6703 43.7532 30.1031 43.4321 29.6844 43.1845C29.2658 42.9369 28.8484 42.7098 28.7567 42.6796C28.6651 42.6496 28.5915 42.597 28.593 42.5628C28.5945 42.5286 29.5686 42.0627 30.7576 41.5274C33.0669 40.4877 34.8341 39.6865 38.6282 37.9589C40.3247 37.1865 42.0215 36.4146 43.7185 35.6432C45.2099 34.9654 46.9439 34.1737 47.5719 33.884L48.7137 33.3572L48.7646 28.5088L47.1465 27.6726C46.2565 27.2127 45.4958 26.8375 45.4559 26.8389C45.4161 26.8402 44.3895 27.2931 43.1745 27.8455ZM48.2801 36.5913C48.0417 36.7086 47.5707 36.9282 47.2336 37.0792C46.8964 37.2303 46.2565 37.521 45.8117 37.7253L45.0029 38.0968L44.9845 40.225C44.9743 41.3956 44.9315 42.3481 44.8894 42.3419C44.7936 42.3276 43.2779 41.5448 41.7542 40.7227C40.6545 40.1295 40.5854 40.1059 40.327 40.2348C40.1776 40.3093 39.2847 40.7125 38.3427 41.131C37.4008 41.5494 36.5994 41.919 36.5617 41.9525C36.5241 41.9859 38.4199 43.0205 40.7747 44.2517L45.056 46.4903L46.8849 45.5377C47.8906 45.0138 48.7459 44.536 48.7853 44.4759C48.8739 44.3407 48.8664 36.3596 48.7776 36.3704C48.7425 36.3746 48.5186 36.4741 48.2801 36.5913ZM38.1524 45.9592C37.8352 46.0965 37.518 46.2341 37.201 46.3718C36.2435 46.7889 36.4312 46.8027 35.2921 46.2317C34.5334 45.8514 34.2063 45.7341 34.0644 45.7911C33.9579 45.8338 33.0416 46.2489 32.0279 46.7135C31.0143 47.1782 30.1498 47.5583 30.1068 47.5583C29.6815 47.5583 30.3885 47.9836 33.1167 49.3694L36.3163 50.9943L37.6625 50.3251C38.403 49.957 39.8964 49.22 40.9813 48.6872C42.0662 48.1543 42.9404 47.7045 42.924 47.6876C42.9075 47.6707 41.9985 47.2006 40.9039 46.6431L38.9136 45.6295L38.1524 45.9592Z" fill="#F286AC"/>
</svg>
