<svg width="100" height="99" viewBox="0 0 100 99" fill="none" xmlns="http://www.w3.org/2000/svg">
<g filter="url(#filter0_b_0_392)">
<rect x="1.66797" y="1" width="97" height="97" rx="17" fill="black" fill-opacity="0.1"/>
<rect x="1.66797" y="1" width="97" height="97" rx="17" stroke="white" stroke-width="2"/>
</g>
<path fill-rule="evenodd" clip-rule="evenodd" d="M42.2909 20.4357C38.4299 22.4695 35.271 24.1906 35.2717 24.2606C35.2734 24.4413 44.5382 29.1861 44.867 29.1745C45.0166 29.1694 46.1018 28.6643 47.2783 28.0521L49.4179 26.9393L54.0911 29.3687L57.9176 27.6299C63.6834 25.0099 64.2823 24.7228 64.1884 24.6263C64.0639 24.4984 61.9958 23.3749 56.3849 20.3877C53.6733 18.944 51.0414 17.5285 50.5361 17.2421C50.0309 16.9557 49.5486 16.7253 49.4644 16.7297C49.3801 16.7342 46.1519 18.4019 42.2909 20.4357ZM25.3566 29.3034L21.3373 31.4028V40.6167C21.3373 45.6844 21.3901 49.8306 21.4548 49.8306C21.5194 49.8306 23.4968 48.9637 25.8491 47.9043L30.1261 45.978V36.2659L32.2161 37.4173C33.8266 38.3038 35.438 39.1885 37.0505 40.0714L39.7949 41.574L41.0161 41.0156C41.782 40.6648 42.5463 40.3106 43.3091 39.953C43.8985 39.6754 45.3455 39.0164 46.5244 38.4882C47.7034 37.9598 48.7947 37.4284 48.9495 37.3073C49.155 37.1465 46.6484 35.7457 39.678 32.1261C34.4239 29.3976 29.9565 27.174 29.7505 27.1846C29.5445 27.1953 27.5672 28.1486 25.3566 29.3034ZM64.9128 29.8929C62.1754 31.1426 59.9338 32.215 59.9313 32.2761C59.9289 32.3372 61.4208 33.2343 63.2469 34.2693C65.0729 35.3046 66.5669 36.207 66.5669 36.2749C66.5669 36.3428 64.9511 37.1345 62.9765 38.0346C61.0015 38.9346 56.0098 41.2142 51.8834 43.1005L38.0573 49.4204C34.5793 51.0103 31.4444 52.4434 31.0907 52.6054C23.9868 55.8574 22.0342 56.7597 21.766 56.9146C21.4964 57.0706 21.4353 57.9766 21.3873 62.5238L21.3301 67.9473L28.5184 71.651L33.5022 69.3766C36.2434 68.1257 38.486 67.0367 38.486 66.9565C38.486 66.8765 37.9795 66.5427 37.3607 66.2145C36.7415 65.8863 35.4635 65.1597 34.5204 64.5995C33.5773 64.0393 32.6368 63.5253 32.4304 63.4571C32.224 63.3892 32.0581 63.2702 32.0615 63.1927C32.0649 63.1153 34.2595 62.0612 36.9381 60.8499C42.1408 58.4977 46.1223 56.6847 54.6701 52.7757C58.4923 51.0282 62.315 49.2817 66.1382 47.5363C69.4983 46.0026 73.4049 44.2114 74.8198 43.5558L77.392 42.3639L77.5067 31.3937L73.8613 29.5016C71.8563 28.461 70.1424 27.6122 70.0526 27.6153C69.9628 27.6181 67.6499 28.643 64.9128 29.8929ZM76.4154 49.6815C75.8782 49.9468 74.8171 50.4437 74.0575 50.7854C73.2978 51.1272 71.8563 51.7849 70.8541 52.2473L69.032 53.0877L68.9905 57.9033C68.9675 60.5517 68.8711 62.7069 68.7761 62.6929C68.5605 62.6605 65.1455 60.8895 61.7128 59.0294C59.2352 57.6871 59.0796 57.6337 58.4974 57.9252C58.1609 58.0939 56.1491 59.0063 54.027 59.9531C51.9048 60.8997 50.0993 61.7361 50.0144 61.8119C49.9297 61.8875 54.2008 64.2284 59.506 67.0142L69.1515 72.0793L73.2719 69.9239C75.5378 68.7385 77.4647 67.6573 77.5534 67.5213C77.7532 67.2155 77.7361 49.1571 77.5361 49.1815C77.457 49.1911 76.9526 49.4162 76.4154 49.6815ZM53.5983 70.8776C52.8836 71.1883 52.169 71.4995 51.4547 71.8111C49.2976 72.7548 49.7203 72.7861 47.154 71.4942C45.4448 70.6338 44.708 70.3683 44.3882 70.4972C44.1483 70.5938 42.0838 71.533 39.8 72.5843C37.5164 73.6356 35.5688 74.4957 35.4719 74.4957C34.5138 74.4957 36.1066 75.4581 42.2532 78.5935L49.4616 82.2702L52.4945 80.756C54.1627 79.9232 57.5272 78.2555 59.9716 77.0501C62.4157 75.8444 64.3852 74.8266 64.3484 74.7882C64.3112 74.75 62.2632 73.6865 59.7971 72.425L55.3132 70.1316L53.5983 70.8776Z" fill="white"/>
<defs>
<filter id="filter0_b_0_392" x="-38.3907" y="-39.0587" width="177.117" height="177.117" filterUnits="userSpaceOnUse" color-interpolation-filters="sRGB">
<feFlood flood-opacity="0" result="BackgroundImageFix"/>
<feGaussianBlur in="BackgroundImageFix" stdDeviation="19.5293"/>
<feComposite in2="SourceAlpha" operator="in" result="effect1_backgroundBlur_0_392"/>
<feBlend mode="normal" in="SourceGraphic" in2="effect1_backgroundBlur_0_392" result="shape"/>
</filter>
</defs>
</svg>
