<svg width="26" height="25" viewBox="0 0 26 25" fill="none" xmlns="http://www.w3.org/2000/svg">
<path d="M17.569 22.8704C12.6752 22.8704 6.07562 22.9276 4.55536 21.4073C3.035 19.887 3.035 17.44 3.035 12.5462C3.035 7.65236 3.035 5.20544 4.55536 3.68512C6.07562 2.16479 8.52262 2.16479 13.4164 2.16479C18.3103 2.16479 20.7572 2.16479 22.2775 3.68512C23.7979 5.20544 23.7979 7.65236 23.7979 12.5462C23.7979 17.44 23.7979 19.887 22.2775 21.4073C21.2666 22.4182 19.8461 22.757 17.569 22.8704Z" fill="#282828" stroke="#F82D4E" stroke-width="1.66103" stroke-linecap="round"/>
<path d="M9.21152 12.6683L16.4785 12.6683M16.4785 12.6683L13.3641 15.7827M16.4785 12.6683L13.3641 9.55383" stroke="#F82D4E" stroke-width="1.66103" stroke-linecap="round" stroke-linejoin="round"/>
</svg>
