<svg width="274" height="120" viewBox="0 0 274 120" fill="none" xmlns="http://www.w3.org/2000/svg">
<rect width="274" height="120" fill="#F1C40F"/>
<path d="M90.6764 60.164V55.946H97.1174C98.2194 55.946 99.1504 55.775 99.9104 55.433C100.708 55.091 101.316 54.616 101.734 54.008C102.152 53.362 102.361 52.583 102.361 51.671C102.361 50.303 101.905 49.277 100.993 48.593C100.081 47.909 98.7894 47.567 97.1174 47.567H93.1274V72.533H98.0294C99.2834 72.533 100.404 72.381 101.392 72.077C102.38 71.735 103.159 71.203 103.729 70.481C104.337 69.721 104.641 68.695 104.641 67.403C104.641 66.567 104.47 65.845 104.128 65.237C103.786 64.629 103.311 64.135 102.703 63.755C102.095 63.375 101.392 63.109 100.594 62.957C99.8344 62.767 98.9794 62.672 98.0294 62.672H90.6764V57.428H99.1124C101.05 57.428 102.931 57.637 104.755 58.055C106.579 58.473 108.232 59.157 109.714 60.107C111.196 61.019 112.374 62.197 113.248 63.641C114.16 65.047 114.616 66.757 114.616 68.771C114.616 71.431 113.97 73.578 112.678 75.212C111.424 76.846 109.638 78.062 107.32 78.86C105.002 79.62 102.266 80 99.1124 80H83.4944V40.1H98.1434C100.917 40.1 103.349 40.48 105.439 41.24C107.567 41.962 109.239 43.083 110.455 44.603C111.709 46.085 112.336 47.966 112.336 50.246C112.336 52.336 111.709 54.122 110.455 55.604C109.239 57.086 107.567 58.226 105.439 59.024C103.349 59.784 100.917 60.164 98.1434 60.164H90.6764ZM121.061 40.1H130.694V66.206C130.694 68.22 131.226 69.854 132.29 71.108C133.354 72.362 134.95 72.989 137.078 72.989C139.244 72.989 140.859 72.362 141.923 71.108C142.987 69.854 143.519 68.22 143.519 66.206V40.1H153.152V66.89C153.152 69.398 152.734 71.583 151.898 73.445C151.1 75.307 149.96 76.846 148.478 78.062C147.034 79.24 145.324 80.133 143.348 80.741C141.41 81.349 139.32 81.653 137.078 81.653C134.836 81.653 132.746 81.349 130.808 80.741C128.87 80.133 127.16 79.24 125.678 78.062C124.234 76.846 123.094 75.307 122.258 73.445C121.46 71.583 121.061 69.398 121.061 66.89V40.1ZM183.714 40.1H194.772L180.807 63.755V80H171.003V63.812L157.038 40.1H168.096L175.905 55.091L183.714 40.1Z" fill="black"/>
</svg>
