<svg width="505" height="426" viewBox="0 0 505 426" fill="none" xmlns="http://www.w3.org/2000/svg">
<path d="M142.315 20.15V10H164.225V20.15H142.315ZM142.315 39.33V29.81H163.525V39.33H142.315ZM134.475 10H145.815V59H134.475V10ZM186.377 59.7C182.644 59.7 179.401 59.0233 176.647 57.67C173.941 56.27 171.841 54.31 170.347 51.79C168.854 49.27 168.107 46.3067 168.107 42.9C168.107 39.4467 168.831 36.46 170.277 33.94C171.724 31.42 173.801 29.4833 176.507 28.13C179.261 26.7767 182.504 26.1 186.237 26.1C189.971 26.1 193.121 26.7533 195.687 28.06C198.254 29.32 200.214 31.1633 201.567 33.59C202.921 36.0167 203.597 38.9567 203.597 42.41C203.597 42.9233 203.597 43.4367 203.597 43.95C203.597 44.4167 203.551 44.8133 203.457 45.14H174.057V39.26H193.937L191.417 42.48C191.651 42.1533 191.837 41.7567 191.977 41.29C192.164 40.7767 192.257 40.3567 192.257 40.03C192.257 38.63 192.001 37.4167 191.487 36.39C190.974 35.3633 190.251 34.57 189.317 34.01C188.384 33.45 187.287 33.17 186.027 33.17C184.441 33.17 183.111 33.52 182.037 34.22C180.964 34.92 180.147 35.9933 179.587 37.44C179.074 38.84 178.794 40.6133 178.747 42.76C178.747 44.72 179.027 46.4 179.587 47.8C180.147 49.2 180.987 50.2733 182.107 51.02C183.227 51.72 184.604 52.07 186.237 52.07C188.104 52.07 189.691 51.72 190.997 51.02C192.351 50.32 193.424 49.27 194.217 47.87L203.667 50.18C201.987 53.3533 199.701 55.7333 196.807 57.32C193.961 58.9067 190.484 59.7 186.377 59.7ZM234.554 4.4H245.124V59H234.554V4.4ZM208.234 42.9C208.234 39.26 208.957 36.2033 210.404 33.73C211.897 31.2567 213.811 29.3667 216.144 28.06C218.477 26.7533 220.951 26.1 223.564 26.1C226.271 26.1 228.651 26.7767 230.704 28.13C232.804 29.4833 234.461 31.42 235.674 33.94C236.887 36.4133 237.494 39.4 237.494 42.9C237.494 46.3533 236.887 49.34 235.674 51.86C234.461 54.38 232.804 56.3167 230.704 57.67C228.651 59.0233 226.271 59.7 223.564 59.7C220.951 59.7 218.477 59.0467 216.144 57.74C213.811 56.4333 211.897 54.5433 210.404 52.07C208.957 49.55 208.234 46.4933 208.234 42.9ZM219.364 42.9C219.364 44.58 219.714 46.05 220.414 47.31C221.114 48.5233 222.047 49.48 223.214 50.18C224.381 50.8333 225.664 51.16 227.064 51.16C228.277 51.16 229.444 50.8333 230.564 50.18C231.731 49.5267 232.687 48.5933 233.434 47.38C234.181 46.12 234.554 44.6267 234.554 42.9C234.554 41.1733 234.181 39.7033 233.434 38.49C232.687 37.23 231.731 36.2733 230.564 35.62C229.444 34.9667 228.277 34.64 227.064 34.64C225.664 34.64 224.381 34.99 223.214 35.69C222.047 36.3433 221.114 37.3 220.414 38.56C219.714 39.7733 219.364 41.22 219.364 42.9ZM269.707 59.7C265.974 59.7 262.731 59.0233 259.977 57.67C257.271 56.27 255.171 54.31 253.677 51.79C252.184 49.27 251.437 46.3067 251.437 42.9C251.437 39.4467 252.161 36.46 253.607 33.94C255.054 31.42 257.131 29.4833 259.837 28.13C262.591 26.7767 265.834 26.1 269.567 26.1C273.301 26.1 276.451 26.7533 279.017 28.06C281.584 29.32 283.544 31.1633 284.897 33.59C286.251 36.0167 286.927 38.9567 286.927 42.41C286.927 42.9233 286.927 43.4367 286.927 43.95C286.927 44.4167 286.881 44.8133 286.787 45.14H257.387V39.26H277.267L274.747 42.48C274.981 42.1533 275.167 41.7567 275.307 41.29C275.494 40.7767 275.587 40.3567 275.587 40.03C275.587 38.63 275.331 37.4167 274.817 36.39C274.304 35.3633 273.581 34.57 272.647 34.01C271.714 33.45 270.617 33.17 269.357 33.17C267.771 33.17 266.441 33.52 265.367 34.22C264.294 34.92 263.477 35.9933 262.917 37.44C262.404 38.84 262.124 40.6133 262.077 42.76C262.077 44.72 262.357 46.4 262.917 47.8C263.477 49.2 264.317 50.2733 265.437 51.02C266.557 51.72 267.934 52.07 269.567 52.07C271.434 52.07 273.021 51.72 274.327 51.02C275.681 50.32 276.754 49.27 277.547 47.87L286.997 50.18C285.317 53.3533 283.031 55.7333 280.137 57.32C277.291 58.9067 273.814 59.7 269.707 59.7ZM303.884 26.8V59H293.454V26.8H303.884ZM313.194 37.72C312.634 37.16 312.028 36.7167 311.374 36.39C310.768 36.0633 309.998 35.9 309.064 35.9C308.038 35.9 307.128 36.18 306.334 36.74C305.541 37.3 304.934 38.1167 304.514 39.19C304.094 40.2633 303.884 41.57 303.884 43.11L301.364 39.4C301.364 36.8333 301.854 34.5467 302.834 32.54C303.861 30.5333 305.191 28.9467 306.824 27.78C308.458 26.6133 310.161 26.03 311.934 26.03C313.101 26.03 314.221 26.2633 315.294 26.73C316.368 27.1967 317.184 27.85 317.744 28.69L313.194 37.72ZM330.424 48.92C330.424 49.76 330.634 50.4833 331.054 51.09C331.474 51.65 332.034 52.0933 332.734 52.42C333.434 52.7 334.204 52.84 335.044 52.84C336.257 52.84 337.377 52.5833 338.404 52.07C339.43 51.5567 340.27 50.7867 340.924 49.76C341.577 48.7333 341.904 47.4733 341.904 45.98L343.024 50.18C343.024 52.2333 342.464 53.9833 341.344 55.43C340.224 56.83 338.777 57.9033 337.004 58.65C335.23 59.35 333.317 59.7 331.264 59.7C329.21 59.7 327.297 59.3267 325.524 58.58C323.797 57.7867 322.397 56.62 321.324 55.08C320.297 53.54 319.784 51.6733 319.784 49.48C319.784 46.4 320.88 43.9733 323.074 42.2C325.267 40.38 328.37 39.47 332.384 39.47C334.344 39.47 336.094 39.6567 337.634 40.03C339.22 40.4033 340.574 40.87 341.694 41.43C342.814 41.99 343.654 42.5733 344.214 43.18V47.87C343.094 47.03 341.787 46.4 340.294 45.98C338.847 45.5133 337.307 45.28 335.674 45.28C334.414 45.28 333.41 45.42 332.664 45.7C331.917 45.98 331.357 46.4 330.984 46.96C330.61 47.4733 330.424 48.1267 330.424 48.92ZM325.734 36.67L322.164 29.6C323.984 28.7133 326.177 27.8733 328.744 27.08C331.31 26.2867 334.11 25.89 337.144 25.89C339.99 25.89 342.534 26.31 344.774 27.15C347.014 27.9433 348.787 29.11 350.094 30.65C351.4 32.19 352.054 34.08 352.054 36.32V59H341.904V38.7C341.904 37.9067 341.764 37.23 341.484 36.67C341.25 36.0633 340.877 35.55 340.364 35.13C339.85 34.71 339.197 34.4067 338.404 34.22C337.657 34.0333 336.794 33.94 335.814 33.94C334.367 33.94 332.944 34.1033 331.544 34.43C330.19 34.7567 329 35.1533 327.974 35.62C326.947 36.04 326.2 36.39 325.734 36.67ZM359.968 4.4H370.608V59H359.968V4.4ZM52.582 104.64V99.46H60.492C61.8454 99.46 62.9887 99.25 63.922 98.83C64.902 98.41 65.6487 97.8267 66.162 97.08C66.6754 96.2867 66.932 95.33 66.932 94.21C66.932 92.53 66.372 91.27 65.252 90.43C64.132 89.59 62.5454 89.17 60.492 89.17H55.592V119.83H61.612C63.152 119.83 64.5287 119.643 65.742 119.27C66.9554 118.85 67.912 118.197 68.612 117.31C69.3587 116.377 69.732 115.117 69.732 113.53C69.732 112.503 69.522 111.617 69.102 110.87C68.682 110.123 68.0987 109.517 67.352 109.05C66.6054 108.583 65.742 108.257 64.762 108.07C63.8287 107.837 62.7787 107.72 61.612 107.72H52.582V101.28H62.942C65.322 101.28 67.632 101.537 69.872 102.05C72.112 102.563 74.142 103.403 75.962 104.57C77.782 105.69 79.2287 107.137 80.302 108.91C81.422 110.637 81.982 112.737 81.982 115.21C81.982 118.477 81.1887 121.113 79.602 123.12C78.062 125.127 75.8687 126.62 73.022 127.6C70.1754 128.533 66.8154 129 62.942 129H43.762V80H61.752C65.1587 80 68.1454 80.4667 70.712 81.4C73.3254 82.2867 75.3787 83.6633 76.872 85.53C78.412 87.35 79.182 89.66 79.182 92.46C79.182 95.0267 78.412 97.22 76.872 99.04C75.3787 100.86 73.3254 102.26 70.712 103.24C68.1454 104.173 65.1587 104.64 61.752 104.64H52.582ZM88.5664 84.69C88.5664 83.01 89.1731 81.6567 90.3864 80.63C91.5997 79.5567 93.0464 79.02 94.7264 79.02C96.4531 79.02 97.8997 79.5567 99.0664 80.63C100.28 81.6567 100.886 83.01 100.886 84.69C100.886 86.37 100.28 87.7467 99.0664 88.82C97.8997 89.8933 96.4531 90.43 94.7264 90.43C93.0464 90.43 91.5997 89.8933 90.3864 88.82C89.1731 87.7467 88.5664 86.37 88.5664 84.69ZM89.6164 96.8H99.8364V129H89.6164V96.8ZM104.762 96.8H126.322V105.55H104.762V96.8ZM110.432 85.6H120.582V129H110.432V85.6ZM139.717 112.9C139.717 114.627 140.091 116.12 140.837 117.38C141.584 118.593 142.611 119.55 143.917 120.25C145.271 120.95 146.717 121.3 148.257 121.3C149.564 121.3 150.801 121.113 151.967 120.74C153.181 120.32 154.277 119.76 155.257 119.06C156.284 118.36 157.124 117.497 157.777 116.47V126.76C156.657 127.647 155.257 128.37 153.577 128.93C151.897 129.443 149.844 129.7 147.417 129.7C143.871 129.7 140.674 129 137.827 127.6C135.027 126.2 132.811 124.24 131.177 121.72C129.591 119.2 128.797 116.26 128.797 112.9C128.797 109.493 129.591 106.553 131.177 104.08C132.811 101.56 135.027 99.6 137.827 98.2C140.674 96.8 143.871 96.1 147.417 96.1C149.844 96.1 151.897 96.38 153.577 96.94C155.257 97.4533 156.657 98.1067 157.777 98.9V109.26C157.124 108.233 156.261 107.37 155.187 106.67C154.161 105.97 153.041 105.433 151.827 105.06C150.614 104.687 149.424 104.5 148.257 104.5C146.717 104.5 145.271 104.873 143.917 105.62C142.611 106.367 141.584 107.37 140.837 108.63C140.091 109.89 139.717 111.313 139.717 112.9ZM163.527 112.9C163.527 109.493 164.32 106.53 165.907 104.01C167.494 101.49 169.687 99.53 172.487 98.13C175.287 96.73 178.437 96.03 181.937 96.03C185.437 96.03 188.564 96.73 191.317 98.13C194.117 99.53 196.31 101.49 197.897 104.01C199.53 106.53 200.347 109.493 200.347 112.9C200.347 116.26 199.53 119.2 197.897 121.72C196.31 124.24 194.117 126.2 191.317 127.6C188.564 129 185.437 129.7 181.937 129.7C178.437 129.7 175.287 129 172.487 127.6C169.687 126.2 167.494 124.24 165.907 121.72C164.32 119.2 163.527 116.26 163.527 112.9ZM174.377 112.9C174.377 114.58 174.727 116.027 175.427 117.24C176.127 118.407 177.037 119.317 178.157 119.97C179.277 120.623 180.537 120.95 181.937 120.95C183.29 120.95 184.527 120.623 185.647 119.97C186.814 119.317 187.724 118.407 188.377 117.24C189.077 116.027 189.427 114.58 189.427 112.9C189.427 111.22 189.077 109.773 188.377 108.56C187.724 107.347 186.814 106.413 185.647 105.76C184.527 105.107 183.29 104.78 181.937 104.78C180.537 104.78 179.277 105.107 178.157 105.76C177.037 106.413 176.127 107.347 175.427 108.56C174.727 109.773 174.377 111.22 174.377 112.9ZM206.076 84.69C206.076 83.01 206.683 81.6567 207.896 80.63C209.11 79.5567 210.556 79.02 212.236 79.02C213.963 79.02 215.41 79.5567 216.576 80.63C217.79 81.6567 218.396 83.01 218.396 84.69C218.396 86.37 217.79 87.7467 216.576 88.82C215.41 89.8933 213.963 90.43 212.236 90.43C210.556 90.43 209.11 89.8933 207.896 88.82C206.683 87.7467 206.076 86.37 206.076 84.69ZM207.126 96.8H217.346V129H207.126V96.8ZM246.982 109.4C246.982 107.487 246.609 106.017 245.862 104.99C245.162 103.963 243.972 103.45 242.292 103.45C241.172 103.45 240.192 103.683 239.352 104.15C238.512 104.617 237.859 105.293 237.392 106.18C236.925 107.067 236.692 108.14 236.692 109.4V129H226.052V96.8H236.692V101.63C237.625 99.8567 238.885 98.48 240.472 97.5C242.105 96.52 244.112 96.03 246.492 96.03C250.505 96.03 253.422 97.1033 255.242 99.25C257.062 101.397 257.972 104.407 257.972 108.28V129H246.982V109.4ZM288.352 80H300.392V129H288.352V80ZM330.654 109.4C330.654 107.487 330.28 106.017 329.534 104.99C328.834 103.963 327.644 103.45 325.964 103.45C324.844 103.45 323.864 103.683 323.024 104.15C322.184 104.617 321.53 105.293 321.064 106.18C320.597 107.067 320.364 108.14 320.364 109.4V129H309.724V96.8H320.364V101.63C321.297 99.8567 322.557 98.48 324.144 97.5C325.777 96.52 327.784 96.03 330.164 96.03C334.177 96.03 337.094 97.1033 338.914 99.25C340.734 101.397 341.644 104.407 341.644 108.28V129H330.654V109.4ZM374.417 74.4H384.987V129H374.417V74.4ZM348.097 112.9C348.097 109.26 348.821 106.203 350.267 103.73C351.761 101.257 353.674 99.3667 356.007 98.06C358.341 96.7533 360.814 96.1 363.427 96.1C366.134 96.1 368.514 96.7767 370.567 98.13C372.667 99.4833 374.324 101.42 375.537 103.94C376.751 106.413 377.357 109.4 377.357 112.9C377.357 116.353 376.751 119.34 375.537 121.86C374.324 124.38 372.667 126.317 370.567 127.67C368.514 129.023 366.134 129.7 363.427 129.7C360.814 129.7 358.341 129.047 356.007 127.74C353.674 126.433 351.761 124.543 350.267 122.07C348.821 119.55 348.097 116.493 348.097 112.9ZM359.227 112.9C359.227 114.58 359.577 116.05 360.277 117.31C360.977 118.523 361.911 119.48 363.077 120.18C364.244 120.833 365.527 121.16 366.927 121.16C368.141 121.16 369.307 120.833 370.427 120.18C371.594 119.527 372.551 118.593 373.297 117.38C374.044 116.12 374.417 114.627 374.417 112.9C374.417 111.173 374.044 109.703 373.297 108.49C372.551 107.23 371.594 106.273 370.427 105.62C369.307 104.967 368.141 104.64 366.927 104.64C365.527 104.64 364.244 104.99 363.077 105.69C361.911 106.343 360.977 107.3 360.277 108.56C359.577 109.773 359.227 111.22 359.227 112.9ZM409.571 129.7C405.837 129.7 402.594 129.023 399.841 127.67C397.134 126.27 395.034 124.31 393.541 121.79C392.047 119.27 391.301 116.307 391.301 112.9C391.301 109.447 392.024 106.46 393.471 103.94C394.917 101.42 396.994 99.4833 399.701 98.13C402.454 96.7767 405.697 96.1 409.431 96.1C413.164 96.1 416.314 96.7533 418.881 98.06C421.447 99.32 423.407 101.163 424.761 103.59C426.114 106.017 426.791 108.957 426.791 112.41C426.791 112.923 426.791 113.437 426.791 113.95C426.791 114.417 426.744 114.813 426.651 115.14H397.251V109.26H417.131L414.611 112.48C414.844 112.153 415.031 111.757 415.171 111.29C415.357 110.777 415.451 110.357 415.451 110.03C415.451 108.63 415.194 107.417 414.681 106.39C414.167 105.363 413.444 104.57 412.511 104.01C411.577 103.45 410.481 103.17 409.221 103.17C407.634 103.17 406.304 103.52 405.231 104.22C404.157 104.92 403.341 105.993 402.781 107.44C402.267 108.84 401.987 110.613 401.941 112.76C401.941 114.72 402.221 116.4 402.781 117.8C403.341 119.2 404.181 120.273 405.301 121.02C406.421 121.72 407.797 122.07 409.431 122.07C411.297 122.07 412.884 121.72 414.191 121.02C415.544 120.32 416.617 119.27 417.411 117.87L426.861 120.18C425.181 123.353 422.894 125.733 420.001 127.32C417.154 128.907 413.677 129.7 409.571 129.7ZM452.942 96.8H464.702L452.382 112.48L465.402 129H453.642L446.922 119.62L440.342 129H428.162L441.392 112.48L428.862 96.8H441.042L446.922 105.27L452.942 96.8Z" fill="white"/>
<path d="M57.5043 166.494H90.9223L88.7523 209.894H59.6743L57.5043 166.494ZM59.6743 328.81H88.5353L90.7053 368.304H57.5043L59.6743 328.81ZM98.7343 241.142C96.5643 236.947 94.1773 233.475 91.5733 230.726C88.9693 227.977 86.293 225.952 83.5443 224.65C80.7956 223.348 78.047 222.697 75.2983 222.697C72.405 222.697 70.018 223.203 68.1373 224.216C66.4013 225.229 65.0993 226.458 64.2313 227.905C63.3633 229.352 62.9293 230.871 62.9293 232.462C62.9293 235.934 64.5206 238.683 67.7033 240.708C70.886 242.733 75.0813 244.542 80.2893 246.133C85.642 247.724 91.3563 249.677 97.4323 251.992C103.364 254.162 108.644 256.694 113.273 259.587C118.047 262.48 122.17 265.952 125.642 270.003C129.114 273.909 131.718 278.394 133.454 283.457C135.335 288.52 136.275 294.235 136.275 300.6C136.275 310.582 133.527 318.973 128.029 325.772C122.532 332.571 114.865 337.707 105.027 341.179C95.19 344.506 83.7613 346.17 70.7413 346.17C61.0486 346.17 51.7176 344.434 42.7483 340.962C33.9236 337.345 26.1116 332.788 19.3123 327.291C12.6576 321.794 7.73898 315.935 4.55631 309.714L36.6723 286.278C40.4336 291.775 44.0503 296.26 47.5223 299.732C51.139 303.204 54.9003 305.736 58.8063 307.327C62.7123 308.918 67.0523 309.714 71.8263 309.714C75.1536 309.714 77.83 309.425 79.8553 308.846C81.8806 308.123 83.3273 307.11 84.1953 305.808C85.208 304.361 85.7143 302.553 85.7143 300.383C85.7143 297.779 84.557 295.681 82.2423 294.09C79.9276 292.354 76.6003 290.69 72.2603 289.099C68.065 287.363 62.9293 285.338 56.8533 283.023C53.092 281.576 48.752 279.623 43.8333 277.164C39.0593 274.56 34.3576 271.305 29.7283 267.399C25.2436 263.493 21.4823 258.791 18.4443 253.294C15.551 247.652 14.1043 240.997 14.1043 233.33C14.1043 225.663 16.5636 218.574 21.4823 212.064C26.5456 205.409 33.4896 200.057 42.3143 196.006C51.2836 191.955 61.6996 189.93 73.5623 189.93C85.425 189.93 95.1176 191.377 102.64 194.27C110.163 197.163 116.384 201.069 121.302 205.988C126.221 210.762 130.489 215.97 134.105 221.612L98.7343 241.142ZM188.889 232.245V192.1H256.81V232.245H188.889ZM188.889 290.835V253.945H254.64V290.835H188.889ZM155.905 192.1H201.475V344H155.905V192.1ZM317.996 271.305V251.775H342.517C346.134 251.775 349.099 251.269 351.414 250.256C353.729 249.243 355.465 247.797 356.622 245.916C357.779 244.035 358.358 241.793 358.358 239.189C358.358 235.283 357.056 232.462 354.452 230.726C351.993 228.845 348.014 227.905 342.517 227.905H330.582V308.195H346.857C350.474 308.195 353.801 307.906 356.839 307.327C359.877 306.748 362.336 305.519 364.217 303.638C366.098 301.757 367.038 298.792 367.038 294.741C367.038 292.282 366.459 290.329 365.302 288.882C364.289 287.291 362.843 286.133 360.962 285.41C359.081 284.542 356.911 283.963 354.452 283.674C352.137 283.385 349.606 283.24 346.857 283.24H317.996V257.2H353.367C360.745 257.2 368.123 258.068 375.501 259.804C383.024 261.395 389.895 263.999 396.116 267.616C402.337 271.233 407.328 275.934 411.089 281.721C414.995 287.363 416.948 294.235 416.948 302.336C416.948 312.463 414.416 320.564 409.353 326.64C404.434 332.716 397.201 337.128 387.653 339.877C378.25 342.626 366.821 344 353.367 344H282.842V192.1H349.027C360.311 192.1 370.365 193.547 379.19 196.44C388.159 199.333 395.248 203.673 400.456 209.46C405.664 215.247 408.268 222.48 408.268 231.16C408.268 239.695 405.664 247.001 400.456 253.077C395.248 259.008 388.159 263.565 379.19 266.748C370.365 269.786 360.311 271.305 349.027 271.305H317.996ZM440.718 192.1H489.543V344H440.718V192.1Z" fill="#F1C40F"/>
</svg>
