<svg width="39" height="46" viewBox="0 0 39 46" fill="none" xmlns="http://www.w3.org/2000/svg">
<path d="M8.24564 5.05187C12.3611 1.01037 17.5544 0 19.6366 0V13.296C18.0162 13.296 17.2467 14.0546 17.0644 14.4339C9.42148 11.2585 5.55101 5.17215 4.57114 2.52594C5.45302 3.68065 7.38826 4.69102 8.24564 5.05187Z" fill="white"/>
<path d="M30.756 5.05187C26.6406 1.01037 21.4473 0 19.3651 0V13.296C20.9854 13.296 21.755 14.0546 21.9372 14.4339C29.5802 11.2585 33.4507 5.17215 34.4305 2.52594C33.5486 3.68065 31.6134 4.69102 30.756 5.05187Z" fill="white"/>
<path d="M10.6344 13.4084C11.7934 14.2666 14.4022 16.0838 15.5648 16.4868C13.3513 17.1678 9.26634 17.5055 10.6344 13.4084Z" fill="white"/>
<path d="M8.55432 11.6174C7.82479 11.08 6.5595 9.35987 6.01805 8.56695C3.91336 10.6338 3.68465 14.7081 3.83339 16.4868C3.83339 29.9145 1.2778 36.1873 0 37.6453L5.41348 33.5835L9.0788 39.5276L13.3416 35.8878L19.518 46V42.6679L17.4846 35.8878C15.8201 28.6804 10.6853 25.4732 8.32604 24.7705L13.3416 21.972L13.5126 19.6492C6.74158 19.6492 7.38583 14.2946 8.55432 11.6174Z" fill="white"/>
<path d="M28.3656 13.4084C27.2066 14.2666 24.5978 16.0838 23.4352 16.4868C25.6487 17.1678 29.7337 17.5055 28.3656 13.4084Z" fill="white"/>
<path d="M30.4457 11.6174C31.1752 11.08 32.4405 9.35987 32.9819 8.56695C35.0866 10.6338 35.3153 14.7081 35.1666 16.4868C35.1666 29.9145 37.7222 36.1873 39 37.6453L33.5865 33.5835L29.9212 39.5276L25.6584 35.8878L19.482 46V42.6679L21.5154 35.8878C23.1799 28.6804 28.3147 25.4732 30.674 24.7705L25.6584 21.972L25.4874 19.6492C32.2584 19.6492 31.6142 14.2946 30.4457 11.6174Z" fill="white"/>
<path d="M16.2019 20.3456C16.2019 17.6912 18.5066 16.3846 19.659 16.0631V34.5822C19.659 29.7364 15.6256 26.0557 13.609 24.8211L16.2019 23.2392V20.3456Z" fill="white"/>
<path d="M23.1091 20.3456C23.1091 17.6912 20.8044 16.3846 19.6521 16.0631V34.5822C19.6521 29.7364 23.6854 26.0557 25.7021 24.8211L23.1091 23.2392V20.3456Z" fill="white"/>
</svg>
