<svg width="44" height="50" viewBox="0 0 44 50" fill="none" xmlns="http://www.w3.org/2000/svg">
<path fill-rule="evenodd" clip-rule="evenodd" d="M41.0388 18.7702L43.2993 17.465V37.5L21.6496 50L0 37.5V12.5L21.6496 0L38.8052 9.91658L36.5581 11.2083L21.6496 2.59688L2.24704 13.8052V36.2083L21.6496 47.4031L41.0388 36.2083V18.7702ZM26.507 24.1658C25.7939 24.8924 24.8117 25.3095 23.7891 25.323H12.971V36.2083H16.2137V28.6061H22.6992C24.0178 28.6195 25.323 28.4311 26.5743 28.0275C27.8391 27.4893 28.929 26.6012 29.696 25.471C30.5302 24.2869 30.9742 22.8741 30.9608 21.4209C30.9473 19.5372 30.1938 17.7207 28.8483 16.3752C27.5162 15.0296 25.6997 14.2761 23.8025 14.2627H12.971V17.5727H23.7891C24.3004 17.5727 24.7982 17.6669 25.2692 17.8687C25.7266 18.0705 26.1572 18.3531 26.507 18.7164C26.8703 19.0662 27.1529 19.4833 27.3547 19.9543C27.5431 20.4252 27.6373 20.9231 27.6373 21.4344C27.6373 22.457 27.2336 23.4392 26.507 24.1658ZM27.1125 35.9392L24.1927 30.8396C25.3499 30.7723 26.4936 30.5302 27.5835 30.1534L30.8935 35.9392H27.1125ZM41.0253 16.3886L38.7783 15.1372H38.7917V12.5269L41.0253 11.2352L43.2589 12.5269V15.1507L41.0253 16.3886Z" fill="white"/>
</svg>
