<svg width="130" height="121" viewBox="0 0 130 121" fill="none" xmlns="http://www.w3.org/2000/svg">
<g filter="url(#filter0_f_1_399)">
<path d="M30 60.5C30 68.5891 33.6875 76.3469 40.2513 82.0668C46.815 87.7866 55.7174 91 65 91C74.2826 91 83.185 87.7866 89.7487 82.0668C96.3125 76.3469 100 68.5891 100 60.5L82.5 47.2391L65 60.5L30 60.5Z" fill="#00479F"/>
<path d="M100 60.5C100 52.4109 96.3125 44.6531 89.7487 38.9332C83.185 33.2134 74.2826 30 65 30C55.7174 30 46.815 33.2134 40.2513 38.9332C33.6875 44.6531 30 52.4109 30 60.5V60.5C40.3489 68.342 54.6511 68.342 65 60.5V60.5V60.5C75.3489 52.658 89.6511 52.658 100 60.5V60.5Z" fill="#CE2E3A"/>
</g>
<path d="M29 60.5C29 68.5891 32.6875 76.3469 39.2513 82.0668C45.815 87.7866 54.7174 91 64 91C73.2826 91 82.185 87.7866 88.7487 82.0668C95.3125 76.3469 99 68.5891 99 60.5L81.5 47.2391L64 60.5L29 60.5Z" fill="#00479F"/>
<path d="M99 60.5C99 52.4109 95.3125 44.6531 88.7487 38.9332C82.185 33.2134 73.2826 30 64 30C54.7174 30 45.815 33.2134 39.2513 38.9332C32.6875 44.6531 29 52.4109 29 60.5V60.5C39.3489 68.342 53.6511 68.342 64 60.5V60.5V60.5C74.3489 52.658 88.6511 52.658 99 60.5V60.5Z" fill="#CE2E3A"/>
<path d="M98.6168 60.5C98.6168 77.478 83.2949 91.5 64.0584 91.5C44.8219 91.5 29.5 77.478 29.5 60.5C29.5 43.522 44.8219 29.5 64.0584 29.5C83.2949 29.5 98.6168 43.522 98.6168 60.5Z" stroke="black" stroke-width="3"/>
<rect x="43.4182" y="54.2921" width="11.4642" height="1.99378" transform="rotate(-45 43.4182 54.2921)" fill="white"/>
<rect x="40.9512" y="51.825" width="11.4642" height="1.99378" transform="rotate(-45 40.9512 51.825)" fill="white"/>
<rect x="38.4839" y="49.3579" width="11.4642" height="1.99378" transform="rotate(-45 38.4839 49.3579)" fill="white"/>
<rect x="77.0403" y="45.9343" width="11.4642" height="1.99378" transform="rotate(45 77.0403 45.9343)" fill="white"/>
<rect x="79.5073" y="43.4671" width="3.98755" height="1.99378" transform="rotate(45 79.5073 43.4671)" fill="white"/>
<rect x="84.7942" y="48.7541" width="3.98755" height="1.99378" transform="rotate(45 84.7942 48.7541)" fill="white"/>
<rect x="81.9746" y="41" width="11.4642" height="1.99378" transform="rotate(45 81.9746 41)" fill="white"/>
<rect x="85.1445" y="66.1901" width="3.98755" height="1.99378" transform="rotate(135 85.1445 66.1901)" fill="white"/>
<rect x="79.8577" y="71.4771" width="3.98755" height="1.99378" transform="rotate(135 79.8577 71.4771)" fill="white"/>
<rect x="87.6118" y="68.6578" width="3.98755" height="1.99378" transform="rotate(135 87.6118 68.6578)" fill="white"/>
<rect x="82.325" y="73.9442" width="3.98755" height="1.99378" transform="rotate(135 82.325 73.9442)" fill="white"/>
<rect x="90.0786" y="71.125" width="3.98755" height="1.99378" transform="rotate(135 90.0786 71.125)" fill="white"/>
<rect x="84.792" y="76.4113" width="3.98755" height="1.99378" transform="rotate(135 84.792 76.4113)" fill="white"/>
<rect x="39.8916" y="69.7151" width="3.98755" height="1.99378" transform="rotate(45 39.8916 69.7151)" fill="white"/>
<rect x="45.1785" y="75.0015" width="3.98755" height="1.99378" transform="rotate(45 45.1785 75.0015)" fill="white"/>
<rect x="42.3589" y="67.248" width="11.4642" height="1.99378" transform="rotate(45 42.3589 67.248)" fill="white"/>
<rect x="44.8259" y="64.7803" width="3.98755" height="1.99378" transform="rotate(45 44.8259 64.7803)" fill="white"/>
<rect x="50.1128" y="70.0672" width="3.98755" height="1.99378" transform="rotate(45 50.1128 70.0672)" fill="white"/>
<path fill-rule="evenodd" clip-rule="evenodd" d="M71.7212 51.13C71.9917 51.0149 72.2877 50.9752 72.5786 51.015C72.8694 51.0549 73.1443 51.1728 73.3748 51.3565C73.6052 51.5402 73.7827 51.783 73.8889 52.0596C73.995 52.3362 74.0259 52.6365 73.9782 52.9293L71.4957 68.1526C71.2549 69.621 69.6611 70.4631 68.329 69.7316C67.2147 69.1197 65.5597 68.1769 64.0711 67.1931C63.3267 66.7007 61.0467 65.1238 61.3269 64.0018C61.5677 63.0424 65.3988 59.4371 67.588 57.2937C68.4472 56.4515 68.0554 55.9658 67.0407 56.7404C64.5209 58.6636 60.4753 61.5883 59.1377 62.4116C57.9578 63.1375 57.3426 63.2615 56.607 63.1375C55.2651 62.9118 54.0205 62.5621 53.0047 62.1361C51.6321 61.5606 51.6989 59.6529 53.0036 59.0974L71.7212 51.13Z" fill="white"/>
<defs>
<filter id="filter0_f_1_399" x="0.4" y="0.4" width="129.2" height="120.2" filterUnits="userSpaceOnUse" color-interpolation-filters="sRGB">
<feFlood flood-opacity="0" result="BackgroundImageFix"/>
<feBlend mode="normal" in="SourceGraphic" in2="BackgroundImageFix" result="shape"/>
<feGaussianBlur stdDeviation="14.8" result="effect1_foregroundBlur_1_399"/>
</filter>
</defs>
</svg>
