<svg width="130" height="121" viewBox="0 0 130 121" fill="none" xmlns="http://www.w3.org/2000/svg">
<g filter="url(#filter0_f_1_466)">
<path d="M30 60.5C30 68.5891 33.6875 76.3469 40.2513 82.0668C46.815 87.7866 55.7174 91 65 91C74.2826 91 83.185 87.7866 89.7487 82.0668C96.3125 76.3469 100 68.5891 100 60.5L82.5 47.2391L65 60.5L30 60.5Z" fill="#00479F"/>
<path d="M100 60.5C100 52.4109 96.3125 44.6531 89.7487 38.9332C83.185 33.2134 74.2826 30 65 30C55.7174 30 46.815 33.2134 40.2513 38.9332C33.6875 44.6531 30 52.4109 30 60.5V60.5C40.3489 68.342 54.6511 68.342 65 60.5V60.5V60.5C75.3489 52.658 89.6511 52.658 100 60.5V60.5Z" fill="#CE2E3A"/>
</g>
<path d="M30.8687 60.5C30.8687 68.5891 34.5561 76.3469 41.1199 82.0668C47.6837 87.7866 56.5861 91 65.8686 91C75.1512 91 84.0536 87.7866 90.6174 82.0668C97.1812 76.3469 100.869 68.5891 100.869 60.5L83.3687 47.2391L65.8687 60.5L30.8687 60.5Z" fill="#00479F"/>
<path d="M100.869 60.5C100.869 52.4109 97.1812 44.6531 90.6174 38.9332C84.0536 33.2134 75.1512 30 65.8687 30C56.5861 30 47.6837 33.2134 41.1199 38.9332C34.5561 44.6531 30.8687 52.4109 30.8687 60.5V60.5C41.2175 68.342 55.5198 68.342 65.8687 60.5V60.5V60.5C76.2175 52.658 90.5198 52.658 100.869 60.5V60.5Z" fill="#CE2E3A"/>
<path d="M99.8504 60.5C99.8504 77.478 84.5285 91.5 65.292 91.5C46.0556 91.5 30.7336 77.478 30.7336 60.5C30.7336 43.522 46.0556 29.5 65.292 29.5C84.5285 29.5 99.8504 43.522 99.8504 60.5Z" stroke="black" stroke-width="3"/>
<rect x="44.6519" y="54.2921" width="11.4642" height="1.99378" transform="rotate(-45 44.6519 54.2921)" fill="white"/>
<rect x="42.1848" y="51.825" width="11.4642" height="1.99378" transform="rotate(-45 42.1848 51.825)" fill="white"/>
<rect x="39.7175" y="49.3579" width="11.4642" height="1.99378" transform="rotate(-45 39.7175 49.3579)" fill="white"/>
<rect x="78.2739" y="45.9343" width="11.4642" height="1.99378" transform="rotate(45 78.2739 45.9343)" fill="white"/>
<rect x="80.741" y="43.4671" width="3.98755" height="1.99378" transform="rotate(45 80.741 43.4671)" fill="white"/>
<rect x="86.0278" y="48.7541" width="3.98755" height="1.99378" transform="rotate(45 86.0278 48.7541)" fill="white"/>
<rect x="83.2083" y="41" width="11.4642" height="1.99378" transform="rotate(45 83.2083 41)" fill="white"/>
<rect x="86.3782" y="66.1901" width="3.98755" height="1.99378" transform="rotate(135 86.3782 66.1901)" fill="white"/>
<rect x="81.0913" y="71.4771" width="3.98755" height="1.99378" transform="rotate(135 81.0913 71.4771)" fill="white"/>
<rect x="88.8452" y="68.6578" width="3.98755" height="1.99378" transform="rotate(135 88.8452 68.6578)" fill="white"/>
<rect x="83.5586" y="73.9442" width="3.98755" height="1.99378" transform="rotate(135 83.5586 73.9442)" fill="white"/>
<rect x="91.3123" y="71.125" width="3.98755" height="1.99378" transform="rotate(135 91.3123 71.125)" fill="white"/>
<rect x="86.0256" y="76.4113" width="3.98755" height="1.99378" transform="rotate(135 86.0256 76.4113)" fill="white"/>
<rect x="41.1252" y="69.7151" width="3.98755" height="1.99378" transform="rotate(45 41.1252 69.7151)" fill="white"/>
<rect x="46.4119" y="75.0015" width="3.98755" height="1.99378" transform="rotate(45 46.4119 75.0015)" fill="white"/>
<rect x="43.5923" y="67.248" width="11.4642" height="1.99378" transform="rotate(45 43.5923 67.248)" fill="white"/>
<rect x="46.0596" y="64.7803" width="3.98755" height="1.99378" transform="rotate(45 46.0596 64.7803)" fill="white"/>
<rect x="51.3464" y="70.0672" width="3.98755" height="1.99378" transform="rotate(45 51.3464 70.0672)" fill="white"/>
<path d="M59.9913 51.5311C62.0162 49.5062 64.5714 49 65.5959 49V55.6616C64.7986 55.6616 64.42 56.0417 64.3303 56.2317C60.5698 54.6408 58.6655 51.5914 58.1833 50.2656C58.6173 50.8441 59.5694 51.3503 59.9913 51.5311Z" fill="white"/>
<path d="M71.0671 51.5311C69.0422 49.5062 66.487 49 65.4625 49V55.6616C66.2597 55.6616 66.6384 56.0417 66.728 56.2317C70.4885 54.6408 72.3929 51.5914 72.875 50.2656C72.4411 50.8441 71.4889 51.3503 71.0671 51.5311Z" fill="white"/>
<path d="M61.1667 55.7174C61.737 56.1474 63.0206 57.0579 63.5925 57.2598C62.5035 57.601 60.4936 57.7702 61.1667 55.7174Z" fill="white"/>
<path d="M60.1432 54.8201C59.7843 54.5509 59.1617 53.689 58.8953 53.2917C57.8598 54.3273 57.7473 56.3686 57.8204 57.2598C57.8204 63.9874 56.563 67.1302 55.9343 67.8607L58.5979 65.8256L60.4013 68.8037L62.4987 66.9801L65.5376 72.0466V70.3771L64.5372 66.9801C63.7182 63.3691 61.1917 61.7622 60.0309 61.4101L62.4987 60.008L62.5828 58.8442C59.2513 58.8442 59.5683 56.1614 60.1432 54.8201Z" fill="white"/>
<path d="M69.8909 55.7174C69.3207 56.1474 68.0371 57.0579 67.4651 57.2598C68.5542 57.601 70.564 57.7702 69.8909 55.7174Z" fill="white"/>
<path d="M70.9144 54.8201C71.2733 54.5509 71.8959 53.689 72.1623 53.2917C73.1978 54.3273 73.3104 56.3686 73.2372 57.2598C73.2372 63.9874 74.4946 67.1302 75.1233 67.8607L72.4597 65.8256L70.6563 68.8037L68.5589 66.9801L65.52 72.0466V70.3771L66.5205 66.9801C67.3395 63.3691 69.8659 61.7622 71.0267 61.4101L68.5589 60.008L68.4748 58.8442C71.8063 58.8442 71.4893 56.1614 70.9144 54.8201Z" fill="white"/>
<path d="M63.9062 59.1931C63.9062 57.8632 65.0401 57.2085 65.6071 57.0475V66.326C65.6071 63.8981 63.6226 62.054 62.6304 61.4354L63.9062 60.6429V59.1931Z" fill="white"/>
<path d="M67.3048 59.1931C67.3048 57.8632 66.1708 57.2085 65.6038 57.0475V66.326C65.6038 63.8981 67.5883 62.054 68.5806 61.4354L67.3048 60.6429V59.1931Z" fill="white"/>
<defs>
<filter id="filter0_f_1_466" x="0.4" y="0.4" width="129.2" height="120.2" filterUnits="userSpaceOnUse" color-interpolation-filters="sRGB">
<feFlood flood-opacity="0" result="BackgroundImageFix"/>
<feBlend mode="normal" in="SourceGraphic" in2="BackgroundImageFix" result="shape"/>
<feGaussianBlur stdDeviation="14.8" result="effect1_foregroundBlur_1_466"/>
</filter>
</defs>
</svg>
