<svg width="130" height="121" viewBox="0 0 130 121" fill="none" xmlns="http://www.w3.org/2000/svg">
<g filter="url(#filter0_f_1_432)">
<path d="M29.9341 60.5C29.9341 68.5891 33.6216 76.3469 40.1853 82.0668C46.7491 87.7866 55.6515 91 64.9341 91C74.2167 91 83.119 87.7866 89.6828 82.0668C96.2466 76.3469 99.9341 68.5891 99.9341 60.5L82.4341 47.2391L64.9341 60.5L29.9341 60.5Z" fill="#00479F"/>
<path d="M99.9341 60.5C99.9341 52.4109 96.2466 44.6531 89.6828 38.9332C83.119 33.2134 74.2167 30 64.9341 30C55.6515 30 46.7491 33.2134 40.1853 38.9332C33.6216 44.6531 29.9341 52.4109 29.9341 60.5V60.5C40.283 68.342 54.5852 68.342 64.9341 60.5V60.5V60.5C75.283 52.658 89.5852 52.658 99.9341 60.5V60.5Z" fill="#CE2E3A"/>
</g>
<path d="M29.9341 60.5C29.9341 68.5891 33.6216 76.3469 40.1853 82.0668C46.7491 87.7866 55.6515 91 64.9341 91C74.2167 91 83.119 87.7866 89.6828 82.0668C96.2466 76.3469 99.9341 68.5891 99.9341 60.5L82.4341 47.2391L64.9341 60.5L29.9341 60.5Z" fill="#00479F"/>
<path d="M99.9341 60.5C99.9341 52.4109 96.2466 44.6531 89.6828 38.9332C83.119 33.2134 74.2167 30 64.9341 30C55.6515 30 46.7491 33.2134 40.1853 38.9332C33.6216 44.6531 29.9341 52.4109 29.9341 60.5V60.5C40.283 68.342 54.5852 68.342 64.9341 60.5V60.5V60.5C75.283 52.658 89.5852 52.658 99.9341 60.5V60.5Z" fill="#CE2E3A"/>
<path d="M99.7335 60.5C99.7335 77.478 84.4116 91.5 65.1751 91.5C45.9386 91.5 30.6167 77.478 30.6167 60.5C30.6167 43.522 45.9386 29.5 65.1751 29.5C84.4116 29.5 99.7335 43.522 99.7335 60.5Z" stroke="black" stroke-width="3"/>
<rect x="44.5349" y="54.2921" width="11.4642" height="1.99378" transform="rotate(-45 44.5349 54.2921)" fill="white"/>
<rect x="42.0676" y="51.825" width="11.4642" height="1.99378" transform="rotate(-45 42.0676 51.825)" fill="white"/>
<rect x="39.6006" y="49.3579" width="11.4642" height="1.99378" transform="rotate(-45 39.6006 49.3579)" fill="white"/>
<rect x="78.157" y="45.9343" width="11.4642" height="1.99378" transform="rotate(45 78.157 45.9343)" fill="white"/>
<rect x="80.6243" y="43.4671" width="3.98755" height="1.99378" transform="rotate(45 80.6243 43.4671)" fill="white"/>
<rect x="85.9109" y="48.7541" width="3.98755" height="1.99378" transform="rotate(45 85.9109 48.7541)" fill="white"/>
<rect x="83.0913" y="41" width="11.4642" height="1.99378" transform="rotate(45 83.0913 41)" fill="white"/>
<rect x="86.2612" y="66.1901" width="3.98755" height="1.99378" transform="rotate(135 86.2612 66.1901)" fill="white"/>
<rect x="80.9744" y="71.4771" width="3.98755" height="1.99378" transform="rotate(135 80.9744 71.4771)" fill="white"/>
<rect x="88.7283" y="68.6578" width="3.98755" height="1.99378" transform="rotate(135 88.7283 68.6578)" fill="white"/>
<rect x="83.4417" y="73.9442" width="3.98755" height="1.99378" transform="rotate(135 83.4417 73.9442)" fill="white"/>
<rect x="91.1953" y="71.125" width="3.98755" height="1.99378" transform="rotate(135 91.1953 71.125)" fill="white"/>
<rect x="85.9087" y="76.4113" width="3.98755" height="1.99378" transform="rotate(135 85.9087 76.4113)" fill="white"/>
<rect x="41.0083" y="69.7151" width="3.98755" height="1.99378" transform="rotate(45 41.0083 69.7151)" fill="white"/>
<rect x="46.2949" y="75.0015" width="3.98755" height="1.99378" transform="rotate(45 46.2949 75.0015)" fill="white"/>
<rect x="43.4753" y="67.248" width="11.4642" height="1.99378" transform="rotate(45 43.4753 67.248)" fill="white"/>
<rect x="45.9426" y="64.7803" width="3.98755" height="1.99378" transform="rotate(45 45.9426 64.7803)" fill="white"/>
<rect x="51.2295" y="70.0672" width="3.98755" height="1.99378" transform="rotate(45 51.2295 70.0672)" fill="white"/>
<path d="M61.6159 51H54.9341L62.8186 61.4643L55.3636 70H57.8932L63.9908 63.0184L69.2523 70H75.9341L67.7174 59.0959L74.7886 51H72.2591L66.5452 57.5417L61.6159 51ZM70.2068 68.1L58.7523 52.9H60.6614L72.1159 68.1H70.2068Z" fill="white"/>
<defs>
<filter id="filter0_f_1_432" x="0.334082" y="0.4" width="129.2" height="120.2" filterUnits="userSpaceOnUse" color-interpolation-filters="sRGB">
<feFlood flood-opacity="0" result="BackgroundImageFix"/>
<feBlend mode="normal" in="SourceGraphic" in2="BackgroundImageFix" result="shape"/>
<feGaussianBlur stdDeviation="14.8" result="effect1_foregroundBlur_1_432"/>
</filter>
</defs>
</svg>
