<svg width="170" height="54" viewBox="0 0 170 54" fill="none" xmlns="http://www.w3.org/2000/svg">
<path d="M150.686 0H18.8138C8.42325 0 0 8.4232 0 18.8138V34.8833C0 45.2738 8.42325 53.6971 18.8138 53.6971H150.686C161.077 53.6971 169.5 45.2738 169.5 34.8833V18.8138C169.5 8.4232 161.077 0 150.686 0Z" fill="#FBC03D"/>
<path d="M23.3469 40.2211C21.619 40.2211 20.2054 39.5535 19.1059 38.2184C18.0063 36.8833 17.4566 34.8675 17.4566 32.1711C17.4566 30.6789 17.6398 29.1081 18.0063 27.4588C18.3728 25.8096 18.8833 24.1865 19.5378 22.5896C20.1923 20.9926 20.9515 19.5135 21.8154 18.1522C23.2029 15.9532 24.7998 14.1599 26.6061 12.7724C28.4125 11.3849 30.3105 10.6912 32.3001 10.6912C33.8708 10.6912 35.075 11.097 35.9128 11.9085C36.7767 12.6939 37.3788 13.7149 37.7191 14.9715C38.0594 16.2019 38.2296 17.4847 38.2296 18.8198C38.2296 21.9351 37.7453 24.8409 36.7767 27.5374C35.8342 30.2076 34.6038 32.4721 33.0854 34.3308C31.5671 36.2419 29.944 37.7079 28.2161 38.7289C26.5145 39.7237 24.8914 40.2211 23.3469 40.2211ZM25.4673 33.7418C26.6454 33.7418 27.6795 33.3491 28.5696 32.5637C29.4858 31.7784 30.2581 30.7836 30.8864 29.5793C31.5147 28.3489 31.9859 27.0662 32.3001 25.731C32.6142 24.3959 32.7713 23.1917 32.7713 22.1183C32.7713 21.6995 32.732 21.2544 32.6535 20.7832C32.5749 20.2858 32.4048 19.8538 32.143 19.4873C31.8812 19.1208 31.4754 18.9376 30.9257 18.9376C29.7214 18.9376 28.635 19.3826 27.6664 20.2727C26.6978 21.1366 25.8862 22.2361 25.2317 23.5713C24.5773 24.9326 24.093 26.2677 23.7788 27.5767C23.4647 28.8856 23.3076 30.0767 23.3076 31.1501C23.3076 31.6998 23.5039 32.2758 23.8966 32.8779C24.2893 33.4538 24.8129 33.7418 25.4673 33.7418ZM35.4873 40.1033C36.2726 36.5691 37.0187 33.1135 37.7256 29.7364C38.0135 28.3751 38.3015 26.9222 38.5895 25.3776C38.9036 23.8069 39.2178 22.223 39.5319 20.6261C39.8461 19.0292 40.134 17.5239 40.3958 16.1103C40.6576 14.6704 40.867 13.4138 41.0241 12.3405C42.0713 12.0263 43.197 11.7384 44.4012 11.4766C45.6316 11.2148 46.7311 11.0839 47.6997 11.0839C49.2705 11.0839 50.514 11.4242 51.4303 12.1049C52.3465 12.7593 53.001 13.6494 53.3937 14.7751C53.7864 15.9008 53.9827 17.1312 53.9827 18.4664C53.9827 19.9324 53.7078 21.3461 53.1581 22.7074C52.6345 24.0425 51.9146 25.2467 50.9983 26.3201C50.1082 27.3934 49.0741 28.2442 47.8961 28.8725C46.7442 29.5008 45.54 29.815 44.2834 29.815H43.8514C43.642 30.705 43.4457 31.6737 43.2624 32.7208C43.0792 33.768 42.9221 34.7366 42.7912 35.6267C42.6865 36.1503 42.5948 36.6738 42.5163 37.1974C42.4378 37.721 42.3592 38.2446 42.2807 38.7682L35.4873 40.1033ZM44.6368 25.6918C45.2389 25.5347 45.841 25.142 46.4432 24.5137C47.0453 23.8592 47.5427 23.0346 47.9354 22.0398C48.328 21.045 48.5244 19.9586 48.5244 18.7805C48.5244 17.8119 48.3019 17.0789 47.8568 16.5815C47.438 16.0841 46.9667 15.8354 46.4432 15.8354C46.1552 17.5632 45.8672 19.1994 45.5793 20.7439C45.2913 22.2885 44.9771 23.9378 44.6368 25.6918ZM50.7983 40.1033L55.9424 12.1834L68.3513 11.1232C68.168 11.6991 68.011 12.2881 67.8801 12.8902C67.7492 13.3876 67.6183 13.9112 67.4874 14.461C67.3827 14.9846 67.291 15.4558 67.2125 15.8746C66.8722 15.9008 66.3879 15.927 65.7596 15.9532C65.1313 15.9532 64.4899 15.9663 63.8354 15.9924C63.1809 15.9924 62.6181 15.9924 62.1469 15.9924C61.6756 15.9924 61.4269 15.9924 61.4008 15.9924L60.0264 23.0215L62.3039 22.9037C62.5919 22.8775 62.8799 22.8644 63.1678 22.8644C63.482 22.8644 63.7831 22.8644 64.071 22.8644C64.359 22.8644 64.6208 22.8644 64.8564 22.8644C65.092 22.8644 65.2753 22.8513 65.4062 22.8252C65.3538 23.1917 65.3014 23.5582 65.2491 23.9247C65.2229 24.265 65.1836 24.6184 65.1313 24.9849L64.7779 27.1447C64.647 27.1709 64.4768 27.184 64.2674 27.184C64.0579 27.184 63.8092 27.184 63.5213 27.184C63.2333 27.2101 62.9322 27.2232 62.6181 27.2232C62.3039 27.2232 62.0029 27.2363 61.7149 27.2625C61.3746 27.2887 61.0212 27.3018 60.6547 27.3018C60.2882 27.3018 59.8955 27.3149 59.4766 27.341L58.1415 34.5664L63.8747 33.6633L63.482 38.1399L50.7983 40.1033ZM64.1032 40.2604C64.4697 38.4017 64.8232 36.5822 65.1635 34.8021C65.53 32.9957 65.8834 31.2155 66.2237 29.4615C66.5902 27.4196 66.9567 25.3514 67.3232 23.2571C67.7159 21.1628 68.0693 19.1208 68.3835 17.1312C68.7238 15.1416 68.9856 13.296 69.1689 11.5944C69.5877 11.5682 69.9935 11.542 70.3862 11.5158C70.7789 11.4897 71.1585 11.4635 71.525 11.4373C71.8653 11.4111 72.2056 11.3849 72.546 11.3588C72.9125 11.3326 73.2659 11.3064 73.6062 11.2802L75.4911 11.1624C75.6743 12.1572 75.8314 13.1389 75.9623 14.1076C76.1194 15.0762 76.2634 16.0186 76.3943 16.9349C76.499 17.5632 76.6168 18.2962 76.7477 19.1339C76.9048 19.9717 77.0487 20.8356 77.1796 21.7256C77.3367 22.5896 77.4807 23.4011 77.6116 24.1603C77.7687 24.9195 77.8996 25.5347 78.0043 26.0059C78.2661 24.6184 78.4755 23.4796 78.6326 22.5896C78.8158 21.6733 78.986 20.7963 79.1431 19.9586C79.3263 19.0947 79.5357 18.0868 79.7714 16.9349L80.9887 11.2017L85.7794 10.6127C85.3344 12.5761 84.9155 14.4872 84.5228 16.3459C84.1302 18.2046 83.7637 20.0109 83.4233 21.7649C82.7688 24.9326 82.1929 27.9039 81.6955 30.6789C81.1981 33.4277 80.8185 35.8361 80.5567 37.9043L74.156 39.3965L73.5669 33.3491C73.5146 32.747 73.436 32.0271 73.3313 31.1894C73.2266 30.3254 73.1219 29.4484 73.0172 28.5584C72.9125 27.6421 72.8077 26.8175 72.703 26.0844C72.5983 25.3253 72.5198 24.7624 72.4674 24.3959C72.2056 25.9405 71.9569 27.4458 71.7213 28.9118C71.4857 30.3516 71.2239 31.7522 70.9359 33.1135C70.7527 34.0298 70.5694 34.9853 70.3862 35.9801C70.2291 36.9487 70.0459 37.9304 69.8364 38.9252L64.1032 40.2604ZM89.802 40.1426C90.09 38.0744 90.391 35.9932 90.7052 33.8989C91.0455 31.8046 91.3858 29.7888 91.7261 27.8515C92.0927 25.8881 92.433 24.121 92.7471 22.5503C93.0875 20.8487 93.4278 19.1208 93.7681 17.3668C94.1084 15.6129 94.4619 13.8458 94.8284 12.0656L101.7 11.1624L99.6584 20.0371C99.2919 21.5817 98.9123 23.244 98.5196 25.0242C98.1531 26.7782 97.8128 28.4798 97.4986 30.1291C97.1845 31.7784 96.9358 33.2444 96.7525 34.5272C97.407 34.4748 98.1007 34.4486 98.8337 34.4486C99.5929 34.4225 100.26 34.4094 100.836 34.4094C100.863 35.0115 100.915 35.6529 100.994 36.3335C101.072 36.988 101.151 37.5639 101.229 38.0613C101.334 38.5326 101.386 38.7943 101.386 38.8467C101.281 38.8467 101.177 38.8467 101.072 38.8467C100.994 38.8467 100.902 38.8336 100.797 38.8074H100.169C99.1479 38.8074 98.0091 38.8598 96.7525 38.9645C95.5221 39.043 94.2917 39.187 93.0613 39.3965C91.857 39.5797 90.7706 39.8284 89.802 40.1426ZM100.945 40.0248C101.39 38.4802 101.822 36.7262 102.241 34.7628C102.686 32.7994 103.104 30.7967 103.497 28.7547C103.916 26.6866 104.309 24.7362 104.675 22.9037C105.016 21.2282 105.343 19.5266 105.657 17.7988C105.971 16.071 106.285 14.3301 106.599 12.5761L112.725 11.5944C112.385 13.3484 112.045 15.0893 111.704 16.8171C111.364 18.5187 111.024 20.2204 110.683 21.922C110.317 23.7545 109.937 25.6918 109.545 27.7337C109.152 29.7757 108.772 31.7915 108.406 33.7811C108.039 35.7445 107.699 37.577 107.385 39.2787C106.914 39.2787 106.325 39.3179 105.618 39.3965C104.911 39.4488 104.204 39.5274 103.497 39.6321C102.79 39.7106 102.188 39.7891 101.691 39.8677C101.22 39.9462 100.971 39.9986 100.945 40.0248ZM109.277 40.2604C109.644 38.4017 109.997 36.5822 110.338 34.8021C110.704 32.9957 111.057 31.2155 111.398 29.4615C111.764 27.4196 112.131 25.3514 112.497 23.2571C112.89 21.1628 113.243 19.1208 113.558 17.1312C113.898 15.1416 114.16 13.296 114.343 11.5944C114.762 11.5682 115.168 11.542 115.56 11.5158C115.953 11.4897 116.333 11.4635 116.699 11.4373C117.039 11.4111 117.38 11.3849 117.72 11.3588C118.087 11.3326 118.44 11.3064 118.78 11.2802L120.665 11.1624C120.848 12.1572 121.006 13.1389 121.136 14.1076C121.293 15.0762 121.437 16.0186 121.568 16.9349C121.673 17.5632 121.791 18.2962 121.922 19.1339C122.079 19.9717 122.223 20.8356 122.354 21.7256C122.511 22.5896 122.655 23.4011 122.786 24.1603C122.943 24.9195 123.074 25.5347 123.178 26.0059C123.44 24.6184 123.65 23.4796 123.807 22.5896C123.99 21.6733 124.16 20.7963 124.317 19.9586C124.5 19.0947 124.71 18.0868 124.945 16.9349L126.163 11.2017L130.954 10.6127C130.508 12.5761 130.09 14.4872 129.697 16.3459C129.304 18.2046 128.938 20.0109 128.597 21.7649C127.943 24.9326 127.367 27.9039 126.87 30.6789C126.372 33.4277 125.993 35.8361 125.731 37.9043L119.33 39.3965L118.741 33.3491C118.689 32.747 118.61 32.0271 118.505 31.1894C118.401 30.3254 118.296 29.4484 118.191 28.5584C118.087 27.6421 117.982 26.8175 117.877 26.0844C117.772 25.3253 117.694 24.7624 117.642 24.3959C117.38 25.9405 117.131 27.4458 116.895 28.9118C116.66 30.3516 116.398 31.7522 116.11 33.1135C115.927 34.0298 115.744 34.9853 115.56 35.9801C115.403 36.9487 115.22 37.9304 115.011 38.9252L109.277 40.2604ZM127.11 40.1033C127.503 38.2708 127.882 36.4644 128.249 34.6842C128.615 32.9041 128.969 31.1501 129.309 29.4223C129.859 26.307 130.396 23.2309 130.919 20.1942C131.443 17.1312 131.822 14.2123 132.058 11.4373L134.1 11.5551C134.466 11.5813 134.82 11.6075 135.16 11.6336C135.527 11.6598 135.88 11.686 136.22 11.7122C136.613 11.7384 137.006 11.7645 137.398 11.7907C137.791 11.7907 138.184 11.7907 138.577 11.7907C138.524 12.0002 138.433 12.419 138.302 13.0473C138.197 13.6756 138.079 14.317 137.948 14.9715C137.843 15.5998 137.765 16.0317 137.713 16.2673L137.006 20.1549L137.241 20.1156C138.001 18.9376 138.878 17.5763 139.872 16.0317C140.867 14.4872 141.797 13.008 142.66 11.5944C143.969 11.4897 145.278 11.3719 146.587 11.241C147.896 11.1101 149.205 10.9399 150.514 10.7305C149.912 11.542 149.31 12.3536 148.708 13.1651C148.106 13.9767 147.517 14.7882 146.941 15.5998C146.339 16.4375 145.684 17.3538 144.977 18.3486C144.27 19.3434 143.59 20.3251 142.935 21.2937C142.307 22.2361 141.783 23.0477 141.365 23.7283C141.653 25.0373 141.967 26.3331 142.307 27.6159C142.647 28.8987 143.014 30.1553 143.407 31.3857C143.799 32.6161 144.192 33.8596 144.585 35.1162C144.977 36.3728 145.383 37.6425 145.802 38.9252C145.2 38.8991 144.585 38.886 143.956 38.886C143.328 38.8598 142.713 38.8467 142.111 38.8467C141.351 38.8467 140.618 38.8598 139.912 38.886C139.205 38.886 138.472 38.8991 137.713 38.9252C137.608 38.0875 137.49 37.2236 137.359 36.3335C137.228 35.4173 137.097 34.4879 136.967 33.5455C136.836 32.6292 136.705 31.726 136.574 30.8359C136.443 29.9197 136.312 29.0427 136.181 28.2049L135.474 29.0296C135.291 29.7888 135.095 30.7574 134.885 31.9355C134.781 32.5114 134.663 33.0873 134.532 33.6633C134.427 34.213 134.322 34.7497 134.218 35.2733C134.113 35.9016 133.995 36.543 133.864 37.1974C133.733 37.8257 133.603 38.4802 133.472 39.1609L127.11 40.1033Z" fill="#12151E"/>
</svg>
