<svg width="59" height="58" viewBox="0 0 59 58" fill="none" xmlns="http://www.w3.org/2000/svg">
<path d="M58.053 29.2754C58.053 45.062 45.2652 57.8497 29.4785 57.8497C13.6919 57.8497 0.904297 45.062 0.904297 29.2754C0.904297 13.4888 13.6919 0.70105 29.4785 0.70105C45.2652 0.70105 58.053 13.4888 58.053 29.2754Z" fill="#E24040"/>
<path d="M22.5026 16.0569C25.488 12.8255 29.0584 12.0177 30.5688 12.0177C32.0793 12.0177 35.8466 12.8255 38.8321 16.0569C39.454 15.7684 40.8579 14.9605 41.4976 14.0373C40.7868 16.153 37.9791 21.0193 32.4347 23.5582C32.3025 23.2549 31.7443 22.6484 30.5688 22.6484C29.3934 22.6484 29.0321 23.2549 28.8999 23.5582C23.3555 21.0193 20.5478 16.153 19.837 14.0373C20.4767 14.9605 21.8806 15.7684 22.5026 16.0569Z" fill="black"/>
<path d="M24.2354 22.7383C25.0762 23.4244 26.9687 24.8774 27.812 25.1996C26.2063 25.744 23.243 26.014 24.2354 22.7383Z" fill="black"/>
<path d="M20.8866 18.8673C21.2794 19.5013 22.1973 20.8766 22.7265 21.3062C21.8788 23.4468 21.4115 27.728 26.3233 27.728L26.1992 29.5852L22.5609 31.8227C24.2724 32.3845 27.9972 34.9488 29.2047 40.7114L30.6536 46.1324L32.1287 40.7114C33.3362 34.9488 37.061 32.3845 38.7725 31.8227L35.1341 29.5852L35.0101 27.728C39.9219 27.728 39.4546 23.4468 38.6069 21.3062C39.1361 20.8766 40.054 19.5013 40.4468 18.8673C41.9736 20.5199 42.1395 23.7774 42.0316 25.1996C42.0316 35.9355 43.8855 40.9509 44.8124 42.1166L40.8853 38.869L38.2265 43.6216L35.1341 40.7114L30.6536 48.7965L26.1992 40.7114L23.1069 43.6216L20.448 38.869L16.521 42.1166C17.4479 40.9509 19.3018 35.9355 19.3018 25.1996C19.1939 23.7774 19.3598 20.5199 20.8866 18.8673Z" fill="black"/>
<path d="M37.098 22.7383C36.2572 23.4244 34.3647 24.8774 33.5214 25.1996C35.1271 25.744 38.0904 26.014 37.098 22.7383Z" fill="black"/>
<path d="M28.2742 28.2848C28.2742 26.1625 29.9411 25.1178 30.777 24.8608C31.613 25.1178 33.2848 26.1625 33.2848 28.2848V30.5984L35.1658 31.8631C33.7029 32.8503 30.782 35.7931 30.782 39.6676C30.782 35.7931 27.8561 32.8503 26.3932 31.8631L28.2742 30.5984V28.2848Z" fill="black"/>
</svg>
