<svg width="58" height="58" viewBox="0 0 58 58" fill="none" xmlns="http://www.w3.org/2000/svg">
<path d="M57.8309 29.2754C57.8309 45.062 45.0431 57.8497 29.2565 57.8497C13.4699 57.8497 0.682129 45.062 0.682129 29.2754C0.682129 13.4888 13.4699 0.70105 29.2565 0.70105C45.0431 0.70105 57.8309 13.4888 57.8309 29.2754Z" fill="#E24040"/>
<path fill-rule="evenodd" clip-rule="evenodd" d="M39.896 17.8501C40.2786 17.6959 40.6975 17.6427 41.1088 17.696C41.5202 17.7494 41.9091 17.9074 42.2351 18.1536C42.5611 18.3998 42.8122 18.7252 42.9624 19.0959C43.1125 19.4666 43.1562 19.8691 43.0888 20.2614L39.577 40.6624C39.2364 42.6302 36.982 43.7588 35.0976 42.7785C33.5213 41.9585 31.1802 40.695 29.0744 39.3766C28.0215 38.7167 24.7962 36.6035 25.1926 35.0998C25.5332 33.8141 30.9526 28.9826 34.0493 26.1101C35.2648 24.9816 34.7105 24.3306 33.2751 25.3687C29.7108 27.946 23.988 31.8655 22.0958 32.9688C20.4267 33.9416 19.5565 34.1077 18.516 33.9416C16.6177 33.6391 14.8572 33.1705 13.4203 32.5996C11.4786 31.8284 11.573 29.2718 13.4187 28.5274L39.896 17.8501Z" fill="black"/>
</svg>
