<svg width="58" height="58" viewBox="0 0 58 58" fill="none" xmlns="http://www.w3.org/2000/svg">
<path d="M57.6638 29.2754C57.6638 45.062 44.8762 57.8497 29.0896 57.8497C13.303 57.8497 0.515137 45.062 0.515137 29.2754C0.515137 13.4888 13.303 0.70105 29.0896 0.70105C44.8762 0.70105 57.6638 13.4888 57.6638 29.2754Z" fill="#E24040"/>
<path fill-rule="evenodd" clip-rule="evenodd" d="M25.6069 13.7774C23.6689 14.7432 22.0834 15.5604 22.0837 15.5936C22.0846 15.6794 26.7349 17.9324 26.8999 17.9269C26.975 17.9245 27.5197 17.6846 28.1102 17.3939L29.1841 16.8655L31.5298 18.0191L33.4504 17.1935C36.3445 15.9494 36.6451 15.8131 36.598 15.7673C36.5354 15.7065 35.4974 15.173 32.6811 13.7547C31.3201 13.0692 29.999 12.397 29.7454 12.261C29.4919 12.125 29.2498 12.0156 29.2075 12.0177C29.1652 12.0198 27.5449 12.8117 25.6069 13.7774ZM17.107 17.9881L15.0896 18.9849L15.0896 23.36C15.0896 25.7663 15.1161 27.735 15.1486 27.735C15.1809 27.735 16.1735 27.3234 17.3542 26.8203L19.5009 25.9056V21.2941L20.55 21.8408C21.3583 22.2617 22.1672 22.6818 22.9765 23.101L24.354 23.8145L24.967 23.5494C25.3514 23.3828 25.7351 23.2146 26.1179 23.0448C26.4138 22.913 27.1401 22.6001 27.7318 22.3493C28.3236 22.0984 28.8714 21.8461 28.949 21.7886C29.0522 21.7122 27.794 21.0471 24.2954 19.3284C21.6582 18.0328 19.4158 16.977 19.3124 16.982C19.209 16.9871 18.2166 17.4397 17.107 17.9881ZM36.9615 18.268C35.5876 18.8614 34.4624 19.3706 34.4612 19.3996C34.46 19.4286 35.2088 19.8546 36.1254 20.3461C37.0419 20.8376 37.7918 21.2661 37.7918 21.2984C37.7918 21.3306 36.9808 21.7065 35.9897 22.1339C34.9984 22.5612 32.4928 23.6437 30.4217 24.5394L23.4819 27.5402C21.7362 28.2951 20.1626 28.9756 19.9851 29.0525C16.4194 30.5967 15.4394 31.0251 15.3048 31.0987C15.1694 31.1727 15.1388 31.6029 15.1147 33.7621L15.0859 36.3373L18.694 38.096L21.1955 37.016C22.5714 36.422 23.6971 35.9049 23.6971 35.8668C23.6971 35.8289 23.4428 35.6704 23.1322 35.5145C22.8215 35.3587 22.18 35.0137 21.7066 34.7477C21.2332 34.4817 20.7612 34.2376 20.6575 34.2053C20.5539 34.173 20.4707 34.1165 20.4724 34.0797C20.4741 34.043 21.5757 33.5424 22.9201 32.9673C25.5315 31.8504 27.53 30.9895 31.8204 29.1334C33.7389 28.3036 35.6576 27.4744 37.5766 26.6456C39.2632 25.9173 41.2241 25.0668 41.9342 24.7555L43.2253 24.1896L43.2829 18.9806L41.4531 18.0822C40.4467 17.5881 39.5865 17.185 39.5414 17.1865C39.4963 17.1879 38.3354 17.6745 36.9615 18.268ZM42.7351 27.6642C42.4655 27.7902 41.9329 28.0261 41.5516 28.1884C41.1703 28.3506 40.4467 28.663 39.9437 28.8825L39.0291 29.2816L39.0083 31.5681C38.9968 32.8257 38.9484 33.849 38.9007 33.8424C38.7925 33.827 37.0784 32.9861 35.3554 32.1028C34.1118 31.4655 34.0337 31.4401 33.7415 31.5786C33.5725 31.6586 32.5628 32.0919 31.4976 32.5414C30.4324 32.9909 29.5262 33.3881 29.4836 33.424C29.4411 33.4599 31.5849 34.5715 34.2477 35.8943L39.0891 38.2993L41.1573 37.2758C42.2946 36.713 43.2618 36.1996 43.3063 36.135C43.4066 35.9899 43.398 27.4152 43.2976 27.4268C43.2579 27.4313 43.0047 27.5382 42.7351 27.6642ZM31.2824 37.7287C30.9237 37.8762 30.565 38.024 30.2065 38.172C29.1238 38.6201 29.336 38.6349 28.0478 38.0215C27.1899 37.6129 26.8201 37.4869 26.6596 37.5481C26.5392 37.5939 25.5029 38.0399 24.3566 38.5391C23.2104 39.0383 22.2328 39.4467 22.1842 39.4467C21.7033 39.4467 22.5028 39.9037 25.5879 41.3924L29.2061 43.1382L30.7284 42.4193C31.5657 42.0238 33.2545 41.232 34.4814 40.6596C35.7082 40.0871 36.6967 39.6038 36.6783 39.5856C36.6596 39.5674 35.6317 39.0625 34.3938 38.4635L32.1432 37.3745L31.2824 37.7287Z" fill="black"/>
</svg>
