<svg width="35" height="40" viewBox="0 0 35 40" fill="none" xmlns="http://www.w3.org/2000/svg">
<path fill-rule="evenodd" clip-rule="evenodd" d="M33.2212 14.7696L34.9999 13.7426V29.5075L17.9645 39.3433L0.929199 29.5075V9.83582L17.9645 0L31.4637 7.80302L29.6955 8.81942L17.9645 2.04339L2.69732 10.8628V28.4911L17.9645 37.2999L33.2212 28.4911V14.7696ZM21.7867 19.0153C21.2256 19.587 20.4527 19.9152 19.648 19.9258H11.1357V28.4911H13.6873V22.5091H18.7905C19.828 22.5197 20.855 22.3715 21.8397 22.0539C22.8349 21.6304 23.6925 20.9316 24.296 20.0422C24.9524 19.1105 25.3018 17.9989 25.2912 16.8554C25.2806 15.3731 24.6877 13.9438 23.629 12.8851C22.5808 11.8263 21.1515 11.2334 19.6586 11.2228H11.1357V13.8274H19.648C20.0504 13.8274 20.4421 13.9015 20.8127 14.0603C21.1727 14.2191 21.5115 14.4414 21.7867 14.7273C22.0726 15.0026 22.2949 15.3308 22.4537 15.7014C22.602 16.0719 22.6761 16.4637 22.6761 16.866C22.6761 17.6706 22.3585 18.4435 21.7867 19.0153ZM22.2628 28.2793L19.9653 24.2666C20.8759 24.2137 21.7758 24.0231 22.6334 23.7267L25.2379 28.2793H22.2628ZM33.2105 12.8956L31.4424 11.9109H31.453V9.85696L33.2105 8.84055L34.9681 9.85696V11.9215L33.2105 12.8956Z" fill="white"/>
</svg>
