<svg width="41" height="33" viewBox="0 0 41 33" fill="none" xmlns="http://www.w3.org/2000/svg">
<path fill-rule="evenodd" clip-rule="evenodd" d="M36.4433 0.597258C36.9389 0.399812 37.4815 0.331714 38.0144 0.400052C38.5473 0.468389 39.0511 0.670664 39.4734 0.985823C39.8957 1.30098 40.221 1.7175 40.4155 2.19203C40.61 2.66656 40.6665 3.18175 40.5793 3.68398L36.0301 29.7996C35.5888 32.3187 32.6683 33.7634 30.2272 32.5086C28.1853 31.4588 25.1525 29.8414 22.4246 28.1538C21.0607 27.309 16.8825 24.6038 17.396 22.6789C17.8373 21.033 24.8577 14.8482 28.8693 11.1711C30.4439 9.72644 29.7258 8.89306 27.8664 10.2219C23.249 13.5212 15.8355 18.5386 13.3844 19.951C11.2221 21.1963 10.0949 21.4089 8.74694 21.1963C6.28781 20.809 4.0072 20.2091 2.1458 19.4783C-0.369492 18.4911 -0.247137 15.2184 2.1438 14.2654L36.4433 0.597258Z" fill="white"/>
</svg>
