<svg width="428" height="185" viewBox="0 0 428 185" fill="none" xmlns="http://www.w3.org/2000/svg">
<rect x="427.959" width="184.683" height="427.959" rx="44" transform="rotate(90 427.959 0)" fill="#F28B51"/>
<path d="M70.7922 140V40.5058H115.422C126.888 40.5058 135.558 43.4432 141.433 49.3181C145.887 53.7717 148.113 59.3623 148.113 66.09C148.113 75.9447 143.376 83.3357 133.9 88.263C147.071 92.7166 153.657 100.866 153.657 112.71C153.657 121.428 150.34 128.155 143.707 132.893C137.074 137.631 128.12 140 116.844 140H70.7922ZM87.9905 82.4355H111.869C117.649 82.4355 122.198 81.2984 125.514 79.0243C128.925 76.6554 130.631 73.1967 130.631 68.6484C130.631 64.6687 129.115 61.5891 126.083 59.4097C123.05 57.1355 118.739 55.9985 113.148 55.9985H87.9905V82.4355ZM87.9905 124.507H116.986C123.05 124.507 127.741 123.323 131.057 120.954C134.468 118.585 136.174 115.126 136.174 110.578C136.174 101.671 129.352 97.2175 115.707 97.2175H87.9905V124.507ZM214.16 141.563C200.989 141.563 190.613 137.821 183.033 130.335C175.547 122.849 171.804 111.999 171.804 97.786V40.5058H189.287V97.0754C189.287 106.172 191.514 113.184 195.967 118.111C200.421 123.039 206.58 125.502 214.445 125.502C222.309 125.502 228.421 123.133 232.78 118.396C237.234 113.658 239.46 106.788 239.46 97.786V40.5058H256.943V96.9332C256.943 111.431 253.153 122.517 245.572 130.193C237.992 137.773 227.521 141.563 214.16 141.563ZM310.22 140V100.771L270.707 40.5058H291.316L319.175 84.5675L347.317 40.5058H367.358L327.845 100.344V140H310.22Z" fill="#343434"/>
</svg>
