<svg width="865" height="271" viewBox="0 0 865 271" fill="none" xmlns="http://www.w3.org/2000/svg">
<path d="M138.142 40H139.52C142.583 40.4595 145.302 41.7613 147.676 43.9054C156.712 48.8063 164.561 51.9842 171.223 53.4392C189.525 57.8041 210.545 59.9865 234.284 59.9865C239.721 59.9865 251.437 59.8716 269.432 59.6419C269.432 60.4077 270.581 60.7905 272.878 60.7905V61.4797C272.649 61.4797 271.5 61.6329 269.432 61.9392V62.2838H270.696C271.232 62.0541 271.653 61.9392 271.959 61.9392C275.099 62.6284 276.669 63.241 276.669 63.777C276.133 63.777 275.444 64.6959 274.601 66.5338H273.682L272.878 66.0743C270.351 68.1419 268.782 69.1757 268.169 69.1757C265.259 69.3288 263.804 69.5968 263.804 69.9797C263.804 70.5158 262.694 71.0135 260.473 71.473V71.9324C262.464 71.9324 263.459 72.1622 263.459 72.6216C261.239 73.1577 259.209 73.8086 257.372 74.5743C257.142 74.5743 257.027 74.4595 257.027 74.2297C255.878 74.4595 254.73 74.5743 253.581 74.5743L254.845 76.0676L254.041 76.527H251.858V76.8716L252.318 77.6757L251.399 78.0203H248.412C245.885 78.786 244.162 79.1689 243.243 79.1689L243.703 81.1216L242.899 81.4662H241.98C233.556 82.0023 229 82.2703 228.311 82.2703C227.622 82.2703 221.725 82.0023 210.622 81.4662H209.818C209.205 81.4662 208.631 81.3514 208.095 81.1216C207.788 81.1216 207.635 81.2365 207.635 81.4662C194.311 80.4707 182.901 78.6712 173.405 76.0676C170.419 76.0676 161.268 71.741 145.953 63.0878C142.2 57.7275 140.324 54.0135 140.324 51.9459C140.324 51.7162 140.477 51.6014 140.784 51.6014C139.712 50.3761 138.716 47.1599 137.797 41.9527C137.491 41.9527 137.338 41.8378 137.338 41.6081V40.8041C137.414 40.268 137.682 40 138.142 40ZM177.196 78.0203C179.493 83.3041 180.948 86.0991 181.561 86.4054C181.561 86.1757 181.676 86.0608 181.905 86.0608C182.365 87.1329 182.824 87.6689 183.284 87.6689H183.628C183.628 86.8266 183.935 86.4054 184.547 86.4054C185.926 88.9324 186.921 91.4977 187.534 94.1014C189.755 94.1014 191.477 99.3468 192.703 109.838C194.694 116.653 195.689 122.664 195.689 127.872H196.149C196.149 126.876 196.417 126.378 196.953 126.378C197.259 126.761 197.412 127.412 197.412 128.331C205.989 127.795 217.399 126.608 231.642 124.77C232.331 124.77 233.365 125.689 234.743 127.527C236.122 127.833 236.811 128.216 236.811 128.676C236.811 129.212 236.696 129.709 236.466 130.169C236.696 130.628 236.811 131.164 236.811 131.777C235.815 132.466 235.126 133.462 234.743 134.764C231.833 135.3 230.378 136.716 230.378 139.014C227.239 139.932 225.669 140.698 225.669 141.311C226.282 141.387 226.588 141.655 226.588 142.115C225.899 142.345 224.444 142.574 222.223 142.804C222.223 143.34 222.644 143.608 223.486 143.608V144.412C216.595 145.714 212.038 146.365 209.818 146.365H207.291L205.108 146.709V146.365C201.126 146.365 198.982 147.36 198.676 149.351C199.212 151.113 199.48 152.644 199.48 153.946V159.345C199.48 159.574 199.365 159.689 199.135 159.689L199.48 160.493V161.297C199.48 161.527 199.365 161.642 199.135 161.642L199.48 162.446V164.743C199.48 165.815 199.633 166.849 199.939 167.845C199.403 171.137 199.135 174.698 199.135 178.527H198.676L199.135 179.331C196.838 186.912 195.689 191.009 195.689 191.622C196.225 191.698 196.493 191.928 196.493 192.311C196.493 197.824 195.077 201.423 192.243 203.108C190.252 207.167 187.687 209.196 184.547 209.196C183.628 209.732 182.901 210 182.365 210C181.752 209.541 179.455 209.158 175.473 208.851C175.014 209.081 174.324 209.196 173.405 209.196C172.793 208.736 170.917 208.354 167.777 208.047C165.48 207.358 164.331 206.86 164.331 206.554C164.331 206.095 165.901 203.529 169.041 198.858C170.802 193.191 173.405 179.255 176.851 157.047V151.304C176.851 150.768 176.545 150.5 175.932 150.5H172.946C165.824 149.887 162.264 148.509 162.264 146.365C160.273 145.369 158.664 142.919 157.439 139.014C157.439 138.707 156.75 137.673 155.372 135.912C155.678 135.453 155.831 135.07 155.831 134.764C155.218 133.845 154.491 131.93 153.649 129.02L155.372 127.872C156.52 128.408 162.072 128.944 172.027 129.48L172.946 129.02C173.405 129.327 173.98 129.48 174.669 129.48L176.851 129.02V120.176L176.392 116.385H176.851L176.392 115.581C176.698 111.063 176.851 107.349 176.851 104.439V103.75C176.851 103.137 176.698 102.601 176.392 102.142C176.392 101.912 176.545 101.797 176.851 101.797C175.856 93.9099 175.128 89.8131 174.669 89.5068V88.3581C174.669 87.8221 174.822 87.3243 175.128 86.8649C174.516 85.3333 174.209 83.4189 174.209 81.1216C174.516 81.1216 174.669 80.9685 174.669 80.6622L175.473 81.1216H175.932C175.932 79.0541 176.354 78.0203 177.196 78.0203ZM295.622 39.4257H296.081C296.923 40.5743 298.876 41.4932 301.939 42.1824L302.399 44.4797L304.696 44.0203C305.538 45.5518 307.529 51.9459 310.669 63.2027L311.588 63.6622H318.02C334.944 62.7432 355.658 61.0586 380.162 58.6081C380.468 58.6081 380.622 58.7613 380.622 59.0676L382.919 58.6081H384.297C388.203 58.6081 390.155 59.0676 390.155 59.9865L389.696 60.9054C392.912 60.9054 394.903 61.8243 395.669 63.6622C395.669 64.2748 395.363 64.5811 394.75 64.5811V63.6622H393.831L394.291 64.5811V65.0405C393.678 65.0405 392.759 65.9595 391.534 67.7973C389.619 68.4099 388.088 68.7162 386.939 68.7162V69.1757H388.318C388.318 70.0946 387.705 70.5541 386.48 70.5541L387.399 71.9324V72.3919C383.8 73.5405 382 74.4595 382 75.1487H383.838V76.527C374.036 79.2072 369.135 80.8536 369.135 81.4662H372.811V82.3851C365.23 84.223 352.441 85.9077 334.446 87.4392C334.446 88.0518 332.914 88.3581 329.851 88.3581H315.723C315.11 88.3581 314.804 88.8176 314.804 89.7365L315.264 90.6554L314.804 91.5743C315.417 93.7185 316.489 102.104 318.02 116.73C318.556 116.423 319.016 116.27 319.399 116.27C323.457 116.27 329.545 115.658 337.662 114.432V114.892L338.581 114.432H340.878C342.64 114.586 343.52 115.045 343.52 115.811L344.439 115.351H344.899C346.124 116.27 348.268 117.036 351.331 117.649L350.872 118.568C353.322 118.721 354.547 119.18 354.547 119.946C354.088 119.946 353.628 120.367 353.169 121.209C353.245 121.822 353.552 122.128 354.088 122.128C353.782 123.966 352.403 124.885 349.953 124.885V126.264C351.484 126.264 352.25 126.57 352.25 127.182C347.809 128.408 345.511 129.48 345.358 130.399C346.277 130.399 346.736 130.705 346.736 131.318V131.777C345.741 131.777 343.329 132.696 339.5 134.534C337.662 134.534 334.905 135.146 331.23 136.372V137.291H331.689L333.986 136.831V137.291L334.905 136.831H336.284V137.75C335.518 137.75 333.374 138.363 329.851 139.588C323.649 140.813 319.858 141.426 318.48 141.426V144.986C318.48 159.306 318.786 167.845 319.399 170.601L318.48 185.304C324.529 185.61 327.86 185.764 328.473 185.764L368.676 182.547C371.739 182.854 373.27 183.313 373.27 183.926C372.964 184.462 372.811 184.921 372.811 185.304L373.73 184.845H374.189C374.878 185.381 376.563 185.802 379.243 186.108V186.568C378.018 187.027 377.405 187.486 377.405 187.946V188.405H378.784V189.324H376.486C375.032 191.162 373.5 192.081 371.892 192.081C370.054 192.77 368.676 193.536 367.757 194.378C367.374 194.838 365.574 195.297 362.358 195.757V196.216C362.664 196.216 363.086 196.369 363.622 196.676C363.775 196.063 364.081 195.757 364.541 195.757L365.459 196.216C366.072 195.91 366.532 195.757 366.838 195.757V196.216L367.757 195.757H369.595V196.676C364.77 197.365 362.358 197.824 362.358 198.054L359.142 199.892C359.142 201.73 357.457 202.649 354.088 202.649C354.088 203.491 349.225 204.563 339.5 205.865V206.324C340.955 206.324 341.682 206.477 341.682 206.784L343.98 206.324H348.574V207.243H346.277C345.205 207.243 343.827 207.396 342.142 207.703C341.606 207.396 341.032 207.243 340.419 207.243C340.419 208.545 335.824 209.273 326.635 209.426C323.649 209.426 318.786 209.119 312.047 208.507C312.047 213.867 309.597 217.236 304.696 218.615H303.777L301.02 218.155L298.723 218.615C298.723 217.696 295.545 216.777 289.189 215.858V215.399C288.883 215.399 288.73 215.552 288.73 215.858C285.054 215.169 282.757 214.25 281.838 213.101C282.757 211.723 283.829 208.392 285.054 203.108C272.878 199.05 266.791 195.374 266.791 192.081C264.876 191.698 260.741 184.998 254.385 171.98C254.998 171.673 255.457 171.52 255.764 171.52C257.984 171.52 263.651 173.511 272.764 177.493C278.507 178.718 281.378 179.637 281.378 180.25C281.685 180.25 281.838 180.097 281.838 179.791C282.374 179.791 284.977 180.403 289.649 181.628L290.108 177.493C289.802 157.124 289.649 145.523 289.649 142.689C279.311 141.464 274.142 139.664 274.142 137.291C271.998 135.682 269.088 130.169 265.412 120.75C264.953 120.75 264.187 119.41 263.115 116.73C263.191 116.117 263.498 115.811 264.034 115.811H264.493L287.811 118.568H289.189L288.73 115.351V108.919L289.189 105.703H288.73L289.189 104.784L288.27 103.405V101.568H289.189L288.73 99.2703V95.25C287.811 95.25 287.351 94.9437 287.351 94.3311C287.964 94.3311 288.27 94.0248 288.27 93.4122C287.658 93.4122 287.351 93.1059 287.351 92.4932C287.964 92.4932 288.27 92.1869 288.27 91.5743C287.045 91.5743 286.432 90.0428 286.432 86.9797C286.739 86.4437 286.892 85.8311 286.892 85.1419C278.009 83.3041 268.399 79.0541 258.061 72.3919C257.295 72.3919 255.189 70.2477 251.743 65.9595C251.743 64.964 249.14 59.795 243.932 50.4527C243.932 49.6869 243.626 48.9212 243.014 48.1554C243.473 46.9302 243.932 46.3176 244.392 46.3176H246.23C248.986 46.3176 253.39 48.9212 259.439 54.1284C268.016 58.0338 274.257 59.9865 278.162 59.9865C278.162 60.5225 281.072 61.1351 286.892 61.8243C286.892 60.2928 287.198 59.527 287.811 59.527C287.505 55.8514 286.892 52.5203 285.973 49.5338L286.432 48.6149C286.126 48.0788 285.973 47.4662 285.973 46.777H286.892C287.122 51.3716 287.734 53.6689 288.73 53.6689V53.2095C288.117 48.1554 287.811 44.1734 287.811 41.2635L287.351 40.3446H287.811C288.423 40.3446 288.73 40.9572 288.73 42.1824H289.649V40.3446H290.568C290.874 40.3446 291.027 40.4977 291.027 40.8041L291.946 40.3446H292.405C293.018 40.3446 293.324 40.9572 293.324 42.1824C293.631 42.1824 294.396 41.2635 295.622 39.4257ZM375.108 187.946H376.027C376.64 187.946 376.946 187.64 376.946 187.027H376.027C375.414 187.18 375.108 187.486 375.108 187.946ZM419.216 41.2635C426.95 41.8761 430.818 43.7523 430.818 46.8919V52.0608C430.818 55.0473 428.444 56.9234 423.696 57.6892C422.7 58.991 419.944 60.4842 415.426 62.1689C412.439 63.7005 409.95 65.1937 407.959 66.6487C405.892 66.6487 403.633 68.027 401.182 70.7838L397.162 73.4257C392.338 78.1734 388.088 80.5473 384.412 80.5473H383.608C382.995 79.7815 381.387 79.2838 378.784 79.0541V77.9054C378.784 68.8694 380.392 63.3941 383.608 61.4797C385.599 58.6464 389.351 55.1239 394.865 50.9122C398.387 46.8536 404.514 43.8671 413.243 41.9527C416.766 41.4932 418.757 41.2635 419.216 41.2635ZM461.486 49.4189H463.784C471.212 49.4189 474.926 51.4482 474.926 55.5068C475.232 57.0383 475.385 58.7613 475.385 60.6757V63.3176C475.385 64.4662 472.628 65.5766 467.115 66.6487L461.486 69.6351C461.027 69.6351 458.653 72.1239 454.365 77.1014C438.284 88.9707 428.444 99.4617 424.845 108.574C421.858 113.858 419.867 120.099 418.872 127.297C416.881 135.185 415.885 140.66 415.885 143.723C415.885 149.313 416.613 153.678 418.068 156.818V159.115C418.068 162.178 419.446 166.926 422.203 173.358C429.095 181.552 433.842 185.649 436.446 185.649C436.829 186.338 439.318 187.218 443.912 188.291H444.257C452.144 187.908 462.75 184.155 476.074 177.034C478.908 175.349 484.536 174.507 492.959 174.507C493.189 175.809 494.185 177.149 495.946 178.527V182.662L493.649 185.649V189.784C492.959 190.55 491.964 192.158 490.662 194.608C486.144 198.514 483.885 200.658 483.885 201.041C483.885 203.185 482.392 204.41 479.405 204.716C472.207 208.239 464.473 210 456.203 210H454.365C442.419 210 433.191 206.631 426.682 199.892C424.232 199.05 420.633 195.68 415.885 189.784C401.412 174.315 394.176 156.741 394.176 137.061V135.912C394.176 115.466 400.378 96.8964 412.784 80.2027C419.446 72.9279 425.84 66.9167 431.966 62.1689C436.944 57.4212 443.529 53.4392 451.723 50.223C452.029 50.223 455.284 49.955 461.486 49.4189ZM628.27 44.0203L628.73 44.8243V45.1689C628.73 45.3987 628.577 45.5135 628.27 45.5135C628.27 46.5856 628.806 47.1216 629.878 47.1216V47.4662L629.074 48.6149L630.568 50.5676C630.568 50.1847 630.989 49.8018 631.831 49.4189L632.176 50.223L631.027 52.1757L631.372 52.8649C630.836 53.9369 630.568 54.8559 630.568 55.6216H631.027L632.52 54.0135H632.98L632.52 56.4257C632.827 56.8851 632.98 57.268 632.98 57.5743L631.027 62.1689C631.257 62.6284 631.372 63.0113 631.372 63.3176L633.324 62.1689V62.5135C624.824 82.9595 619.273 97.241 616.669 105.358C614.372 113.782 613.223 118.95 613.223 120.865H613.682C614.142 120.559 614.525 120.405 614.831 120.405C616.516 120.941 617.664 121.209 618.277 121.209H618.622C619.005 121.209 619.387 120.827 619.77 120.061L621.723 120.405H626.777V121.209H624.48V122.014H627.122C629.955 122.626 631.372 123.507 631.372 124.655H631.831V125.459H629.878C629.342 125.536 629.074 125.804 629.074 126.264C630.682 126.723 631.716 126.953 632.176 126.953V127.757H631.831C631.525 127.757 631.372 127.642 631.372 127.412C627.773 128.101 625.973 128.599 625.973 128.905H628.73V130.054H627.122V130.858H629.878V131.662C629.266 131.662 627.696 132.16 625.169 133.155V134.304H626.432V135.108H625.973C625.743 135.108 625.628 134.993 625.628 134.764C624.173 135.223 623.025 135.989 622.182 137.061H620.23L620.574 137.865V138.209C619.426 138.209 618.277 138.707 617.128 139.703L617.473 140.507V140.851C611.806 141.464 608.973 142.268 608.973 143.264C607.441 153.142 606.676 159.191 606.676 161.412V161.757L607.02 162.561L608.973 162.101H613.223C613.759 162.101 614.027 162.484 614.027 163.25H616.324C617.243 163.25 618.392 163.135 619.77 162.905C620.842 163.288 621.378 163.671 621.378 164.054V164.399L618.622 166.007C619.923 166.007 620.574 166.275 620.574 166.811C620.191 166.811 619.809 167.194 619.426 167.959L622.182 168.649C622.182 169.491 620.613 170.142 617.473 170.601C616.631 171.673 615.75 172.209 614.831 172.209V172.554H616.324C616.324 172.324 616.439 172.209 616.669 172.209L617.128 172.899L612.074 176.459V177.608C610.926 177.608 609.241 177.991 607.02 178.757V179.101H608.284V179.905C607.212 179.905 606.676 180.288 606.676 181.054C607.441 189.401 608.858 197.633 610.926 205.75C610.926 207.511 608.092 208.813 602.426 209.655L600.473 209.196C600.473 209.732 600.243 210 599.784 210H598.98C598.214 210 597.831 209.885 597.831 209.655L595.878 210C594.959 210 593.811 209.885 592.432 209.655C591.973 209.885 591.437 210 590.824 210C587.225 210 585.426 207.435 585.426 202.304C583.358 194.11 582.324 187.793 582.324 183.351C579.108 184.117 576.16 184.5 573.48 184.5H567.277C564.214 182.203 562.682 180.02 562.682 177.953C561.687 177.953 560.806 176.153 560.041 172.554C559.734 172.554 559.313 172.056 558.777 171.061V170.257L560.041 168.649V168.304H559.236V167.959C559.236 167.347 559.887 166.964 561.189 166.811V167.155L561.878 166.811H563.027C566.09 166.811 572.408 166.16 581.98 164.858C582.209 164.399 582.324 163.863 582.324 163.25C582.324 163.02 582.209 162.905 581.98 162.905L582.324 160.953V157.507C583.396 151.227 583.932 147.628 583.932 146.709H582.324C575.509 147.475 566.511 147.858 555.331 147.858H546.831L544.534 147.514L543.73 147.858L541.432 147.514H540.284C538.063 177.455 534.962 194.953 530.98 200.007C529.295 204.601 527.764 207.664 526.385 209.196H525.236V208.507L525.581 207.703H524.892C522.748 209.234 521.331 210 520.642 210C519.8 209.464 519.149 209.196 518.689 209.196C518.689 209.732 518.421 210 517.885 210C517.426 210 516.545 209.732 515.243 209.196L513.291 210C513.291 209.77 513.176 209.655 512.946 209.655L513.291 208.851V208.507C511.453 208.507 510.534 207.971 510.534 206.899C510.074 207.128 509.691 207.243 509.385 207.243V206.899C510.917 203.146 512.869 195.182 515.243 183.007C514.937 182.471 514.784 182.088 514.784 181.858C515.32 181.245 515.856 178.527 516.392 173.703C515.626 173.703 515.243 173.435 515.243 172.899V171.75C516.775 170.448 517.541 166.466 517.541 159.804L517.081 157.162C517.617 157.162 517.885 156.894 517.885 156.358C518.191 151.764 518.345 148.011 518.345 145.101C507.854 143.493 499.583 141.081 493.534 137.865C492.002 136.333 490.624 133.232 489.399 128.561C488.403 125.421 487.484 123.239 486.642 122.014V120.061C488.25 119.525 489.284 119.257 489.743 119.257C503.144 122.396 512.525 123.966 517.885 123.966V121.554C517.885 120.788 517.77 120.405 517.541 120.405L517.885 118.568V113.858C517.885 112.709 517.502 110.029 516.736 105.818H507.088C506.552 105.818 506.054 105.932 505.595 106.162C501.459 105.014 499.392 103.482 499.392 101.568C498.473 101.108 497.439 99.4234 496.291 96.5135C494.223 93.1441 493.189 90.4257 493.189 88.3581C495.486 87.1329 498.052 86.5203 500.885 86.5203H502.034C503.565 86.5203 505.633 86.6351 508.236 86.8649H508.696V86.5203H506.743V85.7162C508.045 85.7162 509.959 85.6014 512.486 85.3716C512.486 83.7635 511.989 81.5428 510.993 78.7095C510.993 78.25 511.223 77.3694 511.682 76.0676C510.993 71.5496 509.079 67.7973 505.939 64.8108V64.4662C505.939 63.0113 509.423 61.4797 516.392 59.8716C517.005 59.8716 517.655 59.6036 518.345 59.0676C520.565 59.6036 522.097 59.8716 522.939 59.8716L523.743 59.4122C525.428 60.1014 528.261 65.1171 532.243 74.4595L535.689 84.5676L546.486 83.7635C546.563 84.2996 546.831 84.5676 547.291 84.5676H548.784C551.847 84.5676 553.378 84.9505 553.378 85.7162C553.378 86.7117 554.182 87.8604 555.791 89.1622V91.1149C556.633 91.1149 557.896 92.6464 559.581 95.7095V96.5135L558.777 97.6622V98.0068C559.619 98.0068 560.041 98.2748 560.041 98.8108V99.2703C559.505 101.032 557.054 101.912 552.689 101.912C552.689 101.682 552.536 101.568 552.23 101.568C552.23 102.333 550.583 102.831 547.291 103.061C546.984 103.061 546.831 102.946 546.831 102.716C544.917 103.176 543.117 103.405 541.432 103.405H538.791C539.786 113.36 540.284 120.444 540.284 124.655V125.459L549.128 126.264C558.93 125.957 567.162 125.421 573.824 124.655V125.115L574.628 124.655H575.432C583.932 124.273 588.182 123.507 588.182 122.358C588.182 119.831 589.867 112.901 593.236 101.568H593.581L594.385 101.912L595.074 99.9595C594.615 99.0405 594.385 98.0068 594.385 96.8581C594.691 96.5518 596.108 92.8378 598.635 85.7162C598.635 85.4865 600.167 82.9212 603.23 78.0203C603 77.4842 602.885 77.1014 602.885 76.8716L603.574 77.2162C604.11 76.1441 604.378 75.3784 604.378 74.9189C603.842 74.9189 603.574 74.6509 603.574 74.1149H604.034L604.723 74.4595C604.723 74 605.106 73.1194 605.872 71.8176V71.473H605.527C605.527 71.5496 605.412 72.0473 605.182 72.9662H604.378V72.6216L607.48 66.4189H608.284V67.223C608.973 66.8401 610.236 64.6194 612.074 60.5608L616.324 55.9662C620.306 49.5338 623.791 46.3176 626.777 46.3176C626.854 45.3987 627.351 44.6329 628.27 44.0203ZM610.581 65.2703V65.6149C611.041 65.6149 611.27 65.3468 611.27 64.8108V64.4662C610.811 64.5428 610.581 64.8108 610.581 65.2703ZM584.736 192.655V195.297C584.813 195.833 585.043 196.101 585.426 196.101V193.345C585.426 192.885 585.196 192.655 584.736 192.655ZM753.932 45.1689C757.685 45.7815 760.212 46.0878 761.514 46.0878C762.05 45.7815 762.624 45.6284 763.236 45.6284L764.959 48.0405V49.9932C761.131 56.6554 758.297 63.2793 756.459 69.8649C753.32 78.6712 749.644 95.3266 745.432 119.831C745.432 122.128 745.318 123.277 745.088 123.277C745.318 123.89 745.432 124.387 745.432 124.77C744.973 125.919 744.016 133.691 742.561 148.088C742.561 148.394 742.676 148.547 742.905 148.547C742.599 151.993 742.331 154.099 742.101 154.865L742.561 155.784C741.948 157.928 741.642 159.383 741.642 160.149V162.101C754.813 179.791 763.581 189.822 767.946 192.196L768.75 194.608C766.912 199.279 764.079 203.185 760.25 206.324C755.655 211.608 752.133 214.327 749.682 214.48C748.84 214.48 745.739 212.068 740.378 207.243H740.034L740.378 209.655C740.991 223.209 741.718 234.39 742.561 243.196V243.655C742.561 244.268 742.254 244.574 741.642 244.574H741.297L739.574 242.736C739.574 243.885 738.579 245.34 736.588 247.101H734.865L734.061 246.527C734.061 247.216 733.793 247.561 733.257 247.561H732.797C731.495 246.872 730.232 245.723 729.007 244.115V244.574C729.007 245.34 729.122 245.991 729.351 246.527C729.122 247.216 729.007 247.714 729.007 248.02H728.547L725.216 244.574C725.676 244.268 726.212 244.115 726.824 244.115C724.833 242.43 723.57 239.673 723.034 235.845L722.23 235.385H721.77L720.966 235.845C720.966 235.538 720.813 235.385 720.507 235.385L720.966 234.466C720.354 233.394 720.047 232.59 720.047 232.054H721.77L722.689 232.514V231.48C721.77 231.48 720.89 230.829 720.047 229.527V228.608C721.273 227.689 722.153 226.234 722.689 224.243H723.034V223.784L721.77 221.831V221.372L723.034 218.845H722.689L721.426 219.878H720.507C721.349 218.27 722.191 217.466 723.034 217.466V216.432C721.962 216.432 721.426 216.126 721.426 215.514C721.962 215.514 722.23 215.169 722.23 214.48V214.02C722.23 213.331 722.077 212.68 721.77 212.068L722.23 211.149C722.23 209.541 721.081 205.482 718.784 198.973C718.784 198.054 718.516 197.595 717.98 197.595C717.98 196.982 718.248 195.68 718.784 193.689C718.554 192.694 718.286 192.196 717.98 192.196L718.439 189.784L717.98 187.831C718.286 187.295 718.439 186.644 718.439 185.878C718.439 185.572 718.286 185.419 717.98 185.419L718.439 181.973V178.642C714.764 171.673 711.777 167.959 709.48 167.5C699.065 153.869 693.858 146.748 693.858 146.135C694.164 145.446 694.318 144.948 694.318 144.642C691.637 138.975 687.962 133.462 683.291 128.101C679.615 122.894 676.514 118.07 673.986 113.628L674.446 112.595C672.455 108.23 671.459 105.818 671.459 105.358C668.09 97.9302 665.831 91.7658 664.682 86.8649H665.142L666.75 88.3581V87.3243L666.405 84.9122C666.941 84.9122 667.209 84.4527 667.209 83.5338L666.75 81.0068C667.209 81.0068 667.784 79.8964 668.473 77.6757C668.167 77.0631 668.014 76.5653 668.014 76.1824L668.932 75.723L670.655 77.2162C670.655 75.9144 670.923 75.2635 671.459 75.2635C671.842 75.5698 672.532 75.723 673.527 75.723C673.527 74.1149 673.833 73.3108 674.446 73.3108C674.982 73.3108 675.25 73.9617 675.25 75.2635L676.514 74.2297C676.896 74.2297 677.318 74.7275 677.777 75.723V76.1824H677.318L676.514 75.723V76.1824C676.973 77.4842 677.394 78.1351 677.777 78.1351L678.696 77.6757C682.065 84.1847 687.273 92.7613 694.318 103.405C694.624 103.405 699.257 109.225 708.216 120.865C716.104 130.207 720.2 134.878 720.507 134.878H720.966C721.502 129.441 722.191 124.77 723.034 120.865C723.034 120.559 722.919 120.405 722.689 120.405C724.374 107.158 727.322 92.5698 731.534 76.6419L734.865 63.5473C736.932 60.7905 739.191 56.1194 741.642 49.5338C741.642 47.8491 743.786 46.5473 748.074 45.6284L750.601 46.0878C752.822 45.8581 753.932 45.5518 753.932 45.1689ZM667.209 46.0878C668.052 47.4662 668.473 49.0743 668.473 50.9122C664.568 70.1329 662.615 85.8311 662.615 98.0068V101.453C662.615 102.142 662.462 102.793 662.155 103.405L662.615 104.324L661.696 123.277C662.002 123.813 662.155 124.464 662.155 125.23L661.696 128.101C661.696 128.484 661.849 128.676 662.155 128.676L661.696 130.514C663.074 166.428 664.491 184.385 665.946 184.385L665.486 187.831C665.486 189.822 666.214 193.077 667.669 197.595C665.678 198.667 664.682 200.734 664.682 203.797C663.764 204.563 660.93 205.865 656.182 207.703H654.919C653.617 207.703 652.2 207.894 650.669 208.277C645.921 207.664 643.547 206.669 643.547 205.291C643.547 201.309 642.705 193.536 641.02 181.973C641.02 181.667 641.135 181.514 641.365 181.514L640.101 173.703C640.408 173.243 640.561 172.439 640.561 171.291L640.101 166.926C640.101 166.619 640.254 166.466 640.561 166.466L640.101 164.054C640.101 158.311 639.833 153.448 639.297 149.466L639.757 148.547L639.297 145.561C639.297 145.255 639.45 144.795 639.757 144.182L639.297 141.196V139.243L639.757 136.372C639.45 135.759 639.297 135.261 639.297 134.878L639.757 131.547L639.297 128.101C639.833 123.966 640.101 120.099 640.101 116.5V108.689L640.561 105.818C640.254 105.282 640.101 104.631 640.101 103.865L641.02 103.405H642.284C642.514 102.793 642.628 102.142 642.628 101.453V96.0541C643.241 95.7477 644.236 88.1667 645.615 73.3108C646.227 73.3108 646.649 71.3581 646.878 67.4527L649.405 61.5946L649.061 60.6757V60.2162C650.363 55.8514 651.473 53.0946 652.392 51.9459C652.698 52.4054 652.851 53.3626 652.851 54.8176C653.234 54.8176 653.923 53.5158 654.919 50.9122L655.838 51.4865C656.68 50.1081 657.791 49.3041 659.169 49.0743C659.169 47.6959 660.739 46.8536 663.878 46.5473C664.414 46.9302 664.836 47.1216 665.142 47.1216C666.061 46.4324 666.75 46.0878 667.209 46.0878ZM835.257 44.8243C837.324 45.1306 838.473 45.2838 838.703 45.2838L840.77 44.8243L841.689 45.2838L842.493 44.8243C847.088 46.2793 850.227 48.4234 851.912 51.2568C851.912 51.9459 853.023 53.5158 855.243 55.9662V58.9527C856.086 58.9527 856.507 59.2207 856.507 59.7568C856.507 60.7523 853.98 61.7477 848.926 62.7432C843.642 64.6577 836.98 68.3333 828.939 73.7703C828.097 74.4595 827.676 74.8806 827.676 75.0338V75.4932C836.252 82.3086 842.608 88.9707 846.743 95.4797C854.401 106.583 858.23 117.955 858.23 129.595C858.23 129.824 858.115 129.939 857.885 129.939C858.191 130.322 858.459 132.313 858.689 135.912C858.689 145.561 854.133 155.631 845.02 166.122C833.381 179.905 824.613 189.554 818.716 195.068H816.074C815.385 194.532 814.849 194.264 814.466 194.264L812.284 194.723V194.264L811.48 194.723H810.216C807.536 192.732 806.119 191.736 805.966 191.736H804.243L803.324 192.081L802.98 191.277C803.209 190.741 803.324 190.32 803.324 190.014C803.095 190.014 802.98 189.86 802.98 189.554L802.061 190.014H801.257V189.095L803.324 182.777L811.824 172.095V171.75H811.02V170.831L811.824 169.568C811.595 169.108 811.48 168.534 811.48 167.845C824.421 152.682 831.658 140.507 833.189 131.318C833.725 127.412 833.993 124.426 833.993 122.358C833.993 108.804 829.475 95.9009 820.439 83.6487L819.061 82.7297C799.764 103.788 790.115 127.91 790.115 155.095V158.541C790.115 171.712 793.829 183.045 801.257 192.541C806.387 196.523 814.198 199.777 824.689 202.304H827.676C829.896 203.529 831.007 204.41 831.007 204.946V205.291L830.547 207.473C830.854 207.473 831.007 207.588 831.007 207.818L819.52 210C810.637 208.009 802.827 204.869 796.088 200.581C782.993 192.464 774.493 183.696 770.588 174.277C767.754 166.543 766.338 157.162 766.338 146.135V140.622C766.644 126.608 770.626 110.718 778.284 92.9527C781.5 87.5923 785.75 81.6194 791.034 75.0338C791.264 74.4212 793.523 71.3198 797.811 65.7297C793.829 62.5901 791.417 59.6036 790.574 56.7703C790.191 56.7703 789.77 56.3491 789.311 55.5068V55.0473C789.387 54.5113 789.655 54.2432 790.115 54.2432L791.838 55.9662L793.101 55.0473H793.561L794.48 55.5068C794.48 54.9707 794.901 54.7027 795.743 54.7027C801.41 58.0721 804.511 59.7568 805.047 59.7568C813.547 52.4054 821.779 47.7342 829.743 45.7432L835.257 44.8243Z" fill="#343434"/>
<rect y="36" width="113" height="185" rx="28" fill="#F28B51"/>
<path d="M34.6261 93.6107C38.4897 92.4923 44.3359 90.5097 49.9279 88.5779L50.8938 93.2548C46.2677 95.1866 41.3365 97.2201 37.3205 98.7452L34.6261 93.6107ZM52.2664 77.9531H58.2142V95.2375C58.2142 97.8809 57.7059 99.101 55.8249 99.8636C54.0456 100.575 51.6563 100.626 48.2503 100.626C47.9961 99.1519 47.1827 97.1692 46.471 95.7967C48.4536 95.8983 50.7413 95.8983 51.3513 95.8983C52.063 95.8983 52.2664 95.695 52.2664 95.0849V77.9531ZM58.1634 92.3906L61.3153 88.0187C66.1956 89.8488 72.2959 92.7973 75.8545 94.7291L72.6518 99.6602C69.1949 97.5251 62.9929 94.3732 58.1634 92.3906ZM40.4723 82.9859L44.1325 79.4781C46.3185 80.9524 49.2162 83.1384 50.5888 84.7143L46.776 88.6287C45.5051 87.0528 42.7091 84.6126 40.4723 82.9859ZM65.9922 79.0715L70.5675 82.4267C68.3307 84.4093 65.6872 86.3919 63.7046 87.612L59.841 84.5618C61.722 83.1892 64.4671 80.7999 65.9922 79.0715ZM32.2368 71.6493H78.5997V76.6313H32.2368V71.6493ZM37.778 64.278H73.9735V68.955H37.778V64.278ZM35.1345 56.9576H75.9562V61.8379H35.1345V56.9576ZM62.637 65.7523C65.738 72.7169 71.9909 78.8681 79.6164 81.8166C78.2438 82.9859 76.4645 85.2735 75.5495 86.7986C67.4156 83.0875 61.2136 75.9704 57.4517 67.3282L62.637 65.7523ZM51.1988 52.8398L57.655 53.3482C55.2657 66.5148 49.4195 79.224 35.7954 87.2053C34.8295 85.7819 32.6943 83.8501 31.1692 83.0367C44.4376 76.0721 49.7754 64.3797 51.1988 52.8398ZM44.5392 123.107V128.648H66.2972V123.107H44.5392ZM38.6422 117.769H72.601V134.037H38.6422V117.769ZM33.3044 108.161H77.6846V113.702H33.3044V108.161ZM52.1139 103.789H58.3159V120.921H52.1139V103.789ZM57.8584 130.936H64.1113V143.34C64.1113 145.068 64.4163 145.221 66.1956 145.221C67.0089 145.221 70.2625 145.221 71.2792 145.221C73.0076 145.221 73.3127 144.357 73.516 138.307C74.7869 139.324 77.4813 140.29 79.1589 140.747C78.498 148.881 76.8712 151.016 71.8384 151.016C70.6183 151.016 66.5006 151.016 65.3313 151.016C59.3326 151.016 57.8584 149.135 57.8584 143.441V130.936ZM45.556 133.122H52.1139C51.1988 142.221 48.657 148.423 34.8803 151.677C34.3211 149.999 32.6435 147.356 31.3726 146.034C43.2683 143.797 44.7934 139.68 45.556 133.122ZM50.5888 159.364H78.803V164.55H50.5888V159.364ZM50.0804 172.683H79.2605V178.225H50.0804V172.683ZM59.3835 195.255H74.2277V200.542H59.3835V195.255ZM55.6216 154.84H61.4678V168.667H55.6216V154.84ZM68.1274 154.84H74.0752V168.667H68.1274V154.84ZM56.435 183.512H77.3288V202.474H71.4317V188.748H62.0778V202.626H56.435V183.512ZM60.3494 167.498L66.1447 168.413C63.9079 179.699 59.4343 188.697 52.3172 194.238C51.5547 193.12 49.3179 190.832 48.0978 189.815C54.7574 185.24 58.6209 177.259 60.3494 167.498ZM33.8127 170.447H48.7078V175.022H33.8127V170.447ZM33.9652 156.416H48.5553V161.042H33.9652V156.416ZM33.8127 177.36H48.7078V181.987H33.8127V177.36ZM31.4743 163.279H50.0296V168.108H31.4743V163.279ZM36.4562 184.427H48.7587V199.881H36.4562V195.051H43.675V189.256H36.4562V184.427ZM33.7111 184.427H38.693V201.914H33.7111V184.427Z" fill="#343434"/>
</svg>
