<svg width="78" height="78" viewBox="0 0 78 78" fill="none" xmlns="http://www.w3.org/2000/svg">
<rect x="77.5505" y="0.00012207" width="77.3259" height="77.3258" rx="25.7753" transform="rotate(90 77.5505 0.00012207)" fill="#343434"/>
<path fill-rule="evenodd" clip-rule="evenodd" d="M34.0798 21.0606C31.6932 22.2962 29.7407 23.3418 29.7411 23.3843C29.7422 23.494 35.4689 26.3766 35.6721 26.3696C35.7646 26.3665 36.4353 26.0596 37.1626 25.6877L38.4851 25.0116L41.3737 26.4875L43.7389 25.4312C47.3028 23.8395 47.673 23.6651 47.615 23.6065C47.538 23.5287 46.2597 22.8462 42.7915 21.0314C41.1154 20.1544 39.4886 19.2944 39.1763 19.1204C38.864 18.9464 38.5659 18.8064 38.5138 18.8091C38.4617 18.8118 36.4664 19.825 34.0798 21.0606ZM23.6124 26.4479L21.1281 27.7233V33.3209C21.1281 36.3997 21.1607 38.9185 21.2007 38.9185C21.2406 38.9185 22.4629 38.3919 23.9169 37.7482L26.5605 36.578V30.6777L27.8524 31.3772C28.8479 31.9158 29.8439 32.4532 30.8406 32.9896L32.537 33.9025L33.2918 33.5632C33.7652 33.3501 34.2377 33.1349 34.7092 32.9177C35.0735 32.7491 35.9679 32.3487 36.6966 32.0278C37.4253 31.7068 38.0999 31.384 38.1956 31.3104C38.3226 31.2127 36.7732 30.3617 32.4647 28.1627C29.2171 26.5051 26.4557 25.1542 26.3284 25.1607C26.201 25.1671 24.9789 25.7463 23.6124 26.4479ZM48.0627 26.806C46.3707 27.5652 44.9851 28.2167 44.9836 28.2539C44.9821 28.291 45.9043 28.836 47.033 29.4648C48.1617 30.0937 49.0852 30.6419 49.0852 30.6832C49.0852 30.7244 48.0864 31.2054 46.8659 31.7523C45.6451 32.299 42.5597 33.6839 40.0091 34.8299L31.4629 38.6693C29.3132 39.6352 27.3754 40.5058 27.1568 40.6042C22.7657 42.5799 21.5588 43.1281 21.3931 43.2222C21.2264 43.3169 21.1887 43.8674 21.159 46.6299L21.1236 49.9247L25.5668 52.1749L28.6474 50.7931C30.3417 50.0331 31.7279 49.3715 31.7279 49.3228C31.7279 49.2742 31.4148 49.0715 31.0323 48.872C30.6496 48.6726 29.8597 48.2312 29.2767 47.8909C28.6938 47.5506 28.1125 47.2383 27.9849 47.1969C27.8573 47.1556 27.7547 47.0834 27.7568 47.0362C27.7589 46.9893 29.1155 46.3488 30.7712 45.613C33.987 44.1839 36.4481 43.0825 41.7315 40.7078C44.0941 39.6461 46.457 38.5851 48.8202 37.5247C50.8971 36.5929 53.3119 35.5048 54.1864 35.1065L55.7763 34.3824L55.8472 27.7178L53.5939 26.5683C52.3546 25.9361 51.2952 25.4204 51.2397 25.4223C51.1842 25.424 49.7546 26.0467 48.0627 26.806ZM55.1726 38.8279C54.8406 38.9891 54.1847 39.291 53.7152 39.4986C53.2456 39.7062 52.3546 40.1058 51.7351 40.3867L50.6089 40.8973L50.5832 43.8228C50.569 45.4318 50.5094 46.7411 50.4507 46.7326C50.3174 46.7129 48.2066 45.637 46.0848 44.507C44.5533 43.6915 44.4571 43.659 44.0973 43.8362C43.8893 43.9386 42.6458 44.4929 41.3341 45.0681C40.0223 45.6432 38.9063 46.1514 38.8538 46.1974C38.8015 46.2433 41.4415 47.6655 44.7207 49.3579L50.6827 52.435L53.2296 51.1256C54.6302 50.4054 55.8213 49.7486 55.8761 49.666C55.9996 49.4802 55.989 38.5094 55.8654 38.5242C55.8165 38.53 55.5047 38.6667 55.1726 38.8279ZM41.0691 51.7049C40.6273 51.8937 40.1856 52.0828 39.7441 52.2721C38.4107 52.8454 38.672 52.8644 37.0858 52.0796C36.0292 51.5568 35.5738 51.3955 35.3761 51.4738C35.2279 51.5325 33.9518 52.1032 32.5402 52.7418C31.1286 53.3805 29.9248 53.9031 29.8649 53.9031C29.2726 53.9031 30.2572 54.4877 34.0565 56.3925L38.5121 58.6262L40.3868 57.7063C41.4179 57.2003 43.4976 56.1872 45.0085 55.4549C46.5192 54.7224 47.7366 54.1041 47.7138 54.0807C47.6909 54.0575 46.425 53.4114 44.9006 52.645L42.1291 51.2518L41.0691 51.7049Z" fill="#F28B51"/>
</svg>
