<svg width="78" height="78" viewBox="0 0 78 78" fill="none" xmlns="http://www.w3.org/2000/svg">
<rect x="77.3259" y="6.10352e-05" width="77.3259" height="77.3258" rx="25.7753" transform="rotate(90 77.3259 6.10352e-05)" fill="#343434"/>
<path d="M55.8511 33.2578V49.9184L38.0209 60.6157L20.1807 49.9184V28.5138L38.0209 17.8064L51.7242 26.0333L53.7925 24.7931L38.0209 15.3259L18.1123 27.2736V51.1587L38.0209 63.1064L57.9294 51.1587V32.0176L55.8511 33.2578Z" fill="#F28B51"/>
<path d="M33.0289 49.9288H30.0456V39.5314H39.9899C40.9307 39.5206 41.8297 39.1251 42.4921 38.4308C43.1547 37.7364 43.5275 36.7989 43.5301 35.8209C43.5355 35.3374 43.4456 34.8579 43.2661 34.4117C43.0865 33.9655 42.821 33.5623 42.4859 33.2267C42.1617 32.8804 41.7734 32.6059 41.3445 32.4194C40.9156 32.2329 40.4549 32.1384 39.9899 32.1416H30.0456V28.9789H39.9998C41.7426 28.9898 43.411 29.7141 44.6433 30.9949C45.8756 32.2757 46.5725 34.0096 46.583 35.8209C46.5937 37.2074 46.1868 38.5625 45.4196 39.6967C44.7133 40.7818 43.718 41.6295 42.5556 42.136C41.4045 42.5153 40.203 42.7037 38.9954 42.694H33.0289V49.9288Z" fill="#F28B51"/>
<path d="M46.5134 49.6704H43.0329L40.3478 44.8025C41.4101 44.7349 42.4579 44.5123 43.4604 44.141L46.5134 49.6704Z" fill="#F28B51"/>
<path d="M53.7726 29.7954L55.8312 30.984L57.8896 29.7954V27.2839L55.8312 26.0437L53.7726 27.2839V29.7954Z" fill="#F28B51"/>
</svg>
