<svg width="78" height="78" viewBox="0 0 78 78" fill="none" xmlns="http://www.w3.org/2000/svg">
<rect x="78" y="0.00012207" width="77.3259" height="77.3258" rx="25.7753" transform="rotate(90 78 0.00012207)" fill="#343434"/>
<path fill-rule="evenodd" clip-rule="evenodd" d="M54.6422 22.5215C55.1244 22.3185 55.6522 22.2485 56.1707 22.3187C56.6892 22.389 57.1793 22.597 57.5902 22.9211C58.001 23.2452 58.3175 23.6735 58.5067 24.1614C58.6959 24.6494 58.751 25.1791 58.666 25.6956L54.2402 52.55C53.8108 55.1404 50.9695 56.6259 48.5946 55.3356C46.608 54.2561 43.6575 52.5929 41.0035 50.8576C39.6765 49.9889 35.6116 47.2072 36.1112 45.2278C36.5405 43.5354 43.3706 37.1756 47.2735 33.3945C48.8054 31.909 48.1068 31.052 46.2978 32.4185C41.8055 35.8111 34.593 40.9704 32.2083 42.4227C30.1047 43.7033 29.0079 43.9219 27.6966 43.7033C25.3041 43.3051 23.0853 42.6882 21.2744 41.9367C18.8272 40.9216 18.9463 37.5563 21.2724 36.5763L54.6422 22.5215Z" fill="#F28B51"/>
</svg>
