<svg width="71" height="48" viewBox="0 0 71 48" fill="none" xmlns="http://www.w3.org/2000/svg">
<path fill-rule="evenodd" clip-rule="evenodd" d="M65.3934 0.655418C66.2616 0.664007 67.1206 0.896281 67.8808 1.32806C68.6411 1.75984 69.2749 2.37534 69.7163 3.1105C70.1577 3.84565 70.3905 4.67359 70.3905 5.50814C70.3905 6.34269 70.1577 7.15333 69.7163 7.85569L46.7497 44.372C44.5306 47.8928 39.2416 48.2658 36.3403 44.8699C33.9135 42.0291 30.345 37.7221 27.2789 33.4974C25.7465 31.3837 21.1247 24.732 23.0858 22.1504C24.766 19.9444 39.1537 14.964 47.4635 11.9029C50.7259 10.6993 50.159 9.00132 46.5391 9.85476C37.5504 11.9732 23.2911 14.9531 18.7287 15.5671C14.7044 16.1079 12.8758 15.7323 10.9774 14.5804C7.51352 12.4796 4.44968 10.1689 2.09791 7.91972C-1.08031 4.88107 1.12363 0.028603 5.31189 0.0691683L65.3934 0.655418Z" fill="black"/>
</svg>
