<svg width="245" height="153" viewBox="0 0 245 153" fill="none" xmlns="http://www.w3.org/2000/svg">
<rect width="245" height="153" fill="#49DB01"/>
<path d="M42 44.7143H48.4286V51.1429H42V44.7143ZM48.4286 44.7143H54.8571V51.1429H48.4286V44.7143ZM54.8571 44.7143H61.2857V51.1429H54.8571V44.7143ZM61.2857 44.7143H67.7143V51.1429H61.2857V44.7143ZM67.7143 44.7143H74.1429V51.1429H67.7143V44.7143ZM74.1429 44.7143H80.5714V51.1429H74.1429V44.7143ZM74.1429 51.1429H80.5714V57.5714H74.1429V51.1429ZM67.7143 51.1429H74.1429V57.5714H67.7143V51.1429ZM61.2857 51.1429H67.7143V57.5714H61.2857V51.1429ZM54.8571 51.1429H61.2857V57.5714H54.8571V51.1429ZM48.4286 51.1429H54.8571V57.5714H48.4286V51.1429ZM42 51.1429H48.4286V57.5714H42V51.1429ZM80.5714 51.1429H87V57.5714H80.5714V51.1429ZM80.5714 57.5714H87V64H80.5714V57.5714ZM80.5714 64H87V70.4286H80.5714V64ZM74.1429 64H80.5714V70.4286H74.1429V64ZM74.1429 57.5714H80.5714V64H74.1429V57.5714ZM74.1429 70.4286H80.5714V76.8571H74.1429V70.4286ZM67.7143 70.4286H74.1429V76.8571H67.7143V70.4286ZM61.2857 70.4286H67.7143V76.8571H61.2857V70.4286ZM54.8571 70.4286H61.2857V76.8571H54.8571V70.4286ZM48.4286 70.4286H54.8571V76.8571H48.4286V70.4286ZM48.4286 64H54.8571V70.4286H48.4286V64ZM48.4286 57.5714H54.8571V64H48.4286V57.5714ZM42 57.5714H48.4286V64H42V57.5714ZM42 64H48.4286V70.4286H42V64ZM42 70.4286H48.4286V76.8571H42V70.4286ZM42 76.8571H48.4286V83.2857H42V76.8571ZM48.4286 76.8571H54.8571V83.2857H48.4286V76.8571ZM54.8571 76.8571H61.2857V83.2857H54.8571V76.8571ZM61.2857 76.8571H67.7143V83.2857H61.2857V76.8571ZM67.7143 76.8571H74.1429V83.2857H67.7143V76.8571ZM74.1429 76.8571H80.5714V83.2857H74.1429V76.8571ZM80.5714 76.8571H87V83.2857H80.5714V76.8571ZM80.5714 83.2857H87V89.7143H80.5714V83.2857ZM74.1429 83.2857H80.5714V89.7143H74.1429V83.2857ZM74.1429 96.1429H80.5714V102.571H74.1429V96.1429ZM80.5714 96.1429H87V102.571H80.5714V96.1429ZM80.5714 89.7143H87V96.1429H80.5714V89.7143ZM74.1429 89.7143H80.5714V96.1429H74.1429V89.7143ZM74.1429 102.571H80.5714V109H74.1429V102.571ZM67.7143 102.571H74.1429V109H67.7143V102.571ZM61.2857 102.571H67.7143V109H61.2857V102.571ZM54.8571 102.571H61.2857V109H54.8571V102.571ZM48.4286 102.571H54.8571V109H48.4286V102.571ZM42 102.571H48.4286V109H42V102.571ZM42 96.1429H48.4286V102.571H42V96.1429ZM42 89.7143H48.4286V96.1429H42V89.7143ZM42 83.2857H48.4286V89.7143H42V83.2857ZM48.4286 83.2857H54.8571V89.7143H48.4286V83.2857ZM48.4286 89.7143H54.8571V96.1429H48.4286V89.7143ZM48.4286 96.1429H54.8571V102.571H48.4286V96.1429ZM54.8571 96.1429H61.2857V102.571H54.8571V96.1429ZM61.2857 96.1429H67.7143V102.571H61.2857V96.1429ZM67.7143 96.1429H74.1429V102.571H67.7143V96.1429ZM99.8739 51.1429H106.302V57.5714H99.8739V51.1429ZM125.588 51.1429H132.017V57.5714H125.588V51.1429ZM125.588 57.5714H132.017V64H125.588V57.5714ZM132.017 51.1429H138.445V57.5714H132.017V51.1429ZM132.017 57.5714H138.445V64H132.017V57.5714ZM132.017 64H138.445V70.4286H132.017V64ZM132.017 70.4286H138.445V76.8571H132.017V70.4286ZM132.017 76.8571H138.445V83.2857H132.017V76.8571ZM132.017 83.2857H138.445V89.7143H132.017V83.2857ZM132.017 89.7143H138.445V96.1429H132.017V89.7143ZM132.017 96.1429H138.445V102.571H132.017V96.1429ZM125.588 96.1429H132.017V102.571H125.588V96.1429ZM125.588 89.7143H132.017V96.1429H125.588V89.7143ZM125.588 83.2857H132.017V89.7143H125.588V83.2857ZM125.588 76.8571H132.017V83.2857H125.588V76.8571ZM125.588 70.4286H132.017V76.8571H125.588V70.4286ZM125.588 64H132.017V70.4286H125.588V64ZM119.16 89.7143H125.588V96.1429H119.16V89.7143ZM119.16 96.1429H125.588V102.571H119.16V96.1429ZM125.588 102.571H132.017V109H125.588V102.571ZM119.16 102.571H125.588V109H119.16V102.571ZM112.731 102.571H119.16V109H112.731V102.571ZM112.731 96.1429H119.16V102.571H112.731V96.1429ZM106.302 102.571H112.731V109H106.302V102.571ZM99.8739 102.571H106.302V109H99.8739V102.571ZM99.8739 96.1429H106.302V102.571H99.8739V96.1429ZM106.302 96.1429H112.731V102.571H106.302V96.1429ZM106.302 89.7143H112.731V96.1429H106.302V89.7143ZM99.8739 89.7143H106.302V96.1429H99.8739V89.7143ZM93.4453 96.1429H99.8739V102.571H93.4453V96.1429ZM93.4453 89.7143H99.8739V96.1429H93.4453V89.7143ZM93.4453 83.2857H99.8739V89.7143H93.4453V83.2857ZM93.4453 76.8571H99.8739V83.2857H93.4453V76.8571ZM93.4453 70.4286H99.8739V76.8571H93.4453V70.4286ZM93.4453 64H99.8739V70.4286H93.4453V64ZM93.4453 57.5714H99.8739V64H93.4453V57.5714ZM99.8739 57.5714H106.302V64H99.8739V57.5714ZM93.4453 51.1429H99.8739V57.5714H93.4453V51.1429ZM99.8739 64H106.302V70.4286H99.8739V64ZM99.8739 70.4286H106.302V76.8571H99.8739V70.4286ZM99.8739 76.8571H106.302V83.2857H99.8739V76.8571ZM99.8739 83.2857H106.302V89.7143H99.8739V83.2857ZM93.4453 44.7143H99.8739V51.1429H93.4453V44.7143ZM99.8739 44.7143H106.302V51.1429H99.8739V44.7143ZM125.588 44.7143H132.017V51.1429H125.588V44.7143ZM132.017 44.7143H138.445V51.1429H132.017V44.7143ZM144.891 44.7143H151.319V51.1429H144.891V44.7143ZM151.319 44.7143H157.748V51.1429H151.319V44.7143ZM151.319 51.1429H157.748V57.5714H151.319V51.1429ZM151.319 57.5714H157.748V64H151.319V57.5714ZM144.891 57.5714H151.319V64H144.891V57.5714ZM144.891 51.1429H151.319V57.5714H144.891V51.1429ZM144.891 64H151.319V70.4286H144.891V64ZM144.891 70.4286H151.319V76.8571H144.891V70.4286ZM151.319 70.4286H157.748V76.8571H151.319V70.4286ZM151.319 64H157.748V70.4286H151.319V64ZM151.319 76.8571H157.748V83.2857H151.319V76.8571ZM157.748 76.8571H164.176V83.2857H157.748V76.8571ZM157.748 70.4286H164.176V76.8571H157.748V70.4286ZM157.748 83.2857H164.176V89.7143H157.748V83.2857ZM164.176 83.2857H170.605V89.7143H164.176V83.2857ZM164.176 76.8571H170.605V83.2857H164.176V76.8571ZM170.605 76.8571H177.033V83.2857H170.605V76.8571ZM170.605 83.2857H177.033V89.7143H170.605V83.2857ZM177.033 83.2857H183.462V89.7143H177.033V83.2857ZM177.033 76.8571H183.462V83.2857H177.033V76.8571ZM177.033 70.4286H183.462V76.8571H177.033V70.4286ZM183.462 70.4286H189.891V76.8571H183.462V70.4286ZM183.462 76.8571H189.891V83.2857H183.462V76.8571ZM183.462 64H189.891V70.4286H183.462V64ZM183.462 57.5714H189.891V64H183.462V57.5714ZM183.462 51.1429H189.891V57.5714H183.462V51.1429ZM183.462 44.7143H189.891V51.1429H183.462V44.7143ZM189.891 44.7143H196.319V51.1429H189.891V44.7143ZM189.891 51.1429H196.319V57.5714H189.891V51.1429ZM189.891 57.5714H196.319V64H189.891V57.5714ZM189.891 64H196.319V70.4286H189.891V64ZM189.891 70.4286H196.319V76.8571H189.891V70.4286ZM164.176 89.7143H170.605V96.1429H164.176V89.7143ZM164.176 96.1429H170.605V102.571H164.176V96.1429ZM164.176 102.571H170.605V109H164.176V102.571ZM170.605 102.571H177.033V109H170.605V102.571ZM170.605 96.1429H177.033V102.571H170.605V96.1429ZM170.605 89.7143H177.033V96.1429H170.605V89.7143Z" fill="#1C1C1C"/>
</svg>
