<svg width="46" height="46" viewBox="0 0 46 46" fill="none" xmlns="http://www.w3.org/2000/svg">
<path d="M45.2057 22.9328V22.8446C45.1619 10.3708 35.183 0.190857 22.9697 0.190857C10.7565 0.190857 0.733826 10.3708 0.733826 22.9328C0.733826 35.4963 10.7111 45.6558 22.9697 45.6558C28.5948 45.6596 34.0048 43.4796 38.0741 39.5692C38.4749 39.2005 38.7138 38.6866 38.7383 38.1405C38.7628 37.5945 38.5708 37.061 38.2047 36.6574C37.8385 36.2538 37.3281 36.0133 36.7858 35.9886C36.2434 35.964 35.7136 36.1573 35.3128 36.526L35.269 36.57C33.5132 38.2507 31.4382 39.5568 29.1686 40.4099C26.899 41.263 24.4816 41.6455 22.0615 41.5345C19.6414 41.4235 17.2686 40.8212 15.0854 39.7639C12.9023 38.7065 10.9538 37.2158 9.35707 35.3814L18.8559 20.0438V27.1411C18.8559 30.5323 20.1693 31.6359 21.2732 31.9445C22.3771 32.2531 24.033 32.0295 25.8264 29.1657L31.0379 20.6452C31.1771 20.3964 31.3381 20.1603 31.5164 19.9383V24.26C31.5164 27.4323 32.786 29.9891 34.9735 31.2219C35.9833 31.7755 37.1231 32.0434 38.272 31.9971C39.4208 31.9508 40.5358 31.592 41.4984 30.9589C44.0252 29.3074 45.3824 26.4153 45.2057 22.9328ZM39.4266 27.3961C39.0757 27.6395 38.6666 27.7841 38.2416 27.8148C37.8166 27.8455 37.3911 27.7613 37.0093 27.5709C36.1337 27.0435 35.6067 25.8548 35.6067 24.2238V19.2282C35.6067 16.8509 34.6874 15.1301 33.1128 14.6925C30.4406 13.8801 28.4298 17.2036 27.684 18.4379L22.9697 26.0611V16.6746C22.926 14.5161 22.2239 13.2377 20.9105 12.8394C20.0349 12.5765 18.7215 12.7103 17.4534 14.65L6.90378 31.6611C5.50034 28.9684 4.76484 25.9737 4.76009 22.9328C4.76009 12.6631 12.944 4.33305 22.9697 4.33305C32.9955 4.33305 41.1794 12.6631 41.1794 22.9328V23.0225C41.2842 25.0031 40.6525 26.5932 39.4282 27.3835L39.4266 27.3961Z" fill="#1C1C1C"/>
</svg>
