<svg width="229" height="39" viewBox="0 0 229 39" fill="none" xmlns="http://www.w3.org/2000/svg">
<path d="M17.5233 0H21.9041V4.33333H17.5233V0ZM21.9041 0H26.2849V4.33333H21.9041V0ZM21.9041 4.33333H26.2849V8.66667H21.9041V4.33333ZM21.9041 8.66667H26.2849V13H21.9041V8.66667ZM21.9041 13H26.2849V17.3333H21.9041V13ZM17.5233 13H21.9041V17.3333H17.5233V13ZM17.5233 8.66667H21.9041V13H17.5233V8.66667ZM17.5233 4.33333H21.9041V8.66667H17.5233V4.33333ZM35.0466 4.33333H39.4274V8.66667H35.0466V4.33333ZM35.0466 8.66667H39.4274V13H35.0466V8.66667ZM39.4274 8.66667H43.8082V13H39.4274V8.66667ZM35.0466 13H39.4274V17.3333H35.0466V13ZM30.6658 13H35.0466V17.3333H30.6658V13ZM30.6658 8.66667H35.0466V13H30.6658V8.66667ZM30.6658 17.3333H35.0466V21.6667H30.6658V17.3333ZM26.2849 17.3333H30.6658V21.6667H26.2849V17.3333ZM26.2849 13H30.6658V17.3333H26.2849V13ZM21.9041 17.3333H26.2849V21.6667H21.9041V17.3333ZM17.5233 17.3333H21.9041V21.6667H17.5233V17.3333ZM13.1425 17.3333H17.5233V21.6667H13.1425V17.3333ZM8.76164 17.3333H13.1425V21.6667H8.76164V17.3333ZM8.76164 13H13.1425V17.3333H8.76164V13ZM13.1425 13H17.5233V17.3333H13.1425V13ZM8.76164 8.66667H13.1425V13H8.76164V8.66667ZM4.38082 8.66667H8.76164V13H4.38082V8.66667ZM0 8.66667H4.38082V13H0V8.66667ZM4.38082 4.33333H8.76164V8.66667H4.38082V4.33333ZM4.38082 13H8.76164V17.3333H4.38082V13ZM13.1425 21.6667H17.5233V26H13.1425V21.6667ZM17.5233 21.6667H21.9041V26H17.5233V21.6667ZM21.9041 21.6667H26.2849V26H21.9041V21.6667ZM26.2849 21.6667H30.6658V26H26.2849V21.6667ZM26.2849 26H30.6658V30.3333H26.2849V26ZM30.6658 26H35.0466V30.3333H30.6658V26ZM26.2849 30.3333H30.6658V34.6667H26.2849V30.3333ZM30.6658 30.3333H35.0466V34.6667H30.6658V30.3333ZM35.0466 30.3333H39.4274V34.6667H35.0466V30.3333ZM30.6658 34.6667H35.0466V39H30.6658V34.6667ZM21.9041 26H26.2849V30.3333H21.9041V26ZM17.5233 26H21.9041V30.3333H17.5233V26ZM13.1425 26H17.5233V30.3333H13.1425V26ZM8.76164 26H13.1425V30.3333H8.76164V26ZM8.76164 30.3333H13.1425V34.6667H8.76164V30.3333ZM4.38082 30.3333H8.76164V34.6667H4.38082V30.3333ZM13.1425 30.3333H17.5233V34.6667H13.1425V30.3333ZM8.76164 34.6667H13.1425V39H8.76164V34.6667Z" fill="#3ADC20"/>
<path d="M109.948 0H114.329V4.33333H109.948V0ZM114.329 0H118.71V4.33333H114.329V0ZM114.329 4.33333H118.71V8.66667H114.329V4.33333ZM114.329 8.66667H118.71V13H114.329V8.66667ZM114.329 13H118.71V17.3333H114.329V13ZM109.948 13H114.329V17.3333H109.948V13ZM109.948 8.66667H114.329V13H109.948V8.66667ZM109.948 4.33333H114.329V8.66667H109.948V4.33333ZM127.471 4.33333H131.852V8.66667H127.471V4.33333ZM127.471 8.66667H131.852V13H127.471V8.66667ZM131.852 8.66667H136.233V13H131.852V8.66667ZM127.471 13H131.852V17.3333H127.471V13ZM123.09 13H127.471V17.3333H123.09V13ZM123.09 8.66667H127.471V13H123.09V8.66667ZM123.09 17.3333H127.471V21.6667H123.09V17.3333ZM118.71 17.3333H123.09V21.6667H118.71V17.3333ZM118.71 13H123.09V17.3333H118.71V13ZM114.329 17.3333H118.71V21.6667H114.329V17.3333ZM109.948 17.3333H114.329V21.6667H109.948V17.3333ZM105.567 17.3333H109.948V21.6667H105.567V17.3333ZM101.186 17.3333H105.567V21.6667H101.186V17.3333ZM101.186 13H105.567V17.3333H101.186V13ZM105.567 13H109.948V17.3333H105.567V13ZM101.186 8.66667H105.567V13H101.186V8.66667ZM96.8056 8.66667H101.186V13H96.8056V8.66667ZM92.4247 8.66667H96.8056V13H92.4247V8.66667ZM96.8056 4.33333H101.186V8.66667H96.8056V4.33333ZM96.8056 13H101.186V17.3333H96.8056V13ZM105.567 21.6667H109.948V26H105.567V21.6667ZM109.948 21.6667H114.329V26H109.948V21.6667ZM114.329 21.6667H118.71V26H114.329V21.6667ZM118.71 21.6667H123.09V26H118.71V21.6667ZM118.71 26H123.09V30.3333H118.71V26ZM123.09 26H127.471V30.3333H123.09V26ZM118.71 30.3333H123.09V34.6667H118.71V30.3333ZM123.09 30.3333H127.471V34.6667H123.09V30.3333ZM127.471 30.3333H131.852V34.6667H127.471V30.3333ZM123.09 34.6667H127.471V39H123.09V34.6667ZM114.329 26H118.71V30.3333H114.329V26ZM109.948 26H114.329V30.3333H109.948V26ZM105.567 26H109.948V30.3333H105.567V26ZM101.186 26H105.567V30.3333H101.186V26ZM101.186 30.3333H105.567V34.6667H101.186V30.3333ZM96.8056 30.3333H101.186V34.6667H96.8056V30.3333ZM105.567 30.3333H109.948V34.6667H105.567V30.3333ZM101.186 34.6667H105.567V39H101.186V34.6667Z" fill="#3ADC20"/>
<path d="M202.373 0H206.754V4.33333H202.373V0ZM206.754 0H211.134V4.33333H206.754V0ZM206.754 4.33333H211.134V8.66667H206.754V4.33333ZM206.754 8.66667H211.134V13H206.754V8.66667ZM206.754 13H211.134V17.3333H206.754V13ZM202.373 13H206.754V17.3333H202.373V13ZM202.373 8.66667H206.754V13H202.373V8.66667ZM202.373 4.33333H206.754V8.66667H202.373V4.33333ZM219.896 4.33333H224.277V8.66667H219.896V4.33333ZM219.896 8.66667H224.277V13H219.896V8.66667ZM224.277 8.66667H228.658V13H224.277V8.66667ZM219.896 13H224.277V17.3333H219.896V13ZM215.515 13H219.896V17.3333H215.515V13ZM215.515 8.66667H219.896V13H215.515V8.66667ZM215.515 17.3333H219.896V21.6667H215.515V17.3333ZM211.134 17.3333H215.515V21.6667H211.134V17.3333ZM211.134 13H215.515V17.3333H211.134V13ZM206.754 17.3333H211.134V21.6667H206.754V17.3333ZM202.373 17.3333H206.754V21.6667H202.373V17.3333ZM197.992 17.3333H202.373V21.6667H197.992V17.3333ZM193.611 17.3333H197.992V21.6667H193.611V17.3333ZM193.611 13H197.992V17.3333H193.611V13ZM197.992 13H202.373V17.3333H197.992V13ZM193.611 8.66667H197.992V13H193.611V8.66667ZM189.23 8.66667H193.611V13H189.23V8.66667ZM184.849 8.66667H189.23V13H184.849V8.66667ZM189.23 4.33333H193.611V8.66667H189.23V4.33333ZM189.23 13H193.611V17.3333H189.23V13ZM197.992 21.6667H202.373V26H197.992V21.6667ZM202.373 21.6667H206.754V26H202.373V21.6667ZM206.754 21.6667H211.134V26H206.754V21.6667ZM211.134 21.6667H215.515V26H211.134V21.6667ZM211.134 26H215.515V30.3333H211.134V26ZM215.515 26H219.896V30.3333H215.515V26ZM211.134 30.3333H215.515V34.6667H211.134V30.3333ZM215.515 30.3333H219.896V34.6667H215.515V30.3333ZM219.896 30.3333H224.277V34.6667H219.896V30.3333ZM215.515 34.6667H219.896V39H215.515V34.6667ZM206.754 26H211.134V30.3333H206.754V26ZM202.373 26H206.754V30.3333H202.373V26ZM197.992 26H202.373V30.3333H197.992V26ZM193.611 26H197.992V30.3333H193.611V26ZM193.611 30.3333H197.992V34.6667H193.611V30.3333ZM189.23 30.3333H193.611V34.6667H189.23V30.3333ZM197.992 30.3333H202.373V34.6667H197.992V30.3333ZM193.611 34.6667H197.992V39H193.611V34.6667Z" fill="#3ADC20"/>
</svg>
