<svg width="737" height="204" viewBox="0 0 737 204" fill="none" xmlns="http://www.w3.org/2000/svg">
<rect width="737" height="204" fill="#E9E9E9"/>
<path d="M112.824 56.5294H116.941V60.6471H112.824V56.5294ZM116.941 56.5294H121.059V60.6471H116.941V56.5294ZM121.059 60.6471H125.176V64.7647H121.059V60.6471ZM129.294 60.6471H133.412V64.7647H129.294V60.6471ZM125.176 60.6471H129.294V64.7647H125.176V60.6471ZM116.941 60.6471H121.059V64.7647H116.941V60.6471ZM112.824 60.6471H116.941V64.7647H112.824V60.6471ZM108.706 60.6471H112.824V64.7647H108.706V60.6471ZM104.588 60.6471H108.706V64.7647H104.588V60.6471ZM100.471 60.6471H104.588V64.7647H100.471V60.6471ZM100.471 64.7647H104.588V68.8824H100.471V64.7647ZM96.3529 64.7647H100.471V68.8824H96.3529V64.7647ZM92.2353 64.7647H96.3529V68.8824H92.2353V64.7647ZM92.2353 68.8824H96.3529V73H92.2353V68.8824ZM96.3529 68.8824H100.471V73H96.3529V68.8824ZM100.471 68.8824H104.588V73H100.471V68.8824ZM104.588 68.8824H108.706V73H104.588V68.8824ZM108.706 68.8824H112.824V73H108.706V68.8824ZM112.824 68.8824H116.941V73H112.824V68.8824ZM116.941 68.8824H121.059V73H116.941V68.8824ZM116.941 64.7647H121.059V68.8824H116.941V64.7647ZM121.059 64.7647H125.176V68.8824H121.059V64.7647ZM125.176 64.7647H129.294V68.8824H125.176V64.7647ZM129.294 64.7647H133.412V68.8824H129.294V64.7647ZM133.412 64.7647H137.529V68.8824H133.412V64.7647ZM137.529 64.7647H141.647V68.8824H137.529V64.7647ZM137.529 68.8824H141.647V73H137.529V68.8824ZM133.412 68.8824H137.529V73H133.412V68.8824ZM129.294 68.8824H133.412V73H129.294V68.8824ZM125.176 68.8824H129.294V73H125.176V68.8824ZM121.059 68.8824H125.176V73H121.059V68.8824ZM112.824 64.7647H116.941V68.8824H112.824V64.7647ZM108.706 64.7647H112.824V68.8824H108.706V64.7647ZM104.588 64.7647H108.706V68.8824H104.588V64.7647ZM88.1176 73H92.2353V77.1177H88.1176V73ZM92.2353 73H96.3529V77.1177H92.2353V73ZM96.3529 73H100.471V77.1177H96.3529V73ZM100.471 73H104.588V77.1177H100.471V73ZM104.588 73H108.706V77.1177H104.588V73ZM108.706 73H112.824V77.1177H108.706V73ZM112.824 73H116.941V77.1177H112.824V73ZM116.941 73H121.059V77.1177H116.941V73ZM121.059 73H125.176V77.1177H121.059V73ZM125.176 73H129.294V77.1177H125.176V73ZM129.294 73H133.412V77.1177H129.294V73ZM133.412 73H137.529V77.1177H133.412V73ZM137.529 73H141.647V77.1177H137.529V73ZM141.647 73H145.765V77.1177H141.647V73ZM141.647 77.1177H145.765V81.2353H141.647V77.1177ZM141.647 81.2353H145.765V85.3529H141.647V81.2353ZM137.529 81.2353H141.647V85.3529H137.529V81.2353ZM137.529 77.1177H141.647V81.2353H137.529V77.1177ZM133.412 77.1177H137.529V81.2353H133.412V77.1177ZM133.412 81.2353H137.529V85.3529H133.412V81.2353ZM129.294 77.1177H133.412V81.2353H129.294V77.1177ZM116.941 77.1177H121.059V81.2353H116.941V77.1177ZM116.941 81.2353H121.059V85.3529H116.941V81.2353ZM116.941 85.3529H121.059V89.4706H116.941V85.3529ZM116.941 89.4706H121.059V93.5882H116.941V89.4706ZM116.941 93.5882H121.059V97.7059H116.941V93.5882ZM116.941 97.7059H121.059V101.824H116.941V97.7059ZM116.941 101.824H121.059V105.941H116.941V101.824ZM112.824 101.824H116.941V105.941H112.824V101.824ZM112.824 97.7059H116.941V101.824H112.824V97.7059ZM112.824 93.5882H116.941V97.7059H112.824V93.5882ZM112.824 89.4706H116.941V93.5882H112.824V89.4706ZM112.824 85.3529H116.941V89.4706H112.824V85.3529ZM112.824 81.2353H116.941V85.3529H112.824V81.2353ZM112.824 77.1177H116.941V81.2353H112.824V77.1177ZM100.471 77.1177H104.588V81.2353H100.471V77.1177ZM96.3529 77.1177H100.471V81.2353H96.3529V77.1177ZM88.1176 77.1177H92.2353V81.2353H88.1176V77.1177ZM92.2353 77.1177H96.3529V81.2353H92.2353V77.1177ZM88.1176 81.2353H92.2353V85.3529H88.1176V81.2353ZM88.1176 85.3529H92.2353V89.4706H88.1176V85.3529ZM88.1176 89.4706H92.2353V93.5882H88.1176V89.4706ZM88.1176 93.5882H92.2353V97.7059H88.1176V93.5882ZM92.2353 93.5882H96.3529V97.7059H92.2353V93.5882ZM96.3529 93.5882H100.471V97.7059H96.3529V93.5882ZM96.3529 89.4706H100.471V93.5882H96.3529V89.4706ZM96.3529 85.3529H100.471V89.4706H96.3529V85.3529ZM96.3529 81.2353H100.471V85.3529H96.3529V81.2353ZM92.2353 81.2353H96.3529V85.3529H92.2353V81.2353ZM92.2353 85.3529H96.3529V89.4706H92.2353V85.3529ZM92.2353 89.4706H96.3529V93.5882H92.2353V89.4706ZM92.2353 97.7059H96.3529V101.824H92.2353V97.7059ZM92.2353 101.824H96.3529V105.941H92.2353V101.824ZM96.3529 101.824H100.471V105.941H96.3529V101.824ZM100.471 101.824H104.588V105.941H100.471V101.824ZM100.471 97.7059H104.588V101.824H100.471V97.7059ZM100.471 93.5882H104.588V97.7059H100.471V93.5882ZM100.471 89.4706H104.588V93.5882H100.471V89.4706ZM96.3529 97.7059H100.471V101.824H96.3529V97.7059ZM100.471 105.941H104.588V110.059H100.471V105.941ZM104.588 105.941H108.706V110.059H104.588V105.941ZM108.706 105.941H112.824V110.059H108.706V105.941ZM112.824 105.941H116.941V110.059H112.824V105.941ZM116.941 105.941H121.059V110.059H116.941V105.941ZM121.059 105.941H125.176V110.059H121.059V105.941ZM125.176 105.941H129.294V110.059H125.176V105.941ZM129.294 105.941H133.412V110.059H129.294V105.941ZM133.412 105.941H137.529V110.059H133.412V105.941ZM133.412 101.824H137.529V105.941H133.412V101.824ZM137.529 97.7059H141.647V101.824H137.529V97.7059ZM137.529 101.824H141.647V105.941H137.529V101.824ZM137.529 105.941H141.647V110.059H137.529V105.941ZM133.412 97.7059H137.529V101.824H133.412V97.7059ZM129.294 97.7059H133.412V101.824H129.294V97.7059ZM129.294 93.5882H133.412V97.7059H129.294V93.5882ZM125.176 93.5882H129.294V97.7059H125.176V93.5882ZM121.059 93.5882H125.176V97.7059H121.059V93.5882ZM108.706 93.5882H112.824V97.7059H108.706V93.5882ZM104.588 93.5882H108.706V97.7059H104.588V93.5882ZM104.588 97.7059H108.706V101.824H104.588V97.7059ZM104.588 101.824H108.706V105.941H104.588V101.824ZM108.706 101.824H112.824V105.941H108.706V101.824ZM121.059 101.824H125.176V105.941H121.059V101.824ZM125.176 101.824H129.294V105.941H125.176V101.824ZM129.294 101.824H133.412V105.941H129.294V101.824ZM125.176 97.7059H129.294V101.824H125.176V97.7059ZM121.059 97.7059H125.176V101.824H121.059V97.7059ZM108.706 97.7059H112.824V101.824H108.706V97.7059ZM129.294 110.059H133.412V114.176H129.294V110.059ZM133.412 110.059H137.529V114.176H133.412V110.059ZM137.529 110.059H141.647V114.176H137.529V110.059ZM141.647 110.059H145.765V114.176H141.647V110.059ZM141.647 105.941H145.765V110.059H141.647V105.941ZM141.647 114.176H145.765V118.294H141.647V114.176ZM141.647 118.294H145.765V122.412H141.647V118.294ZM141.647 122.412H145.765V126.529H141.647V122.412ZM141.647 126.529H145.765V130.647H141.647V126.529ZM137.529 126.529H141.647V130.647H137.529V126.529ZM137.529 122.412H141.647V126.529H137.529V122.412ZM137.529 118.294H141.647V122.412H137.529V118.294ZM137.529 114.176H141.647V118.294H137.529V114.176ZM133.412 114.176H137.529V118.294H133.412V114.176ZM133.412 118.294H137.529V122.412H133.412V118.294ZM133.412 122.412H137.529V126.529H133.412V122.412ZM133.412 126.529H137.529V130.647H133.412V126.529ZM133.412 130.647H137.529V134.765H133.412V130.647ZM137.529 134.765H141.647V138.882H137.529V134.765ZM137.529 130.647H141.647V134.765H137.529V130.647ZM133.412 134.765H137.529V138.882H133.412V134.765ZM129.294 122.412H133.412V126.529H129.294V122.412ZM129.294 126.529H133.412V130.647H129.294V126.529ZM129.294 130.647H133.412V134.765H129.294V130.647ZM129.294 134.765H133.412V138.882H129.294V134.765ZM129.294 138.882H133.412V143H129.294V138.882ZM125.176 138.882H129.294V143H125.176V138.882ZM121.059 138.882H125.176V143H121.059V138.882ZM116.941 138.882H121.059V143H116.941V138.882ZM112.824 138.882H116.941V143H112.824V138.882ZM108.706 138.882H112.824V143H108.706V138.882ZM112.824 143H116.941V147.118H112.824V143ZM112.824 147.118H116.941V151.235H112.824V147.118ZM116.941 143H121.059V147.118H116.941V143ZM116.941 147.118H121.059V151.235H116.941V147.118ZM104.588 138.882H108.706V143H104.588V138.882ZM100.471 138.882H104.588V143H100.471V138.882ZM100.471 134.765H104.588V138.882H100.471V134.765ZM96.3529 134.765H100.471V138.882H96.3529V134.765ZM96.3529 130.647H100.471V134.765H96.3529V130.647ZM92.2353 130.647H96.3529V134.765H92.2353V130.647ZM92.2353 134.765H96.3529V138.882H92.2353V134.765ZM88.1176 118.294H92.2353V122.412H88.1176V118.294ZM92.2353 118.294H96.3529V122.412H92.2353V118.294ZM92.2353 122.412H96.3529V126.529H92.2353V122.412ZM92.2353 126.529H96.3529V130.647H92.2353V126.529ZM88.1176 126.529H92.2353V130.647H88.1176V126.529ZM88.1176 122.412H92.2353V126.529H88.1176V122.412ZM96.3529 122.412H100.471V126.529H96.3529V122.412ZM96.3529 118.294H100.471V122.412H96.3529V118.294ZM100.471 122.412H104.588V126.529H100.471V122.412ZM100.471 126.529H104.588V130.647H100.471V126.529ZM96.3529 126.529H100.471V130.647H96.3529V126.529ZM104.588 126.529H108.706V130.647H104.588V126.529ZM108.706 126.529H112.824V130.647H108.706V126.529ZM112.824 126.529H116.941V130.647H112.824V126.529ZM116.941 126.529H121.059V130.647H116.941V126.529ZM121.059 126.529H125.176V130.647H121.059V126.529ZM125.176 126.529H129.294V130.647H125.176V126.529ZM125.176 130.647H129.294V134.765H125.176V130.647ZM121.059 130.647H125.176V134.765H121.059V130.647ZM116.941 130.647H121.059V134.765H116.941V130.647ZM112.824 130.647H116.941V134.765H112.824V130.647ZM108.706 130.647H112.824V134.765H108.706V130.647ZM104.588 130.647H108.706V134.765H104.588V130.647ZM104.588 134.765H108.706V138.882H104.588V134.765ZM100.471 130.647H104.588V134.765H100.471V130.647ZM108.706 134.765H112.824V138.882H108.706V134.765ZM112.824 134.765H116.941V138.882H112.824V134.765ZM116.941 134.765H121.059V138.882H116.941V134.765ZM121.059 134.765H125.176V138.882H121.059V134.765ZM125.176 134.765H129.294V138.882H125.176V134.765ZM112.824 122.412H116.941V126.529H112.824V122.412ZM112.824 118.294H116.941V122.412H112.824V118.294ZM112.824 114.176H116.941V118.294H112.824V114.176ZM112.824 110.059H116.941V114.176H112.824V110.059ZM116.941 110.059H121.059V114.176H116.941V110.059ZM116.941 114.176H121.059V118.294H116.941V114.176ZM116.941 118.294H121.059V122.412H116.941V118.294ZM116.941 122.412H121.059V126.529H116.941V122.412ZM211.647 81.2353H215.765V85.3529H211.647V81.2353ZM207.529 81.2353H211.647V85.3529H207.529V81.2353ZM203.412 81.2353H207.529V85.3529H203.412V81.2353ZM199.294 81.2353H203.412V85.3529H199.294V81.2353ZM199.294 77.1177H203.412V81.2353H199.294V77.1177ZM195.176 77.1177H199.294V81.2353H195.176V77.1177ZM203.412 77.1177H207.529V81.2353H203.412V77.1177ZM207.529 77.1177H211.647V81.2353H207.529V77.1177ZM211.647 77.1177H215.765V81.2353H211.647V77.1177ZM211.647 73H215.765V77.1177H211.647V73ZM207.529 73H211.647V77.1177H207.529V73ZM203.412 73H207.529V77.1177H203.412V73ZM203.412 68.8824H207.529V73H203.412V68.8824ZM207.529 68.8824H211.647V73H207.529V68.8824ZM203.412 64.7647H207.529V68.8824H203.412V64.7647ZM199.294 64.7647H203.412V68.8824H199.294V64.7647ZM199.294 68.8824H203.412V73H199.294V68.8824ZM207.529 64.7647H211.647V68.8824H207.529V64.7647ZM195.176 68.8824H199.294V73H195.176V68.8824ZM191.059 73H195.176V77.1177H191.059V73ZM186.941 73H191.059V77.1177H186.941V73ZM195.176 73H199.294V77.1177H195.176V73ZM199.294 73H203.412V77.1177H199.294V73ZM199.294 60.6471H203.412V64.7647H199.294V60.6471ZM195.176 60.6471H199.294V64.7647H195.176V60.6471ZM191.059 60.6471H195.176V64.7647H191.059V60.6471ZM186.941 60.6471H191.059V64.7647H186.941V60.6471ZM182.824 60.6471H186.941V64.7647H182.824V60.6471ZM178.706 60.6471H182.824V64.7647H178.706V60.6471ZM174.588 60.6471H178.706V64.7647H174.588V60.6471ZM170.471 60.6471H174.588V64.7647H170.471V60.6471ZM170.471 64.7647H174.588V68.8824H170.471V64.7647ZM166.353 64.7647H170.471V68.8824H166.353V64.7647ZM162.235 64.7647H166.353V68.8824H162.235V64.7647ZM162.235 68.8824H166.353V73H162.235V68.8824ZM166.353 68.8824H170.471V73H166.353V68.8824ZM170.471 68.8824H174.588V73H170.471V68.8824ZM174.588 68.8824H178.706V73H174.588V68.8824ZM178.706 68.8824H182.824V73H178.706V68.8824ZM182.824 68.8824H186.941V73H182.824V68.8824ZM186.941 68.8824H191.059V73H186.941V68.8824ZM191.059 68.8824H195.176V73H191.059V68.8824ZM195.176 64.7647H199.294V68.8824H195.176V64.7647ZM191.059 64.7647H195.176V68.8824H191.059V64.7647ZM186.941 64.7647H191.059V68.8824H186.941V64.7647ZM182.824 64.7647H186.941V68.8824H182.824V64.7647ZM178.706 64.7647H182.824V68.8824H178.706V64.7647ZM174.588 64.7647H178.706V68.8824H174.588V64.7647ZM162.235 73H166.353V77.1177H162.235V73ZM158.118 73H162.235V77.1177H158.118V73ZM166.353 73H170.471V77.1177H166.353V73ZM170.471 73H174.588V77.1177H170.471V73ZM174.588 73H178.706V77.1177H174.588V73ZM178.706 73H182.824V77.1177H178.706V73ZM182.824 73H186.941V77.1177H182.824V73ZM170.471 77.1177H174.588V81.2353H170.471V77.1177ZM174.588 77.1177H178.706V81.2353H174.588V77.1177ZM166.353 77.1177H170.471V81.2353H166.353V77.1177ZM162.235 77.1177H166.353V81.2353H162.235V77.1177ZM158.118 77.1177H162.235V81.2353H158.118V77.1177ZM158.118 81.2353H162.235V85.3529H158.118V81.2353ZM158.118 85.3529H162.235V89.4706H158.118V85.3529ZM158.118 89.4706H162.235V93.5882H158.118V89.4706ZM158.118 93.5882H162.235V97.7059H158.118V93.5882ZM162.235 89.4706H166.353V93.5882H162.235V89.4706ZM162.235 85.3529H166.353V89.4706H162.235V85.3529ZM162.235 81.2353H166.353V85.3529H162.235V81.2353ZM166.353 81.2353H170.471V85.3529H166.353V81.2353ZM166.353 85.3529H170.471V89.4706H166.353V85.3529ZM166.353 89.4706H170.471V93.5882H166.353V89.4706ZM170.471 89.4706H174.588V93.5882H170.471V89.4706ZM170.471 85.3529H174.588V89.4706H170.471V85.3529ZM170.471 81.2353H174.588V85.3529H170.471V81.2353ZM162.235 93.5882H166.353V97.7059H162.235V93.5882ZM162.235 97.7059H166.353V101.824H162.235V97.7059ZM162.235 101.824H166.353V105.941H162.235V101.824ZM166.353 101.824H170.471V105.941H166.353V101.824ZM170.471 101.824H174.588V105.941H170.471V101.824ZM170.471 97.7059H174.588V101.824H170.471V97.7059ZM166.353 97.7059H170.471V101.824H166.353V97.7059ZM166.353 93.5882H170.471V97.7059H166.353V93.5882ZM170.471 93.5882H174.588V97.7059H170.471V93.5882ZM174.588 89.4706H178.706V93.5882H174.588V89.4706ZM174.588 93.5882H178.706V97.7059H174.588V93.5882ZM174.588 97.7059H178.706V101.824H174.588V97.7059ZM174.588 101.824H178.706V105.941H174.588V101.824ZM170.471 105.941H174.588V110.059H170.471V105.941ZM174.588 105.941H178.706V110.059H174.588V105.941ZM178.706 105.941H182.824V110.059H178.706V105.941ZM182.824 105.941H186.941V110.059H182.824V105.941ZM186.941 105.941H191.059V110.059H186.941V105.941ZM191.059 105.941H195.176V110.059H191.059V105.941ZM191.059 101.824H195.176V105.941H191.059V101.824ZM191.059 97.7059H195.176V101.824H191.059V97.7059ZM186.941 93.5882H191.059V97.7059H186.941V93.5882ZM182.824 93.5882H186.941V97.7059H182.824V93.5882ZM178.706 93.5882H182.824V97.7059H178.706V93.5882ZM178.706 97.7059H182.824V101.824H178.706V97.7059ZM182.824 97.7059H186.941V101.824H182.824V97.7059ZM182.824 101.824H186.941V105.941H182.824V101.824ZM186.941 101.824H191.059V105.941H186.941V101.824ZM186.941 97.7059H191.059V101.824H186.941V97.7059ZM178.706 101.824H182.824V105.941H178.706V101.824ZM191.059 93.5882H195.176V97.7059H191.059V93.5882ZM195.176 93.5882H199.294V97.7059H195.176V93.5882ZM199.294 93.5882H203.412V97.7059H199.294V93.5882ZM199.294 97.7059H203.412V101.824H199.294V97.7059ZM199.294 101.824H203.412V105.941H199.294V101.824ZM195.176 101.824H199.294V105.941H195.176V101.824ZM195.176 97.7059H199.294V101.824H195.176V97.7059ZM203.412 101.824H207.529V105.941H203.412V101.824ZM207.529 101.824H211.647V105.941H207.529V101.824ZM207.529 97.7059H211.647V101.824H207.529V97.7059ZM203.412 97.7059H207.529V101.824H203.412V97.7059ZM199.294 105.941H203.412V110.059H199.294V105.941ZM199.294 110.059H203.412V114.176H199.294V110.059ZM195.176 110.059H199.294V114.176H195.176V110.059ZM195.176 105.941H199.294V110.059H195.176V105.941ZM203.412 110.059H207.529V114.176H203.412V110.059ZM207.529 110.059H211.647V114.176H207.529V110.059ZM207.529 105.941H211.647V110.059H207.529V105.941ZM203.412 105.941H207.529V110.059H203.412V105.941ZM211.647 105.941H215.765V110.059H211.647V105.941ZM211.647 110.059H215.765V114.176H211.647V110.059ZM211.647 114.176H215.765V118.294H211.647V114.176ZM211.647 118.294H215.765V122.412H211.647V118.294ZM207.529 118.294H211.647V122.412H207.529V118.294ZM203.412 118.294H207.529V122.412H203.412V118.294ZM203.412 114.176H207.529V118.294H203.412V114.176ZM199.294 114.176H203.412V118.294H199.294V114.176ZM199.294 118.294H203.412V122.412H199.294V118.294ZM207.529 114.176H211.647V118.294H207.529V114.176ZM211.647 122.412H215.765V126.529H211.647V122.412ZM211.647 126.529H215.765V130.647H211.647V126.529ZM207.529 126.529H211.647V130.647H207.529V126.529ZM207.529 130.647H211.647V134.765H207.529V130.647ZM207.529 134.765H211.647V138.882H207.529V134.765ZM203.412 134.765H207.529V138.882H203.412V134.765ZM199.294 134.765H203.412V138.882H199.294V134.765ZM203.412 130.647H207.529V134.765H203.412V130.647ZM203.412 126.529H207.529V130.647H203.412V126.529ZM207.529 122.412H211.647V126.529H207.529V122.412ZM203.412 122.412H207.529V126.529H203.412V122.412ZM199.294 122.412H203.412V126.529H199.294V122.412ZM195.176 122.412H199.294V126.529H195.176V122.412ZM195.176 126.529H199.294V130.647H195.176V126.529ZM199.294 130.647H203.412V134.765H199.294V130.647ZM199.294 126.529H203.412V130.647H199.294V126.529ZM195.176 130.647H199.294V134.765H195.176V130.647ZM195.176 134.765H199.294V138.882H195.176V134.765ZM199.294 138.882H203.412V143H199.294V138.882ZM195.176 138.882H199.294V143H195.176V138.882ZM191.059 138.882H195.176V143H191.059V138.882ZM186.941 138.882H191.059V143H186.941V138.882ZM182.824 138.882H186.941V143H182.824V138.882ZM178.706 138.882H182.824V143H178.706V138.882ZM174.588 138.882H178.706V143H174.588V138.882ZM174.588 134.765H178.706V138.882H174.588V134.765ZM170.471 134.765H174.588V138.882H170.471V134.765ZM170.471 138.882H174.588V143H170.471V138.882ZM166.353 134.765H170.471V138.882H166.353V134.765ZM162.235 134.765H166.353V138.882H162.235V134.765ZM162.235 130.647H166.353V134.765H162.235V130.647ZM166.353 130.647H170.471V134.765H166.353V130.647ZM162.235 126.529H166.353V130.647H162.235V126.529ZM158.118 126.529H162.235V130.647H158.118V126.529ZM158.118 122.412H162.235V126.529H158.118V122.412ZM158.118 118.294H162.235V122.412H158.118V118.294ZM162.235 118.294H166.353V122.412H162.235V118.294ZM166.353 118.294H170.471V122.412H166.353V118.294ZM170.471 118.294H174.588V122.412H170.471V118.294ZM170.471 122.412H174.588V126.529H170.471V122.412ZM174.588 122.412H178.706V126.529H174.588V122.412ZM174.588 126.529H178.706V130.647H174.588V126.529ZM178.706 126.529H182.824V130.647H178.706V126.529ZM182.824 126.529H186.941V130.647H182.824V126.529ZM186.941 126.529H191.059V130.647H186.941V126.529ZM191.059 130.647H195.176V134.765H191.059V130.647ZM191.059 126.529H195.176V130.647H191.059V126.529ZM191.059 134.765H195.176V138.882H191.059V134.765ZM186.941 134.765H191.059V138.882H186.941V134.765ZM182.824 134.765H186.941V138.882H182.824V134.765ZM178.706 134.765H182.824V138.882H178.706V134.765ZM170.471 130.647H174.588V134.765H170.471V130.647ZM174.588 130.647H178.706V134.765H174.588V130.647ZM178.706 130.647H182.824V134.765H178.706V130.647ZM182.824 130.647H186.941V134.765H182.824V130.647ZM186.941 130.647H191.059V134.765H186.941V130.647ZM170.471 126.529H174.588V130.647H170.471V126.529ZM166.353 126.529H170.471V130.647H166.353V126.529ZM166.353 122.412H170.471V126.529H166.353V122.412ZM162.235 122.412H166.353V126.529H162.235V122.412ZM228.118 60.6471H232.235V64.7647H228.118V60.6471ZM232.235 60.6471H236.353V64.7647H232.235V60.6471ZM236.353 60.6471H240.471V64.7647H236.353V60.6471ZM240.471 60.6471H244.588V64.7647H240.471V60.6471ZM244.588 60.6471H248.706V64.7647H244.588V60.6471ZM244.588 64.7647H248.706V68.8824H244.588V64.7647ZM244.588 68.8824H248.706V73H244.588V68.8824ZM244.588 73H248.706V77.1177H244.588V73ZM248.706 68.8824H252.824V73H248.706V68.8824ZM248.706 73H252.824V77.1177H248.706V73ZM248.706 77.1177H252.824V81.2353H248.706V77.1177ZM248.706 81.2353H252.824V85.3529H248.706V81.2353ZM248.706 85.3529H252.824V89.4706H248.706V85.3529ZM248.706 89.4706H252.824V93.5882H248.706V89.4706ZM248.706 93.5882H252.824V97.7059H248.706V93.5882ZM244.588 93.5882H248.706V97.7059H244.588V93.5882ZM244.588 89.4706H248.706V93.5882H244.588V89.4706ZM244.588 85.3529H248.706V89.4706H244.588V85.3529ZM244.588 81.2353H248.706V85.3529H244.588V81.2353ZM244.588 77.1177H248.706V81.2353H244.588V77.1177ZM228.118 138.882H232.235V143H228.118V138.882ZM232.235 138.882H236.353V143H232.235V138.882ZM236.353 138.882H240.471V143H236.353V138.882ZM240.471 134.765H244.588V138.882H240.471V134.765ZM240.471 130.647H244.588V134.765H240.471V130.647ZM240.471 126.529H244.588V130.647H240.471V126.529ZM236.353 126.529H240.471V130.647H236.353V126.529ZM236.353 130.647H240.471V134.765H236.353V130.647ZM240.471 138.882H244.588V143H240.471V138.882ZM236.353 134.765H240.471V138.882H236.353V134.765ZM232.235 134.765H236.353V138.882H232.235V134.765ZM228.118 134.765H232.235V138.882H228.118V134.765ZM228.118 130.647H232.235V134.765H228.118V130.647ZM228.118 126.529H232.235V130.647H228.118V126.529ZM232.235 126.529H236.353V130.647H232.235V126.529ZM232.235 130.647H236.353V134.765H232.235V130.647ZM232.235 122.412H236.353V126.529H232.235V122.412ZM228.118 122.412H232.235V126.529H228.118V122.412ZM228.118 118.294H232.235V122.412H228.118V118.294ZM228.118 114.176H232.235V118.294H228.118V114.176ZM228.118 110.059H232.235V114.176H228.118V110.059ZM228.118 105.941H232.235V110.059H228.118V105.941ZM228.118 101.824H232.235V105.941H228.118V101.824ZM232.235 105.941H236.353V110.059H232.235V105.941ZM232.235 101.824H236.353V105.941H232.235V101.824ZM236.353 101.824H240.471V105.941H236.353V101.824ZM236.353 105.941H240.471V110.059H236.353V105.941ZM236.353 110.059H240.471V114.176H236.353V110.059ZM240.471 110.059H244.588V114.176H240.471V110.059ZM240.471 114.176H244.588V118.294H240.471V114.176ZM240.471 118.294H244.588V122.412H240.471V118.294ZM240.471 122.412H244.588V126.529H240.471V122.412ZM240.471 105.941H244.588V110.059H240.471V105.941ZM240.471 101.824H244.588V105.941H240.471V101.824ZM232.235 110.059H236.353V114.176H232.235V110.059ZM232.235 114.176H236.353V118.294H232.235V114.176ZM232.235 118.294H236.353V122.412H232.235V118.294ZM236.353 122.412H240.471V126.529H236.353V122.412ZM236.353 118.294H240.471V122.412H236.353V118.294ZM236.353 114.176H240.471V118.294H236.353V114.176ZM240.471 97.7059H244.588V101.824H240.471V97.7059ZM236.353 97.7059H240.471V101.824H236.353V97.7059ZM232.235 97.7059H236.353V101.824H232.235V97.7059ZM228.118 97.7059H232.235V101.824H228.118V97.7059ZM228.118 93.5882H232.235V97.7059H228.118V93.5882ZM232.235 93.5882H236.353V97.7059H232.235V93.5882ZM236.353 93.5882H240.471V97.7059H236.353V93.5882ZM240.471 93.5882H244.588V97.7059H240.471V93.5882ZM240.471 89.4706H244.588V93.5882H240.471V89.4706ZM240.471 85.3529H244.588V89.4706H240.471V85.3529ZM236.353 85.3529H240.471V89.4706H236.353V85.3529ZM232.235 85.3529H236.353V89.4706H232.235V85.3529ZM232.235 89.4706H236.353V93.5882H232.235V89.4706ZM236.353 89.4706H240.471V93.5882H236.353V89.4706ZM228.118 89.4706H232.235V93.5882H228.118V89.4706ZM248.706 101.824H252.824V105.941H248.706V101.824ZM248.706 97.7059H252.824V101.824H248.706V97.7059ZM252.824 77.1177H256.941V81.2353H252.824V77.1177ZM252.824 81.2353H256.941V85.3529H252.824V81.2353ZM252.824 85.3529H256.941V89.4706H252.824V85.3529ZM252.824 89.4706H256.941V93.5882H252.824V89.4706ZM252.824 93.5882H256.941V97.7059H252.824V93.5882ZM252.824 97.7059H256.941V101.824H252.824V97.7059ZM252.824 101.824H256.941V105.941H252.824V101.824ZM252.824 105.941H256.941V110.059H252.824V105.941ZM252.824 110.059H256.941V114.176H252.824V110.059ZM256.941 110.059H261.059V114.176H256.941V110.059ZM256.941 105.941H261.059V110.059H256.941V105.941ZM256.941 101.824H261.059V105.941H256.941V101.824ZM256.941 97.7059H261.059V101.824H256.941V97.7059ZM256.941 93.5882H261.059V97.7059H256.941V93.5882ZM256.941 89.4706H261.059V93.5882H256.941V89.4706ZM256.941 85.3529H261.059V89.4706H256.941V85.3529ZM256.941 114.176H261.059V118.294H256.941V114.176ZM256.941 118.294H261.059V122.412H256.941V118.294ZM261.059 118.294H265.176V122.412H261.059V118.294ZM261.059 114.176H265.176V118.294H261.059V114.176ZM261.059 110.059H265.176V114.176H261.059V110.059ZM261.059 105.941H265.176V110.059H261.059V105.941ZM261.059 101.824H265.176V105.941H261.059V101.824ZM261.059 97.7059H265.176V101.824H261.059V97.7059ZM261.059 93.5882H265.176V97.7059H261.059V93.5882ZM261.059 122.412H265.176V126.529H261.059V122.412ZM261.059 126.529H265.176V130.647H261.059V126.529ZM265.176 126.529H269.294V130.647H265.176V126.529ZM265.176 122.412H269.294V126.529H265.176V122.412ZM265.176 118.294H269.294V122.412H265.176V118.294ZM265.176 114.176H269.294V118.294H265.176V114.176ZM265.176 110.059H269.294V114.176H265.176V110.059ZM265.176 105.941H269.294V110.059H265.176V105.941ZM265.176 101.824H269.294V105.941H265.176V101.824ZM265.176 130.647H269.294V134.765H265.176V130.647ZM265.176 134.765H269.294V138.882H265.176V134.765ZM269.294 134.765H273.412V138.882H269.294V134.765ZM269.294 130.647H273.412V134.765H269.294V130.647ZM269.294 126.529H273.412V130.647H269.294V126.529ZM269.294 122.412H273.412V126.529H269.294V122.412ZM269.294 118.294H273.412V122.412H269.294V118.294ZM269.294 114.176H273.412V118.294H269.294V114.176ZM269.294 110.059H273.412V114.176H269.294V110.059ZM269.294 138.882H273.412V143H269.294V138.882ZM228.118 64.7647H232.235V68.8824H228.118V64.7647ZM228.118 68.8824H232.235V73H228.118V68.8824ZM228.118 73H232.235V77.1177H228.118V73ZM228.118 77.1177H232.235V81.2353H228.118V77.1177ZM228.118 81.2353H232.235V85.3529H228.118V81.2353ZM228.118 85.3529H232.235V89.4706H228.118V85.3529ZM236.353 81.2353H240.471V85.3529H236.353V81.2353ZM240.471 81.2353H244.588V85.3529H240.471V81.2353ZM240.471 77.1177H244.588V81.2353H240.471V77.1177ZM240.471 73H244.588V77.1177H240.471V73ZM240.471 68.8824H244.588V73H240.471V68.8824ZM236.353 68.8824H240.471V73H236.353V68.8824ZM236.353 64.7647H240.471V68.8824H236.353V64.7647ZM232.235 64.7647H236.353V68.8824H232.235V64.7647ZM232.235 68.8824H236.353V73H232.235V68.8824ZM232.235 73H236.353V77.1177H232.235V73ZM232.235 77.1177H236.353V81.2353H232.235V77.1177ZM232.235 81.2353H236.353V85.3529H232.235V81.2353ZM236.353 77.1177H240.471V81.2353H236.353V77.1177ZM236.353 73H240.471V77.1177H236.353V73ZM240.471 64.7647H244.588V68.8824H240.471V64.7647ZM273.412 60.6471H277.529V64.7647H273.412V60.6471ZM277.529 60.6471H281.647V64.7647H277.529V60.6471ZM281.647 60.6471H285.765V64.7647H281.647V60.6471ZM285.765 60.6471H289.882V64.7647H285.765V60.6471ZM277.529 64.7647H281.647V68.8824H277.529V64.7647ZM273.412 64.7647H277.529V68.8824H273.412V64.7647ZM273.412 68.8824H277.529V73H273.412V68.8824ZM273.412 73H277.529V77.1177H273.412V73ZM273.412 77.1177H277.529V81.2353H273.412V77.1177ZM273.412 81.2353H277.529V85.3529H273.412V81.2353ZM273.412 85.3529H277.529V89.4706H273.412V85.3529ZM277.529 85.3529H281.647V89.4706H277.529V85.3529ZM277.529 89.4706H281.647V93.5882H277.529V89.4706ZM277.529 93.5882H281.647V97.7059H277.529V93.5882ZM277.529 97.7059H281.647V101.824H277.529V97.7059ZM277.529 101.824H281.647V105.941H277.529V101.824ZM277.529 105.941H281.647V110.059H277.529V105.941ZM277.529 110.059H281.647V114.176H277.529V110.059ZM273.412 97.7059H277.529V101.824H273.412V97.7059ZM273.412 93.5882H277.529V97.7059H273.412V93.5882ZM273.412 89.4706H277.529V93.5882H273.412V89.4706ZM273.412 101.824H277.529V105.941H273.412V101.824ZM273.412 105.941H277.529V110.059H273.412V105.941ZM273.412 110.059H277.529V114.176H273.412V110.059ZM273.412 114.176H277.529V118.294H273.412V114.176ZM273.412 118.294H277.529V122.412H273.412V118.294ZM273.412 122.412H277.529V126.529H273.412V122.412ZM273.412 126.529H277.529V130.647H273.412V126.529ZM273.412 130.647H277.529V134.765H273.412V130.647ZM273.412 134.765H277.529V138.882H273.412V134.765ZM273.412 138.882H277.529V143H273.412V138.882ZM277.529 138.882H281.647V143H277.529V138.882ZM281.647 138.882H285.765V143H281.647V138.882ZM285.765 138.882H289.882V143H285.765V138.882ZM285.765 134.765H289.882V138.882H285.765V134.765ZM285.765 130.647H289.882V134.765H285.765V130.647ZM281.647 130.647H285.765V134.765H281.647V130.647ZM281.647 126.529H285.765V130.647H281.647V126.529ZM281.647 122.412H285.765V126.529H281.647V122.412ZM277.529 118.294H281.647V122.412H277.529V118.294ZM277.529 122.412H281.647V126.529H277.529V122.412ZM277.529 126.529H281.647V130.647H277.529V126.529ZM277.529 130.647H281.647V134.765H277.529V130.647ZM277.529 134.765H281.647V138.882H277.529V134.765ZM281.647 134.765H285.765V138.882H281.647V134.765ZM285.765 126.529H289.882V130.647H285.765V126.529ZM281.647 118.294H285.765V122.412H281.647V118.294ZM277.529 114.176H281.647V118.294H277.529V114.176ZM285.765 64.7647H289.882V68.8824H285.765V64.7647ZM285.765 68.8824H289.882V73H285.765V68.8824ZM285.765 73H289.882V77.1177H285.765V73ZM285.765 77.1177H289.882V81.2353H285.765V77.1177ZM285.765 81.2353H289.882V85.3529H285.765V81.2353ZM285.765 85.3529H289.882V89.4706H285.765V85.3529ZM285.765 89.4706H289.882V93.5882H285.765V89.4706ZM285.765 93.5882H289.882V97.7059H285.765V93.5882ZM285.765 97.7059H289.882V101.824H285.765V97.7059ZM285.765 101.824H289.882V105.941H285.765V101.824ZM285.765 105.941H289.882V110.059H285.765V105.941ZM285.765 110.059H289.882V114.176H285.765V110.059ZM285.765 114.176H289.882V118.294H285.765V114.176ZM285.765 118.294H289.882V122.412H285.765V118.294ZM285.765 122.412H289.882V126.529H285.765V122.412ZM281.647 114.176H285.765V118.294H281.647V114.176ZM281.647 110.059H285.765V114.176H281.647V110.059ZM281.647 105.941H285.765V110.059H281.647V105.941ZM281.647 101.824H285.765V105.941H281.647V101.824ZM281.647 97.7059H285.765V101.824H281.647V97.7059ZM281.647 93.5882H285.765V97.7059H281.647V93.5882ZM281.647 89.4706H285.765V93.5882H281.647V89.4706ZM281.647 85.3529H285.765V89.4706H281.647V85.3529ZM281.647 81.2353H285.765V85.3529H281.647V81.2353ZM281.647 77.1177H285.765V81.2353H281.647V77.1177ZM281.647 73H285.765V77.1177H281.647V73ZM281.647 68.8824H285.765V73H281.647V68.8824ZM281.647 64.7647H285.765V68.8824H281.647V64.7647ZM277.529 68.8824H281.647V73H277.529V68.8824ZM277.529 73H281.647V77.1177H277.529V73ZM277.529 77.1177H281.647V81.2353H277.529V77.1177ZM277.529 81.2353H281.647V85.3529H277.529V81.2353ZM351.631 126.529H355.749V130.647H351.631V126.529ZM347.513 126.529H351.631V130.647H347.513V126.529ZM343.396 126.529H347.513V130.647H343.396V126.529ZM343.396 130.647H347.513V134.765H343.396V130.647ZM347.513 130.647H351.631V134.765H347.513V130.647ZM343.396 134.765H347.513V138.882H343.396V134.765ZM339.278 134.765H343.396V138.882H339.278V134.765ZM347.513 134.765H351.631V138.882H347.513V134.765ZM339.278 138.882H343.396V143H339.278V138.882ZM335.16 138.882H339.278V143H335.16V138.882ZM331.043 138.882H335.16V143H331.043V138.882ZM326.925 138.882H331.043V143H326.925V138.882ZM322.807 138.882H326.925V143H322.807V138.882ZM318.69 138.882H322.807V143H318.69V138.882ZM314.572 138.882H318.69V143H314.572V138.882ZM314.572 134.765H318.69V138.882H314.572V134.765ZM310.455 134.765H314.572V138.882H310.455V134.765ZM306.337 134.765H310.455V138.882H306.337V134.765ZM306.337 130.647H310.455V134.765H306.337V130.647ZM310.455 130.647H314.572V134.765H310.455V130.647ZM314.572 130.647H318.69V134.765H314.572V130.647ZM318.69 130.647H322.807V134.765H318.69V130.647ZM322.807 130.647H326.925V134.765H322.807V130.647ZM326.925 130.647H331.043V134.765H326.925V130.647ZM331.043 130.647H335.16V134.765H331.043V130.647ZM335.16 130.647H339.278V134.765H335.16V130.647ZM339.278 130.647H343.396V134.765H339.278V130.647ZM335.16 134.765H339.278V138.882H335.16V134.765ZM331.043 134.765H335.16V138.882H331.043V134.765ZM326.925 134.765H331.043V138.882H326.925V134.765ZM322.807 134.765H326.925V138.882H322.807V134.765ZM318.69 134.765H322.807V138.882H318.69V134.765ZM310.455 126.529H314.572V130.647H310.455V126.529ZM306.337 126.529H310.455V130.647H306.337V126.529ZM302.219 126.529H306.337V130.647H302.219V126.529ZM310.455 122.412H314.572V126.529H310.455V122.412ZM314.572 122.412H318.69V126.529H314.572V122.412ZM318.69 122.412H322.807V126.529H318.69V122.412ZM318.69 126.529H322.807V130.647H318.69V126.529ZM314.572 126.529H318.69V130.647H314.572V126.529ZM306.337 122.412H310.455V126.529H306.337V122.412ZM306.337 118.294H310.455V122.412H306.337V118.294ZM302.219 118.294H306.337V122.412H302.219V118.294ZM302.219 114.176H306.337V118.294H302.219V114.176ZM302.219 122.412H306.337V126.529H302.219V122.412ZM302.219 110.059H306.337V114.176H302.219V110.059ZM306.337 110.059H310.455V114.176H306.337V110.059ZM310.455 110.059H314.572V114.176H310.455V110.059ZM314.572 110.059H318.69V114.176H314.572V110.059ZM314.572 114.176H318.69V118.294H314.572V114.176ZM314.572 118.294H318.69V122.412H314.572V118.294ZM310.455 114.176H314.572V118.294H310.455V114.176ZM306.337 114.176H310.455V118.294H306.337V114.176ZM310.455 118.294H314.572V122.412H310.455V118.294ZM322.807 126.529H326.925V130.647H322.807V126.529ZM326.925 126.529H331.043V130.647H326.925V126.529ZM331.043 126.529H335.16V130.647H331.043V126.529ZM335.16 126.529H339.278V130.647H335.16V126.529ZM339.278 126.529H343.396V130.647H339.278V126.529ZM339.278 122.412H343.396V126.529H339.278V122.412ZM335.16 122.412H339.278V126.529H335.16V122.412ZM343.396 122.412H347.513V126.529H343.396V122.412ZM347.513 122.412H351.631V126.529H347.513V122.412ZM347.513 118.294H351.631V122.412H347.513V118.294ZM351.631 118.294H355.749V122.412H351.631V118.294ZM351.631 114.176H355.749V118.294H351.631V114.176ZM351.631 122.412H355.749V126.529H351.631V122.412ZM351.631 110.059H355.749V114.176H351.631V110.059ZM351.631 105.941H355.749V110.059H351.631V105.941ZM351.631 101.824H355.749V105.941H351.631V101.824ZM351.631 97.7059H355.749V101.824H351.631V97.7059ZM351.631 93.5882H355.749V97.7059H351.631V93.5882ZM347.513 93.5882H351.631V97.7059H347.513V93.5882ZM347.513 89.4706H351.631V93.5882H347.513V89.4706ZM343.396 93.5882H347.513V97.7059H343.396V93.5882ZM339.278 93.5882H343.396V97.7059H339.278V93.5882ZM339.278 97.7059H343.396V101.824H339.278V97.7059ZM339.278 101.824H343.396V105.941H339.278V101.824ZM339.278 105.941H343.396V110.059H339.278V105.941ZM339.278 110.059H343.396V114.176H339.278V110.059ZM339.278 114.176H343.396V118.294H339.278V114.176ZM339.278 118.294H343.396V122.412H339.278V118.294ZM343.396 118.294H347.513V122.412H343.396V118.294ZM343.396 114.176H347.513V118.294H343.396V114.176ZM347.513 114.176H351.631V118.294H347.513V114.176ZM347.513 110.059H351.631V114.176H347.513V110.059ZM347.513 105.941H351.631V110.059H347.513V105.941ZM347.513 101.824H351.631V105.941H347.513V101.824ZM343.396 97.7059H347.513V101.824H343.396V97.7059ZM343.396 101.824H347.513V105.941H343.396V101.824ZM343.396 105.941H347.513V110.059H343.396V105.941ZM343.396 110.059H347.513V114.176H343.396V110.059ZM347.513 97.7059H351.631V101.824H347.513V97.7059ZM351.631 89.4706H355.749V93.5882H351.631V89.4706ZM351.631 85.3529H355.749V89.4706H351.631V85.3529ZM351.631 81.2353H355.749V85.3529H351.631V81.2353ZM351.631 77.1177H355.749V81.2353H351.631V77.1177ZM351.631 73H355.749V77.1177H351.631V73ZM347.513 73H351.631V77.1177H347.513V73ZM347.513 68.8824H351.631V73H347.513V68.8824ZM347.513 64.7647H351.631V68.8824H347.513V64.7647ZM343.396 64.7647H347.513V68.8824H343.396V64.7647ZM339.278 64.7647H343.396V68.8824H339.278V64.7647ZM343.396 89.4706H347.513V93.5882H343.396V89.4706ZM343.396 85.3529H347.513V89.4706H343.396V85.3529ZM343.396 81.2353H347.513V85.3529H343.396V81.2353ZM347.513 81.2353H351.631V85.3529H347.513V81.2353ZM347.513 77.1177H351.631V81.2353H347.513V77.1177ZM347.513 85.3529H351.631V89.4706H347.513V85.3529ZM339.278 89.4706H343.396V93.5882H339.278V89.4706ZM339.278 85.3529H343.396V89.4706H339.278V85.3529ZM343.396 77.1177H347.513V81.2353H343.396V77.1177ZM339.278 77.1177H343.396V81.2353H339.278V77.1177ZM339.278 81.2353H343.396V85.3529H339.278V81.2353ZM335.16 77.1177H339.278V81.2353H335.16V77.1177ZM335.16 73H339.278V77.1177H335.16V73ZM339.278 68.8824H343.396V73H339.278V68.8824ZM343.396 68.8824H347.513V73H343.396V68.8824ZM343.396 73H347.513V77.1177H343.396V73ZM339.278 73H343.396V77.1177H339.278V73ZM335.16 68.8824H339.278V73H335.16V68.8824ZM335.16 64.7647H339.278V68.8824H335.16V64.7647ZM335.16 60.6471H339.278V64.7647H335.16V60.6471ZM339.278 60.6471H343.396V64.7647H339.278V60.6471ZM331.043 60.6471H335.16V64.7647H331.043V60.6471ZM326.925 60.6471H331.043V64.7647H326.925V60.6471ZM322.807 60.6471H326.925V64.7647H322.807V60.6471ZM318.69 60.6471H322.807V64.7647H318.69V60.6471ZM318.69 64.7647H322.807V68.8824H318.69V64.7647ZM314.572 64.7647H318.69V68.8824H314.572V64.7647ZM314.572 60.6471H318.69V64.7647H314.572V60.6471ZM310.455 64.7647H314.572V68.8824H310.455V64.7647ZM306.337 64.7647H310.455V68.8824H306.337V64.7647ZM306.337 68.8824H310.455V73H306.337V68.8824ZM306.337 73H310.455V77.1177H306.337V73ZM302.219 73H306.337V77.1177H302.219V73ZM302.219 77.1177H306.337V81.2353H302.219V77.1177ZM306.337 77.1177H310.455V81.2353H306.337V77.1177ZM310.455 77.1177H314.572V81.2353H310.455V77.1177ZM314.572 77.1177H318.69V81.2353H314.572V77.1177ZM318.69 77.1177H322.807V81.2353H318.69V77.1177ZM318.69 73H322.807V77.1177H318.69V73ZM322.807 73H326.925V77.1177H322.807V73ZM326.925 73H331.043V77.1177H326.925V73ZM331.043 73H335.16V77.1177H331.043V73ZM331.043 64.7647H335.16V68.8824H331.043V64.7647ZM331.043 68.8824H335.16V73H331.043V68.8824ZM326.925 68.8824H331.043V73H326.925V68.8824ZM322.807 68.8824H326.925V73H322.807V68.8824ZM326.925 64.7647H331.043V68.8824H326.925V64.7647ZM322.807 64.7647H326.925V68.8824H322.807V64.7647ZM318.69 68.8824H322.807V73H318.69V68.8824ZM314.572 68.8824H318.69V73H314.572V68.8824ZM314.572 73H318.69V77.1177H314.572V73ZM310.455 73H314.572V77.1177H310.455V73ZM310.455 68.8824H314.572V73H310.455V68.8824ZM310.455 81.2353H314.572V85.3529H310.455V81.2353ZM310.455 85.3529H314.572V89.4706H310.455V85.3529ZM310.455 89.4706H314.572V93.5882H310.455V89.4706ZM310.455 93.5882H314.572V97.7059H310.455V93.5882ZM314.572 93.5882H318.69V97.7059H314.572V93.5882ZM314.572 97.7059H318.69V101.824H314.572V97.7059ZM314.572 89.4706H318.69V93.5882H314.572V89.4706ZM314.572 85.3529H318.69V89.4706H314.572V85.3529ZM314.572 81.2353H318.69V85.3529H314.572V81.2353ZM314.572 101.824H318.69V105.941H314.572V101.824ZM314.572 105.941H318.69V110.059H314.572V105.941ZM310.455 105.941H314.572V110.059H310.455V105.941ZM306.337 105.941H310.455V110.059H306.337V105.941ZM302.219 101.824H306.337V105.941H302.219V101.824ZM302.219 105.941H306.337V110.059H302.219V105.941ZM302.219 97.7059H306.337V101.824H302.219V97.7059ZM302.219 93.5882H306.337V97.7059H302.219V93.5882ZM302.219 89.4706H306.337V93.5882H302.219V89.4706ZM302.219 85.3529H306.337V89.4706H302.219V85.3529ZM302.219 81.2353H306.337V85.3529H302.219V81.2353ZM306.337 85.3529H310.455V89.4706H306.337V85.3529ZM306.337 89.4706H310.455V93.5882H306.337V89.4706ZM306.337 93.5882H310.455V97.7059H306.337V93.5882ZM306.337 97.7059H310.455V101.824H306.337V97.7059ZM306.337 101.824H310.455V105.941H306.337V101.824ZM310.455 101.824H314.572V105.941H310.455V101.824ZM310.455 97.7059H314.572V101.824H310.455V97.7059ZM306.337 81.2353H310.455V85.3529H306.337V81.2353ZM368.118 64.7647H372.235V68.8824H368.118V64.7647ZM372.235 64.7647H376.353V68.8824H372.235V64.7647ZM372.235 60.6471H376.353V64.7647H372.235V60.6471ZM368.118 60.6471H372.235V64.7647H368.118V60.6471ZM376.353 60.6471H380.471V64.7647H376.353V60.6471ZM376.353 64.7647H380.471V68.8824H376.353V64.7647ZM380.471 64.7647H384.588V68.8824H380.471V64.7647ZM380.471 68.8824H384.588V73H380.471V68.8824ZM380.471 60.6471H384.588V64.7647H380.471V60.6471ZM380.471 73H384.588V77.1177H380.471V73ZM380.471 81.2353H384.588V85.3529H380.471V81.2353ZM380.471 85.3529H384.588V89.4706H380.471V85.3529ZM380.471 89.4706H384.588V93.5882H380.471V89.4706ZM380.471 93.5882H384.588V97.7059H380.471V93.5882ZM380.471 97.7059H384.588V101.824H380.471V97.7059ZM380.471 101.824H384.588V105.941H380.471V101.824ZM380.471 105.941H384.588V110.059H380.471V105.941ZM380.471 110.059H384.588V114.176H380.471V110.059ZM380.471 77.1177H384.588V81.2353H380.471V77.1177ZM376.353 68.8824H380.471V73H376.353V68.8824ZM372.235 68.8824H376.353V73H372.235V68.8824ZM372.235 73H376.353V77.1177H372.235V73ZM372.235 77.1177H376.353V81.2353H372.235V77.1177ZM376.353 77.1177H380.471V81.2353H376.353V77.1177ZM376.353 81.2353H380.471V85.3529H376.353V81.2353ZM376.353 85.3529H380.471V89.4706H376.353V85.3529ZM376.353 89.4706H380.471V93.5882H376.353V89.4706ZM376.353 93.5882H380.471V97.7059H376.353V93.5882ZM376.353 97.7059H380.471V101.824H376.353V97.7059ZM376.353 101.824H380.471V105.941H376.353V101.824ZM376.353 105.941H380.471V110.059H376.353V105.941ZM376.353 73H380.471V77.1177H376.353V73ZM368.118 68.8824H372.235V73H368.118V68.8824ZM368.118 73H372.235V77.1177H368.118V73ZM368.118 77.1177H372.235V81.2353H368.118V77.1177ZM368.118 81.2353H372.235V85.3529H368.118V81.2353ZM368.118 85.3529H372.235V89.4706H368.118V85.3529ZM368.118 89.4706H372.235V93.5882H368.118V89.4706ZM368.118 93.5882H372.235V97.7059H368.118V93.5882ZM368.118 97.7059H372.235V101.824H368.118V97.7059ZM368.118 101.824H372.235V105.941H368.118V101.824ZM368.118 105.941H372.235V110.059H368.118V105.941ZM368.118 110.059H372.235V114.176H368.118V110.059ZM372.235 110.059H376.353V114.176H372.235V110.059ZM372.235 114.176H376.353V118.294H372.235V114.176ZM372.235 105.941H376.353V110.059H372.235V105.941ZM372.235 93.5882H376.353V97.7059H372.235V93.5882ZM372.235 89.4706H376.353V93.5882H372.235V89.4706ZM372.235 85.3529H376.353V89.4706H372.235V85.3529ZM372.235 81.2353H376.353V85.3529H372.235V81.2353ZM372.235 97.7059H376.353V101.824H372.235V97.7059ZM372.235 101.824H376.353V105.941H372.235V101.824ZM368.118 114.176H372.235V118.294H368.118V114.176ZM368.118 118.294H372.235V122.412H368.118V118.294ZM372.235 118.294H376.353V122.412H372.235V118.294ZM376.353 114.176H380.471V118.294H376.353V114.176ZM376.353 110.059H380.471V114.176H376.353V110.059ZM380.471 114.176H384.588V118.294H380.471V114.176ZM380.471 118.294H384.588V122.412H380.471V118.294ZM376.353 118.294H380.471V122.412H376.353V118.294ZM368.118 122.412H372.235V126.529H368.118V122.412ZM372.235 122.412H376.353V126.529H372.235V122.412ZM376.353 122.412H380.471V126.529H376.353V122.412ZM380.471 122.412H384.588V126.529H380.471V122.412ZM384.588 122.412H388.706V126.529H384.588V122.412ZM384.588 118.294H388.706V122.412H384.588V118.294ZM380.471 126.529H384.588V130.647H380.471V126.529ZM376.353 126.529H380.471V130.647H376.353V126.529ZM372.235 126.529H376.353V130.647H372.235V126.529ZM384.588 126.529H388.706V130.647H384.588V126.529ZM388.706 126.529H392.824V130.647H388.706V126.529ZM388.706 122.412H392.824V126.529H388.706V122.412ZM384.588 138.882H388.706V143H384.588V138.882ZM388.706 138.882H392.824V143H388.706V138.882ZM392.824 134.765H396.941V138.882H392.824V134.765ZM388.706 134.765H392.824V138.882H388.706V134.765ZM384.588 134.765H388.706V138.882H384.588V134.765ZM380.471 134.765H384.588V138.882H380.471V134.765ZM380.471 130.647H384.588V134.765H380.471V130.647ZM376.353 130.647H380.471V134.765H376.353V130.647ZM384.588 130.647H388.706V134.765H384.588V130.647ZM388.706 130.647H392.824V134.765H388.706V130.647ZM392.824 130.647H396.941V134.765H392.824V130.647ZM396.941 130.647H401.059V134.765H396.941V130.647ZM396.941 126.529H401.059V130.647H396.941V126.529ZM401.059 126.529H405.176V130.647H401.059V126.529ZM396.941 122.412H401.059V126.529H396.941V122.412ZM392.824 126.529H396.941V130.647H392.824V126.529ZM392.824 122.412H396.941V126.529H392.824V122.412ZM392.824 118.294H396.941V122.412H392.824V118.294ZM396.941 64.7647H401.059V68.8824H396.941V64.7647ZM401.059 64.7647H405.176V68.8824H401.059V64.7647ZM401.059 60.6471H405.176V64.7647H401.059V60.6471ZM396.941 60.6471H401.059V64.7647H396.941V60.6471ZM405.176 60.6471H409.294V64.7647H405.176V60.6471ZM405.176 64.7647H409.294V68.8824H405.176V64.7647ZM409.294 64.7647H413.412V68.8824H409.294V64.7647ZM409.294 68.8824H413.412V73H409.294V68.8824ZM409.294 60.6471H413.412V64.7647H409.294V60.6471ZM409.294 81.2353H413.412V85.3529H409.294V81.2353ZM409.294 85.3529H413.412V89.4706H409.294V85.3529ZM409.294 89.4706H413.412V93.5882H409.294V89.4706ZM409.294 93.5882H413.412V97.7059H409.294V93.5882ZM409.294 101.824H413.412V105.941H409.294V101.824ZM409.294 110.059H413.412V114.176H409.294V110.059ZM409.294 114.176H413.412V118.294H409.294V114.176ZM405.176 68.8824H409.294V73H405.176V68.8824ZM401.059 68.8824H405.176V73H401.059V68.8824ZM401.059 77.1177H405.176V81.2353H401.059V77.1177ZM405.176 77.1177H409.294V81.2353H405.176V77.1177ZM405.176 81.2353H409.294V85.3529H405.176V81.2353ZM405.176 85.3529H409.294V89.4706H405.176V85.3529ZM405.176 89.4706H409.294V93.5882H405.176V89.4706ZM405.176 93.5882H409.294V97.7059H405.176V93.5882ZM405.176 97.7059H409.294V101.824H405.176V97.7059ZM405.176 105.941H409.294V110.059H405.176V105.941ZM396.941 68.8824H401.059V73H396.941V68.8824ZM396.941 81.2353H401.059V85.3529H396.941V81.2353ZM396.941 85.3529H401.059V89.4706H396.941V85.3529ZM396.941 89.4706H401.059V93.5882H396.941V89.4706ZM396.941 93.5882H401.059V97.7059H396.941V93.5882ZM396.941 97.7059H401.059V101.824H396.941V97.7059ZM396.941 101.824H401.059V105.941H396.941V101.824ZM396.941 105.941H401.059V110.059H396.941V105.941ZM396.941 110.059H401.059V114.176H396.941V110.059ZM401.059 110.059H405.176V114.176H401.059V110.059ZM401.059 114.176H405.176V118.294H401.059V114.176ZM401.059 93.5882H405.176V97.7059H401.059V93.5882ZM401.059 89.4706H405.176V93.5882H401.059V89.4706ZM401.059 85.3529H405.176V89.4706H401.059V85.3529ZM401.059 81.2353H405.176V85.3529H401.059V81.2353ZM401.059 97.7059H405.176V101.824H401.059V97.7059ZM401.059 101.824H405.176V105.941H401.059V101.824ZM396.941 114.176H401.059V118.294H396.941V114.176ZM401.059 118.294H405.176V122.412H401.059V118.294ZM405.176 114.176H409.294V118.294H405.176V114.176ZM405.176 110.059H409.294V114.176H405.176V110.059ZM409.294 118.294H413.412V122.412H409.294V118.294ZM405.176 118.294H409.294V122.412H405.176V118.294ZM401.059 122.412H405.176V126.529H401.059V122.412ZM405.176 122.412H409.294V126.529H405.176V122.412ZM409.294 122.412H413.412V126.529H409.294V122.412ZM413.412 122.412H417.529V126.529H413.412V122.412ZM409.294 126.529H413.412V130.647H409.294V126.529ZM405.176 126.529H409.294V130.647H405.176V126.529ZM413.412 126.529H417.529V130.647H413.412V126.529ZM417.529 126.529H421.647V130.647H417.529V126.529ZM417.529 122.412H421.647V126.529H417.529V122.412ZM417.529 138.882H421.647V143H417.529V138.882ZM421.647 138.882H425.765V143H421.647V138.882ZM421.647 134.765H425.765V138.882H421.647V134.765ZM425.765 134.765H429.882V138.882H425.765V134.765ZM417.529 134.765H421.647V138.882H417.529V134.765ZM413.412 134.765H417.529V138.882H413.412V134.765ZM409.294 130.647H413.412V134.765H409.294V130.647ZM413.412 130.647H417.529V134.765H413.412V130.647ZM417.529 130.647H421.647V134.765H417.529V130.647ZM421.647 130.647H425.765V134.765H421.647V130.647ZM425.765 130.647H429.882V134.765H425.765V130.647ZM429.882 130.647H434V134.765H429.882V130.647ZM429.882 126.529H434V130.647H429.882V126.529ZM434 126.529H438.118V130.647H434V126.529ZM438.118 122.412H442.235V126.529H438.118V122.412ZM434 118.294H438.118V122.412H434V118.294ZM438.118 118.294H442.235V122.412H438.118V118.294ZM429.882 118.294H434V122.412H429.882V118.294ZM434 122.412H438.118V126.529H434V122.412ZM429.882 122.412H434V126.529H429.882V122.412ZM425.765 122.412H429.882V126.529H425.765V122.412ZM425.765 126.529H429.882V130.647H425.765V126.529ZM421.647 126.529H425.765V130.647H421.647V126.529ZM421.647 122.412H425.765V126.529H421.647V122.412ZM421.647 118.294H425.765V122.412H421.647V118.294ZM425.765 114.176H429.882V118.294H425.765V114.176ZM429.882 114.176H434V118.294H429.882V114.176ZM434 114.176H438.118V118.294H434V114.176ZM438.118 114.176H442.235V118.294H438.118V114.176ZM438.118 110.059H442.235V114.176H438.118V110.059ZM434 110.059H438.118V114.176H434V110.059ZM429.882 110.059H434V114.176H429.882V110.059ZM425.765 110.059H429.882V114.176H425.765V110.059ZM425.765 105.941H429.882V110.059H425.765V105.941ZM429.882 105.941H434V110.059H429.882V105.941ZM434 105.941H438.118V110.059H434V105.941ZM438.118 105.941H442.235V110.059H438.118V105.941ZM438.118 101.824H442.235V105.941H438.118V101.824ZM434 101.824H438.118V105.941H434V101.824ZM429.882 101.824H434V105.941H429.882V101.824ZM425.765 101.824H429.882V105.941H425.765V101.824ZM438.118 97.7059H442.235V101.824H438.118V97.7059ZM434 97.7059H438.118V101.824H434V97.7059ZM429.882 97.7059H434V101.824H429.882V97.7059ZM425.765 97.7059H429.882V101.824H425.765V97.7059ZM425.765 93.5882H429.882V97.7059H425.765V93.5882ZM429.882 93.5882H434V97.7059H429.882V93.5882ZM434 93.5882H438.118V97.7059H434V93.5882ZM438.118 93.5882H442.235V97.7059H438.118V93.5882ZM438.118 89.4706H442.235V93.5882H438.118V89.4706ZM434 89.4706H438.118V93.5882H434V89.4706ZM429.882 89.4706H434V93.5882H429.882V89.4706ZM425.765 89.4706H429.882V93.5882H425.765V89.4706ZM438.118 85.3529H442.235V89.4706H438.118V85.3529ZM434 85.3529H438.118V89.4706H434V85.3529ZM429.882 85.3529H434V89.4706H429.882V85.3529ZM425.765 85.3529H429.882V89.4706H425.765V85.3529ZM425.765 81.2353H429.882V85.3529H425.765V81.2353ZM429.882 81.2353H434V85.3529H429.882V81.2353ZM434 81.2353H438.118V85.3529H434V81.2353ZM438.118 81.2353H442.235V85.3529H438.118V81.2353ZM438.118 77.1177H442.235V81.2353H438.118V77.1177ZM434 77.1177H438.118V81.2353H434V77.1177ZM429.882 77.1177H434V81.2353H429.882V77.1177ZM425.765 77.1177H429.882V81.2353H425.765V77.1177ZM425.765 73H429.882V77.1177H425.765V73ZM429.882 73H434V77.1177H429.882V73ZM434 73H438.118V77.1177H434V73ZM438.118 73H442.235V77.1177H438.118V73ZM438.118 68.8824H442.235V73H438.118V68.8824ZM434 68.8824H438.118V73H434V68.8824ZM429.882 68.8824H434V73H429.882V68.8824ZM425.765 68.8824H429.882V73H425.765V68.8824ZM425.765 60.6471H429.882V64.7647H425.765V60.6471ZM429.882 60.6471H434V64.7647H429.882V60.6471ZM434 60.6471H438.118V64.7647H434V60.6471ZM438.118 60.6471H442.235V64.7647H438.118V60.6471ZM438.118 64.7647H442.235V68.8824H438.118V64.7647ZM434 64.7647H438.118V68.8824H434V64.7647ZM429.882 64.7647H434V68.8824H429.882V64.7647ZM425.765 64.7647H429.882V68.8824H425.765V64.7647ZM413.412 118.294H417.529V122.412H413.412V118.294ZM409.294 105.941H413.412V110.059H409.294V105.941ZM409.294 73H413.412V77.1177H409.294V73ZM405.176 73H409.294V77.1177H405.176V73ZM401.059 73H405.176V77.1177H401.059V73ZM396.941 73H401.059V77.1177H396.941V73ZM409.294 77.1177H413.412V81.2353H409.294V77.1177ZM396.941 77.1177H401.059V81.2353H396.941V77.1177ZM409.294 97.7059H413.412V101.824H409.294V97.7059ZM396.941 118.294H401.059V122.412H396.941V118.294ZM405.176 101.824H409.294V105.941H405.176V101.824ZM401.059 105.941H405.176V110.059H401.059V105.941ZM425.765 118.294H429.882V122.412H425.765V118.294ZM503.936 126.529H508.053V130.647H503.936V126.529ZM499.818 126.529H503.936V130.647H499.818V126.529ZM495.7 126.529H499.818V130.647H495.7V126.529ZM495.7 130.647H499.818V134.765H495.7V130.647ZM499.818 130.647H503.936V134.765H499.818V130.647ZM495.7 134.765H499.818V138.882H495.7V134.765ZM491.583 134.765H495.7V138.882H491.583V134.765ZM499.818 134.765H503.936V138.882H499.818V134.765ZM491.583 138.882H495.7V143H491.583V138.882ZM487.465 138.882H491.583V143H487.465V138.882ZM483.347 138.882H487.465V143H483.347V138.882ZM479.23 138.882H483.347V143H479.23V138.882ZM475.112 138.882H479.23V143H475.112V138.882ZM470.994 138.882H475.112V143H470.994V138.882ZM466.877 138.882H470.994V143H466.877V138.882ZM466.877 134.765H470.994V138.882H466.877V134.765ZM462.759 134.765H466.877V138.882H462.759V134.765ZM458.642 134.765H462.759V138.882H458.642V134.765ZM458.642 130.647H462.759V134.765H458.642V130.647ZM462.759 130.647H466.877V134.765H462.759V130.647ZM466.877 130.647H470.994V134.765H466.877V130.647ZM470.994 130.647H475.112V134.765H470.994V130.647ZM475.112 130.647H479.23V134.765H475.112V130.647ZM479.23 130.647H483.347V134.765H479.23V130.647ZM483.347 130.647H487.465V134.765H483.347V130.647ZM487.465 130.647H491.583V134.765H487.465V130.647ZM491.583 130.647H495.7V134.765H491.583V130.647ZM487.465 134.765H491.583V138.882H487.465V134.765ZM483.347 134.765H487.465V138.882H483.347V134.765ZM479.23 134.765H483.347V138.882H479.23V134.765ZM475.112 134.765H479.23V138.882H475.112V134.765ZM470.994 134.765H475.112V138.882H470.994V134.765ZM462.759 126.529H466.877V130.647H462.759V126.529ZM458.642 126.529H462.759V130.647H458.642V126.529ZM454.524 126.529H458.642V130.647H454.524V126.529ZM462.759 122.412H466.877V126.529H462.759V122.412ZM466.877 122.412H470.994V126.529H466.877V122.412ZM470.994 126.529H475.112V130.647H470.994V126.529ZM466.877 126.529H470.994V130.647H466.877V126.529ZM458.642 122.412H462.759V126.529H458.642V122.412ZM458.642 118.294H462.759V122.412H458.642V118.294ZM454.524 118.294H458.642V122.412H454.524V118.294ZM454.524 114.176H458.642V118.294H454.524V114.176ZM454.524 122.412H458.642V126.529H454.524V122.412ZM454.524 110.059H458.642V114.176H454.524V110.059ZM458.642 110.059H462.759V114.176H458.642V110.059ZM462.759 110.059H466.877V114.176H462.759V110.059ZM466.877 110.059H470.994V114.176H466.877V110.059ZM466.877 114.176H470.994V118.294H466.877V114.176ZM466.877 118.294H470.994V122.412H466.877V118.294ZM462.759 114.176H466.877V118.294H462.759V114.176ZM458.642 114.176H462.759V118.294H458.642V114.176ZM462.759 118.294H466.877V122.412H462.759V118.294ZM475.112 126.529H479.23V130.647H475.112V126.529ZM479.23 126.529H483.347V130.647H479.23V126.529ZM483.347 126.529H487.465V130.647H483.347V126.529ZM487.465 126.529H491.583V130.647H487.465V126.529ZM491.583 126.529H495.7V130.647H491.583V126.529ZM491.583 122.412H495.7V126.529H491.583V122.412ZM487.465 122.412H491.583V126.529H487.465V122.412ZM495.7 122.412H499.818V126.529H495.7V122.412ZM499.818 122.412H503.936V126.529H499.818V122.412ZM499.818 118.294H503.936V122.412H499.818V118.294ZM503.936 118.294H508.053V122.412H503.936V118.294ZM503.936 114.176H508.053V118.294H503.936V114.176ZM503.936 122.412H508.053V126.529H503.936V122.412ZM503.936 110.059H508.053V114.176H503.936V110.059ZM503.936 105.941H508.053V110.059H503.936V105.941ZM503.936 101.824H508.053V105.941H503.936V101.824ZM503.936 97.7059H508.053V101.824H503.936V97.7059ZM503.936 93.5882H508.053V97.7059H503.936V93.5882ZM499.818 93.5882H503.936V97.7059H499.818V93.5882ZM499.818 89.4706H503.936V93.5882H499.818V89.4706ZM495.7 93.5882H499.818V97.7059H495.7V93.5882ZM491.583 93.5882H495.7V97.7059H491.583V93.5882ZM491.583 97.7059H495.7V101.824H491.583V97.7059ZM491.583 101.824H495.7V105.941H491.583V101.824ZM491.583 105.941H495.7V110.059H491.583V105.941ZM491.583 110.059H495.7V114.176H491.583V110.059ZM491.583 114.176H495.7V118.294H491.583V114.176ZM491.583 118.294H495.7V122.412H491.583V118.294ZM495.7 118.294H499.818V122.412H495.7V118.294ZM495.7 114.176H499.818V118.294H495.7V114.176ZM499.818 114.176H503.936V118.294H499.818V114.176ZM499.818 110.059H503.936V114.176H499.818V110.059ZM499.818 105.941H503.936V110.059H499.818V105.941ZM499.818 101.824H503.936V105.941H499.818V101.824ZM495.7 97.7059H499.818V101.824H495.7V97.7059ZM495.7 101.824H499.818V105.941H495.7V101.824ZM495.7 105.941H499.818V110.059H495.7V105.941ZM495.7 110.059H499.818V114.176H495.7V110.059ZM499.818 97.7059H503.936V101.824H499.818V97.7059ZM503.936 89.4706H508.053V93.5882H503.936V89.4706ZM503.936 85.3529H508.053V89.4706H503.936V85.3529ZM503.936 81.2353H508.053V85.3529H503.936V81.2353ZM503.936 77.1177H508.053V81.2353H503.936V77.1177ZM503.936 73H508.053V77.1177H503.936V73ZM499.818 73H503.936V77.1177H499.818V73ZM499.818 68.8824H503.936V73H499.818V68.8824ZM499.818 64.7647H503.936V68.8824H499.818V64.7647ZM495.7 64.7647H499.818V68.8824H495.7V64.7647ZM491.583 64.7647H495.7V68.8824H491.583V64.7647ZM495.7 89.4706H499.818V93.5882H495.7V89.4706ZM495.7 85.3529H499.818V89.4706H495.7V85.3529ZM495.7 81.2353H499.818V85.3529H495.7V81.2353ZM499.818 81.2353H503.936V85.3529H499.818V81.2353ZM499.818 77.1177H503.936V81.2353H499.818V77.1177ZM499.818 85.3529H503.936V89.4706H499.818V85.3529ZM491.583 89.4706H495.7V93.5882H491.583V89.4706ZM491.583 85.3529H495.7V89.4706H491.583V85.3529ZM495.7 77.1177H499.818V81.2353H495.7V77.1177ZM491.583 77.1177H495.7V81.2353H491.583V77.1177ZM491.583 81.2353H495.7V85.3529H491.583V81.2353ZM487.465 77.1177H491.583V81.2353H487.465V77.1177ZM487.465 73H491.583V77.1177H487.465V73ZM491.583 68.8824H495.7V73H491.583V68.8824ZM495.7 68.8824H499.818V73H495.7V68.8824ZM495.7 73H499.818V77.1177H495.7V73ZM491.583 73H495.7V77.1177H491.583V73ZM487.465 68.8824H491.583V73H487.465V68.8824ZM487.465 64.7647H491.583V68.8824H487.465V64.7647ZM487.465 60.6471H491.583V64.7647H487.465V60.6471ZM491.583 60.6471H495.7V64.7647H491.583V60.6471ZM483.347 60.6471H487.465V64.7647H483.347V60.6471ZM479.23 60.6471H483.347V64.7647H479.23V60.6471ZM475.112 60.6471H479.23V64.7647H475.112V60.6471ZM470.994 60.6471H475.112V64.7647H470.994V60.6471ZM470.994 64.7647H475.112V68.8824H470.994V64.7647ZM466.877 64.7647H470.994V68.8824H466.877V64.7647ZM466.877 60.6471H470.994V64.7647H466.877V60.6471ZM462.759 64.7647H466.877V68.8824H462.759V64.7647ZM458.642 64.7647H462.759V68.8824H458.642V64.7647ZM458.642 68.8824H462.759V73H458.642V68.8824ZM458.642 73H462.759V77.1177H458.642V73ZM454.524 73H458.642V77.1177H454.524V73ZM454.524 77.1177H458.642V81.2353H454.524V77.1177ZM458.642 77.1177H462.759V81.2353H458.642V77.1177ZM462.759 77.1177H466.877V81.2353H462.759V77.1177ZM466.877 77.1177H470.994V81.2353H466.877V77.1177ZM470.994 73H475.112V77.1177H470.994V73ZM475.112 73H479.23V77.1177H475.112V73ZM479.23 73H483.347V77.1177H479.23V73ZM483.347 73H487.465V77.1177H483.347V73ZM483.347 64.7647H487.465V68.8824H483.347V64.7647ZM483.347 68.8824H487.465V73H483.347V68.8824ZM479.23 68.8824H483.347V73H479.23V68.8824ZM475.112 68.8824H479.23V73H475.112V68.8824ZM479.23 64.7647H483.347V68.8824H479.23V64.7647ZM475.112 64.7647H479.23V68.8824H475.112V64.7647ZM470.994 68.8824H475.112V73H470.994V68.8824ZM466.877 68.8824H470.994V73H466.877V68.8824ZM466.877 73H470.994V77.1177H466.877V73ZM462.759 73H466.877V77.1177H462.759V73ZM462.759 68.8824H466.877V73H462.759V68.8824ZM462.759 81.2353H466.877V85.3529H462.759V81.2353ZM462.759 85.3529H466.877V89.4706H462.759V85.3529ZM462.759 89.4706H466.877V93.5882H462.759V89.4706ZM462.759 93.5882H466.877V97.7059H462.759V93.5882ZM466.877 93.5882H470.994V97.7059H466.877V93.5882ZM466.877 97.7059H470.994V101.824H466.877V97.7059ZM466.877 89.4706H470.994V93.5882H466.877V89.4706ZM466.877 85.3529H470.994V89.4706H466.877V85.3529ZM466.877 81.2353H470.994V85.3529H466.877V81.2353ZM466.877 101.824H470.994V105.941H466.877V101.824ZM466.877 105.941H470.994V110.059H466.877V105.941ZM462.759 105.941H466.877V110.059H462.759V105.941ZM458.642 105.941H462.759V110.059H458.642V105.941ZM454.524 101.824H458.642V105.941H454.524V101.824ZM454.524 105.941H458.642V110.059H454.524V105.941ZM454.524 97.7059H458.642V101.824H454.524V97.7059ZM454.524 93.5882H458.642V97.7059H454.524V93.5882ZM454.524 89.4706H458.642V93.5882H454.524V89.4706ZM454.524 85.3529H458.642V89.4706H454.524V85.3529ZM454.524 81.2353H458.642V85.3529H454.524V81.2353ZM458.642 85.3529H462.759V89.4706H458.642V85.3529ZM458.642 89.4706H462.759V93.5882H458.642V89.4706ZM458.642 93.5882H462.759V97.7059H458.642V93.5882ZM458.642 97.7059H462.759V101.824H458.642V97.7059ZM458.642 101.824H462.759V105.941H458.642V101.824ZM462.759 101.824H466.877V105.941H462.759V101.824ZM462.759 97.7059H466.877V101.824H462.759V97.7059ZM458.642 81.2353H462.759V85.3529H458.642V81.2353ZM462.759 60.6471H466.877V64.7647H462.759V60.6471ZM458.642 60.6471H462.759V64.7647H458.642V60.6471ZM454.524 60.6471H458.642V64.7647H454.524V60.6471ZM454.524 64.7647H458.642V68.8824H454.524V64.7647ZM454.524 68.8824H458.642V73H454.524V68.8824ZM454.524 130.647H458.642V134.765H454.524V130.647ZM454.524 134.765H458.642V138.882H454.524V134.765ZM454.524 138.882H458.642V143H454.524V138.882ZM458.642 138.882H462.759V143H458.642V138.882ZM462.759 138.882H466.877V143H462.759V138.882ZM520.422 138.882H524.54V143H520.422V138.882ZM524.54 138.882H528.658V143H524.54V138.882ZM528.658 138.882H532.775V143H528.658V138.882ZM532.775 138.882H536.893V143H532.775V138.882ZM532.775 134.765H536.893V138.882H532.775V134.765ZM528.658 134.765H532.775V138.882H528.658V134.765ZM524.54 134.765H528.658V138.882H524.54V134.765ZM520.422 134.765H524.54V138.882H520.422V134.765ZM520.422 130.647H524.54V134.765H520.422V130.647ZM520.422 126.529H524.54V130.647H520.422V126.529ZM520.422 122.412H524.54V126.529H520.422V122.412ZM520.422 118.294H524.54V122.412H520.422V118.294ZM520.422 114.176H524.54V118.294H520.422V114.176ZM520.422 110.059H524.54V114.176H520.422V110.059ZM520.422 105.941H524.54V110.059H520.422V105.941ZM524.54 105.941H528.658V110.059H524.54V105.941ZM524.54 101.824H528.658V105.941H524.54V101.824ZM524.54 97.7059H528.658V101.824H524.54V97.7059ZM528.658 97.7059H532.775V101.824H528.658V97.7059ZM528.658 101.824H532.775V105.941H528.658V101.824ZM532.775 101.824H536.893V105.941H532.775V101.824ZM532.775 105.941H536.893V110.059H532.775V105.941ZM532.775 110.059H536.893V114.176H532.775V110.059ZM532.775 114.176H536.893V118.294H532.775V114.176ZM532.775 118.294H536.893V122.412H532.775V118.294ZM532.775 122.412H536.893V126.529H532.775V122.412ZM532.775 126.529H536.893V130.647H532.775V126.529ZM532.775 130.647H536.893V134.765H532.775V130.647ZM528.658 130.647H532.775V134.765H528.658V130.647ZM528.658 126.529H532.775V130.647H528.658V126.529ZM528.658 122.412H532.775V126.529H528.658V122.412ZM528.658 118.294H532.775V122.412H528.658V118.294ZM528.658 114.176H532.775V118.294H528.658V114.176ZM528.658 110.059H532.775V114.176H528.658V110.059ZM528.658 105.941H532.775V110.059H528.658V105.941ZM524.54 110.059H528.658V114.176H524.54V110.059ZM524.54 114.176H528.658V118.294H524.54V114.176ZM524.54 118.294H528.658V122.412H524.54V118.294ZM524.54 122.412H528.658V126.529H524.54V122.412ZM524.54 126.529H528.658V130.647H524.54V126.529ZM524.54 130.647H528.658V134.765H524.54V130.647ZM520.422 60.6471H524.54V64.7647H520.422V60.6471ZM520.422 64.7647H524.54V68.8824H520.422V64.7647ZM520.422 73H524.54V77.1177H520.422V73ZM520.422 77.1177H524.54V81.2353H520.422V77.1177ZM520.422 81.2353H524.54V85.3529H520.422V81.2353ZM520.422 85.3529H524.54V89.4706H520.422V85.3529ZM520.422 89.4706H524.54V93.5882H520.422V89.4706ZM520.422 93.5882H524.54V97.7059H520.422V93.5882ZM520.422 97.7059H524.54V101.824H520.422V97.7059ZM520.422 101.824H524.54V105.941H520.422V101.824ZM524.54 85.3529H528.658V89.4706H524.54V85.3529ZM524.54 81.2353H528.658V85.3529H524.54V81.2353ZM524.54 77.1177H528.658V81.2353H524.54V77.1177ZM524.54 73H528.658V77.1177H524.54V73ZM524.54 68.8824H528.658V73H524.54V68.8824ZM520.422 68.8824H524.54V73H520.422V68.8824ZM524.54 60.6471H528.658V64.7647H524.54V60.6471ZM528.658 60.6471H532.775V64.7647H528.658V60.6471ZM528.658 64.7647H532.775V68.8824H528.658V64.7647ZM532.775 68.8824H536.893V73H532.775V68.8824ZM532.775 64.7647H536.893V68.8824H532.775V64.7647ZM532.775 60.6471H536.893V64.7647H532.775V60.6471ZM532.775 73H536.893V77.1177H532.775V73ZM532.775 77.1177H536.893V81.2353H532.775V77.1177ZM532.775 81.2353H536.893V85.3529H532.775V81.2353ZM532.775 85.3529H536.893V89.4706H532.775V85.3529ZM532.775 89.4706H536.893V93.5882H532.775V89.4706ZM532.775 93.5882H536.893V97.7059H532.775V93.5882ZM532.775 97.7059H536.893V101.824H532.775V97.7059ZM528.658 93.5882H532.775V97.7059H528.658V93.5882ZM528.658 89.4706H532.775V93.5882H528.658V89.4706ZM528.658 85.3529H532.775V89.4706H528.658V85.3529ZM524.54 89.4706H528.658V93.5882H524.54V89.4706ZM524.54 93.5882H528.658V97.7059H524.54V93.5882ZM528.658 81.2353H532.775V85.3529H528.658V81.2353ZM528.658 68.8824H532.775V73H528.658V68.8824ZM528.658 73H532.775V77.1177H528.658V73ZM528.658 77.1177H532.775V81.2353H528.658V77.1177ZM524.54 64.7647H528.658V68.8824H524.54V64.7647ZM536.893 138.882H541.011V143H536.893V138.882ZM536.893 134.765H541.011V138.882H536.893V134.765ZM536.893 130.647H541.011V134.765H536.893V130.647ZM536.893 126.529H541.011V130.647H536.893V126.529ZM541.011 126.529H545.128V130.647H541.011V126.529ZM545.128 126.529H549.246V130.647H545.128V126.529ZM549.246 126.529H553.364V130.647H549.246V126.529ZM553.364 126.529H557.481V130.647H553.364V126.529ZM553.364 134.765H557.481V138.882H553.364V134.765ZM549.246 134.765H553.364V138.882H549.246V134.765ZM545.128 134.765H549.246V138.882H545.128V134.765ZM541.011 134.765H545.128V138.882H541.011V134.765ZM541.011 130.647H545.128V134.765H541.011V130.647ZM545.128 130.647H549.246V134.765H545.128V130.647ZM549.246 130.647H553.364V134.765H549.246V130.647ZM553.364 130.647H557.481V134.765H553.364V130.647ZM553.364 138.882H557.481V143H553.364V138.882ZM549.246 138.882H553.364V143H549.246V138.882ZM545.128 138.882H549.246V143H545.128V138.882ZM541.011 138.882H545.128V143H541.011V138.882ZM536.893 60.6471H541.011V64.7647H536.893V60.6471ZM541.011 60.6471H545.128V64.7647H541.011V60.6471ZM545.128 60.6471H549.246V64.7647H545.128V60.6471ZM549.246 60.6471H553.364V64.7647H549.246V60.6471ZM553.364 60.6471H557.481V64.7647H553.364V60.6471ZM553.364 64.7647H557.481V68.8824H553.364V64.7647ZM553.364 68.8824H557.481V73H553.364V68.8824ZM553.364 73H557.481V77.1177H553.364V73ZM549.246 73H553.364V77.1177H549.246V73ZM545.128 73H549.246V77.1177H545.128V73ZM541.011 73H545.128V77.1177H541.011V73ZM536.893 73H541.011V77.1177H536.893V73ZM536.893 68.8824H541.011V73H536.893V68.8824ZM536.893 64.7647H541.011V68.8824H536.893V64.7647ZM541.011 64.7647H545.128V68.8824H541.011V64.7647ZM545.128 64.7647H549.246V68.8824H545.128V64.7647ZM549.246 64.7647H553.364V68.8824H549.246V64.7647ZM549.246 68.8824H553.364V73H549.246V68.8824ZM545.128 68.8824H549.246V73H545.128V68.8824ZM541.011 68.8824H545.128V73H541.011V68.8824ZM557.481 60.6471H561.599V64.7647H557.481V60.6471ZM561.599 60.6471H565.716V64.7647H561.599V60.6471ZM565.716 60.6471H569.834V64.7647H565.716V60.6471ZM565.716 64.7647H569.834V68.8824H565.716V64.7647ZM565.716 68.8824H569.834V73H565.716V68.8824ZM565.716 73H569.834V77.1177H565.716V73ZM561.599 73H565.716V77.1177H561.599V73ZM557.481 73H561.599V77.1177H557.481V73ZM557.481 68.8824H561.599V73H557.481V68.8824ZM557.481 64.7647H561.599V68.8824H557.481V64.7647ZM561.599 64.7647H565.716V68.8824H561.599V64.7647ZM561.599 68.8824H565.716V73H561.599V68.8824ZM557.481 126.529H561.599V130.647H557.481V126.529ZM561.599 126.529H565.716V130.647H561.599V126.529ZM565.716 126.529H569.834V130.647H565.716V126.529ZM565.716 130.647H569.834V134.765H565.716V130.647ZM565.716 134.765H569.834V138.882H565.716V134.765ZM565.716 138.882H569.834V143H565.716V138.882ZM561.599 138.882H565.716V143H561.599V138.882ZM557.481 138.882H561.599V143H557.481V138.882ZM557.481 134.765H561.599V138.882H557.481V134.765ZM557.481 130.647H561.599V134.765H557.481V130.647ZM561.599 130.647H565.716V134.765H561.599V130.647ZM561.599 134.765H565.716V138.882H561.599V134.765ZM536.893 97.7059H541.011V101.824H536.893V97.7059ZM536.893 93.5882H541.011V97.7059H536.893V93.5882ZM536.893 101.824H541.011V105.941H536.893V101.824ZM536.893 105.941H541.011V110.059H536.893V105.941ZM541.011 105.941H545.128V110.059H541.011V105.941ZM545.128 105.941H549.246V110.059H545.128V105.941ZM549.246 105.941H553.364V110.059H549.246V105.941ZM553.364 105.941H557.481V110.059H553.364V105.941ZM553.364 101.824H557.481V105.941H553.364V101.824ZM553.364 97.7059H557.481V101.824H553.364V97.7059ZM553.364 93.5882H557.481V97.7059H553.364V93.5882ZM549.246 93.5882H553.364V97.7059H549.246V93.5882ZM545.128 93.5882H549.246V97.7059H545.128V93.5882ZM541.011 93.5882H545.128V97.7059H541.011V93.5882ZM541.011 97.7059H545.128V101.824H541.011V97.7059ZM541.011 101.824H545.128V105.941H541.011V101.824ZM545.128 101.824H549.246V105.941H545.128V101.824ZM549.246 101.824H553.364V105.941H549.246V101.824ZM549.246 97.7059H553.364V101.824H549.246V97.7059ZM545.128 97.7059H549.246V101.824H545.128V97.7059ZM557.481 93.5882H561.599V97.7059H557.481V93.5882ZM557.481 97.7059H561.599V101.824H557.481V97.7059ZM557.481 101.824H561.599V105.941H557.481V101.824ZM557.481 105.941H561.599V110.059H557.481V105.941ZM582.219 60.6471H586.337V64.7647H582.219V60.6471ZM586.337 60.6471H590.455V64.7647H586.337V60.6471ZM590.455 60.6471H594.572V64.7647H590.455V60.6471ZM594.572 60.6471H598.69V64.7647H594.572V60.6471ZM598.69 60.6471H602.807V64.7647H598.69V60.6471ZM598.69 64.7647H602.807V68.8824H598.69V64.7647ZM598.69 68.8824H602.807V73H598.69V68.8824ZM598.69 73H602.807V77.1177H598.69V73ZM602.807 68.8824H606.925V73H602.807V68.8824ZM602.807 73H606.925V77.1177H602.807V73ZM602.807 77.1177H606.925V81.2353H602.807V77.1177ZM602.807 81.2353H606.925V85.3529H602.807V81.2353ZM602.807 85.3529H606.925V89.4706H602.807V85.3529ZM602.807 89.4706H606.925V93.5882H602.807V89.4706ZM602.807 93.5882H606.925V97.7059H602.807V93.5882ZM598.69 93.5882H602.807V97.7059H598.69V93.5882ZM598.69 89.4706H602.807V93.5882H598.69V89.4706ZM598.69 85.3529H602.807V89.4706H598.69V85.3529ZM598.69 81.2353H602.807V85.3529H598.69V81.2353ZM598.69 77.1177H602.807V81.2353H598.69V77.1177ZM582.219 138.882H586.337V143H582.219V138.882ZM586.337 138.882H590.455V143H586.337V138.882ZM590.455 138.882H594.572V143H590.455V138.882ZM594.572 134.765H598.69V138.882H594.572V134.765ZM594.572 130.647H598.69V134.765H594.572V130.647ZM594.572 126.529H598.69V130.647H594.572V126.529ZM590.455 126.529H594.572V130.647H590.455V126.529ZM590.455 130.647H594.572V134.765H590.455V130.647ZM594.572 138.882H598.69V143H594.572V138.882ZM590.455 134.765H594.572V138.882H590.455V134.765ZM586.337 134.765H590.455V138.882H586.337V134.765ZM582.219 134.765H586.337V138.882H582.219V134.765ZM582.219 130.647H586.337V134.765H582.219V130.647ZM582.219 126.529H586.337V130.647H582.219V126.529ZM586.337 126.529H590.455V130.647H586.337V126.529ZM586.337 130.647H590.455V134.765H586.337V130.647ZM586.337 122.412H590.455V126.529H586.337V122.412ZM582.219 122.412H586.337V126.529H582.219V122.412ZM582.219 118.294H586.337V122.412H582.219V118.294ZM582.219 114.176H586.337V118.294H582.219V114.176ZM582.219 110.059H586.337V114.176H582.219V110.059ZM582.219 105.941H586.337V110.059H582.219V105.941ZM582.219 101.824H586.337V105.941H582.219V101.824ZM586.337 105.941H590.455V110.059H586.337V105.941ZM586.337 101.824H590.455V105.941H586.337V101.824ZM590.455 101.824H594.572V105.941H590.455V101.824ZM590.455 105.941H594.572V110.059H590.455V105.941ZM590.455 110.059H594.572V114.176H590.455V110.059ZM594.572 110.059H598.69V114.176H594.572V110.059ZM594.572 114.176H598.69V118.294H594.572V114.176ZM594.572 118.294H598.69V122.412H594.572V118.294ZM594.572 122.412H598.69V126.529H594.572V122.412ZM594.572 105.941H598.69V110.059H594.572V105.941ZM594.572 101.824H598.69V105.941H594.572V101.824ZM586.337 110.059H590.455V114.176H586.337V110.059ZM586.337 114.176H590.455V118.294H586.337V114.176ZM586.337 118.294H590.455V122.412H586.337V118.294ZM590.455 122.412H594.572V126.529H590.455V122.412ZM590.455 118.294H594.572V122.412H590.455V118.294ZM590.455 114.176H594.572V118.294H590.455V114.176ZM594.572 97.7059H598.69V101.824H594.572V97.7059ZM590.455 97.7059H594.572V101.824H590.455V97.7059ZM586.337 97.7059H590.455V101.824H586.337V97.7059ZM582.219 97.7059H586.337V101.824H582.219V97.7059ZM582.219 93.5882H586.337V97.7059H582.219V93.5882ZM586.337 93.5882H590.455V97.7059H586.337V93.5882ZM590.455 93.5882H594.572V97.7059H590.455V93.5882ZM594.572 93.5882H598.69V97.7059H594.572V93.5882ZM594.572 89.4706H598.69V93.5882H594.572V89.4706ZM594.572 85.3529H598.69V89.4706H594.572V85.3529ZM590.455 85.3529H594.572V89.4706H590.455V85.3529ZM586.337 85.3529H590.455V89.4706H586.337V85.3529ZM586.337 89.4706H590.455V93.5882H586.337V89.4706ZM590.455 89.4706H594.572V93.5882H590.455V89.4706ZM582.219 89.4706H586.337V93.5882H582.219V89.4706ZM602.807 101.824H606.925V105.941H602.807V101.824ZM602.807 97.7059H606.925V101.824H602.807V97.7059ZM606.925 77.1177H611.043V81.2353H606.925V77.1177ZM606.925 81.2353H611.043V85.3529H606.925V81.2353ZM606.925 85.3529H611.043V89.4706H606.925V85.3529ZM606.925 89.4706H611.043V93.5882H606.925V89.4706ZM606.925 93.5882H611.043V97.7059H606.925V93.5882ZM606.925 97.7059H611.043V101.824H606.925V97.7059ZM606.925 101.824H611.043V105.941H606.925V101.824ZM606.925 105.941H611.043V110.059H606.925V105.941ZM606.925 110.059H611.043V114.176H606.925V110.059ZM611.043 110.059H615.16V114.176H611.043V110.059ZM611.043 105.941H615.16V110.059H611.043V105.941ZM611.043 101.824H615.16V105.941H611.043V101.824ZM611.043 97.7059H615.16V101.824H611.043V97.7059ZM611.043 93.5882H615.16V97.7059H611.043V93.5882ZM611.043 89.4706H615.16V93.5882H611.043V89.4706ZM611.043 85.3529H615.16V89.4706H611.043V85.3529ZM611.043 114.176H615.16V118.294H611.043V114.176ZM611.043 118.294H615.16V122.412H611.043V118.294ZM615.16 118.294H619.278V122.412H615.16V118.294ZM615.16 114.176H619.278V118.294H615.16V114.176ZM615.16 110.059H619.278V114.176H615.16V110.059ZM615.16 105.941H619.278V110.059H615.16V105.941ZM615.16 101.824H619.278V105.941H615.16V101.824ZM615.16 97.7059H619.278V101.824H615.16V97.7059ZM615.16 93.5882H619.278V97.7059H615.16V93.5882ZM615.16 122.412H619.278V126.529H615.16V122.412ZM615.16 126.529H619.278V130.647H615.16V126.529ZM619.278 126.529H623.396V130.647H619.278V126.529ZM619.278 122.412H623.396V126.529H619.278V122.412ZM619.278 118.294H623.396V122.412H619.278V118.294ZM619.278 114.176H623.396V118.294H619.278V114.176ZM619.278 110.059H623.396V114.176H619.278V110.059ZM619.278 105.941H623.396V110.059H619.278V105.941ZM619.278 101.824H623.396V105.941H619.278V101.824ZM619.278 130.647H623.396V134.765H619.278V130.647ZM619.278 134.765H623.396V138.882H619.278V134.765ZM623.396 134.765H627.513V138.882H623.396V134.765ZM623.396 130.647H627.513V134.765H623.396V130.647ZM623.396 126.529H627.513V130.647H623.396V126.529ZM623.396 122.412H627.513V126.529H623.396V122.412ZM623.396 118.294H627.513V122.412H623.396V118.294ZM623.396 114.176H627.513V118.294H623.396V114.176ZM623.396 110.059H627.513V114.176H623.396V110.059ZM623.396 138.882H627.513V143H623.396V138.882ZM582.219 64.7647H586.337V68.8824H582.219V64.7647ZM582.219 68.8824H586.337V73H582.219V68.8824ZM582.219 73H586.337V77.1177H582.219V73ZM582.219 77.1177H586.337V81.2353H582.219V77.1177ZM582.219 81.2353H586.337V85.3529H582.219V81.2353ZM582.219 85.3529H586.337V89.4706H582.219V85.3529ZM590.455 81.2353H594.572V85.3529H590.455V81.2353ZM594.572 81.2353H598.69V85.3529H594.572V81.2353ZM594.572 77.1177H598.69V81.2353H594.572V77.1177ZM594.572 73H598.69V77.1177H594.572V73ZM594.572 68.8824H598.69V73H594.572V68.8824ZM590.455 68.8824H594.572V73H590.455V68.8824ZM590.455 64.7647H594.572V68.8824H590.455V64.7647ZM586.337 64.7647H590.455V68.8824H586.337V64.7647ZM586.337 68.8824H590.455V73H586.337V68.8824ZM586.337 73H590.455V77.1177H586.337V73ZM586.337 77.1177H590.455V81.2353H586.337V77.1177ZM586.337 81.2353H590.455V85.3529H586.337V81.2353ZM590.455 77.1177H594.572V81.2353H590.455V77.1177ZM590.455 73H594.572V77.1177H590.455V73ZM594.572 64.7647H598.69V68.8824H594.572V64.7647ZM627.513 60.6471H631.631V64.7647H627.513V60.6471ZM631.631 60.6471H635.749V64.7647H631.631V60.6471ZM635.749 60.6471H639.866V64.7647H635.749V60.6471ZM639.866 60.6471H643.984V64.7647H639.866V60.6471ZM631.631 64.7647H635.749V68.8824H631.631V64.7647ZM627.513 64.7647H631.631V68.8824H627.513V64.7647ZM627.513 68.8824H631.631V73H627.513V68.8824ZM627.513 73H631.631V77.1177H627.513V73ZM627.513 77.1177H631.631V81.2353H627.513V77.1177ZM627.513 81.2353H631.631V85.3529H627.513V81.2353ZM627.513 85.3529H631.631V89.4706H627.513V85.3529ZM631.631 85.3529H635.749V89.4706H631.631V85.3529ZM631.631 89.4706H635.749V93.5882H631.631V89.4706ZM631.631 93.5882H635.749V97.7059H631.631V93.5882ZM631.631 97.7059H635.749V101.824H631.631V97.7059ZM631.631 101.824H635.749V105.941H631.631V101.824ZM631.631 105.941H635.749V110.059H631.631V105.941ZM631.631 110.059H635.749V114.176H631.631V110.059ZM627.513 97.7059H631.631V101.824H627.513V97.7059ZM627.513 93.5882H631.631V97.7059H627.513V93.5882ZM627.513 89.4706H631.631V93.5882H627.513V89.4706ZM627.513 101.824H631.631V105.941H627.513V101.824ZM627.513 105.941H631.631V110.059H627.513V105.941ZM627.513 110.059H631.631V114.176H627.513V110.059ZM627.513 114.176H631.631V118.294H627.513V114.176ZM627.513 118.294H631.631V122.412H627.513V118.294ZM627.513 122.412H631.631V126.529H627.513V122.412ZM627.513 126.529H631.631V130.647H627.513V126.529ZM627.513 130.647H631.631V134.765H627.513V130.647ZM627.513 134.765H631.631V138.882H627.513V134.765ZM627.513 138.882H631.631V143H627.513V138.882ZM631.631 138.882H635.749V143H631.631V138.882ZM635.749 138.882H639.866V143H635.749V138.882ZM639.866 138.882H643.984V143H639.866V138.882ZM639.866 134.765H643.984V138.882H639.866V134.765ZM639.866 130.647H643.984V134.765H639.866V130.647ZM635.749 130.647H639.866V134.765H635.749V130.647ZM635.749 126.529H639.866V130.647H635.749V126.529ZM635.749 122.412H639.866V126.529H635.749V122.412ZM631.631 118.294H635.749V122.412H631.631V118.294ZM631.631 122.412H635.749V126.529H631.631V122.412ZM631.631 126.529H635.749V130.647H631.631V126.529ZM631.631 130.647H635.749V134.765H631.631V130.647ZM631.631 134.765H635.749V138.882H631.631V134.765ZM635.749 134.765H639.866V138.882H635.749V134.765ZM639.866 126.529H643.984V130.647H639.866V126.529ZM635.749 118.294H639.866V122.412H635.749V118.294ZM631.631 114.176H635.749V118.294H631.631V114.176ZM639.866 64.7647H643.984V68.8824H639.866V64.7647ZM639.866 68.8824H643.984V73H639.866V68.8824ZM639.866 73H643.984V77.1177H639.866V73ZM639.866 77.1177H643.984V81.2353H639.866V77.1177ZM639.866 81.2353H643.984V85.3529H639.866V81.2353ZM639.866 85.3529H643.984V89.4706H639.866V85.3529ZM639.866 89.4706H643.984V93.5882H639.866V89.4706ZM639.866 93.5882H643.984V97.7059H639.866V93.5882ZM639.866 97.7059H643.984V101.824H639.866V97.7059ZM639.866 101.824H643.984V105.941H639.866V101.824ZM639.866 105.941H643.984V110.059H639.866V105.941ZM639.866 110.059H643.984V114.176H639.866V110.059ZM639.866 114.176H643.984V118.294H639.866V114.176ZM639.866 118.294H643.984V122.412H639.866V118.294ZM639.866 122.412H643.984V126.529H639.866V122.412ZM635.749 114.176H639.866V118.294H635.749V114.176ZM635.749 110.059H639.866V114.176H635.749V110.059ZM635.749 105.941H639.866V110.059H635.749V105.941ZM635.749 101.824H639.866V105.941H635.749V101.824ZM635.749 97.7059H639.866V101.824H635.749V97.7059ZM635.749 93.5882H639.866V97.7059H635.749V93.5882ZM635.749 89.4706H639.866V93.5882H635.749V89.4706ZM635.749 85.3529H639.866V89.4706H635.749V85.3529ZM635.749 81.2353H639.866V85.3529H635.749V81.2353ZM635.749 77.1177H639.866V81.2353H635.749V77.1177ZM635.749 73H639.866V77.1177H635.749V73ZM635.749 68.8824H639.866V73H635.749V68.8824ZM635.749 64.7647H639.866V68.8824H635.749V64.7647ZM631.631 68.8824H635.749V73H631.631V68.8824ZM631.631 73H635.749V77.1177H631.631V73ZM631.631 77.1177H635.749V81.2353H631.631V77.1177ZM631.631 81.2353H635.749V85.3529H631.631V81.2353Z" fill="#1C1C1C"/>
</svg>
