<svg width="53" height="52" viewBox="0 0 53 52" fill="none" xmlns="http://www.w3.org/2000/svg">
<path d="M52.8028 25.8607C52.8254 30.9851 51.328 36.001 48.5 40.2744C45.6719 44.5478 41.6402 47.8866 36.9146 49.8686C32.1891 51.8507 26.9819 52.387 21.9515 51.4097C16.9212 50.4324 12.2936 47.9854 8.65391 44.3782C5.01423 40.7709 2.52592 36.1654 1.50362 31.1441C0.48133 26.1227 0.970969 20.9109 2.91062 16.1678C4.85028 11.4246 8.15284 7.3632 12.4007 4.49699C16.6486 1.63077 21.6509 0.0885242 26.7753 0.0652576C33.6473 0.0347798 40.2501 2.73531 45.1311 7.57284C50.0122 12.4104 52.7717 18.9887 52.8028 25.8607Z" fill="#1C1C1C"/>
<path d="M50.8508 25.8662C50.8724 30.6046 49.4883 35.243 46.8738 39.1949C44.2592 43.1467 40.5314 46.2345 36.162 48.0677C31.7925 49.9009 26.9775 50.3973 22.326 49.4941C17.6744 48.5908 13.3951 46.3285 10.0293 42.9932C6.66345 39.6579 4.36222 35.3995 3.41661 30.7563C2.471 26.1132 2.92347 21.2939 4.71681 16.9079C6.51014 12.5219 9.5638 8.76617 13.4916 6.11566C17.4195 3.46515 22.045 2.03889 26.7834 2.01725C29.9297 2.00288 33.048 2.60835 35.9602 3.7991C38.8724 4.98985 41.5216 6.74256 43.7565 8.95715C45.9914 11.1717 47.7682 13.8048 48.9854 16.7061C50.2027 19.6074 50.8365 22.72 50.8508 25.8662Z" fill="#E9E9E9"/>
<path d="M27.3295 3.57049C28.8526 3.29861 30.4118 3.29861 31.9349 3.57049C33.4726 3.81416 34.959 4.31238 36.3329 5.04467C37.6979 5.79542 38.88 6.81369 40.0538 7.77464C41.2277 8.73559 42.3989 9.70746 43.5127 10.7776C44.6484 11.8298 45.6398 13.0277 46.4611 14.3402C47.3078 15.6438 48.0013 17.0408 48.5277 18.5034C49.5519 21.4248 49.8434 24.553 49.3767 27.6133H49.2238C48.7742 24.6896 48.0221 21.8205 46.9798 19.0521C46.4802 17.6831 45.892 16.348 45.2189 15.0555C44.5116 13.7666 43.7332 12.518 42.8875 11.3154C42.0249 10.0982 40.9679 9.03109 39.759 8.15684C38.5442 7.29144 37.1464 6.72906 35.7924 6.19672C34.4383 5.66438 33.0842 5.13476 31.6783 4.728C30.2724 4.32123 28.8337 4.01821 27.3349 3.72337L27.3295 3.57049Z" fill="#1C1C1C"/>
<path d="M39.0411 17.4033C37.3021 16.8982 35.4921 16.1857 33.674 15.465C33.5702 15.0064 33.1635 14.4358 32.3445 13.7397C31.1515 12.705 28.9129 12.7323 26.9773 13.1937C24.8425 12.6914 22.7322 12.5139 20.6984 12.9998C4.14117 17.5589 13.5323 28.7053 7.44989 39.8982C8.31529 41.7327 17.6436 52.4561 31.1405 49.5705C31.1405 49.5705 26.5269 38.4786 36.9417 33.1552C45.391 28.8227 51.4979 20.8021 39.0411 17.4033Z" fill="#1C1C1C"/>
<path d="M41.0858 24.6949C41.0874 24.8939 41.03 25.0888 40.9207 25.255C40.8114 25.4212 40.6552 25.5513 40.472 25.6286C40.2887 25.706 40.0866 25.7272 39.8913 25.6896C39.6959 25.652 39.5162 25.5573 39.3747 25.4174C39.2333 25.2775 39.1366 25.0987 39.0969 24.9038C39.0571 24.7089 39.0761 24.5066 39.1515 24.3225C39.2269 24.1384 39.3552 23.9808 39.5202 23.8697C39.6853 23.7586 39.8795 23.699 40.0785 23.6985C40.21 23.6978 40.3405 23.723 40.4623 23.7727C40.5841 23.8224 40.695 23.8956 40.7885 23.9881C40.8821 24.0806 40.9565 24.1907 41.0075 24.3119C41.0585 24.4332 41.0851 24.5634 41.0858 24.6949Z" fill="#1C1C1C"/>
<path d="M26.977 13.1882C28.1836 13.2756 32.5489 14.7006 33.6736 15.465C32.7427 12.735 29.5786 12.3801 26.977 13.1882Z" fill="#E9E9E9"/>
<path d="M28.1266 20.0733C28.1266 20.9912 27.8544 21.8885 27.3445 22.6517C26.8345 23.4149 26.1097 24.0097 25.2617 24.361C24.4137 24.7122 23.4805 24.8041 22.5803 24.6251C21.68 24.446 20.8531 24.004 20.204 23.3549C19.555 22.7059 19.113 21.8789 18.9339 20.9787C18.7548 20.0784 18.8467 19.1453 19.198 18.2973C19.5493 17.4493 20.1441 16.7244 20.9073 16.2145C21.6705 15.7045 22.5678 15.4323 23.4857 15.4323C24.7165 15.4323 25.897 15.9213 26.7673 16.7916C27.6377 17.662 28.1266 18.8424 28.1266 20.0733Z" fill="#1C1C1C"/>
<path d="M26.753 20.1142C26.7536 20.759 26.5629 21.3895 26.205 21.9258C25.8472 22.4622 25.3383 22.8805 24.7427 23.1276C24.1472 23.3747 23.4917 23.4397 22.8592 23.3142C22.2268 23.1887 21.6457 22.8785 21.1896 22.4227C20.7334 21.967 20.4227 21.3862 20.2967 20.7538C20.1707 20.1215 20.2351 19.4659 20.4817 18.8702C20.7284 18.2744 21.1462 17.7651 21.6823 17.4069C22.2184 17.0486 22.8487 16.8573 23.4935 16.8573C24.3573 16.8581 25.1855 17.2013 25.7966 17.8119C26.4076 18.4224 26.7516 19.2504 26.753 20.1142Z" fill="#E9E9E9"/>
<path d="M44.8393 26.737C41.0855 29.3824 36.8159 31.378 30.7608 31.378C27.9271 31.378 27.3538 28.375 25.4811 29.8437C24.5119 30.6054 21.1131 32.3007 18.3968 32.1806C15.6805 32.0605 11.2989 30.4634 10.084 24.6895C9.60083 30.4634 9.35241 34.7167 7.18481 39.5924C11.5036 46.5074 21.7983 51.8391 31.1403 49.5459C30.1384 42.5353 36.2644 35.6667 39.7178 32.1533C41.0228 30.8238 43.5398 28.6507 44.8393 26.7261V26.737Z" fill="#1C1C1C"/>
<path d="M44.6917 26.9116C43.4958 27.9401 42.1615 28.7956 40.7278 29.4532C39.2987 30.1322 37.8089 30.6752 36.278 31.0748C34.7492 31.4707 33.1494 31.7682 31.5306 31.6208C29.9117 31.4734 28.2546 30.9219 27.1872 29.7098L27.2391 29.6498C28.5604 30.5042 30.07 30.8045 31.577 30.8482C33.107 30.8926 34.6371 30.7654 36.1388 30.4688C37.6558 30.1526 39.14 29.6956 40.5722 29.1038C42.0276 28.548 43.3977 27.7908 44.6426 26.8543L44.6917 26.9116Z" fill="#E9E9E9"/>
</svg>
