<svg width="40" height="34" viewBox="0 0 40 34" fill="none" xmlns="http://www.w3.org/2000/svg">
<path fill-rule="evenodd" clip-rule="evenodd" d="M35.2966 0.911311C35.7742 0.71022 36.297 0.640865 36.8105 0.710464C37.3241 0.780063 37.8095 0.986073 38.2165 1.30705C38.6234 1.62803 38.9369 2.05224 39.1243 2.53553C39.3117 3.01882 39.3661 3.54352 39.282 4.05502L34.8984 30.6528C34.4732 33.2185 31.6591 34.6898 29.3069 33.4118C27.3393 32.3426 24.4169 30.6954 21.7883 28.9766C20.474 28.1162 16.4479 25.3611 16.9427 23.4006C17.368 21.7244 24.1327 15.4254 27.9983 11.6804C29.5156 10.209 28.8237 9.36028 27.0319 10.7137C22.5826 14.0739 15.439 19.1839 13.0771 20.6223C10.9936 21.8907 9.90735 22.1072 8.60851 21.8907C6.23889 21.4962 4.0413 20.8853 2.24766 20.1409C-0.176065 19.1356 -0.0581647 15.8024 2.24573 14.8318L35.2966 0.911311Z" fill="#1C1C1C"/>
</svg>
