<svg width="149" height="29" viewBox="0 0 149 29" fill="none" xmlns="http://www.w3.org/2000/svg">
<path d="M0.932005 28L10.8264 0.838874H16.9959L26.8903 28H21.1476L13.8917 7.00833L6.59704 28H0.932005ZM5.27778 21.9081L6.71344 17.6788H20.682L22.0789 21.9081H5.27778ZM29.6021 28V0.838874H35.0344V28H29.6021ZM51.5005 28.4656C48.9137 28.4656 46.6632 27.8965 44.749 26.7583C42.8348 25.5943 41.3345 23.9776 40.248 21.9081C39.1875 19.8129 38.6572 17.3813 38.6572 14.6134C38.6572 11.8197 39.2004 9.3623 40.2868 7.24114C41.3991 5.09412 42.9771 3.41272 45.0206 2.19693C47.09 0.981148 49.5475 0.373257 52.3929 0.373257C55.6005 0.373257 58.252 1.14929 60.3473 2.70135C62.4684 4.22755 63.8394 6.3487 64.4602 9.06482H58.4072C58.0192 7.90077 57.3078 6.9954 56.2731 6.3487C55.2643 5.70201 53.9579 5.37866 52.3541 5.37866C50.5951 5.37866 49.1077 5.75375 47.8919 6.50391C46.6762 7.25407 45.7579 8.32759 45.137 9.72444C44.5162 11.0954 44.2058 12.738 44.2058 14.6522C44.2058 16.5665 44.5162 18.1961 45.137 19.5412C45.7837 20.8864 46.6891 21.9081 47.8531 22.6066C49.0431 23.305 50.4399 23.6542 52.0437 23.6542C54.3718 23.6542 56.1308 23.0334 57.3207 21.7917C58.5365 20.5242 59.2608 18.9204 59.4936 16.9803H52.9362V12.945H64.9647V28H59.9592L59.5324 24.6631C58.9633 25.465 58.3037 26.1505 57.5535 26.7195C56.8034 27.2886 55.9239 27.7155 54.915 28C53.9321 28.3104 52.7939 28.4656 51.5005 28.4656ZM69.0494 28V0.838874H79.3319C81.5306 0.838874 83.3414 1.21396 84.7641 1.96412C86.2127 2.71429 87.2862 3.72313 87.9846 4.99065C88.7089 6.2323 89.0711 7.62916 89.0711 9.18122C89.0711 10.6298 88.7219 11.9879 88.0234 13.2554C87.3509 14.5229 86.2903 15.5447 84.8417 16.3207C83.3931 17.0709 81.5436 17.446 79.2931 17.446H74.4817V28H69.0494ZM83.0956 28L77.547 16.0879H83.4448L89.3039 28H83.0956ZM74.4817 13.4882H79.0214C80.5476 13.4882 81.6729 13.1131 82.3972 12.363C83.1474 11.6128 83.5224 10.6169 83.5224 9.37523C83.5224 8.15945 83.1603 7.18941 82.436 6.46511C81.7117 5.74081 80.5606 5.37866 78.9826 5.37866H74.4817V13.4882ZM91.0806 28L100.975 0.838874H107.144L117.039 28H111.296L104.04 7.00833L96.7456 28H91.0806ZM95.4263 21.9081L96.862 17.6788H110.831L112.227 21.9081H95.4263ZM119.751 28V0.838874H126.269L134.457 17.5624L142.527 0.838874H149.007V28H143.575V10.0349L136.552 24.1974H132.245L125.183 10.0349V28H119.751Z" fill="#445763"/>
</svg>
