<svg width="197" height="87" viewBox="0 0 197 87" fill="none" xmlns="http://www.w3.org/2000/svg">
<path fill-rule="evenodd" clip-rule="evenodd" d="M196.746 0H27.5445L0 27.5445V86.5684H196.746V0Z" fill="#A83DDA"/>
<path fill-rule="evenodd" clip-rule="evenodd" d="M196.746 0H27.5445L0 27.5445V86.5684H196.746V0Z" fill="url(#paint0_radial_2076_3565)" fill-opacity="0.6"/>
<path opacity="0.8" d="M53.6675 25.0389H66.6784C70.0976 25.0389 72.7429 25.9207 74.6145 27.6843C76.522 29.4479 77.4758 31.8593 77.4758 34.9186C77.4758 37.1141 76.9359 38.8597 75.8562 40.1553C74.7764 41.451 73.3188 42.3688 71.4832 42.9087V43.1786C73.6787 43.6825 75.4423 44.6543 76.774 46.0939C78.1057 47.4976 78.7715 49.4951 78.7715 52.0865C78.7715 53.6341 78.5196 55.0558 78.0157 56.3515C77.5118 57.6472 76.792 58.7809 75.8562 59.7527C74.9204 60.6885 73.7867 61.4263 72.455 61.9662C71.1593 62.47 69.7196 62.722 68.136 62.722H53.6675V25.0389ZM66.3005 58.0791C68.316 58.0791 69.8636 57.6652 70.9434 56.8374C72.0231 56.0096 72.563 54.6779 72.563 52.8423V50.8988C72.563 49.0632 72.0231 47.7315 70.9434 46.9037C69.8636 46.0759 68.316 45.662 66.3005 45.662H59.606V58.0791H66.3005ZM65.4367 41.2351C67.3442 41.2351 68.7839 40.8752 69.7556 40.1553C70.7634 39.3995 71.2673 38.1578 71.2673 36.4302V34.4867C71.2673 32.7591 70.7634 31.5354 69.7556 30.8156C68.7839 30.0597 67.3442 29.6818 65.4367 29.6818H59.606V41.2351H65.4367ZM90.7895 25.0389V48.1994C90.7895 49.7471 90.8255 51.1507 90.8975 52.4104C91.0055 53.6701 91.2754 54.7499 91.7073 55.6497C92.1392 56.5135 92.7871 57.1793 93.6509 57.6472C94.5147 58.1151 95.7024 58.349 97.214 58.349C98.7257 58.349 99.9134 58.1151 100.777 57.6472C101.641 57.1793 102.289 56.5135 102.721 55.6497C103.153 54.7499 103.405 53.6701 103.477 52.4104C103.585 51.1507 103.638 49.7471 103.638 48.1994V25.0389H109.685V47.1197C109.685 49.819 109.523 52.1945 109.199 54.246C108.911 56.2615 108.317 57.9531 107.418 59.3208C106.518 60.6525 105.24 61.6602 103.585 62.3441C101.965 63.0279 99.8414 63.3698 97.214 63.3698C94.5866 63.3698 92.4452 63.0279 90.7895 62.3441C89.1699 61.6602 87.9102 60.6525 87.0104 59.3208C86.1107 57.9531 85.4988 56.2615 85.1749 54.246C84.8869 52.1945 84.743 49.819 84.743 47.1197V25.0389H90.7895ZM126.022 62.722V48.5234L113.497 25.0389H120.245L125.05 34.4327L128.937 42.4768H129.261L133.202 34.4327L138.007 25.0389H144.594L132.069 48.5234V62.722H126.022Z" fill="#F8F8F9"/>
<defs>
<radialGradient id="paint0_radial_2076_3565" cx="0" cy="0" r="1" gradientUnits="userSpaceOnUse" gradientTransform="translate(-8.03257e-07 86.5684) scale(271.51 271.51)">
<stop stop-color="#52AEFF"/>
<stop offset="1" stop-color="#52AEFF" stop-opacity="0"/>
</radialGradient>
</defs>
</svg>
