<svg width="238" height="62" viewBox="0 0 238 62" fill="none" xmlns="http://www.w3.org/2000/svg">
<path d="M0 62L0 0L4.1707 0V62H0ZM8.34139 62V0L14.5974 0V62H8.34139ZM18.7681 62V0L20.8535 0V62H18.7681Z" fill="#F1F1F1"/>
<path d="M20.1638 62V0L22.2491 0V62H20.1638ZM26.4198 62V0L32.6759 0V62H26.4198ZM36.8466 62V0L41.0173 0V62H36.8466Z" fill="#F1F1F1"/>
<path d="M40.3276 62V0L42.4129 0V62H40.3276ZM46.5836 62V0L50.7543 0V62H46.5836ZM54.925 62V0L61.1811 0V62H54.925Z" fill="#F1F1F1"/>
<path d="M60.4914 62V0L62.5767 0V62H60.4914ZM66.7474 62V0L73.0035 0V62H66.7474ZM77.1741 62V0L81.3448 0V62H77.1741Z" fill="#F1F1F1"/>
<path d="M80.6552 62V0L84.8259 0V62H80.6552ZM88.9966 62V0L95.2526 0V62H88.9966ZM99.4233 62V0L101.509 0V62H99.4233Z" fill="#F1F1F1"/>
<path d="M100.819 62V0L102.904 0V62H100.819ZM107.075 62V0L111.246 0V62H107.075ZM115.416 62V0L121.672 0V62H115.416Z" fill="#F1F1F1"/>
<path d="M120.983 62V0L125.153 0V62H120.983ZM129.324 62V0L135.58 0V62H129.324ZM139.751 62V0L141.836 0V62H139.751Z" fill="#F1F1F1"/>
<path d="M141.147 62V0L145.317 0V62H141.147ZM149.488 62V0L151.573 0V62H149.488ZM155.744 62V0L162 0V62H155.744Z" fill="#F1F1F1"/>
<rect x="176" width="62" height="62" rx="10" fill="white"/>
<path d="M188.94 47.02L199.609 17.2485H204.245L214.915 47.02H210.719L208.281 40.0267H195.573L193.136 47.02H188.94ZM196.812 36.4301H207.042L201.368 20.0858H202.487L196.812 36.4301ZM218.267 47.02V17.2485H222.183V47.02H218.267Z" fill="black"/>
</svg>
