<svg width="62" height="162" viewBox="0 0 62 162" fill="none" xmlns="http://www.w3.org/2000/svg">
<path d="M62 162H0L0 157.829H62V162ZM62 153.659H0L0 147.403H62V153.659ZM62 143.232H0L0 141.147H62V143.232Z" fill="#F1F1F1"/>
<path d="M62 141.836H0L0 139.751H62V141.836ZM62 135.58H0L0 129.324H62V135.58ZM62 125.153H0L0 120.983H62V125.153Z" fill="#F1F1F1"/>
<path d="M62 121.672H0L0 119.587H62V121.672ZM62 115.416H0L0 111.246H62V115.416ZM62 107.075H0L0 100.819H62L62 107.075Z" fill="#F1F1F1"/>
<path d="M62 101.509H0L0 99.4233H62V101.509ZM62 95.2526H0L0 88.9965H62V95.2526ZM62 84.8259H0L0 80.6552H62V84.8259Z" fill="#F1F1F1"/>
<path d="M62 81.3448H0L0 77.1741H62V81.3448ZM62 73.0034H0L0 66.7474H62V73.0034ZM62 62.5767H0L0 60.4914H62V62.5767Z" fill="#F1F1F1"/>
<path d="M62 61.181H0L0 59.0957H62V61.181ZM62 54.925H0L0 50.7543H62V54.925ZM62 46.5836H0L0 40.3276H62V46.5836Z" fill="#F1F1F1"/>
<path d="M62 41.0173H0L0 36.8466H62V41.0173ZM62 32.6759H0L0 26.4198H62V32.6759ZM62 22.2491H0L0 20.1638H62V22.2491Z" fill="#F1F1F1"/>
<path d="M62 20.8535H0L0 16.6828H62V20.8535ZM62 12.5121H0L0 10.4267H62V12.5121ZM62 6.25603H0L0 0H62V6.25603Z" fill="#F1F1F1"/>
</svg>
