<svg width="146" height="30" viewBox="0 0 146 30" fill="none" xmlns="http://www.w3.org/2000/svg">
<path d="M41.3788 26.5882H36.5035V3.59529H45.3976C46.5176 3.59529 47.5169 3.77098 48.3953 4.12235C49.2737 4.45176 50.0094 4.9349 50.6024 5.57176C51.2173 6.20862 51.6784 6.97725 51.9859 7.87764C52.2933 8.77804 52.4471 9.78823 52.4471 10.9082C52.4471 12.5333 52.0957 13.9278 51.3929 15.0918C50.6902 16.2557 49.691 17.0243 48.3953 17.3976L52.9082 26.5882H47.5059L43.6518 18.0565H41.3788V26.5882ZM44.2118 14.2353C45.3757 14.2353 46.1773 14.0157 46.6165 13.5765C47.0776 13.1373 47.3082 12.4125 47.3082 11.4024V10.4141C47.3082 9.40392 47.0776 8.67921 46.6165 8.24C46.1773 7.80078 45.3757 7.58117 44.2118 7.58117H41.3788V14.2353H44.2118ZM59.6813 26.5882V3.59529H74.373V7.64706H64.6224V12.9176H74.0436V16.9694H64.6224V22.5365H74.373V26.5882H59.6813ZM87.5037 26.5882V18.4518L80.2237 3.59529H85.7249L88.1625 8.93176L89.9413 13.4447H90.2049L91.9837 8.93176L94.4213 3.59529H99.7249L92.4449 18.4518V26.5882H87.5037ZM109.726 11.3035H109.364V26.5882H105.147V3.59529H111.077L116.314 18.88H116.677V3.59529H120.893V26.5882H114.964L109.726 11.3035ZM140.513 26.5882L139.064 21.0541H132.772L131.356 26.5882H126.349L132.574 3.59529H139.558L145.784 26.5882H140.513ZM136.066 8.37176H135.803L133.563 17.0682H138.306L136.066 8.37176Z" fill="#F5F5F5"/>
<path d="M7 22.6085V23L13 30L14.7231 26.0368L15 26.3137L24.1924 27.0208L22.6084 23L23 23L30 17L26.0368 15.2769L26.3137 15L27.0208 5.80764L23 7.39159V7.00003L17 2.67029e-05L15.2769 3.96319L15 3.68632L5.80761 2.97922L7.39157 7.00003H7L0 13L3.96317 14.7231L3.6863 15L2.9792 24.1924L7 22.6085Z" fill="#A83DDA"/>
<path d="M7 22.6085V23L13 30L14.7231 26.0368L15 26.3137L24.1924 27.0208L22.6084 23L23 23L30 17L26.0368 15.2769L26.3137 15L27.0208 5.80764L23 7.39159V7.00003L17 2.67029e-05L15.2769 3.96319L15 3.68632L5.80761 2.97922L7.39157 7.00003H7L0 13L3.96317 14.7231L3.6863 15L2.9792 24.1924L7 22.6085Z" fill="url(#paint0_linear_2076_3550)" fill-opacity="0.5"/>
<defs>
<linearGradient id="paint0_linear_2076_3550" x1="15" y1="2.67029e-05" x2="15" y2="30" gradientUnits="userSpaceOnUse">
<stop stop-color="#52AEFF" stop-opacity="0"/>
<stop offset="1" stop-color="#52AEFF"/>
</linearGradient>
</defs>
</svg>
