<svg width="79" height="79" viewBox="0 0 79 79" fill="none" xmlns="http://www.w3.org/2000/svg">
<path d="M47.9853 18.2868C51.5 14.7721 57.1985 14.7721 60.7132 18.2868C64.2279 21.8015 64.2279 27.5 60.7132 31.0147C57.1985 34.5295 51.5 34.5295 47.9853 31.0147C44.4706 27.5 44.4706 21.8015 47.9853 18.2868Z" fill="#6B71EB"/>
<path d="M33.136 3.43758C36.6507 -0.0771346 42.3492 -0.0771345 45.8639 3.43758C49.3787 6.9523 49.3787 12.6508 45.8639 16.1655C42.3492 19.6802 36.6507 19.6802 33.136 16.1655C29.6213 12.6508 29.6213 6.9523 33.136 3.43758Z" fill="#6B71EB"/>
<path d="M75.5624 33.1361C72.0477 29.6213 66.3492 29.6213 62.8345 33.1361C59.3198 36.6508 59.3198 42.3493 62.8345 45.864C66.3492 49.3787 72.0477 49.3787 75.5624 45.864C79.0771 42.3493 79.0771 36.6508 75.5624 33.1361Z" fill="#6B71EB"/>
<path d="M18.2868 18.2868C21.8015 14.7721 27.5 14.7721 31.0147 18.2868C34.5294 21.8015 34.5294 27.5 31.0147 31.0147C27.5 34.5295 21.8015 34.5295 18.2868 31.0147C14.772 27.5 14.772 21.8015 18.2868 18.2868Z" fill="#6B71EB"/>
<path d="M45.8639 33.1361C42.3492 29.6213 36.6507 29.6213 33.136 33.1361C29.6213 36.6508 29.6213 42.3493 33.136 45.864C36.6507 49.3787 42.3492 49.3787 45.8639 45.864C49.3787 42.3493 49.3787 36.6508 45.8639 33.1361Z" fill="#6B71EB"/>
<path d="M47.9853 47.9853C51.5 44.4706 57.1985 44.4706 60.7132 47.9853C64.2279 51.5 64.2279 57.1985 60.7132 60.7132C57.1985 64.228 51.5 64.2279 47.9853 60.7132C44.4706 57.1985 44.4706 51.5 47.9853 47.9853Z" fill="#6B71EB"/>
<path d="M16.1655 33.1361C12.6508 29.6213 6.95227 29.6213 3.43755 33.1361C-0.0771657 36.6508 -0.0771672 42.3493 3.43755 45.864C6.95227 49.3787 12.6508 49.3787 16.1655 45.864C19.6802 42.3493 19.6802 36.6508 16.1655 33.1361Z" fill="#6B71EB"/>
<path d="M18.2868 47.9853C21.8015 44.4706 27.5 44.4706 31.0147 47.9853C34.5294 51.5 34.5294 57.1985 31.0147 60.7132C27.5 64.2279 21.8015 64.228 18.2868 60.7132C14.772 57.1985 14.772 51.5 18.2868 47.9853Z" fill="#6B71EB"/>
<path d="M45.8639 62.8346C42.3492 59.3198 36.6507 59.3198 33.136 62.8346C29.6213 66.3493 29.6213 72.0478 33.136 75.5625C36.6507 79.0772 42.3492 79.0772 45.8639 75.5625C49.3787 72.0478 49.3787 66.3493 45.8639 62.8346Z" fill="#6B71EB"/>
</svg>
