<svg width="70" height="152" viewBox="0 0 70 152" fill="none" xmlns="http://www.w3.org/2000/svg">
<rect x="25" width="19" height="152" rx="9.5" fill="white"/>
<circle cx="35" cy="76" r="35" fill="white"/>
<path d="M25 74.5C24.1716 74.5 23.5 75.1716 23.5 76C23.5 76.8284 24.1716 77.5 25 77.5V74.5ZM45.0607 77.0607C45.6464 76.4749 45.6464 75.5251 45.0607 74.9393L35.5147 65.3934C34.9289 64.8076 33.9792 64.8076 33.3934 65.3934C32.8076 65.9792 32.8076 66.9289 33.3934 67.5147L41.8787 76L33.3934 84.4853C32.8076 85.0711 32.8076 86.0208 33.3934 86.6066C33.9792 87.1924 34.9289 87.1924 35.5147 86.6066L45.0607 77.0607ZM25 77.5H44V74.5H25V77.5Z" fill="black"/>
</svg>
