<svg width="70" height="152" viewBox="0 0 70 152" fill="none" xmlns="http://www.w3.org/2000/svg">
<rect width="19" height="152" rx="9.5" transform="matrix(-1 0 0 1 45 0)" fill="white"/>
<circle cx="35" cy="35" r="35" transform="matrix(-1 0 0 1 70 41)" fill="white"/>
<path d="M45 74.5C45.8284 74.5 46.5 75.1716 46.5 76C46.5 76.8284 45.8284 77.5 45 77.5V74.5ZM24.9393 77.0607C24.3536 76.4749 24.3536 75.5251 24.9393 74.9393L34.4853 65.3934C35.0711 64.8076 36.0208 64.8076 36.6066 65.3934C37.1924 65.9792 37.1924 66.9289 36.6066 67.5147L28.1213 76L36.6066 84.4853C37.1924 85.0711 37.1924 86.0208 36.6066 86.6066C36.0208 87.1924 35.0711 87.1924 34.4853 86.6066L24.9393 77.0607ZM45 77.5H26V74.5H45V77.5Z" fill="black"/>
</svg>
