<svg width="103" height="102" viewBox="0 0 103 102" fill="none" xmlns="http://www.w3.org/2000/svg">
<rect x="0.400024" width="102" height="102" rx="23.8" fill="#EA302E"/>
<path d="M37.549 29.7062C42.5146 24.9812 48.4531 23.8 50.9655 23.8C53.4778 23.8 59.7439 24.9812 64.7095 29.7062C65.744 29.2843 68.079 28.1031 69.1431 26.7531C67.9608 29.8468 63.2908 36.9623 54.069 40.6748C53.8491 40.2313 52.9205 39.3445 50.9655 39.3445C49.0104 39.3445 48.4094 40.2313 48.1895 40.6748C38.9677 36.9623 34.2977 29.8468 33.1154 26.7531C34.1795 28.1031 36.5145 29.2843 37.549 29.7062Z" fill="white"/>
<path d="M40.4312 39.4759C41.8297 40.4792 44.9774 42.6037 46.3801 43.0748C43.7094 43.871 38.7805 44.2658 40.4312 39.4759Z" fill="white"/>
<path d="M34.8612 33.8157C35.5145 34.7427 37.0412 36.7537 37.9214 37.3819C36.5115 40.5119 35.7342 46.772 43.9039 46.772L43.6976 49.4875L37.646 52.7593C40.4927 53.5809 46.6881 57.3304 48.6965 65.7566L51.1065 73.6833L53.5599 65.7566C55.5684 57.3304 61.7638 53.5809 64.6105 52.7593L58.5589 49.4875L58.3526 46.772C66.5223 46.772 65.7449 40.5119 64.3351 37.3819C65.2153 36.7537 66.742 34.7427 67.3953 33.8157C69.9347 36.2321 70.2107 40.9953 70.0312 43.0748C70.0312 58.7732 73.1147 66.1068 74.6565 67.8113L68.1247 63.0626L63.7022 70.0119L58.5589 65.7566L51.1065 77.5789L43.6976 65.7566L38.5543 70.0119L34.1318 63.0626L27.6 67.8113C29.1417 66.1068 32.2253 58.7732 32.2253 43.0748C32.0458 40.9953 32.3217 36.2321 34.8612 33.8157Z" fill="white"/>
<path d="M61.8253 39.4759C60.4268 40.4792 57.2791 42.6037 55.8764 43.0748C58.5471 43.871 63.4759 44.2658 61.8253 39.4759Z" fill="white"/>
<path d="M47.1488 47.5862C47.1488 44.4829 49.9213 42.9553 51.3117 42.5794C52.7021 42.9553 55.4829 44.4829 55.4829 47.5862V50.9691L58.6115 52.8185C56.1783 54.2619 51.32 58.565 51.32 64.2303C51.32 58.565 46.4535 54.2619 44.0202 52.8185L47.1488 50.9691V47.5862Z" fill="white"/>
</svg>
