<svg width="103" height="102" viewBox="0 0 103 102" fill="none" xmlns="http://www.w3.org/2000/svg">
<rect x="0.800049" width="102" height="102" rx="23.8" fill="#333A8E"/>
<path fill-rule="evenodd" clip-rule="evenodd" d="M71.6888 29.199C72.288 28.9343 72.9439 28.843 73.5882 28.9346C74.2324 29.0262 74.8415 29.2974 75.352 29.7199C75.8625 30.1423 76.2558 30.7007 76.4909 31.3369C76.7261 31.973 76.7944 32.6636 76.6889 33.3369L71.1893 68.3467C70.6558 71.7237 67.1252 73.6604 64.1741 71.9782C61.7056 70.5709 58.0391 68.4027 54.7413 66.1403C53.0924 65.0078 48.0414 61.3814 48.6621 58.8009C49.1956 56.5945 57.6827 48.3033 62.5324 43.3739C64.436 41.4372 63.5679 40.32 61.32 42.1014C55.7379 46.5244 46.7756 53.2505 43.8124 55.1439C41.1983 56.8133 39.8356 57.0984 38.206 56.8133C35.2331 56.2942 32.4761 55.49 30.2258 54.5102C27.185 53.1869 27.3329 48.7995 30.2233 47.522L71.6888 29.199Z" fill="white"/>
</svg>
