<svg width="103" height="102" viewBox="0 0 103 102" fill="none" xmlns="http://www.w3.org/2000/svg">
<rect x="0.200073" width="102" height="102" rx="23.8" fill="#EA302E"/>
<path fill-rule="evenodd" clip-rule="evenodd" d="M45.0743 23.8211C41.5055 25.6986 38.5858 27.2873 38.5864 27.3519C38.588 27.5187 47.1515 31.8987 47.4555 31.888C47.5937 31.8833 48.5967 31.417 49.6842 30.8519L51.6618 29.8247L55.9813 32.0673L59.5182 30.4622C64.8475 28.0436 65.401 27.7786 65.3143 27.6895C65.1991 27.5714 63.2876 26.5343 58.1015 23.7768C55.5951 22.4441 53.1624 21.1375 52.6954 20.8731C52.2285 20.6087 51.7827 20.396 51.7048 20.4001C51.6269 20.4042 48.6431 21.9437 45.0743 23.8211ZM29.4218 32.007L25.7068 33.945V42.4505C25.7068 47.1285 25.7556 50.9559 25.8155 50.9559C25.8751 50.9559 27.7029 50.1557 29.8771 49.1777L33.8303 47.3995V38.4341L35.7621 39.4971C37.2507 40.3154 38.7402 41.132 40.2306 41.947L42.7672 43.3341L43.896 42.8186C44.6039 42.4948 45.3104 42.1679 46.0154 41.8378C46.5603 41.5815 47.8977 40.9732 48.9874 40.4856C50.0771 39.9978 51.0858 39.5073 51.2289 39.3955C51.4189 39.247 49.1019 37.954 42.6592 34.6126C37.8028 32.094 33.6736 30.0413 33.4832 30.0511C33.2927 30.061 31.4652 30.941 29.4218 32.007ZM65.9838 32.5512C63.4536 33.7048 61.3817 34.6947 61.3794 34.7512C61.3772 34.8075 62.7562 35.6357 64.4441 36.5911C66.1318 37.5468 67.5128 38.3798 67.5128 38.4425C67.5128 38.5051 66.0192 39.2359 64.1941 40.0669C62.3686 40.8977 57.7548 43.002 53.9407 44.7433L41.1612 50.5772C37.9465 52.0449 35.0488 53.3678 34.7219 53.5173C28.1557 56.5193 26.3509 57.3523 26.1031 57.4952C25.8539 57.6392 25.7974 58.4755 25.7531 62.6732L25.7001 67.6796L32.3443 71.0986L36.9509 68.999C39.4846 67.8443 41.5574 66.839 41.5574 66.765C41.5574 66.6912 41.0892 66.3831 40.5173 66.0801C39.945 65.7771 38.7637 65.1063 37.892 64.5892C37.0203 64.0721 36.151 63.5976 35.9602 63.5347C35.7694 63.472 35.6161 63.3622 35.6192 63.2906C35.6224 63.2192 37.6509 62.2461 40.1267 61.128C44.9356 58.9566 48.6157 57.283 56.5164 53.6746C60.0493 52.0614 63.5827 50.4492 67.1165 48.838C70.2222 47.4222 73.8332 45.7687 75.1409 45.1636L77.5185 44.0633L77.6245 33.9366L74.255 32.1899C72.4017 31.2294 70.8176 30.4458 70.7346 30.4487C70.6516 30.4513 68.5137 31.3974 65.9838 32.5512ZM76.6157 50.8183C76.1192 51.0632 75.1385 51.5218 74.4363 51.8373C73.7341 52.1528 72.4017 52.76 71.4754 53.1868L69.7913 53.9626L69.7528 58.4079C69.7316 60.8527 69.6425 62.8422 69.5547 62.8293C69.3554 62.7993 66.199 61.1645 63.0261 59.4474C60.736 58.2083 60.5922 58.159 60.0541 58.4282C59.743 58.5838 57.8836 59.426 55.9221 60.3001C53.9605 61.174 52.2917 61.946 52.2132 62.0159C52.1349 62.0857 56.0827 64.2467 60.9863 66.8183L69.9017 71.4939L73.7102 69.5042C75.8046 68.41 77.5856 67.4119 77.6676 67.2864C77.8523 67.0041 77.8364 50.3342 77.6516 50.3567C77.5785 50.3656 77.1122 50.5733 76.6157 50.8183ZM55.5258 70.3846C54.8652 70.6714 54.2047 70.9587 53.5445 71.2463C51.5506 72.1175 51.9414 72.1464 49.5693 70.9538C47.9894 70.1595 47.3084 69.9145 47.0128 70.0334C46.7911 70.1226 44.8829 70.9897 42.772 71.9601C40.6613 72.9306 38.861 73.7246 38.7715 73.7246C37.8859 73.7246 39.3582 74.613 45.0395 77.5073L51.7022 80.9013L54.5056 79.5035C56.0475 78.7347 59.1573 77.1953 61.4166 76.0825C63.6757 74.9695 65.4962 74.03 65.4621 73.9946C65.4278 73.9593 63.5348 72.9776 61.2554 71.813L57.1109 69.696L55.5258 70.3846Z" fill="white"/>
</svg>
