<svg width="70" height="69" viewBox="0 0 70 69" fill="none" xmlns="http://www.w3.org/2000/svg">
<rect x="2.80103" y="2.5" width="64" height="64" rx="16.3824" fill="#EB3D3E"/>
<rect x="2.80103" y="2.5" width="64" height="64" rx="16.3824" stroke="#1E1E1E" stroke-width="5"/>
<path fill-rule="evenodd" clip-rule="evenodd" d="M49.0215 19.6975C49.4626 19.5156 49.9453 19.4529 50.4195 19.5159C50.8937 19.5788 51.3421 19.7651 51.7178 20.0553C52.0936 20.3455 52.3831 20.7291 52.5561 21.1661C52.7292 21.6031 52.7795 22.0775 52.7018 22.54L48.6539 46.5893C48.2612 48.9091 45.6625 50.2395 43.4904 49.084C41.6735 48.1172 38.9748 46.6278 36.5475 45.0737C35.3338 44.2958 31.6161 41.8046 32.073 40.032C32.4656 38.5164 38.7125 32.8209 42.2821 29.4347C43.6832 28.1043 43.0442 27.3369 41.3897 28.5606C37.281 31.5989 30.6844 36.2193 28.5034 37.5199C26.5793 38.6667 25.5763 38.8625 24.3769 38.6667C22.1887 38.3101 20.1594 37.7577 18.5031 37.0846C16.2649 36.1756 16.3738 33.1618 18.5013 32.2842L49.0215 19.6975Z" fill="white"/>
</svg>
