<svg width="70" height="69" viewBox="0 0 70 69" fill="none" xmlns="http://www.w3.org/2000/svg">
<rect x="2.80103" y="2.5" width="64" height="64" rx="16.3824" fill="#24A471"/>
<rect x="2.80103" y="2.5" width="64" height="64" rx="16.3824" stroke="#1E1E1E" stroke-width="5"/>
<path fill-rule="evenodd" clip-rule="evenodd" d="M30.5767 17.5704C28.3182 18.7552 26.4705 19.7576 26.4709 19.7984C26.4719 19.9037 31.8913 22.6674 32.0837 22.6607C32.1712 22.6577 32.8059 22.3635 33.4941 22.0069L34.7457 21.3587L37.4793 22.7738L39.7176 21.761C43.0903 20.2349 43.4406 20.0676 43.3857 20.0115C43.3128 19.9369 42.1031 19.2825 38.821 17.5425C37.2349 16.7016 35.6953 15.8771 35.3998 15.7102C35.1043 15.5434 34.8222 15.4092 34.7729 15.4118C34.7236 15.4144 32.8353 16.3858 30.5767 17.5704ZM20.671 22.7358L18.32 23.9586V29.3256C18.32 32.2775 18.3508 34.6926 18.3887 34.6926C18.4265 34.6926 19.5832 34.1877 20.9592 33.5705L23.4609 32.4485V26.7913L24.6835 27.462C25.6255 27.9784 26.5682 28.4937 27.5114 29.008L29.1167 29.8832L29.831 29.558C30.279 29.3536 30.7261 29.1473 31.1723 28.939C31.5171 28.7773 32.3635 28.3935 33.0532 28.0858C33.7428 27.778 34.3812 27.4685 34.4717 27.398C34.5919 27.3043 33.1257 26.4883 29.0484 24.38C25.975 22.7907 23.3618 21.4954 23.2413 21.5016C23.1207 21.5078 21.9641 22.0631 20.671 22.7358ZM43.8094 23.0792C42.2082 23.8071 40.897 24.4317 40.8955 24.4674C40.8941 24.5029 41.7668 25.0255 42.835 25.6284C43.9031 26.2314 44.777 26.757 44.777 26.7966C44.777 26.8361 43.8318 27.2973 42.6768 27.8216C41.5215 28.3458 38.6016 29.6737 36.1879 30.7724L28.1003 34.4537C26.0659 35.3798 24.2321 36.2145 24.0252 36.3088C19.8698 38.2031 18.7276 38.7287 18.5708 38.8189C18.413 38.9098 18.3773 39.4375 18.3492 42.0862L18.3157 45.2453L22.5205 47.4027L25.4358 46.0778C27.0393 45.3492 28.3511 44.7149 28.3511 44.6682C28.3511 44.6216 28.0548 44.4272 27.6928 44.236C27.3307 44.0448 26.5831 43.6216 26.0314 43.2953C25.4797 42.9689 24.9296 42.6696 24.8088 42.6299C24.6881 42.5903 24.5911 42.521 24.593 42.4758C24.5951 42.4308 25.8788 41.8167 27.4457 41.1112C30.489 39.741 32.8179 38.685 37.8179 36.4081C40.0537 35.3902 42.2898 34.3729 44.5262 33.3562C46.4917 32.4628 48.7769 31.4195 49.6045 31.0376L51.1091 30.3434L51.1762 23.9534L49.0438 22.8512C47.871 22.2451 46.8685 21.7507 46.8159 21.7525C46.7634 21.7541 45.4105 22.3511 43.8094 23.0792ZM50.5378 34.6057C50.2236 34.7603 49.6029 35.0497 49.1586 35.2488C48.7142 35.4478 47.871 35.831 47.2848 36.1003L46.219 36.5898L46.1946 39.3948C46.1812 40.9375 46.1248 42.1929 46.0693 42.1847C45.9431 42.1658 43.9456 41.1342 41.9376 40.0508C40.4883 39.2689 40.3973 39.2378 40.0567 39.4076C39.8599 39.5058 38.6831 40.0373 37.4418 40.5888C36.2004 41.1402 35.1443 41.6274 35.0946 41.6715C35.0451 41.7156 37.5435 43.0791 40.6467 44.7018L46.2888 47.6521L48.6991 46.3966C50.0245 45.7062 51.1516 45.0764 51.2036 44.9972C51.3204 44.8191 51.3104 34.3003 51.1934 34.3145C51.1471 34.3201 50.8521 34.4512 50.5378 34.6057ZM37.191 46.9522C36.7729 47.1332 36.355 47.3144 35.9371 47.4959C34.6753 48.0456 34.9226 48.0639 33.4214 47.3113C32.4216 46.8102 31.9906 46.6555 31.8036 46.7306C31.6632 46.7869 30.4556 47.334 29.1197 47.9463C27.7839 48.5587 26.6447 49.0597 26.588 49.0597C26.0275 49.0597 26.9593 49.6203 30.5547 51.4466L34.7713 53.5882L36.5454 52.7062C37.5212 52.2211 39.4892 51.2497 40.919 50.5476C42.3487 49.8452 43.5008 49.2524 43.4793 49.2301C43.4575 49.2078 42.2596 48.5883 40.817 47.8535L38.1941 46.5176L37.191 46.9522Z" fill="white"/>
</svg>
