<svg width="100" height="99" viewBox="0 0 100 99" fill="none" xmlns="http://www.w3.org/2000/svg">
<g filter="url(#filter0_b_0_389)">
<rect x="1.28125" y="1" width="97" height="97" rx="17" fill="black" fill-opacity="0.1"/>
<rect x="1.28125" y="1" width="97" height="97" rx="17" stroke="white" stroke-width="2"/>
</g>
<path d="M35.4073 26.9964C40.6635 21.9291 46.9497 20.6622 49.6091 20.6622C52.2685 20.6622 58.9014 21.9291 64.1576 26.9964C65.2526 26.5439 67.7243 25.2771 68.8507 23.8293C67.5992 27.1472 62.6558 34.7783 52.8942 38.7598C52.6615 38.2842 51.6786 37.333 49.6091 37.333C47.5396 37.333 46.9034 38.2842 46.6707 38.7598C36.9091 34.7783 31.9657 27.1472 30.7142 23.8293C31.8406 25.2771 34.3123 26.5439 35.4073 26.9964Z" fill="white"/>
<path d="M38.4582 37.474C39.9386 38.55 43.2705 40.8284 44.7553 41.3337C41.9283 42.1875 36.7109 42.6109 38.4582 37.474Z" fill="white"/>
<path d="M32.5622 31.4036C33.2538 32.3978 34.8698 34.5546 35.8016 35.2283C34.3092 38.5851 33.4863 45.2987 42.1342 45.2987L41.9158 48.2111L35.51 51.72C38.5233 52.601 45.0814 56.6223 47.2074 65.659L49.7583 74.16L52.3554 65.659C54.4814 56.6223 61.0395 52.601 64.0528 51.72L57.6469 48.2111L57.4285 45.2987C66.0764 45.2987 65.2536 38.5851 63.7612 35.2283C64.693 34.5546 66.309 32.3978 67.0005 31.4036C69.6886 33.9951 69.9807 39.1035 69.7908 41.3337C69.7908 58.1696 73.0548 66.0346 74.6868 67.8626L67.7727 62.7698L63.0913 70.2226L57.6469 65.659L49.7583 78.3379L41.9158 65.659L36.4714 70.2226L31.7901 62.7698L24.876 67.8626C26.508 66.0346 29.772 58.1696 29.772 41.3337C29.582 39.1035 29.8741 33.9951 32.5622 31.4036Z" fill="white"/>
<path d="M61.1046 37.474C59.6242 38.55 56.2922 40.8284 54.8074 41.3337C57.6345 42.1875 62.8518 42.6109 61.1046 37.474Z" fill="white"/>
<path d="M45.5691 46.172C45.5691 42.8438 48.5038 41.2055 49.9756 40.8024C51.4474 41.2055 54.3909 42.8438 54.3909 46.172V49.8L57.7027 51.7834C55.127 53.3314 49.9844 57.9463 49.9844 64.0221C49.9844 57.9463 44.833 53.3314 42.2573 51.7834L45.5691 49.8V46.172Z" fill="white"/>
<defs>
<filter id="filter0_b_0_389" x="-38.7774" y="-39.0587" width="177.117" height="177.117" filterUnits="userSpaceOnUse" color-interpolation-filters="sRGB">
<feFlood flood-opacity="0" result="BackgroundImageFix"/>
<feGaussianBlur in="BackgroundImageFix" stdDeviation="19.5293"/>
<feComposite in2="SourceAlpha" operator="in" result="effect1_backgroundBlur_0_389"/>
<feBlend mode="normal" in="SourceGraphic" in2="effect1_backgroundBlur_0_389" result="shape"/>
</filter>
</defs>
</svg>
