<svg width="117" height="39" viewBox="0 0 117 39" fill="none" xmlns="http://www.w3.org/2000/svg">
<path d="M0.987211 38V0.528848H21.2164C29.6015 0.528848 35.9952 3.41124 35.9952 11.6392C35.9952 20.1816 29.1823 23.4308 21.0068 23.4308H6.12312V38H0.987211ZM6.12312 19.0286H21.3212C27.4004 19.0286 30.8593 16.7751 30.8593 11.7964C30.8593 7.18456 27.7149 5.03587 21.6881 5.03587H6.12312V19.0286ZM40.5436 38V11.3771H45.3651V38H40.5436ZM39.9671 6.39845V0.84329H45.7319V6.39845H39.9671ZM50.8306 38V0.528848H55.652V23.7976L73.7849 11.3771H81.384L66.972 21.3345L81.8556 38H75.3571L63.3035 24.1645L55.652 29.248V38H50.8306ZM95.4142 38.7042C87.844 38.7042 83.0907 35.5353 83.0907 29.9017C83.0907 27.0262 84.2643 24.9136 86.4356 23.4465C89.1938 21.5686 93.3603 20.6884 98.2897 20.1015C101.752 19.6907 107.151 19.2213 110.965 19.1039V17.9889C110.965 14.2332 107.151 11.9445 100.872 11.9445C95.0621 11.9445 91.5998 13.9397 90.8369 17.05L85.0859 15.8763C86.4356 11.0643 91.6585 7.42587 101.165 7.42587C110.202 7.42587 116.306 10.6535 116.306 18.9865V28.3172C116.306 32.8945 116.423 35.3592 116.951 38H111.552C111.2 36.1221 111.083 34.1856 111.083 32.3664C108.677 35.9461 102.456 38.7042 95.4142 38.7042ZM96.4118 34.3616C104.569 34.3616 110.965 29.6083 110.965 25.9699V22.9183C108.325 22.977 104.745 23.3291 99.9329 23.8573C92.8321 24.6202 88.959 25.8525 88.959 29.5496C88.959 32.5424 91.3651 34.3616 96.4118 34.3616Z" fill="black"/>
<path d="M0.987211 38V0.528848H21.2164C29.6015 0.528848 35.9952 3.41124 35.9952 11.6392C35.9952 20.1816 29.1823 23.4308 21.0068 23.4308H6.12312V38H0.987211ZM6.12312 19.0286H21.3212C27.4004 19.0286 30.8593 16.7751 30.8593 11.7964C30.8593 7.18456 27.7149 5.03587 21.6881 5.03587H6.12312V19.0286ZM40.5436 38V11.3771H45.3651V38H40.5436ZM39.9671 6.39845V0.84329H45.7319V6.39845H39.9671ZM50.8306 38V0.528848H55.652V23.7976L73.7849 11.3771H81.384L66.972 21.3345L81.8556 38H75.3571L63.3035 24.1645L55.652 29.248V38H50.8306ZM95.4142 38.7042C87.844 38.7042 83.0907 35.5353 83.0907 29.9017C83.0907 27.0262 84.2643 24.9136 86.4356 23.4465C89.1938 21.5686 93.3603 20.6884 98.2897 20.1015C101.752 19.6907 107.151 19.2213 110.965 19.1039V17.9889C110.965 14.2332 107.151 11.9445 100.872 11.9445C95.0621 11.9445 91.5998 13.9397 90.8369 17.05L85.0859 15.8763C86.4356 11.0643 91.6585 7.42587 101.165 7.42587C110.202 7.42587 116.306 10.6535 116.306 18.9865V28.3172C116.306 32.8945 116.423 35.3592 116.951 38H111.552C111.2 36.1221 111.083 34.1856 111.083 32.3664C108.677 35.9461 102.456 38.7042 95.4142 38.7042ZM96.4118 34.3616C104.569 34.3616 110.965 29.6083 110.965 25.9699V22.9183C108.325 22.977 104.745 23.3291 99.9329 23.8573C92.8321 24.6202 88.959 25.8525 88.959 29.5496C88.959 32.5424 91.3651 34.3616 96.4118 34.3616Z" fill="#FDF7EF"/>
</svg>
