<svg width="43" height="50" viewBox="0 0 43 50" fill="none" xmlns="http://www.w3.org/2000/svg">
<path d="M9.26644 5.49117C13.6594 1.09823 19.2029 0 21.4255 0V14.4522C19.6959 14.4522 18.8744 15.2768 18.6799 15.6891C10.5216 12.2375 6.39012 5.62191 5.34418 2.74559C6.28552 4.00071 8.35125 5.09895 9.26644 5.49117Z" fill="white"/>
<path d="M9.26644 5.49117C13.6594 1.09823 19.2029 0 21.4255 0V14.4522C19.6959 14.4522 18.8744 15.2768 18.6799 15.6891C10.5216 12.2375 6.39012 5.62191 5.34418 2.74559C6.28552 4.00071 8.35125 5.09895 9.26644 5.49117Z" fill="#FDF7EF"/>
<path d="M33.2947 5.49117C28.9017 1.09823 23.3582 0 21.1356 0V14.4522C22.8652 14.4522 23.6867 15.2768 23.8812 15.6891C32.0395 12.2375 36.171 5.62191 37.2169 2.74559C36.2756 4.00071 34.2098 5.09895 33.2947 5.49117Z" fill="white"/>
<path d="M33.2947 5.49117C28.9017 1.09823 23.3582 0 21.1356 0V14.4522C22.8652 14.4522 23.6867 15.2768 23.8812 15.6891C32.0395 12.2375 36.171 5.62191 37.2169 2.74559C36.2756 4.00071 34.2098 5.09895 33.2947 5.49117Z" fill="#FDF7EF"/>
<path d="M11.8163 14.5744C13.0535 15.5073 15.8382 17.4825 17.0792 17.9205C14.7164 18.6607 10.356 19.0278 11.8163 14.5744Z" fill="white"/>
<path d="M11.8163 14.5744C13.0535 15.5073 15.8382 17.4825 17.0792 17.9205C14.7164 18.6607 10.356 19.0278 11.8163 14.5744Z" fill="#FDF7EF"/>
<path d="M9.59598 12.6276C8.81726 12.0436 7.46666 10.1738 6.8887 9.31195C4.64208 11.5586 4.39795 15.9871 4.55672 17.9205C4.55672 32.5158 1.8288 39.3341 0.464844 40.9189L6.24336 36.5039L10.1558 42.9648L14.706 39.0085L21.299 50.0001V46.3782L19.1285 39.0085C17.3517 31.1744 11.8707 27.6883 9.35231 26.9245L14.706 23.8826L14.8886 21.3579C7.66101 21.3579 8.3487 15.5377 9.59598 12.6276Z" fill="white"/>
<path d="M9.59598 12.6276C8.81726 12.0436 7.46666 10.1738 6.8887 9.31195C4.64208 11.5586 4.39795 15.9871 4.55672 17.9205C4.55672 32.5158 1.8288 39.3341 0.464844 40.9189L6.24336 36.5039L10.1558 42.9648L14.706 39.0085L21.299 50.0001V46.3782L19.1285 39.0085C17.3517 31.1744 11.8707 27.6883 9.35231 26.9245L14.706 23.8826L14.8886 21.3579C7.66101 21.3579 8.3487 15.5377 9.59598 12.6276Z" fill="#FDF7EF"/>
<path d="M30.7432 14.5744C29.506 15.5073 26.7213 17.4825 25.4803 17.9205C27.8431 18.6607 32.2035 19.0278 30.7432 14.5744Z" fill="white"/>
<path d="M30.7432 14.5744C29.506 15.5073 26.7213 17.4825 25.4803 17.9205C27.8431 18.6607 32.2035 19.0278 30.7432 14.5744Z" fill="#FDF7EF"/>
<path d="M32.9635 12.6276C33.7423 12.0436 35.0929 10.1738 35.6708 9.31195C37.9174 11.5586 38.1616 15.9871 38.0028 17.9205C38.0028 32.5158 40.7307 39.3341 42.0947 40.9189L36.3162 36.5039L32.4037 42.9648L27.8535 39.0085L21.2605 50.0001V46.3782L23.431 39.0085C25.2078 31.1744 30.6888 27.6883 33.2072 26.9245L27.8535 23.8826L27.671 21.3579C34.8985 21.3579 34.2108 15.5377 32.9635 12.6276Z" fill="white"/>
<path d="M32.9635 12.6276C33.7423 12.0436 35.0929 10.1738 35.6708 9.31195C37.9174 11.5586 38.1616 15.9871 38.0028 17.9205C38.0028 32.5158 40.7307 39.3341 42.0947 40.9189L36.3162 36.5039L32.4037 42.9648L27.8535 39.0085L21.2605 50.0001V46.3782L23.431 39.0085C25.2078 31.1744 30.6888 27.6883 33.2072 26.9245L27.8535 23.8826L27.671 21.3579C34.8985 21.3579 34.2108 15.5377 32.9635 12.6276Z" fill="#FDF7EF"/>
<path d="M17.7592 22.1149C17.7592 19.2296 20.2193 17.8094 21.4493 17.4599V37.5894C21.4493 32.3222 17.144 28.3215 14.9914 26.9795L17.7592 25.2601V22.1149Z" fill="white"/>
<path d="M17.7592 22.1149C17.7592 19.2296 20.2193 17.8094 21.4493 17.4599V37.5894C21.4493 32.3222 17.144 28.3215 14.9914 26.9795L17.7592 25.2601V22.1149Z" fill="#FDF7EF"/>
<path d="M25.1322 22.1149C25.1322 19.2296 22.6721 17.8094 21.4421 17.4599V37.5894C21.4421 32.3222 25.7474 28.3215 27.9 26.9795L25.1322 25.2601V22.1149Z" fill="white"/>
<path d="M25.1322 22.1149C25.1322 19.2296 22.6721 17.8094 21.4421 17.4599V37.5894C21.4421 32.3222 25.7474 28.3215 27.9 26.9795L25.1322 25.2601V22.1149Z" fill="#FDF7EF"/>
</svg>
