<svg width="49" height="40" viewBox="0 0 49 40" fill="none" xmlns="http://www.w3.org/2000/svg">
<path fill-rule="evenodd" clip-rule="evenodd" d="M43.9244 0.273652C44.5269 0.0313478 45.1863 -0.0522214 45.8341 0.031642C46.4818 0.115505 47.0942 0.363736 47.6074 0.750497C48.1207 1.13726 48.5161 1.64841 48.7525 2.23075C48.9889 2.81309 49.0576 3.44533 48.9515 4.06166L43.4222 36.1106C42.8859 39.2021 39.3362 40.9749 36.3692 39.435C33.8874 38.1467 30.2012 36.1619 26.8855 34.0908C25.2277 33.0541 20.1495 29.7344 20.7736 27.3721C21.3099 25.3523 29.8428 17.7623 34.7187 13.2498C36.6325 11.4769 35.7597 10.4542 33.4997 12.085C27.8875 16.1339 18.8768 22.2912 15.8977 24.0244C13.2695 25.5527 11.8994 25.8136 10.2611 25.5527C7.27216 25.0774 4.5002 24.3413 2.23777 23.4443C-0.819427 22.2329 -0.670712 18.2166 2.23534 17.0471L43.9244 0.273652Z" fill="white"/>
<path fill-rule="evenodd" clip-rule="evenodd" d="M43.9244 0.273652C44.5269 0.0313478 45.1863 -0.0522214 45.8341 0.031642C46.4818 0.115505 47.0942 0.363736 47.6074 0.750497C48.1207 1.13726 48.5161 1.64841 48.7525 2.23075C48.9889 2.81309 49.0576 3.44533 48.9515 4.06166L43.4222 36.1106C42.8859 39.2021 39.3362 40.9749 36.3692 39.435C33.8874 38.1467 30.2012 36.1619 26.8855 34.0908C25.2277 33.0541 20.1495 29.7344 20.7736 27.3721C21.3099 25.3523 29.8428 17.7623 34.7187 13.2498C36.6325 11.4769 35.7597 10.4542 33.4997 12.085C27.8875 16.1339 18.8768 22.2912 15.8977 24.0244C13.2695 25.5527 11.8994 25.8136 10.2611 25.5527C7.27216 25.0774 4.5002 24.3413 2.23777 23.4443C-0.819427 22.2329 -0.670712 18.2166 2.23534 17.0471L43.9244 0.273652Z" fill="#FDF7EF"/>
</svg>
