<svg width="52" height="44" viewBox="0 0 52 44" fill="none" xmlns="http://www.w3.org/2000/svg">
<path d="M16.5455 0H0L19.5236 24.233L1.06364 44H7.32727L22.4262 27.8322L35.4545 44H52L31.6538 18.7484L49.1636 0H42.9L28.7513 15.1492L16.5455 0ZM37.8182 39.6L9.45455 4.4H14.1818L42.5455 39.6H37.8182Z" fill="white"/>
<path d="M16.5455 0H0L19.5236 24.233L1.06364 44H7.32727L22.4262 27.8322L35.4545 44H52L31.6538 18.7484L49.1636 0H42.9L28.7513 15.1492L16.5455 0ZM37.8182 39.6L9.45455 4.4H14.1818L42.5455 39.6H37.8182Z" fill="#FDF7EF"/>
</svg>
