<svg width="175" height="79" viewBox="0 0 175 79" fill="none" xmlns="http://www.w3.org/2000/svg">
<rect x="1" y="1" width="173" height="76.6645" fill="black" stroke="white" stroke-width="2"/>
<rect x="1" y="1" width="173" height="16.241" fill="black" stroke="white" stroke-width="2"/>
<rect x="174" y="18.101" width="59.5635" height="8.83062" transform="rotate(90 174 18.101)" fill="#F5F5F5" stroke="white" stroke-width="2"/>
<path d="M169.881 66.4939L173.083 62.7961H166.678L169.881 66.4939Z" fill="#D9D9D9"/>
<path d="M169.881 19.4699L173.083 23.1677H166.678L169.881 19.4699Z" fill="#D9D9D9"/>
<rect x="1" y="68.8338" width="173" height="8.83062" fill="#F5F5F5" stroke="white" stroke-width="2"/>
<rect x="174" y="68.8338" width="8.83062" height="8.83062" transform="rotate(90 174 68.8338)" fill="#C4C4C4" stroke="white" stroke-width="2"/>
<path d="M162.259 73.1751L158.562 69.9727L158.562 76.3775L162.259 73.1751Z" fill="#D9D9D9"/>
<path d="M2.78351 73.1751L6.48132 69.9727L6.48132 76.3775L2.78351 73.1751Z" fill="#D9D9D9"/>
<path d="M8.82793 5.45627V6.18528C9.68293 6.27528 10.6369 6.80628 10.6369 7.85028H9.86293C9.85393 7.40927 9.42193 7.05828 8.82793 6.96828V8.86728C9.79993 9.21828 10.7269 9.60528 10.7269 10.6133C10.7269 11.4593 9.97093 12.0083 8.82793 12.1163V12.8813H8.21593V12.1253C7.36093 12.0443 6.15493 11.4683 6.15493 10.3793H7.03693C7.03693 10.9283 7.60393 11.2793 8.21593 11.3513V9.41628C7.17193 9.03828 6.29893 8.68728 6.29893 7.70628C6.29893 6.82427 7.09093 6.28427 8.21593 6.19428V5.45627H8.82793ZM7.15393 7.75128C7.15393 8.26428 7.62193 8.47128 8.21593 8.69628V6.96828C7.61293 7.03127 7.15393 7.29228 7.15393 7.75128ZM9.87193 10.5683C9.87193 10.0643 9.40393 9.79428 8.82793 9.59628V11.3333C9.43993 11.2613 9.87193 11.0003 9.87193 10.5683ZM16.164 11.5403V12.3323H12.222V5.94228H13.104V11.5403H16.164ZM21.799 11.5403V12.3323H17.704L17.722 5.94228H21.727V6.73428H18.604L18.595 8.60628H21.511V9.39828H18.595L18.586 11.5403H21.799ZM25.2651 12.4763C23.4831 12.4763 22.8351 11.0003 22.8351 9.13728C22.8351 7.27428 23.4831 5.79828 25.2651 5.79828C27.0561 5.79828 27.6951 7.27428 27.6951 9.13728C27.6951 11.0003 27.0561 12.4763 25.2651 12.4763ZM25.2651 11.6753C26.5071 11.6753 26.8041 10.4873 26.8041 9.13728C26.8041 7.79628 26.5071 6.59928 25.2651 6.59928C24.0231 6.59928 23.7261 7.79628 23.7261 9.13728C23.7261 10.4873 24.0231 11.6753 25.2651 11.6753ZM28.5602 5.94228H29.6492L32.2502 10.8023V5.94228H33.1322V12.3323H32.0792L29.4422 7.45427V12.3323H28.5602V5.94228ZM33.9792 12.3323C34.5912 9.59628 35.2212 7.47228 35.9592 5.94228H36.8952C37.6332 7.47228 38.2632 9.59628 38.8752 12.3323H37.9662C37.8492 11.8013 37.7322 11.2883 37.6152 10.8023H35.2392C35.1222 11.2883 35.0052 11.8013 34.8882 12.3323H33.9792ZM35.4372 10.0103H37.4172C37.1022 8.78628 36.7782 7.71528 36.4272 6.81528C36.0762 7.71528 35.7522 8.78628 35.4372 10.0103ZM39.8033 5.94228H42.0803C43.5383 5.94228 44.1953 6.64428 44.1953 7.86828C44.1953 8.84928 43.7093 9.53328 42.7283 9.73128L44.4383 12.2423V12.3323H43.4753L41.7923 9.79428H40.6853V12.3323H39.8033V5.94228ZM42.0803 6.73428H40.6853V9.00228H42.0803C42.9263 9.00228 43.3313 8.52528 43.3313 7.86828C43.3313 7.13028 42.9263 6.73428 42.0803 6.73428ZM45.3663 5.94228H47.1933C48.6513 5.94228 49.9923 6.71628 49.9923 8.93928C49.9923 11.0723 48.9393 12.3323 47.1393 12.3323H45.3663V5.94228ZM47.1933 6.73428H46.2483V11.5403H47.1393C48.6963 11.5403 49.1103 10.1633 49.1103 8.93928C49.1103 7.51728 48.3543 6.73428 47.1933 6.73428Z" fill="white"/>
<path d="M13.9755 30.2955H20.2405C24.3325 30.2955 26.8724 31.8477 26.8724 35.3188C26.8724 37.4636 25.5178 39.0157 23.5705 39.8341C25.9975 40.455 27.9447 41.8943 27.9447 44.7163C27.9447 49.2034 24.1914 50.3323 20.2405 50.3323H13.9755V30.2955ZM20.2405 32.7789H16.7411V38.6771H20.2405C22.7803 38.6771 24.1067 37.8305 24.1067 35.6857C24.1067 33.6256 22.7803 32.7789 20.2405 32.7789ZM20.2405 41.1605H16.7411V47.8488H20.2405C22.8368 47.8488 25.1791 47.5384 25.1791 44.5188C25.1791 41.6967 22.8368 41.1605 20.2405 41.1605ZM42.6229 30.2955H45.4449V42.5151C45.4449 48.7801 41.5505 50.7556 38.2486 50.7556C34.9468 50.7556 31.0523 48.7801 31.0523 42.5151V30.2955H33.8744V42.5151C33.8744 46.4096 35.9345 47.99 38.2486 47.99C40.5627 47.99 42.6229 46.4096 42.6229 42.5151V30.2955ZM48.101 30.2955H51.1771L55.7488 39.5519L60.3206 30.2955H63.3967V30.5777L57.1599 42.3458H57.1316V50.3323H54.366V42.3458H54.3378L48.101 30.5777V30.2955Z" fill="white"/>
<path d="M74.9987 29.1667H77.849V29.4489L70.3705 53.7188H67.5202V53.4366L74.9987 29.1667ZM92.4989 29.1667H95.3492V29.4489L87.8707 53.7188H85.0204V53.4366L92.4989 29.1667ZM109.999 29.1667H112.849V29.4489L105.371 53.7188H102.521V53.4366L109.999 29.1667ZM127.499 29.1667H130.35V29.4489L122.871 53.7188H120.021V53.4366L127.499 29.1667ZM144.999 29.1667H147.85V29.4489L140.371 53.7188H137.521V53.4366L144.999 29.1667Z" fill="#41D5FF"/>
</svg>
