<svg width="555" height="139" viewBox="0 0 555 139" fill="none" xmlns="http://www.w3.org/2000/svg">
<rect x="1" y="1" width="553" height="136" fill="black" stroke="white" stroke-width="2"/>
<rect x="1" y="1" width="553" height="30" fill="black" stroke="white" stroke-width="2"/>
<rect x="554" y="31" width="106" height="17" transform="rotate(90 554 31)" fill="#F5F5F5" stroke="white" stroke-width="2"/>
<path d="M545.63 116.649L551.248 110.162H540.012L545.63 116.649Z" fill="#D9D9D9"/>
<path d="M545.63 34.1559L551.248 40.6429H540.012L545.63 34.1559Z" fill="#D9D9D9"/>
<rect x="1" y="120.182" width="553" height="17" fill="#F5F5F5" stroke="white" stroke-width="2"/>
<rect x="554" y="120" width="16.7403" height="16.7403" transform="rotate(90 554 120)" fill="#C4C4C4" stroke="white" stroke-width="2"/>
<path d="M534.26 128.37L527.773 122.752L527.773 133.988L534.26 128.37Z" fill="#D9D9D9"/>
<path d="M4.88306 128.37L11.3701 122.752L11.3701 133.988L4.88306 128.37Z" fill="#D9D9D9"/>
<path d="M34.016 49.104V54.288C40.096 54.928 46.88 58.704 46.88 66.128H41.376C41.312 62.992 38.24 60.496 34.016 59.856V73.36C40.928 75.856 47.52 78.608 47.52 85.776C47.52 91.792 42.144 95.696 34.016 96.464V101.904H29.664V96.528C23.584 95.952 15.008 91.856 15.008 84.112H21.28C21.28 88.016 25.312 90.512 29.664 91.024V77.264C22.24 74.576 16.032 72.08 16.032 65.104C16.032 58.832 21.664 54.992 29.664 54.352V49.104H34.016ZM22.112 65.424C22.112 69.072 25.44 70.544 29.664 72.144V59.856C25.376 60.304 22.112 62.16 22.112 65.424ZM41.44 85.456C41.44 81.872 38.112 79.952 34.016 78.544V90.896C38.368 90.384 41.44 88.528 41.44 85.456ZM86.1835 92.368V98H58.1515V52.56H64.4235V92.368H86.1835ZM126.255 92.368V98H97.135L97.263 52.56H125.743V58.192H103.535L103.471 71.504H124.207V77.136H103.471L103.407 92.368H126.255ZM150.903 99.024C138.231 99.024 133.623 88.528 133.623 75.28C133.623 62.032 138.231 51.536 150.903 51.536C163.639 51.536 168.183 62.032 168.183 75.28C168.183 88.528 163.639 99.024 150.903 99.024ZM150.903 93.328C159.735 93.328 161.847 84.88 161.847 75.28C161.847 65.744 159.735 57.232 150.903 57.232C142.071 57.232 139.959 65.744 139.959 75.28C139.959 84.88 142.071 93.328 150.903 93.328ZM174.334 52.56H182.078L200.574 87.12V52.56H206.846V98H199.358L180.606 63.312V98H174.334V52.56ZM212.87 98C217.222 78.544 221.702 63.44 226.95 52.56H233.606C238.854 63.44 243.333 78.544 247.686 98H241.222C240.39 94.224 239.558 90.576 238.726 87.12H221.83C220.998 90.576 220.166 94.224 219.334 98H212.87ZM223.238 81.488H237.318C235.078 72.784 232.774 65.168 230.278 58.768C227.782 65.168 225.478 72.784 223.238 81.488ZM254.285 52.56H270.477C280.845 52.56 285.517 57.552 285.517 66.256C285.517 73.232 282.061 78.096 275.085 79.504L287.245 97.36V98H280.397L268.429 79.952H260.557V98H254.285V52.56ZM270.477 58.192H260.557V74.32H270.477C276.493 74.32 279.373 70.928 279.373 66.256C279.373 61.008 276.493 58.192 270.477 58.192ZM293.845 52.56H306.837C317.205 52.56 326.741 58.064 326.741 73.872C326.741 89.04 319.253 98 306.453 98H293.845V52.56ZM306.837 58.192H300.117V92.368H306.453C317.525 92.368 320.469 82.576 320.469 73.872C320.469 63.76 315.093 58.192 306.837 58.192Z" fill="white"/>
</svg>
