<svg width="307" height="138" viewBox="0 0 307 138" fill="none" xmlns="http://www.w3.org/2000/svg">
<rect x="1" y="1" width="305" height="136" fill="black" stroke="white" stroke-width="2"/>
<rect x="1" y="1" width="305" height="30" fill="black" stroke="white" stroke-width="2"/>
<rect x="306" y="31" width="106" height="17" transform="rotate(90 306 31)" fill="#F5F5F5" stroke="white" stroke-width="2"/>
<path d="M298.019 116.649L303.637 110.162H292.402L298.019 116.649Z" fill="#D9D9D9"/>
<path d="M298.019 34.1559L303.637 40.6429H292.402L298.019 34.1559Z" fill="#D9D9D9"/>
<rect x="1" y="120" width="305" height="17" fill="#F5F5F5" stroke="white" stroke-width="2"/>
<rect x="306" y="120" width="17" height="17" transform="rotate(90 306 120)" fill="#C4C4C4" stroke="white" stroke-width="2"/>
<path d="M284.649 128.37L278.162 122.752L278.162 133.988L284.649 128.37Z" fill="#D9D9D9"/>
<path d="M4.88306 128.37L11.3701 122.752L11.3701 133.988L4.88306 128.37Z" fill="#D9D9D9"/>
<path d="M16.128 10.832V11.804C17.268 11.924 18.54 12.632 18.54 14.024H17.508C17.496 13.436 16.92 12.968 16.128 12.848V15.38C17.424 15.848 18.66 16.364 18.66 17.708C18.66 18.836 17.652 19.568 16.128 19.712V20.732H15.312V19.724C14.172 19.616 12.564 18.848 12.564 17.396H13.74C13.74 18.128 14.496 18.596 15.312 18.692V16.112C13.92 15.608 12.756 15.14 12.756 13.832C12.756 12.656 13.812 11.936 15.312 11.816V10.832H16.128ZM13.896 13.892C13.896 14.576 14.52 14.852 15.312 15.152V12.848C14.508 12.932 13.896 13.28 13.896 13.892ZM17.52 17.648C17.52 16.976 16.896 16.616 16.128 16.352V18.668C16.944 18.572 17.52 18.224 17.52 17.648ZM25.9094 18.944V20H20.6534V11.48H21.8294V18.944H25.9094ZM33.4228 18.944V20H27.9628L27.9868 11.48H33.3268V12.536H29.1628L29.1508 15.032H33.0388V16.088H29.1508L29.1388 18.944H33.4228ZM38.0442 20.192C35.6682 20.192 34.8042 18.224 34.8042 15.74C34.8042 13.256 35.6682 11.288 38.0442 11.288C40.4322 11.288 41.2842 13.256 41.2842 15.74C41.2842 18.224 40.4322 20.192 38.0442 20.192ZM38.0442 19.124C39.7002 19.124 40.0962 17.54 40.0962 15.74C40.0962 13.952 39.7002 12.356 38.0442 12.356C36.3882 12.356 35.9922 13.952 35.9922 15.74C35.9922 17.54 36.3882 19.124 38.0442 19.124ZM42.4376 11.48H43.8896L47.3576 17.96V11.48H48.5336V20H47.1296L43.6136 13.496V20H42.4376V11.48ZM49.663 20C50.479 16.352 51.319 13.52 52.303 11.48H53.551C54.535 13.52 55.375 16.352 56.191 20H54.979C54.823 19.292 54.667 18.608 54.511 17.96H51.343C51.187 18.608 51.031 19.292 50.875 20H49.663ZM51.607 16.904H54.247C53.827 15.272 53.395 13.844 52.927 12.644C52.459 13.844 52.027 15.272 51.607 16.904ZM57.4284 11.48H60.4644C62.4084 11.48 63.2844 12.416 63.2844 14.048C63.2844 15.356 62.6364 16.268 61.3284 16.532L63.6084 19.88V20H62.3244L60.0804 16.616H58.6044V20H57.4284V11.48ZM60.4644 12.536H58.6044V15.56H60.4644C61.5924 15.56 62.1324 14.924 62.1324 14.048C62.1324 13.064 61.5924 12.536 60.4644 12.536ZM64.8458 11.48H67.2818C69.2258 11.48 71.0138 12.512 71.0138 15.476C71.0138 18.32 69.6098 20 67.2098 20H64.8458V11.48ZM67.2818 12.536H66.0218V18.944H67.2098C69.2858 18.944 69.8378 17.108 69.8378 15.476C69.8378 13.58 68.8298 12.536 67.2818 12.536Z" fill="white"/>
</svg>
