<svg width="56" height="56" viewBox="0 0 56 56" fill="none" xmlns="http://www.w3.org/2000/svg">
<g opacity="0.5">
<path d="M27.6181 7.7625L47.8555 27.9999L39.4551 36.4003C39.0333 36.8221 39.0333 37.5059 39.4551 37.9277C39.8769 38.3494 40.5607 38.3494 40.9825 37.9277L49.3829 29.5272L50.9102 31.0546C51.332 31.4764 52.0158 31.4764 52.4376 31.0546C52.8593 30.6328 52.8593 29.949 52.4376 29.5272L50.8081 27.8977C50.9043 27.5374 50.8111 27.1371 50.5284 26.8544C50.2457 26.5717 49.8454 26.4785 49.485 26.5747L29.1455 6.23515C28.7237 5.81338 28.0399 5.81338 27.6181 6.23515C27.1964 6.65691 27.1964 7.34073 27.6181 7.7625Z" fill="#6B71EB"/>
<path d="M39.0733 39.0732C39.495 38.6514 39.495 37.9676 39.0733 37.5458L18.454 16.9266C18.0323 16.5048 17.3485 16.5048 16.9267 16.9266C16.5049 17.3484 16.5049 18.0322 16.9267 18.454L37.5459 39.0732C37.9677 39.495 38.6515 39.495 39.0733 39.0732Z" fill="#6B71EB"/>
<path d="M15.0175 18.0721C15.4393 17.6504 16.1231 17.6504 16.5448 18.0721C16.9666 18.4939 16.9666 19.1777 16.5448 19.5995L8.14442 27.9999L28 47.8555C28.4217 48.2772 28.4217 48.961 28 49.3828C27.5782 49.8046 26.8944 49.8046 26.4726 49.3828L6.61706 29.5272C6.58366 29.4938 6.55291 29.4588 6.52481 29.4224C6.16195 29.523 5.75681 29.4307 5.47155 29.1454C5.04979 28.7236 5.04979 28.0398 5.47155 27.6181L15.0175 18.0721Z" fill="#6B71EB"/>
</g>
<path d="M34.1094 12.7265C36.64 10.1959 40.7429 10.1959 43.2735 12.7265C45.8041 15.2571 45.8041 19.36 43.2735 21.8906C40.7429 24.4212 36.64 24.4212 34.1094 21.8906C31.5788 19.36 31.5788 15.2571 34.1094 12.7265Z" fill="#6B71EB"/>
<path d="M23.4179 2.03503C25.9485 -0.495564 30.0515 -0.495564 32.582 2.03503C35.1126 4.56563 35.1126 8.66854 32.582 11.1991C30.0515 13.7297 25.9485 13.7297 23.4179 11.1991C20.8873 8.66854 20.8873 4.56563 23.4179 2.03503Z" fill="#6B71EB"/>
<path d="M53.9649 23.4179C51.4343 20.8873 47.3314 20.8873 44.8008 23.4179C42.2702 25.9485 42.2702 30.0514 44.8008 32.582C47.3314 35.1126 51.4343 35.1126 53.9649 32.582C56.4955 30.0515 56.4955 25.9485 53.9649 23.4179Z" fill="#6B71EB"/>
<path d="M12.7265 12.7265C15.2571 10.1959 19.36 10.1959 21.8906 12.7265C24.4212 15.2571 24.4212 19.36 21.8906 21.8906C19.36 24.4212 15.2571 24.4212 12.7265 21.8906C10.1959 19.36 10.1959 15.2571 12.7265 12.7265Z" fill="#6B71EB"/>
<path d="M32.582 23.4179C30.0515 20.8873 25.9485 20.8873 23.4179 23.4179C20.8873 25.9485 20.8873 30.0515 23.4179 32.582C25.9485 35.1126 30.0515 35.1126 32.582 32.582C35.1126 30.0515 35.1126 25.9485 32.582 23.4179Z" fill="#6B71EB"/>
<path d="M34.1094 34.1094C36.64 31.5788 40.7429 31.5788 43.2735 34.1094C45.8041 36.64 45.8041 40.7429 43.2735 43.2735C40.7429 45.8041 36.64 45.8041 34.1094 43.2735C31.5788 40.7429 31.5788 36.64 34.1094 34.1094Z" fill="#6B71EB"/>
<path d="M11.1991 23.4179C8.66855 20.8873 4.56564 20.8873 2.03504 23.4179C-0.495553 25.9485 -0.495554 30.0514 2.03504 32.582C4.56564 35.1126 8.66855 35.1126 11.1991 32.582C13.7297 30.0514 13.7297 25.9485 11.1991 23.4179Z" fill="#6B71EB"/>
<path d="M12.7265 34.1094C15.2571 31.5788 19.36 31.5788 21.8906 34.1094C24.4212 36.64 24.4212 40.7429 21.8906 43.2735C19.36 45.8041 15.2571 45.8041 12.7265 43.2735C10.1959 40.7429 10.1959 36.64 12.7265 34.1094Z" fill="#6B71EB"/>
<path d="M32.582 44.8009C30.0515 42.2703 25.9485 42.2703 23.4179 44.8009C20.8873 47.3315 20.8873 51.4344 23.4179 53.965C25.9485 56.4956 30.0515 56.4956 32.582 53.965C35.1126 51.4344 35.1126 47.3315 32.582 44.8009Z" fill="#6B71EB"/>
</svg>
