<svg width="336" height="87" viewBox="0 0 336 87" fill="none" xmlns="http://www.w3.org/2000/svg">
<g opacity="0.6">
<path d="M0 87V0H4.23432V87H0ZM21.1716 87V0H25.4059V87H21.1716ZM29.6402 87V0H38.1089V87H29.6402Z" fill="white"/>
<path d="M43.7657 87V0H48V87H43.7657ZM56.4686 87V0H60.703V87H56.4686ZM69.1716 87V0H86.1089V87H69.1716Z" fill="white"/>
<path d="M87.5314 87V0H91.7657V87H87.5314ZM96 87V0H104.469V87H96ZM112.937 87V0H117.172V87H112.937Z" fill="white"/>
<path d="M131.297 87V0H135.531V87H131.297ZM144 87V0H148.234V87H144ZM152.469 87V0H160.937V87H152.469Z" fill="white"/>
<path d="M175.063 87V0H179.297V87H175.063ZM187.766 87V0H204.703V87H187.766ZM208.937 87V0H213.172V87H208.937Z" fill="white"/>
<path d="M218.828 87V0H223.063V87H218.828ZM240 87V0H248.469V87H240ZM252.703 87V0H256.937V87H252.703Z" fill="white"/>
<path d="M262.594 87V0H279.531V87H262.594ZM283.766 87V0H288V87H283.766ZM296.469 87V0H300.703V87H296.469Z" fill="white"/>
<path d="M306.36 87V0H310.594V87H306.36ZM314.828 87V0H323.297V87H314.828ZM331.766 87V0H336V87H331.766Z" fill="white"/>
</g>
</svg>
