<svg width="146" height="30" viewBox="0 0 146 30" fill="none" xmlns="http://www.w3.org/2000/svg">
<path d="M41.3788 26.5883H36.5035V3.59531H45.3976C46.5176 3.59531 47.5169 3.771 48.3953 4.12237C49.2737 4.45178 50.0094 4.93492 50.6024 5.57179C51.2173 6.20865 51.6784 6.97728 51.9859 7.87767C52.2933 8.77806 52.4471 9.78826 52.4471 10.9083C52.4471 12.5334 52.0957 13.9279 51.3929 15.0918C50.6902 16.2557 49.691 17.0243 48.3953 17.3977L52.9082 26.5883H47.5059L43.6518 18.0565H41.3788V26.5883ZM44.2118 14.2353C45.3757 14.2353 46.1773 14.0157 46.6165 13.5765C47.0776 13.1373 47.3082 12.4126 47.3082 11.4024V10.4141C47.3082 9.40394 47.0776 8.67924 46.6165 8.24002C46.1773 7.8008 45.3757 7.5812 44.2118 7.5812H41.3788V14.2353H44.2118ZM59.6813 26.5883V3.59531H74.373V7.64708H64.6224V12.9177H74.0436V16.9694H64.6224V22.5365H74.373V26.5883H59.6813ZM87.5037 26.5883V18.4518L80.2237 3.59531H85.7249L88.1625 8.93179L89.9413 13.4447H90.2049L91.9837 8.93179L94.4213 3.59531H99.7249L92.4449 18.4518V26.5883H87.5037ZM109.726 11.3035H109.364V26.5883H105.147V3.59531H111.077L116.314 18.88H116.677V3.59531H120.893V26.5883H114.964L109.726 11.3035ZM140.513 26.5883L139.064 21.0541H132.772L131.356 26.5883H126.349L132.574 3.59531H139.558L145.784 26.5883H140.513ZM136.066 8.37178H135.803L133.563 17.0683H138.306L136.066 8.37178Z" fill="#F5F5F5"/>
<path d="M7 22.6084V23L13 30L14.7231 26.0368L15 26.3137L24.1924 27.0208L22.6084 23L23 23L30 17L26.0368 15.2769L26.3137 15L27.0208 5.80761L23 7.39157V7L17 0L15.2769 3.96316L15 3.68629L5.80761 2.9792L7.39157 7H7L0 13L3.96317 14.7231L3.6863 15L2.9792 24.1924L7 22.6084Z" fill="#A83DDA"/>
<path d="M7 22.6084V23L13 30L14.7231 26.0368L15 26.3137L24.1924 27.0208L22.6084 23L23 23L30 17L26.0368 15.2769L26.3137 15L27.0208 5.80761L23 7.39157V7L17 0L15.2769 3.96316L15 3.68629L5.80761 2.9792L7.39157 7H7L0 13L3.96317 14.7231L3.6863 15L2.9792 24.1924L7 22.6084Z" fill="url(#paint0_linear_1_1241)" fill-opacity="0.5"/>
<defs>
<linearGradient id="paint0_linear_1_1241" x1="15" y1="0" x2="15" y2="30" gradientUnits="userSpaceOnUse">
<stop stop-color="#52AEFF" stop-opacity="0"/>
<stop offset="1" stop-color="#52AEFF"/>
</linearGradient>
</defs>
</svg>
