<svg width="73" height="32" viewBox="0 0 73 32" fill="none" xmlns="http://www.w3.org/2000/svg">
<rect width="73" height="32" rx="16" fill="#3A3D70"/>
<g clip-path="url(#clip0_2_3709)">
<path d="M10.5 17L14 20.5L22 12.5" stroke="#8A90FF" stroke-width="2" stroke-linecap="round" stroke-linejoin="round"/>
</g>
<path opacity="0.8" d="M41.5391 12.1797V21.5H40.0547V12.1797H36.5938V10.9609H45V12.1797H41.5391ZM53.6875 21.5L52.6094 18.5156H48.2109L47.1406 21.5H45.6094L49.5938 10.9609H51.2891L55.2031 21.5H53.6875ZM50.4219 12.0859L50.3281 12.3906L49.7891 14.0469L48.6094 17.3516H52.2266L50.875 13.4453L50.4219 12.0859ZM63.8203 20.4609C62.6276 21.2578 61.4245 21.6562 60.2109 21.6562C58.9089 21.6562 57.8984 21.1745 57.1797 20.2109C56.4609 19.2422 56.1016 17.8984 56.1016 16.1797C56.1016 14.3724 56.4453 13.0234 57.1328 12.1328C57.8203 11.2422 58.8542 10.7969 60.2344 10.7969C62.0365 10.7969 63.237 11.6589 63.8359 13.3828L62.5 13.8203C62.0833 12.6172 61.3333 12.0156 60.25 12.0156C59.3698 12.0156 58.7188 12.3438 58.2969 13C57.8802 13.6562 57.6719 14.7161 57.6719 16.1797C57.6719 19.0234 58.5599 20.4453 60.3359 20.4453C60.6901 20.4453 61.0573 20.3906 61.4375 20.2812C61.8177 20.1719 62.1276 20.0339 62.3672 19.8672V17.2422H60.0781V15.9922H63.8203V20.4609Z" fill="#8A90FF"/>
<defs>
<clipPath id="clip0_2_3709">
<rect width="16" height="16" fill="white" transform="translate(8 8)"/>
</clipPath>
</defs>
</svg>
