<svg width="139" height="139" viewBox="0 0 139 139" fill="none" xmlns="http://www.w3.org/2000/svg">
<rect x="5.83648" y="5.83648" width="127.367" height="127.367" rx="32.7023" fill="#BF0303"/>
<rect x="5.83648" y="5.83648" width="127.367" height="127.367" rx="32.7023" stroke="white" stroke-width="10.327"/>
<path d="M51.6391 40.6427C58.1776 34.1403 65.9972 32.5146 69.3054 32.5146C72.6136 32.5146 80.8645 34.1403 87.403 40.6427C88.7652 40.0621 91.8399 38.4365 93.241 36.5787C91.6842 40.8362 85.5349 50.6286 73.392 55.7377C73.1024 55.1274 71.8798 53.9069 69.3054 53.9069C66.731 53.9069 65.9397 55.1274 65.6502 55.7377C53.5072 50.6286 47.3579 40.8362 45.8012 36.5787C47.2023 38.4365 50.2769 40.0621 51.6391 40.6427Z" fill="white"/>
<path d="M55.4342 54.0878C57.2758 55.4686 61.4206 58.3923 63.2676 59.0407C59.7509 60.1363 53.2608 60.6796 55.4342 54.0878Z" fill="white"/>
<path d="M48.1 46.2982C48.9602 47.574 50.9705 50.3416 52.1295 51.2061C50.2731 55.5136 49.2495 64.1286 60.007 64.1286L59.7354 67.8658L51.7668 72.3685C55.5152 73.499 63.6732 78.6592 66.3178 90.2553L69.4911 101.164L72.7217 90.2553C75.3663 78.6592 83.5243 73.499 87.2727 72.3685L79.3041 67.8658L79.0324 64.1286C89.79 64.1286 88.7664 55.5136 86.91 51.2061C88.069 50.3416 90.0793 47.574 90.9395 46.2982C94.2834 49.6237 94.6468 56.1788 94.4105 59.0407C94.4105 80.6447 98.4707 90.7372 100.501 93.083L91.9001 86.5479L86.0767 96.1114L79.3041 90.2553L69.4911 106.525L59.7354 90.2553L52.9628 96.1114L47.1394 86.5479L38.5386 93.083C40.5688 90.7372 44.629 80.6447 44.629 59.0407C44.3927 56.1788 44.7561 49.6237 48.1 46.2982Z" fill="white"/>
<path d="M83.6052 54.0878C81.7637 55.4686 77.6189 58.3923 75.7719 59.0407C79.2886 60.1363 85.7787 60.6796 83.6052 54.0878Z" fill="white"/>
<path d="M64.2798 65.2492C64.2798 60.9784 67.9305 58.8762 69.7614 58.3589C71.5922 58.8762 75.2538 60.9784 75.2538 65.2492V69.9048L79.3734 72.4498C76.1694 74.4362 69.7723 80.3582 69.7723 88.1548C69.7723 80.3582 63.3642 74.4362 60.1602 72.4498L64.2798 69.9048V65.2492Z" fill="white"/>
</svg>
