<svg width="133" height="133" viewBox="0 0 133 133" fill="none" xmlns="http://www.w3.org/2000/svg">
<rect x="5.01471" y="5.01471" width="122.971" height="122.971" rx="31.5735" fill="#BE0404"/>
<rect x="5.01471" y="5.01471" width="122.971" height="122.971" rx="31.5735" stroke="white" stroke-width="9.97059"/>
<path fill-rule="evenodd" clip-rule="evenodd" d="M93.7358 38.1494C94.5805 37.8012 95.5051 37.6811 96.4133 37.8016C97.3215 37.9221 98.1802 38.2789 98.8998 38.8347C99.6195 39.3906 100.174 40.1252 100.505 40.9621C100.837 41.7991 100.933 42.7077 100.784 43.5935L93.0316 89.6541C92.2795 94.0972 87.3024 96.6451 83.1422 94.432C79.6624 92.5804 74.4938 89.7278 69.8448 86.7513C67.5203 85.2614 60.3999 80.4902 61.275 77.0952C62.027 74.1923 73.9913 63.284 80.828 56.7986C83.5114 54.2507 82.2877 52.7809 79.1188 55.1246C71.2498 60.9437 58.6155 69.7929 54.4382 72.2839C50.7532 74.4803 48.8321 74.8553 46.535 74.4803C42.3441 73.7973 38.4574 72.7392 35.2851 71.4502C30.9985 69.7092 31.207 63.9369 35.2817 62.2561L93.7358 38.1494Z" fill="white"/>
</svg>
