<svg width="139" height="139" viewBox="0 0 139 139" fill="none" xmlns="http://www.w3.org/2000/svg">
<rect x="5.8363" y="5.79669" width="127.367" height="127.367" rx="32.7023" fill="#BF0303"/>
<rect x="5.8363" y="5.79669" width="127.367" height="127.367" rx="32.7023" stroke="white" stroke-width="10.327"/>
<path fill-rule="evenodd" clip-rule="evenodd" d="M61.1398 35.8965C56.6596 38.2467 52.9942 40.2353 52.995 40.3162C52.9969 40.525 63.7476 46.0075 64.1292 45.9942C64.3027 45.9883 65.5619 45.4046 66.9272 44.6973L69.4099 43.4114L74.8325 46.2186L79.2728 44.2095C85.9633 41.182 86.6582 40.8503 86.5492 40.7388C86.4047 40.5909 84.005 39.2927 77.4943 35.8412C74.3477 34.173 71.2937 32.5373 70.7075 32.2064C70.1212 31.8754 69.5616 31.6092 69.4638 31.6143C69.366 31.6195 65.6201 33.5465 61.1398 35.8965ZM41.4896 46.1431L36.8258 48.569V59.2156C36.8258 65.0713 36.887 69.8621 36.9622 69.8621C37.037 69.8621 39.3316 68.8605 42.0612 67.6363L47.0241 65.4105V54.1882L49.4492 55.5187C51.318 56.543 53.188 57.5653 55.059 58.5854L58.2435 60.3217L59.6606 59.6764C60.5493 59.2711 61.4362 58.8619 62.3214 58.4487C63.0053 58.1279 64.6843 57.3664 66.0524 56.7561C67.4204 56.1455 68.6868 55.5315 68.8663 55.3916C69.1049 55.2057 66.1962 53.5872 58.108 49.4047C52.0112 46.252 46.8273 43.6826 46.5883 43.6949C46.3492 43.7072 44.0548 44.8088 41.4896 46.1431ZM87.3898 46.8243C84.2134 48.2683 81.6123 49.5074 81.6094 49.5781C81.6066 49.6487 83.3378 50.6852 85.4568 51.8812C87.5756 53.0775 89.3092 54.1202 89.3092 54.1987C89.3092 54.277 87.4343 55.1918 85.143 56.232C82.8513 57.2719 77.059 59.906 72.2708 62.0856L56.2273 69.3882C52.1915 71.2253 48.5538 72.8812 48.1434 73.0684C39.9002 76.826 37.6344 77.8687 37.3233 78.0477C37.0104 78.2279 36.9395 79.2748 36.8838 84.5291L36.8174 90.7958L45.1585 95.0755L50.9416 92.4473C54.1224 91.002 56.7247 89.7436 56.7247 89.651C56.7247 89.5585 56.137 89.1729 55.4189 88.7936C54.7005 88.4143 53.2175 87.5748 52.1231 86.9275C51.0287 86.2802 49.9375 85.6863 49.6979 85.6075C49.4584 85.529 49.2659 85.3915 49.2698 85.3019C49.2738 85.2126 51.8204 83.9945 54.9286 82.5949C60.9657 79.8769 65.5858 77.782 75.5044 73.2652C79.9396 71.246 84.3754 69.2279 88.8118 67.2111C92.7107 65.4389 97.2439 63.3692 98.8856 62.6117L101.87 61.2345L102.004 48.5585L97.7735 46.3721C95.4469 45.1698 93.4582 44.1889 93.3539 44.1925C93.2497 44.1958 90.5659 45.38 87.3898 46.8243ZM100.737 69.6899C100.114 69.9965 98.8826 70.5705 98.0011 70.9654C97.1196 71.3603 95.4469 72.1204 94.284 72.6547L92.1697 73.6257L92.1215 79.19C92.0948 82.2503 91.9829 84.7406 91.8728 84.7245C91.6225 84.687 87.6599 82.6406 83.6766 80.4913C80.8017 78.9402 80.6211 78.8785 79.9455 79.2154C79.555 79.4103 77.2207 80.4645 74.7582 81.5586C72.2956 82.6525 70.2006 83.6189 70.1021 83.7064C70.0038 83.7938 74.9599 86.4987 81.1159 89.7177L92.3083 95.5703L97.0895 93.0798C99.7189 91.7101 101.955 90.4608 102.058 90.3036C102.29 89.9503 102.27 69.0839 102.038 69.1121C101.946 69.1232 101.361 69.3833 100.737 69.6899ZM74.2607 94.1817C73.4314 94.5408 72.6023 94.9003 71.7734 95.2604C69.2703 96.3509 69.7608 96.387 66.7829 94.8943C64.7995 93.9 63.9446 93.5933 63.5735 93.7422C63.2951 93.8538 60.8995 94.9391 58.2495 96.1539C55.5997 97.3687 53.3397 98.3625 53.2273 98.3625C52.1155 98.3625 53.9638 99.4746 61.0961 103.097L69.4606 107.346L72.98 105.596C74.9156 104.634 78.8198 102.707 81.6561 101.314C84.4922 99.9208 86.7776 98.7449 86.7349 98.7005C86.6918 98.6563 84.3153 97.4275 81.4537 95.9698L76.2506 93.3198L74.2607 94.1817Z" fill="white"/>
</svg>
