<svg width="174" height="71" viewBox="0 0 174 71" fill="none" xmlns="http://www.w3.org/2000/svg">
<rect width="174" height="47" fill="#FF0000"/>
<path d="M27.6243 27.2393V25.886H20.8579V27.2393H27.6243ZM27.6243 19.1196V17.7664H20.8579V19.1196H27.6243ZM14.0972 34V11H30.3308L34.3906 15.0598V20.4729L33.0374 21.8262H33.0317L32.3579 22.5L34.3906 24.5327V29.9458L30.3308 34H14.0972ZM39.8037 34L35.7495 29.9458V11H42.5103V27.2393H49.2766V11H56.043V29.9458L51.9832 34H39.8037ZM64.1626 34V27.2393L57.4019 20.4729V11H64.1626V17.7664L66.8691 20.4729V20.4785L67.5486 21.1523L70.929 17.7664V11H77.6953V20.4729L70.929 27.2393V34H64.1626ZM88.5327 34V15.0598L92.5869 11H104.766L108.826 15.0598V34H102.06V17.7664H95.2935V34H88.5327ZM123.712 27.2393V17.7664H116.946V27.2393H123.712ZM114.239 34L110.185 29.9458V15.0598L114.239 11H126.419L130.479 15.0598V29.9458L126.419 34H114.239ZM135.892 34L131.837 29.9458V11H138.598V27.2393H141.305V11H148.071V27.2393H150.778V11H157.538V29.9458L153.484 34H146.718L144.685 31.9729L144.011 32.6467V32.6523L142.658 34H135.892Z" fill="black"/>
<rect y="51" width="174" height="7" fill="#FF0000"/>
<rect y="62" width="174" height="3" fill="#FF0000"/>
<rect y="69" width="174" height="2" fill="#FF0000"/>
</svg>
