<svg width="109" height="53" viewBox="0 0 109 53" fill="none" xmlns="http://www.w3.org/2000/svg">
<rect width="109" height="53" fill="#FF0000"/>
<path d="M30.1328 32.5938V30.7109H20.7188V32.5938H30.1328ZM30.1328 21.2969V19.4141H20.7188V21.2969H30.1328ZM11.3125 42V10H33.8984L39.5469 15.6484V23.1797L37.6641 25.0625H37.6562L36.7188 26L39.5469 28.8281V36.3594L33.8984 42H11.3125ZM47.0781 42L41.4375 36.3594V10H50.8438V32.5938H60.2578V10H69.6719V36.3594L64.0234 42H47.0781ZM80.9688 42V32.5938L71.5625 23.1797V10H80.9688V19.4141L84.7344 23.1797V23.1875L85.6797 24.125L90.3828 19.4141V10H99.7969V23.1797L90.3828 32.5938V42H80.9688Z" fill="black"/>
</svg>
