<svg width="174" height="53" viewBox="0 0 174 53" fill="none" xmlns="http://www.w3.org/2000/svg">
<rect width="174" height="53" fill="#FF0000"/>
<path d="M17.8281 42L12.1875 36.3594V15.6484L17.8281 10H40.4219V19.4141H21.5938V32.5938H40.4219V42H17.8281ZM42.3125 42V10H51.7188V21.2969H61.1328V10H70.5469V42H61.1328V30.7109H51.7188V42H42.3125ZM91.2578 21.2969V19.4141H81.8438V21.2969H91.2578ZM72.4375 42V15.6484L78.0781 10H95.0234L100.672 15.6484V42H91.2578V30.7109H81.8438V42H72.4375ZM121.383 21.2969V19.4141H111.969V21.2969H121.383ZM102.562 42V10H125.148L130.797 15.6484V23.1797L128.914 25.0625H128.906L127.969 26L130.797 28.8281V42H121.383V30.7109H111.969V42H102.562ZM142.094 42V19.4141H132.688V10H160.922V19.4141H151.508V42H142.094Z" fill="black"/>
</svg>
