<svg width="62" height="55" viewBox="0 0 62 55" fill="none" xmlns="http://www.w3.org/2000/svg">
<path d="M44.2503 18.5789L44.2499 18.5792C43.4115 19.4145 42.4901 20.3248 41.5218 21.2814C38.9411 23.8309 36.0281 26.7087 33.4705 29.3682C31.7126 31.1962 30.1386 32.9047 28.9667 34.318C28.3803 35.0254 27.9058 35.6453 27.5622 36.1604C27.2031 36.6988 27.0431 37.0412 27.0009 37.2116C26.8909 37.6603 27.0084 38.2719 27.4739 39.0699C27.9311 39.8537 28.65 40.6875 29.4983 41.5067C31.1904 43.1408 33.2456 44.5738 34.2773 45.2684C38.4068 48.0452 43.0072 50.7123 46.1131 52.4479C49.206 54.176 52.9782 52.22 53.5558 48.6392L44.2503 18.5789ZM44.2503 18.5789C44.8988 17.9321 45.3673 17.3006 45.6228 16.722C45.8432 16.223 46.0535 15.3913 45.4894 14.7562C44.9242 14.1199 44.0702 14.2308 43.5379 14.3947C42.9226 14.5841 42.2185 14.9841 41.4594 15.5738C34.414 21.0456 23.1394 29.3372 19.446 31.6504C17.8304 32.6618 16.6666 33.2113 15.6968 33.4778C14.7542 33.737 13.9542 33.74 13.0402 33.5833L13.0399 33.5833C9.34876 32.9515 5.94335 31.9754 3.18371 30.7976L3.18356 30.7976C0.165163 29.51 0.260906 25.1768 3.18543 23.9098L55.5093 1.24664C56.1052 0.98864 56.7559 0.900156 57.3945 0.989163C58.0332 1.07818 58.6397 1.34198 59.1502 1.75613C59.661 2.17045 60.0575 2.72057 60.2952 3.35119C60.5331 3.98194 60.6025 4.66794 60.4956 5.33698L53.5559 48.6383L44.2503 18.5789Z" fill="white" stroke="white" stroke-width="1.91112"/>
</svg>
