<svg width="57" height="53" viewBox="0 0 57 53" fill="none" xmlns="http://www.w3.org/2000/svg">
<path d="M51.7981 1.74914L34.0365 22.1178L33.5276 22.7014L33.9931 23.3203L55.0853 51.357H39.3887L25.4323 32.8074L24.7234 31.8652L23.9485 32.7539L7.72736 51.357H3.4153L22.2157 29.7956L22.7246 29.212L22.2591 28.5932L2.06603 1.74914H17.7627L30.8199 19.106L31.5288 20.0483L32.3037 19.1596L47.4861 1.74914H51.7981ZM40.7323 47.7351L41.019 48.1162H41.4958H46.6639H48.5786L47.4275 46.5861L16.4192 5.37099L16.1325 4.98991H15.6556H10.4876H8.57286L9.72399 6.51996L40.7323 47.7351Z" fill="white" stroke="white" stroke-width="1.91112"/>
</svg>
