<svg width="816" height="140" viewBox="0 0 816 140" fill="none" xmlns="http://www.w3.org/2000/svg">
<path d="M7.73438 140V132.266H100.934L93.167 140H7.73438ZM7.73438 116.732V108.966H116.467V116.732H7.73438ZM77.6338 101.199V93.4326H116.467V101.199H77.6338ZM15.501 85.666L7.73438 77.8994H116.467V85.666H15.501ZM0 70.1328V31.2998L23.2676 8H38.8008V0.265625H77.6338V8H108.7V46.833H38.8008V54.5996H93.167L108.7 70.1328H0ZM124.266 140V132.266H163.066V140H124.266ZM201.899 140V132.266H240.732V140H201.899ZM124.266 116.732V108.966H163.066V116.732H124.266ZM201.899 116.732V108.966H240.732V116.732H201.899ZM124.266 101.199V93.4326H163.066V101.199H124.266ZM201.899 101.199V93.4326H240.732V101.199H201.899ZM124.266 85.666V77.8994H240.732V85.666H124.266ZM201.899 54.5996V46.833H163.066V54.5996H201.899ZM124.266 70.1328V31.2998L147.533 8H217.433L240.732 31.2998V70.1328H124.266ZM248.531 140V132.266H318.398V140H248.531ZM248.531 116.732V108.966H318.398V116.732H248.531ZM264.032 101.199V93.4326H302.865V101.199H264.032ZM264.032 85.666V77.8994H302.865V85.666H264.032ZM264.032 70.1328V46.833H248.531V8H318.398V46.833H302.865V70.1328H264.032ZM364.934 140V132.266H403.767V140H364.934ZM364.934 116.732V108.966H403.767V116.732H364.934ZM364.934 101.199V93.4326H403.767V101.199H364.934ZM364.934 85.666V77.8994H403.767V85.666H364.934ZM364.934 70.1328V46.833H326.133V8H442.6V46.833H403.767V70.1328H364.934ZM450.398 140V132.266H489.199V140H450.398ZM528.032 140V132.266H566.865V140H528.032ZM450.398 116.732V108.966H489.199V116.732H450.398ZM528.032 116.732V108.966H566.865V116.732H528.032ZM450.398 101.199V93.4326H489.199V101.199H450.398ZM528.032 101.199V93.4326H566.865V101.199H528.032ZM450.398 85.666V77.8994H566.865V85.666H450.398ZM528.032 54.5996V46.833H489.199V54.5996H528.032ZM450.398 70.1328V31.2998L473.666 8H543.565L566.865 31.2998V70.1328H450.398ZM613.465 140V132.266H652.298V140H613.465ZM613.465 116.732V108.966H652.298V116.732H613.465ZM613.465 101.199V93.4326H652.298V101.199H613.465ZM613.465 85.666V77.8994H652.298V85.666H613.465ZM613.465 70.1328V46.833H574.664V8H691.131V46.833H652.298V70.1328H613.465ZM698.93 140V132.266H815.396V140H698.93ZM698.93 116.732V108.966H815.396V116.732H698.93ZM698.93 101.199V93.4326H737.73V101.199H698.93ZM698.93 85.666V77.8994H784.33V85.666H698.93ZM698.93 70.1328V8H815.396V46.833H737.73V54.5996H784.33V70.1328H698.93Z" fill="white"/>
</svg>
