<?xml version="1.0" encoding="UTF-8"?>
<svg id="_Слой_2" data-name="Слой 2" xmlns="http://www.w3.org/2000/svg" viewBox="0 0 788.38 523.87">
  <defs>
    <style>
      .cls-1 {
        fill: #fff;
      }
    </style>
  </defs>
  <g id="_Слой_1-2" data-name="Слой 1">
    <g>
      <path class="cls-1" d="M209.8,107.79l35.81,1.72s45.22,45.85,36.6,56.57c-8.63,10.72-74.76,0-74.76,0l2.35-58.29Z"/>
      <path class="cls-1" d="M542.9,106.63s-39.91,37.76-35.2,57.8l73.02,1.22,3.66-63.95-41.47,4.94Z"/>
      <path d="M616.03.5c34.3-1.81,67.14.74,97.59,17.54,14.33,7.91,55.4,36.7,56.45,53.49,1.38,22.1-38.46-13.75-43.1-16.65-32.16-20.13-92.99-22.7-130.19-18.75-36.01,3.82-76.06,17.09-111.31,18.86-11.67.59-26.89-1.34-35.41-10.2-11.94-12.43.89-28.11,15.36-30.22,16.94-2.47,36.54,2.25,54.47,1.14,31.95-1.98,62.63-13.44,96.15-15.21Z"/>
      <path d="M336.66,24.09c16,16.53-4.65,31.69-20.77,33.84-29.3,3.9-90.76-14.89-123.97-18.49-36.38-3.94-96.13-1.64-128.13,17.33-9.2,5.45-30.84,27.46-40.71,24.56-9.86-2.9,1.97-20.23,5.91-24.85C69.09,9.4,130.16-1.31,188.96,4.76c26.36,2.72,52.09,12.37,78.45,14.09,17.68,1.15,57.39-7,69.24,5.25Z"/>
      <path d="M570.87,160.01c-11.87-10.8-11.65-29.44-6.89-43.74l8.45-9.56-25.08,2.34-28.26,43.13-7.67-6.81,23.37-35.53c-12.41-4.13-23.63,10.81-32.89,2.36,6.34-12.2,25.81-12.12,38.4-13.33,56.69-5.45,127.46-12.57,171.74,28.98,2.09,1.96,15.92,16.86,16.54,18.07,1.38,2.68-3.2,7.39-5.01,7.71-3.84.68-6.17-8.55-9.96-9.29-.76,3.91-2.65,8.15-5.51,10.98-11.14,11.02-52.94,13.49-68.94,14.18-44.21,1.91-89.83-1.56-134.17-.06v-9.42h65.88ZM639.88,158.44h24.31c4.04,0,19.47-2.94,24.08-4.15,10.38-2.74,19.35-7.18,15.58-19.84-3.53-11.85-52.26-32.19-65.53-26.99,13.42,10.93,13.29,38.84,1.56,50.98ZM628.52,126.69c7.42-7.45-4.66-22.01-12.27-11.5-6.05,8.35,5.97,17.82,12.27,11.5Z"/>
      <path d="M283.86,163.15v9.42c-44.32-1.54-89.97,2.01-134.16.06-15.9-.7-57.62-3.5-68.98-14.14-2.83-2.65-4.61-7.27-5.47-11-3,1.37-4.5,7.21-7.8,8.67-2.09.92-9.05-3.38-7.16-7.11,1.04-2.06,20.37-20.84,23.57-23.57,31.95-27.25,71.17-27.85,111.47-26.7,15.31.44,74.71,3.08,84.95,9.15,3.41,2.02,4.83,4.02,6.69,7.4-7.54,7.44-9.12,1.09-13.7-.4-5.81-1.89-13.1-2.1-19.2-1.95-1.66,1.23,22.02,31.2,22.92,34.46,1.33,4.86-4.05,8.43-8.84,3.98-6.45-6-21.51-36.18-26.63-39.24l-26.65-2.34c2.42,3.17,5.81,4.16,8.5,7.94,7.94,11.14,6.11,37.63-6.94,45.37h67.44ZM124.67,161.58c8.35.69,17.44-.5,25.88,0-2.28-3.03-5.94-5.25-7.46-9.01-4.62-11.42-4.35-36.91,10.58-41.2.3-2.67-5.4-1.7-7.11-1.62-16.3.78-33.4,6.88-47.02,15.72-2.36,1.53-13.14,9.48-13.93,10.95-2.52,4.69-.41,13.86,4.77,17.11,6.12,3.84,26.66,7.42,34.3,8.05ZM201.88,116.35c-10.73,1.63-9.07,18.75,2.68,17.05,10.92-1.58,8.56-18.75-2.68-17.05Z"/>
      <path d="M621.07,385.85c1.92,14.27-8.84,20.43-18.96,27.32-57.48,39.1-120.59,51.87-188.86,58.94-71.76,7.43-143.77,4.65-215.63,1.59l7.61,15.16c-5.04,13.79-14.27-4.85-17.29-10.98-6.27-12.76-10.84-25.72,5.64-32.52l3.87,6.95c-2.35,3.62-7.14,5.25-6.12,10.4,60.28,4.51,120.76,6.23,181.14,3.13,71.79-4.41,174.23-17.95,231.22-65.2,5.08-4.21,9.32-7.37,7.97-14.77h9.42Z"/>
      <path d="M668.1,523.87l-9.41-1.57c6.65-52.28,10.94-106.1,32.67-154.75,9.19-20.57,23.47-42.26,36.63-60.61,2.21-3.09,9.8-15.22,12.75-14.95l5.12,2.88.07,3.23c-24.01,32.4-46.3,66.28-57.85,105.38-11.48,38.86-14.87,80.34-19.99,120.39Z"/>
      <rect x="494.02" y="72.18" width="153.7" height="9.41"/>
      <rect x="141.14" y="75.32" width="153.7" height="9.41"/>
      <path d="M735.01,14.28c3.47-1.02,23.98,11.02,27.95,14.02,6.79,5.12,19.96,18.75,24.4,25.83,3.21,5.12-1.9,5.88-5.58,8.55-9.73-13.35-19.72-24.79-34.21-33.11-4.02-2.31-12.97-4.81-15.21-6.78-2.71-2.39.09-7.75,2.65-8.5Z"/>
      <path d="M51.33,17.5c4.46-.69,5.91,3.08,6.56,6.68-8.25,5.76-19.01,8.63-27.32,15.06-7.96,6.16-16.16,16.62-22.7,24.42l-7.21-4c-1.49-1.81-.15-2.62.81-4,3.36-4.86,13.5-15.45,18.17-19.51,5.47-4.74,25.29-17.66,31.69-18.65Z"/>
      <path d="M467.38,150.6c-1.71-10.84-7.4-22.45-6.17-33.58.85-7.66,14.79-39.7,23.25-23.93-15.71,16.88-16.33,32.57-7.81,53.46l-9.27,4.05Z"/>
      <path d="M321.47,153.74l-9.17-3.88c9.97-21.71,7.1-37.17-8.07-54.91l7.09-5.51c18.64,19.76,19.89,39.48,10.15,64.3Z"/>
      <path class="cls-1" d="M639.88,158.44c11.73-12.13,11.85-40.05-1.56-50.98,13.27-5.2,62,15.14,65.53,26.99,3.77,12.66-5.2,17.1-15.58,19.84-4.6,1.21-20.03,4.15-24.08,4.15h-24.31Z"/>
      <path class="cls-1" d="M628.52,126.69c-6.3,6.33-18.32-3.14-12.27-11.5,7.62-10.52,19.69,4.05,12.27,11.5Z"/>
      <path class="cls-1" d="M124.67,161.58c-7.64-.63-28.18-4.21-34.3-8.05-5.18-3.25-7.29-12.41-4.77-17.11.79-1.47,11.58-9.42,13.93-10.95,13.62-8.83,30.72-14.94,47.02-15.72,1.71-.08,7.41-1.05,7.11,1.62-14.93,4.28-15.2,29.78-10.58,41.2,1.52,3.76,5.17,5.99,7.46,9.01-8.44-.5-17.53.69-25.88,0Z"/>
      <path class="cls-1" d="M201.88,116.35c11.24-1.7,13.61,15.48,2.68,17.05-11.75,1.7-13.41-15.43-2.68-17.05Z"/>
    </g>
  </g>
</svg>