<svg xmlns="http://www.w3.org/2000/svg" width="46" height="46" viewBox="0 0 46 46" fill="none">
  <path d="M13.5062 14.6535H13.5063C14.9075 14.6457 16.0498 15.7754 16.0576 17.1766C16.0654 18.578 14.9357 19.7202 13.5345 19.728C11.4698 19.7395 10.1083 19.7948 9.11439 19.9774L9.11437 19.9774C8.19373 20.1465 7.81499 20.3867 7.56862 20.633C7.56857 20.6331 7.56852 20.6331 7.56848 20.6331M13.5062 14.6535L9.55094 38.8997C8.29761 38.7311 7.84463 38.4512 7.56862 38.1752C7.29246 37.899 7.01256 37.446 6.84407 36.1927L5.72644 36.3429M13.5062 14.6535C11.4821 14.6648 9.69326 14.7116 8.19757 14.9863C6.62959 15.2743 5.17869 15.8464 3.98028 17.0448C2.60432 18.4208 2.05892 20.1232 1.81472 21.9395C1.58555 23.6438 1.5856 25.7777 1.58566 28.2862L1.58566 28.3612V30.447L1.58566 30.522C1.5856 33.0305 1.58555 35.1643 1.81471 36.8689L2.93235 36.7187L1.81472 36.8689C2.05893 38.6853 2.60435 40.3874 3.98023 41.7634L3.98029 41.7635C5.35622 43.1394 7.05846 43.6848 8.8748 43.929C10.578 44.1581 12.71 44.158 15.2158 44.158H15.2967H30.5388H30.6197C33.1256 44.158 35.2575 44.1581 36.9608 43.929C38.7772 43.6848 40.4792 43.1394 41.8552 41.7635L41.8554 41.7634C43.2312 40.3874 43.7766 38.6853 44.0208 36.8689L44.0208 36.8688C44.2499 35.1643 44.2499 33.0304 44.2498 30.5218V30.447V28.3612V28.2864C44.2499 25.778 44.2499 23.6439 44.0208 21.9395L44.0208 21.9395C43.7766 20.1232 43.2312 18.4208 41.8553 17.0448L41.8553 17.0448M13.5062 14.6535L41.8553 17.0448M7.56848 20.6331L6.77116 19.8357C6.251 20.3559 5.91185 21.0863 5.72644 22.4652C5.53556 23.885 5.53257 25.7666 5.53257 28.4644V30.3438C5.53257 33.0416 5.53556 34.9232 5.72644 36.3429M7.56848 20.6331C7.29238 20.9093 7.01253 21.3626 6.84407 22.6155C6.66566 23.9425 6.66025 25.734 6.66025 28.4644V30.3438C6.66025 33.0741 6.66566 34.8657 6.84407 36.1927L5.72644 36.3429M7.56848 20.6331L5.72644 36.3429M41.8553 17.0448C40.6567 15.8464 39.2058 15.2743 37.6378 14.9863C36.1423 14.7116 34.3534 14.6648 32.3293 14.6535C30.9281 14.6457 29.7856 15.7753 29.7779 17.1767C29.7701 18.5779 30.8997 19.7202 32.301 19.728C34.3657 19.7395 35.7272 19.7948 36.7212 19.9774C37.6417 20.1465 38.0204 20.3867 38.267 20.6331M41.8553 17.0448L38.267 20.6331M38.267 20.6331C38.267 20.6331 38.2671 20.6332 38.2671 20.6332C38.5432 20.9094 38.8229 21.3625 38.9915 22.6154C39.1698 23.9425 39.1752 25.7341 39.1752 28.4644V30.3438C39.1752 33.0741 39.1698 34.8657 38.9915 36.1928C38.8229 37.4461 38.5431 37.899 38.267 38.1751C37.9908 38.4513 37.5379 38.7311 36.2845 38.8997C34.9574 39.078 33.1658 39.0834 30.4357 39.0834H15.3998C12.6696 39.0834 10.878 39.078 9.55109 38.8997L38.267 20.6331ZM20.3805 10.8897V28.464C20.3805 29.8653 21.5165 31.0013 22.9177 31.0013C24.319 31.0013 25.455 29.8653 25.455 28.464V10.8897L26.6297 12.2601C26.6297 12.2601 26.6298 12.2601 26.6298 12.2602C27.5417 13.3242 29.1436 13.4473 30.2074 12.5354C31.2715 11.6234 31.3946 10.0215 30.4825 8.95763L24.8444 2.37978C24.3623 1.817 23.6582 1.49346 22.9177 1.49346C22.1774 1.49346 21.4734 1.8169 20.9914 2.37951C20.9913 2.3796 20.9912 2.37969 20.9911 2.37978L15.3529 8.95768C14.4409 10.0216 14.5641 11.6234 15.6281 12.5354C16.692 13.4474 18.2938 13.3242 19.2058 12.2602L20.3805 10.8897Z" fill="white" stroke="black" stroke-width="2.25537"/>
</svg>