<svg width="327" height="65" viewBox="0 0 327 65" fill="none" xmlns="http://www.w3.org/2000/svg">
<path d="M326.72 0.0380249H0.431641V64.9948H326.72V0.0380249Z" fill="#939393"/>
<path d="M0.431641 65.0035L7.94549 57.4897H319.206V7.55195L326.72 0.0380249H0.431641V65.0035Z" fill="#F4F4F4"/>
<path d="M319.206 7.55196H7.94531V57.481H319.206V7.55196Z" fill="#DDDDDD"/>
<path d="M143.043 21.458C142.376 25.9221 140.072 28.5745 136.129 29.4152C139.144 30.1688 140.651 32.3429 140.651 35.9375C140.651 36.8941 140.564 37.9956 140.39 39.2421C139.898 42.5177 138.854 44.8658 137.26 46.2862C135.781 47.6196 133.665 48.2863 130.911 48.2863H107.735L112.997 12.979H136.173C140.869 12.979 143.217 15.0661 143.217 19.2404C143.217 19.9071 143.159 20.6463 143.043 21.458ZM128.737 23.5451C128.795 23.1972 128.824 22.8929 128.824 22.632C128.824 21.5594 128.302 21.0231 127.259 21.0231H125.607L124.867 26.0236H126.52C127.766 26.0236 128.505 25.1974 128.737 23.5451ZM126.868 36.0244C126.897 35.7925 126.911 35.5751 126.911 35.3722C126.911 34.2706 126.389 33.7199 125.346 33.7199H123.693L122.737 40.2422H124.389C125.665 40.2422 126.404 39.474 126.607 37.9376L126.868 36.0244ZM179.726 12.979L175.464 41.5466C174.769 46.2137 171.768 48.5472 166.464 48.5472H151.288C146.592 48.5472 144.244 46.6775 144.244 42.9381C144.244 42.5032 144.288 42.0394 144.375 41.5466L148.636 12.979H162.42L158.68 38.155C158.622 38.4449 158.593 38.7058 158.593 38.9377C158.593 40.0393 159.072 40.59 160.028 40.59C161.246 40.59 161.97 39.7784 162.202 38.155L165.942 12.979H179.726ZM218.309 12.979L204.829 34.9374L202.829 48.2863H189.045L191.045 34.9374L184.088 12.979H197.524L199.916 21.458L204.873 12.979H218.309Z" fill="url(#paint0_linear_3_876)"/>
<path d="M143.043 21.458L144.341 21.6518L144.342 21.6435L143.043 21.458ZM136.129 29.4152L135.856 28.1319L135.811 30.6881L136.129 29.4152ZM140.39 39.2421L141.688 39.4373L141.69 39.4234L140.39 39.2421ZM137.26 46.2862L136.387 45.3065L136.381 45.3119L137.26 46.2862ZM107.735 48.2863L106.438 48.093L106.213 49.5984H107.735V48.2863ZM112.997 12.979V11.6669H111.866L111.699 12.7856L112.997 12.979ZM128.737 23.5451L127.443 23.3294L127.44 23.346L127.438 23.3627L128.737 23.5451ZM125.607 21.0231V19.7111H124.474L124.309 20.8313L125.607 21.0231ZM124.867 26.0236L123.569 25.8317L123.347 27.3356H124.867V26.0236ZM126.868 36.0244L128.168 36.2017L128.169 36.1944L128.17 36.1872L126.868 36.0244ZM123.693 33.7199V32.4078H122.56L122.395 33.5295L123.693 33.7199ZM122.737 40.2422L121.439 40.0518L121.218 41.5543H122.737V40.2422ZM126.607 37.9376L125.307 37.7603L125.306 37.7658L126.607 37.9376ZM141.745 21.2641C141.438 23.3187 140.772 24.8439 139.824 25.9348C138.885 27.0153 137.591 27.7619 135.856 28.1319L136.403 30.6984C138.61 30.2278 140.439 29.2279 141.805 27.6559C143.162 26.0944 143.981 24.0614 144.341 21.6518L141.745 21.2641ZM135.811 30.6881C137.067 31.002 137.901 31.5775 138.443 32.3586C138.998 33.1599 139.339 34.3137 139.339 35.9375H141.963C141.963 33.9667 141.551 32.2362 140.599 30.8634C139.633 29.4704 138.207 28.582 136.447 28.1423L135.811 30.6881ZM139.339 35.9375C139.339 36.8179 139.259 37.8568 139.091 39.0608L141.69 39.4234C141.87 38.1344 141.963 36.9702 141.963 35.9375H139.339ZM139.093 39.0469C138.622 42.1782 137.656 44.1759 136.387 45.3065L138.133 47.2659C140.052 45.5556 141.173 42.8573 141.688 39.4373L139.093 39.0469ZM136.381 45.3119C135.223 46.3567 133.466 46.9743 130.911 46.9743V49.5984C133.865 49.5984 136.34 48.8826 138.139 47.2605L136.381 45.3119ZM130.911 46.9743H107.735V49.5984H130.911V46.9743ZM109.033 48.4797L114.295 13.1723L111.699 12.7856L106.438 48.093L109.033 48.4797ZM112.997 14.291H136.173V11.6669H112.997V14.291ZM136.173 14.291C138.354 14.291 139.745 14.7791 140.584 15.525C141.394 16.2446 141.905 17.3981 141.905 19.2404H144.529C144.529 16.9083 143.866 14.9311 142.327 13.5637C140.819 12.2224 138.687 11.6669 136.173 11.6669V14.291ZM141.905 19.2404C141.905 19.8328 141.853 20.5088 141.744 21.2724L144.342 21.6435C144.465 20.7838 144.529 19.9814 144.529 19.2404H141.905ZM130.032 23.7608C130.098 23.3647 130.136 22.9852 130.136 22.632H127.512C127.512 22.8005 127.493 23.0298 127.443 23.3294L130.032 23.7608ZM130.136 22.632C130.136 21.9023 129.959 21.1124 129.373 20.5104C128.781 19.9016 127.992 19.7111 127.259 19.7111V22.3352C127.411 22.3352 127.49 22.3552 127.518 22.3649C127.54 22.3724 127.52 22.369 127.493 22.3403C127.428 22.2745 127.512 22.2891 127.512 22.632H130.136ZM127.259 19.7111H125.607V22.3352H127.259V19.7111ZM124.309 20.8313L123.569 25.8317L126.165 26.2154L126.905 21.215L124.309 20.8313ZM124.867 27.3356H126.52V24.7115H124.867V27.3356ZM126.52 27.3356C127.465 27.3356 128.336 27.0064 128.987 26.2788C129.597 25.5969 129.902 24.6892 130.037 23.7275L127.438 23.3627C127.341 24.0533 127.16 24.3848 127.031 24.5291C126.943 24.6277 126.821 24.7115 126.52 24.7115V27.3356ZM128.17 36.1872C128.204 35.9092 128.223 35.6369 128.223 35.3722H125.599C125.599 35.5133 125.589 35.6759 125.566 35.8617L128.17 36.1872ZM128.223 35.3722C128.223 34.6363 128.05 33.8406 127.472 33.2306C126.882 32.6073 126.088 32.4078 125.346 32.4078V35.032C125.495 35.032 125.57 35.0521 125.595 35.0608C125.613 35.0671 125.593 35.0627 125.567 35.0353C125.511 34.9761 125.599 35.0065 125.599 35.3722H128.223ZM125.346 32.4078H123.693V35.032H125.346V32.4078ZM122.395 33.5295L121.439 40.0518L124.035 40.4326L124.992 33.9103L122.395 33.5295ZM122.737 41.5543H124.389V38.9301H122.737V41.5543ZM124.389 41.5543C125.308 41.5543 126.181 41.2667 126.846 40.5758C127.48 39.9169 127.785 39.0343 127.907 38.1094L125.306 37.7658C125.225 38.3773 125.06 38.647 124.955 38.7563C124.88 38.8335 124.746 38.9301 124.389 38.9301V41.5543ZM127.907 38.1149L128.168 36.2017L125.568 35.8471L125.307 37.7604L127.907 38.1149ZM179.726 12.979L181.023 13.1725L181.248 11.6669H179.726V12.979ZM175.464 41.5466L174.167 41.3531L174.167 41.3532L175.464 41.5466ZM144.375 41.5466L145.667 41.7747L145.67 41.7575L145.672 41.7402L144.375 41.5466ZM148.636 12.979V11.6669H147.505L147.338 12.7854L148.636 12.979ZM162.42 12.979L163.718 13.1717L163.941 11.6669H162.42V12.979ZM158.68 38.155L159.967 38.4124L159.973 38.3802L159.978 38.3478L158.68 38.155ZM162.202 38.155L160.904 37.9623L160.903 37.9695L162.202 38.155ZM165.942 12.979V11.6669H164.81L164.644 12.7862L165.942 12.979ZM178.428 12.7854L174.167 41.3531L176.762 41.7402L181.023 13.1725L178.428 12.7854ZM174.167 41.3532C173.856 43.4378 173.06 44.8489 171.887 45.7614C170.693 46.6901 168.937 47.2352 166.464 47.2352V49.8593C169.294 49.8593 171.692 49.2376 173.498 47.8328C175.325 46.4118 176.377 44.3225 176.762 41.7401L174.167 41.3532ZM166.464 47.2352H151.288V49.8593H166.464V47.2352ZM151.288 47.2352C149.079 47.2352 147.665 46.7896 146.823 46.1185C146.037 45.4929 145.556 44.5161 145.556 42.9381H142.932C142.932 45.0995 143.626 46.9273 145.188 48.1714C146.693 49.37 148.801 49.8593 151.288 49.8593V47.2352ZM145.556 42.9381C145.556 42.5901 145.591 42.2032 145.667 41.7747L143.083 41.3186C142.984 41.8757 142.932 42.4164 142.932 42.9381H145.556ZM145.672 41.7402L149.934 13.1725L147.338 12.7854L143.077 41.3531L145.672 41.7402ZM148.636 14.291H162.42V11.6669H148.636V14.291ZM161.122 12.7862L157.382 37.9623L159.978 38.3478L163.718 13.1717L161.122 12.7862ZM157.394 37.8977C157.323 38.2505 157.281 38.5997 157.281 38.9377H159.905C159.905 38.812 159.921 38.6394 159.967 38.4124L157.394 37.8977ZM157.281 38.9377C157.281 39.6489 157.432 40.4273 157.961 41.0373C158.522 41.6826 159.296 41.9021 160.028 41.9021V39.278C159.912 39.278 159.868 39.2609 159.871 39.2618C159.881 39.2658 159.914 39.2832 159.943 39.3166C159.968 39.3461 159.96 39.3519 159.943 39.2958C159.926 39.2356 159.905 39.1224 159.905 38.9377H157.281ZM160.028 41.9021C160.961 41.9021 161.821 41.5747 162.464 40.8552C163.065 40.1817 163.366 39.2867 163.501 38.3406L160.903 37.9695C160.807 38.6467 160.629 38.9692 160.506 39.1074C160.424 39.1995 160.313 39.278 160.028 39.278V41.9021ZM163.5 38.3478L167.24 13.1717L164.644 12.7862L160.904 37.9623L163.5 38.3478ZM165.942 14.291H179.726V11.6669H165.942V14.291ZM218.309 12.979L219.427 13.6654L220.654 11.6669H218.309V12.979ZM204.829 34.9374L203.711 34.251L203.571 34.4787L203.531 34.7429L204.829 34.9374ZM202.829 48.2863V49.5984H203.959L204.127 48.4808L202.829 48.2863ZM189.045 48.2863L187.748 48.0919L187.522 49.5984H189.045V48.2863ZM191.045 34.9374L192.343 35.1318L192.388 34.831L192.296 34.5411L191.045 34.9374ZM184.088 12.979V11.6669H182.296L182.837 13.3753L184.088 12.979ZM197.524 12.979L198.787 12.6228L198.517 11.6669H197.524V12.979ZM199.916 21.458L198.653 21.8141L199.491 24.7846L201.048 22.1202L199.916 21.458ZM204.873 12.979V11.6669H204.12L203.74 12.3168L204.873 12.979ZM217.19 12.2925L203.711 34.251L205.947 35.6238L219.427 13.6654L217.19 12.2925ZM203.531 34.7429L201.531 48.0919L204.127 48.4808L206.127 35.1318L203.531 34.7429ZM202.829 46.9743H189.045V49.5984H202.829V46.9743ZM190.343 48.4808L192.343 35.1318L189.748 34.7429L187.748 48.0919L190.343 48.4808ZM192.296 34.5411L185.339 12.5827L182.837 13.3753L189.794 35.3337L192.296 34.5411ZM184.088 14.291H197.524V11.6669H184.088V14.291ZM196.261 13.3351L198.653 21.8141L201.178 21.1018L198.787 12.6228L196.261 13.3351ZM201.048 22.1202L206.005 13.6412L203.74 12.3168L198.783 20.7958L201.048 22.1202ZM204.873 14.291H218.309V11.6669H204.873V14.291Z" fill="black"/>
<defs>
<linearGradient id="paint0_linear_3_876" x1="105.398" y1="31.7804" x2="215.396" y2="31.7804" gradientUnits="userSpaceOnUse">
<stop stop-color="#DDF406"/>
<stop offset="1" stop-color="#F4503A"/>
</linearGradient>
</defs>
</svg>
