<svg width="75" height="75" viewBox="0 0 75 75" fill="none" xmlns="http://www.w3.org/2000/svg">
<path d="M75 0H0V74H75V0Z" fill="#939393"/>
<path d="M75 0H0V74H75V0Z" fill="url(#paint0_linear_1_2388)"/>
<path d="M0 74.27L8.59 65.6801H66V8.59009L74.59 0H0V74.27Z" fill="#F4F4F4"/>
<path d="M66 9H9V66H66V9Z" fill="#DDDDDD"/>
<path fill-rule="evenodd" clip-rule="evenodd" d="M34.3519 21.9684C32.2609 23.0486 30.5501 23.9627 30.5505 23.9999C30.5514 24.0958 35.569 26.6159 35.7471 26.6098C35.8281 26.6071 36.4158 26.3388 37.053 26.0137L38.2117 25.4226L40.7426 26.7129L42.815 25.7894C45.9376 24.3979 46.262 24.2454 46.2111 24.1941C46.1437 24.1262 45.0236 23.5294 41.9849 21.9429C40.5164 21.1761 39.091 20.4243 38.8174 20.2722C38.5438 20.12 38.2825 19.9977 38.2369 20C38.1913 20.0024 36.443 20.8882 34.3519 21.9684ZM25.1807 26.6782L23.0039 27.7933V32.6871C23.0039 35.3787 23.0325 37.5808 23.0676 37.5808C23.1025 37.5808 24.1735 37.1204 25.4474 36.5577L27.7637 35.5346V30.3762L28.8956 30.9878C29.7678 31.4586 30.6406 31.9285 31.5138 32.3974L33.0001 33.1955L33.6615 32.8989C34.0763 32.7126 34.4902 32.5245 34.9034 32.3345C35.2226 32.1871 36.0062 31.8371 36.6447 31.5565C37.2832 31.2759 37.8743 30.9937 37.9581 30.9294C38.0694 30.8439 36.7118 30.0999 32.9369 28.1775C30.0913 26.7283 27.6719 25.5472 27.5603 25.5529C27.4487 25.5586 26.3779 26.0649 25.1807 26.6782ZM46.6034 26.9914C45.1209 27.6551 43.9069 28.2247 43.9056 28.2571C43.9043 28.2896 44.7123 28.7661 45.7013 29.3158C46.6901 29.8657 47.4993 30.3449 47.4993 30.381C47.4993 30.417 46.6242 30.8375 45.5548 31.3156C44.4852 31.7936 41.7818 33.0044 39.547 34.0063L32.0591 37.3629C30.1755 38.2074 28.4777 38.9685 28.2861 39.0545C24.4388 40.7818 23.3813 41.261 23.2361 41.3433C23.0901 41.4261 23.057 41.9073 23.031 44.3225L23 47.203L26.893 49.1702L29.5922 47.9622C31.0767 47.2978 32.2913 46.7194 32.2913 46.6768C32.2913 46.6343 32.0169 46.457 31.6818 46.2827C31.3465 46.1084 30.6544 45.7225 30.1436 45.4249C29.6328 45.1274 29.1235 44.8544 29.0117 44.8182C28.8999 44.7821 28.8101 44.7189 28.8119 44.6777C28.8137 44.6367 30.0023 44.0768 31.453 43.4334C34.2706 42.1841 36.4269 41.2212 41.0562 39.145C43.1262 38.2169 45.1965 37.2893 47.2671 36.3622C49.0868 35.5476 51.2026 34.5963 51.9688 34.2481L53.3619 33.615L53.424 27.7885L51.4498 26.7835C50.3639 26.2308 49.4357 25.78 49.387 25.7816C49.3384 25.7832 48.0858 26.3275 46.6034 26.9914ZM52.833 37.5016C52.5421 37.6425 51.9674 37.9064 51.556 38.0879C51.1446 38.2694 50.3639 38.6188 49.8211 38.8644L48.8343 39.3107L48.8118 41.8684C48.7994 43.2751 48.7472 44.4197 48.6958 44.4123C48.579 44.3951 46.7295 43.4544 44.8704 42.4665C43.5286 41.7536 43.4443 41.7252 43.129 41.8801C42.9467 41.9696 41.8572 42.4542 40.7079 42.9571C39.5586 43.4599 38.5808 43.9041 38.5348 43.9444C38.4889 43.9845 40.8021 45.2278 43.6752 46.7075L48.899 49.3977L51.1305 48.2529C52.3577 47.6233 53.4013 47.049 53.4493 46.9768C53.5575 46.8144 53.5483 37.2231 53.44 37.236C53.3971 37.2411 53.1239 37.3607 52.833 37.5016ZM40.4758 48.7594C40.0887 48.9244 39.7017 49.0897 39.3148 49.2552C38.1466 49.7564 38.3755 49.7731 36.9857 49.0869C36.06 48.6299 35.661 48.4889 35.4878 48.5574C35.3578 48.6087 34.2398 49.1075 33.0029 49.6659C31.7662 50.2243 30.7114 50.6811 30.6589 50.6811C30.14 50.6811 31.0027 51.1923 34.3315 52.8575L38.2354 54.8103L39.878 54.0061C40.7814 53.5638 42.6036 52.678 43.9274 52.0378C45.2511 51.3974 46.3177 50.8568 46.2978 50.8364C46.2776 50.8161 45.1685 50.2513 43.8329 49.5813L41.4045 48.3632L40.4758 48.7594Z" fill="black"/>
<defs>
<linearGradient id="paint0_linear_1_2388" x1="0" y1="36.9917" x2="74.9986" y2="36.9917" gradientUnits="userSpaceOnUse">
<stop stop-color="#DDF406"/>
<stop offset="1" stop-color="#F4503A"/>
</linearGradient>
</defs>
</svg>
