<svg width="75" height="75" viewBox="0 0 75 75" fill="none" xmlns="http://www.w3.org/2000/svg">
<path d="M75 0H0V74H75V0Z" fill="#939393"/>
<path d="M75 0H0V74H75V0Z" fill="url(#paint0_linear_1_2382)"/>
<path d="M0 74.27L8.59 65.6801H66V8.59009L74.59 0H0V74.27Z" fill="#F4F4F4"/>
<path d="M66 9H9V66H66V9Z" fill="#DDDDDD"/>
<path d="M30.0013 23.7642C32.9965 20.7528 36.7761 20 38.2915 20L38.2915 29.9069C37.1122 29.9069 36.5521 30.4722 36.4195 30.7548C30.8571 28.3887 28.0402 23.8538 27.3271 21.8821C27.9689 22.7425 29.3773 23.4953 30.0013 23.7642Z" fill="black"/>
<path d="M46.3838 23.7642C43.3887 20.7528 39.6091 20 38.0937 20L38.0937 29.9069C39.2729 29.9069 39.833 30.4722 39.9656 30.7548C45.5281 28.3887 48.3449 23.8538 49.0581 21.8821C48.4163 22.7425 47.0078 23.4953 46.3838 23.7642Z" fill="black"/>
<path d="M31.7395 29.9906C32.5831 30.6301 34.4817 31.9841 35.3278 32.2844C33.7169 32.7918 30.7439 33.0434 31.7395 29.9906Z" fill="black"/>
<path d="M30.2257 28.6561C29.6948 28.2557 28.7739 26.974 28.3799 26.3832C26.8481 27.9233 26.6816 30.959 26.7899 32.2844C26.7899 42.2894 24.93 46.9633 24 48.0496L27.9399 45.0232L30.6074 49.4521L33.7098 46.7401L38.2049 54.2748L38.2049 51.792L36.7251 46.7401C35.5136 41.3699 31.7766 38.9802 30.0596 38.4566L33.7098 36.3714L33.8342 34.6406C28.9064 34.6406 29.3753 30.651 30.2257 28.6561Z" fill="black"/>
<path d="M44.6443 29.9906C43.8007 30.6301 41.9021 31.9841 41.056 32.2844C42.6669 32.7918 45.6399 33.0434 44.6443 29.9906Z" fill="black"/>
<path d="M46.1581 28.6561C46.689 28.2557 47.6099 26.974 48.004 26.3832C49.5357 27.9233 49.7022 30.959 49.5939 32.2844C49.5939 42.2894 51.4538 46.9633 52.3838 48.0496L48.444 45.0232L45.7764 49.4521L42.674 46.7401L38.1789 54.2748L38.1789 51.792L39.6587 46.7401C40.8702 41.3699 44.6072 38.9802 46.3242 38.4566L42.674 36.3714L42.5496 34.6406C47.4774 34.6406 47.0085 30.651 46.1581 28.6561Z" fill="black"/>
<path d="M35.7913 35.1596C35.7913 33.1818 37.4687 32.2082 38.3073 31.9686L38.3073 45.7673C38.3073 42.1567 35.3719 39.4142 33.9042 38.4943L35.7913 37.3156L35.7913 35.1596Z" fill="black"/>
<path d="M40.8185 35.1596C40.8185 33.1818 39.1411 32.2082 38.3025 31.9686L38.3025 45.7673C38.3025 42.1567 41.2379 39.4142 42.7056 38.4943L40.8185 37.3156L40.8185 35.1596Z" fill="black"/>
<defs>
<linearGradient id="paint0_linear_1_2382" x1="0" y1="36.9917" x2="74.9986" y2="36.9917" gradientUnits="userSpaceOnUse">
<stop stop-color="#DDF406"/>
<stop offset="1" stop-color="#F4503A"/>
</linearGradient>
</defs>
</svg>
