<svg width="838" height="839" viewBox="0 0 838 839" fill="none" xmlns="http://www.w3.org/2000/svg">
<path d="M601.164 675.302C594.977 635.048 564.392 580.89 546.734 552.175C529.211 523.715 509.537 495.729 489.75 470.969C519.314 482.352 551.943 492.687 584.354 500.834C617.06 509.027 677.902 521.86 718.166 515.632C755.454 509.862 788.253 489.929 810.563 459.492C832.873 429.056 841.988 391.763 836.242 354.471C830.496 317.18 810.655 284.363 780.168 262.092C749.75 239.797 712.469 230.702 675.18 236.471C624.358 244.332 537.022 295.343 472.184 346.583C501.507 269.324 523.838 170.676 516.009 119.849C510.263 82.5579 490.304 49.8294 459.935 27.4698C429.517 5.17468 392.235 -3.92015 354.947 1.84912C277.985 13.7352 225.004 86.045 236.871 163.009C243.057 203.264 273.642 257.422 291.301 286.137C308.823 314.597 328.497 342.583 348.284 367.342C318.721 355.96 286.092 345.625 253.68 337.478C220.986 329.269 160.132 316.452 119.869 322.68C82.5802 328.449 49.781 348.383 27.4714 378.819C5.16181 409.256 -3.95373 446.549 1.79222 483.84C7.60102 521.584 27.9299 553.555 56.2335 574.935C84.5371 596.316 123.636 607.922 162.842 601.857C213.665 593.995 301 542.985 365.838 491.745C336.515 569.004 314.184 667.652 322.013 718.479C327.645 755.051 346.924 787.342 376.386 809.598C376.949 810.023 377.512 810.449 378.075 810.874C408.493 833.169 445.775 842.264 483.063 836.495C560.025 824.609 612.994 752.315 601.14 675.335L601.164 675.302ZM678.866 260.397C709.769 255.62 740.642 263.162 765.862 281.632C766.329 281.984 766.796 282.337 767.262 282.689C791.672 301.128 807.66 327.873 812.306 358.189C817.076 389.078 809.505 419.977 791.023 445.212C772.553 470.432 745.358 486.961 714.468 491.722C658.442 500.382 533.084 466.732 457.623 430.997L662.541 385.153L450.141 397.375C509.932 340.907 622.11 269.188 678.854 260.413L678.866 260.397ZM260.778 159.296C250.96 95.5117 294.866 35.6165 358.617 25.7627C389.52 20.986 420.393 28.5275 445.613 46.9975C446.08 47.35 446.546 47.7024 447.013 48.0549C471.423 66.4941 487.41 93.2385 492.057 123.554C500.732 179.951 466.651 307.303 431.059 381.519L385.136 175.601L397.164 387.045C340.145 326.093 269.454 215.693 260.778 159.296ZM159.168 577.915C95.3885 587.772 35.53 543.895 25.716 480.139C20.9587 449.234 28.5174 418.351 46.9993 393.116C65.4691 367.896 92.6642 351.366 123.555 346.606C179.58 337.946 304.922 371.584 380.387 407.347L175.469 453.191L387.869 440.969C328.106 497.433 215.9 569.156 159.156 577.931L159.168 577.915ZM479.401 812.537C448.498 817.314 417.626 809.772 392.405 791.302C367.209 772.901 350.691 745.654 345.949 714.761C337.274 658.364 371.355 531.013 406.947 456.797L452.87 662.715L440.842 451.271C497.861 512.222 568.552 622.623 577.228 679.02C587.046 742.804 543.14 802.699 479.389 812.553L479.401 812.537Z" fill="black"/>
<path d="M601.164 675.302C594.977 635.048 564.392 580.89 546.734 552.175C529.211 523.715 509.537 495.729 489.75 470.969C519.314 482.352 551.943 492.687 584.354 500.834C617.06 509.027 677.902 521.86 718.166 515.632C755.454 509.862 788.253 489.929 810.563 459.492C832.873 429.056 841.988 391.763 836.242 354.471C830.496 317.18 810.655 284.363 780.168 262.092C749.75 239.797 712.469 230.702 675.18 236.471C624.358 244.332 537.022 295.343 472.184 346.583C501.507 269.324 523.838 170.676 516.009 119.849C510.263 82.5579 490.304 49.8294 459.935 27.4698C429.517 5.17468 392.235 -3.92015 354.947 1.84912C277.985 13.7352 225.004 86.045 236.871 163.009C243.057 203.264 273.642 257.422 291.301 286.137C308.823 314.597 328.497 342.583 348.284 367.342C318.721 355.96 286.092 345.625 253.68 337.478C220.986 329.269 160.132 316.452 119.869 322.68C82.5802 328.449 49.781 348.383 27.4714 378.819C5.16181 409.256 -3.95373 446.549 1.79222 483.84C7.60102 521.584 27.9299 553.555 56.2335 574.935C84.5371 596.316 123.636 607.922 162.842 601.857C213.665 593.995 301 542.985 365.838 491.745C336.515 569.004 314.184 667.652 322.013 718.479C327.645 755.051 346.924 787.342 376.386 809.598C376.949 810.023 377.512 810.449 378.075 810.874C408.493 833.169 445.775 842.264 483.063 836.495C560.025 824.609 612.994 752.315 601.14 675.335L601.164 675.302ZM678.866 260.397C709.769 255.62 740.642 263.162 765.862 281.632C766.329 281.984 766.796 282.337 767.262 282.689C791.672 301.128 807.66 327.873 812.306 358.189C817.076 389.078 809.505 419.977 791.023 445.212C772.553 470.432 745.358 486.961 714.468 491.722C658.442 500.382 533.084 466.732 457.623 430.997L662.541 385.153L450.141 397.375C509.932 340.907 622.11 269.188 678.854 260.413L678.866 260.397ZM260.778 159.296C250.96 95.5117 294.866 35.6165 358.617 25.7627C389.52 20.986 420.393 28.5275 445.613 46.9975C446.08 47.35 446.546 47.7024 447.013 48.0549C471.423 66.4941 487.41 93.2385 492.057 123.554C500.732 179.951 466.651 307.303 431.059 381.519L385.136 175.601L397.164 387.045C340.145 326.093 269.454 215.693 260.778 159.296ZM159.168 577.915C95.3885 587.772 35.53 543.895 25.716 480.139C20.9587 449.234 28.5174 418.351 46.9993 393.116C65.4691 367.896 92.6642 351.366 123.555 346.606C179.58 337.946 304.922 371.584 380.387 407.347L175.469 453.191L387.869 440.969C328.106 497.433 215.9 569.156 159.156 577.931L159.168 577.915ZM479.401 812.537C448.498 817.314 417.626 809.772 392.405 791.302C367.209 772.901 350.691 745.654 345.949 714.761C337.274 658.364 371.355 531.013 406.947 456.797L452.87 662.715L440.842 451.271C497.861 512.222 568.552 622.623 577.228 679.02C587.046 742.804 543.14 802.699 479.389 812.553L479.401 812.537Z" fill="url(#paint0_linear_1_2222)"/>
<defs>
<linearGradient id="paint0_linear_1_2222" x1="145.792" y1="212.627" x2="692.361" y2="625.507" gradientUnits="userSpaceOnUse">
<stop stop-color="#DDF406"/>
<stop offset="1" stop-color="#F4503A"/>
</linearGradient>
</defs>
</svg>
