<svg width="515" height="515" viewBox="0 0 515 515" fill="none" xmlns="http://www.w3.org/2000/svg">
<path d="M403.705 296.793C429.513 276.332 451.98 255.226 469.886 234.429C522.62 173.178 519.078 135.028 506.824 113.803C494.567 92.5894 463.297 70.4594 383.89 85.4925C356.926 90.6011 327.412 99.5178 296.791 111.626C276.33 85.8179 255.225 63.3503 234.428 45.4444C173.18 -7.28982 135.03 -3.74816 113.805 8.5064C92.5922 20.7641 70.4505 52.0322 85.4941 131.444C90.6023 158.408 99.5185 187.923 111.626 218.544C85.8183 239.006 63.3508 260.111 45.4451 280.909C-7.28567 342.148 -3.74759 380.309 8.50962 401.523C15.1337 412.996 27.3062 424.739 49.6646 430.73C68.6517 435.818 94.9607 436.757 131.441 429.845C158.404 424.736 187.919 415.82 218.54 403.711C239.001 429.519 260.106 451.987 280.903 469.893C309.039 494.119 332.293 506.46 351.28 511.548C373.627 517.536 390.052 513.455 401.525 506.831C422.747 494.588 444.88 463.305 429.845 383.908C424.737 356.944 415.821 327.429 403.713 296.808L403.705 296.793ZM469.908 135.127C480.456 153.399 451.531 202.397 386.104 256.332C377.326 237.77 367.541 219.038 356.804 200.44C346.066 181.841 334.74 163.989 323.051 147.118C402.469 117.434 459.367 116.871 469.904 135.139L469.908 135.127ZM351.461 282.795C333.993 295.215 314.711 307.664 293.587 319.871C272.466 332.065 252.032 342.537 232.542 351.455C220.122 333.987 207.673 314.704 195.467 293.58C183.273 272.458 172.802 252.024 163.885 232.534C181.353 220.113 200.635 207.664 221.759 195.458C242.88 183.263 263.299 172.8 282.777 163.88C295.209 181.351 307.667 200.598 319.867 221.746C332.061 242.867 342.532 263.301 351.449 282.792L351.461 282.795ZM135.152 45.4299C139.605 42.8591 145.876 42.6323 153.591 44.6993C177.564 51.1231 215.518 79.8242 256.285 129.254C237.738 138.023 219.033 147.803 200.45 158.532C181.852 169.27 164 180.596 147.13 192.286C117.435 112.864 116.884 55.9674 135.155 45.4182L135.152 45.4299ZM45.4498 380.205C34.901 361.933 63.826 312.935 129.254 259C138.031 277.562 147.816 296.294 158.554 314.892C169.291 333.49 180.617 351.343 192.307 368.214C112.888 397.898 55.9932 398.449 45.4412 380.19L45.4498 380.205ZM380.217 469.905C361.945 480.454 312.949 451.529 259.016 386.101C277.578 377.323 296.309 367.537 314.907 356.8C333.505 346.062 351.357 334.735 368.228 323.046C397.923 402.468 398.473 459.364 380.202 469.914L380.217 469.905Z" fill="black"/>
<path d="M403.705 296.793C429.513 276.332 451.98 255.226 469.886 234.429C522.62 173.178 519.078 135.028 506.824 113.803C494.567 92.5894 463.297 70.4594 383.89 85.4925C356.926 90.6011 327.412 99.5178 296.791 111.626C276.33 85.8179 255.225 63.3503 234.428 45.4444C173.18 -7.28982 135.03 -3.74816 113.805 8.5064C92.5922 20.7641 70.4505 52.0322 85.4941 131.444C90.6023 158.408 99.5185 187.923 111.626 218.544C85.8183 239.006 63.3508 260.111 45.4451 280.909C-7.28567 342.148 -3.74759 380.309 8.50962 401.523C15.1337 412.996 27.3062 424.739 49.6646 430.73C68.6517 435.818 94.9607 436.757 131.441 429.845C158.404 424.736 187.919 415.82 218.54 403.711C239.001 429.519 260.106 451.987 280.903 469.893C309.039 494.119 332.293 506.46 351.28 511.548C373.627 517.536 390.052 513.455 401.525 506.831C422.747 494.588 444.88 463.305 429.845 383.908C424.737 356.944 415.821 327.429 403.713 296.808L403.705 296.793ZM469.908 135.127C480.456 153.399 451.531 202.397 386.104 256.332C377.326 237.77 367.541 219.038 356.804 200.44C346.066 181.841 334.74 163.989 323.051 147.118C402.469 117.434 459.367 116.871 469.904 135.139L469.908 135.127ZM351.461 282.795C333.993 295.215 314.711 307.664 293.587 319.871C272.466 332.065 252.032 342.537 232.542 351.455C220.122 333.987 207.673 314.704 195.467 293.58C183.273 272.458 172.802 252.024 163.885 232.534C181.353 220.113 200.635 207.664 221.759 195.458C242.88 183.263 263.299 172.8 282.777 163.88C295.209 181.351 307.667 200.598 319.867 221.746C332.061 242.867 342.532 263.301 351.449 282.792L351.461 282.795ZM135.152 45.4299C139.605 42.8591 145.876 42.6323 153.591 44.6993C177.564 51.1231 215.518 79.8242 256.285 129.254C237.738 138.023 219.033 147.803 200.45 158.532C181.852 169.27 164 180.596 147.13 192.286C117.435 112.864 116.884 55.9674 135.155 45.4182L135.152 45.4299ZM45.4498 380.205C34.901 361.933 63.826 312.935 129.254 259C138.031 277.562 147.816 296.294 158.554 314.892C169.291 333.49 180.617 351.343 192.307 368.214C112.888 397.898 55.9932 398.449 45.4412 380.19L45.4498 380.205ZM380.217 469.905C361.945 480.454 312.949 451.529 259.016 386.101C277.578 377.323 296.309 367.537 314.907 356.8C333.505 346.062 351.357 334.735 368.228 323.046C397.923 402.468 398.473 459.364 380.202 469.914L380.217 469.905Z" fill="url(#paint0_linear_1_2223)"/>
<defs>
<linearGradient id="paint0_linear_1_2223" x1="44.2118" y1="200.422" x2="471.143" y2="314.818" gradientUnits="userSpaceOnUse">
<stop stop-color="#DDF406"/>
<stop offset="1" stop-color="#F4503A"/>
</linearGradient>
</defs>
</svg>
