<svg width="75" height="75" viewBox="0 0 75 75" fill="none" xmlns="http://www.w3.org/2000/svg">
<path d="M75 0H0V74H75V0Z" fill="#939393"/>
<path d="M75 0H0V74H75V0Z" fill="url(#paint0_linear_1_2376)"/>
<path d="M0 74.27L8.59 65.6801H66V8.59009L74.59 0H0V74.27Z" fill="#F4F4F4"/>
<path d="M66 9H9V66H66V9Z" fill="#DDDDDD"/>
<path fill-rule="evenodd" clip-rule="evenodd" d="M48.3097 25.1651C48.6568 25.0189 49.0368 24.9685 49.41 25.0191C49.7833 25.0697 50.1361 25.2194 50.4319 25.4527C50.7276 25.686 50.9555 25.9943 51.0917 26.3456C51.2279 26.6968 51.2675 27.0782 51.2063 27.4499L48.0203 46.7815C47.7113 48.6462 45.6659 49.7156 43.9563 48.7867C42.5262 48.0096 40.4022 46.8124 38.4917 45.5631C37.5365 44.9378 34.6103 42.9354 34.9699 41.5105C35.279 40.2922 40.1957 35.714 43.0053 32.9921C44.108 31.9227 43.6051 31.3058 42.3029 32.2895C39.0691 34.7318 33.877 38.4457 32.1604 39.4912C30.646 40.413 29.8566 40.5704 28.9125 40.413C27.1903 40.1264 25.5931 39.6823 24.2894 39.1413C22.5278 38.4106 22.6135 35.988 24.288 35.2826L48.3097 25.1651Z" fill="#0D0D0D"/>
<defs>
<linearGradient id="paint0_linear_1_2376" x1="0" y1="36.9917" x2="74.9986" y2="36.9917" gradientUnits="userSpaceOnUse">
<stop stop-color="#DDF406"/>
<stop offset="1" stop-color="#F4503A"/>
</linearGradient>
</defs>
</svg>
