<svg width="560" height="560" viewBox="0 0 560 560" fill="none" xmlns="http://www.w3.org/2000/svg">
<path d="M410.82 204.294C414.601 171.576 415.563 140.765 413.519 113.398C407.496 32.799 378.016 8.32706 354.343 1.98349C330.676 -4.34959 292.916 2.11356 247.397 68.8928C231.943 91.5711 217.378 118.746 204.288 148.96C171.571 145.179 140.76 144.216 113.393 146.26C32.7949 152.28 8.32377 181.76 1.98074 205.434C-4.3518 229.101 2.10156 266.868 68.8914 312.383C91.5698 327.837 118.745 342.403 148.959 355.494C145.178 388.211 144.215 419.022 146.26 446.39C152.276 526.978 181.762 551.461 205.43 557.794C218.227 561.223 235.138 560.919 255.184 549.346C272.207 539.517 291.474 521.578 312.382 490.895C327.836 468.217 342.401 441.042 355.491 410.828C388.208 414.609 419.019 415.572 446.386 413.528C483.412 410.763 508.582 403.046 525.605 393.218C545.64 381.65 554.369 367.151 557.798 354.354C564.147 330.691 557.677 292.92 490.904 247.409C468.226 231.955 441.051 217.389 410.837 204.298L410.82 204.294ZM343.318 43.1662C363.697 48.627 377.891 103.727 369.764 188.129C350.432 181.21 330.267 174.884 309.524 169.325C288.78 163.767 268.148 159.152 247.953 155.488C283.12 78.341 322.955 37.7098 343.324 43.1767L343.318 43.1662ZM363.98 231.337C360.411 252.472 355.579 274.909 349.273 298.477C342.961 322.035 335.917 343.888 328.441 363.976C307.307 360.406 284.87 355.574 261.302 349.267C237.744 342.955 215.891 335.91 195.804 328.434C199.372 307.299 204.204 284.862 210.51 261.294C216.822 237.736 223.862 215.9 231.327 195.818C252.472 199.382 274.891 204.182 298.471 210.51C322.029 216.822 343.882 223.867 363.969 231.343L363.98 231.337ZM43.1842 216.448C44.5149 211.482 48.789 206.887 55.7054 202.894C77.1997 190.484 124.331 183.942 188.111 190.066C181.196 209.382 174.886 229.524 169.332 250.251C163.774 270.994 159.16 291.627 155.497 311.822C78.3388 276.659 37.7178 236.817 43.1781 216.438L43.1842 216.448ZM216.476 516.599C196.097 511.138 181.903 456.038 190.03 371.636C209.362 378.555 229.527 384.881 250.27 390.44C271.013 395.998 291.646 400.613 311.841 404.277C276.674 481.424 236.833 522.045 216.46 516.594L216.476 516.599ZM516.62 343.311C511.16 363.69 456.061 377.883 371.659 369.754C378.578 350.422 384.904 330.257 390.462 309.514C396.019 288.771 400.634 268.138 404.297 247.943C481.455 283.106 522.076 322.948 516.616 343.327L516.62 343.311Z" fill="black"/>
<path d="M410.82 204.294C414.601 171.576 415.563 140.765 413.519 113.398C407.496 32.799 378.016 8.32706 354.343 1.98349C330.676 -4.34959 292.916 2.11356 247.397 68.8928C231.943 91.5711 217.378 118.746 204.288 148.96C171.571 145.179 140.76 144.216 113.393 146.26C32.7949 152.28 8.32377 181.76 1.98074 205.434C-4.3518 229.101 2.10156 266.868 68.8914 312.383C91.5698 327.837 118.745 342.403 148.959 355.494C145.178 388.211 144.215 419.022 146.26 446.39C152.276 526.978 181.762 551.461 205.43 557.794C218.227 561.223 235.138 560.919 255.184 549.346C272.207 539.517 291.474 521.578 312.382 490.895C327.836 468.217 342.401 441.042 355.491 410.828C388.208 414.609 419.019 415.572 446.386 413.528C483.412 410.763 508.582 403.046 525.605 393.218C545.64 381.65 554.369 367.151 557.798 354.354C564.147 330.691 557.677 292.92 490.904 247.409C468.226 231.955 441.051 217.389 410.837 204.298L410.82 204.294ZM343.318 43.1662C363.697 48.627 377.891 103.727 369.764 188.129C350.432 181.21 330.267 174.884 309.524 169.325C288.78 163.767 268.148 159.152 247.953 155.488C283.12 78.341 322.955 37.7098 343.324 43.1767L343.318 43.1662ZM363.98 231.337C360.411 252.472 355.579 274.909 349.273 298.477C342.961 322.035 335.917 343.888 328.441 363.976C307.307 360.406 284.87 355.574 261.302 349.267C237.744 342.955 215.891 335.91 195.804 328.434C199.372 307.299 204.204 284.862 210.51 261.294C216.822 237.736 223.862 215.9 231.327 195.818C252.472 199.382 274.891 204.182 298.471 210.51C322.029 216.822 343.882 223.867 363.969 231.343L363.98 231.337ZM43.1842 216.448C44.5149 211.482 48.789 206.887 55.7054 202.894C77.1997 190.484 124.331 183.942 188.111 190.066C181.196 209.382 174.886 229.524 169.332 250.251C163.774 270.994 159.16 291.627 155.497 311.822C78.3388 276.659 37.7178 236.817 43.1781 216.438L43.1842 216.448ZM216.476 516.599C196.097 511.138 181.903 456.038 190.03 371.636C209.362 378.555 229.527 384.881 250.27 390.44C271.013 395.998 291.646 400.613 311.841 404.277C276.674 481.424 236.833 522.045 216.46 516.594L216.476 516.599ZM516.62 343.311C511.16 363.69 456.061 377.883 371.659 369.754C378.578 350.422 384.904 330.257 390.462 309.514C396.019 288.771 400.634 268.138 404.297 247.943C481.455 283.106 522.076 322.948 516.616 343.327L516.62 343.311Z" fill="url(#paint0_linear_1_2224)"/>
<defs>
<linearGradient id="paint0_linear_1_2224" x1="88.4752" y1="390.349" x2="471.251" y2="169.353" gradientUnits="userSpaceOnUse">
<stop stop-color="#DDF406"/>
<stop offset="1" stop-color="#F4503A"/>
</linearGradient>
</defs>
</svg>
