<svg width="75" height="75" viewBox="0 0 75 75" fill="none" xmlns="http://www.w3.org/2000/svg">
<path d="M75 0H0V74H75V0Z" fill="#939393"/>
<path d="M75 0H0V74H75V0Z" fill="url(#paint0_linear_1_2370)"/>
<path d="M0 74.27L8.59 65.6801H66V8.59009L74.59 0H0V74.27Z" fill="#F4F4F4"/>
<path d="M66 9H9V66H66V9Z" fill="#DDDDDD"/>
<path d="M44.6188 25H48.6336L39.863 35.0032L50.1809 48.6141H42.1015L35.7749 40.3584L28.5345 48.6141H24.5158L33.8977 37.9156L24 25H32.2836L38.0042 32.546L44.6188 25ZM43.2102 46.216H45.4356L31.0741 27.2722H28.6864L43.2102 46.216Z" fill="#0D0D0D"/>
<defs>
<linearGradient id="paint0_linear_1_2370" x1="0" y1="36.9917" x2="74.9986" y2="36.9917" gradientUnits="userSpaceOnUse">
<stop stop-color="#DDF406"/>
<stop offset="1" stop-color="#F4503A"/>
</linearGradient>
</defs>
</svg>
