<svg width="322" height="113" viewBox="0 0 322 113" fill="none" xmlns="http://www.w3.org/2000/svg">
<path d="M4 2.37528H2.40177V3.97351V109.155V110.753H4H318.379H319.977V109.155V3.97351V2.37528H318.379H4Z" fill="#576471" stroke="black" stroke-width="3.19647"/>
<path fill-rule="evenodd" clip-rule="evenodd" d="M4 3.97351H318.379V109.155H4V3.97351ZM10.432 10.4055V102.723H311.947V10.4055H10.432Z" fill="#A6B3BF"/>
<path fill-rule="evenodd" clip-rule="evenodd" d="M4 3.97351H318.379V109.155H4V3.97351ZM10.432 10.4055V102.723H311.947V10.4055H10.432Z" fill="url(#paint0_linear_1_3)" fill-opacity="0.2"/>
<g filter="url(#filter0_ii_1_3)">
<path d="M23.2959 17.9725L25.5471 19.3703L27.8832 20.621L27.7983 23.2695L27.8832 25.9179L25.5471 27.1686L23.2959 28.5664L21.0448 27.1686L18.7087 25.9179L18.7936 23.2695L18.7087 20.621L21.0448 19.3703L23.2959 17.9725Z" fill="#A6B3BF"/>
<path d="M23.2959 17.9725L25.5471 19.3703L27.8832 20.621L27.7983 23.2695L27.8832 25.9179L25.5471 27.1686L23.2959 28.5664L21.0448 27.1686L18.7087 25.9179L18.7936 23.2695L18.7087 20.621L21.0448 19.3703L23.2959 17.9725Z" fill="url(#paint1_linear_1_3)" fill-opacity="0.71"/>
</g>
<path d="M23.9282 16.9542L23.2959 16.5616L22.6637 16.9542L20.4451 18.3317L18.1429 19.5642L17.4868 19.9155L17.5106 20.6594L17.5943 23.2695L17.5106 25.8795L17.4868 26.6234L18.1429 26.9747L20.4451 28.2073L22.6637 29.5847L23.2959 29.9773L23.9282 29.5847L26.1468 28.2072L28.449 26.9747L29.1051 26.6234L29.0813 25.8795L28.9976 23.2695L29.0813 20.6594L29.1051 19.9155L28.449 19.5642L26.1468 18.3317L23.9282 16.9542Z" stroke="#1C2630" stroke-width="2.39735"/>
<g filter="url(#filter1_ii_1_3)">
<path d="M23.2959 81.5355L25.5471 82.9333L27.8832 84.184L27.7983 86.8324L27.8832 89.4809L25.5471 90.7316L23.2959 92.1294L21.0448 90.7316L18.7087 89.4809L18.7936 86.8324L18.7087 84.184L21.0448 82.9333L23.2959 81.5355Z" fill="#A6B3BF"/>
<path d="M23.2959 81.5355L25.5471 82.9333L27.8832 84.184L27.7983 86.8324L27.8832 89.4809L25.5471 90.7316L23.2959 92.1294L21.0448 90.7316L18.7087 89.4809L18.7936 86.8324L18.7087 84.184L21.0448 82.9333L23.2959 81.5355Z" fill="url(#paint2_linear_1_3)" fill-opacity="0.71"/>
</g>
<path d="M23.9282 80.5172L23.2959 80.1246L22.6637 80.5172L20.4451 81.8946L18.1429 83.1272L17.4868 83.4785L17.5106 84.2224L17.5943 86.8324L17.5106 89.4425L17.4868 90.1864L18.1429 90.5377L20.4451 91.7702L22.6637 93.1477L23.2959 93.5403L23.9282 93.1477L26.1468 91.7702L28.449 90.5377L29.1051 90.1864L29.0813 89.4425L28.9976 86.8324L29.0813 84.2224L29.1051 83.4785L28.449 83.1272L26.1468 81.8946L23.9282 80.5172Z" stroke="#1C2630" stroke-width="2.39735"/>
<g filter="url(#filter2_ii_1_3)">
<path d="M299.083 81.5355L301.334 82.9333L303.67 84.184L303.585 86.8324L303.67 89.4809L301.334 90.7316L299.083 92.1294L296.832 90.7316L294.496 89.4809L294.58 86.8324L294.496 84.184L296.832 82.9333L299.083 81.5355Z" fill="#A6B3BF"/>
<path d="M299.083 81.5355L301.334 82.9333L303.67 84.184L303.585 86.8324L303.67 89.4809L301.334 90.7316L299.083 92.1294L296.832 90.7316L294.496 89.4809L294.58 86.8324L294.496 84.184L296.832 82.9333L299.083 81.5355Z" fill="url(#paint3_linear_1_3)" fill-opacity="0.71"/>
</g>
<path d="M299.715 80.5172L299.083 80.1246L298.451 80.5172L296.232 81.8946L293.93 83.1272L293.274 83.4785L293.297 84.2224L293.381 86.8324L293.297 89.4425L293.274 90.1864L293.93 90.5377L296.232 91.7702L298.451 93.1477L299.083 93.5403L299.715 93.1477L301.934 91.7702L304.236 90.5377L304.892 90.1864L304.868 89.4425L304.784 86.8324L304.868 84.2224L304.892 83.4785L304.236 83.1272L301.934 81.8946L299.715 80.5172Z" stroke="#1C2630" stroke-width="2.39735"/>
<g filter="url(#filter3_ii_1_3)">
<path d="M299.083 17.9725L301.334 19.3703L303.67 20.621L303.585 23.2695L303.67 25.9179L301.334 27.1686L299.083 28.5664L296.832 27.1686L294.496 25.9179L294.58 23.2695L294.496 20.621L296.832 19.3703L299.083 17.9725Z" fill="#A6B3BF"/>
<path d="M299.083 17.9725L301.334 19.3703L303.67 20.621L303.585 23.2695L303.67 25.9179L301.334 27.1686L299.083 28.5664L296.832 27.1686L294.496 25.9179L294.58 23.2695L294.496 20.621L296.832 19.3703L299.083 17.9725Z" fill="url(#paint4_linear_1_3)" fill-opacity="0.71"/>
</g>
<path d="M299.715 16.9542L299.083 16.5616L298.451 16.9542L296.232 18.3317L293.93 19.5642L293.274 19.9155L293.297 20.6594L293.381 23.2695L293.297 25.8795L293.274 26.6234L293.93 26.9747L296.232 28.2073L298.451 29.5847L299.083 29.9773L299.715 29.5847L301.934 28.2072L304.236 26.9747L304.892 26.6234L304.868 25.8795L304.784 23.2695L304.868 20.6594L304.892 19.9155L304.236 19.5642L301.934 18.3317L299.715 16.9542Z" stroke="#1C2630" stroke-width="2.39735"/>
<path d="M144.369 64.045C144.369 65.2783 144.159 66.3883 143.74 67.375C143.345 68.337 142.79 69.1633 142.075 69.854C141.36 70.5447 140.484 71.075 139.448 71.445C138.437 71.815 137.327 72 136.118 72H119.357V42.4H136.636C136.513 42.4 136.451 42.4123 136.451 42.437C136.451 42.437 136.636 42.474 137.006 42.548C137.401 42.622 137.82 42.7083 138.264 42.807C138.708 42.9057 139.103 42.992 139.448 43.066C139.818 43.1153 139.978 43.1277 139.929 43.103C140.521 43.3743 141.076 43.7443 141.594 44.213C142.137 44.657 142.605 45.175 143 45.767C143.395 46.3343 143.703 46.9387 143.925 47.58C144.147 48.2213 144.258 48.875 144.258 49.541C144.258 51.169 143.937 52.649 143.296 53.981C142.679 55.2883 141.779 56.238 140.595 56.83C143.111 58.68 144.369 61.085 144.369 64.045ZM137.524 51.465C137.524 50.8483 137.302 50.2933 136.858 49.8C136.439 49.282 135.921 49.023 135.304 49.023H126.498V53.722H135.933C136.155 53.722 136.365 53.648 136.562 53.5C136.759 53.352 136.92 53.167 137.043 52.945C137.191 52.723 137.302 52.4763 137.376 52.205C137.475 51.9337 137.524 51.687 137.524 51.465ZM137.524 62.972C137.524 62.676 137.462 62.3923 137.339 62.121C137.24 61.825 137.092 61.566 136.895 61.344C136.722 61.122 136.513 60.937 136.266 60.789C136.019 60.641 135.773 60.567 135.526 60.567H129.939L126.498 55.35V65.377H135.526C135.773 65.377 136.019 65.303 136.266 65.155C136.513 65.007 136.722 64.822 136.895 64.6C137.092 64.378 137.24 64.1313 137.339 63.86C137.462 63.564 137.524 63.268 137.524 62.972ZM171.417 61.159C171.417 61.7017 171.182 62.5527 170.714 63.712C169.554 66.598 167.976 68.707 165.978 70.039C163.98 71.3463 161.784 72 159.392 72C153.743 72 149.858 69.2373 147.737 63.712C147.293 62.5773 147.071 61.7263 147.071 61.159V42.4H154.027V57.311C154.027 59.679 154.483 61.566 155.396 62.972C156.308 64.3533 157.591 65.044 159.244 65.044C160.896 65.044 162.167 64.3533 163.055 62.972C163.967 61.5907 164.424 59.7037 164.424 57.311V42.4H171.417V61.159ZM201.16 42.4L191.022 57.2V72H183.622V57.2L173.484 42.4H181.994L187.507 50.91L193.168 42.4H201.16Z" fill="white"/>
<defs>
<filter id="filter0_ii_1_3" x="16.2649" y="15.1506" width="14.0621" height="16.2375" filterUnits="userSpaceOnUse" color-interpolation-filters="sRGB">
<feFlood flood-opacity="0" result="BackgroundImageFix"/>
<feBlend mode="normal" in="SourceGraphic" in2="BackgroundImageFix" result="shape"/>
<feColorMatrix in="SourceAlpha" type="matrix" values="0 0 0 0 0 0 0 0 0 0 0 0 0 0 0 0 0 0 127 0" result="hardAlpha"/>
<feOffset dy="5.59382"/>
<feComposite in2="hardAlpha" operator="arithmetic" k2="-1" k3="1"/>
<feColorMatrix type="matrix" values="0 0 0 0 1 0 0 0 0 1 0 0 0 0 1 0 0 0 1 0"/>
<feBlend mode="normal" in2="shape" result="effect1_innerShadow_1_3"/>
<feColorMatrix in="SourceAlpha" type="matrix" values="0 0 0 0 0 0 0 0 0 0 0 0 0 0 0 0 0 0 127 0" result="hardAlpha"/>
<feOffset dy="-4.7947"/>
<feComposite in2="hardAlpha" operator="arithmetic" k2="-1" k3="1"/>
<feColorMatrix type="matrix" values="0 0 0 0 0.301961 0 0 0 0 0.352941 0 0 0 0 0.403922 0 0 0 1 0"/>
<feBlend mode="normal" in2="effect1_innerShadow_1_3" result="effect2_innerShadow_1_3"/>
</filter>
<filter id="filter1_ii_1_3" x="16.2649" y="78.7136" width="14.0621" height="16.2375" filterUnits="userSpaceOnUse" color-interpolation-filters="sRGB">
<feFlood flood-opacity="0" result="BackgroundImageFix"/>
<feBlend mode="normal" in="SourceGraphic" in2="BackgroundImageFix" result="shape"/>
<feColorMatrix in="SourceAlpha" type="matrix" values="0 0 0 0 0 0 0 0 0 0 0 0 0 0 0 0 0 0 127 0" result="hardAlpha"/>
<feOffset dy="5.59382"/>
<feComposite in2="hardAlpha" operator="arithmetic" k2="-1" k3="1"/>
<feColorMatrix type="matrix" values="0 0 0 0 1 0 0 0 0 1 0 0 0 0 1 0 0 0 1 0"/>
<feBlend mode="normal" in2="shape" result="effect1_innerShadow_1_3"/>
<feColorMatrix in="SourceAlpha" type="matrix" values="0 0 0 0 0 0 0 0 0 0 0 0 0 0 0 0 0 0 127 0" result="hardAlpha"/>
<feOffset dy="-4.7947"/>
<feComposite in2="hardAlpha" operator="arithmetic" k2="-1" k3="1"/>
<feColorMatrix type="matrix" values="0 0 0 0 0.301961 0 0 0 0 0.352941 0 0 0 0 0.403922 0 0 0 1 0"/>
<feBlend mode="normal" in2="effect1_innerShadow_1_3" result="effect2_innerShadow_1_3"/>
</filter>
<filter id="filter2_ii_1_3" x="292.052" y="78.7136" width="14.0621" height="16.2375" filterUnits="userSpaceOnUse" color-interpolation-filters="sRGB">
<feFlood flood-opacity="0" result="BackgroundImageFix"/>
<feBlend mode="normal" in="SourceGraphic" in2="BackgroundImageFix" result="shape"/>
<feColorMatrix in="SourceAlpha" type="matrix" values="0 0 0 0 0 0 0 0 0 0 0 0 0 0 0 0 0 0 127 0" result="hardAlpha"/>
<feOffset dy="5.59382"/>
<feComposite in2="hardAlpha" operator="arithmetic" k2="-1" k3="1"/>
<feColorMatrix type="matrix" values="0 0 0 0 1 0 0 0 0 1 0 0 0 0 1 0 0 0 1 0"/>
<feBlend mode="normal" in2="shape" result="effect1_innerShadow_1_3"/>
<feColorMatrix in="SourceAlpha" type="matrix" values="0 0 0 0 0 0 0 0 0 0 0 0 0 0 0 0 0 0 127 0" result="hardAlpha"/>
<feOffset dy="-4.7947"/>
<feComposite in2="hardAlpha" operator="arithmetic" k2="-1" k3="1"/>
<feColorMatrix type="matrix" values="0 0 0 0 0.301961 0 0 0 0 0.352941 0 0 0 0 0.403922 0 0 0 1 0"/>
<feBlend mode="normal" in2="effect1_innerShadow_1_3" result="effect2_innerShadow_1_3"/>
</filter>
<filter id="filter3_ii_1_3" x="292.052" y="15.1506" width="14.0621" height="16.2375" filterUnits="userSpaceOnUse" color-interpolation-filters="sRGB">
<feFlood flood-opacity="0" result="BackgroundImageFix"/>
<feBlend mode="normal" in="SourceGraphic" in2="BackgroundImageFix" result="shape"/>
<feColorMatrix in="SourceAlpha" type="matrix" values="0 0 0 0 0 0 0 0 0 0 0 0 0 0 0 0 0 0 127 0" result="hardAlpha"/>
<feOffset dy="5.59382"/>
<feComposite in2="hardAlpha" operator="arithmetic" k2="-1" k3="1"/>
<feColorMatrix type="matrix" values="0 0 0 0 1 0 0 0 0 1 0 0 0 0 1 0 0 0 1 0"/>
<feBlend mode="normal" in2="shape" result="effect1_innerShadow_1_3"/>
<feColorMatrix in="SourceAlpha" type="matrix" values="0 0 0 0 0 0 0 0 0 0 0 0 0 0 0 0 0 0 127 0" result="hardAlpha"/>
<feOffset dy="-4.7947"/>
<feComposite in2="hardAlpha" operator="arithmetic" k2="-1" k3="1"/>
<feColorMatrix type="matrix" values="0 0 0 0 0.301961 0 0 0 0 0.352941 0 0 0 0 0.403922 0 0 0 1 0"/>
<feBlend mode="normal" in2="effect1_innerShadow_1_3" result="effect2_innerShadow_1_3"/>
</filter>
<linearGradient id="paint0_linear_1_3" x1="161.189" y1="10.4055" x2="161.189" y2="276.765" gradientUnits="userSpaceOnUse">
<stop stop-opacity="0"/>
<stop offset="1"/>
</linearGradient>
<linearGradient id="paint1_linear_1_3" x1="23.2959" y1="17.9725" x2="23.2959" y2="28.5664" gradientUnits="userSpaceOnUse">
<stop stop-color="white"/>
<stop offset="0.73" stop-color="white" stop-opacity="0"/>
</linearGradient>
<linearGradient id="paint2_linear_1_3" x1="23.2959" y1="81.5355" x2="23.2959" y2="92.1294" gradientUnits="userSpaceOnUse">
<stop stop-color="white"/>
<stop offset="0.73" stop-color="white" stop-opacity="0"/>
</linearGradient>
<linearGradient id="paint3_linear_1_3" x1="299.083" y1="81.5355" x2="299.083" y2="92.1294" gradientUnits="userSpaceOnUse">
<stop stop-color="white"/>
<stop offset="0.73" stop-color="white" stop-opacity="0"/>
</linearGradient>
<linearGradient id="paint4_linear_1_3" x1="299.083" y1="17.9725" x2="299.083" y2="28.5664" gradientUnits="userSpaceOnUse">
<stop stop-color="white"/>
<stop offset="0.73" stop-color="white" stop-opacity="0"/>
</linearGradient>
</defs>
</svg>
