<svg width="1920" height="102" viewBox="0 0 1920 102" fill="none" xmlns="http://www.w3.org/2000/svg">
<path d="M0 0H1920V102H0V0Z" fill="#576471"/>
<path fill-rule="evenodd" clip-rule="evenodd" d="M0 0H1920V102H0V0ZM17 17V85H1903V17H17Z" fill="#A6B3BF"/>
<path fill-rule="evenodd" clip-rule="evenodd" d="M0 0H1920V102H0V0ZM17 17V85H1903V17H17Z" fill="url(#paint0_linear_0_50)" fill-opacity="0.2"/>
<g filter="url(#filter0_ii_0_50)">
<path d="M64 37L69.95 40.6943L76.1244 44L75.9 51L76.1244 58L69.95 61.3057L64 65L58.05 61.3057L51.8756 58L52.1 51L51.8756 44L58.05 40.6943L64 37Z" fill="#A6B3BF"/>
<path d="M64 37L69.95 40.6943L76.1244 44L75.9 51L76.1244 58L69.95 61.3057L64 65L58.05 61.3057L51.8756 58L52.1 51L51.8756 44L58.05 40.6943L64 37Z" fill="url(#paint1_linear_0_50)" fill-opacity="0.71"/>
</g>
<path d="M64.7912 35.7257L64 35.2344L63.2088 35.7257L57.2996 39.3946L51.1676 42.6776L50.3466 43.1172L50.3764 44.0481L50.5992 51L50.3764 57.9519L50.3466 58.8828L51.1676 59.3224L57.2996 62.6054L63.2088 66.2743L64 66.7656L64.7912 66.2743L70.7004 62.6054L76.8324 59.3224L77.6534 58.8828L77.6236 57.9519L77.4008 51L77.6236 44.0481L77.6534 43.1172L76.8324 42.6776L70.7004 39.3946L64.7912 35.7257Z" stroke="#1C2630" stroke-width="3"/>
<g filter="url(#filter1_ii_0_50)">
<path d="M960 37L965.95 40.6943L972.124 44L971.9 51L972.124 58L965.95 61.3057L960 65L954.05 61.3057L947.876 58L948.1 51L947.876 44L954.05 40.6943L960 37Z" fill="#A6B3BF"/>
<path d="M960 37L965.95 40.6943L972.124 44L971.9 51L972.124 58L965.95 61.3057L960 65L954.05 61.3057L947.876 58L948.1 51L947.876 44L954.05 40.6943L960 37Z" fill="url(#paint2_linear_0_50)" fill-opacity="0.71"/>
</g>
<path d="M960.791 35.7257L960 35.2344L959.209 35.7257L953.3 39.3946L947.168 42.6776L946.347 43.1172L946.376 44.0481L946.599 51L946.376 57.9519L946.347 58.8828L947.168 59.3224L953.3 62.6054L959.209 66.2743L960 66.7656L960.791 66.2743L966.7 62.6054L972.832 59.3224L973.653 58.8828L973.624 57.9519L973.401 51L973.624 44.0481L973.653 43.1172L972.832 42.6776L966.7 39.3946L960.791 35.7257Z" stroke="#1C2630" stroke-width="3"/>
<g filter="url(#filter2_ii_0_50)">
<path d="M1856 37L1861.95 40.6943L1868.12 44L1867.9 51L1868.12 58L1861.95 61.3057L1856 65L1850.05 61.3057L1843.88 58L1844.1 51L1843.88 44L1850.05 40.6943L1856 37Z" fill="#A6B3BF"/>
<path d="M1856 37L1861.95 40.6943L1868.12 44L1867.9 51L1868.12 58L1861.95 61.3057L1856 65L1850.05 61.3057L1843.88 58L1844.1 51L1843.88 44L1850.05 40.6943L1856 37Z" fill="url(#paint3_linear_0_50)" fill-opacity="0.71"/>
</g>
<path d="M1856.79 35.7257L1856 35.2344L1855.21 35.7257L1849.3 39.3946L1843.17 42.6776L1842.35 43.1172L1842.38 44.0481L1842.6 51L1842.38 57.9519L1842.35 58.8828L1843.17 59.3224L1849.3 62.6054L1855.21 66.2743L1856 66.7656L1856.79 66.2743L1862.7 62.6054L1868.83 59.3224L1869.65 58.8828L1869.62 57.9519L1869.4 51L1869.62 44.0481L1869.65 43.1172L1868.83 42.6776L1862.7 39.3946L1856.79 35.7257Z" stroke="#1C2630" stroke-width="3"/>
<g filter="url(#filter3_ii_0_50)">
<path d="M512 37L517.95 40.6943L524.124 44L523.9 51L524.124 58L517.95 61.3057L512 65L506.05 61.3057L499.876 58L500.1 51L499.876 44L506.05 40.6943L512 37Z" fill="#A6B3BF"/>
<path d="M512 37L517.95 40.6943L524.124 44L523.9 51L524.124 58L517.95 61.3057L512 65L506.05 61.3057L499.876 58L500.1 51L499.876 44L506.05 40.6943L512 37Z" fill="url(#paint4_linear_0_50)" fill-opacity="0.71"/>
</g>
<path d="M512.791 35.7257L512 35.2344L511.209 35.7257L505.3 39.3946L499.168 42.6776L498.347 43.1172L498.376 44.0481L498.599 51L498.376 57.9519L498.347 58.8828L499.168 59.3224L505.3 62.6054L511.209 66.2743L512 66.7656L512.791 66.2743L518.7 62.6054L524.832 59.3224L525.653 58.8828L525.624 57.9519L525.401 51L525.624 44.0481L525.653 43.1172L524.832 42.6776L518.7 39.3946L512.791 35.7257Z" stroke="#1C2630" stroke-width="3"/>
<g filter="url(#filter4_ii_0_50)">
<path d="M1408 37L1413.95 40.6943L1420.12 44L1419.9 51L1420.12 58L1413.95 61.3057L1408 65L1402.05 61.3057L1395.88 58L1396.1 51L1395.88 44L1402.05 40.6943L1408 37Z" fill="#A6B3BF"/>
<path d="M1408 37L1413.95 40.6943L1420.12 44L1419.9 51L1420.12 58L1413.95 61.3057L1408 65L1402.05 61.3057L1395.88 58L1396.1 51L1395.88 44L1402.05 40.6943L1408 37Z" fill="url(#paint5_linear_0_50)" fill-opacity="0.71"/>
</g>
<path d="M1408.79 35.7257L1408 35.2344L1407.21 35.7257L1401.3 39.3946L1395.17 42.6776L1394.35 43.1172L1394.38 44.0481L1394.6 51L1394.38 57.9519L1394.35 58.8828L1395.17 59.3224L1401.3 62.6054L1407.21 66.2743L1408 66.7656L1408.79 66.2743L1414.7 62.6054L1420.83 59.3224L1421.65 58.8828L1421.62 57.9519L1421.4 51L1421.62 44.0481L1421.65 43.1172L1420.83 42.6776L1414.7 39.3946L1408.79 35.7257Z" stroke="#1C2630" stroke-width="3"/>
<defs>
<filter id="filter0_ii_0_50" x="48.8176" y="33.4688" width="30.3647" height="35.0625" filterUnits="userSpaceOnUse" color-interpolation-filters="sRGB">
<feFlood flood-opacity="0" result="BackgroundImageFix"/>
<feBlend mode="normal" in="SourceGraphic" in2="BackgroundImageFix" result="shape"/>
<feColorMatrix in="SourceAlpha" type="matrix" values="0 0 0 0 0 0 0 0 0 0 0 0 0 0 0 0 0 0 127 0" result="hardAlpha"/>
<feOffset dy="7"/>
<feComposite in2="hardAlpha" operator="arithmetic" k2="-1" k3="1"/>
<feColorMatrix type="matrix" values="0 0 0 0 1 0 0 0 0 1 0 0 0 0 1 0 0 0 1 0"/>
<feBlend mode="normal" in2="shape" result="effect1_innerShadow_0_50"/>
<feColorMatrix in="SourceAlpha" type="matrix" values="0 0 0 0 0 0 0 0 0 0 0 0 0 0 0 0 0 0 127 0" result="hardAlpha"/>
<feOffset dy="-6"/>
<feComposite in2="hardAlpha" operator="arithmetic" k2="-1" k3="1"/>
<feColorMatrix type="matrix" values="0 0 0 0 0.301961 0 0 0 0 0.352941 0 0 0 0 0.403922 0 0 0 1 0"/>
<feBlend mode="normal" in2="effect1_innerShadow_0_50" result="effect2_innerShadow_0_50"/>
</filter>
<filter id="filter1_ii_0_50" x="944.818" y="33.4688" width="30.365" height="35.0625" filterUnits="userSpaceOnUse" color-interpolation-filters="sRGB">
<feFlood flood-opacity="0" result="BackgroundImageFix"/>
<feBlend mode="normal" in="SourceGraphic" in2="BackgroundImageFix" result="shape"/>
<feColorMatrix in="SourceAlpha" type="matrix" values="0 0 0 0 0 0 0 0 0 0 0 0 0 0 0 0 0 0 127 0" result="hardAlpha"/>
<feOffset dy="7"/>
<feComposite in2="hardAlpha" operator="arithmetic" k2="-1" k3="1"/>
<feColorMatrix type="matrix" values="0 0 0 0 1 0 0 0 0 1 0 0 0 0 1 0 0 0 1 0"/>
<feBlend mode="normal" in2="shape" result="effect1_innerShadow_0_50"/>
<feColorMatrix in="SourceAlpha" type="matrix" values="0 0 0 0 0 0 0 0 0 0 0 0 0 0 0 0 0 0 127 0" result="hardAlpha"/>
<feOffset dy="-6"/>
<feComposite in2="hardAlpha" operator="arithmetic" k2="-1" k3="1"/>
<feColorMatrix type="matrix" values="0 0 0 0 0.301961 0 0 0 0 0.352941 0 0 0 0 0.403922 0 0 0 1 0"/>
<feBlend mode="normal" in2="effect1_innerShadow_0_50" result="effect2_innerShadow_0_50"/>
</filter>
<filter id="filter2_ii_0_50" x="1840.82" y="33.4688" width="30.365" height="35.0625" filterUnits="userSpaceOnUse" color-interpolation-filters="sRGB">
<feFlood flood-opacity="0" result="BackgroundImageFix"/>
<feBlend mode="normal" in="SourceGraphic" in2="BackgroundImageFix" result="shape"/>
<feColorMatrix in="SourceAlpha" type="matrix" values="0 0 0 0 0 0 0 0 0 0 0 0 0 0 0 0 0 0 127 0" result="hardAlpha"/>
<feOffset dy="7"/>
<feComposite in2="hardAlpha" operator="arithmetic" k2="-1" k3="1"/>
<feColorMatrix type="matrix" values="0 0 0 0 1 0 0 0 0 1 0 0 0 0 1 0 0 0 1 0"/>
<feBlend mode="normal" in2="shape" result="effect1_innerShadow_0_50"/>
<feColorMatrix in="SourceAlpha" type="matrix" values="0 0 0 0 0 0 0 0 0 0 0 0 0 0 0 0 0 0 127 0" result="hardAlpha"/>
<feOffset dy="-6"/>
<feComposite in2="hardAlpha" operator="arithmetic" k2="-1" k3="1"/>
<feColorMatrix type="matrix" values="0 0 0 0 0.301961 0 0 0 0 0.352941 0 0 0 0 0.403922 0 0 0 1 0"/>
<feBlend mode="normal" in2="effect1_innerShadow_0_50" result="effect2_innerShadow_0_50"/>
</filter>
<filter id="filter3_ii_0_50" x="496.818" y="33.4688" width="30.3647" height="35.0625" filterUnits="userSpaceOnUse" color-interpolation-filters="sRGB">
<feFlood flood-opacity="0" result="BackgroundImageFix"/>
<feBlend mode="normal" in="SourceGraphic" in2="BackgroundImageFix" result="shape"/>
<feColorMatrix in="SourceAlpha" type="matrix" values="0 0 0 0 0 0 0 0 0 0 0 0 0 0 0 0 0 0 127 0" result="hardAlpha"/>
<feOffset dy="7"/>
<feComposite in2="hardAlpha" operator="arithmetic" k2="-1" k3="1"/>
<feColorMatrix type="matrix" values="0 0 0 0 1 0 0 0 0 1 0 0 0 0 1 0 0 0 1 0"/>
<feBlend mode="normal" in2="shape" result="effect1_innerShadow_0_50"/>
<feColorMatrix in="SourceAlpha" type="matrix" values="0 0 0 0 0 0 0 0 0 0 0 0 0 0 0 0 0 0 127 0" result="hardAlpha"/>
<feOffset dy="-6"/>
<feComposite in2="hardAlpha" operator="arithmetic" k2="-1" k3="1"/>
<feColorMatrix type="matrix" values="0 0 0 0 0.301961 0 0 0 0 0.352941 0 0 0 0 0.403922 0 0 0 1 0"/>
<feBlend mode="normal" in2="effect1_innerShadow_0_50" result="effect2_innerShadow_0_50"/>
</filter>
<filter id="filter4_ii_0_50" x="1392.82" y="33.4688" width="30.365" height="35.0625" filterUnits="userSpaceOnUse" color-interpolation-filters="sRGB">
<feFlood flood-opacity="0" result="BackgroundImageFix"/>
<feBlend mode="normal" in="SourceGraphic" in2="BackgroundImageFix" result="shape"/>
<feColorMatrix in="SourceAlpha" type="matrix" values="0 0 0 0 0 0 0 0 0 0 0 0 0 0 0 0 0 0 127 0" result="hardAlpha"/>
<feOffset dy="7"/>
<feComposite in2="hardAlpha" operator="arithmetic" k2="-1" k3="1"/>
<feColorMatrix type="matrix" values="0 0 0 0 1 0 0 0 0 1 0 0 0 0 1 0 0 0 1 0"/>
<feBlend mode="normal" in2="shape" result="effect1_innerShadow_0_50"/>
<feColorMatrix in="SourceAlpha" type="matrix" values="0 0 0 0 0 0 0 0 0 0 0 0 0 0 0 0 0 0 127 0" result="hardAlpha"/>
<feOffset dy="-6"/>
<feComposite in2="hardAlpha" operator="arithmetic" k2="-1" k3="1"/>
<feColorMatrix type="matrix" values="0 0 0 0 0.301961 0 0 0 0 0.352941 0 0 0 0 0.403922 0 0 0 1 0"/>
<feBlend mode="normal" in2="effect1_innerShadow_0_50" result="effect2_innerShadow_0_50"/>
</filter>
<linearGradient id="paint0_linear_0_50" x1="452.999" y1="17" x2="452.999" y2="721" gradientUnits="userSpaceOnUse">
<stop stop-opacity="0"/>
<stop offset="1"/>
</linearGradient>
<linearGradient id="paint1_linear_0_50" x1="64" y1="37" x2="64" y2="65" gradientUnits="userSpaceOnUse">
<stop stop-color="white"/>
<stop offset="0.73" stop-color="white" stop-opacity="0"/>
</linearGradient>
<linearGradient id="paint2_linear_0_50" x1="960" y1="37" x2="960" y2="65" gradientUnits="userSpaceOnUse">
<stop stop-color="white"/>
<stop offset="0.73" stop-color="white" stop-opacity="0"/>
</linearGradient>
<linearGradient id="paint3_linear_0_50" x1="1856" y1="37" x2="1856" y2="65" gradientUnits="userSpaceOnUse">
<stop stop-color="white"/>
<stop offset="0.73" stop-color="white" stop-opacity="0"/>
</linearGradient>
<linearGradient id="paint4_linear_0_50" x1="512" y1="37" x2="512" y2="65" gradientUnits="userSpaceOnUse">
<stop stop-color="white"/>
<stop offset="0.73" stop-color="white" stop-opacity="0"/>
</linearGradient>
<linearGradient id="paint5_linear_0_50" x1="1408" y1="37" x2="1408" y2="65" gradientUnits="userSpaceOnUse">
<stop stop-color="white"/>
<stop offset="0.73" stop-color="white" stop-opacity="0"/>
</linearGradient>
</defs>
</svg>
