<svg width="55" height="65" viewBox="0 0 55 65" fill="none" xmlns="http://www.w3.org/2000/svg">
<path d="M12.266 7.10813C17.9525 1.42163 25.1283 0 28.0054 0V18.7079C25.7665 18.7079 24.7031 19.7753 24.4513 20.309C13.8907 15.841 8.54265 7.27738 7.18872 3.55407C8.40726 5.17878 11.0813 6.60041 12.266 7.10813Z" fill="white"/>
<path d="M43.3698 7.10813C37.6833 1.42163 30.5074 0 27.6303 0V18.7079C29.8693 18.7079 30.9326 19.7753 31.1844 20.309C41.7451 15.841 47.0931 7.27738 48.447 3.55407C47.2285 5.17878 44.5545 6.60041 43.3698 7.10813Z" fill="white"/>
<path d="M15.5666 18.8662C17.1682 20.0737 20.7729 22.6305 22.3792 23.1976C19.3207 24.1557 13.6763 24.6309 15.5666 18.8662Z" fill="white"/>
<path d="M12.6925 16.3461C11.6845 15.5901 9.93617 13.1697 9.18802 12.0541C6.27985 14.9622 5.96383 20.6948 6.16935 23.1976C6.16935 42.0907 2.63815 50.9167 0.872559 52.9681L8.35265 47.2531L13.4172 55.6166L19.3073 50.4953L27.8417 64.7235V60.0351L25.032 50.4953C22.732 40.3543 15.637 35.8417 12.3771 34.853L19.3073 30.9153L19.5436 27.6471C10.1878 27.6471 11.0779 20.1131 12.6925 16.3461Z" fill="white"/>
<path d="M40.0672 18.8662C38.4656 20.0737 34.8609 22.6305 33.2546 23.1976C36.313 24.1557 41.9574 24.6309 40.0672 18.8662Z" fill="white"/>
<path d="M42.9413 16.3461C43.9493 15.5901 45.6976 13.1697 46.4458 12.0541C49.3539 14.9622 49.67 20.6948 49.4644 23.1976C49.4644 42.0907 52.9956 50.9167 54.7612 52.9681L47.2811 47.2531L42.2166 55.6166L36.3265 50.4953L27.7921 64.7235V60.0351L30.6018 50.4953C32.9018 40.3543 39.9968 35.8417 43.2567 34.853L36.3265 30.9153L36.0902 27.6471C45.446 27.6471 44.5559 20.1131 42.9413 16.3461Z" fill="white"/>
<path d="M23.2595 28.6269C23.2595 24.892 26.444 23.0536 28.0362 22.6012V48.6582C28.0362 41.8399 22.4632 36.6611 19.6766 34.924L23.2595 32.6983V28.6269Z" fill="white"/>
<path d="M32.8037 28.6269C32.8037 24.892 29.6191 23.0536 28.0269 22.6012V48.6582C28.0269 41.8399 33.5999 36.6611 36.3865 34.924L32.8037 32.6983V28.6269Z" fill="white"/>
</svg>
