<svg width="914" height="746" viewBox="0 0 914 746" fill="none" xmlns="http://www.w3.org/2000/svg">
<path d="M4 2H2V4V742V744H4H910H912V742V4V2H910H4Z" fill="#576471" stroke="black" stroke-width="4"/>
<path fill-rule="evenodd" clip-rule="evenodd" d="M4 4H910V742H4V4ZM21 21V725H893V21H21Z" fill="#A6B3BF"/>
<path fill-rule="evenodd" clip-rule="evenodd" d="M4 4H910V742H4V4ZM21 21V725H893V21H21Z" fill="url(#paint0_linear_1_4)" fill-opacity="0.2"/>
<g filter="url(#filter0_ii_1_4)">
<path d="M55 41L60.95 44.6943L67.1244 48L66.9 55L67.1244 62L60.95 65.3057L55 69L49.05 65.3057L42.8756 62L43.1 55L42.8756 48L49.05 44.6943L55 41Z" fill="#A6B3BF"/>
<path d="M55 41L60.95 44.6943L67.1244 48L66.9 55L67.1244 62L60.95 65.3057L55 69L49.05 65.3057L42.8756 62L43.1 55L42.8756 48L49.05 44.6943L55 41Z" fill="url(#paint1_linear_1_4)" fill-opacity="0.71"/>
</g>
<path d="M55.7912 39.7257L55 39.2344L54.2088 39.7257L48.2996 43.3946L42.1676 46.6776L41.3466 47.1172L41.3764 48.0481L41.5992 55L41.3764 61.9519L41.3466 62.8828L42.1676 63.3224L48.2996 66.6054L54.2088 70.2743L55 70.7656L55.7912 70.2743L61.7004 66.6054L67.8324 63.3224L68.6534 62.8828L68.6236 61.9519L68.4008 55L68.6236 48.0481L68.6534 47.1172L67.8324 46.6776L61.7004 43.3946L55.7912 39.7257Z" stroke="#1C2630" stroke-width="3"/>
<g filter="url(#filter1_ii_1_4)">
<path d="M55 677L60.95 680.694L67.1244 684L66.9 691L67.1244 698L60.95 701.306L55 705L49.05 701.306L42.8756 698L43.1 691L42.8756 684L49.05 680.694L55 677Z" fill="#A6B3BF"/>
<path d="M55 677L60.95 680.694L67.1244 684L66.9 691L67.1244 698L60.95 701.306L55 705L49.05 701.306L42.8756 698L43.1 691L42.8756 684L49.05 680.694L55 677Z" fill="url(#paint2_linear_1_4)" fill-opacity="0.71"/>
</g>
<path d="M55.7912 675.726L55 675.234L54.2088 675.726L48.2996 679.395L42.1676 682.678L41.3466 683.117L41.3764 684.048L41.5992 691L41.3764 697.952L41.3466 698.883L42.1676 699.322L48.2996 702.605L54.2088 706.274L55 706.766L55.7912 706.274L61.7004 702.605L67.8324 699.322L68.6534 698.883L68.6236 697.952L68.4008 691L68.6236 684.048L68.6534 683.117L67.8324 682.678L61.7004 679.395L55.7912 675.726Z" stroke="#1C2630" stroke-width="3"/>
<g filter="url(#filter2_ii_1_4)">
<path d="M859 677L864.95 680.694L871.124 684L870.9 691L871.124 698L864.95 701.306L859 705L853.05 701.306L846.876 698L847.1 691L846.876 684L853.05 680.694L859 677Z" fill="#A6B3BF"/>
<path d="M859 677L864.95 680.694L871.124 684L870.9 691L871.124 698L864.95 701.306L859 705L853.05 701.306L846.876 698L847.1 691L846.876 684L853.05 680.694L859 677Z" fill="url(#paint3_linear_1_4)" fill-opacity="0.71"/>
</g>
<path d="M859.791 675.726L859 675.234L858.209 675.726L852.3 679.395L846.168 682.678L845.347 683.117L845.376 684.048L845.599 691L845.376 697.952L845.347 698.883L846.168 699.322L852.3 702.605L858.209 706.274L859 706.766L859.791 706.274L865.7 702.605L871.832 699.322L872.653 698.883L872.624 697.952L872.401 691L872.624 684.048L872.653 683.117L871.832 682.678L865.7 679.395L859.791 675.726Z" stroke="#1C2630" stroke-width="3"/>
<g filter="url(#filter3_ii_1_4)">
<path d="M859 41L864.95 44.6943L871.124 48L870.9 55L871.124 62L864.95 65.3057L859 69L853.05 65.3057L846.876 62L847.1 55L846.876 48L853.05 44.6943L859 41Z" fill="#A6B3BF"/>
<path d="M859 41L864.95 44.6943L871.124 48L870.9 55L871.124 62L864.95 65.3057L859 69L853.05 65.3057L846.876 62L847.1 55L846.876 48L853.05 44.6943L859 41Z" fill="url(#paint4_linear_1_4)" fill-opacity="0.71"/>
</g>
<path d="M859.791 39.7257L859 39.2344L858.209 39.7257L852.3 43.3946L846.168 46.6776L845.347 47.1172L845.376 48.0481L845.599 55L845.376 61.9519L845.347 62.8828L846.168 63.3224L852.3 66.6054L858.209 70.2743L859 70.7656L859.791 70.2743L865.7 66.6054L871.832 63.3224L872.653 62.8828L872.624 61.9519L872.401 55L872.624 48.0481L872.653 47.1172L871.832 46.6776L865.7 43.3946L859.791 39.7257Z" stroke="#1C2630" stroke-width="3"/>
<defs>
<filter id="filter0_ii_1_4" x="39.8176" y="37.4688" width="30.3647" height="35.0625" filterUnits="userSpaceOnUse" color-interpolation-filters="sRGB">
<feFlood flood-opacity="0" result="BackgroundImageFix"/>
<feBlend mode="normal" in="SourceGraphic" in2="BackgroundImageFix" result="shape"/>
<feColorMatrix in="SourceAlpha" type="matrix" values="0 0 0 0 0 0 0 0 0 0 0 0 0 0 0 0 0 0 127 0" result="hardAlpha"/>
<feOffset dy="7"/>
<feComposite in2="hardAlpha" operator="arithmetic" k2="-1" k3="1"/>
<feColorMatrix type="matrix" values="0 0 0 0 1 0 0 0 0 1 0 0 0 0 1 0 0 0 1 0"/>
<feBlend mode="normal" in2="shape" result="effect1_innerShadow_1_4"/>
<feColorMatrix in="SourceAlpha" type="matrix" values="0 0 0 0 0 0 0 0 0 0 0 0 0 0 0 0 0 0 127 0" result="hardAlpha"/>
<feOffset dy="-6"/>
<feComposite in2="hardAlpha" operator="arithmetic" k2="-1" k3="1"/>
<feColorMatrix type="matrix" values="0 0 0 0 0.301961 0 0 0 0 0.352941 0 0 0 0 0.403922 0 0 0 1 0"/>
<feBlend mode="normal" in2="effect1_innerShadow_1_4" result="effect2_innerShadow_1_4"/>
</filter>
<filter id="filter1_ii_1_4" x="39.8176" y="673.469" width="30.3647" height="35.0624" filterUnits="userSpaceOnUse" color-interpolation-filters="sRGB">
<feFlood flood-opacity="0" result="BackgroundImageFix"/>
<feBlend mode="normal" in="SourceGraphic" in2="BackgroundImageFix" result="shape"/>
<feColorMatrix in="SourceAlpha" type="matrix" values="0 0 0 0 0 0 0 0 0 0 0 0 0 0 0 0 0 0 127 0" result="hardAlpha"/>
<feOffset dy="7"/>
<feComposite in2="hardAlpha" operator="arithmetic" k2="-1" k3="1"/>
<feColorMatrix type="matrix" values="0 0 0 0 1 0 0 0 0 1 0 0 0 0 1 0 0 0 1 0"/>
<feBlend mode="normal" in2="shape" result="effect1_innerShadow_1_4"/>
<feColorMatrix in="SourceAlpha" type="matrix" values="0 0 0 0 0 0 0 0 0 0 0 0 0 0 0 0 0 0 127 0" result="hardAlpha"/>
<feOffset dy="-6"/>
<feComposite in2="hardAlpha" operator="arithmetic" k2="-1" k3="1"/>
<feColorMatrix type="matrix" values="0 0 0 0 0.301961 0 0 0 0 0.352941 0 0 0 0 0.403922 0 0 0 1 0"/>
<feBlend mode="normal" in2="effect1_innerShadow_1_4" result="effect2_innerShadow_1_4"/>
</filter>
<filter id="filter2_ii_1_4" x="843.818" y="673.469" width="30.365" height="35.0624" filterUnits="userSpaceOnUse" color-interpolation-filters="sRGB">
<feFlood flood-opacity="0" result="BackgroundImageFix"/>
<feBlend mode="normal" in="SourceGraphic" in2="BackgroundImageFix" result="shape"/>
<feColorMatrix in="SourceAlpha" type="matrix" values="0 0 0 0 0 0 0 0 0 0 0 0 0 0 0 0 0 0 127 0" result="hardAlpha"/>
<feOffset dy="7"/>
<feComposite in2="hardAlpha" operator="arithmetic" k2="-1" k3="1"/>
<feColorMatrix type="matrix" values="0 0 0 0 1 0 0 0 0 1 0 0 0 0 1 0 0 0 1 0"/>
<feBlend mode="normal" in2="shape" result="effect1_innerShadow_1_4"/>
<feColorMatrix in="SourceAlpha" type="matrix" values="0 0 0 0 0 0 0 0 0 0 0 0 0 0 0 0 0 0 127 0" result="hardAlpha"/>
<feOffset dy="-6"/>
<feComposite in2="hardAlpha" operator="arithmetic" k2="-1" k3="1"/>
<feColorMatrix type="matrix" values="0 0 0 0 0.301961 0 0 0 0 0.352941 0 0 0 0 0.403922 0 0 0 1 0"/>
<feBlend mode="normal" in2="effect1_innerShadow_1_4" result="effect2_innerShadow_1_4"/>
</filter>
<filter id="filter3_ii_1_4" x="843.818" y="37.4688" width="30.365" height="35.0625" filterUnits="userSpaceOnUse" color-interpolation-filters="sRGB">
<feFlood flood-opacity="0" result="BackgroundImageFix"/>
<feBlend mode="normal" in="SourceGraphic" in2="BackgroundImageFix" result="shape"/>
<feColorMatrix in="SourceAlpha" type="matrix" values="0 0 0 0 0 0 0 0 0 0 0 0 0 0 0 0 0 0 127 0" result="hardAlpha"/>
<feOffset dy="7"/>
<feComposite in2="hardAlpha" operator="arithmetic" k2="-1" k3="1"/>
<feColorMatrix type="matrix" values="0 0 0 0 1 0 0 0 0 1 0 0 0 0 1 0 0 0 1 0"/>
<feBlend mode="normal" in2="shape" result="effect1_innerShadow_1_4"/>
<feColorMatrix in="SourceAlpha" type="matrix" values="0 0 0 0 0 0 0 0 0 0 0 0 0 0 0 0 0 0 127 0" result="hardAlpha"/>
<feOffset dy="-6"/>
<feComposite in2="hardAlpha" operator="arithmetic" k2="-1" k3="1"/>
<feColorMatrix type="matrix" values="0 0 0 0 0.301961 0 0 0 0 0.352941 0 0 0 0 0.403922 0 0 0 1 0"/>
<feBlend mode="normal" in2="effect1_innerShadow_1_4" result="effect2_innerShadow_1_4"/>
</filter>
<linearGradient id="paint0_linear_1_4" x1="457" y1="21" x2="457" y2="725" gradientUnits="userSpaceOnUse">
<stop stop-opacity="0"/>
<stop offset="1"/>
</linearGradient>
<linearGradient id="paint1_linear_1_4" x1="55" y1="41" x2="55" y2="69" gradientUnits="userSpaceOnUse">
<stop stop-color="white"/>
<stop offset="0.73" stop-color="white" stop-opacity="0"/>
</linearGradient>
<linearGradient id="paint2_linear_1_4" x1="55" y1="677" x2="55" y2="705" gradientUnits="userSpaceOnUse">
<stop stop-color="white"/>
<stop offset="0.73" stop-color="white" stop-opacity="0"/>
</linearGradient>
<linearGradient id="paint3_linear_1_4" x1="859" y1="677" x2="859" y2="705" gradientUnits="userSpaceOnUse">
<stop stop-color="white"/>
<stop offset="0.73" stop-color="white" stop-opacity="0"/>
</linearGradient>
<linearGradient id="paint4_linear_1_4" x1="859" y1="41" x2="859" y2="69" gradientUnits="userSpaceOnUse">
<stop stop-color="white"/>
<stop offset="0.73" stop-color="white" stop-opacity="0"/>
</linearGradient>
</defs>
</svg>
