<svg width="295" height="363" viewBox="0 0 295 363" fill="none" xmlns="http://www.w3.org/2000/svg">
<path d="M2 1.0271H1.0271V2V361V361.973H2H293H293.973V361V2V1.0271H293H2Z" fill="#576471" stroke="black" stroke-width="1.9458"/>
<path fill-rule="evenodd" clip-rule="evenodd" d="M2 2H292.724V361H2V2ZM10.2696 10.2696V352.73H284.454V10.2696H10.2696Z" fill="#A6B3BF"/>
<path fill-rule="evenodd" clip-rule="evenodd" d="M2 2H292.724V361H2V2ZM10.2696 10.2696V352.73H284.454V10.2696H10.2696Z" fill="url(#paint0_linear_0_1519)" fill-opacity="0.2"/>
<g filter="url(#filter0_ii_0_1519)">
<path d="M27.8103 22L30.7047 23.7971L33.7082 25.4051L33.5991 28.8103L33.7082 32.2154L30.7047 33.8235L27.8103 35.6206L24.9159 33.8235L21.9124 32.2154L22.0215 28.8103L21.9124 25.4051L24.9159 23.7971L27.8103 22Z" fill="#A6B3BF"/>
<path d="M27.8103 22L30.7047 23.7971L33.7082 25.4051L33.5991 28.8103L33.7082 32.2154L30.7047 33.8235L27.8103 35.6206L24.9159 33.8235L21.9124 32.2154L22.0215 28.8103L21.9124 25.4051L24.9159 23.7971L27.8103 22Z" fill="url(#paint1_linear_0_1519)" fill-opacity="0.71"/>
</g>
<path d="M28.1952 21.3801L27.8103 21.1411L27.4254 21.3801L24.5509 23.1648L21.568 24.7619L21.1686 24.9757L21.1831 25.4285L21.2915 28.8103L21.1831 32.1921L21.1686 32.6449L21.568 32.8587L24.5509 34.4557L27.4254 36.2405L27.8103 36.4795L28.1952 36.2405L31.0697 34.4557L34.0526 32.8587L34.452 32.6449L34.4375 32.1921L34.3291 28.8103L34.4375 25.4285L34.452 24.9757L34.0526 24.7619L31.0697 23.1648L28.1952 21.3801Z" stroke="#1C2630" stroke-width="1.45935"/>
<g filter="url(#filter1_ii_0_1519)">
<path d="M27.8103 327L30.7047 328.797L33.7082 330.405L33.5991 333.81L33.7082 337.215L30.7047 338.824L27.8103 340.621L24.9159 338.824L21.9124 337.215L22.0215 333.81L21.9124 330.405L24.9159 328.797L27.8103 327Z" fill="#A6B3BF"/>
<path d="M27.8103 327L30.7047 328.797L33.7082 330.405L33.5991 333.81L33.7082 337.215L30.7047 338.824L27.8103 340.621L24.9159 338.824L21.9124 337.215L22.0215 333.81L21.9124 330.405L24.9159 328.797L27.8103 327Z" fill="url(#paint2_linear_0_1519)" fill-opacity="0.71"/>
</g>
<path d="M28.1952 326.38L27.8103 326.141L27.4254 326.38L24.5509 328.165L21.568 329.762L21.1686 329.976L21.1831 330.429L21.2915 333.81L21.1831 337.192L21.1686 337.645L21.568 337.859L24.5509 339.456L27.4254 341.241L27.8103 341.479L28.1952 341.241L31.0697 339.456L34.0526 337.859L34.452 337.645L34.4375 337.192L34.3291 333.81L34.4375 330.429L34.452 329.976L34.0526 329.762L31.0697 328.165L28.1952 326.38Z" stroke="#1C2630" stroke-width="1.45935"/>
<g filter="url(#filter2_ii_0_1519)">
<path d="M266.81 22L269.705 23.7971L272.708 25.4051L272.599 28.8103L272.708 32.2154L269.705 33.8235L266.81 35.6206L263.916 33.8235L260.912 32.2154L261.022 28.8103L260.912 25.4051L263.916 23.7971L266.81 22Z" fill="#A6B3BF"/>
<path d="M266.81 22L269.705 23.7971L272.708 25.4051L272.599 28.8103L272.708 32.2154L269.705 33.8235L266.81 35.6206L263.916 33.8235L260.912 32.2154L261.022 28.8103L260.912 25.4051L263.916 23.7971L266.81 22Z" fill="url(#paint3_linear_0_1519)" fill-opacity="0.71"/>
</g>
<path d="M267.195 21.3801L266.81 21.1411L266.425 21.3801L263.551 23.1648L260.568 24.7619L260.169 24.9757L260.183 25.4285L260.291 28.8103L260.183 32.1921L260.169 32.6449L260.568 32.8587L263.551 34.4557L266.425 36.2405L266.81 36.4795L267.195 36.2405L270.07 34.4557L273.053 32.8587L273.452 32.6449L273.437 32.1921L273.329 28.8103L273.437 25.4285L273.452 24.9757L273.053 24.7619L270.07 23.1648L267.195 21.3801Z" stroke="#1C2630" stroke-width="1.45935"/>
<g filter="url(#filter3_ii_0_1519)">
<path d="M266.81 327L269.705 328.797L272.708 330.405L272.599 333.81L272.708 337.215L269.705 338.824L266.81 340.621L263.916 338.824L260.912 337.215L261.022 333.81L260.912 330.405L263.916 328.797L266.81 327Z" fill="#A6B3BF"/>
<path d="M266.81 327L269.705 328.797L272.708 330.405L272.599 333.81L272.708 337.215L269.705 338.824L266.81 340.621L263.916 338.824L260.912 337.215L261.022 333.81L260.912 330.405L263.916 328.797L266.81 327Z" fill="url(#paint4_linear_0_1519)" fill-opacity="0.71"/>
</g>
<path d="M267.195 326.38L266.81 326.141L266.425 326.38L263.551 328.165L260.568 329.762L260.169 329.976L260.183 330.429L260.291 333.81L260.183 337.192L260.169 337.645L260.568 337.859L263.551 339.456L266.425 341.241L266.81 341.479L267.195 341.241L270.07 339.456L273.053 337.859L273.452 337.645L273.437 337.192L273.329 333.81L273.437 330.429L273.452 329.976L273.053 329.762L270.07 328.165L267.195 326.38Z" stroke="#1C2630" stroke-width="1.45935"/>
<defs>
<filter id="filter0_ii_0_1519" x="20.4248" y="20.2822" width="14.771" height="17.0562" filterUnits="userSpaceOnUse" color-interpolation-filters="sRGB">
<feFlood flood-opacity="0" result="BackgroundImageFix"/>
<feBlend mode="normal" in="SourceGraphic" in2="BackgroundImageFix" result="shape"/>
<feColorMatrix in="SourceAlpha" type="matrix" values="0 0 0 0 0 0 0 0 0 0 0 0 0 0 0 0 0 0 127 0" result="hardAlpha"/>
<feOffset dy="3.40515"/>
<feComposite in2="hardAlpha" operator="arithmetic" k2="-1" k3="1"/>
<feColorMatrix type="matrix" values="0 0 0 0 1 0 0 0 0 1 0 0 0 0 1 0 0 0 1 0"/>
<feBlend mode="normal" in2="shape" result="effect1_innerShadow_0_1519"/>
<feColorMatrix in="SourceAlpha" type="matrix" values="0 0 0 0 0 0 0 0 0 0 0 0 0 0 0 0 0 0 127 0" result="hardAlpha"/>
<feOffset dy="-2.9187"/>
<feComposite in2="hardAlpha" operator="arithmetic" k2="-1" k3="1"/>
<feColorMatrix type="matrix" values="0 0 0 0 0.301961 0 0 0 0 0.352941 0 0 0 0 0.403922 0 0 0 1 0"/>
<feBlend mode="normal" in2="effect1_innerShadow_0_1519" result="effect2_innerShadow_0_1519"/>
</filter>
<filter id="filter1_ii_0_1519" x="20.4248" y="325.282" width="14.771" height="17.0561" filterUnits="userSpaceOnUse" color-interpolation-filters="sRGB">
<feFlood flood-opacity="0" result="BackgroundImageFix"/>
<feBlend mode="normal" in="SourceGraphic" in2="BackgroundImageFix" result="shape"/>
<feColorMatrix in="SourceAlpha" type="matrix" values="0 0 0 0 0 0 0 0 0 0 0 0 0 0 0 0 0 0 127 0" result="hardAlpha"/>
<feOffset dy="3.40515"/>
<feComposite in2="hardAlpha" operator="arithmetic" k2="-1" k3="1"/>
<feColorMatrix type="matrix" values="0 0 0 0 1 0 0 0 0 1 0 0 0 0 1 0 0 0 1 0"/>
<feBlend mode="normal" in2="shape" result="effect1_innerShadow_0_1519"/>
<feColorMatrix in="SourceAlpha" type="matrix" values="0 0 0 0 0 0 0 0 0 0 0 0 0 0 0 0 0 0 127 0" result="hardAlpha"/>
<feOffset dy="-2.9187"/>
<feComposite in2="hardAlpha" operator="arithmetic" k2="-1" k3="1"/>
<feColorMatrix type="matrix" values="0 0 0 0 0.301961 0 0 0 0 0.352941 0 0 0 0 0.403922 0 0 0 1 0"/>
<feBlend mode="normal" in2="effect1_innerShadow_0_1519" result="effect2_innerShadow_0_1519"/>
</filter>
<filter id="filter2_ii_0_1519" x="259.425" y="20.2822" width="14.771" height="17.0562" filterUnits="userSpaceOnUse" color-interpolation-filters="sRGB">
<feFlood flood-opacity="0" result="BackgroundImageFix"/>
<feBlend mode="normal" in="SourceGraphic" in2="BackgroundImageFix" result="shape"/>
<feColorMatrix in="SourceAlpha" type="matrix" values="0 0 0 0 0 0 0 0 0 0 0 0 0 0 0 0 0 0 127 0" result="hardAlpha"/>
<feOffset dy="3.40515"/>
<feComposite in2="hardAlpha" operator="arithmetic" k2="-1" k3="1"/>
<feColorMatrix type="matrix" values="0 0 0 0 1 0 0 0 0 1 0 0 0 0 1 0 0 0 1 0"/>
<feBlend mode="normal" in2="shape" result="effect1_innerShadow_0_1519"/>
<feColorMatrix in="SourceAlpha" type="matrix" values="0 0 0 0 0 0 0 0 0 0 0 0 0 0 0 0 0 0 127 0" result="hardAlpha"/>
<feOffset dy="-2.9187"/>
<feComposite in2="hardAlpha" operator="arithmetic" k2="-1" k3="1"/>
<feColorMatrix type="matrix" values="0 0 0 0 0.301961 0 0 0 0 0.352941 0 0 0 0 0.403922 0 0 0 1 0"/>
<feBlend mode="normal" in2="effect1_innerShadow_0_1519" result="effect2_innerShadow_0_1519"/>
</filter>
<filter id="filter3_ii_0_1519" x="259.425" y="325.282" width="14.771" height="17.0561" filterUnits="userSpaceOnUse" color-interpolation-filters="sRGB">
<feFlood flood-opacity="0" result="BackgroundImageFix"/>
<feBlend mode="normal" in="SourceGraphic" in2="BackgroundImageFix" result="shape"/>
<feColorMatrix in="SourceAlpha" type="matrix" values="0 0 0 0 0 0 0 0 0 0 0 0 0 0 0 0 0 0 127 0" result="hardAlpha"/>
<feOffset dy="3.40515"/>
<feComposite in2="hardAlpha" operator="arithmetic" k2="-1" k3="1"/>
<feColorMatrix type="matrix" values="0 0 0 0 1 0 0 0 0 1 0 0 0 0 1 0 0 0 1 0"/>
<feBlend mode="normal" in2="shape" result="effect1_innerShadow_0_1519"/>
<feColorMatrix in="SourceAlpha" type="matrix" values="0 0 0 0 0 0 0 0 0 0 0 0 0 0 0 0 0 0 127 0" result="hardAlpha"/>
<feOffset dy="-2.9187"/>
<feComposite in2="hardAlpha" operator="arithmetic" k2="-1" k3="1"/>
<feColorMatrix type="matrix" values="0 0 0 0 0.301961 0 0 0 0 0.352941 0 0 0 0 0.403922 0 0 0 1 0"/>
<feBlend mode="normal" in2="effect1_innerShadow_0_1519" result="effect2_innerShadow_0_1519"/>
</filter>
<linearGradient id="paint0_linear_0_1519" x1="222.362" y1="10.2696" x2="222.362" y2="352.73" gradientUnits="userSpaceOnUse">
<stop stop-opacity="0"/>
<stop offset="1"/>
</linearGradient>
<linearGradient id="paint1_linear_0_1519" x1="27.8103" y1="22" x2="27.8103" y2="35.6206" gradientUnits="userSpaceOnUse">
<stop stop-color="white"/>
<stop offset="0.73" stop-color="white" stop-opacity="0"/>
</linearGradient>
<linearGradient id="paint2_linear_0_1519" x1="27.8103" y1="327" x2="27.8103" y2="340.621" gradientUnits="userSpaceOnUse">
<stop stop-color="white"/>
<stop offset="0.73" stop-color="white" stop-opacity="0"/>
</linearGradient>
<linearGradient id="paint3_linear_0_1519" x1="266.81" y1="22" x2="266.81" y2="35.6206" gradientUnits="userSpaceOnUse">
<stop stop-color="white"/>
<stop offset="0.73" stop-color="white" stop-opacity="0"/>
</linearGradient>
<linearGradient id="paint4_linear_0_1519" x1="266.81" y1="327" x2="266.81" y2="340.621" gradientUnits="userSpaceOnUse">
<stop stop-color="white"/>
<stop offset="0.73" stop-color="white" stop-opacity="0"/>
</linearGradient>
</defs>
</svg>
