<svg width="66" height="65" viewBox="0 0 66 65" fill="none" xmlns="http://www.w3.org/2000/svg">
<mask id="mask0_0_60" style="mask-type:alpha" maskUnits="userSpaceOnUse" x="0" y="0" width="66" height="65">
<path d="M0.232422 0H65.1686V64.9361H0.232422V0Z" fill="#D9D9D9"/>
</mask>
<g mask="url(#mask0_0_60)">
<path fill-rule="evenodd" clip-rule="evenodd" d="M21.792 34.2951C23.0366 35.5398 23.0366 37.5578 21.792 38.8024L18.7163 41.8781C17.1835 43.4109 17.2321 45.9107 18.8234 47.3827C20.1156 48.5779 20.1942 50.5944 18.9989 51.8865C17.8037 53.1787 15.7872 53.2573 14.495 52.062C10.2479 48.1334 10.118 41.4618 14.209 37.3709L17.2847 34.2951C18.5293 33.0505 20.5473 33.0505 21.792 34.2951ZM26.2993 22.4278L42.6027 38.7313L52.2915 29.0425C56.7935 24.5404 56.7935 17.2411 52.2915 12.739C47.7894 8.23698 40.4901 8.23698 35.9881 12.739L26.2993 22.4278ZM21.792 26.9351L38.0954 43.2385L28.4066 52.9273C23.9045 57.4294 16.6052 57.4294 12.1032 52.9273C7.60111 48.4253 7.60111 41.126 12.1032 36.6239L21.792 26.9351ZM7.59588 32.1166C0.604512 39.108 0.604508 50.4433 7.59588 57.4346C14.5873 64.426 25.9225 64.426 32.9139 57.4346L56.7988 33.5497C63.7901 26.5584 63.7901 15.2231 56.7988 8.23175C49.8074 1.24038 38.4721 1.24039 31.4808 8.23176L7.59588 32.1166Z" fill="white"/>
<path d="M32.9142 57.4347L44.8567 45.4923L19.5387 20.1743L7.59625 32.1168C0.60488 39.1081 0.604876 50.4434 7.59625 57.4348C14.5876 64.4261 25.9229 64.4261 32.9142 57.4347Z" fill="white"/>
<path fill-rule="evenodd" clip-rule="evenodd" d="M21.7923 34.2953C23.037 35.5399 23.037 37.5579 21.7923 38.8026L18.7166 41.8783C17.1838 43.4111 17.2325 45.9108 18.8238 47.3828C20.116 48.578 20.1945 50.5945 18.9993 51.8867C17.804 53.1788 15.7876 53.2574 14.4954 52.0621C10.2483 48.1336 10.1184 41.4619 14.2093 37.371L17.285 34.2953C18.5297 33.0506 20.5477 33.0506 21.7923 34.2953ZM28.407 52.9275L35.8421 45.4923L19.5387 29.1889L12.1035 36.6241C7.60147 41.1261 7.60147 48.4254 12.1035 52.9275C16.6056 57.4295 23.9049 57.4295 28.407 52.9275ZM7.59625 32.1168C0.60488 39.1081 0.604876 50.4434 7.59625 57.4348C14.5876 64.4261 25.9229 64.4261 32.9142 57.4347L44.8567 45.4923L19.5387 20.1743L7.59625 32.1168Z" fill="white"/>
</g>
</svg>
