<svg width="63" height="52" viewBox="0 0 63 52" fill="none" xmlns="http://www.w3.org/2000/svg">
<path fill-rule="evenodd" clip-rule="evenodd" d="M56.4021 0.350101C57.1757 0.0401052 58.0225 -0.0668101 58.8542 0.0404816C59.6859 0.147773 60.4723 0.465351 61.1313 0.960158C61.7904 1.45497 62.2982 2.10891 62.6017 2.85394C62.9052 3.59896 62.9935 4.40783 62.8572 5.19634L55.7572 46.1986C55.0685 50.1537 50.5105 52.4218 46.7007 50.4517C43.5138 48.8035 38.7805 46.2642 34.523 43.6146C32.3942 42.2882 25.8733 38.0411 26.6748 35.0189C27.3635 32.4348 38.3203 22.7245 44.5813 16.9513C47.0387 14.6832 45.918 13.3747 43.016 15.4611C35.8096 20.6411 24.2392 28.5185 20.4137 30.736C17.039 32.6911 15.2797 33.025 13.176 32.6911C9.33797 32.0831 5.77858 31.1413 2.87346 29.9938C-1.0522 28.444 -0.861242 23.3057 2.87033 21.8095L56.4021 0.350101Z" fill="white"/>
</svg>
