<svg width="307" height="123" viewBox="0 0 307 123" fill="none" xmlns="http://www.w3.org/2000/svg">
<mask id="path-1-outside-1_1_165" maskUnits="userSpaceOnUse" x="28" y="11" width="246" height="87" fill="black">
<rect fill="white" x="28" y="11" width="246" height="87"/>
<path d="M73.6665 94.5294C72.4116 94.6688 69.9541 94.7909 66.294 94.8954C62.6687 94.9651 58.7646 95 54.5816 95C50.4335 94.9651 46.5119 94.8431 42.8169 94.634C39.122 94.39 36.6296 93.9891 35.3399 93.4314C34.1198 92.9434 33.1786 89.3878 32.5163 82.7648C31.854 76.1417 31.4183 68.7169 31.2091 60.4903C31 52.2289 30.9826 44.2813 31.1569 36.6473C31.3312 28.9785 31.6623 23.8543 32.1503 21.2748C32.464 19.6365 34.207 18.1899 37.3791 16.935C40.586 15.6801 44.4553 14.826 48.9869 14.3729C53.5184 13.8849 58.3289 13.8849 63.4182 14.3729C68.5423 14.8609 73.1959 16.0112 77.3789 17.8238C83.4791 20.5428 87.5575 25.0046 89.6141 31.2094C91.6708 37.4142 90.9562 43.2355 87.4704 48.6734L87.6272 48.778C92.2285 51.5666 95.2612 55.1919 96.7252 59.6537C98.2241 64.1156 98.381 68.8215 97.1958 73.7713C95.9061 79.2092 93.1523 83.8976 88.9344 87.8366C84.7166 91.7408 79.6273 93.9717 73.6665 94.5294ZM57.1437 33.7715C56.7254 35.2355 56.6557 37.205 56.9345 39.68C57.2483 42.12 57.9106 43.4969 58.9215 43.8107C60.8387 44.4381 62.8082 44.0721 64.8299 42.7126C66.8866 41.3532 67.9149 39.6451 67.9149 37.5885C67.9149 36.229 67.3223 34.9915 66.1371 33.8761C64.9868 32.7606 63.209 32.1854 60.8038 32.1506C58.6426 32.1506 57.4226 32.6909 57.1437 33.7715ZM58.2417 73.4576C59.0783 75.3399 61.6055 75.706 65.8234 74.5556C70.0412 73.3705 71.8364 71.0001 71.209 67.4446C70.7558 64.865 69.1524 62.8781 66.3985 61.4838C63.6447 60.0546 61.1175 59.8629 58.8169 60.9086C57.6317 61.4664 57.0217 63.2616 56.9868 66.2942C56.9868 69.292 57.4051 71.6798 58.2417 73.4576ZM153.823 19.2879C153.858 18.3467 155.27 17.6147 158.058 17.0918C160.847 16.5341 163.932 16.2552 167.313 16.2552C170.729 16.2204 173.919 16.4818 176.882 17.0395C179.88 17.5973 181.64 18.5036 182.163 19.7585C182.895 21.606 183.4 24.8129 183.679 29.3794C183.993 33.9458 184.045 38.9131 183.836 44.2813C183.662 49.6494 183.191 54.913 182.424 60.072C181.692 65.2311 180.646 69.3095 179.287 72.3073C176.359 78.7212 172.071 83.9499 166.424 87.9935C160.812 92.037 154.381 94.3377 147.13 94.8954C137.997 95.5229 129.492 93.2919 121.614 88.2026C113.736 83.0785 108.281 76.2811 105.248 67.8106C104.237 65.0568 103.505 61.1004 103.052 55.9413C102.634 50.7823 102.442 45.5536 102.477 40.2551C102.512 34.9567 102.825 30.1462 103.418 25.8238C104.011 21.4665 104.882 18.7127 106.032 17.5624C107.008 16.6212 109.048 15.9938 112.15 15.6801C115.252 15.3663 118.459 15.2966 121.771 15.4709C125.117 15.6452 128.08 16.0461 130.66 16.6735C133.274 17.2661 134.581 18.033 134.581 18.9742C134.512 21.6931 134.285 25.5101 133.902 30.4251C133.518 35.3053 133.414 40.1854 133.588 45.0656C133.797 49.9109 134.529 54.1984 135.784 57.9283C137.074 61.6232 139.357 63.645 142.634 63.9936C146.189 64.4119 148.734 62.791 150.267 59.1309C151.836 55.4359 152.847 51.0612 153.3 46.0067C153.788 40.9174 153.945 35.8107 153.771 30.6865C153.631 25.5624 153.649 21.7628 153.823 19.2879ZM270.999 35.6538C270.755 37.2573 268.42 40.778 263.993 46.2159C259.6 51.6189 254.319 57.3008 248.149 63.2616C247.801 70.5818 247.156 77.1526 246.215 82.9739C245.308 88.7952 244.472 92.2113 243.705 93.2222C243.287 93.7102 241.858 94.0937 239.417 94.3726C237.012 94.6514 234.363 94.8257 231.47 94.8954C228.611 94.9651 225.91 94.9651 223.365 94.8954C220.855 94.8257 219.339 94.634 218.816 94.3203C217.666 93.6928 216.463 90.4859 215.208 84.6994C213.988 78.8781 213.047 72.3247 212.385 65.0393C205.936 58.974 200.359 53.1527 195.653 47.5754C190.982 41.998 188.542 38.3728 188.333 36.6996C188.089 35.7236 188.681 34.0852 190.11 31.7846C191.54 29.4839 193.265 27.1659 195.287 24.8303C197.309 22.46 199.33 20.3685 201.352 18.5559C203.409 16.7432 204.89 15.8021 205.797 15.7323C207.818 15.6278 211.025 17.3707 215.418 20.9611C219.845 24.5166 224.568 28.6996 229.587 33.5101C234.642 28.6996 239.365 24.4818 243.757 20.8565C248.184 17.2313 251.444 15.4883 253.535 15.6278C254.406 15.6975 255.853 16.6038 257.875 18.3467C259.932 20.0548 261.971 22.0243 263.993 24.2552C266.049 26.4861 267.792 28.6996 269.221 30.8957C270.685 33.0918 271.278 34.6778 270.999 35.6538Z"/>
</mask>
<path d="M73.6665 94.5294C72.4116 94.6688 69.9541 94.7909 66.294 94.8954C62.6687 94.9651 58.7646 95 54.5816 95C50.4335 94.9651 46.5119 94.8431 42.8169 94.634C39.122 94.39 36.6296 93.9891 35.3399 93.4314C34.1198 92.9434 33.1786 89.3878 32.5163 82.7648C31.854 76.1417 31.4183 68.7169 31.2091 60.4903C31 52.2289 30.9826 44.2813 31.1569 36.6473C31.3312 28.9785 31.6623 23.8543 32.1503 21.2748C32.464 19.6365 34.207 18.1899 37.3791 16.935C40.586 15.6801 44.4553 14.826 48.9869 14.3729C53.5184 13.8849 58.3289 13.8849 63.4182 14.3729C68.5423 14.8609 73.1959 16.0112 77.3789 17.8238C83.4791 20.5428 87.5575 25.0046 89.6141 31.2094C91.6708 37.4142 90.9562 43.2355 87.4704 48.6734L87.6272 48.778C92.2285 51.5666 95.2612 55.1919 96.7252 59.6537C98.2241 64.1156 98.381 68.8215 97.1958 73.7713C95.9061 79.2092 93.1523 83.8976 88.9344 87.8366C84.7166 91.7408 79.6273 93.9717 73.6665 94.5294ZM57.1437 33.7715C56.7254 35.2355 56.6557 37.205 56.9345 39.68C57.2483 42.12 57.9106 43.4969 58.9215 43.8107C60.8387 44.4381 62.8082 44.0721 64.8299 42.7126C66.8866 41.3532 67.9149 39.6451 67.9149 37.5885C67.9149 36.229 67.3223 34.9915 66.1371 33.8761C64.9868 32.7606 63.209 32.1854 60.8038 32.1506C58.6426 32.1506 57.4226 32.6909 57.1437 33.7715ZM58.2417 73.4576C59.0783 75.3399 61.6055 75.706 65.8234 74.5556C70.0412 73.3705 71.8364 71.0001 71.209 67.4446C70.7558 64.865 69.1524 62.8781 66.3985 61.4838C63.6447 60.0546 61.1175 59.8629 58.8169 60.9086C57.6317 61.4664 57.0217 63.2616 56.9868 66.2942C56.9868 69.292 57.4051 71.6798 58.2417 73.4576ZM153.823 19.2879C153.858 18.3467 155.27 17.6147 158.058 17.0918C160.847 16.5341 163.932 16.2552 167.313 16.2552C170.729 16.2204 173.919 16.4818 176.882 17.0395C179.88 17.5973 181.64 18.5036 182.163 19.7585C182.895 21.606 183.4 24.8129 183.679 29.3794C183.993 33.9458 184.045 38.9131 183.836 44.2813C183.662 49.6494 183.191 54.913 182.424 60.072C181.692 65.2311 180.646 69.3095 179.287 72.3073C176.359 78.7212 172.071 83.9499 166.424 87.9935C160.812 92.037 154.381 94.3377 147.13 94.8954C137.997 95.5229 129.492 93.2919 121.614 88.2026C113.736 83.0785 108.281 76.2811 105.248 67.8106C104.237 65.0568 103.505 61.1004 103.052 55.9413C102.634 50.7823 102.442 45.5536 102.477 40.2551C102.512 34.9567 102.825 30.1462 103.418 25.8238C104.011 21.4665 104.882 18.7127 106.032 17.5624C107.008 16.6212 109.048 15.9938 112.15 15.6801C115.252 15.3663 118.459 15.2966 121.771 15.4709C125.117 15.6452 128.08 16.0461 130.66 16.6735C133.274 17.2661 134.581 18.033 134.581 18.9742C134.512 21.6931 134.285 25.5101 133.902 30.4251C133.518 35.3053 133.414 40.1854 133.588 45.0656C133.797 49.9109 134.529 54.1984 135.784 57.9283C137.074 61.6232 139.357 63.645 142.634 63.9936C146.189 64.4119 148.734 62.791 150.267 59.1309C151.836 55.4359 152.847 51.0612 153.3 46.0067C153.788 40.9174 153.945 35.8107 153.771 30.6865C153.631 25.5624 153.649 21.7628 153.823 19.2879ZM270.999 35.6538C270.755 37.2573 268.42 40.778 263.993 46.2159C259.6 51.6189 254.319 57.3008 248.149 63.2616C247.801 70.5818 247.156 77.1526 246.215 82.9739C245.308 88.7952 244.472 92.2113 243.705 93.2222C243.287 93.7102 241.858 94.0937 239.417 94.3726C237.012 94.6514 234.363 94.8257 231.47 94.8954C228.611 94.9651 225.91 94.9651 223.365 94.8954C220.855 94.8257 219.339 94.634 218.816 94.3203C217.666 93.6928 216.463 90.4859 215.208 84.6994C213.988 78.8781 213.047 72.3247 212.385 65.0393C205.936 58.974 200.359 53.1527 195.653 47.5754C190.982 41.998 188.542 38.3728 188.333 36.6996C188.089 35.7236 188.681 34.0852 190.11 31.7846C191.54 29.4839 193.265 27.1659 195.287 24.8303C197.309 22.46 199.33 20.3685 201.352 18.5559C203.409 16.7432 204.89 15.8021 205.797 15.7323C207.818 15.6278 211.025 17.3707 215.418 20.9611C219.845 24.5166 224.568 28.6996 229.587 33.5101C234.642 28.6996 239.365 24.4818 243.757 20.8565C248.184 17.2313 251.444 15.4883 253.535 15.6278C254.406 15.6975 255.853 16.6038 257.875 18.3467C259.932 20.0548 261.971 22.0243 263.993 24.2552C266.049 26.4861 267.792 28.6996 269.221 30.8957C270.685 33.0918 271.278 34.6778 270.999 35.6538Z" fill="url(#paint0_linear_1_165)"/>
<path d="M73.6665 94.5294L73.3991 91.6719L73.3743 91.6742L73.3496 91.677L73.6665 94.5294ZM66.294 94.8954L66.3492 97.7649L66.3625 97.7646L66.3759 97.7643L66.294 94.8954ZM54.5816 95L54.5575 97.8699L54.5695 97.87H54.5816V95ZM42.8169 94.634L42.6278 97.4977L42.6413 97.4986L42.6548 97.4994L42.8169 94.634ZM35.3399 93.4314L36.479 90.7971L36.4426 90.7814L36.4057 90.7666L35.3399 93.4314ZM31.2091 60.4903L28.3401 60.563L28.3401 60.5633L31.2091 60.4903ZM31.1569 36.6473L34.0261 36.7128L34.0261 36.7125L31.1569 36.6473ZM32.1503 21.2748L29.3315 20.735L29.3303 20.7413L32.1503 21.2748ZM37.3791 16.935L36.3332 14.2623L36.3233 14.2662L37.3791 16.935ZM48.9869 14.3729L49.2724 17.2286L49.2833 17.2275L49.2942 17.2264L48.9869 14.3729ZM63.4182 14.3729L63.1442 17.2298L63.1461 17.2299L63.4182 14.3729ZM77.3789 17.8238L78.5473 15.2024L78.5337 15.1964L78.52 15.1905L77.3789 17.8238ZM89.6141 31.2094L86.8899 32.1124L89.6141 31.2094ZM87.4704 48.6734L85.0542 47.1245L83.5329 49.4977L85.8784 51.0614L87.4704 48.6734ZM87.6272 48.778L86.0352 51.166L86.0867 51.2003L86.1397 51.2324L87.6272 48.778ZM96.7252 59.6537L93.9983 60.5485L94.0014 60.5581L94.0046 60.5677L96.7252 59.6537ZM97.1958 73.7713L94.4047 73.103L94.4033 73.109L97.1958 73.7713ZM88.9344 87.8366L90.884 89.9429L90.8933 89.9342L88.9344 87.8366ZM57.1437 33.7715L59.9033 34.5599L59.9134 34.5244L59.9226 34.4886L57.1437 33.7715ZM56.9345 39.68L54.0826 40.0013L54.0851 40.0237L54.088 40.046L56.9345 39.68ZM58.9215 43.8107L59.8141 41.083L59.7932 41.0762L59.7721 41.0696L58.9215 43.8107ZM64.8299 42.7126L63.2473 40.3184L63.2379 40.3247L63.2285 40.331L64.8299 42.7126ZM66.1371 33.8761L64.1392 35.9364L64.1545 35.9513L64.1701 35.966L66.1371 33.8761ZM60.8038 32.1506L60.8454 29.2809L60.8246 29.2806H60.8038V32.1506ZM58.2417 73.4576L60.8644 72.292L60.8518 72.2636L60.8385 72.2356L58.2417 73.4576ZM65.8234 74.5556L66.5785 77.3245L66.5892 77.3216L66.5998 77.3186L65.8234 74.5556ZM71.209 67.4446L68.3823 67.9411L68.3827 67.9433L71.209 67.4446ZM66.3985 61.4838L65.0765 64.0312L65.0893 64.0378L65.1021 64.0443L66.3985 61.4838ZM58.8169 60.9086L57.6293 58.2959L57.612 58.3037L57.5948 58.3118L58.8169 60.9086ZM56.9868 66.2942L54.117 66.2612L54.1168 66.2777V66.2942H56.9868ZM73.3496 91.677C72.2303 91.8013 69.8888 91.9215 66.212 92.0266L66.3759 97.7643C70.0193 97.6602 72.5929 97.5364 73.9834 97.3819L73.3496 91.677ZM66.2388 92.026C62.6345 92.0953 58.7489 92.13 54.5816 92.13V97.87C58.7803 97.87 62.703 97.835 66.3492 97.7649L66.2388 92.026ZM54.6057 92.1301C50.4982 92.0956 46.623 91.9748 42.9791 91.7686L42.6548 97.4994C46.4008 97.7114 50.3687 97.8347 54.5575 97.8699L54.6057 92.1301ZM43.0061 91.7702C39.2708 91.5236 37.2533 91.132 36.479 90.7971L34.2007 96.0656C36.0059 96.8462 38.9731 97.2564 42.6278 97.4977L43.0061 91.7702ZM36.4057 90.7666C37.0504 91.0245 37.1744 91.4482 37.0083 91.1374C36.8863 90.9092 36.7016 90.4507 36.4934 89.6643C36.0811 88.1067 35.6981 85.7395 35.3721 82.4792L29.6606 83.0503C29.9968 86.413 30.4156 89.1352 30.9445 91.1331C31.2069 92.1245 31.5276 93.0604 31.946 93.8431C32.3201 94.5431 33.0193 95.5942 34.274 96.0961L36.4057 90.7666ZM35.3721 82.4792C34.7183 75.941 34.286 68.5887 34.0782 60.4174L28.3401 60.5633C28.5506 68.845 28.9898 76.3424 29.6606 83.0503L35.3721 82.4792ZM34.0782 60.4177C33.8702 52.1986 33.853 44.2971 34.0261 36.7128L28.2876 36.5818C28.1122 44.2654 28.1298 52.2592 28.3401 60.563L34.0782 60.4177ZM34.0261 36.7125C34.2012 29.0083 34.5332 24.1185 34.9703 21.8083L29.3303 20.7413C28.7914 23.5901 28.4611 28.9487 28.2876 36.5821L34.0261 36.7125ZM34.9691 21.8146C34.9692 21.8141 34.9708 21.805 34.9792 21.7851C34.9879 21.7645 35.0059 21.7274 35.0416 21.674C35.1148 21.5642 35.2584 21.3914 35.5258 21.1695C36.0779 20.7113 37.0029 20.1702 38.4348 19.6037L36.3233 14.2662C34.5831 14.9546 33.0506 15.7643 31.8598 16.7527C30.6592 17.7492 29.652 19.0616 29.3315 20.735L34.9691 21.8146ZM38.4249 19.6076C41.3241 18.4732 44.923 17.6636 49.2724 17.2286L48.7013 11.5171C43.9876 11.9885 39.848 12.887 36.3332 14.2623L38.4249 19.6076ZM49.2942 17.2264C53.6109 16.7615 58.2253 16.7581 63.1442 17.2298L63.6921 11.516C58.4325 11.0116 53.426 11.0082 48.6796 11.5194L49.2942 17.2264ZM63.1461 17.2299C68.0088 17.6931 72.364 18.7786 76.2378 20.4572L78.52 15.1905C74.0278 13.2438 69.0759 12.0287 63.6903 11.5158L63.1461 17.2299ZM76.2105 20.4452C81.5917 22.8437 85.0934 26.6924 86.8899 32.1124L92.3384 30.3064C90.0216 23.3168 85.3664 18.2418 78.5473 15.2024L76.2105 20.4452ZM86.8899 32.1124C88.6779 37.5067 88.0662 42.4257 85.0542 47.1245L89.8866 50.2222C93.8461 44.0453 94.6636 37.3216 92.3384 30.3064L86.8899 32.1124ZM85.8784 51.0614L86.0352 51.166L89.2192 46.39L89.0623 46.2854L85.8784 51.0614ZM86.1397 51.2324C90.2455 53.7208 92.7788 56.832 93.9983 60.5485L99.4522 58.759C97.7436 53.5518 94.2115 49.4125 89.1147 46.3235L86.1397 51.2324ZM94.0046 60.5677C95.3181 64.4777 95.4751 68.6325 94.4047 73.103L99.9869 74.4396C101.287 69.0104 101.13 63.7535 99.4458 58.7398L94.0046 60.5677ZM94.4033 73.109C93.2484 77.9781 90.7945 82.1726 86.9755 85.7391L90.8933 89.9342C95.51 85.6227 98.5637 80.4403 99.9883 74.4337L94.4033 73.109ZM86.9849 85.7304C83.2502 89.1873 78.7599 91.1703 73.3991 91.6719L73.9339 97.3869C80.4946 96.7731 86.1829 94.2942 90.884 89.9428L86.9849 85.7304ZM54.3841 32.983C53.8179 34.9646 53.7851 37.3609 54.0826 40.0013L59.7865 39.3586C59.5263 37.0491 59.6328 35.5065 59.9033 34.5599L54.3841 32.983ZM54.088 40.046C54.2632 41.4086 54.5599 42.705 55.0802 43.7868C55.6014 44.8703 56.5183 46.0699 58.0708 46.5517L59.7721 41.0696C60.3137 41.2377 60.394 41.592 60.2529 41.2986C60.111 41.0035 59.9196 40.3914 59.7811 39.314L54.088 40.046ZM58.0288 46.5383C60.9632 47.4987 63.8457 46.8329 66.4314 45.0943L63.2285 40.331C61.7706 41.3113 60.7141 41.3776 59.8141 41.083L58.0288 46.5383ZM66.4125 45.1068C69.0891 43.3376 70.7849 40.8101 70.7849 37.5885H65.0449C65.0449 38.4801 64.684 39.3687 63.2473 40.3184L66.4125 45.1068ZM70.7849 37.5885C70.7849 35.2834 69.7426 33.3283 68.1041 31.7861L64.1701 35.966C64.9019 36.6548 65.0449 37.1746 65.0449 37.5885H70.7849ZM68.1351 31.8157C66.2487 29.9865 63.6231 29.3211 60.8454 29.2809L60.7622 35.0203C62.795 35.0497 63.7248 35.5347 64.1392 35.9364L68.1351 31.8157ZM60.8038 29.2806C59.5415 29.2806 58.2393 29.4296 57.1057 29.9316C55.8685 30.4795 54.7671 31.4953 54.3647 33.0543L59.9226 34.4886C59.8751 34.6729 59.7751 34.8609 59.6365 35.0109C59.5088 35.1489 59.4097 35.189 59.43 35.18C59.4553 35.1688 59.5689 35.1248 59.8122 35.0859C60.0522 35.0476 60.3778 35.0206 60.8038 35.0206V29.2806ZM55.6191 74.6232C56.5369 76.6884 58.3825 77.6988 60.3532 77.9842C62.1897 78.2502 64.3223 77.9398 66.5785 77.3245L65.0682 71.7868C63.1066 72.3218 61.8667 72.4035 61.1759 72.3035C60.8598 72.2577 60.7651 72.1884 60.781 72.199C60.7901 72.205 60.8117 72.2219 60.8348 72.2494C60.8576 72.2766 60.8658 72.2953 60.8644 72.292L55.6191 74.6232ZM66.5998 77.3186C69.0379 76.6335 71.2039 75.4929 72.6211 73.6217C74.1019 71.6664 74.4557 69.3281 74.0353 66.9458L68.3827 67.9433C68.5897 69.1166 68.3596 69.7412 68.0453 70.1562C67.6672 70.6554 66.8267 71.2926 65.047 71.7926L66.5998 77.3186ZM74.0357 66.948C73.397 63.3121 71.0926 60.6436 67.695 58.9233L65.1021 64.0443C67.2121 65.1126 68.1147 66.418 68.3823 67.9411L74.0357 66.948ZM67.7206 58.9364C64.3817 57.2036 60.9147 56.8025 57.6293 58.2959L60.0045 63.5214C61.3204 62.9232 62.9078 62.9056 65.0765 64.0312L67.7206 58.9364ZM57.5948 58.3118C56.0326 59.047 55.1957 60.4473 54.7531 61.7499C54.3101 63.0537 54.1361 64.6007 54.117 66.2612L59.8566 66.3272C59.8724 64.9551 60.0209 64.0882 60.1879 63.5967C60.3553 63.1041 60.416 63.328 60.0389 63.5055L57.5948 58.3118ZM54.1168 66.2942C54.1168 69.5133 54.5589 72.3718 55.6449 74.6796L60.8385 72.2356C60.2514 70.9878 59.8568 69.0708 59.8568 66.2942H54.1168ZM153.823 19.2879L156.686 19.4895L156.689 19.4418L156.691 19.3941L153.823 19.2879ZM158.058 17.0918L158.587 19.9127L158.604 19.9095L158.621 19.9061L158.058 17.0918ZM167.313 16.2552V19.1252H167.328L167.342 19.1251L167.313 16.2552ZM176.882 17.0395L176.351 19.86L176.357 19.8611L176.882 17.0395ZM182.163 19.7585L184.831 18.7013L184.822 18.6779L184.812 18.6546L182.163 19.7585ZM183.679 29.3794L180.814 29.5543L180.815 29.5652L180.816 29.5761L183.679 29.3794ZM183.836 44.2812L180.968 44.1695L180.968 44.1788L180.967 44.1881L183.836 44.2812ZM182.424 60.072L179.585 59.6501L179.584 59.6594L179.583 59.6688L182.424 60.072ZM179.287 72.3073L181.898 73.4992L181.901 73.4926L179.287 72.3073ZM166.424 87.9935L164.753 85.66L164.747 85.6649L166.424 87.9935ZM147.13 94.8954L147.327 97.7587L147.339 97.7579L147.35 97.757L147.13 94.8954ZM121.614 88.2026L120.049 90.6085L120.057 90.6133L121.614 88.2026ZM105.248 67.8106L107.95 66.8432L107.946 66.8323L107.942 66.8216L105.248 67.8106ZM103.052 55.9413L100.191 56.1733L100.192 56.1829L100.193 56.1925L103.052 55.9413ZM103.418 25.8238L106.261 26.2136L106.262 26.2106L103.418 25.8238ZM106.032 17.5624L104.04 15.4965L104.021 15.5146L104.003 15.533L106.032 17.5624ZM121.771 15.4709L121.62 18.3369L121.622 18.337L121.771 15.4709ZM130.66 16.6735L129.981 19.4622L130.003 19.4675L130.025 19.4725L130.66 16.6735ZM134.581 18.9742L137.45 19.0477L137.451 19.011V18.9742H134.581ZM133.902 30.4251L136.763 30.6499L136.763 30.6483L133.902 30.4251ZM133.588 45.0656L130.72 45.168L130.72 45.1787L130.72 45.1893L133.588 45.0656ZM135.784 57.9283L133.064 58.8435L133.069 58.8588L133.074 58.8741L135.784 57.9283ZM142.634 63.9936L142.969 61.1432L142.953 61.1414L142.937 61.1397L142.634 63.9936ZM150.267 59.1309L147.626 58.0093L147.62 58.0216L150.267 59.1309ZM153.3 46.0067L150.443 45.7328L150.442 45.7416L150.442 45.7505L153.3 46.0067ZM153.771 30.6865L150.902 30.7646L150.902 30.7744L150.902 30.7841L153.771 30.6865ZM156.691 19.3941C156.672 19.9207 156.447 20.3034 156.278 20.4983C156.141 20.6572 156.069 20.6636 156.229 20.5808C156.563 20.4076 157.289 20.1561 158.587 19.9127L157.529 14.271C156.039 14.5504 154.665 14.9263 153.587 15.4851C152.618 15.9877 151.032 17.1078 150.955 19.1817L156.691 19.3941ZM158.621 19.9061C161.194 19.3916 164.087 19.1252 167.313 19.1252V13.3852C163.777 13.3852 160.5 13.6766 157.495 14.2776L158.621 19.9061ZM167.342 19.1251C170.595 19.0919 173.595 19.3413 176.351 19.86L177.413 14.2191C174.243 13.6223 170.864 13.3488 167.284 13.3854L167.342 19.1251ZM176.357 19.8611C177.712 20.1133 178.601 20.4133 179.137 20.6892C179.683 20.9705 179.609 21.091 179.514 20.8623L184.812 18.6546C184.194 17.1711 182.978 16.211 181.764 15.5859C180.54 14.9555 179.049 14.5235 177.407 14.2179L176.357 19.8611ZM179.495 20.8157C180.043 22.1998 180.536 24.9999 180.814 29.5543L186.544 29.2044C186.264 24.6259 185.747 21.0122 184.831 18.7013L179.495 20.8157ZM180.816 29.5761C181.121 34.024 181.174 38.887 180.968 44.1695L186.704 44.393C186.916 38.9391 186.864 33.8675 186.542 29.1826L180.816 29.5761ZM180.967 44.1881C180.797 49.4495 180.336 54.6032 179.585 59.6501L185.263 60.494C186.047 55.2229 186.527 49.8494 186.704 44.3744L180.967 44.1881ZM179.583 59.6688C178.869 64.6954 177.874 68.4737 176.673 71.122L181.901 73.4926C183.419 70.1452 184.515 65.7667 185.266 60.4752L179.583 59.6688ZM176.676 71.1154C173.953 77.0805 169.986 81.913 164.753 85.66L168.095 90.327C174.156 85.9869 178.765 80.3619 181.898 73.4992L176.676 71.1154ZM164.747 85.6649C159.584 89.3842 153.663 91.5144 146.91 92.0339L147.35 97.757C155.098 97.161 162.04 94.6899 168.102 90.322L164.747 85.6649ZM146.934 92.0322C138.435 92.616 130.543 90.5538 123.171 85.7919L120.057 90.6133C128.441 96.03 137.56 98.4297 147.327 97.7587L146.934 92.0322ZM123.179 85.7968C115.802 80.9985 110.761 74.6952 107.95 66.8432L102.546 68.778C105.8 77.8671 111.67 85.1584 120.049 90.6085L123.179 85.7968ZM107.942 66.8216C107.061 64.4201 106.356 60.758 105.911 55.6902L100.193 56.1925C100.654 61.4427 101.414 65.6934 102.554 68.7996L107.942 66.8216ZM105.913 55.7094C105.501 50.6357 105.312 45.4907 105.347 40.274L99.6069 40.2362C99.5715 45.6164 99.7662 50.9289 100.191 56.1733L105.913 55.7094ZM105.347 40.274C105.381 35.0744 105.689 30.3904 106.261 26.2136L100.575 25.434C99.962 29.9021 99.6424 34.839 99.6069 40.2362L105.347 40.274ZM106.262 26.2106C106.546 24.1197 106.885 22.5186 107.252 21.3564C107.641 20.1272 107.975 19.6783 108.062 19.5918L104.003 15.533C102.939 16.5968 102.262 18.1 101.78 19.6246C101.276 21.2162 100.882 23.1706 100.574 25.437L106.262 26.2106ZM108.025 19.6284C108.025 19.6284 108.042 19.6115 108.086 19.5812C108.129 19.5509 108.195 19.5099 108.288 19.4614C108.478 19.3626 108.754 19.2472 109.138 19.129C109.915 18.89 110.998 18.6812 112.439 18.5355L111.861 12.8246C110.2 12.9927 108.712 13.2544 107.45 13.6429C106.222 14.0207 104.986 14.5842 104.04 15.4965L108.025 19.6284ZM112.439 18.5355C115.386 18.2374 118.446 18.1699 121.62 18.3369L121.922 12.6049C118.473 12.4234 115.119 12.4952 111.861 12.8246L112.439 18.5355ZM121.622 18.337C124.834 18.5043 127.614 18.8863 129.981 19.4622L131.338 13.8848C128.547 13.2059 125.401 12.7861 121.92 12.6048L121.622 18.337ZM130.025 19.4725C131.23 19.7456 131.873 20.0069 132.149 20.1686C132.276 20.2436 132.192 20.2209 132.057 20.0452C131.894 19.8327 131.711 19.4575 131.711 18.9742H137.451C137.451 16.9682 136.021 15.7857 135.053 15.2177C134.021 14.6124 132.704 14.1941 131.294 13.8745L130.025 19.4725ZM131.712 18.9006C131.644 21.5449 131.422 25.3037 131.04 30.2019L136.763 30.6483C137.148 25.7165 137.379 21.8413 137.45 19.0477L131.712 18.9006ZM131.04 30.2003C130.648 35.189 130.541 40.1785 130.72 45.168L136.456 44.9631C136.286 40.1924 136.388 35.4215 136.763 30.6499L131.04 30.2003ZM130.72 45.1893C130.939 50.2441 131.706 54.8068 133.064 58.8435L138.504 57.0131C137.352 53.59 136.655 49.5776 136.455 44.9418L130.72 45.1893ZM133.074 58.8741C133.836 61.0567 134.962 62.9487 136.561 64.3645C138.186 65.8033 140.149 66.6154 142.33 66.8475L142.937 61.1397C141.842 61.0232 141.025 60.6501 140.366 60.0671C139.682 59.4611 139.021 58.4948 138.494 56.9824L133.074 58.8741ZM142.298 66.8439C144.605 67.1153 146.821 66.7414 148.751 65.5123C150.651 64.302 151.992 62.4414 152.914 60.2401L147.62 58.0216C147.009 59.4804 146.311 60.2604 145.667 60.671C145.052 61.0628 144.218 61.2902 142.969 61.1432L142.298 66.8439ZM152.909 60.2524C154.621 56.2204 155.686 51.5405 156.159 46.263L150.442 45.7505C150.008 50.5819 149.051 54.6513 147.626 58.0093L152.909 60.2524ZM156.157 46.2807C156.657 41.0676 156.818 35.8367 156.639 30.589L150.902 30.7841C151.072 35.7847 150.919 40.7673 150.443 45.7328L156.157 46.2807ZM156.64 30.6085C156.501 25.5013 156.522 21.8178 156.686 19.4895L150.96 19.0863C150.776 21.7078 150.762 25.6234 150.902 30.7646L156.64 30.6085ZM270.999 35.6538L268.239 34.8654L268.189 35.0412L268.162 35.2221L270.999 35.6538ZM263.993 46.2159L261.767 44.4039L261.766 44.4055L263.993 46.2159ZM248.149 63.2616L246.155 61.1975L245.337 61.9882L245.283 63.1251L248.149 63.2616ZM246.215 82.9739L243.382 82.5158L243.38 82.5241L243.379 82.5324L246.215 82.9739ZM243.705 93.2222L245.884 95.09L245.94 95.025L245.992 94.9568L243.705 93.2222ZM239.417 94.3726L239.092 91.5211L239.087 91.5217L239.417 94.3726ZM231.47 94.8954L231.401 92.0263L231.4 92.0263L231.47 94.8954ZM223.365 94.8954L223.286 97.7643L223.287 97.7644L223.365 94.8954ZM218.816 94.3203L220.293 91.8593L220.242 91.8289L220.191 91.8007L218.816 94.3203ZM215.208 84.6994L212.399 85.2881L212.401 85.2979L212.404 85.3077L215.208 84.6994ZM212.385 65.0393L215.243 64.7795L215.144 63.6949L214.351 62.9487L212.385 65.0393ZM195.653 47.5754L193.453 49.4181L193.459 49.4261L195.653 47.5754ZM188.333 36.6996L191.181 36.3436L191.159 36.1716L191.117 36.0035L188.333 36.6996ZM190.11 31.7846L187.673 30.2701L190.11 31.7846ZM195.287 24.8303L197.457 26.7088L197.464 26.7008L197.47 26.6928L195.287 24.8303ZM201.352 18.5559L199.455 16.4028L199.445 16.4108L199.436 16.419L201.352 18.5559ZM205.797 15.7323L205.648 12.8662L205.612 12.868L205.577 12.8708L205.797 15.7323ZM215.418 20.9611L213.601 23.1831L213.611 23.191L213.62 23.1987L215.418 20.9611ZM229.587 33.5101L227.602 35.5822L229.581 37.4786L231.566 35.589L229.587 33.5101ZM243.757 20.8565L241.939 18.636L241.93 18.6431L243.757 20.8565ZM253.535 15.6278L253.764 12.7669L253.745 12.7654L253.726 12.7641L253.535 15.6278ZM257.875 18.3467L256.001 20.5205L256.021 20.5377L256.041 20.5546L257.875 18.3467ZM263.993 24.2552L261.866 26.1824L261.874 26.1915L261.882 26.2005L263.993 24.2552ZM269.221 30.8957L266.816 32.4611L266.824 32.4745L266.833 32.4877L269.221 30.8957ZM268.162 35.2221C268.168 35.1786 268.134 35.3812 267.86 35.9254C267.607 36.4286 267.22 37.0855 266.673 37.9104C265.579 39.5591 263.954 41.717 261.767 44.4039L266.218 48.0278C268.458 45.2769 270.214 42.9555 271.456 41.0835C272.076 40.1481 272.596 39.2843 272.987 38.5064C273.358 37.7696 273.708 36.9308 273.836 36.0856L268.162 35.2221ZM261.766 44.4055C257.46 49.7018 252.261 55.2991 246.155 61.1975L250.144 65.3256C256.378 59.3026 261.741 53.536 266.22 48.0262L261.766 44.4055ZM245.283 63.1251C244.938 70.3622 244.302 76.8228 243.382 82.5158L249.048 83.432C250.01 77.4823 250.664 70.8014 251.016 63.3981L245.283 63.1251ZM243.379 82.5324C242.931 85.4081 242.51 87.6261 242.12 89.2193C241.925 90.0171 241.748 90.6134 241.595 91.0357C241.424 91.5076 241.345 91.5843 241.419 91.4876L245.992 94.9568C246.448 94.3547 246.762 93.6254 246.992 92.9905C247.24 92.306 247.472 91.4949 247.695 90.5847C248.142 88.7618 248.592 86.361 249.051 83.4154L243.379 82.5324ZM241.526 91.3545C241.794 91.0412 242.034 90.9463 241.977 90.9729C241.953 90.9845 241.834 91.0345 241.576 91.1039C241.058 91.2427 240.25 91.3888 239.092 91.5211L239.743 97.224C241.025 97.0775 242.152 96.8923 243.063 96.6478C243.519 96.5255 243.989 96.3707 244.426 96.1644C244.831 95.9732 245.406 95.6472 245.884 95.09L241.526 91.3545ZM239.087 91.5217C236.783 91.7887 234.223 91.9583 231.401 92.0263L231.539 97.7646C234.503 97.6932 237.241 97.5141 239.748 97.2235L239.087 91.5217ZM231.4 92.0263C228.585 92.0949 225.933 92.0947 223.444 92.0265L223.287 97.7644C225.886 97.8356 228.638 97.8354 231.54 97.7646L231.4 92.0263ZM223.445 92.0265C222.233 91.9929 221.331 91.9311 220.706 91.852C220.393 91.8124 220.194 91.7741 220.085 91.747C219.938 91.7105 220.065 91.7224 220.293 91.8593L217.34 96.7813C218.18 97.2852 219.257 97.4545 219.986 97.5467C220.877 97.6593 221.988 97.7283 223.286 97.7643L223.445 92.0265ZM220.191 91.8007C220.555 91.9994 220.586 92.185 220.39 91.865C220.228 91.6005 220.005 91.1458 219.739 90.4367C219.209 89.0238 218.629 86.9311 218.013 84.0911L212.404 85.3077C213.043 88.2542 213.691 90.6581 214.364 92.4522C214.7 93.3466 215.072 94.1729 215.498 94.8671C215.889 95.5057 216.502 96.3274 217.442 96.8398L220.191 91.8007ZM218.017 84.1107C216.825 78.4192 215.898 71.9784 215.243 64.7795L209.527 65.2992C210.197 72.671 211.152 79.3369 212.399 85.2881L218.017 84.1107ZM214.351 62.9487C207.966 56.9436 202.468 51.2022 197.846 45.7246L193.459 49.4261C198.249 55.1032 203.906 61.0044 210.419 67.1299L214.351 62.9487ZM197.853 45.7326C195.546 42.9776 193.84 40.764 192.701 39.0709C192.13 38.2236 191.732 37.5507 191.475 37.037C191.196 36.4803 191.173 36.2829 191.181 36.3436L185.485 37.0556C185.597 37.9528 185.957 38.8361 186.341 39.604C186.746 40.4149 187.289 41.3106 187.939 42.276C189.239 44.2081 191.089 46.5958 193.453 49.4181L197.853 45.7326ZM191.117 36.0035C191.202 36.3428 191.065 36.3449 191.293 35.715C191.495 35.1572 191.888 34.3619 192.548 33.299L187.673 30.2701C186.904 31.5079 186.286 32.6821 185.895 33.7626C185.53 34.7711 185.22 36.0804 185.548 37.3957L191.117 36.0035ZM192.548 33.299C193.888 31.1429 195.52 28.9457 197.457 26.7088L193.117 22.9519C191.01 25.386 189.192 27.8249 187.673 30.2701L192.548 33.299ZM197.47 26.6928C199.421 24.4059 201.354 22.4086 203.268 20.6928L199.436 16.419C197.307 18.3283 195.196 20.514 193.103 22.9679L197.47 26.6928ZM203.25 20.709C204.221 19.8533 204.98 19.2718 205.545 18.913C206.193 18.501 206.294 18.5726 206.017 18.5939L205.577 12.8708C204.393 12.9618 203.3 13.5389 202.467 14.068C201.55 14.6504 200.54 15.4459 199.455 16.4028L203.25 20.709ZM205.945 18.5985C206.154 18.5877 206.888 18.6893 208.348 19.4828C209.732 20.2351 211.477 21.4465 213.601 23.1831L217.234 18.739C214.966 16.8852 212.911 15.43 211.089 14.4394C209.342 13.49 207.461 12.7724 205.648 12.8662L205.945 18.5985ZM213.62 23.1987C217.97 26.6918 222.63 30.8173 227.602 35.5822L231.573 31.4379C226.506 26.5819 221.719 22.3414 217.215 18.7234L213.62 23.1987ZM231.566 35.589C236.582 30.8152 241.254 26.6439 245.584 23.0699L241.93 18.6431C237.476 22.3197 232.702 26.584 227.609 31.4311L231.566 35.589ZM245.576 23.077C247.714 21.3259 249.474 20.1106 250.875 19.3612C252.346 18.5746 253.104 18.4754 253.344 18.4914L253.726 12.7641C251.875 12.6407 249.957 13.3432 248.169 14.2995C246.311 15.2931 244.228 16.7618 241.939 18.636L245.576 23.077ZM253.306 18.4886C253.118 18.4736 253.062 18.4312 253.183 18.482C253.29 18.5273 253.476 18.6204 253.75 18.7919C254.302 19.1376 255.046 19.6974 256.001 20.5205L259.749 16.1729C258.682 15.2531 257.692 14.4883 256.797 13.9277C255.988 13.4207 254.919 12.8593 253.764 12.7669L253.306 18.4886ZM256.041 20.5546C257.982 22.1661 259.924 24.0395 261.866 26.1824L266.119 22.3279C264.018 20.009 261.881 17.9434 259.709 16.1389L256.041 20.5546ZM261.882 26.2005C263.847 28.3313 265.487 30.4188 266.816 32.4611L271.627 29.3302C270.097 26.9804 268.252 24.6409 266.103 22.3099L261.882 26.2005ZM266.833 32.4877C267.503 33.4919 267.887 34.2317 268.075 34.7368C268.287 35.3037 268.131 35.2456 268.239 34.8654L273.759 36.4423C274.146 35.0861 273.833 33.7469 273.452 32.7278C273.048 31.6468 272.404 30.4955 271.609 29.3037L266.833 32.4877Z" fill="#FD6579" mask="url(#path-1-outside-1_1_165)"/>
<defs>
<linearGradient id="paint0_linear_1_165" x1="158.026" y1="37.72" x2="169.923" y2="134.842" gradientUnits="userSpaceOnUse">
<stop stop-color="white"/>
<stop offset="1" stop-color="#FE3345"/>
</linearGradient>
</defs>
</svg>
