<svg width="53" height="52" viewBox="0 0 53 52" fill="none" xmlns="http://www.w3.org/2000/svg">
<rect x="0.366699" width="52" height="52" rx="8" fill="white"/>
<path fill-rule="evenodd" clip-rule="evenodd" d="M22.6436 11.0791C20.6531 12.1232 19.0245 13.0068 19.0249 13.0427C19.0258 13.1355 23.8022 15.5714 23.9717 15.5654C24.0488 15.5628 24.6083 15.3035 25.2149 14.9892L26.3179 14.4179L28.7272 15.6651L30.6999 14.7725C33.6725 13.4274 33.9812 13.28 33.9328 13.2305C33.8686 13.1648 32.8024 12.588 29.9098 11.0545C28.5118 10.3133 27.1549 9.58664 26.8944 9.43959C26.634 9.29255 26.3853 9.17426 26.3419 9.17655C26.2984 9.17884 24.6341 10.035 22.6436 11.0791ZM13.9131 15.6316L11.841 16.7094V21.4396C11.841 24.0413 11.8682 26.1698 11.9016 26.1698C11.9349 26.1698 12.9543 25.7248 14.1671 25.1809L16.372 24.1919V19.206L17.4495 19.7971C18.2798 20.2522 19.1106 20.7064 19.9419 21.1596L21.3568 21.931L21.9864 21.6444C22.3812 21.4643 22.7753 21.2824 23.1685 21.0989C23.4724 20.9564 24.2184 20.618 24.8262 20.3469C25.434 20.0756 25.9966 19.8028 26.0764 19.7406C26.1824 19.6581 24.8901 18.9389 21.2965 17.0807C18.5878 15.68 16.2846 14.5384 16.1784 14.5439C16.0722 14.5493 15.0528 15.0387 13.9131 15.6316ZM34.3063 15.9343C32.895 16.5758 31.7394 17.1263 31.7381 17.1577C31.7368 17.1891 32.506 17.6496 33.4475 18.181C34.3888 18.7125 35.1591 19.1757 35.1591 19.2106C35.1591 19.2454 34.326 19.6519 33.308 20.114C32.2898 20.576 29.7164 21.7463 27.589 22.7147L20.461 25.9592C18.6679 26.7754 17.0517 27.5111 16.8694 27.5943C13.2069 29.2638 12.2003 29.7271 12.062 29.8066C11.923 29.8866 11.8915 30.3518 11.8668 32.6862L11.8373 35.4705L15.5432 37.3719L18.1126 36.2043C19.5258 35.5621 20.682 35.003 20.682 34.9618C20.682 34.9208 20.4209 34.7494 20.1018 34.5809C19.7826 34.4124 19.1238 34.0394 18.6375 33.7518C18.1513 33.4642 17.6665 33.2004 17.56 33.1654C17.4536 33.1305 17.3681 33.0694 17.3698 33.0296C17.3716 32.9899 18.503 32.4487 19.884 31.8269C22.5662 30.6193 24.6189 29.6885 29.0257 27.6818C30.9962 26.7846 32.967 25.888 34.938 24.9919C36.6703 24.2046 38.6844 23.285 39.4138 22.9485L40.7399 22.3366L40.7991 16.7047L38.9197 15.7333C37.886 15.1991 37.0024 14.7634 36.9561 14.7649C36.9098 14.7664 35.7174 15.2926 34.3063 15.9343ZM40.2364 26.0933C39.9595 26.2295 39.4125 26.4845 39.0208 26.66C38.6292 26.8354 37.886 27.1731 37.3693 27.4105L36.43 27.8419L36.4085 30.3141C36.3967 31.6738 36.347 32.7802 36.298 32.773C36.1868 32.7564 34.4263 31.8472 32.6565 30.8923C31.3792 30.2031 31.299 30.1757 30.9988 30.3254C30.8253 30.412 29.7882 30.8804 28.6941 31.3665C27.6 31.8525 26.6692 32.2818 26.6255 32.3207C26.5818 32.3595 28.7837 33.5613 31.5188 34.9915L36.4915 37.5918L38.6158 36.4852C39.784 35.8767 40.7774 35.3216 40.8232 35.2518C40.9261 35.0948 40.9173 25.824 40.8142 25.8366C40.7734 25.8415 40.5134 25.957 40.2364 26.0933ZM28.4731 36.9748C28.1046 37.1344 27.7363 37.2941 27.368 37.4541C26.2559 37.9386 26.4738 37.9546 25.1508 37.2914C24.2696 36.8497 23.8897 36.7134 23.7248 36.7796C23.6012 36.8292 22.5368 37.3114 21.3594 37.8511C20.1821 38.3908 19.178 38.8323 19.1281 38.8323C18.6341 38.8323 19.4553 39.3264 22.6242 40.936L26.3405 42.8236L27.9041 42.0462C28.7641 41.6187 30.4987 40.7625 31.7588 40.1437C33.0189 39.5247 34.0343 39.0022 34.0153 38.9825C33.9961 38.9629 32.9403 38.4169 31.6689 37.7693L29.3572 36.5919L28.4731 36.9748Z" fill="#FD2053"/>
</svg>
