<svg width="53" height="52" viewBox="0 0 53 52" fill="none" xmlns="http://www.w3.org/2000/svg">
<rect x="0.25946" width="52" height="52" rx="8" fill="white"/>
<path d="M18.3152 13.1701C21.2202 10.2811 24.6944 9.55884 26.1642 9.55884C27.634 9.55884 31.2999 10.2811 34.2049 13.1701C34.8101 12.9121 36.1761 12.1899 36.7986 11.3645C36.107 13.2561 33.3749 17.6068 27.9799 19.8767C27.8512 19.6056 27.308 19.0633 26.1642 19.0633C25.0205 19.0633 24.6689 19.6056 24.5402 19.8767C19.1452 17.6068 16.4131 13.2561 15.7214 11.3645C16.3439 12.1899 17.71 12.9121 18.3152 13.1701Z" fill="#FD2053"/>
<path d="M20.0014 19.1436C20.8195 19.7571 22.661 21.0561 23.4817 21.3442C21.9192 21.831 19.0357 22.0723 20.0014 19.1436Z" fill="#FD2053"/>
<path d="M16.7428 15.6828C17.125 16.2496 18.0181 17.4792 18.5331 17.8633C17.7083 19.7771 17.2535 23.6047 22.033 23.6047L21.9123 25.2651L18.372 27.2656C20.0373 27.7679 23.6619 30.0606 24.8368 35.2126L26.2467 40.0593L27.6821 35.2126C28.8571 30.0606 32.4816 27.7679 34.147 27.2656L30.6066 25.2651L30.4859 23.6047C35.2654 23.6047 34.8106 19.7771 33.9858 17.8633C34.5008 17.4792 35.3939 16.2496 35.7761 15.6828C37.2618 17.1603 37.4232 20.0727 37.3182 21.3442C37.3182 30.9427 39.1222 35.4267 40.0242 36.4689L36.2029 33.5654L33.6156 37.8145L30.6066 35.2126L26.2467 42.4412L21.9123 35.2126L18.9033 37.8145L16.316 33.5654L12.4948 36.4689C13.3967 35.4267 15.2007 30.9427 15.2007 21.3442C15.0957 20.0727 15.2571 17.1603 16.7428 15.6828Z" fill="#FD2053"/>
<path d="M32.5176 19.1436C31.6994 19.7571 29.8579 21.0561 29.0373 21.3442C30.5997 21.831 33.4832 22.0723 32.5176 19.1436Z" fill="#FD2053"/>
<path d="M23.9314 24.1026C23.9314 22.2051 25.5534 21.2711 26.3668 21.0413C27.1802 21.2711 28.8071 22.2051 28.8071 24.1026V26.171L30.6374 27.3018C29.2139 28.1843 26.3717 30.8154 26.3717 34.2794C26.3717 30.8154 23.5246 28.1843 22.1011 27.3018L23.9314 26.171V24.1026Z" fill="#FD2053"/>
</svg>
