<svg width="53" height="52" viewBox="0 0 53 52" fill="none" xmlns="http://www.w3.org/2000/svg">
<rect x="0.0449219" width="52" height="52" rx="8" fill="white"/>
<path fill-rule="evenodd" clip-rule="evenodd" d="M38.5782 12.9537C38.9669 12.7934 39.3924 12.7382 39.8104 12.7936C40.2283 12.8491 40.6234 13.0133 40.9546 13.2691C41.2858 13.5248 41.5409 13.8629 41.6934 14.248C41.846 14.6332 41.8903 15.0513 41.8218 15.4589L38.2542 36.655C37.9081 38.6996 35.6177 39.8721 33.7033 38.8536C32.102 38.0016 29.7235 36.6889 27.5841 35.3192C26.5145 34.6335 23.2378 32.438 23.6405 30.8757C23.9866 29.5398 29.4923 24.5201 32.6384 21.5356C33.8732 20.3631 33.3101 19.6868 31.8518 20.7653C28.2307 23.4431 22.4167 27.5153 20.4944 28.6616C18.7986 29.6723 17.9146 29.8449 16.8575 29.6723C14.9289 29.358 13.1404 28.8711 11.6806 28.278C9.70797 27.4768 9.80393 24.8205 11.679 24.0471L38.5782 12.9537Z" fill="#FD2053"/>
</svg>
