<svg width="35" height="41" viewBox="0 0 35 41" fill="none" xmlns="http://www.w3.org/2000/svg">
<path d="M8.90328 4.86282C12.4488 1.55944 16.8005 0.856115 18.5331 0.917378L18.1347 12.1835C16.7864 12.1358 16.1233 12.7559 15.9603 13.072C9.69575 10.1564 6.65746 4.88546 5.92139 2.61442C6.62061 3.61878 8.20066 4.53184 8.90328 4.86282Z" fill="#191919"/>
<path d="M27.6348 5.52514C24.3314 1.97958 20.0404 0.970667 18.3077 0.909404L17.9094 12.1755C19.2577 12.2232 19.8753 12.8886 20.0156 13.2153C26.4705 10.7496 29.8734 5.70634 30.7681 3.49296C29.9997 4.44543 28.3591 5.24461 27.6348 5.52514Z" fill="#191919"/>
<path d="M10.6409 12.0136C11.5796 12.7749 13.696 14.3914 14.6513 14.7671C12.789 15.2789 9.37977 15.4449 10.6409 12.0136Z" fill="#191919"/>
<path d="M8.96371 10.4348C8.37276 9.95802 7.37145 8.46325 6.94466 7.77545C5.13141 9.46486 4.81904 12.9103 4.88951 14.4219C4.48721 25.7995 2.17276 31.0395 1.06581 32.2372L5.69209 28.9549L8.56393 34.0993L12.2201 31.1406L17.0566 39.8907L17.1564 37.0673L15.6675 31.2625C14.4984 25.1065 10.3218 22.2379 8.37968 21.5731L12.637 19.3494L12.8488 17.3862C7.21469 17.187 7.91119 12.6689 8.96371 10.4348Z" fill="#191919"/>
<path d="M25.3957 12.5354C24.4055 13.2285 22.1803 14.6915 21.2008 14.9987C23.0223 15.6409 26.4113 16.0472 25.3957 12.5354Z" fill="#191919"/>
<path d="M27.1802 11.079C27.8033 10.6452 28.9077 9.22484 29.382 8.56891C31.0714 10.3822 31.1396 13.8411 30.9626 15.3439C30.5603 26.7215 32.4989 32.1119 33.5185 33.3848L29.1356 29.7839L25.9075 34.7126L22.4695 31.5031L17.0271 39.8898L17.1269 37.0664L19.0221 31.3812C20.6231 25.3232 24.9918 22.7567 26.9761 22.2307L22.8864 19.7119L22.8138 17.7387C28.4479 17.9379 28.0723 13.3819 27.1802 11.079Z" fill="#191919"/>
<path d="M15.0664 18.0557C15.1459 15.8066 17.1028 14.7672 18.0713 14.5287L17.5165 30.2205C17.6617 26.1145 14.4158 22.8771 12.7747 21.7716L14.9797 20.5076L15.0664 18.0557Z" fill="#191919"/>
<path d="M20.8139 18.259C20.8935 16.0098 19.0149 14.8349 18.0656 14.5285L17.5108 30.2203C17.656 26.1143 21.1224 23.1142 22.8375 22.1275L20.7272 20.7108L20.8139 18.259Z" fill="#191919"/>
</svg>
