<svg width="19" height="19" viewBox="0 0 19 19" fill="none" xmlns="http://www.w3.org/2000/svg">
<path d="M10.4574 4.94337C10.4574 4.4789 10.0808 4.10238 9.61636 4.10238C9.15189 4.10238 8.77536 4.4789 8.77536 4.94337H10.4574ZM9.61636 10.6832L9.02169 11.2779C9.35012 11.6063 9.88261 11.6063 10.211 11.2779L9.61636 10.6832ZM12.671 8.81794C12.9994 8.48951 12.9994 7.95702 12.671 7.62859C12.3425 7.30016 11.81 7.30016 11.4816 7.62859L12.671 8.81794ZM7.75112 7.62859C7.42269 7.30016 6.8902 7.30016 6.56177 7.62859C6.23334 7.95702 6.23334 8.48951 6.56177 8.81794L7.75112 7.62859ZM12.8963 13.9841C13.3607 13.9841 13.7373 13.6076 13.7373 13.1431C13.7373 12.6786 13.3607 12.3021 12.8963 12.3021V13.9841ZM6.33647 12.3021C5.872 12.3021 5.49547 12.6786 5.49547 13.1431C5.49547 13.6076 5.872 13.9841 6.33647 13.9841V12.3021ZM18.6571 9.04324C18.6571 8.57877 18.2806 8.20224 17.8161 8.20224C17.3516 8.20224 16.9751 8.57877 16.9751 9.04324H18.6571ZM16.6152 16.0421L16.0206 15.4474L16.0206 15.4475L16.6152 16.0421ZM2.61745 16.0421L3.21214 15.4475L3.21211 15.4474L2.61745 16.0421ZM2.61745 2.04433L3.21213 2.63901L3.21213 2.63901L2.61745 2.04433ZM16.6152 2.04433L16.0206 2.63899L16.0206 2.63903L16.6152 2.04433ZM16.931 5.8052C16.9541 6.2691 17.3489 6.62642 17.8128 6.6033C18.2767 6.58019 18.634 6.18539 18.6109 5.72149L16.931 5.8052ZM8.77536 4.94337V10.6832H10.4574V4.94337H8.77536ZM10.211 11.2779L12.671 8.81794L11.4816 7.62859L9.02169 10.0885L10.211 11.2779ZM10.211 10.0885L7.75112 7.62859L6.56177 8.81794L9.02169 11.2779L10.211 10.0885ZM16.9751 9.04324C16.9751 10.9997 16.9733 12.3825 16.8325 13.4298C16.6949 14.453 16.4387 15.0294 16.0206 15.4474L17.2099 16.6368C17.9926 15.8541 18.3368 14.8637 18.4995 13.654C18.6589 12.4684 18.6571 10.9521 18.6571 9.04324H16.9751ZM16.0206 15.4475C15.6025 15.8656 15.0262 16.1218 14.003 16.2594C12.9556 16.4002 11.5728 16.402 9.61636 16.402V18.084C11.5253 18.084 13.0416 18.0858 14.2271 17.9264C15.4368 17.7637 16.4272 17.4195 17.2099 16.6368L16.0206 15.4475ZM9.61636 16.402C7.65989 16.402 6.27714 16.4002 5.22975 16.2594C4.20656 16.1218 3.63024 15.8656 3.21214 15.4475L2.02277 16.6368C2.80548 17.4195 3.79592 17.7637 5.00563 17.9264C6.19114 18.0858 7.70744 18.084 9.61636 18.084V16.402ZM3.21211 15.4474C2.79402 15.0294 2.53779 14.453 2.40023 13.4298C2.25941 12.3825 2.25762 10.9997 2.25762 9.04324H0.575627C0.575627 10.9521 0.573841 12.4684 0.73323 13.654C0.895871 14.8637 1.24006 15.8541 2.02279 16.6368L3.21211 15.4474ZM2.25762 9.04324C2.25762 7.08677 2.25941 5.70402 2.40023 4.65663C2.53779 3.63344 2.79402 3.05712 3.21213 2.63901L2.02278 1.44965C1.24006 2.23237 0.895872 3.2228 0.73323 4.43251C0.573841 5.61802 0.575627 7.13432 0.575627 9.04324H2.25762ZM3.21213 2.63901C3.63024 2.2209 4.20656 1.96467 5.22975 1.82711C6.27714 1.68629 7.65989 1.6845 9.61636 1.6845V0.00250715C7.70744 0.00250715 6.19114 0.000721037 5.00563 0.16011C3.79592 0.322751 2.80549 0.666941 2.02277 1.44966L3.21213 2.63901ZM9.61636 1.6845C11.5728 1.6845 12.9556 1.68629 14.003 1.82711C15.0262 1.96467 15.6025 2.2209 16.0206 2.63899L17.2099 1.44967C16.4272 0.666939 15.4368 0.32275 14.2271 0.16011C13.0416 0.000721097 11.5253 0.00250715 9.61636 0.00250715V1.6845ZM16.0206 2.63903C16.5791 3.19751 16.8425 4.03042 16.931 5.8052L18.6109 5.72149C18.5201 3.89914 18.2484 2.48804 17.2099 1.44964L16.0206 2.63903ZM12.8963 12.3021H6.33647V13.9841H12.8963V12.3021Z" fill="#191919"/>
</svg>
