<svg width="36" height="29" viewBox="0 0 36 29" fill="none" xmlns="http://www.w3.org/2000/svg">
<path fill-rule="evenodd" clip-rule="evenodd" d="M32.0677 0.624866C32.5033 0.468138 32.9754 0.425467 33.435 0.501293C33.8947 0.57712 34.3249 0.768671 34.6811 1.05601C35.0373 1.34335 35.3063 1.71597 35.4602 2.13509C35.6141 2.55422 35.6472 3.00452 35.5561 3.43912L30.8107 26.0382C30.3508 28.218 27.776 29.3863 25.6997 28.219C23.9629 27.2424 21.385 25.7413 19.0735 24.1883C17.9178 23.411 14.3811 20.9277 14.8853 19.2674C15.3183 17.8479 21.5912 12.678 25.1801 9.59927C26.5888 8.38968 25.9923 7.64208 24.3404 8.74211C20.2383 11.4733 13.6607 15.6147 11.4936 16.7694C9.58182 17.7874 8.5986 17.938 7.43731 17.7116C5.31863 17.2991 3.36116 16.7069 1.77093 16.0135C-0.377945 15.077 -0.171181 12.2312 1.92968 11.4747L32.0677 0.624866Z" fill="#191919"/>
</svg>
