<svg width="192" height="106" viewBox="0 0 192 106" fill="none" xmlns="http://www.w3.org/2000/svg">
<rect x="6" y="6" width="180" height="94" rx="15" fill="url(#paint0_linear_0_92)"/>
<rect x="3" y="3" width="186" height="100" rx="18" stroke="white" stroke-opacity="0.1" stroke-width="6"/>
<path d="M55.302 67V37.6H69.372C75.252 37.6 78.78 40.582 78.78 45.37C78.78 48.226 77.31 50.578 74.622 51.838C77.688 53.014 79.452 55.45 79.452 58.852C79.452 63.808 75.882 67 69.792 67H55.302ZM69.036 42.01H60.888V49.822H69.036C71.64 49.822 73.278 48.478 73.278 45.916C73.278 43.396 71.64 42.01 69.036 42.01ZM69.372 54.148H60.888V62.632H69.372C72.228 62.632 73.908 61.12 73.908 58.432C73.908 55.744 72.228 54.148 69.372 54.148ZM94.7918 67.504C87.4838 67.504 82.6538 63.346 82.6538 56.206V37.6H88.2818V56.458C88.2818 60.616 91.0538 62.926 94.8758 62.926C98.7818 62.926 101.596 60.616 101.596 56.5V37.6H107.014V56.248C107.014 63.388 102.142 67.504 94.7918 67.504ZM120.948 67V56.332L109.524 37.6H115.95L123.888 50.83L131.826 37.6H137.958L126.534 56.332V67H120.948Z" fill="url(#paint1_linear_0_92)"/>
<defs>
<linearGradient id="paint0_linear_0_92" x1="6" y1="100" x2="197.473" y2="56.4999" gradientUnits="userSpaceOnUse">
<stop offset="0.45" stop-color="white"/>
<stop offset="1" stop-color="#A4CAFC"/>
</linearGradient>
<linearGradient id="paint1_linear_0_92" x1="17.7273" y1="107.133" x2="118.884" y2="146.158" gradientUnits="userSpaceOnUse">
<stop stop-color="#02EFFE"/>
<stop offset="1" stop-color="#0644E9"/>
</linearGradient>
</defs>
</svg>
