<svg width="51" height="51" viewBox="0 0 51 51" fill="none" xmlns="http://www.w3.org/2000/svg">
<rect x="0.123383" width="50.8766" height="50.8766" rx="14.9952" fill="black" fill-opacity="0.2"/>
<path fill-rule="evenodd" clip-rule="evenodd" d="M21.9184 10.0016C19.8273 11.0818 18.1166 11.9959 18.117 12.0331C18.1179 12.1291 23.1355 14.6491 23.3136 14.643C23.3946 14.6403 23.9823 14.372 24.6195 14.0469L25.7782 13.4558L28.3091 14.7461L30.3815 13.8226C33.5041 12.4311 33.8284 12.2786 33.7776 12.2273C33.7101 12.1594 32.5901 11.5627 29.5514 9.97611C28.0828 9.20932 26.6575 8.45751 26.3838 8.30538C26.1102 8.15325 25.849 8.03087 25.8034 8.03324C25.7578 8.03561 24.0094 8.92136 21.9184 10.0016ZM12.7471 14.7114L10.5704 15.8265V20.7203C10.5704 23.4119 10.599 25.614 10.634 25.614C10.669 25.614 11.7399 25.1536 13.0139 24.5909L15.3302 23.5678V18.4094L16.4621 19.021C17.3343 19.4918 18.207 19.9617 19.0803 20.4306L20.5666 21.2287L21.228 20.9321C21.6428 20.7458 22.0567 20.5577 22.4698 20.3677C22.789 20.2203 23.5727 19.8703 24.2112 19.5897C24.8497 19.3091 25.4407 19.0269 25.5245 18.9626C25.6359 18.8771 24.2783 18.1331 20.5033 16.2107C17.6578 14.7615 15.2384 13.5804 15.1268 13.5861C15.0152 13.5918 13.9444 14.0981 12.7471 14.7114ZM34.1699 15.0246C32.6874 15.6883 31.4734 16.2579 31.472 16.2904C31.4707 16.3228 32.2787 16.7993 33.2677 17.349C34.2566 17.8989 35.0658 18.3781 35.0658 18.4142C35.0658 18.4502 34.1907 18.8707 33.1212 19.3488C32.0517 19.8268 29.3482 21.0376 27.1135 22.0395L19.6256 25.3961C17.742 26.2406 16.0441 27.0017 15.8526 27.0877C12.0053 28.815 10.9478 29.2942 10.8026 29.3765C10.6565 29.4593 10.6235 29.9405 10.5975 32.3557L10.5665 35.2362L14.4595 37.2034L17.1586 35.9954C18.6432 35.331 19.8577 34.7526 19.8577 34.71C19.8577 34.6675 19.5834 34.4902 19.2483 34.3159C18.913 34.1416 18.2208 33.7557 17.71 33.4582C17.1993 33.1606 16.69 32.8876 16.5781 32.8514C16.4664 32.8153 16.3765 32.7521 16.3783 32.7109C16.3802 32.6699 17.5688 32.11 19.0195 31.4667C21.8371 30.2173 23.9934 29.2544 28.6227 27.1782C30.6927 26.2501 32.763 25.3225 34.8336 24.3954C36.6533 23.5808 38.7691 22.6295 39.5353 22.2813L40.9284 21.6483L40.9905 15.8217L39.0162 14.8167C37.9303 14.264 37.0022 13.8132 36.9535 13.8148C36.9049 13.8164 35.6523 14.3607 34.1699 15.0246ZM40.3995 25.5348C40.1085 25.6757 39.5339 25.9396 39.1225 26.1211C38.7111 26.3026 37.9303 26.652 37.3876 26.8976L36.4008 27.3439L36.3783 29.9016C36.3659 31.3083 36.3136 32.4529 36.2622 32.4455C36.1454 32.4283 34.296 31.4876 32.4369 30.4997C31.0951 29.7868 31.0108 29.7584 30.6955 29.9133C30.5132 30.0028 29.4237 30.4874 28.2744 30.9903C27.1251 31.4931 26.1473 31.9373 26.1013 31.9776C26.0554 32.0177 28.3685 33.2611 31.2417 34.7407L36.4655 37.4309L38.697 36.2861C39.9242 35.6565 40.9678 35.0822 41.0158 35.01C41.124 34.8476 41.1147 25.2563 41.0064 25.2692C40.9636 25.2743 40.6904 25.3939 40.3995 25.5348ZM28.0422 36.7926C27.6552 36.9576 27.2682 37.1229 26.8813 37.2884C25.7131 37.7896 25.942 37.8063 24.5521 37.1201C23.6264 36.6631 23.2274 36.5221 23.0542 36.5906C22.9243 36.6419 21.8062 37.1407 20.5694 37.6991C19.3326 38.2575 18.2778 38.7143 18.2254 38.7143C17.7065 38.7143 18.5691 39.2255 21.898 40.8907L25.8019 42.8435L27.4445 42.0393C28.3479 41.597 30.1701 40.7112 31.4939 40.071C32.8175 39.4306 33.8842 38.89 33.8642 38.8697C33.8441 38.8493 32.735 38.2845 31.3994 37.6145L28.971 36.3964L28.0422 36.7926Z" fill="white"/>
</svg>
