<svg width="224" height="106" viewBox="0 0 224 106" fill="none" xmlns="http://www.w3.org/2000/svg">
<rect x="6" y="6" width="212" height="94" rx="15" fill="url(#paint0_linear_0_94)"/>
<rect x="3" y="3" width="218" height="100" rx="18" stroke="white" stroke-opacity="0.1" stroke-width="6"/>
<path d="M67.65 67.504C59.964 67.504 55.428 63.724 54.672 56.836H60.216C60.804 61.162 63.156 63.178 67.44 63.178C71.514 63.178 73.572 61.582 73.572 59.398C73.572 56.29 69.666 55.324 65.424 54.19C60.426 52.846 54.966 51.208 54.966 45.412C54.966 40.456 59.208 37.096 65.97 37.096C73.32 37.096 78.024 40.792 78.78 47.428H73.488C72.858 43.522 70.254 41.422 66.138 41.422C62.358 41.422 60.552 42.934 60.552 44.95C60.552 47.806 64.122 48.772 68.154 49.906C73.278 51.292 79.116 52.93 79.116 58.936C79.116 64.06 74.79 67.504 67.65 67.504ZM95.9258 67.546C87.8618 67.546 82.2758 62.17 82.2758 52.3C82.2758 42.43 87.8618 37.054 95.9258 37.054C103.948 37.054 109.534 42.43 109.534 52.3C109.534 62.17 103.948 67.546 95.9258 67.546ZM95.9258 63.052C100.672 63.052 103.822 59.356 103.822 52.3C103.822 45.244 100.672 41.548 95.9258 41.548C91.1798 41.548 87.9878 45.244 87.9878 52.3C87.9878 59.356 91.1798 63.052 95.9258 63.052ZM126.563 67.546C118.499 67.546 112.913 62.17 112.913 52.3C112.913 42.43 118.499 37.054 126.563 37.054C134.585 37.054 140.171 42.43 140.171 52.3C140.171 62.17 134.585 67.546 126.563 67.546ZM126.563 63.052C131.309 63.052 134.459 59.356 134.459 52.3C134.459 45.244 131.309 41.548 126.563 41.548C121.817 41.548 118.625 45.244 118.625 52.3C118.625 59.356 121.817 63.052 126.563 63.052ZM143.891 67V37.6H150.317L156.659 48.478L162.959 59.314L162.875 48.436L162.833 37.6H167.747V67H161.279L154.937 56.206L148.679 45.454L148.763 56.206L148.805 67H143.891Z" fill="url(#paint1_linear_0_94)"/>
<defs>
<linearGradient id="paint0_linear_0_94" x1="6" y1="100" x2="227.307" y2="40.7836" gradientUnits="userSpaceOnUse">
<stop offset="0.45" stop-color="white"/>
<stop offset="1" stop-color="#A4CAFC"/>
</linearGradient>
<linearGradient id="paint1_linear_0_94" x1="3.90909" y1="107.133" x2="128.913" y2="173.729" gradientUnits="userSpaceOnUse">
<stop stop-color="#02EFFE"/>
<stop offset="1" stop-color="#0644E9"/>
</linearGradient>
</defs>
</svg>
