<svg width="52" height="51" viewBox="0 0 52 51" fill="none" xmlns="http://www.w3.org/2000/svg">
<rect x="0.370117" width="50.8766" height="50.8766" rx="14.9952" fill="black" fill-opacity="0.2"/>
<path fill-rule="evenodd" clip-rule="evenodd" d="M36.9262 13.0181C37.2734 12.8719 37.6533 12.8215 38.0265 12.8721C38.3998 12.9227 38.7526 13.0724 39.0484 13.3057C39.3441 13.539 39.572 13.8473 39.7082 14.1986C39.8444 14.5498 39.884 14.9312 39.8229 15.303L36.6368 34.6345C36.3278 36.4992 34.2824 37.5686 32.5728 36.6397C31.1427 35.8626 29.0187 34.6654 27.1082 33.4162C26.153 32.7909 23.2268 30.7884 23.5865 29.3635C23.8955 28.1452 28.8122 23.567 31.6218 20.8451C32.7245 19.7758 32.2216 19.1589 30.9194 20.1425C27.6856 22.5848 22.4935 26.2988 20.7769 27.3442C19.2626 28.2661 18.4731 28.4234 17.5291 28.2661C15.8068 27.9794 14.2096 27.5354 12.9059 26.9943C11.1444 26.2636 11.23 23.841 12.9045 23.1356L36.9262 13.0181Z" fill="white"/>
</svg>
