<?xml version="1.0" standalone="no"?>
<!DOCTYPE svg PUBLIC "-//W3C//DTD SVG 1.1//EN" "http://www.w3.org/Graphics/SVG/1.1/DTD/svg11.dtd" >
<svg>
<metadata>
Created by FontForge 20090914 at Tue Dec  3 18:38:21 2024
 By www-data
Copyright &#194;&#169; 2016 by Russian Fonts. All rights reserved.
</metadata>
<defs>
<font id="RFKrabuler-Regular" horiz-adv-x="0" >
  <font-face 
    font-family="RF Krabuler"
    font-weight="400"
    font-stretch="normal"
    units-per-em="1000"
    panose-1="0 0 5 0 0 0 0 0 0 0"
    ascent="800"
    descent="-200"
    x-height="500"
    cap-height="704"
    bbox="-609 -253.005 898 961.004"
    underline-thickness="50"
    underline-position="-50"
    unicode-range="U+0020-U+2265"
  />
<missing-glyph horiz-adv-x="600" 
 />
    <glyph glyph-name="f_f" unicode="ff" horiz-adv-x="701" 
d="M692 590c0.666992 -6.66699 -1.16309 -13.335 -5.49609 -20.002s-11.5 -10 -21.5 -10c-3.33301 0.666992 -11.666 1 -24.999 1c-20.667 0 -37.667 -1.33301 -51 -4c-40 -8.66699 -63.333 -37.667 -70 -87h50l35 1c12 0 21 -1 27 -3c7.33301 -2 11 -17.333 11 -46
c0 -30 -0.666992 -50 -2 -60c-1.33301 -8 -5.83301 -13.167 -13.5 -15.5s-16.834 -3.5 -27.501 -3.5l-91 -2c-0.666992 -7.33301 -1 -19.333 -1 -36c0 -85.333 0.666992 -138.666 2 -159.999c3.33301 -54 6.66602 -98 9.99902 -132c0 -3.33301 -0.833008 -6.33301 -2.5 -9
s-4.16699 -4 -7.5 -4h-25c-10.667 0 -18.334 -0.333008 -23.001 -1c-14.667 -2 -26.334 -3 -35.001 -3l-34 1c-5.33301 0 -9 2.66699 -11 8s-3.16699 10.5 -3.5 15.5s-0.5 8.16699 -0.5 9.5c-2.66699 26 -4 64.333 -4 115l1 135c0 10 0.666992 30.333 2 61h-135
c0 -110.667 0.666992 -176 2 -196c3.33301 -54 6.66602 -98 9.99902 -132c0 -3.33301 -0.833008 -6.33301 -2.5 -9s-4.16699 -4 -7.5 -4h-25c-10.667 0 -18.334 -0.333008 -23.001 -1c-14.667 -2 -26.334 -3 -35.001 -3l-34 1c-5.33301 0 -9 2.66699 -11 8
s-3.16699 10.5 -3.5 15.5s-0.5 8.16699 -0.5 9.5c-2.66699 26 -4 64.333 -4 115l1 135c0 27.333 0.333008 47.666 1 60.999h-58c-6 0 -9.83301 2.16699 -11.5 6.5s-2.5 10.833 -2.5 19.5s0.666992 21 2 37l1 26c-1.33301 8 -2 13 -2 15c0 8.66699 3 15 9 19s15.667 6 29 6
h46c10.667 52 29 95 55 129c20.667 27.333 49.834 50.666 87.501 69.999s79.834 29 126.501 29c7.33301 0 11 -7 11 -21c0 -14.667 -2.66699 -30 -8 -46c-9.33301 -27.333 -17.333 -47.666 -24 -60.999s-16 -20.333 -28 -21c-44 -3.33301 -73.333 -29.666 -88 -78.999h130
c4 50.667 17 94 39 130s49.833 63 83.5 81s69.5 27 107.5 27c19.333 0 33.5 -0.833008 42.5 -2.5s16.167 -4.5 21.5 -8.5c6.66699 -5.33301 11 -12.666 13 -21.999s3 -23 3 -41c-1.33301 -20 -2 -34.667 -2 -44z" />
    <glyph glyph-name="f_f_i" unicode="ffi" horiz-adv-x="841" 
d="M799 688c0.666992 -7.33301 0.999023 -17.666 0.999023 -30.999v-57c0 -10.667 -2.16699 -20.834 -6.5 -30.501s-9.83301 -14.5 -16.5 -14.5c-4.66699 0 -11.667 -0.833008 -21 -2.5s-21.666 -2.5 -36.999 -2.5c-20 0 -33.167 2.16699 -39.5 6.5s-11.5 11.5 -15.5 21.5
c-4 12 -6 30 -6 54l1 63c0 15.333 7.33301 23 22 23l12 -1l20 2c16 1.33301 28.667 2 38 2c4.66699 0 10.667 -0.833008 18 -2.5s14 -2.16699 20 -1.5c6 0 9 -3.66699 9 -11c0 -4.66699 0.333008 -10.667 1 -18zM792.999 291
c0.666992 -14.667 1.00488 -34.3311 1.00488 -58.998l2 -51c2 -62 3 -95.333 3 -100v-72c0 -5.33301 -7 -9.5 -21 -12.5s-29.333 -4.5 -46 -4.5c-26.667 0 -44.834 1.5 -54.501 4.5s-14.5 7.16699 -14.5 12.5l2 181c0 47.333 -1.16699 83.166 -3.5 107.499
s-3.83301 39.166 -4.5 44.499l-149 -1c-0.666992 -7.33301 -1 -19.333 -1 -36c0 -85.333 0.666992 -138.666 2 -159.999c3.33301 -54 6.66602 -98 9.99902 -132c0 -3.33301 -0.833008 -6.33301 -2.5 -9s-4.16699 -4 -7.5 -4h-25c-10.667 0 -18.334 -0.333008 -23.001 -1
c-14.667 -2 -26.334 -3 -35.001 -3l-34 1c-5.33301 0 -9 2.66699 -11 8s-3.16699 10.5 -3.5 15.5s-0.5 8.16699 -0.5 9.5c-2.66699 26 -4 64.333 -4 115l1 135c0 10 0.666992 30.333 2 61h-135c0 -110.667 0.666992 -176 2 -196c3.33301 -54 6.66602 -98 9.99902 -132
c0 -3.33301 -0.833008 -6.33301 -2.5 -9s-4.16699 -4 -7.5 -4h-25c-10.667 0 -18.334 -0.333008 -23.001 -1c-14.667 -2 -26.334 -3 -35.001 -3l-34 1c-5.33301 0 -9 2.66699 -11 8s-3.16699 10.5 -3.5 15.5s-0.5 8.16699 -0.5 9.5c-2.66699 26 -4 64.333 -4 115l1 135
c0 27.333 0.333008 47.666 1 60.999h-58c-6 0 -9.83301 2.16699 -11.5 6.5s-2.5 10.833 -2.5 19.5s0.666992 21 2 37l1 26c-1.33301 8 -2 13 -2 15c0 8.66699 3 15 9 19s15.667 6 29 6h46c10.667 52 29 95 55 129c20.667 27.333 49.834 50.666 87.501 69.999
s79.834 29 126.501 29c7.33301 0 11 -7 11 -21c0 -14.667 -2.66699 -30 -8 -46c-9.33301 -27.333 -17.333 -47.666 -24 -60.999s-16 -20.333 -28 -21c-44 -3.33301 -73.333 -29.666 -88 -78.999h131c5.33301 52.667 18.166 97 38.499 133s44 62.5 71 79.5
s53.5 25.5 79.5 25.5c12.667 0 23.334 -3 32.001 -9s13 -15 13 -27c-1.33301 -20 -2 -47.333 -2 -82c0 -16.667 -9.66699 -26.667 -29 -30c-16.667 -2.66699 -31.5 -10.834 -44.5 -24.501s-21.167 -35.5 -24.5 -65.5h190l35 1c12 0 21 -1 27 -3
c8.66699 -2.66699 14.167 -6.16699 16.5 -10.5s3.5 -11.5 3.5 -21.5c0 -52.667 0.666992 -101 2 -145z" />
    <glyph glyph-name=".notdef" horiz-adv-x="600" 
 />
    <glyph glyph-name="space" unicode=" " horiz-adv-x="200" 
 />
    <glyph glyph-name="exclam" unicode="!" horiz-adv-x="305" 
d="M207 289c-2.66699 -6 -5.66699 -9.33301 -9 -10s-9.66602 -1 -18.999 -1c-24.667 0 -44.334 1 -59.001 3s-22 6.66699 -22 14c0 8 -0.666992 29.333 -2 64c-1.33301 21.333 -2.66602 57 -3.99902 107s-3.33301 96 -6 138c-2.66699 53.333 -4 84.666 -4 93.999
c0 4 7.5 7 22.5 9s31.5 3 49.5 3c10.667 0.666992 22.5 0.5 35.5 -0.5s22.167 -2.83301 27.5 -5.5c7.33301 -2.66699 11 -11 11 -25c0 -5.33301 -1.33301 -22.666 -4 -51.999c-4 -41.333 -6 -71.666 -6 -90.999c0 -13.333 -0.333008 -29.333 -1 -48
s-1.33398 -38.334 -2.00098 -59.001c-2.66699 -60 -4 -96.667 -4 -110c0 -14 -1.33301 -24 -4 -30zM76 13c-4 12 -6 30.001 -6 54.001l2 34c1.33301 21.333 2 36 2 44c0 13.333 2.66699 22 8 26s13 6 23 6h107c4 0 8.5 -3.16699 13.5 -9.5s7.5 -13.833 7.5 -22.5
c0 -23.333 0.333008 -39.333 1 -48l1 -52c0 -10.667 -2.16699 -20.834 -6.5 -30.501s-9.83301 -14.5 -16.5 -14.5l-23 -1c-25.333 -2.66699 -55.333 -4 -90 -4c-11.333 0 -19 6 -23 18z" />
    <glyph glyph-name="quotedbl" unicode="&#x22;" horiz-adv-x="426" 
d="M68 454.5c-2.66699 6.33301 -5 17.167 -7 32.5c-2 16 -4.66699 48.5 -8 97.5s-5 79.167 -5 90.5c0 13.333 2.66699 22 8 26s13 6 23 6h72c12 0 20.667 -1.66699 26 -5s8 -12.333 8 -27c0 -30.667 -4.33301 -97 -13 -199c-2 -20.667 -9.66699 -31 -23 -31h-65
c-8 0 -13.333 3.16699 -16 9.5zM261 454.501c-2.66699 6.33301 -5 17.167 -7 32.5c-2 16 -4.66699 48.5 -8 97.5s-5 79.167 -5 90.5c0 13.333 2.66699 22 8 26s13 6 23 6h72c12 0 20.667 -1.66699 26 -5s8 -12.333 8 -27c0 -30.667 -4.33301 -97 -13 -199
c-2 -20.667 -9.66699 -31 -23 -31h-65c-8 0 -13.333 3.16699 -16 9.5z" />
    <glyph glyph-name="numbersign" unicode="#" horiz-adv-x="604" 
d="M552 411c2.66699 -7.33301 3.99512 -17.002 3.99512 -29.002c0 -14.667 -1.33301 -27.167 -4 -37.5s-6.33398 -15.5 -11.001 -15.5c-37.333 1.33301 -67.666 2 -90.999 2l-17 -115l71 2c11.333 0 17 -8 17 -24c0 -18 -1.66699 -34 -5 -48s-8 -21 -14 -21l-81 -1l-19 -113
c-0.666992 -6 -9 -10.833 -25 -14.5s-34.333 -5.5 -55 -5.5c-26 0 -37.333 7.33301 -34 22c10.667 49.333 18 86.333 22 111l-76 3l-4 -27c-1.33301 -8.66699 -3.16602 -21.5 -5.49902 -38.5s-5.16602 -33.833 -8.49902 -50.5c-0.666992 -6 -9 -10.833 -25 -14.5
s-34.333 -5.5 -55 -5.5c-26 0 -37.333 7.33301 -34 22c8 38 15 76 21 114c-34.667 -1.33301 -61 -2 -79 -2c-6.66699 0 -10 7.33301 -10 22c0 18.667 1.66699 35.167 5 49.5s9.33301 21.5 18 21.5c36.667 0 63.334 -0.333008 80.001 -1v1l17 112l-65 -1
c-5.33301 0 -8.83301 2.83301 -10.5 8.5s-2.5 13.5 -2.5 23.5c0 14 1.66699 27.667 5 41s8.66602 20 15.999 20l71 1c1.33301 14 4 31.667 8 53l10 72l9 67c1.33301 8 7.83301 13.5 19.5 16.5s29.5 4.5 53.5 4.5c10 0 18.833 -1.66699 26.5 -5
s10.834 -8.66602 9.50098 -15.999c-6 -37.333 -14.333 -100 -25 -188v-3h78l8 54c2 10 5.33301 33.333 10 70l9 67c1.33301 8 7.83301 13.5 19.5 16.5s28.5 4.5 50.5 4.5c10 0 18.833 -1.66699 26.5 -5s10.834 -8.66602 9.50098 -15.999l-7 -52c-4 -40.667 -10 -86 -18 -136
c0 -1.33301 -0.333008 -2.33301 -1 -3l77 -2c4.66699 0 8.33398 -3.66699 11.001 -11zM325.995 217.998l17 113c-17.333 -0.666992 -43 -1 -77 -1l-10 -62l-8 -53h78v3z" />
    <glyph glyph-name="dollar" unicode="$" horiz-adv-x="447" 
d="M383.5 97c-22.333 -28.667 -53.168 -49.3311 -92.501 -61.998c0 -23.333 0.166992 -40.666 0.5 -51.999s0.5 -20 0.5 -26c0 -14 -3.33301 -22.333 -10 -25c-4.66699 -2.66699 -12.667 -4.5 -24 -5.5s-22 -1.16699 -32 -0.5c-36 0 -54 4 -54 12v86
c-27.333 2.66699 -51.5 9 -72.5 19s-37.333 21.167 -49 33.5s-17.5 23.5 -17.5 33.5c0 12 3.5 28.667 10.5 50s15.333 40.333 25 57s17.5 25 23.5 25c3.33301 0 5.66602 -1.66699 6.99902 -5c10.667 -20.667 27.167 -39 49.5 -55s44.5 -24 66.5 -24
c40.667 0 61 15.333 61 46c0 14 -5.66699 25.167 -17 33.5s-29.333 17.833 -54 28.5l-21 9c-35.333 15.333 -65.166 37.166 -89.499 65.499s-36.5 64.166 -36.5 107.499s10 83.666 30 120.999s48.667 65 86 83v85c0 8 18 12 54 12c10 0.666992 20.667 0.5 32 -0.5
s19.333 -2.83301 24 -5.5c6.66699 -2.66699 10 -11 10 -25l-1 -52c24.667 -5.33301 47.5 -14 68.5 -26s31.5 -22.333 31.5 -31c0 -13.333 -4 -30.333 -12 -51s-17 -39.167 -27 -55.5s-18 -24.5 -24 -24.5c-2.66699 0 -7.66699 4.66699 -15 14
c-9.33301 12 -18.666 21.5 -27.999 28.5s-20 10.5 -32 10.5c-20 0 -35.333 -5.5 -46 -16.5s-16 -27.5 -16 -49.5c0 -19.333 6.83301 -35.666 20.5 -48.999s33.167 -26.333 58.5 -39c30 -14 54.667 -27.167 74 -39.5s36 -29.5 50 -51.5s21 -49.333 21 -82
c0 -42.667 -11.167 -78.334 -33.5 -107.001z" />
    <glyph glyph-name="percent" unicode="%" horiz-adv-x="741" 
d="M278.5 663c26.333 -31.333 39.5 -75 39.5 -131c0 -35.333 -6.66699 -66 -20 -92s-30.833 -45.833 -52.5 -59.5s-45.167 -20.5 -70.5 -20.5s-48.666 7 -69.999 21s-38.5 33.833 -51.5 59.5s-19.5 55.167 -19.5 88.5c0 40 6.66699 73.5 20 100.5s30.666 47.167 51.999 60.5
s44.333 20 69 20c42.667 0 77.167 -15.667 103.5 -47zM594 588l-147.002 -236l-147 -253l-45 -78c-5.33301 -8.66699 -16.166 -15.834 -32.499 -21.501s-32.166 -8.5 -47.499 -8.5s-30.5 3.33301 -45.5 10s-19.833 14.334 -14.5 23.001l94 147l97 154l111 192l97 167
c3.33301 5.33301 15 9.33301 35 12s39.333 4 58 4c12.667 0 24.667 -1.16699 36 -3.5s15 -6.5 11 -12.5zM142.998 589c-7.33301 -16.667 -11 -36.333 -11 -59c0 -20 3.83301 -37.333 11.5 -52s18.167 -22 31.5 -22c12 0 22.333 6.83301 31 20.5s13 32.167 13 55.5
c0 21.333 -4.5 40.333 -13.5 57s-19.167 25 -30.5 25c-14 0 -24.667 -8.33301 -32 -25zM679.498 292.001c26.333 -32 39.5 -76.332 39.5 -132.999c0 -34.667 -6.66699 -64.834 -20 -90.501s-31 -45.167 -53 -58.5s-45.333 -20 -70 -20c-25.333 0 -48.666 7 -69.999 21
s-38.5 33.833 -51.5 59.5s-19.5 55.167 -19.5 88.5c0 40 6.66699 73.5 20 100.5s30.666 47.167 51.999 60.5s44.333 20 69 20c42.667 0 77.167 -16 103.5 -48zM543.998 219.002c-7.33301 -16.667 -11 -36.333 -11 -59c0 -20 3.83301 -37.333 11.5 -52s18.167 -22 31.5 -22
c12 0 22.333 6.83301 31 20.5s13 32.167 13 55.5c0 21.333 -4.5 40.333 -13.5 57s-19.167 25 -30.5 25c-14 0 -24.667 -8.33301 -32 -25z" />
    <glyph glyph-name="ampersand" unicode="&#x26;" horiz-adv-x="612" 
d="M581 84c2.66699 -4.66699 4.00098 -11.3311 4.00098 -19.998c0 -15.333 -3.16699 -27.833 -9.5 -37.5s-13.666 -16.667 -21.999 -21s-15.5 -6.5 -21.5 -6.5c-10.667 0 -28.334 7.33301 -53.001 22s-51.334 32.667 -80.001 54c-70.667 -66 -143 -99 -217 -99
c-50.667 0 -90 15 -118 45s-42 69.667 -42 119c0 44 11.167 83.5 33.5 118.5s54.166 68.833 95.499 101.5c-33.333 63.333 -50 121 -50 173c0 53.333 16.833 96.166 50.5 128.499s79.834 48.5 138.501 48.5c38.667 0 71.5 -7 98.5 -21s47.5 -32.5 61.5 -55.5
s21 -47.833 21 -74.5c0 -44.667 -16.333 -84.5 -49 -119.5s-75.334 -70.5 -128.001 -106.5c24 -31.333 53 -62 87 -92c26 34.667 57.667 84 95 148c2.66699 4.66699 8 7 16 7c10 0 22.333 -3.16699 37 -9.5s27 -13.5 37 -21.5s14 -15 12 -21
c-9.33301 -27.333 -22.666 -57 -39.999 -89s-37.666 -63 -60.999 -93l34.5 -24.5c11 -7.66699 20.833 -14.834 29.5 -21.501c5.33301 -2.66699 14.666 -9 27.999 -19c5.33301 -4 9.33301 -8.33301 12 -13zM250.001 550.003c-12.667 -13.333 -18.999 -34.001 -18.999 -62.001
c0 -19.333 3.66699 -40 11 -62c31.333 22.667 55.666 42.834 72.999 60.501s26 35.167 26 52.5c0 20.667 -13.333 31 -40 31c-21.333 0 -38.333 -6.66699 -51 -20zM212.002 116.002c28 0 58.667 13.332 92 39.999c-32.667 32.667 -65 70.334 -97 113.001
c-31.333 -29.333 -47 -61 -47 -95c0 -38.667 17.333 -58 52 -58z" />
    <glyph glyph-name="quotesingle" unicode="'" horiz-adv-x="233" 
d="M68 454.5c-2.66699 6.33301 -5 17.167 -7 32.5c-2 16 -4.66699 48.5 -8 97.5s-5 79.167 -5 90.5c0 13.333 2.66699 22 8 26s13 6 23 6h72c12 0 20.667 -1.66699 26 -5s8 -12.333 8 -27c0 -30.667 -4.33301 -97 -13 -199c-2 -20.667 -9.66699 -31 -23 -31h-65
c-8 0 -13.333 3.16699 -16 9.5z" />
    <glyph glyph-name="parenleft" unicode="(" horiz-adv-x="328" 
d="M221.5 478.5c-21 -67.667 -31.501 -135.501 -31.501 -203.501c0 -115.333 38 -218 114 -308c2 -2 3 -4.33301 3 -7c0 -6 -6.5 -11.5 -19.5 -16.5s-26.5 -7.5 -40.5 -7.5c-9.33301 0 -16.666 1.66699 -21.999 5c-50 34 -88.667 79.667 -116 137s-41 123 -41 197
c0 87.333 15.5 168.833 46.5 244.5s74.833 139.167 131.5 190.5c2.66699 2.66699 7 4 13 4c12 0 25 -4.16699 39 -12.5s21 -16.5 21 -24.5c0 -3.33301 -2.66699 -8.66602 -8 -15.999c-38.667 -54 -68.5 -114.833 -89.5 -182.5z" />
    <glyph glyph-name="parenright" unicode=")" horiz-adv-x="328" 
d="M9 677c0 8 6.99902 16.168 20.999 24.501s27 12.5 39 12.5c6 0 10.333 -1.33301 13 -4c56.667 -51.333 100.5 -114.833 131.5 -190.5s46.5 -157.167 46.5 -244.5c0 -74 -13.667 -139.667 -41 -197s-66 -103 -116 -137c-5.33301 -3.33301 -12.666 -5 -21.999 -5
c-14 0 -27.5 2.5 -40.5 7.5s-19.5 10.5 -19.5 16.5c0 2.66699 1 5 3 7c76 90 114 192.667 114 308c0 68 -10.5 135.833 -31.5 203.5s-50.833 128.5 -89.5 182.5c-5.33301 7.33301 -8 12.666 -8 15.999z" />
    <glyph glyph-name="asterisk" unicode="*" horiz-adv-x="498" 
d="M443 587c3.33301 -7.33301 6.33105 -15.333 8.99805 -24s4 -16.667 4 -24c0 -4.66699 -1.83301 -10.167 -5.5 -16.5s-9.5 -10.833 -17.5 -13.5c-17.333 -6 -37.833 -10.167 -61.5 -12.5s-46.167 -2.83301 -67.5 -1.5c18.667 -11.333 37.167 -24.5 55.5 -39.5
s32.5 -29.5 42.5 -43.5c6 -8.66699 9 -15.667 9 -21c0 -8 -5.33301 -16 -16 -24l-60 -43c-3.33301 -2 -8.83301 -2 -16.5 0s-14.167 6.33301 -19.5 13c-20 26.667 -36.667 62.667 -50 108c-13.333 -45.333 -30 -81.333 -50 -108c-5.33301 -6.66699 -11.833 -11 -19.5 -13
s-13.167 -2 -16.5 0l-60 43c-10.667 8 -16 16 -16 24c0 5.33301 3 12.333 9 21c10 14 24.167 28.5 42.5 43.5s36.833 28.167 55.5 39.5c-21.333 -1.33301 -43.833 -0.833008 -67.5 1.5s-44.167 6.5 -61.5 12.5c-8 2.66699 -13.833 7.16699 -17.5 13.5s-5.5 11.833 -5.5 16.5
c0 10 2 20.167 6 30.5s6.33301 16.5 7 18.5c4 7.33301 7 14.333 9 21c2.66699 7.33301 5.83398 13.166 9.50098 17.499s9.16699 6.5 16.5 6.5c4 0 9 -1 15 -3c16 -5.33301 33.5 -14 52.5 -26s36.5 -24.667 52.5 -38c-8 20 -14.667 40.833 -20 62.5s-8 40.5 -8 56.5
c0 13.333 2.83301 22 8.5 26s13.5 6 23.5 6h74c4 0 8.5 -3.16699 13.5 -9.5s7.5 -13.833 7.5 -22.5c0 -18 -2.33301 -38.167 -7 -60.5s-10.667 -42.833 -18 -61.5c16.667 14 35 27.333 55 40s38 21.667 54 27c6 2 11 3 15 3c7.33301 0 12.833 -2.16699 16.5 -6.5
s6.83398 -10.166 9.50098 -17.499c2 -6 5 -13.333 9 -22z" />
    <glyph glyph-name="plus" unicode="+" horiz-adv-x="496" 
d="M432.5 345c1.66699 -8.66699 2.5 -19.332 2.5 -31.999c0 -19.333 -1 -35 -3 -47s-6 -18 -12 -18h-110v-55c0 -16.667 -0.333008 -29.834 -1 -39.501s-1 -16.167 -1 -19.5c0 -6.66699 -4.33301 -10.834 -13 -12.501s-19.334 -2.5 -32.001 -2.5c-50 0 -75 5 -75 15v114h-29
l-85 -1c-4.66699 0 -8 7.83301 -10 23.5s-3 29.834 -3 42.501s1 23.5 3 32.5s5.66699 13.5 11 13.5h113v36l-1 85c0 4.66699 6.66699 8 20 10s25.666 3 36.999 3c14.667 0 29.167 -1.16699 43.5 -3.5s21.5 -5.83301 21.5 -10.5v-119h52c16.667 0 29.834 -0.333008 39.501 -1
s16.167 -1 19.5 -1c6.66699 0 10.834 -4.33301 12.501 -13z" />
    <glyph glyph-name="comma" unicode="," horiz-adv-x="281" 
d="M89 -83c-17.333 0 -26 22.001 -26 66.001l2 162c0 13.333 2.66699 22 8 26s13 6 23 6h99c4 0 8.5 -3.16699 13.5 -9.5s7.5 -13.833 7.5 -22.5c0 -23.333 0.333008 -39.333 1 -48l1 -52c0 -14.667 -7.66699 -29.667 -23 -45c-24.667 -24.667 -51.667 -48.334 -81 -71.001
c-10 -8 -18.333 -12 -25 -12z" />
    <glyph glyph-name="hyphen" unicode="-" horiz-adv-x="399" 
d="M169 364l48.002 0.00292969h96c10 0 15 -28.333 15 -85c0 -12.667 -0.833008 -23.334 -2.5 -32.001s-5.83398 -13 -12.501 -13c-3.33301 0 -9.83301 -0.333008 -19.5 -1s-22.834 -1 -39.501 -1l-169 1c-4.66699 0 -8.16699 7.66699 -10.5 23s-3.5 32.666 -3.5 51.999
c0 11.333 1 23.666 3 36.999s5.33301 20 10 20z" />
    <glyph glyph-name="period" unicode="." horiz-adv-x="291" 
d="M69 13c-4 12 -6 30.001 -6 54.001l2 34c1.33301 21.333 2 36 2 44c0 13.333 2.66699 22 8 26s13 6 23 6h107c4 0 8.5 -3.16699 13.5 -9.5s7.5 -13.833 7.5 -22.5c0 -23.333 0.333008 -39.333 1 -48l1 -52c0 -10.667 -2.16699 -20.834 -6.5 -30.501
s-9.83301 -14.5 -16.5 -14.5l-23 -1c-25.333 -2.66699 -55.333 -4 -90 -4c-11.333 0 -19 6 -23 18z" />
    <glyph glyph-name="slash" unicode="/" horiz-adv-x="336" 
d="M132 -99c-2.66699 -10.667 -6.66797 -19.168 -12.001 -25.501s-11.666 -9.5 -18.999 -9.5l-34 -1c-12 0 -25.333 1 -40 3c-16 2 -24 10.333 -24 25c0 4.66699 3 19 9 43l11 45l51 237l29 132l40 198l29 136l12 54c1.33301 6 6.83301 10 16.5 12s22.5 3 38.5 3
c32.667 0 52.667 -3.33301 60 -10c2 -2 3 -6.33301 3 -13c0 -13.333 -1 -23.666 -3 -30.999l-12 -57l-6 -28l-41 -187c-11.333 -54 -22.333 -109.667 -33 -167l-15 -75z" />
    <glyph glyph-name="zero" unicode="0" horiz-adv-x="504" 
d="M449.5 185c-6.33301 -34 -18.835 -67.001 -37.502 -99.001c-19.333 -34 -41.166 -59.833 -65.499 -77.5s-57.166 -26.5 -98.499 -26.5c-20.667 0 -41 4 -61 12s-37.667 18.667 -53 32c-24.667 21.333 -45.667 52.833 -63 94.5s-26 93.834 -26 156.501
c0 132.667 17 234.667 51 306s88.667 107 164 107c74.667 0 126.5 -35.5 155.5 -106.5s43.5 -173.167 43.5 -306.5c0 -27.333 -3.16699 -58 -9.5 -92zM179.998 276.999c0 -41.333 5.83301 -75.5 17.5 -102.5s30.5 -40.5 56.5 -40.5c22.667 0 40.667 14.667 54 44
s20 62.333 20 99c0 94 -6.83301 161 -20.5 201s-31.5 60 -53.5 60c-49.333 0 -74 -87 -74 -261z" />
    <glyph glyph-name="one" unicode="1" horiz-adv-x="403" 
d="M373 39c2 -6.66699 2.99707 -11.666 2.99707 -14.999c0 -10 -3.16699 -16.5 -9.5 -19.5s-17.5 -4.5 -33.5 -4.5l-78 1l-193 -1c-9.33301 0 -14 8.66699 -14 26v38v68c0 6.66699 1.33301 10.667 4 12s8.33398 2.33301 17.001 3c28 0 59.333 -0.666992 94 -2v68l1 57l-1 85
v111c-15.333 -12 -31.166 -21.833 -47.499 -29.5s-30.5 -11.5 -42.5 -11.5c-8 0 -14 11.333 -18 34s-6 46.667 -6 72c0.666992 37.333 8.66699 56 24 56c42 0 78.667 26.667 110 80c2 8 16.667 12 44 12c24 1.33301 41 0.166016 51 -3.50098s15 -12.834 15 -27.501v-58
l-1 -137l3 -246v-61l60 3c6.66699 0 11.834 -1.66699 15.501 -5s5.5 -10 5.5 -20c0 -5.33301 -0.666992 -16.666 -2 -33.999l-3 -27c-0.666992 -9.33301 0 -17.333 2 -24z" />
    <glyph glyph-name="two" unicode="2" horiz-adv-x="452" 
d="M417 39c2 -6.66699 3 -11.6699 3 -15.0029c0 -10 -3.16699 -16.5 -9.5 -19.5s-17.5 -4.5 -33.5 -4.5l-78 1l-261 -1c-9.33301 0 -14 8.66699 -14 26c0 11.333 0.333008 19 1 23v40c0 16.667 7.33301 33.167 22 49.5s37.667 37.833 69 64.5c30 24.667 55.167 47 75.5 67
s37.5 43.167 51.5 69.5s21 54.833 21 85.5c0 36.667 -6.33301 64.667 -19 84s-29.334 29 -50.001 29c-18.667 0 -33.5 -3 -44.5 -9s-25.5 -16.333 -43.5 -31c-4 -3.33301 -11.167 3.16699 -21.5 19.5s-19.833 35.833 -28.5 58.5s-13 40.334 -13 53.001
c0 7.33301 7.66699 15.833 23 25.5s34.833 18 58.5 25s47.167 10.5 70.5 10.5c71.333 0 123 -25 155 -75s48 -115 48 -195c0 -37.333 -7.33301 -71.333 -22 -102s-31.5 -56.167 -50.5 -76.5s-42.833 -43.166 -71.5 -68.499c-7.33301 -6 -13.5 -11.333 -18.5 -16l-12.5 -12
c26.667 0.666992 60 1 100 1l43 2l32 1c6.66699 0 11.834 -1.66699 15.501 -5s5.5 -10 5.5 -20c0 -5.33301 -0.666992 -16.666 -2 -33.999l-3 -27c-0.666992 -9.33301 0 -17.333 2 -24z" />
    <glyph glyph-name="three" unicode="3" horiz-adv-x="462" 
d="M372.5 306c34.333 -25.333 51.4971 -66.335 51.4971 -123.002c0 -63.333 -19.833 -112 -59.5 -146s-90.167 -51 -151.5 -51c-34 0 -65 5.16699 -93 15.5s-50.167 22.333 -66.5 36s-24.5 24.5 -24.5 32.5c0 12 2.5 28.833 7.5 50.5s11 40.667 18 57s14.167 24.5 21.5 24.5
c2.66699 0 5.66699 -1.66699 9 -5c12 -14.667 29.833 -28.167 53.5 -40.5s47.167 -18.5 70.5 -18.5c52.667 0 79 19 79 57c0 22.667 -6.33301 38.167 -19 46.5s-32.667 12.5 -60 12.5c-13.333 0 -32.666 -2 -57.999 -6c-7.33301 -1.33301 -12.333 4.5 -15 17.5
s-4 38.167 -4 75.5c0 7.33301 5.16699 19.833 15.5 37.5s26.5 42.834 48.5 75.501c24.667 36.667 40.334 60.667 47.001 72h-37l-137 -1c-9.33301 0 -14 8.66699 -14 26v40v71c0 6.66699 1.5 11 4.5 13s8.5 3.33301 16.5 4l79 -1c11.333 -0.666992 26.333 -1 45 -1
c8.66699 -0.666992 46 -1 112 -1l35 2l26 1c6 0 10.833 -1.5 14.5 -4.5s5.83398 -9.16699 6.50098 -18.5l-1 -82c0 -10 -5.33301 -23.167 -16 -39.5s-27.667 -40.166 -51 -71.499c-35.333 -47.333 -60.666 -84 -75.999 -110c47.333 -6 88.166 -21.667 122.499 -47z" />
    <glyph glyph-name="four" unicode="4" horiz-adv-x="488" 
d="M450.5 278c3.66699 -3.33301 5.5 -10.0039 5.5 -20.0039l-1 -26c-2 -18 -3 -38.667 -3 -62c0 -5.33301 -2.83301 -8.66602 -8.5 -9.99902s-13.167 -2 -22.5 -2h-19h-1l-1 -117c0 -16 -1.66699 -26.833 -5 -32.5s-8.33301 -8.5 -15 -8.5h-45
c-4.66699 0 -13.834 -0.166992 -27.501 -0.5s-23.834 0.833984 -30.501 3.50098s-10 7.33398 -10 14.001l1 76c0.666992 10.667 1 23 1 37v29l-220 -2c-9.33301 0 -14 8.66699 -14 26v34v23c0 30.667 37.667 107.334 113 230.001c36 60 69.333 109.667 100 149
s53.667 59 69 59h51c12 0 20.167 -2 24.5 -6s6.5 -12 6.5 -24v-58l-1 -137l2 -169c8.66699 -0.666992 20.334 -1 35.001 -1c6.66699 0 11.834 -1.66699 15.501 -5zM230 412.996c-35.333 -60.667 -59.667 -106.667 -73 -138h112v40v158c-8.66699 -12 -21.667 -32 -39 -60z
" />
    <glyph glyph-name="five" unicode="5" horiz-adv-x="480" 
d="M335.5 364c27 -13.333 49.665 -34.3311 67.998 -62.998s27.5 -64.334 27.5 -107.001c0 -71.333 -20.5 -123.833 -61.5 -157.5s-92.5 -50.5 -154.5 -50.5c-31.333 0 -60.333 5.16699 -87 15.5s-48 22.333 -64 36s-24 24.5 -24 32.5c0 12 2.5 28.833 7.5 50.5
s11 40.667 18 57s14.167 24.5 21.5 24.5c2.66699 0 5.66699 -1.66699 9 -5c12 -14.667 29.667 -28.167 53 -40.5s46.666 -18.5 69.999 -18.5c21.333 0 39.333 4.33301 54 13s22 23 22 43c0 27.333 -11 47.166 -33 59.499s-50.333 18.5 -85 18.5c-30.667 0 -58.667 -2 -84 -6
c-6.66699 -0.666992 -11.5 4.66602 -14.5 15.999s-4.5 31.333 -4.5 60c0 31.333 2.66699 82.333 8 153c1.33301 11.333 2.66602 30 3.99902 56c0.666992 20.667 3.33398 57.667 8.00098 111c0.666992 6.66699 3.33398 11 8.00098 13s11.334 3 20.001 3
c13.333 0.666992 24.666 0.833984 33.999 0.500977s16 -0.5 20 -0.5c4.66699 -0.666992 13.334 -1 26.001 -1c8.66699 -0.666992 51 -1 127 -1l35 2l26 1c6 0 10.833 -1.5 14.5 -4.5s5.83398 -9.16699 6.50098 -18.5l-1 -105c0 -7.33301 -1.83301 -13.5 -5.5 -18.5
s-8.5 -7.5 -14.5 -7.5l-181 1l-2 -28c-4 -58 -6.33301 -97.333 -7 -118c24 2.66699 42.667 4 56 4c26 0 52.5 -6.66699 79.5 -20z" />
    <glyph glyph-name="six" unicode="6" horiz-adv-x="493" 
d="M362.5 363.5c27 -13.667 49.167 -34.834 66.5 -63.501s26 -64 26 -106c0 -48.667 -9.33301 -88.667 -28 -120s-42.5 -53.833 -71.5 -67.5s-59.5 -20.5 -91.5 -20.5c-146 0 -219 110.667 -219 332c0 248 75.667 372 227 372c24.667 0 48.667 -3.5 72 -10.5
s42.5 -15.333 57.5 -25s22.5 -18.167 22.5 -25.5c0 -14 -4.5 -32.167 -13.5 -54.5s-19.333 -40.666 -31 -54.999s-21.5 -18.833 -29.5 -13.5c-15.333 10.667 -28.5 18.667 -39.5 24s-24.833 8 -41.5 8c-50.667 0 -79.667 -61.333 -87 -184c28 20 59.667 30 95 30
c30 0 58.5 -6.83301 85.5 -20.5zM304.5 151.5c9.66699 9 14.499 23.166 14.499 42.499c0 22.667 -5.5 41.334 -16.5 56.001s-25.5 22 -43.5 22c-17.333 0 -32.166 -5.66699 -44.499 -17s-21.166 -26 -26.499 -44c13.333 -48.667 39.666 -73 78.999 -73
c15.333 0 27.833 4.5 37.5 13.5z" />
    <glyph glyph-name="seven" unicode="7" horiz-adv-x="452" 
d="M412.5 674.5c3.66699 -3 5.83203 -9.16602 6.49902 -18.499l-1 -82c0 -6 -2.33301 -13.333 -7 -22s-12 -20.334 -22 -35.001l-23 -37c-76 -125.333 -114 -280.333 -114 -465c0 -5.33301 -9 -9.16602 -27 -11.499s-38 -3.5 -60 -3.5c-17.333 0 -30.5 1 -39.5 3
s-13.5 6 -13.5 12c0 106.667 13.667 200.167 41 280.5s61.333 157.166 102 230.499h-54l-146 -1c-9.33301 0 -14 8.66699 -14 26v111c0 6 2.33301 10.167 7 12.5s11.334 3.83301 20.001 4.5l81 -1c12 -0.666992 27.333 -1 46 -1c8.66699 -0.666992 56 -1 142 -1l35 2l26 1
c6 0 10.833 -1.5 14.5 -4.5z" />
    <glyph glyph-name="eight" unicode="8" horiz-adv-x="498" 
d="M434 265c14.667 -24.667 22.0029 -53.6641 22.0029 -86.9971c0 -70 -20.667 -119.5 -62 -148.5s-89.666 -43.5 -144.999 -43.5c-32 0 -63.833 6.66699 -95.5 20s-58.167 34.166 -79.5 62.499s-32 63.833 -32 106.5c0 71.333 26 121.666 78 150.999
c-44.667 33.333 -67 81 -67 143c0 48.667 10.167 89.5 30.5 122.5s45.666 57.333 75.999 73s60.166 23.5 89.499 23.5s59.166 -7.83301 89.499 -23.5s55.666 -40 75.999 -73s30.5 -73.833 30.5 -122.5c0 -64.667 -23.667 -113 -71 -145
c25.333 -14.667 45.333 -34.334 60 -59.001zM203.003 515.503c-13.333 -13.667 -20.002 -35.5 -20.002 -65.5c0 -24 6.83301 -43.333 20.5 -58s28.834 -22 45.501 -22c17.333 0 32.666 6 45.999 18s20 30.333 20 55c0 30 -6.66699 53 -20 69s-28.666 24 -45.999 24
s-32.666 -6.83301 -45.999 -20.5zM303.501 153.003c15 10 22.5 25.667 22.5 47c0 22 -7 39.667 -21 53s-32.667 20 -56 20c-22.667 0 -41.167 -6.83301 -55.5 -20.5s-21.5 -31.167 -21.5 -52.5s7.5 -37 22.5 -47s33.167 -15 54.5 -15s39.5 5 54.5 15z" />
    <glyph glyph-name="nine" unicode="9" horiz-adv-x="493" 
d="M352.5 653.5c29.667 -24.333 52.998 -66.999 69.998 -127.999s25.5 -144.167 25.5 -249.5c0 -54 -8 -102.833 -24 -146.5s-40.167 -78.5 -72.5 -104.5s-72.166 -39 -119.499 -39c-28 0 -54.5 3.5 -79.5 10.5s-45.167 15.333 -60.5 25s-23 18.167 -23 25.5
c0 14 4.5 32.167 13.5 54.5s19.333 40.666 31 54.999s21.5 18.833 29.5 13.5c15.333 -10.667 28.5 -18.667 39.5 -24s24.833 -8 41.5 -8c22 0 41.667 10.5 59 31.5s27.333 50.833 30 89.5c-26.667 -24.667 -59 -37 -97 -37c-32 0 -61.667 8.5 -89 25.5s-49 41.5 -65 73.5
s-24 69.667 -24 113c0 49.333 9.83301 93.5 29.5 132.5s45.334 69.333 77.001 91s64.5 32.5 98.5 32.5c43.333 0 79.833 -12.167 109.5 -36.5zM280.498 352.001c13.667 12 23.502 26.999 29.502 44.999c-3.33301 48.667 -10.333 84.334 -21 107.001s-26.334 34 -47.001 34
c-22 0 -38.833 -9.5 -50.5 -28.5s-17.5 -45.167 -17.5 -78.5c0 -27.333 5.66699 -50.333 17 -69s25.666 -28 42.999 -28s32.833 6 46.5 18z" />
    <glyph glyph-name="colon" unicode=":" horiz-adv-x="291" 
d="M69 13c-4 12 -6 30.001 -6 54.001l2 34c1.33301 21.333 2 36 2 44c0 13.333 2.66699 22 8 26s13 6 23 6h107c4 0 8.5 -3.16699 13.5 -9.5s7.5 -13.833 7.5 -22.5c0 -23.333 0.333008 -39.333 1 -48l1 -52c0 -10.667 -2.16699 -20.834 -6.5 -30.501
s-9.83301 -14.5 -16.5 -14.5l-23 -1c-25.333 -2.66699 -55.333 -4 -90 -4c-11.333 0 -19 6 -23 18zM69 334.001c-4 12 -6 30.001 -6 54.001l2 34c1.33301 21.333 2 36 2 44c0 13.333 2.66699 22 8 26s13 6 23 6h107c4 0 8.5 -3.16699 13.5 -9.5s7.5 -13.833 7.5 -22.5
c0 -23.333 0.333008 -39.333 1 -48l1 -52c0 -10.667 -2.16699 -20.834 -6.5 -30.501s-9.83301 -14.5 -16.5 -14.5l-23 -1c-25.333 -2.66699 -55.333 -4 -90 -4c-11.333 0 -19 6 -23 18z" />
    <glyph glyph-name="semicolon" unicode=";" horiz-adv-x="291" 
d="M69 340c-4 12 -6 30.001 -6 54.001l2 34c1.33301 21.333 2 36 2 44c0 13.333 2.66699 22 8 26s13 6 23 6h107c4 0 8.5 -3.16699 13.5 -9.5s7.5 -13.833 7.5 -22.5c0 -23.333 0.333008 -39.333 1 -48l1 -52c0 -10.667 -2.16699 -20.834 -6.5 -30.501
s-9.83301 -14.5 -16.5 -14.5l-23 -1c-25.333 -2.66699 -55.333 -4 -90 -4c-11.333 0 -19 6 -23 18zM89 -82.999c-17.333 0 -26 22.001 -26 66.001l2 162c0 13.333 2.66699 22 8 26s13 6 23 6h99c4 0 8.5 -3.16699 13.5 -9.5s7.5 -13.833 7.5 -22.5
c0 -23.333 0.333008 -39.333 1 -48l1 -52c0 -14.667 -7.66699 -29.667 -23 -45c-24.667 -24.667 -51.667 -48.334 -81 -71.001c-10 -8 -18.333 -12 -25 -12z" />
    <glyph glyph-name="less" unicode="&#x3c;" horiz-adv-x="450" 
d="M389 147c0 -8.66699 -3.66797 -21.334 -11.001 -38.001s-15.666 -30.167 -24.999 -40.5s-17 -13.166 -23 -8.49902c-75.333 64.667 -168 131.334 -278 200.001c-10.667 6.66699 -16 16 -16 28c0 6.66699 1.33301 13 4 19s6.66699 10.333 12 13
c87.333 46.667 187 109.667 299 189c5.33301 4 11.5 1 18.5 -9s13 -23 18 -39s7.5 -30.333 7.5 -43c0 -12 -1.66699 -20.333 -5 -25s-10 -10.334 -20 -17.001c-35.333 -24 -88.333 -56 -159 -96c25.333 -12.667 51.5 -26.5 78.5 -41.5s50.833 -29.833 71.5 -44.5
c18.667 -13.333 28 -29 28 -47z" />
    <glyph glyph-name="equal" unicode="=" horiz-adv-x="449" 
d="M74 341.5c-2 16.333 -3.00195 30.834 -3.00195 43.501c0 36 4.66699 54 14 54l219 1c16.667 0 29.834 -0.333008 39.501 -1s16.167 -1 19.5 -1c6.66699 0 10.834 -4.33301 12.501 -13s2.5 -19.334 2.5 -32.001c0 -50 -5 -75 -15 -75h-133h-61l-85 -1
c-4.66699 0 -8 8.16699 -10 24.5zM168.998 251.001l61.002 0.000976562h133c10 0 15 -25 15 -75c0 -12.667 -0.833008 -23.334 -2.5 -32.001s-5.83398 -13 -12.501 -13c-3.33301 0 -9.83301 -0.333008 -19.5 -1s-22.834 -1 -39.501 -1l-219 1c-9.33301 0 -14 18 -14 54
c0 12.667 1 27.167 3 43.5s5.33301 24.5 10 24.5z" />
    <glyph glyph-name="greater" unicode="&#x3e;" horiz-adv-x="450" 
d="M410 307c2.66699 -6 3.99902 -12.333 3.99902 -19c0 -12 -5.33301 -21.333 -16 -28c-110 -68.667 -202.667 -135.334 -278 -200.001c-6 -4.66699 -13.667 -1.83398 -23 8.49902s-17.666 23.833 -24.999 40.5s-11 29.334 -11 38.001c0 18 9.33301 33.667 28 47
c20.667 14.667 44.5 29.5 71.5 44.5s53.167 28.833 78.5 41.5c-70.667 40 -123.667 72 -159 96c-10 6.66699 -16.667 12.334 -20 17.001s-5 13 -5 25c0 12.667 2.5 27 7.5 43s11 29 18 39s13.167 13 18.5 9c112 -79.333 211.667 -142.333 299 -189
c5.33301 -2.66699 9.33301 -7 12 -13z" />
    <glyph glyph-name="question" unicode="?" horiz-adv-x="470" 
d="M178 314c10.667 18 26.333 36.999 47 56.999c19.333 19.333 33.666 36.666 42.999 51.999s14 35.333 14 60s-9 43.334 -27 56.001s-38.667 19 -62 19c-18.667 0 -33.5 -3 -44.5 -9s-25.5 -16.333 -43.5 -31c-4 -3.33301 -11.167 3.16699 -21.5 19.5
s-19.833 35.833 -28.5 58.5s-13 40.334 -13 53.001c0 7.33301 8 15.833 24 25.5s37.167 18 63.5 25s53.833 10.5 82.5 10.5c36 0 69.667 -7.33301 101 -22s56.5 -35.667 75.5 -63s28.5 -59.333 28.5 -96c0 -50 -5.33301 -88.667 -16 -116s-28.667 -53 -54 -77
c-13.333 -12 -20.666 -18.333 -21.999 -19c-16 -14 -27.167 -25.667 -33.5 -35s-9.5 -23 -9.5 -41c0 -6 -7.33301 -10.167 -22 -12.5s-30 -3.5 -46 -3.5c-12.667 0 -24.5 1.16699 -35.5 3.5s-16.5 6.5 -16.5 12.5c0 30.667 5.33301 55 16 73zM140.999 12.999
c-4 12 -6 30.002 -6 54.002c0 5.33301 0.666992 15.333 2 30c1.33301 17.333 2 30 2 38c0 13.333 2.66699 22 8 26s13 6 23 6h107c4 0 8.5 -3.16699 13.5 -9.5s7.5 -13.833 7.5 -22.5l1 -49c0.666992 -10.667 1 -24.334 1 -41.001c0 -10.667 -2.16699 -20.834 -6.5 -30.501
s-9.83301 -14.5 -16.5 -14.5l-23 -1c-25.333 -2.66699 -55.333 -4 -90 -4c-11.333 0 -19 6 -23 18z" />
    <glyph glyph-name="at" unicode="@" horiz-adv-x="938" 
d="M709.5 703.5c59 -34.333 103.835 -83.5029 134.502 -147.503s46 -140 46 -228c0 -198.667 -61.667 -298 -185 -298c-47.333 0 -84.166 15.5 -110.499 46.5s-39.5 72.833 -39.5 125.5v14c-24.667 -48 -51.334 -90 -80.001 -126s-60 -54 -94 -54
c-30.667 0 -55.834 14.5 -75.501 43.5s-29.5 70.833 -29.5 125.5c0 64 13.5 120.333 40.5 169s63.333 86.334 109 113.001s95.834 40 150.501 40c28 0 46.5 -4.16699 55.5 -12.5s13.167 -22.166 12.5 -41.499c-3.33301 -85.333 -5 -162 -5 -230
c0 -39.333 5 -67.833 15 -85.5s25 -26.5 45 -26.5c27.333 0 46.666 16 57.999 48s17 81.667 17 149c0 52 -8.33301 102.167 -25 150.5s-45.834 88.833 -87.501 121.5s-97.167 49 -166.5 49c-72 0 -133.5 -18 -184.5 -54s-89.333 -84.167 -115 -144.5
s-38.5 -126.5 -38.5 -198.5c0 -73.333 13.333 -135 40 -185s63.5 -87.5 110.5 -112.5s101.167 -37.5 162.5 -37.5c38.667 0 69.5 4.5 92.5 13.5s50.167 23.833 81.5 44.5c6 4 11.833 0.333008 17.5 -11s8.5 -24.666 8.5 -39.999c0 -20 -5 -36.333 -15 -49
c-13.333 -18 -40.833 -33.167 -82.5 -45.5s-85.834 -18.5 -132.501 -18.5c-75.333 0 -143.166 17.333 -203.499 52s-108 85.167 -143 151.5s-52.5 145.166 -52.5 236.499c0 89.333 17.167 172.333 51.5 249s85.833 138.334 154.5 185.001s152 70 250 70
c82.667 0 153.5 -17.167 212.5 -51.5zM537.002 416.997c-27.333 -2.66699 -52.832 -12.668 -76.499 -30.001s-42.5 -39.666 -56.5 -66.999s-21 -56.333 -21 -87c0 -16.667 2.33301 -30.667 7 -42s13 -17 25 -17c15.333 0 31.166 11.167 47.499 33.5s34.833 53.5 55.5 93.5
l13 24c0.666992 24 2.66699 54.667 6 92z" />
    <glyph glyph-name="A" unicode="A" horiz-adv-x="500" 
d="M436 519.5c12.667 -53 19.0029 -130.5 19.0029 -232.5v-136l-1 -62v-61c0 -14 -3.33301 -22.333 -10 -25c-5.33301 -2.66699 -15.666 -4 -30.999 -4l-25 1c-42.667 0 -64 3.66699 -64 11v143h-2c-60.667 0 -109.334 -0.333008 -146.001 -1v-2l-1 -62v-57
c0 -14 -3.33301 -22.333 -10 -25c-4.66699 -2.66699 -12.834 -4.66699 -24.501 -6s-22.167 -1.66602 -31.5 -0.999023c-42.667 0 -64 3.66699 -64 11v276c0 102.667 6.66699 177.667 20 225s29.666 84.666 48.999 111.999c18 26.667 37.667 47.667 59 63
s49.666 23 84.999 23c27.333 0 51 -5.66699 71 -17s39.333 -29.333 58 -54c20 -26.667 36.333 -66.5 49 -119.5zM324.003 284v3c0 95.333 -6.83301 164.333 -20.5 207s-30.834 64 -51.501 64c-48 0 -72 -90.333 -72 -271v-2h118c4.66699 -0.666992 13.334 -1 26.001 -1z" />
    <glyph glyph-name="B" unicode="B" horiz-adv-x="470" 
d="M436 187c0 -46 -11.5 -85.001 -34.5 -117.001s-54.167 -54.667 -93.5 -68c-30 -10.667 -67.333 -16 -112 -16c-46 0 -87 4.66699 -123 14c-2 0.666992 -5.33301 1.5 -10 2.5s-8 2.5 -10 4.5s-3 4.66699 -3 8l1 64c0.666992 8.66699 1 19 1 31v90l1 201l-1 85v205
c0 2.66699 5.33301 5.33398 16 8.00098c1.33301 0.666992 9 2.66699 23 6s40.333 5 79 5c75.333 0 133.5 -20.333 174.5 -61s61.5 -95.334 61.5 -164.001c0 -33.333 -7 -62.666 -21 -87.999s-33.333 -46 -58 -62c72.667 -24.667 109 -74 109 -148zM254.5 532.999
c-13.667 16.667 -28.833 24.999 -45.5 24.999c-9.33301 0 -18 -1 -26 -3v-4v-187h13c22 0 40.667 8.5 56 25.5s23 39.167 23 66.5c0 34.667 -6.83301 60.334 -20.5 77.001zM278.001 152.498c14.667 9.66699 22 25.166 22 46.499c0 22.667 -6.5 38.834 -19.5 48.501
s-32.833 14.5 -59.5 14.5c-8.66699 0 -21 -0.666992 -37 -2v-43v-75c16 -2.66699 28.333 -4 37 -4c23.333 0 42.333 4.83301 57 14.5z" />
    <glyph glyph-name="C" unicode="C" horiz-adv-x="469" 
d="M412.5 33c-15.667 -14 -36.833 -26.002 -63.5 -36.002s-55.334 -15 -86.001 -15c-24.667 0 -49.167 5.5 -73.5 16.5s-45.166 23.833 -62.499 38.5c-24.667 21.333 -45.667 52.666 -63 93.999s-26 93.333 -26 156c0 159.333 24.333 272.333 73 339
c40.667 56 98.667 84 174 84c17.333 0 36.5 -3.5 57.5 -10.5s38.833 -15.5 53.5 -25.5s22 -18.333 22 -25c0 -13.333 -4 -30.333 -12 -51s-17 -39.167 -27 -55.5s-18 -24.5 -24 -24.5c-2 0 -5.16699 1.5 -9.5 4.5l-9.5 6.5c-12.667 8.66699 -24.334 15.667 -35.001 21
s-22 8 -34 8c-27.333 0 -49.833 -21.167 -67.5 -63.5s-26.5 -111.5 -26.5 -207.5c0 -41.333 7.83301 -77.166 23.5 -107.499s37.834 -45.5 66.501 -45.5c14.667 0 31.5 5.33301 50.5 16s37.833 26.334 56.5 47.001c2.66699 3.33301 6 5 10 5c8 0 16.333 -8.16699 25 -24.5
s16 -35.166 22 -56.499s9 -38.333 9 -51c0 -10.667 -7.83301 -23 -23.5 -37z" />
    <glyph glyph-name="D" unicode="D" horiz-adv-x="486" 
d="M403.5 572c11 -20.667 21.167 -54.332 30.5 -100.999s14 -108 14 -184c0 -56.667 -10.667 -108.167 -32 -154.5s-52 -83 -92 -110s-86.667 -40.5 -140 -40.5c-18 0 -33.833 1.16699 -47.5 3.5s-26.834 5 -39.501 8l-28 6.5c-6.66699 2 -11.5 4.33301 -14.5 7
s-4.5 7.66699 -4.5 15l2 191l1 177l-1 138v150c0 8.66699 1.83301 14.667 5.5 18s10.167 5.66602 19.5 6.99902c22.667 0.666992 40.334 2 53.001 4c4.66699 0 13 0.5 25 1.5s25.333 1.5 40 1.5c33.333 0 64.833 -6 94.5 -18s53.167 -29.667 70.5 -53
c18 -24 32.5 -46.333 43.5 -67zM283 176.502c22.667 28.333 34.002 65.167 34.002 110.5c0 67.333 -3.83301 120.5 -11.5 159.5s-20.334 67.333 -38.001 85s-41.834 26.5 -72.501 26.5h-12v-240l1 -111v-73h11c36 0 65.333 14.167 88 42.5z" />
    <glyph glyph-name="E" unicode="E" horiz-adv-x="441" 
d="M403 39c2 -6.66699 2.99609 -11.668 2.99609 -15.001c0 -10 -2.66699 -16.5 -8 -19.5s-13.666 -4.5 -24.999 -4.5l-74 1l-175 -1l-37 -1c-24.667 0 -37 5.33301 -37 16l2 198l1 177l-1 138v150c0 7.33301 1.5 12.833 4.5 16.5s8.83301 6 17.5 7s22.667 1.5 42 1.5l93 -1
c15.333 -0.666992 33.666 -1 54.999 -1c8.66699 -0.666992 25 -1 49 -1l35 2l26 1c6.66699 0 11.834 -1.66699 15.501 -5s5.5 -10 5.5 -20c0 -4.66699 -0.666992 -11.667 -2 -21l-3 -25c-0.666992 -14.667 -1 -36.667 -1 -66c0 -6.66699 -4.16699 -11.167 -12.5 -13.5
s-21.833 -3.5 -40.5 -3.5l-48 1c-41.333 0 -76.333 -0.333008 -105 -1v-18v-176c30.667 -0.666992 64.334 -1 101.001 -1l56 -1c6.66699 0 11.834 -1.66699 15.501 -5s5.5 -10 5.5 -20l1 -25c0 -6.66699 -0.333008 -12.334 -1 -17.001c-0.666992 -10.667 -1 -20 -1 -28v-18
c0 -5.33301 -2.83301 -8.66602 -8.5 -9.99902s-13.5 -2 -23.5 -2h-21l-80 1l-43 -2v-20v-61l53 -1l87 1l35 2l26 1c6.66699 0 11.834 -1.66699 15.501 -5s5.5 -10 5.5 -20c0 -5.33301 -0.666992 -16.666 -2 -33.999l-3 -27c-0.666992 -9.33301 0 -17.333 2 -24z" />
    <glyph glyph-name="F" unicode="F" horiz-adv-x="415" 
d="M379.5 698c3.66699 -3.33301 5.5 -10.001 5.5 -20.001c0 -4.66699 -0.666992 -11.667 -2 -21l-3 -25c-0.666992 -14.667 -1 -36.667 -1 -66c0 -6.66699 -4.16699 -11.167 -12.5 -13.5s-21.833 -3.5 -40.5 -3.5l-48 1c-37.333 0 -69 -0.333008 -95 -1v-18v-176
c28.667 0.666992 59.667 1 93 1l56 -1c6.66699 0 11.834 -1.66699 15.501 -5s5.5 -10 5.5 -20l1 -25c0 -6.66699 -0.333008 -12.334 -1 -17.001c-0.666992 -10.667 -1 -20 -1 -28v-18c0 -5.33301 -2.83301 -8.66602 -8.5 -9.99902s-13.5 -2 -23.5 -2h-21l-72 -1
c-16.667 0 -31 0.333008 -43 1v-23c0 -117.333 -0.666992 -181.666 -2 -192.999c-1.33301 -7.33301 -3 -11.833 -5 -13.5s-5.33301 -2.5 -10 -2.5c-8.66699 0 -16.334 0.333008 -23.001 1s-13.334 1 -20.001 1l-37 -1c-24.667 0 -37 5.33301 -37 16l2 158l2 177l-2 138v190
c0 7.33301 1.5 12.833 4.5 16.5s8.83301 6 17.5 7s22.667 1.5 42 1.5c34.667 0 78.667 -0.666992 132 -2c16.667 -0.666992 35 -1 55 -1l35 2l26 1c6.66699 0 11.834 -1.66699 15.501 -5z" />
    <glyph glyph-name="G" unicode="G" horiz-adv-x="488" 
d="M445 257l-1.00293 -56.001l1 -61c0.666992 -14 1 -34.667 1 -62c0 -10.667 -8.66699 -23.667 -26 -39s-40.166 -28.666 -68.499 -39.999s-57.833 -17 -88.5 -17c-24.667 0 -49.167 5.5 -73.5 16.5s-45.166 23.833 -62.499 38.5c-22.667 20 -43.167 53.333 -61.5 100
s-27.5 96.667 -27.5 150c0 131.333 18.167 234.666 54.5 309.999s100.5 113 192.5 113c17.333 0 36.5 -3.5 57.5 -10.5s38.833 -15.5 53.5 -25.5s22 -18.333 22 -25c0 -13.333 -4 -30.333 -12 -51s-17 -39.167 -27 -55.5s-18 -24.5 -24 -24.5c-2.66699 0 -7.66699 4 -15 12
s-15.166 14.667 -23.499 20s-18.833 8 -31.5 8c-36 0 -63.667 -20.667 -83 -62s-29 -111 -29 -209c0 -47.333 9.83301 -84.666 29.5 -111.999s45.167 -41 76.5 -41c18 0 33 2.33301 45 7c0.666992 23.333 0 42.166 -2 56.499s-4.66699 21.5 -8 21.5l-65 -1
c-9.33301 0 -14 8.66699 -14 26v31v45c0 6.66699 1.33301 10.667 4 12s8.33398 2.33301 17.001 3c28.667 0 49.167 -0.166992 61.5 -0.5s21.166 -0.5 26.499 -0.5l46 2l35 1c14 0 21 -8.33301 21 -25c0 -25.333 -0.333008 -43.666 -1 -54.999z" />
    <glyph glyph-name="H" unicode="H" horiz-adv-x="497" 
d="M446 32c0 -22.667 -6.66602 -34 -19.999 -34l-23 1c-4.66699 0.666992 -12 1 -22 1l-35 -1c-22 0 -33 5.33301 -33 16l1 53c1.33301 22.667 1.66602 36.667 0.999023 42v114c-56 0 -99.667 -0.333008 -131 -1v-16l-1 -168c0 -16 -1.66699 -26.833 -5 -32.5
s-8.33301 -8.5 -15 -8.5l-23 1c-4.66699 0.666992 -12 1 -22 1l-35 -1c-22 0 -33 5.33301 -33 16l1 64c0.666992 8.66699 1 19 1 31v103l1 57l-1 85v336c0 4 6.66699 7 20 9s28 3 44 3c10 0.666992 20.667 0.5 32 -0.5s19.333 -2.83301 24 -5.5
c6.66699 -2.66699 10 -11 10 -25v-59l-1 -160c0 -21.333 0.666992 -54 2 -98l132 -1v337c0 4 6.66699 7 20 9s28 3 44 3c10.667 0.666992 21.5 0.5 32.5 -0.5s18.833 -2.83301 23.5 -5.5c6.66699 -4 10 -12.333 10 -25v-160l1 -62l1 -243z" />
    <glyph glyph-name="I" unicode="I" horiz-adv-x="256" 
d="M63 691c0 4 6.66797 6.99902 20.001 8.99902s28 3 44 3l25 1c15.333 0 25.666 -1.33301 30.999 -4c6.66699 -2.66699 10 -11 10 -25v-62l1 -62v-233l1 -111c0 -117.333 -0.666992 -181.666 -2 -192.999c-1.33301 -7.33301 -3 -11.833 -5 -13.5s-5.33301 -2.5 -10 -2.5
l-26 1c-5.33301 0.666992 -13 1 -23 1l-35 -1c-22 0 -33 5.33301 -33 16l1 64c0.666992 8.66699 1 19 1 31v103l1 57l-1 85v336z" />
    <glyph glyph-name="J" unicode="J" horiz-adv-x="469" 
d="M422 282c0 -82.667 -16.333 -151.666 -49 -206.999s-85.334 -83 -158.001 -83c-54 0 -97.333 15.167 -130 45.5s-49 75.833 -49 136.5c0 40 6.83301 74.5 20.5 103.5s30.334 50.833 50.001 65.5s38.167 22 55.5 22c18.667 0 30.667 -8.33301 36 -25s8 -38 8 -64
c0 -13.333 -0.666992 -21.833 -2 -25.5s-5.33301 -6.83398 -12 -9.50098c-10 -5.33301 -18.167 -11.5 -24.5 -18.5s-9.5 -17.5 -9.5 -31.5c0 -18.667 5.66699 -33.5 17 -44.5s25 -16.5 41 -16.5c24 0 42.5 11.667 55.5 35s19.5 57.333 19.5 102v88l-1 196
c-6.66699 0.666992 -16 1 -28 1l-113 -4l-52 -2c-9.33301 0 -14 8.66699 -14 26v40v71c0 6.66699 1.5 11 4.5 13s8.5 3.33301 16.5 4h183l38 2l29 1h27c15.333 0 25 -1 29 -3c6.66699 -2.66699 10 -11 10 -25v-62l1 -62v-148z" />
    <glyph glyph-name="K" unicode="K" horiz-adv-x="484" 
d="M460 49c0 -6 -4.99902 -12.3359 -14.999 -19.0029c-13.333 -7.33301 -27.333 -13.666 -42 -18.999l-26 -9c-18 -8 -31 -12 -39 -12c-7.33301 0 -13.833 2.5 -19.5 7.5s-12.5 14.833 -20.5 29.5c-2 3.33301 -9 18.333 -21 45c-13.333 28.667 -20.333 43.334 -21 44.001
l-20.5 41c-11.667 23.333 -25.5 49.333 -41.5 78l-10 1v-29c0 -117.333 -0.666992 -181.666 -2 -192.999c-1.33301 -7.33301 -3 -11.833 -5 -13.5s-5.33301 -2.5 -10 -2.5l-26 1c-5.33301 0.666992 -13 1 -23 1l-35 -1c-22 0 -33 5.33301 -33 16l1 64
c0.666992 8.66699 1 19 1 31v103l1 57l-1 85v336c0 4 6.66699 7 20 9s28 3 44 3l25 1c15.333 0 25.666 -1.33301 30.999 -4c6.66699 -2.66699 10 -11 10 -25v-62l1 -62v-196c7.33301 -0.666992 17 -1 29 -1c29.333 0 51.833 10.5 67.5 31.5s23.5 54.833 23.5 101.5l-1 88
v110c0 6 8.66699 10.5 26 13.5s36.333 4.5 57 4.5s33 -1 37 -3c6.66699 -2.66699 10 -11 10 -25l1 -64v-73l1 -31c0 -60.667 -9.66699 -113.5 -29 -158.5s-47.666 -77.167 -84.999 -96.5l39 -58c21.333 -30.667 32.333 -47.334 33 -50.001
c5.33301 -8 15.666 -21.333 30.999 -40c20 -25.333 31 -39.666 33 -42.999c2.66699 -4 4 -8 4 -12z" />
    <glyph glyph-name="L" unicode="L" horiz-adv-x="418" 
d="M383 39c2 -6.66699 2.99805 -11.668 2.99805 -15.001c0 -10 -2.66699 -16.5 -8 -19.5s-13.666 -4.5 -24.999 -4.5l-74 1l-155 -1l-37 -1c-24.667 0 -37 5.33301 -37 16l2 198l1 88l-1 227v147c0 7.33301 1.5 12.833 4.5 16.5s8.83301 6 17.5 7s22.667 1.5 42 1.5h28
c16 0 26 -1 30 -3c5.33301 -2 8 -10.333 8 -25v-59l1 -82l-1 -173l2 -151v-61c6.66699 -0.666992 17.667 -1 33 -1l87 1l35 2l26 1c6.66699 0 11.834 -1.66699 15.501 -5s5.5 -10 5.5 -20c0 -5.33301 -0.666992 -16.666 -2 -33.999l-3 -27
c-0.666992 -9.33301 0 -17.333 2 -24z" />
    <glyph glyph-name="M" unicode="M" horiz-adv-x="636" 
d="M586 143c0 -74.667 -0.669922 -117.669 -2.00293 -129.002c-1.33301 -7.33301 -3 -11.833 -5 -13.5s-5.33301 -2.5 -10 -2.5l-26 1c-5.33301 0.666992 -13 1 -23 1l-35 -1c-22 0 -33 5.33301 -33 16l1 64c0.666992 8.66699 1 19 1 31v103
c0 5.33301 0.166992 15.5 0.5 30.5s0.5 44.167 0.5 87.5l1 37l-38 -77c-17.333 -34.667 -30.333 -60 -39 -76l-44 -88c-2.66699 -4 -8 -6 -16 -6c-14.667 0 -22.667 2 -24 6l-43 92c-14.667 28.667 -27.667 56 -39 82l-33 73l1 -44l3 -123
c0 -117.333 -0.666992 -181.666 -2 -192.999c-1.33301 -7.33301 -3 -11.833 -5 -13.5s-5.33301 -2.5 -10 -2.5l-26 1c-5.33301 0.666992 -13 1 -23 1l-35 -1c-22 0 -33 5.33301 -33 16l1 64c0.666992 8.66699 1 19 1 31v103l1 57l-1 85v333c0 4 5.33301 7 16 9
s34.334 3 71.001 3c9.33301 0 16.5 -2 21.5 -6s9.16699 -11 12.5 -21c23.333 -60.667 51.833 -129.5 85.5 -206.5s52.834 -115.5 57.501 -115.5c4 0 22.833 37.333 56.5 112s62.5 141.334 86.5 200.001c6 14.667 11.5 24.5 16.5 29.5s12.167 7.5 21.5 7.5
c42.667 0 68.334 -1.33301 77.001 -4c6.66699 -2 10 -10.333 10 -25v-51l1 -69l-3 -142z" />
    <glyph glyph-name="N" unicode="N" horiz-adv-x="512" 
d="M462 207c0 -117.333 -0.666016 -181.667 -1.99902 -193c-1.33301 -7.33301 -3 -11.833 -5 -13.5s-5.33301 -2.5 -10 -2.5c-11.333 0 -20 0.333008 -26 1s-10.333 1 -13 1h-37c-6 0 -12.833 6.5 -20.5 19.5s-16.167 30.5 -25.5 52.5l-12 25
c-6 9.33301 -49.333 107 -130 293c-0.666992 -23.333 -1 -47.333 -1 -72l1 -111c0 -15.333 0.333008 -30 1 -44l1 -115c0 -20 -0.333008 -31.333 -1 -34c-1.33301 -7.33301 -3 -11.833 -5 -13.5s-5.33301 -2.5 -10 -2.5l-26 1c-5.33301 0.666992 -13 1 -23 1l-35 -1
c-22 0 -33 5.33301 -33 16l1 64c0.666992 8.66699 1 19 1 31v103l1 57l-1 85v336c0 4 6.66699 7 20 9s28 3 44 3h6c4.66699 0 9.5 -0.5 14.5 -1.5s8.83301 -1.5 11.5 -1.5c10 0 18 -4.33301 24 -13c8 -12 27.5 -54 58.5 -126l89.5 -211l12 -29v34l-2 336c0 4 6.66699 7 20 9
s28 3 44 3l25 1c15.333 0 25.666 -1.33301 30.999 -4c6.66699 -2.66699 10 -11 10 -25v-62l1 -62v-233z" />
    <glyph glyph-name="O" unicode="O" horiz-adv-x="520" 
d="M472 189c-6.66699 -36.667 -19 -70.9951 -37 -102.995c-13.333 -22.667 -27.333 -41.334 -42 -56.001s-34.667 -26.334 -60 -35.001s-57.666 -13 -96.999 -13c-14.667 0 -33 4.16699 -55 12.5s-40 18.833 -54 31.5c-24 20.667 -44.833 53.5 -62.5 98.5
s-26.5 99.167 -26.5 162.5c0 109.333 5.66699 185.333 17 228s22.166 70.667 32.499 84l19.5 25c17.333 26 38.5 46.833 63.5 62.5s57.5 23.5 97.5 23.5c35.333 0 63.833 -5.5 85.5 -16.5s41.834 -29.167 60.501 -54.5c14 -18.667 25.667 -39.334 35 -62.001
s17.166 -57.334 23.499 -104.001s9.5 -108.667 9.5 -186c0 -28.667 -3.33301 -61.334 -10 -98.001zM173 287.005c0 -44 6.83301 -80.501 20.5 -109.501s36.5 -43.5 68.5 -43.5c29.333 0 51.5 15.833 66.5 47.5s22.5 66.834 22.5 105.501c0 98 -7.66699 167.667 -23 209
s-37.333 62 -66 62c-59.333 0 -89 -90.333 -89 -271z" />
    <glyph glyph-name="P" unicode="P" horiz-adv-x="467" 
d="M305 682c37.333 -18.667 67.668 -48.333 91.001 -89s35 -92.334 35 -155.001c0 -50 -9.33301 -93.5 -28 -130.5s-43.834 -65.5 -75.501 -85.5s-66.834 -30 -105.501 -30c-12 0 -24.667 1 -38 3c0 -110.667 -0.666992 -171 -2 -181c-1.33301 -7.33301 -3 -11.833 -5 -13.5
s-5.33301 -2.5 -10 -2.5l-26 1c-5.33301 0.666992 -13 1 -23 1l-35 -1c-22 0 -33 5.33301 -33 16l1 64c0.666992 8.66699 1 19 1 31v103l1 57l-1 85v336c0 2.66699 5.33301 5.33398 16 8.00098c14.667 3.33301 29.334 6 44.001 8s39 3 73 3
c42.667 0 82.667 -9.33301 120 -28zM278.002 345.501c14.667 14.333 22 39.167 22 74.5c0 46 -8.66699 80.5 -26 103.5s-43 34.5 -77 34.5c-5.33301 0 -10 -0.333008 -14 -1v-6v-224c12 -2 23.333 -3 34 -3c26 0 46.333 7.16699 61 21.5z" />
    <glyph glyph-name="Q" unicode="Q" horiz-adv-x="500" 
d="M375 60c-14 -14.667 -31.6709 -26.0029 -53.0039 -34.0029l14 -12c20.667 -14 42.667 -25.333 66 -34c8 -2.66699 12 -9.66699 12 -21s-3.66699 -24.333 -11 -39s-16.166 -26.667 -26.499 -36s-19.833 -12.666 -28.5 -9.99902c-41.333 14 -76 37.333 -104 70
c-20 22.667 -34 46.334 -42 71.001c-26.667 6.66699 -51.667 20 -75 40c-24.667 21.333 -45.667 52.833 -63 94.5s-26 93.834 -26 156.501c0 105.333 5.33301 177.5 16 216.5s21.334 64.5 32.001 76.5s17.667 20.333 21 25c17.333 26 37.833 46.833 61.5 62.5
s53.5 23.5 89.5 23.5c30.667 0 56.334 -5.66699 77.001 -17s40.334 -29.333 59.001 -54c15.333 -20.667 27.333 -40.334 36 -59.001s16.167 -49.667 22.5 -93s9.5 -103.666 9.5 -180.999c0 -27.333 -3.16699 -58 -9.5 -92s-18.833 -67 -37.5 -99
c-12.667 -22 -26 -40.333 -40 -55zM310.496 206.497c13.667 29 20.5 62.1689 20.5 99.502c0 95.333 -7 161.166 -21 197.499s-33.333 54.5 -58 54.5c-23.333 0 -42.333 -18.333 -57 -55s-22 -102.334 -22 -197.001c0 -42 6.16699 -76.333 18.5 -103s32.5 -40 60.5 -40
c25.333 0 44.833 14.5 58.5 43.5z" />
    <glyph glyph-name="R" unicode="R" horiz-adv-x="462" 
d="M440 49c0 -6 -5.00098 -12.3379 -15.001 -19.0049c-13.333 -7.33301 -27.333 -13.666 -42 -18.999l-26 -9c-18 -8 -31 -12 -39 -12c-7.33301 0 -13.833 2.5 -19.5 7.5s-12.5 14.833 -20.5 29.5c-2 3.33301 -9 18.333 -21 45c-13.333 28.667 -20.333 43.334 -21 44.001
l-9 18l-36 70c-3.33301 0 -5.66602 0.333008 -6.99902 1c0 -116 -0.666992 -179.667 -2 -191c-1.33301 -7.33301 -3 -11.833 -5 -13.5s-5.33301 -2.5 -10 -2.5l-26 1c-5.33301 0.666992 -13 1 -23 1l-35 -1c-22 0 -33 5.33301 -33 16l1 64c0.666992 8.66699 1 19 1 31v103
l1 57l-1 85v336c0 2.66699 5.33301 5.33398 16 8.00098c14.667 3.33301 29.334 6 44.001 8s39 3 73 3c46 0 87.167 -11.167 123.5 -33.5s65 -53.666 86 -93.999s31.5 -86.833 31.5 -139.5c0 -51.333 -9.83301 -95.5 -29.5 -132.5s-46.167 -64.833 -79.5 -83.5l20 -30l35 -53
c5.33301 -8 15.666 -21.333 30.999 -40c20 -25.333 31 -39.666 33 -42.999c2.66699 -4 4 -8 4 -12zM182.999 555.995v-5v-233v-2c14.667 -1.33301 25.667 -2 33 -2c22.667 0 41.5 9.5 56.5 28.5s22.5 46.5 22.5 82.5c0 44 -7.5 77.167 -22.5 99.5s-33.833 33.5 -56.5 33.5
c-7.33301 0 -18.333 -0.666992 -33 -2z" />
    <glyph glyph-name="S" unicode="S" horiz-adv-x="467" 
d="M217 420.5c16 -15.667 41.335 -34.5 76.002 -56.5c30.667 -20 55.5 -37.667 74.5 -53s35.333 -34.666 49 -57.999s20.5 -50.666 20.5 -81.999c0 -60.667 -19.667 -107.334 -59 -140.001s-91 -49 -155 -49c-36 0 -68.5 5 -97.5 15s-51.667 21.833 -68 35.5
s-24.5 26.167 -24.5 37.5c0 12 3.33301 28.667 10 50s14.5 40.166 23.5 56.499s17.167 24.5 24.5 24.5c3.33301 0 6 -1.33301 8 -4c15.333 -19.333 34.5 -34.666 57.5 -45.999s46.167 -17 69.5 -17c46.667 0 70 15 70 45c0 14 -6.33301 26.667 -19 38
s-32.667 25.666 -60 42.999c-32 20 -58.667 38.833 -80 56.5s-39.833 40.5 -55.5 68.5s-23.5 61 -23.5 99c0 42 8.66699 80.167 26 114.5s42.666 61.5 75.999 81.5s73.333 30 120 30c17.333 0 36.5 -3.5 57.5 -10.5s38.833 -15.5 53.5 -25.5s22 -18.333 22 -25
c0 -13.333 -4 -30.333 -12 -51s-17 -39.167 -27 -55.5s-18 -24.5 -24 -24.5c-2.66699 0 -8.33398 4 -17.001 12s-17.5 14.667 -26.5 20s-19.5 8 -31.5 8c-24.667 0 -44.5 -7.33301 -59.5 -22s-22.5 -34.667 -22.5 -60c0 -21.333 8 -39.833 24 -55.5z" />
    <glyph glyph-name="T" unicode="T" horiz-adv-x="464" 
d="M425.5 695c3.66699 -3.33301 5.49805 -10.001 5.49805 -20.001v-46l-1 -46c0 -6.66699 -4.83301 -11.167 -14.5 -13.5s-24.167 -3.5 -43.5 -3.5l-48 1h-27c0.666992 -10 1 -25.333 1 -46v-135l1 -251c0 -69.333 -0.666992 -109.666 -2 -120.999
c-1.33301 -7.33301 -3 -11.833 -5 -13.5s-5.33301 -2.5 -10 -2.5l-26 1c-5.33301 0.666992 -13 1 -23 1l-35 -1c-22 0 -33 5.33301 -33 16l1 64c0.666992 8.66699 1 19 1 31v213l1 57l-1 85v103h-120c-9.33301 0 -14 8.66699 -14 26v34v57c0 6.66699 1.33301 10.667 4 12
s8.33398 2.33301 17.001 3l129 -1l166 -2l35 2l26 1c6.66699 0 11.834 -1.66699 15.501 -5z" />
    <glyph glyph-name="U" unicode="U" horiz-adv-x="495" 
d="M448 287c0 -30.667 -3.33398 -65.832 -10.001 -105.499s-19 -75.167 -37 -106.5c-18 -30.667 -39.167 -53.834 -63.5 -69.501s-54.833 -23.5 -91.5 -23.5c-19.333 0 -38.5 4 -57.5 12s-36.167 18.667 -51.5 32c-24 20.667 -44.833 53.5 -62.5 98.5
s-26.5 99.167 -26.5 162.5l-1 268v136c0 4 8 7.16699 24 9.5s34.333 3.5 55 3.5c24.667 0 40.334 -1.33301 47.001 -4s10 -11 10 -25l-1 -85l1 -303c0 -102 21 -153 63 -153c24.667 0 42.667 15.5 54 46.5s17 66.5 17 106.5l-1 268v130c0 6 8.66699 10.5 26 13.5
s36.333 4.5 57 4.5s33 -1 37 -3c6.66699 -2.66699 10 -11 10 -25l1 -84v-73z" />
    <glyph glyph-name="V" unicode="V" horiz-adv-x="502" 
d="M438.5 686.5c10.333 -2.33301 18.3311 -5.66895 23.998 -10.002s8.5 -10.166 8.5 -17.499c0 -0.666992 -4 -17 -12 -49l-65 -271l-8 -29l-13 -53c-4 -15.333 -8.33301 -34 -13 -56c-4.66699 -16.667 -13 -50 -25 -100c0.666992 2 -1.66602 -7.66699 -6.99902 -29l-14 -63
c-2 -8 -9 -12 -21 -12c-5.33301 0 -11.5 0.5 -18.5 1.5s-14.5 1.5 -22.5 1.5l-36 -1c-7.33301 0 -13.166 0.833008 -17.499 2.5s-7.16602 5.16699 -8.49902 10.5l-14 63c-5.33301 21.333 -7.66602 31 -6.99902 29l-59 235l-75 302c-2.66699 8 -4 16 -4 24
c0 5.33301 4.83301 10 14.5 14s23.834 8.33301 42.501 13c24.667 7.33301 43 11 55 11c7.33301 0 12.666 -7.33301 15.999 -22l15 -60l14 -83c7.33301 -34 13.666 -62 18.999 -84l17 -72c4.66699 -20.667 9 -42.667 13 -66c1.33301 -5.33301 3 -13.5 5 -24.5
s3.83301 -18.667 5.5 -23s3.16699 -6.5 4.5 -6.5c2 0 4.16699 4.16699 6.5 12.5s5.16602 20.5 8.49902 36.5c0.666992 5.33301 1.66699 10.5 3 15.5s2.33301 10.167 3 15.5l35 176l27 118l10 45c1.33301 6.66699 3.5 12 6.5 16s6.16699 6 9.5 6c12 0 30.333 -3.66699 55 -11
c4.66699 -1.33301 12.167 -3.16602 22.5 -5.49902z" />
    <glyph glyph-name="W" unicode="W" horiz-adv-x="703" 
d="M668 665c0 -4.66699 -1.49805 -15.1689 -4.49805 -31.502s-6.5 -32.833 -10.5 -49.5c-5.33301 -22 -13.666 -66 -24.999 -132l-22 -113c-8.66699 -38 -18 -81.333 -28 -130c-14.667 -67.333 -22.334 -102.333 -23.001 -105c0.666992 2 -1.66602 -7.66699 -6.99902 -29
l-14 -63c-2.66699 -8.66699 -14.667 -13 -36 -13l-41 1c-6 0 -11.833 -0.5 -17.5 -1.5s-9.83398 -1.5 -12.501 -1.5c-5.33301 0 -9 4 -11 12c-6 22.667 -13 59.334 -21 110.001c-13.333 92 -23 155 -29 189s-10.667 51 -14 51s-12 -44 -26 -132
c-6 -39.333 -10.667 -67 -14 -83l-4 -22c-6.66699 -46 -12.334 -77.333 -17.001 -94c-2.66699 -10 -7.33398 -17.167 -14.001 -21.5s-17.334 -6.5 -32.001 -6.5l-38 -1c-20 0 -31.333 4.33301 -34 13l-14 63c-5.33301 21.333 -7.66602 31 -6.99902 29l-20 88l-35 147
l-22 113c-11.333 66 -19.666 110 -24.999 132c-4 16.667 -7.5 33.167 -10.5 49.5s-4.5 26.833 -4.5 31.5c0 5.33301 4.83301 10 14.5 14s23.834 8.33301 42.501 13c24.667 7.33301 43 11 55 11c4.66699 0 10 -2.33301 16 -7s9.33301 -9.66699 10 -15l13 -92
c0 0.666992 6.66699 -47 20 -143l11 -98c2.66699 -26 5.5 -49 8.5 -69s5.5 -30 7.5 -30c3.33301 0 8.5 20 15.5 60s16.167 97.667 27.5 173c2.66699 19.333 7.16699 49.833 13.5 91.5s12.166 77.5 17.499 107.5c1.33301 6 3.5 11.167 6.5 15.5s6.16699 6.5 9.5 6.5h61
c3.33301 0 6.5 -2.16699 9.5 -6.5s5.16699 -9.5 6.5 -15.5c6.66699 -37.333 18.667 -117.666 36 -240.999c9.33301 -69.333 16.666 -119.833 21.999 -151.5s9.66602 -47.5 12.999 -47.5c2.66699 0 5.33398 8.66699 8.00098 26s6 46 10 86c4.66699 44 9.66699 87 15 129
l13 105l7 55.5c2.66699 21 4.66699 33.833 6 38.5c1.33301 5.33301 4.83301 10.333 10.5 15s10.834 7 15.501 7c9.33301 0 22.666 -1.16699 39.999 -3.5s30 -4.5 38 -6.5c22.667 -6 34 -15.333 34 -28z" />
    <glyph glyph-name="X" unicode="X" horiz-adv-x="491" 
d="M416.5 140.5c25.667 -49.667 39.8359 -78.165 42.5029 -85.498c1.33301 -6.66699 2 -10.334 2 -11.001c0 -2.66699 -0.833008 -4.83398 -2.5 -6.50098s-3.5 -2.83398 -5.5 -3.50098s-3.33301 -1.33398 -4 -2.00098l-41 -19c-5.33301 -2.66699 -14 -7.5 -26 -14.5
s-21.333 -10.5 -28 -10.5c-6 0 -10.333 2.66699 -13 8c-6 11.333 -17.333 36 -34 74c-4.66699 11.333 -10.334 23.666 -17.001 36.999c-8 16 -15 32 -21 48l-20 44l-9 18l-6 -13c-26 -54 -43.333 -89 -52 -105c-22.667 -48.667 -39.334 -83 -50.001 -103
c-2.66699 -5.33301 -6.66699 -8 -12 -8c-6 0 -16 4.66699 -30 14c-2 0.666992 -8.66699 4.33398 -20 11.001l-41 19c-4.66699 2 -7.83398 4 -9.50098 6s-2.5 4.66699 -2.5 8l2 9l46 97l49 101c29.333 56 46.333 89 51 99l3 6l-126 260c-6 10 -9 17.333 -9 22
c0 7.33301 3 13.333 9 18s13.167 8.83398 21.5 12.501s14.5 6.5 18.5 8.5c27.333 15.333 44.333 23 51 23c7.33301 0 14.333 -6 21 -18c0.666992 -1.33301 7.33398 -16.666 20.001 -45.999c4 -10.667 7.66699 -19.667 11 -27l8 -18
c7.33301 -14.667 21.333 -46.334 42 -95.001c4 -7.33301 9.33301 -19 16 -35l24 46l18.5 33.5c9.66699 17.667 19.834 41.5 30.501 71.5c3.33301 10 8.33301 22.333 15 37s12 25.667 16 33c6.66699 12 13.667 18 21 18c4.66699 0 11.667 -3.16699 21 -9.5
s16.666 -10.833 21.999 -13.5c13.333 -7.33301 25.166 -14.666 35.499 -21.999s15.5 -13.333 15.5 -18c0 -6.66699 -12.833 -35.834 -38.5 -87.501l-96.5 -191.5l-17 -37c20 -33.333 33.333 -56.666 40 -69.999z" />
    <glyph glyph-name="Y" unicode="Y" horiz-adv-x="491" 
d="M445.5 503c0.333008 -8 0.499023 -23.335 0.499023 -46.002c0 -58.667 -14 -112 -42 -160c-13.333 -23.333 -26.833 -41.833 -40.5 -55.5s-30.5 -23.834 -50.5 -30.501v-76c0 -69.333 -0.666992 -109.666 -2 -120.999c-1.33301 -7.33301 -3 -11.833 -5 -13.5
s-5.33301 -2.5 -10 -2.5l-26 1c-5.33301 0.666992 -13 1 -23 1l-35 -1c-22 0 -33 5.33301 -33 16l1 64c0.666992 8.66699 1 19 1 31v104c-16.667 7.33301 -33 18 -49 32c-26 22.667 -46.833 49.834 -62.5 81.501s-23.5 74.834 -23.5 129.501
c0 34.667 -0.333008 57.667 -1 69v29v136c0 4 8 7.16699 24 9.5s34.333 3.5 55 3.5c24.667 0 40.334 -1.33301 47.001 -4s10 -11 10 -25l-1 -85l1 -123c0 -37.333 4.5 -68.833 13.5 -94.5s26.833 -38.5 53.5 -38.5c24 0 41.167 14.333 51.5 43s15.5 58.667 15.5 90l-1 88
v130c0 6 8.66699 10.5 26 13.5s36.333 4.5 57 4.5s33 -1 37 -3c6.66699 -2.66699 10 -11 10 -25l1 -84v-73c0 -2 0.166992 -7 0.5 -15z" />
    <glyph glyph-name="Z" unicode="Z" horiz-adv-x="487" 
d="M446 39c2 -6.66699 2.99805 -11.665 2.99805 -14.998c0 -10 -2.66699 -16.5 -8 -19.5s-13.666 -4.5 -24.999 -4.5l-74 1l-295 -1c-9.33301 0 -14 8.66699 -14 26v31v47c0 8 5.16699 21.333 15.5 40s28.5 49 54.5 91c36 57.333 60 97.666 72 120.999
c7.33301 15.333 29.666 58 66.999 128l35 66l-209 -1c-9.33301 0 -14 8.66699 -14 26v40v71c0 3.33301 -0.333008 6.16602 -1 8.49902s-1 3.83301 -1 4.5c0 2.66699 3 4 9 4l86 -1c13.333 -0.666992 30 -1 50 -1l159 -1l35 2l26 1c6.66699 0 11.834 -1.66699 15.501 -5
s5.5 -10 5.5 -20c0 -5.33301 -0.833008 -12.5 -2.5 -21.5s-2.5 -19.833 -2.5 -32.5c0 -6.66699 0.333008 -12.167 1 -16.5s1 -9.5 1 -15.5c0 -16.667 -2.5 -30 -7.5 -40l-8.5 -17c-0.666992 -4.66699 -12.5 -26.834 -35.5 -66.501l-64.5 -108.5l-18 -32l-46 -83.5l-52 -99.5
l164 1l35 2l26 1c6.66699 0 11.834 -1.66699 15.501 -5s5.5 -10 5.5 -20c0 -5.33301 -0.666992 -16.666 -2 -33.999l-3 -27c-0.666992 -9.33301 0 -17.333 2 -24z" />
    <glyph glyph-name="bracketleft" unicode="[" horiz-adv-x="322" 
d="M283 -54c3.33301 -13.333 5.00195 -27.6699 5.00195 -43.0029c0 -18 -3 -27.333 -9 -28c-28 -4.66699 -62.667 -7 -104 -7c-24 0 -47.167 2.83301 -69.5 8.5s-33.5 13.834 -33.5 24.501l-1 328c0 165.333 -1 331 -3 497c0 13.333 36.333 20 109 20
c42 0 76 -1.33301 102 -4c6 -0.666992 9 -10 9 -28c0 -15.333 -1.66699 -30.166 -5 -44.499s-7.33301 -21.5 -12 -21.5c-30 0 -60 -1 -90 -3v-169c1.33301 -129.333 2.66602 -225.666 3.99902 -288.999c1.33301 -48.667 2.66602 -121.667 3.99902 -219
c36 -1.33301 63.333 -2 82 -2c4.66699 0 8.66699 -6.66699 12 -20z" />
    <glyph glyph-name="backslash" unicode="\" horiz-adv-x="336" 
d="M129 260c-10.667 57.333 -21.668 113.001 -33.001 167.001l-41 187l-6 28l-12 57c-2 7.33301 -3 17.666 -3 30.999c0 6.66699 1 11 3 13c7.33301 6.66699 27.333 10 60 10c16 0 28.833 -1 38.5 -3s15.167 -6 16.5 -12l12 -54l29 -136l40 -198l29 -132l51 -237l11 -45
c6 -24 9 -38.333 9 -43c0 -14.667 -8 -23 -24 -25c-14 -2 -27.333 -3 -40 -3l-34 1c-7.33301 0 -13.666 3.16699 -18.999 9.5s-9.33301 14.833 -12 25.5l-60 284z" />
    <glyph glyph-name="bracketright" unicode="]" horiz-adv-x="322" 
d="M254 726c-2 -166 -2.99805 -331.663 -2.99805 -496.996l-1 -328c0 -10.667 -11.167 -18.834 -33.5 -24.501s-45.5 -8.5 -69.5 -8.5c-41.333 0 -76 2.33301 -104 7c-6 0.666992 -9 10 -9 28c0 15.333 1.66699 29.666 5 42.999s7.33301 20 12 20c18.667 0 46 0.666992 82 2
c1.33301 97.333 2.66602 170.333 3.99902 219c1.33301 63.333 2.66602 159.666 3.99902 288.999v169c-30 2 -60 3 -90 3c-4.66699 0 -8.66699 7.16699 -12 21.5s-5 29.166 -5 44.499c0 18 3 27.333 9 28c26 2.66699 60 4 102 4c72.667 0 109 -6.66699 109 -20z" />
    <glyph glyph-name="underscore" unicode="_" horiz-adv-x="379" 
d="M134 -5l61.002 0.00292969h133c10 0 15 -28.333 15 -85c0 -12.667 -0.833008 -23.334 -2.5 -32.001s-5.83398 -13 -12.501 -13c-3.33301 0 -9.83301 -0.333008 -19.5 -1s-22.834 -1 -39.501 -1l-219 1c-4.66699 0 -8.16699 7.66699 -10.5 23s-3.5 32.666 -3.5 51.999
c0 11.333 1 23.666 3 36.999s5.33301 20 10 20z" />
    <glyph glyph-name="grave" unicode="`" horiz-adv-x="600" 
d="M277 605c2 -4.66699 2.99805 -8.66699 2.99805 -12c0 -8 -5.66699 -13.833 -17 -17.5s-24 -5.5 -38 -5.5c-19.333 0 -30 1.66699 -32 5l-87 131c-16 24 -24 40 -24 48c0 11.333 15.333 17 46 17c22.667 0 45.334 -2.66699 68.001 -8s36 -14 40 -26
c18.667 -62 32.334 -106 41.001 -132z" />
    <glyph glyph-name="a" unicode="a" horiz-adv-x="468" 
d="M76.5 346.5c27.667 52.333 64.5 92.666 110.5 120.999s94.667 42.5 146 42.5c20.667 0 35.167 -0.5 43.5 -1.5s17.833 -3.5 28.5 -7.5c7.33301 -2.66699 12.333 -9 15 -19s4 -29.667 4 -59l1 -110v-125l-1 -142c0 -12 -1.16699 -22.667 -3.5 -32s-5.5 -14 -9.5 -14
c-8 0 -16 -1 -24 -3c-13.333 -2.66699 -27.333 -4 -42 -4l-20 1c-4 0 -7.83301 2 -11.5 6s-5.5 8 -5.5 12l1 85c0 27.333 -1 39.333 -3 36c-2 -4 -11.333 -20.167 -28 -48.5s-36.5 -53.166 -59.5 -74.499s-44.833 -32 -65.5 -32c-37.333 0 -66.333 17.333 -87 52
s-31 80 -31 136c0 68 13.833 128.167 41.5 180.5zM240.5 354c-17 -12.667 -31.5 -29.332 -43.5 -49.999s-20 -42 -24 -64c-3.33301 -21.333 -5 -40.333 -5 -57c0 -15.333 1 -27.833 3 -37.5s5 -14.5 9 -14.5c10 0 22.333 6.33301 37 19s28.667 28 42 46l16.5 22.5
c9 12.333 16.167 23.833 21.5 34.5c1.33301 6.66699 2 29 2 67c0 34 -1.33301 51 -4 51c-19.333 1.33301 -37.5 -4.33398 -54.5 -17.001z" />
    <glyph glyph-name="b" unicode="b" horiz-adv-x="488" 
d="M57 163c-2 30 -3.00293 71.333 -3.00293 124l1 273l-2 38c-2 17.333 -3 33.333 -3 48c0 16 0.333008 28.333 1 37s2.66699 13.334 6 14.001c14.667 5.33301 25.334 8.66602 32.001 9.99902s18 2 34 2c21.333 0 39.333 -6.33301 54 -19
c4 -2.66699 6.5 -5.83398 7.5 -9.50098s1.5 -8.5 1.5 -14.5l-1 -45c0 -48 -0.333008 -81.667 -1 -101l-1 -16c0 -8 1 -12 3 -12c92.667 0 160.167 -27 202.5 -81s63.5 -132.333 63.5 -235c0 -59.333 -10.667 -105.166 -32 -137.499s-50 -48.5 -86 -48.5
c-27.333 0 -52.166 10 -74.499 30s-40.166 40.667 -53.499 62l-13 23c-1.33301 2 -3.5 5.83301 -6.5 11.5s-5.5 8.5 -7.5 8.5c-0.666992 0 -1.5 -10.5 -2.5 -31.5s-1.5 -42.5 -1.5 -64.5c-1.33301 -9.33301 -3.83301 -16.5 -7.5 -21.5s-9.83398 -7.5 -18.501 -7.5
c-4.66699 0 -11.667 -0.5 -21 -1.5s-17.666 -1.5 -24.999 -1.5c-29.333 0 -44 7.66699 -44 23c0 50.667 -0.333008 83.667 -1 99zM267.997 148.5c8.66699 -6.33301 17.334 -9.49902 26.001 -9.49902c10 0 17.333 6.66699 22 20s7 34.333 7 63
c0 21.333 -4.66699 42.166 -14 62.499s-22.666 37.833 -39.999 52.5c-11.333 9.33301 -24 15.666 -38 18.999s-25.667 5 -35 5c-6.66699 0 -10.334 -3.33301 -11.001 -10l1 -88c2.66699 -8 8.16699 -19.167 16.5 -33.5s17.166 -27.166 26.499 -38.499
c17.333 -22 30.333 -36.167 39 -42.5z" />
    <glyph glyph-name="c" unicode="c" horiz-adv-x="420" 
d="M342 504c7.33301 -2 13.334 -6.16504 18.001 -12.498s7 -12.5 7 -18.5c0 -32 -3.33301 -62.167 -10 -90.5s-13 -42.5 -19 -42.5c-2.66699 0 -8.66699 1.83301 -18 5.5s-21 5.5 -35 5.5c-17.333 0 -35 -5 -53 -15s-33 -23.5 -45 -40.5s-18 -34.833 -18 -53.5
c0 -37.333 7.83301 -64.666 23.5 -81.999s33.167 -26 52.5 -26c16 0 29.833 2.66699 41.5 8s22 11.166 31 17.499s14.5 9.5 16.5 9.5c5.33301 0 11.333 -4.33301 18 -13l13 -20c6.66699 -10.667 11.667 -19.334 15 -26.001c1.33301 -2.66699 4.5 -8.33398 9.5 -17.001
s7.5 -16.334 7.5 -23.001c0 -4 -1.5 -8 -4.5 -12s-6 -7.5 -9 -10.5l-8.5 -8.5c-20 -20 -38.167 -33.167 -54.5 -39.5s-38.833 -9.5 -67.5 -9.5c-67.333 0 -117 20.333 -149 61c-24.667 32 -42 63.667 -52 95s-15 70.333 -15 117c0 32 6.33301 62.833 19 92.5
s29.5 55.834 50.5 78.501s42.833 39.667 65.5 51c35.333 16.667 73.666 25 114.999 25c16.667 0 35 -2 55 -6z" />
    <glyph glyph-name="d" unicode="d" horiz-adv-x="495" 
d="M299 694c0 5.33301 9.50098 9.66504 28.501 12.998s34.5 5 46.5 5c20 0 36.833 -1.66699 50.5 -5s20.5 -7.33301 20.5 -12c0 -8.66699 -1 -37 -3 -85c-1.33301 -26.667 -2 -45.334 -2 -56.001l-1 -80l-2 -64c-2 -24.667 -3 -46 -3 -64
c0 -23.333 -0.666992 -66.333 -2 -129l-2 -56l1 -93c0 -22 -0.333008 -36.333 -1 -43c-0.666992 -11.333 -7.33398 -18.666 -20.001 -21.999c-7.33301 -2 -20.666 -3 -39.999 -3c-24.667 0 -40.667 1.16699 -48 3.5s-11 7.5 -11 15.5c0 11.333 0.333008 20.333 1 27l1 70
c0 4.66699 -0.333008 8.83398 -1 12.501s-2 5.5 -4 5.5s-6.83301 -7.5 -14.5 -22.5s-15.834 -31.833 -24.501 -50.5c-6.66699 -14.667 -20 -30.167 -40 -46.5s-42.333 -24.5 -67 -24.5c-24 0 -45.667 10.333 -65 31s-34.5 46.834 -45.5 78.501s-16.5 63.5 -16.5 95.5
c0 33.333 3.33301 67.333 10 102s16.667 62.667 30 84c22.667 38 44.167 65 64.5 81s50.5 29 90.5 39c16 4 32.333 6 49 6h19c2 8.66699 3 19.667 3 33v99zM232.001 365.499c-18 -9 -32.332 -23.8311 -42.999 -44.498c-6.66699 -12.667 -12.334 -29.167 -17.001 -49.5
s-7 -42.5 -7 -66.5c0 -18 3.66699 -33.667 11 -47s17.666 -20 30.999 -20c18 0 46 39.667 84 119c0.666992 2 2.16699 5.33301 4.5 10s3.5 9 3.5 13c1.33301 23.333 2 49.666 2 78.999c0 2 0.333008 4.66699 1 8s0.833984 6.16602 0.500977 8.49902s-1.83301 3.5 -4.5 3.5
c-26 0 -48 -4.5 -66 -13.5z" />
    <glyph glyph-name="e" unicode="e" horiz-adv-x="459" 
d="M109 436c44.667 49.333 101.003 74.0029 169.003 74.0029c46.667 0 82.334 -11 107.001 -33s37 -54.333 37 -97c0 -44 -12.333 -81.833 -37 -113.5s-55.834 -56.334 -93.501 -74.001s-76.5 -28.167 -116.5 -31.5c7.33301 -14.667 17.833 -25.667 31.5 -33
s29.167 -11 46.5 -11c19.333 0 35.666 3.5 48.999 10.5s24.666 14.667 33.999 23s14.666 12.5 15.999 12.5c5.33301 0 11.333 -4.33301 18 -13c12 -12.667 21.333 -26 28 -40c1.33301 -2.66699 4.5 -8.33398 9.5 -17.001s7.5 -16.334 7.5 -23.001
c0 -5.33301 -1.83301 -10.333 -5.5 -15s-9.16699 -10 -16.5 -16c-20.667 -18.667 -42.667 -31.5 -66 -38.5s-52 -10.5 -86 -10.5c-40 0 -75.5 10.5 -106.5 31.5s-55 50.333 -72 88s-25.5 80.167 -25.5 127.5c0 80 24 146.333 72 199zM238.503 264.003
c20.333 8.66699 35.332 18.668 44.999 30.001s14.5 22.666 14.5 33.999c0 22 -13 33 -39 33c-12.667 0 -25.667 -5 -39 -15s-25.166 -23.5 -35.499 -40.5s-17.166 -35.833 -20.499 -56.5c29.333 1.33301 54.166 6.33301 74.499 15z" />
    <glyph glyph-name="f" unicode="f" horiz-adv-x="465" 
d="M456 590c0.666992 -6.66699 -1.16309 -13.335 -5.49609 -20.002s-11.5 -10 -21.5 -10c-3.33301 0.666992 -11.666 1 -24.999 1c-20.667 0 -37.667 -1.33301 -51 -4c-21.333 -4 -40.666 -16.333 -57.999 -37c-12 -14.667 -22.333 -31.334 -31 -50.001h69l35 1
c12 0 21 -1 27 -3c7.33301 -2 11 -17.333 11 -46c0 -30 -0.666992 -50 -2 -60c-1.33301 -8 -5.83301 -13.167 -13.5 -15.5s-16.834 -3.5 -27.501 -3.5c-16 0 -35.333 -0.666992 -58 -2c-4.66699 0 -13.334 -0.5 -26.001 -1.5s-25 -1.16699 -37 -0.5
c-0.666992 -7.33301 -1 -18.666 -1 -33.999c0 -85.333 0.666992 -138.666 2 -159.999c3.33301 -54 6.66602 -98 9.99902 -132c0 -3.33301 -0.833008 -6.33301 -2.5 -9s-4.16699 -4 -7.5 -4h-25c-10.667 0 -18.334 -0.333008 -23.001 -1c-14.667 -2 -26.334 -3 -35.001 -3
l-34 1c-5.33301 0 -9 2.66699 -11 8s-3.16699 10.5 -3.5 15.5s-0.5 8.16699 -0.5 9.5c-2.66699 26 -4 64.333 -4 115l1 135c0 10 0.666992 30.333 2 61h-59c-6 0 -9.83301 2.16699 -11.5 6.5s-2.5 10.833 -2.5 19.5s0.666992 21 2 37l1 26c-1.33301 8 -2 13 -2 15
c0 8.66699 3 15 9 19s15.667 6 29 6h48l4 24c2 12 8 29 18 51s20.333 40 31 54c21.333 28.667 50.166 54 86.499 76s74.5 33 114.5 33c10.667 0 18.5 -0.166992 23.5 -0.5s9.83301 -1.16602 14.5 -2.49902c4.66699 -2.66699 11 -4.66699 19 -6c7.33301 -2 13 -9 17 -21
s6 -26.667 6 -44c-1.33301 -20 -2 -34.667 -2 -44z" />
    <glyph glyph-name="g" unicode="g" horiz-adv-x="494" 
d="M389.5 509c16.333 -2 26.835 -3.33789 31.502 -4.00488c6.66699 -1.33301 13 -5.16602 19 -11.499s9 -12.5 9 -18.5c1.33301 -29.333 2 -62.666 2 -99.999l-2 -56l-2 -62c0 -27.333 -2.33301 -61.333 -7 -102c-1.33301 -8.66699 -2.33301 -17 -3 -25l-2 -23
c-4.66699 -46 -13.334 -90.667 -26.001 -134s-30 -79 -52 -107c-19.333 -24.667 -41.333 -43.5 -66 -56.5s-57.667 -19.5 -99 -19.5c-21.333 0 -41.833 3.33301 -61.5 10s-35.5 14.334 -47.5 23.001c-6 4.66699 -9 14.667 -9 30c0 10 5.16699 27.833 15.5 53.5
s17.5 40.167 21.5 43.5c4.66699 3.33301 9 5 13 5c2 0 4.33301 -0.5 7 -1.5s4.66699 -1.5 6 -1.5c4 -1.33301 7.66699 -2.66602 11 -3.99902s6.66602 -2.33301 9.99902 -3c7.33301 -3.33301 15 -6 23 -8s15.667 -3 23 -3c19.333 0 34.333 6.66699 45 20s21.667 33 33 59
c8 18.667 13.333 37 16 55s4 32.333 4 43c-12 -22.667 -28.167 -42.5 -48.5 -59.5s-39.833 -25.5 -58.5 -25.5c-53.333 0 -93.333 19.333 -120 58s-40 86.334 -40 143.001c0 54 12.667 102.667 38 146s60 77.333 104 102s93.333 37 148 37c26.667 0 48.167 -1 64.5 -3z
M246.502 171.495c11 10.333 22.832 24.168 35.499 41.501c6.66699 9.33301 16.334 32.666 29.001 69.999c1.33301 4 2 33.333 2 88c0 6.66699 -4 10 -12 10c-16 2 -34.333 -4 -55 -18s-38.5 -33.5 -53.5 -58.5s-22.5 -51.833 -22.5 -80.5c0 -20.667 3.5 -37.167 10.5 -49.5
s18.167 -18.5 33.5 -18.5c10.667 0 21.5 5.16699 32.5 15.5z" />
    <glyph glyph-name="h" unicode="h" horiz-adv-x="447" 
d="M178 653l-0.00292969 -52.001v-102h16c28 0 49.333 -2.66699 64 -8s31.334 -15.333 50.001 -30c34.667 -28.667 59.667 -65 75 -109c7.33301 -20.667 13.5 -42.834 18.5 -66.501s7.5 -43.167 7.5 -58.5v-36v-73l-2 -91c0 -7.33301 -2.33301 -13.666 -7 -18.999
s-10.667 -8 -18 -8h-29c-27.333 0 -47 1 -59 3s-18 6.66699 -18 14c0 43.333 0.666992 76.333 2 99c0.666992 5.33301 1 12 1 20c0 10.667 -0.333008 19 -1 25l-1 37c-0.666992 56 -9.16699 96.167 -25.5 120.5s-41.166 36.5 -74.499 36.5c-3.33301 0 -5 -16 -5 -48
c0 -24 -0.666992 -49.333 -2 -76l-1 -41c0 -32.667 -0.333008 -57.334 -1 -74.001c0 -30.667 0.666992 -53 2 -67c0.666992 -5.33301 0.833984 -10.166 0.500977 -14.499s-0.5 -8.16602 -0.5 -11.499v-2c0 -7.33301 -1.83301 -12.666 -5.5 -15.999s-8.16699 -5 -13.5 -5h-86
c-6 0 -11.167 2 -15.5 6s-6.5 9.33301 -6.5 16c0 36.667 0.666992 79.667 2 129l1 76l2 57l1 57l-1 296v47c0 13.333 6.33301 22.666 19 27.999c10.667 4.66699 33 7 67 7h15c15.333 0 24 -2.33301 26 -7c2 -4 3 -23.667 3 -59z" />
    <glyph glyph-name="i" unicode="i" horiz-adv-x="237" 
d="M75 593.5c-8.66699 2.33301 -14.332 4.99902 -16.999 7.99902s-6.33398 8.5 -11.001 16.5c-4 7.33301 -6 25.333 -6 54c0 4 0.666992 13.333 2 28s2 26.334 2 35.001c0 15.333 6.66699 23 20 23l11 -1l25 2c21.333 1.33301 36.666 2 45.999 2
c4.66699 0 10.667 -0.833008 18 -2.5s14 -2.16699 20 -1.5c6 0 9 -3.66699 9 -11c0 -4.66699 0.333008 -10.667 1 -18s1 -17.666 1 -30.999v-57c0 -10.667 -2.16699 -20.834 -6.5 -30.501s-9.83301 -14.5 -16.5 -14.5c-4.66699 0 -11.667 -0.833008 -21 -2.5
s-21.666 -2.5 -36.999 -2.5c-18 0 -31.333 1.16699 -40 3.5zM100.002 509.999c11.333 0 20.001 -0.332031 26.001 -0.999023l33 -1c4.66699 0 10.5 -2.16699 17.5 -6.5s10.833 -9.83301 11.5 -16.5v-10v-39c-0.666992 -8.66699 -1 -30.334 -1 -65.001v-22
c0.666992 -7.33301 1 -23 1 -47c0 -7.33301 0.666992 -19 2 -35l1 -35l2 -50c2 -62 3 -95.667 3 -101v-72c0 -5.33301 -7 -9.5 -21 -12.5s-29.333 -4.5 -46 -4.5c-26.667 0 -44.834 1.5 -54.501 4.5s-14.5 7.16699 -14.5 12.5l2 181c0 18 -0.5 40.5 -1.5 67.5
s-2.16699 49.5 -3.5 67.5c-3.33301 26.667 -5 59.667 -5 99c0 10.667 -0.333008 18.667 -1 24l-1 24c0 18 4.33301 28.667 13 32c8 4 20.333 6 37 6z" />
    <glyph glyph-name="j" unicode="j" horiz-adv-x="244" 
d="M142.5 760c15 -0.666992 25.167 -1.00098 30.5 -1.00098c7.33301 0 13 -2.5 17 -7.5s6 -12.5 6 -22.5v-75c0 -13.333 -0.333008 -23.666 -1 -30.999s-1 -13.333 -1 -18c0 -7.33301 -3 -11 -9 -11h-109l-11 -1c-13.333 0 -20 7.66699 -20 23l-2 44
c-1.33301 28 -2 49 -2 63c0 13.333 1.66699 23 5 29s11.333 9 24 9c33.333 0 57.5 -0.333008 72.5 -1zM49.5 -33.001c9.66699 20 14.501 39.666 14.501 58.999c0 42 -0.333008 69 -1 81v27c0 42 -1.66699 93.333 -5 154s-7.33301 117.667 -12 171c-0.666992 6 0 14 2 24
s6 16 12 18c14 4.66699 30.333 7 49 7c51.333 0 77.666 -6 78.999 -18c2 -24 3 -38.667 3 -44c0 -84.667 0.666992 -161 2 -229v-31c0 -37.333 -1.16699 -78.5 -3.5 -123.5s-4.83301 -81.167 -7.5 -108.5c-5.33301 -36 -17 -66 -35 -90
c-10 -14.667 -24.833 -30.167 -44.5 -46.5s-35.5 -26.166 -47.5 -29.499c-9.33301 -2.66699 -19 2.5 -29 15.5s-18.333 29.333 -25 49s-10 36.5 -10 50.5c0 12 4 19.667 12 23c21.333 7.33301 36.833 21 46.5 41z" />
    <glyph glyph-name="k" unicode="k" horiz-adv-x="466" 
d="M436 52c0 -4 -7.99121 -11.502 -23.9912 -22.502s-28.667 -18.167 -38 -21.5c-10.667 -4 -23.334 -7.83301 -38.001 -11.5s-24.334 -5.5 -29.001 -5.5c-5.33301 0 -15.333 12.833 -30 38.5s-26.667 51.834 -36 78.501c-1.33301 4 -3 7.83301 -5 11.5
s-3.66699 7.16699 -5 10.5s-3.33301 7.5 -6 12.5s-5.33398 11.167 -8.00098 18.5c-2.66699 5.33301 -5 14.333 -7 27c-3.33301 -0.666992 -8 -1 -14 -1c-6.66699 0 -10.834 -0.833008 -12.501 -2.5s-2.83398 -4.83398 -3.50098 -9.50098c-1.33301 -14.667 -2 -35.667 -2 -63
v-33v-34c0 -18.667 -0.333008 -30.334 -1 -35.001c-0.666992 -5.33301 -5.33398 -8.66602 -14.001 -9.99902s-25.334 -2 -50.001 -2c-15.333 0 -29.666 1.83301 -42.999 5.5s-20 7.83398 -20 12.501c0 38.667 1 68.334 3 89.001l1 38c0 15.333 -0.333008 29 -1 41
c-2 72 -3 124.667 -3 158c0 20 0.666992 49.333 2 88l1 67c0 10.667 0.333008 20.334 1 29.001c1.33301 39.333 1.66602 71.666 0.999023 96.999c-0.666992 6 -0.833984 16.167 -0.500977 30.5s0.5 23.5 0.5 27.5c0 6 4.83301 10.5 14.5 13.5s23.5 6.16699 41.5 9.5
c21.333 0 39.166 -2.83301 53.499 -8.5s21.5 -13.5 21.5 -23.5c0 -28 -0.333008 -46.667 -1 -56c-1.33301 -22 -2.83301 -54 -4.5 -96s-2.5 -76.667 -2.5 -104c0 -14.667 0.666992 -36 2 -64l1 -36v-27c0 -4 4.66699 -5 14 -3s20.5 6.33301 33.5 13s24.5 14.667 34.5 24
c11.333 10 19.166 24.667 23.499 44s6.5 38 6.5 56v58c0 6.66699 5.83301 12 17.5 16s26.834 6 45.501 6c22.667 0 39.5 -1.66699 50.5 -5s16.5 -7.66602 16.5 -12.999l-1 -61c0 -29.333 -3.16699 -54.833 -9.5 -76.5s-16.5 -43.834 -30.5 -66.501
c-16.667 -27.333 -44 -50 -82 -68c29.333 -32 54 -58 74 -78c41.333 -40 62 -67.667 62 -83z" />
    <glyph glyph-name="l" unicode="l" horiz-adv-x="234" 
d="M52 691c0 4 6.33398 7 19.001 9s27 3 43 3l26 1c16.667 0 27.334 -1.33301 32.001 -4c6.66699 -2.66699 10 -11 10 -25c0 -5.33301 0.333008 -10.833 1 -16.5s1 -10.834 1 -15.501l-1 -92c0 -21.333 -0.333008 -39.666 -1 -54.999l-1 -96c0 -30 -0.333008 -58.5 -1 -85.5
s-1.33398 -50.833 -2.00098 -71.5c-2 -50.667 -3 -95 -3 -133l2 -51v-25c0 -9.33301 -0.333008 -17 -1 -23c-1.33301 -7.33301 -3 -11.833 -5 -13.5s-5.33301 -2.5 -10 -2.5l-24 1c-4.66699 0.666992 -12 1 -22 1c-11.333 0 -20.833 0.333008 -28.5 1s-13.834 1 -18.501 1
h-7c-7.33301 0 -11 2 -11 6l1 71c0.666992 10 1 21.333 1 34v103l1 57l-1 85v336z" />
    <glyph glyph-name="m" unicode="m" horiz-adv-x="674" 
d="M634 112l2.00391 -97.998c0 -5.33301 -2.66699 -9.5 -8 -12.5s-12.333 -4.5 -21 -4.5c11.333 0 2.83301 0.666992 -25.5 2s-50.166 2.33301 -65.499 3c-4.66699 2 -8.33398 5.66699 -11.001 11s-3.66699 15.666 -3 30.999c0.666992 12.667 1 30.667 1 54
c0 31.333 -0.333008 55.333 -1 72l-1 99c0 28 -3.5 49.833 -10.5 65.5s-17.167 23.5 -30.5 23.5c-14 0 -25.667 -5 -35 -15s-15.333 -24.667 -18 -44c0 -16 0.666992 -35.333 2 -58c1.33301 -34 1.66602 -59.667 0.999023 -77l1 -52l2 -98
c0 -5.33301 -2.66699 -9.5 -8 -12.5s-12.333 -4.5 -21 -4.5c11.333 0 2.83301 0.666992 -25.5 2s-50.166 2.33301 -65.499 3c-4.66699 2 -8.33398 5.66699 -11.001 11s-3.66699 15.666 -3 30.999c0.666992 12.667 1 30.667 1 54c0 31.333 -0.333008 55.333 -1 72l-1 99
c0 28 -3.5 49.833 -10.5 65.5s-17.167 23.5 -30.5 23.5c-14.667 0 -26.667 -5.66699 -36 -17s-15.333 -27.666 -18 -48.999l-1 -105c0 -102.667 0.333008 -161 1 -175c0 -6.66699 -3.33301 -10.667 -10 -12s-17.667 -2 -33 -2c-4 0.666992 -9.5 0.5 -16.5 -0.5
s-11.833 -1.5 -14.5 -1.5c-12 -1.33301 -20 -2 -24 -2h-9c-8.66699 0 -14.334 1.66699 -17.001 5c-5.33301 8.66699 -8 27 -8 55l-1 127c-0.666992 14 -1.5 35.333 -2.5 64s-1.5 55.334 -1.5 80.001l-1 22c-1.33301 13.333 -2 23 -2 29v79c0 12 0.5 20.167 1.5 24.5
s3.16699 8.16602 6.5 11.499c4 4 10 6.5 18 7.5s20.667 1.5 38 1.5c27.333 0 45.666 -3 54.999 -9c4 -2.66699 6 -10.334 6 -23.001c0 -5.33301 -0.333008 -13.166 -1 -23.499s-0.666992 -19.833 0 -28.5c0 -4.66699 1 -7.5 3 -8.5s4.66699 -1.5 8 -1.5
c23.333 69.333 57.333 104 102 104c53.333 0 90.333 -33.667 111 -101c10 30.667 24.833 55.167 44.5 73.5s42.167 27.5 67.5 27.5c42 0 73.167 -19.833 93.5 -59.5s31.5 -89.5 33.5 -149.5c0 -16.667 0.666992 -36.334 2 -59.001
c1.33301 -34.667 1.66602 -60.667 0.999023 -78z" />
    <glyph glyph-name="n" unicode="n" horiz-adv-x="466" 
d="M424 55c2.66699 -13.333 4.00391 -26.998 4.00391 -40.998c0 -5.33301 -2.66699 -9.5 -8 -12.5s-12.333 -4.5 -21 -4.5c11.333 0 1.5 0.666992 -29.5 2l-70.5 3c-4.66699 2 -8.33398 5.66699 -11.001 11s-3.66699 15.666 -3 30.999c0.666992 12.667 1 30.667 1 54
c0 31.333 -0.333008 55.333 -1 72l-1 99c0 22 -4.16699 42.333 -12.5 61s-18.833 28 -31.5 28c-16 0 -28.833 -5.66699 -38.5 -17s-15.834 -27.666 -18.501 -48.999l-1 -105c0 -102.667 0.333008 -161 1 -175c0 -6.66699 -3.33301 -10.667 -10 -12s-17.667 -2 -33 -2
c-4 0.666992 -9.5 0.5 -16.5 -0.5s-11.833 -1.5 -14.5 -1.5c-12 -1.33301 -20 -2 -24 -2h-9c-8.66699 0 -14.334 1.66699 -17.001 5c-5.33301 8.66699 -8 27 -8 55l-1 118c0 22.667 -0.666992 53.334 -2 92.001c-1.33301 30.667 -2 51 -2 61l-1 22
c-1.33301 13.333 -2 23 -2 29v79c0 12 0.5 20.167 1.5 24.5s3.16699 8.16602 6.5 11.499c4 4 10 6.5 18 7.5s20.667 1.5 38 1.5c27.333 0 45.666 -3 54.999 -9c4 -2.66699 6 -10.334 6 -23.001c0 -5.33301 -0.333008 -13.166 -1 -23.499s-0.666992 -19.833 0 -28.5
c0 -4.66699 1 -7.5 3 -8.5s5 -1.5 9 -1.5c10.667 34 24.834 59.833 42.501 77.5s38.167 26.5 61.5 26.5c24 0 45.167 -7.66699 63.5 -23s30.833 -30 37.5 -44c11.333 -27.333 19 -52.333 23 -75s6.33301 -45 7 -67c0 -16.667 0.666992 -36.334 2 -59.001
c1.33301 -34.667 1.66602 -60.667 0.999023 -78c0 -8.66699 0.666992 -22.334 2 -41.001l1 -33c0 -11.333 1.33301 -23 4 -35z" />
    <glyph glyph-name="o" unicode="o" horiz-adv-x="478" 
d="M433 176.5c-5.33301 -25 -16.001 -55.166 -32.001 -90.499c-14.667 -32 -36.5 -57.333 -65.5 -76s-65.833 -28 -110.5 -28c-24 0 -45 4.33301 -63 13c-40.667 18.667 -71.667 49 -93 91s-32 98.667 -32 170c0 23.333 3.33301 47.5 10 72.5s13.667 44.833 21 59.5
c24.667 44 51 76.667 79 98s64.667 32 110 32c28 0 52.667 -5.16699 74 -15.5s37.333 -24.5 48 -42.5l23 -35.5c12.667 -19.667 22.334 -43.834 29.001 -72.501s10 -62 10 -100c0 -25.333 -2.66699 -50.5 -8 -75.5zM220.499 355.501
c-11.667 -7 -20.498 -16.832 -26.498 -29.499c-5.33301 -12 -10.333 -27 -15 -45s-7 -34 -7 -48c0 -66 21 -99 63 -99c23.333 0 41.666 11.167 54.999 33.5s20 54.166 20 95.499c0 68.667 -18.667 103 -56 103c-10.667 0 -21.834 -3.5 -33.501 -10.5z" />
    <glyph glyph-name="p" unicode="p" horiz-adv-x="471" 
d="M48 222v49.999c-1.33301 49.333 -2 123.666 -2 222.999c0 12.667 14.333 19 43 19c14.667 0 37.667 -0.833008 69 -2.5s52.666 -4.16699 63.999 -7.5c28.667 -9.33301 53.834 -20.166 75.501 -32.499s42.834 -29.166 63.501 -50.499
c23.333 -23.333 41.5 -54.5 54.5 -93.5s19.5 -80.833 19.5 -125.5c0 -30.667 -5 -62.5 -15 -95.5s-25.333 -60.667 -46 -83s-45.334 -33.5 -74.001 -33.5c-29.333 0 -54.5 10 -75.5 30s-38.5 50.667 -52.5 92c-1.33301 3.33301 -2 -11.334 -2 -44.001
c0 -16 0.333008 -35.667 1 -59s1.66699 -44.666 3 -63.999c2 -39.333 3 -83.333 3 -132c0 -8.66699 -25 -13 -75 -13c-12 0 -24.833 1 -38.5 3s-20.5 5 -20.5 9v137c0 8.66699 0.666992 25.667 2 51c2 49.333 3 123.333 3 222zM175 233.999
c0 -7.33301 2.33008 -15.667 6.99707 -25c8.66699 -19.333 19.5 -35.833 32.5 -49.5s27.833 -20.5 44.5 -20.5c12.667 0 23.5 8 32.5 24s13.5 39 13.5 69c0 24.667 -5.66699 47.667 -17 69s-26.666 38.333 -45.999 51s-40.666 19 -63.999 19c-2 0 -3 -5 -3 -15v-17
c0.666992 -6 0.833984 -15 0.500977 -27s-0.5 -21.333 -0.5 -28v-23v-27z" />
    <glyph glyph-name="q" unicode="q" horiz-adv-x="473" 
d="M427 -188c0 -8.66699 -7.33301 -12.999 -22 -12.999c-13.333 2.66699 -23.333 4 -30 4c-6 0 -14 -0.666992 -24 -2s-21 -2 -33 -2c-7.33301 0 -12.666 0.666992 -15.999 2s-5 4.66602 -5 9.99902l1 86c0 41.333 0.333008 68.333 1 81v35l1 85
c0 3.33301 -0.333008 6.33301 -1 9s-1.33398 4.33398 -2.00098 5.00098c-24.667 -80 -64.667 -120 -120 -120c-22 0 -44 6.83301 -66 20.5s-40.167 35 -54.5 64s-21.5 64.833 -21.5 107.5c0 40 3.16699 73.5 9.5 100.5s14.166 51.5 23.499 73.5c12 29.333 34.667 59 68 89
s66.333 49 99 57c30 7.33301 63.667 11 101 11c10 0 24.5 -2 43.5 -6s31.167 -7 36.5 -9c4.66699 -2.66699 7.83398 -8.5 9.50098 -17.5s2.5 -22.5 2.5 -40.5l-1 -175l-1 -85l1 -69c0.666992 -8 1 -17.333 1 -28l1 -64l1 -26c0 -24.667 -1 -68 -3 -130
c-0.666992 -10.667 -1 -23.334 -1 -38.001c0 -6.66699 0.333008 -10.667 1 -12v-3zM301 253.001c0 6.66699 -0.331055 13.001 -0.998047 19.001s-1 10.667 -1 14l2 53c0 12.667 -0.333008 21.5 -1 26.5s-2.66699 7.5 -6 7.5c-24 0 -45.5 -7.83301 -64.5 -23.5
s-33.833 -36.667 -44.5 -63s-16 -54.5 -16 -84.5c0 -22.667 4.5 -39.834 13.5 -51.501s18.833 -17.5 29.5 -17.5c9.33301 0 23.666 11.167 42.999 33.5s33.666 44.833 42.999 67.5c2 4 3 10.333 3 19z" />
    <glyph glyph-name="r" unicode="r" horiz-adv-x="370" 
d="M170 214l1 -122.001c0 -4.66699 0.666992 -13.5 2 -26.5s2 -30.833 2 -53.5c0 -4 -1.83301 -7.33301 -5.5 -10s-7.5 -4 -11.5 -4c-12 0 -24.667 -0.666992 -38 -2c-14.667 -1.33301 -29 -2 -43 -2c-8.66699 0 -15.334 2 -20.001 6s-7 11.667 -7 23
c0 5.33301 -0.666992 17.333 -2 36c-1.33301 22.667 -2 41 -2 55v72c0 11.333 -0.333008 22.333 -1 33c-1.33301 40 -2 77.333 -2 112v108c0 34 2 52.333 6 55c6 4 15.5 7.33301 28.5 10s24.5 3.66699 34.5 3c20.667 -1.33301 35 -4.16602 43 -8.49902s12 -10.833 12 -19.5
c0 -20 0.666992 -36.667 2 -50c0.666992 -9.33301 5.33398 -14 14.001 -14c10.667 34.667 22.667 59.167 36 73.5s30 21.5 50 21.5c9.33301 0 19 -1.33301 29 -4s17.667 -7 23 -13c6 -7.33301 10.667 -19.166 14 -35.499s5 -34.5 5 -54.5c0 -12 -1.33301 -23.667 -4 -35
c-1.33301 -8.66699 -3 -15 -5 -19s-6 -5 -12 -3c-4 1.33301 -11.833 4.16602 -23.5 8.49902s-24.167 6.5 -37.5 6.5c-58.667 0 -88 -49 -88 -147z" />
    <glyph glyph-name="s" unicode="s" horiz-adv-x="392" 
d="M339.5 419c-3.66699 -23.333 -7.16504 -39.998 -10.498 -49.998c-2 -4.66699 -5.66699 -7 -11 -7c-4.66699 0 -11.334 1.66699 -20.001 5l-20 9c-14.667 6.66699 -26.5 11.5 -35.5 14.5s-18.833 4.5 -29.5 4.5c-23.333 0 -35 -9.33301 -35 -28
c0 -11.333 4.83301 -21.5 14.5 -30.5s25.167 -20.5 46.5 -34.5l22 -14c24.667 -16.667 43.334 -30.834 56.001 -42.501s22.334 -25 29.001 -40s10 -33.833 10 -56.5c0 -27.333 -6.83301 -53.333 -20.5 -78s-32.167 -44.334 -55.5 -59.001s-49.333 -22 -78 -22
c-34.667 0 -64.334 5.16699 -89.001 15.5s-48.334 26.5 -71.001 48.5c-2 2 -3.66699 9.83301 -5 23.5s-2 24.5 -2 32.5c0 16 2.66699 30.667 8 44s12.333 20 21 20c5.33301 0 9.66602 -1.66699 12.999 -5c22 -18 41.833 -31.167 59.5 -39.5s35.834 -12.5 54.501 -12.5
c10 0 17.333 3.33301 22 10s7 15 7 25c0 13.333 -9.33301 27.5 -28 42.5s-41 29.5 -67 43.5c-25.333 14 -45.333 30.833 -60 50.5s-22 45.834 -22 78.501c0 21.333 2.66699 40.166 8 56.499s16 31.833 32 46.5c30 27.333 70.333 41 121 41
c15.333 0 34.166 -2.16699 56.499 -6.5s42 -9.33301 59 -15s25.5 -10.167 25.5 -13.5c0 -14.667 -1.83301 -33.667 -5.5 -57z" />
    <glyph glyph-name="t" unicode="t" horiz-adv-x="408" 
d="M381.5 98c1.66699 -12 2.49805 -21.999 2.49805 -29.999c0 -16 -8 -29.667 -24 -41c-10.667 -8 -24 -15 -40 -21c-12.667 -4.66699 -25 -8.5 -37 -11.5s-26.333 -4.5 -43 -4.5c-15.333 0 -32.666 4 -51.999 12c-22.667 9.33301 -40.334 22.333 -53.001 39
c-14 20 -24.333 42 -31 66c-4 14 -7.83301 32.667 -11.5 56s-5.5 43.333 -5.5 60c0 22.667 -0.333008 40 -1 52c-0.666992 11.333 -0.833984 22.5 -0.500977 33.5s0.5 20.5 0.5 28.5v31h-32c-9.33301 0 -14 8.66699 -14 26v34v57c0 6.66699 1.33301 10.667 4 12
s8.33398 2.33301 17.001 3h24c0 5.33301 0.166992 12.5 0.5 21.5s0.5 23.167 0.5 42.5v32c0 4 -0.166992 8.16699 -0.5 12.5s-0.166016 8.83301 0.500977 13.5c0.666992 8 6.16699 13.667 16.5 17s22.5 5 36.5 5c26 0 45.5 -1 58.5 -3s19.5 -8.33301 19.5 -19l-1 -37
c0 -18 0.5 -30.167 1.5 -36.5s1.5 -10.833 1.5 -13.5l-1 -35h12c8.66699 -0.666992 25 -1 49 -1l35 2l26 1c6.66699 0 11.834 -1.66699 15.501 -5s5.5 -10 5.5 -20c0 -4.66699 -0.666992 -11.667 -2 -21l-3 -25c-0.666992 -14.667 -1 -30 -1 -46
c0 -6.66699 -4.16699 -11.167 -12.5 -13.5s-21.833 -3.5 -40.5 -3.5l-48 1h-38l-2 -122c0 -16 1 -35 3 -57c1.33301 -16.667 6.83301 -30.167 16.5 -40.5s22.834 -15.5 39.501 -15.5c12.667 0 24.667 2.5 36 7.5s20.666 10.5 27.999 16.5
c3.33301 3.33301 7.5 7.16602 12.5 11.499s8.5 6.5 10.5 6.5c3.33301 0 5.33301 -3.33301 6 -10c2 -10.667 5.66699 -25 11 -43c1.33301 -4.66699 2.83301 -13 4.5 -25z" />
    <glyph glyph-name="u" unicode="u" horiz-adv-x="476" 
d="M383 499c4.66699 0.666992 11.335 1.00098 20.002 1.00098c12.667 0 21 -2.33301 25 -7c1.33301 -2 2 -18.667 2 -50l-1 -314c1.33301 -16 2 -27.667 2 -35l1 -39c0.666992 -8.66699 1 -22 1 -40c0 -4 -1.16699 -7.66699 -3.5 -11s-4.83301 -5 -7.5 -5h-50
c-6 0 -11.667 0.333008 -17 1s-10.666 1 -15.999 1c-4.66699 0 -8.66699 -0.333008 -12 -1c-9.33301 0 -14 4.33301 -14 13l-4 79v10c0 16 -1.66699 24 -5 24c-2 -5.33301 -5.5 -15.333 -10.5 -30s-10.667 -27.167 -17 -37.5s-14.833 -21.5 -25.5 -33.5
c-20.667 -23.333 -46.334 -35 -77.001 -35c-35.333 0 -61.666 12.833 -78.999 38.5s-32.333 64.834 -45 117.501c-2.66699 14 -5.33398 37.667 -8.00098 71s-4 62.333 -4 87l1 95c0.666992 11.333 1 26 1 44c0 10.667 0.666992 21.334 2 32.001s2.66602 16.667 3.99902 18
c9.33301 8 26.666 12 51.999 12c22 0 42 -1.66699 60 -5c4.66699 -0.666992 9.16699 -3.33398 13.5 -8.00098s6.5 -11.334 6.5 -20.001l-1 -69c-1.33301 -52 -2 -91.333 -2 -118c0 -38.667 3.33301 -72.667 10 -102s21.334 -44 44.001 -44c14.667 0 27.167 10.667 37.5 32
s18.5 48.666 24.5 81.999c1.33301 6 2.5 18.833 3.5 38.5s1.5 35.834 1.5 48.501v60c0 38 0.5 64.167 1.5 78.5s4.16699 21.166 9.5 20.499c11.333 -0.666992 28.666 -1 51.999 -1z" />
    <glyph glyph-name="v" unicode="v" horiz-adv-x="470" 
d="M114 513c3.33301 0.666992 8.66699 1 16 1c10 0 18.5 -1.66699 25.5 -5s11.167 -8 12.5 -14c6.66699 -26.667 13 -59.334 19 -98.001l7 -41c14 -72.667 24 -121.667 30 -147s10.667 -38 14 -38c12 0 33.333 77.333 64 232l4 20c4 16.667 6.83301 31 8.5 43
s2.83398 19.667 3.50098 23c3.33301 12 16 18 38 18c12.667 0 27.667 -4.66699 45 -14c10.667 -6 20.334 -15.333 29.001 -28c1.33301 -2 3 -4.16699 5 -6.5s3 -5.16602 3 -8.49902c0 -4 -2 -12 -6 -24c-4.66699 -13.333 -10 -32 -16 -56
c-10.667 -44.667 -20.334 -80.667 -29.001 -108c-4.66699 -16.667 -10 -32.334 -16 -47.001l-13 -42c-5.33301 -19.333 -12 -40.666 -20 -63.999l-16 -39l-32 -79c-0.666992 -2.66699 -5 -4 -13 -4c-10 0 -20.333 1.33301 -31 4c-4.66699 1.33301 -13.667 2 -27 2h-34
c-10 0 -17.667 5 -23 15c-4.66699 10 -9.33398 22 -14.001 36c-0.666992 3.33301 -3.66699 11.333 -9 24l-55 200l-8 29c-5.33301 16 -9 28.333 -11 37l-30 116c-2 6 -3 12.333 -3 19s1.66699 12.667 5 18c14 12 39.667 20.667 77 26z" />
    <glyph glyph-name="w" unicode="w" horiz-adv-x="651" 
d="M185 357c4 -78.667 8 -118.004 12 -118.004c2.66699 0 7.66699 11.667 15 35s13 44.333 17 63c6 36.667 12.667 66.667 20 90l9 28c7.33301 26 13 41 17 45c6 6 13 9 21 9h5c13.333 0 22.666 -0.666992 27.999 -2c5.33301 0 10.833 -1.5 16.5 -4.5
s9.83398 -6.83301 12.501 -11.5c3.33301 -8 6.33301 -26.333 9 -55c4 -29.333 10.833 -69.5 20.5 -120.5s15.5 -76.5 17.5 -76.5s7.5 19.333 16.5 58s16.167 73.334 21.5 104.001l18 92c1.33301 10.667 7.66602 16 18.999 16c16.667 0 30.334 -1.33301 41.001 -4
c29.333 -6.66699 52.5 -13.667 69.5 -21s25.5 -14.333 25.5 -21c0 -4 -5.33301 -22 -16 -54s-19.334 -56.667 -26.001 -74c-5.33301 -12.667 -13.333 -36.167 -24 -70.5s-16.667 -55.833 -18 -64.5l-27.5 -86l-26.5 -83c-7.33301 -18 -13.333 -28.333 -18 -31
c-20.667 -2 -46.334 -3 -77.001 -3c-7.33301 0 -12.5 1 -15.5 3s-6.16699 6.66699 -9.5 14c-2 4.66699 -3.83301 11 -5.5 19s-3.16699 14.667 -4.5 20c-5.33301 20 -9.66602 40 -12.999 60c-1.33301 11.333 -3.66602 23.166 -6.99902 35.499s-5.66602 21.5 -6.99902 27.5
l-8 30c-1.33301 4.66699 -3.33301 10.334 -6 17.001s-4.66699 10 -6 10c-2 0 -5 -6.16699 -9 -18.5s-7 -22.166 -9 -29.499c-2.66699 -7.33301 -10 -43.666 -22 -108.999l-11 -54c-2.66699 -10 -6.16699 -16.5 -10.5 -19.5s-13.5 -4.5 -27.5 -4.5s-34.333 3.33301 -61 10
c-9.33301 2.66699 -16 9.66699 -20 21c-2 6 -5.66699 21 -11 45c-2 13.333 -4.66699 26 -8 38c-12.667 44 -28.667 114 -48 210s-29 148 -29 156c0 5.33301 1.16699 9 3.5 11s8.5 5.33301 18.5 10c5.33301 2 11.833 3.83301 19.5 5.5s14.5 2.83398 20.5 3.50098
c28 3.33301 46 5 54 5c11.333 0 17.333 -2 18 -6c7.33301 -44 12.666 -94 15.999 -150z" />
    <glyph glyph-name="x" unicode="x" horiz-adv-x="472" 
d="M359 172c21.333 -34.667 35.6631 -56.3301 42.9961 -64.9971c8.66699 -10.667 16 -20.334 22 -29.001s9 -15.334 9 -20.001c0 -5.33301 -3.16699 -10.5 -9.5 -15.5s-15.833 -11.5 -28.5 -19.5l-19.5 -14.5c-8.33301 -6.33301 -15.833 -11 -22.5 -14s-14 -4.5 -22 -4.5
c-2 0 -6.33301 3.66699 -13 11s-10.667 13 -12 17c-1.33301 3.33301 -12.666 24.333 -33.999 63l-17 31c-4.66699 10 -9 18.333 -13 25s-7 12 -9 16c-23.333 -47.333 -45 -87.333 -65 -120c-6 -9.33301 -12.333 -18.333 -19 -27s-11 -13 -13 -13
c-3.33301 0 -10.166 1.83301 -20.499 5.5s-19.833 7.83398 -28.5 12.501l-21 11c-11.333 6 -21.5 12.333 -30.5 19s-13.5 12.667 -13.5 18c0 2.66699 4 9 12 19l17 21c17.333 20 29 35 35 45c9.33301 15.333 21.333 32.333 36 51l12 16c12 18 22.667 32 32 42l-29.5 42.5
c-10.333 15 -19.5 30.5 -27.5 46.5c-7.33301 13.333 -14.666 25.166 -21.999 35.499s-12 17.833 -14 22.5l-12 23c-10 17.333 -15 29 -15 35c0 2.66699 6.5 8.16699 19.5 16.5s27.833 15.833 44.5 22.5s31 10 43 10c4.66699 0 12.334 -8 23.001 -24s18 -28.333 22 -37
l49 -99v-1l13 29l24 50c4 7.33301 7.33301 14.166 10 20.499s5.33398 12.166 8.00098 17.499c7.33301 16.667 13.333 28.834 18 36.501s10 11.5 16 11.5c4.66699 0 13.5 -2.16699 26.5 -6.5s24.167 -8.83301 33.5 -13.5c28 -14 42 -24.333 42 -31
c0 -5.33301 -2.83301 -12.5 -8.5 -21.5s-10.834 -16.833 -15.501 -23.5c-8 -11.333 -19.333 -29.333 -34 -54c-2.66699 -5.33301 -9.66699 -17 -21 -35l-50 -79z" />
    <glyph glyph-name="y" unicode="y" horiz-adv-x="473" 
d="M429 347l0.999023 -195.998c0 -74.667 -6.33301 -132.334 -19 -173.001s-30.667 -76 -54 -106c-20.667 -26 -43.167 -46.167 -67.5 -60.5s-56.833 -21.5 -97.5 -21.5c-21.333 0 -41.833 3.33301 -61.5 10s-35.5 14.334 -47.5 23.001c-6 4.66699 -9 14.667 -9 30
c0 10 5.16699 27.833 15.5 53.5s17.5 40.167 21.5 43.5c4.66699 3.33301 9 5 13 5c2 0 4.33301 -0.5 7 -1.5s4.66699 -1.5 6 -1.5c14 -4.66699 25.833 -7.83398 35.5 -9.50098s20.167 -2.5 31.5 -2.5c36.667 0 65.334 24.333 86.001 73c10.667 25.333 16 50 16 74v64v13
c0 8 -1.33301 12 -4 12c-2 -5.33301 -5.5 -15.333 -10.5 -30s-10.667 -27.167 -17 -37.5s-14.833 -21.5 -25.5 -33.5c-20.667 -23.333 -46.334 -35 -77.001 -35c-25.333 0 -48.166 9.33301 -68.499 28s-36.166 44.167 -47.499 76.5s-17 68.166 -17 107.499l-1 204
c0 5.33301 0.666992 12.5 2 21.5s2.66602 14.167 3.99902 15.5c9.33301 8 26.666 12 51.999 12c5.33301 0 14.666 -0.666992 27.999 -2c10 -2 20.667 -3 32 -3c4.66699 0 9.16699 -2.5 13.5 -7.5s6.5 -11.833 6.5 -20.5l-2 -56l-2 -69c0 -42 4 -78.833 12 -110.5
s22.333 -47.5 43 -47.5c14.667 0 27.167 10.667 37.5 32s18.5 48.666 24.5 81.999c3.33301 14.667 5 27 5 37v20c0 4.66699 -0.166992 10.334 -0.5 17.001s-0.166016 14.334 0.500977 23.001c0.666992 4.66699 1.33398 10.5 2.00098 17.5s1 15.167 1 24.5l-1 26
c0 23.333 3 34.666 9 33.999l28 -3l16 -1l47 1c17.333 0 27.333 -2 30 -6c1.33301 -2 2 -18.667 2 -50c0 -38.667 0.333008 -70.667 1 -96z" />
    <glyph glyph-name="z" unicode="z" horiz-adv-x="432" 
d="M215 370c9.33301 0 13.3389 -0.666992 12.0059 -2l-32 -48.5c-13.333 -19.667 -25.666 -36.834 -36.999 -51.501c-2 -2.66699 -4.5 -5.83398 -7.5 -9.50098s-6.16699 -8.16699 -9.5 -13.5l-95 -129c-5.33301 -7.33301 -8 -18.666 -8 -33.999
c0 -10.667 -0.333008 -19 -1 -25l-1 -34c0 -9.33301 1.66699 -15.833 5 -19.5s10 -5.5 20 -5.5l156 2l48 -1c8.66699 -0.666992 20.667 -1 36 -1c13.333 0 23.666 0.333008 30.999 1l37 1c18.667 0 28 8 28 24c0.666992 15.333 1 41.333 1 78c0 10.667 -1.66699 20 -5 28
c-2 6 -9.66699 9 -23 9c-10 0 -23.667 -0.666992 -41 -2c-16 -1.33301 -26 -2 -30 -2l-25 -1c-14.667 -1.33301 -25.334 -2 -32.001 -2c-14.667 0 -25.834 0.5 -33.501 1.5s-9.83398 3.5 -6.50098 7.5l17 22l31 40l65 93c37.333 53.333 58 87 62 101l6 31
c1.33301 7.33301 2 25.666 2 54.999c0 4 -1.16699 7.66699 -3.5 11s-5.83301 5.33301 -10.5 6l-22 -1c-13.333 -1.33301 -21.666 -1.66602 -24.999 -0.999023c-5.33301 0.666992 -16 0.333984 -32 -0.999023l-21 -1c-8.66699 0 -23.667 0.666992 -45 2
c-26.667 1.33301 -51 2 -73 2h-92c-6.66699 0 -10.667 -2.66699 -12 -8s-2 -10.333 -2 -15v-9c0 -6 0.333008 -13.333 1 -22s1 -18 1 -28l-2 -44c0 -2.66699 1.16699 -4.66699 3.5 -6s6.16602 -2 11.499 -2l28 2c3.33301 0.666992 8.66602 1 15.999 1
c10 0 18.167 -0.333008 24.5 -1s11.166 -1 14.499 -1h26c14 0 22.333 0.333008 25 1c5.33301 1.33301 11.666 2 18.999 2z" />
    <glyph glyph-name="braceleft" unicode="{" horiz-adv-x="403" 
d="M119 358.5c13.333 21 20.0029 48.499 20.0029 82.499l-1 166c0 28 2 51.5 6 70.5s13.833 35.167 29.5 48.5s39.834 20 72.501 20c35.333 0 66.666 -1.33301 93.999 -4c6.66699 -0.666992 11.167 -3.33398 13.5 -8.00098s3.5 -11.334 3.5 -20.001
c0 -15.333 -1.66699 -30.166 -5 -44.499s-7.33301 -21.5 -12 -21.5c-25.333 0 -46.666 -4.33301 -63.999 -13s-26 -27 -26 -55v-203c0 -32 -9.66699 -59 -29 -81s-42.666 -33 -69.999 -33c-3.33301 0 -5 -1.33301 -5 -4c0 -3.33301 1.66699 -5.66602 5 -6.99902
c32 -10 56.833 -27.167 74.5 -51.5s27.167 -54.166 28.5 -89.499l3 -75c1.33301 -28.667 8.66602 -47.5 21.999 -56.5s33.666 -13.5 60.999 -13.5c4.66699 0 8.66699 -6.66699 12 -20s5 -27.666 5 -42.999c0 -18 -3 -27.333 -9 -28c-33.333 -4.66699 -68 -7 -104 -7
c-32.667 0 -57.834 12.167 -75.501 36.5s-26.834 55.166 -27.501 92.499l-1 70c-0.666992 86 -32 136.667 -94 152c-6 1.33301 -9.5 4.16602 -10.5 8.49902s-1.83301 13.833 -2.5 28.5c0 19.333 0.833008 35.333 2.5 48s5.16699 19.334 10.5 20.001
c35.333 2 59.666 13.5 72.999 34.5z" />
    <glyph glyph-name="bar" unicode="|" horiz-adv-x="241" 
d="M168.5 -124c-6.33301 -6.66699 -13.499 -9.99902 -21.499 -9.99902c-16.667 0 -37.667 0.666992 -63 2c-8.66699 0.666992 -14.834 2.5 -18.501 5.5s-5.5 8.5 -5.5 16.5v47c1.33301 85.333 2 191 2 317c0 159.333 0.333008 264.666 1 315.999v158
c0 16.667 16.333 25 49 25c36.667 0 58.667 -3.33301 66 -10c2 -2 3 -6.33301 3 -13l-1 -31c-2.66699 -192 -4 -320.333 -4 -385l2 -413c0 -10 -3.16699 -18.333 -9.5 -25z" />
    <glyph glyph-name="braceright" unicode="}" horiz-adv-x="403" 
d="M367.5 301c1.66699 -12.667 2.50293 -28.667 2.50293 -48c-0.666992 -14.667 -1.5 -24.167 -2.5 -28.5s-4.5 -7.16602 -10.5 -8.49902c-62 -15.333 -93.333 -66 -94 -152l-1 -67c-0.666992 -37.333 -9.83398 -68.166 -27.501 -92.499s-42.834 -36.5 -75.501 -36.5
c-36 0 -70.667 2.33301 -104 7c-6 0.666992 -9 10 -9 28c0 15.333 1.66699 29.666 5 42.999s7.33301 20 12 20c27.333 0 47.666 4.5 60.999 13.5s20.666 27.833 21.999 56.5l3 72c1.33301 35.333 10.833 65.166 28.5 89.499s42.5 41.5 74.5 51.5
c2.66699 1.33301 4.16699 3.5 4.5 6.5s-1.16699 4.5 -4.5 4.5c-27.333 0 -50.666 11 -69.999 33s-29 49 -29 81v206c0 28 -8.66699 46.333 -26 55s-38.666 13 -63.999 13c-4.66699 0 -8.66699 7.16699 -12 21.5s-5 29.166 -5 44.499c0 8.66699 1.16699 15.334 3.5 20.001
s6.83301 7.33398 13.5 8.00098c27.333 2.66699 58.666 4 93.999 4c32.667 0 56.834 -6.66699 72.501 -20s25.5 -29.5 29.5 -48.5s6 -42.5 6 -70.5l-1 -169c0 -34 6.66699 -61.5 20 -82.5s37.666 -32.5 72.999 -34.5c5.33301 -0.666992 8.83301 -7.33398 10.5 -20.001z" />
    <glyph glyph-name="exclamdown" unicode="&#xa1;" horiz-adv-x="291" 
d="M182 503l23 -0.999023c6.66699 0 12.167 -4.83301 16.5 -14.5s6.5 -19.834 6.5 -30.501l-1 -52c-0.666992 -8.66699 -1 -24.667 -1 -48c0 -8.66699 -2.5 -16.167 -7.5 -22.5s-9.5 -9.5 -13.5 -9.5h-107c-10 0 -17.667 2 -23 6s-8 12.667 -8 26
c0 8 -0.666992 22.667 -2 44l-2 34c0 24 2 42 6 54s11.667 18 23 18c34.667 0 64.667 -1.33301 90 -4zM208 73.001c0.666992 -20.667 1.33301 -40.334 2 -59.001s1 -34.667 1 -48c0 -19.333 2 -49.666 6 -90.999c2.66699 -29.333 4 -46.666 4 -51.999
c0 -14 -3.66699 -22.333 -11 -25c-5.33301 -2.66699 -14.5 -4.5 -27.5 -5.5s-24.833 -1.16699 -35.5 -0.5c-18 0 -34.5 1 -49.5 3s-22.5 5 -22.5 9c0 9.33301 1.33301 40.666 4 93.999c2.66699 42 4.66699 88 6 138s2.66602 85.667 3.99902 107c1.33301 34.667 2 56 2 64
c0 7.33301 8 12 24 14s37.667 3 65 3c8.66699 0 14.834 -2.5 18.501 -7.5s5.5 -16.167 5.5 -33.5c0 -13.333 1.33301 -50 4 -110z" />
    <glyph glyph-name="cent" unicode="&#xa2;" horiz-adv-x="418" 
d="M355.5 126.5c-21 -14.333 -44.834 -24.8301 -71.501 -31.4971c0 -18 0.166992 -31.667 0.5 -41s0.5 -17 0.5 -23c0 -14 -3.33301 -22.333 -10 -25c-4.66699 -2.66699 -12.667 -4.5 -24 -5.5s-22 -1.16699 -32 -0.5c-36 0 -54 4 -54 12v92
c-42 16.667 -73.833 46.5 -95.5 89.5s-32.5 92.167 -32.5 147.5c0 58 11.333 108.833 34 152.5s53.334 75.5 92.001 95.5v99c0 8 18 12 54 12c10 0.666992 20.667 0.5 32 -0.5s19.333 -2.83301 24 -5.5c6.66699 -2.66699 10 -11 10 -25
c0 -5.33301 -0.166992 -12.5 -0.5 -21.5s-0.5 -22.167 -0.5 -39.5l21 -1l24.5 -2c8.33301 -0.666992 14.5 -1.33398 18.5 -2.00098c7.33301 -2 13.333 -6.16699 18 -12.5s7 -12.5 7 -18.5c0 -31.333 -3.33301 -59.666 -10 -84.999s-13 -38 -19 -38
c-2 0 -10.667 2.83301 -26 8.5s-33 8.5 -53 8.5c-26 0 -48.167 -10.833 -66.5 -32.5s-27.5 -52.5 -27.5 -92.5c0 -37.333 7.83301 -64.666 23.5 -81.999s33.167 -26 52.5 -26c16 0 29 2.66699 39 8s18.667 11.166 26 17.499s12 9.5 14 9.5c5.33301 0 11.333 -4.33301 18 -13
l13 -20c6.66699 -10.667 11.667 -19.334 15 -26.001c1.33301 -2.66699 4.5 -8.33398 9.5 -17.001s7.5 -16.334 7.5 -23.001c0 -14 -10.5 -28.167 -31.5 -42.5z" />
    <glyph glyph-name="sterling" unicode="&#xa3;" horiz-adv-x="472" 
d="M416.5 144c3.66699 -3.33301 5.49805 -10.001 5.49805 -20.001v-100c0 -10 -2.66699 -16.5 -8 -19.5s-13.666 -4.5 -24.999 -4.5l-74 1l-267 -1c-9.33301 0 -14 8.66699 -14 26v38v68c0 6.66699 1.33301 10.667 4 12s8.33398 2.33301 17.001 3
c21.333 0 36 -0.333008 44 -1l-3 30c-0.666992 8 -1.66699 18 -3 30s-2.33301 26 -3 42h-38c-4.66699 0 -8.16699 6 -10.5 18s-3.5 26.333 -3.5 43c0.666992 14.667 2 26.834 4 36.501s5 14.5 9 14.5h34v19c0 89.333 16.667 166.833 50 232.5s88.333 98.5 165 98.5
c18 0 37.833 -2.83301 59.5 -8.5s40 -12.5 55 -20.5s22.5 -15.333 22.5 -22c0 -13.333 -4 -30.333 -12 -51s-17 -39.167 -27 -55.5s-18 -24.5 -24 -24.5c-2.66699 0 -8.66699 3 -18 9s-18.5 11 -27.5 15s-19.167 6 -30.5 6c-25.333 0 -44.833 -16.167 -58.5 -48.5
s-21.834 -82.166 -24.501 -149.499h2c22 -0.666992 58 -1 108 -1h47c5.33301 0 9.5 -5.33301 12.5 -16s4.5 -23.667 4.5 -39s-1.5 -28.333 -4.5 -39s-7.16699 -16 -12.5 -16h-49h-103h-3c2 -32.667 5.66699 -67.334 11 -104.001c30.667 0.666992 68 1 112 1l35 2l26 1
c6.66699 0 11.834 -1.66699 15.501 -5z" />
    <glyph glyph-name="yen" unicode="&#xa5;" horiz-adv-x="489" 
d="M312 192l0.000976562 -34.998c28.667 0 56 1.33301 82 4c5.33301 0.666992 9.5 -3.33301 12.5 -12s4.5 -19.334 4.5 -32.001c0 -12 -1.5 -22.5 -4.5 -31.5s-7.16699 -13.833 -12.5 -14.5c-33.333 -2 -61 -3 -83 -3c0 -32 -0.333008 -50 -1 -54
c-1.33301 -7.33301 -3 -11.833 -5 -13.5s-5.33301 -2.5 -10 -2.5l-26 1c-5.33301 0.666992 -13 1 -23 1l-35 -1c-22 0 -33 5.33301 -33 16v52c-42.667 0 -71 1 -85 3c-9.33301 0.666992 -14 17.667 -14 51c1.33301 27.333 5.66602 41 12.999 41c28.667 -2 58 -3 88 -3v15v18
c-41.333 0 -69 1 -83 3c-9.33301 0.666992 -14 17.667 -14 51c1.33301 27.333 5.66602 41 12.999 41c28 -2 56 -3 84 -3v22c-40 15.333 -71.333 42.5 -94 81.5s-34 82.167 -34 129.5c0 34.667 -0.333008 57.667 -1 69v29v76c0 4 8 7.16699 24 9.5s34.333 3.5 55 3.5
c24.667 0 40.334 -1.33301 47.001 -4s10 -11 10 -25v-148c0 -34 4 -61 12 -81s24 -30 48 -30c21.333 0 36.666 11.333 45.999 34s14 48.334 14 77.001l-1 88v70c0 6 8.66699 10.5 26 13.5s36.333 4.5 57 4.5s33 -1 37 -3c6.66699 -2.66699 10 -11 10 -25l1 -97
c0 -2 0.166992 -7 0.5 -15s0.5 -23.333 0.5 -46c0 -47.333 -10.667 -90.833 -32 -130.5s-52.666 -66.834 -93.999 -81.501v-23c30 0 58.667 1.33301 86 4c5.33301 0.666992 9.5 -3.33301 12.5 -12s4.5 -19.334 4.5 -32.001c0 -12 -1.5 -22.5 -4.5 -31.5
s-7.16699 -13.833 -12.5 -14.5z" />
    <glyph glyph-name="brokenbar" unicode="&#xa6;" horiz-adv-x="241" 
d="M63 728c0 16.667 16.333 25 49 25c36.667 0 58.667 -3.33301 66 -10c2 -2 3 -6.33301 3 -13l-1 -29c-2 -101.333 -3.33301 -199.333 -4 -294c0 -5.33301 -6.16699 -9.5 -18.5 -12.5s-24.166 -4.5 -35.499 -4.5c-14.667 0 -28.334 2 -41.001 6s-19 11 -19 21zM178 -99
c0 -10 -3.16602 -18.333 -9.49902 -25s-13.5 -10 -21.5 -10c-16.667 0 -37.667 0.666992 -63 2c-8.66699 0.666992 -14.834 2.5 -18.501 5.5s-5.5 8.5 -5.5 16.5v42c1.33301 72 2 164.333 2 277c0 6 4.83301 10.167 14.5 12.5s20.167 3.5 31.5 3.5
c18.667 0 34.667 -1.5 48 -4.5s20 -9.83301 20 -20.5z" />
    <glyph glyph-name="dieresis" unicode="&#xa8;" horiz-adv-x="600" 
d="M106.5 577c-5.66699 1.33301 -10.5 6 -14.5 14c-4 7.33301 -6 22.666 -6 45.999c0 4.66699 0.666992 11.667 2 21s2 18.333 2 27c0 15.333 6.66699 23 20 23l11 -1c4 0 9 0.666992 15 2s13 2 21 2c4.66699 0 10.667 -0.833008 18 -2.5s14 -2.16699 20 -1.5
c6 0 9 -3.66699 9 -11c0 -4.66699 0.333008 -10.667 1 -18s1 -17.666 1 -30.999v-42c0 -18.667 -7.66699 -28 -23 -28c-8.66699 0 -16 -0.333008 -22 -1s-11.333 -1 -16 -1c-20 0 -32.833 0.666992 -38.5 2zM350 710c6 -0.666992 14.666 -0.999023 25.999 -0.999023
c15.333 0 23 -9.33301 23 -28c0 -15.333 -0.333008 -28 -1 -38l-1 -53c0 -7.33301 -3 -11 -9 -11c-6 0.666992 -12.667 0.166992 -20 -1.5s-13.333 -2.5 -18 -2.5l-52 1c-3.33301 0 -6.66602 2.33301 -9.99902 7s-5 10.667 -5 18c0 8.66699 -0.666992 17.667 -2 27
s-2 16.333 -2 21c0 23.333 2 38.666 6 45.999s8.16699 11.833 12.5 13.5s11.833 2.5 22.5 2.5z" />
    <glyph glyph-name="copyright" unicode="&#xa9;" horiz-adv-x="790" 
d="M589 663.5c54 -31 95 -74 123 -129s42 -117.833 42 -188.5s-14 -132.834 -42 -186.501s-68.833 -95.334 -122.5 -125.001s-118.5 -44.5 -194.5 -44.5s-140.833 14.833 -194.5 44.5s-94.5 71.334 -122.5 125.001s-42 115.834 -42 186.501s14 133.5 42 188.5s69 98 123 129
s118.667 46.5 194 46.5s140 -15.5 194 -46.5zM532 107.5c40 22.333 71.335 53.833 94.002 94.5s34 87.667 34 141c0 49.333 -9.83301 95.5 -29.5 138.5s-49.334 77.833 -89.001 104.5s-88.5 40 -146.5 40s-106.833 -13.333 -146.5 -40s-69.334 -61.5 -89.001 -104.5
s-29.5 -89.167 -29.5 -138.5c0 -53.333 11.333 -100.333 34 -141s54 -72.167 94 -94.5s85.667 -33.5 137 -33.5s97 11.167 137 33.5zM485.002 566c16.667 -3.33301 24.998 -16.665 24.998 -39.998c0 -15.333 -2.83301 -31.833 -8.5 -49.5s-12.5 -26.5 -20.5 -26.5
c-2 0 -9.66699 1.83301 -23 5.5s-25.333 5.5 -36 5.5c-26.667 0 -50.167 -10.667 -70.5 -32s-30.5 -48 -30.5 -80c0 -28.667 7.83301 -53.334 23.5 -74.001s34.834 -31 57.501 -31c10.667 0 20.667 2.33301 30 7s18.833 10.5 28.5 17.5s15.5 10.5 17.5 10.5
c2.66699 0 6 -2 10 -6l7 -7c-0.666992 0.666992 5 -4 17 -14c18.667 -12 28 -22 28 -30s-6.66699 -18.667 -20 -32s-31.166 -25 -53.499 -35s-46.833 -15 -73.5 -15c-32 0 -61.167 8 -87.5 24s-47.333 39.667 -63 71s-23.5 68.666 -23.5 111.999c0 46 8.83301 86 26.5 120
s42.167 60 73.5 78s66.333 27 105 27c20.667 0 41 -2 61 -6z" />
    <glyph glyph-name="guillemotleft" unicode="&#xab;" horiz-adv-x="492" 
d="M169.5 473.5c14.333 3 28.8291 4.50391 43.4961 4.50391c26 0 39 -6.33301 39 -19c0 -7.33301 -4.66699 -24.166 -14 -50.499s-20.333 -51.833 -33 -76.5c-14 -28.667 -26.667 -52.334 -38 -71.001c-8 -14 -12 -21.333 -12 -22c0 -3.33301 4 -10 12 -20
c24 -32.667 45.333 -65.667 64 -99c4 -6.66699 8.5 -15.667 13.5 -27s7.5 -18 7.5 -20c0 -4 -5.66699 -7.33301 -17 -10s-23.666 -4 -36.999 -4c-19.333 0 -32.666 1.16699 -39.999 3.5s-12.666 7.16602 -15.999 14.499c-21.333 48 -48.666 93 -81.999 135
c-11.333 14.667 -17 23.667 -17 27c0 5.33301 3.5 14.666 10.5 27.999s14.5 26.666 22.5 39.999c7.33301 11.333 13.666 22.666 18.999 33.999c16.667 35.333 33.334 75 50.001 119c2 6 10.167 10.5 24.5 13.5zM347.496 473.504c17.667 3 34.4961 4.50293 50.4961 4.50293
c26 0 39 -6.33301 39 -19c0 -7.33301 -4.66699 -24.166 -14 -50.499s-20.333 -51.833 -33 -76.5c-28 -58.667 -42 -89.667 -42 -93c0 -2.66699 1.33301 -6.5 4 -11.5s6.33398 -11.167 11.001 -18.5l53 -89c4 -6.66699 8.5 -15.667 13.5 -27s7.5 -18 7.5 -20
c0 -4 -7.5 -7.33301 -22.5 -10s-29.5 -4 -43.5 -4c-19.333 0 -32.666 1.16699 -39.999 3.5s-12.666 7.16602 -15.999 14.499c-21.333 48 -48.666 93 -81.999 135c-11.333 14.667 -17 23.667 -17 27c0 5.33301 3.5 14.666 10.5 27.999s14.5 26.666 22.5 39.999
c7.33301 11.333 13.666 22.666 18.999 33.999c16.667 35.333 33.334 75 50.001 119c2 6 11.833 10.5 29.5 13.5z" />
    <glyph glyph-name="registered" unicode="&#xae;" horiz-adv-x="687" 
d="M493 675c46.667 -23.333 83.5 -57.501 110.5 -102.501s40.5 -98.5 40.5 -160.5s-13.833 -116.333 -41.5 -163s-65 -82.5 -112 -107.5s-98.167 -37.5 -153.5 -37.5c-56 0 -106.167 12.5 -150.5 37.5s-79.333 60.833 -105 107.5s-38.5 101 -38.5 163
s13.167 115.333 39.5 160s61.833 78.834 106.5 102.501s94 35.5 148 35.5c57.333 0 109.333 -11.667 156 -35zM451 209.999c33.333 18.667 59.501 45.334 78.501 80.001s28.5 75.334 28.5 122.001c0 46 -9.66699 85.5 -29 118.5s-45.666 58.167 -78.999 75.5s-71 26 -113 26
c-39.333 0 -74.833 -8.66699 -106.5 -26s-56.5 -42.5 -74.5 -75.5s-27 -72.5 -27 -118.5c0 -46.667 8.66699 -87.334 26 -122.001s41.666 -61.334 72.999 -80.001s67.666 -28 108.999 -28c42.667 0 80.667 9.33301 114 28zM450.001 397.499
c-10.667 -18.333 -27.667 -30.835 -51 -37.502l57 -73c4 -6 6 -11 6 -15c0 -8.66699 -5.83301 -15.5 -17.5 -20.5s-24.5 -7.5 -38.5 -7.5s-22.667 3 -26 9l-46 102c-6 0 -10.667 0.333008 -14 1l3 -85c0 -7.33301 -4 -13.666 -12 -18.999s-18.333 -8 -31 -8
c-10.667 0 -19.5 2.66699 -26.5 8s-10.5 11.666 -10.5 18.999l1 61c1.33301 48 2 84.667 2 110l1 116c0 6.66699 4.16699 11.334 12.5 14.001s25.166 4 50.499 4c54.667 0 94.334 -10.5 119.001 -31.5s37 -51.167 37 -90.5c0 -19.333 -5.33301 -38.166 -16 -56.499z
M371.001 497.497c-10 9 -25.333 13.501 -46 13.501h-5c-0.666992 -20.667 -1 -50.334 -1 -89.001v-6l20 -1c12 -0.666992 22.833 3.5 32.5 12.5s14.5 17.833 14.5 26.5c0 20 -5 34.5 -15 43.5z" />
    <glyph glyph-name="macron" unicode="&#xaf;" horiz-adv-x="600" 
d="M118 587c-5.33301 3.33301 -8.00098 10.333 -8.00098 21c0 4 -0.333008 10.167 -1 18.5s-1 18.5 -1 30.5c0 12.667 2.16699 20.667 6.5 24s12.5 5 24.5 5h106h75h33c6 0 9 -3.66699 9 -11l1 -32c0.666992 -6.66699 1 -17 1 -31c0 -8 -2.16699 -14.667 -6.5 -20
s-9.83301 -8 -16.5 -8l-198 -2c-11.333 0 -19.666 1.66699 -24.999 5z" />
    <glyph glyph-name="degree" unicode="&#xb0;" horiz-adv-x="372" 
d="M259 689c22 -14 39.498 -33.502 52.498 -58.502s19.5 -53.5 19.5 -85.5c0 -37.333 -7.5 -67.666 -22.5 -90.999s-33.5 -40.166 -55.5 -50.499s-44.333 -15.5 -67 -15.5c-23.333 0 -46.166 6.16699 -68.499 18.5s-40.666 30.5 -54.999 54.5s-21.5 52 -21.5 84
c0 33.333 6.66699 62.5 20 87.5s31 44.167 53 57.5s46 20 72 20c26.667 0 51 -7 73 -21zM150.498 595.498c-9.66699 -14.333 -14.501 -31.166 -14.501 -50.499c0 -21.333 5.33301 -37.333 16 -48s24 -16 40 -16c10.667 0 20.667 6.33301 30 19s14 27.667 14 45
c0 19.333 -5.66699 36.166 -17 50.499s-23.666 21.5 -36.999 21.5c-11.333 0 -21.833 -7.16699 -31.5 -21.5z" />
    <glyph glyph-name="plusminus" unicode="&#xb1;" horiz-adv-x="496" 
d="M64 339.5c-2 15.667 -3 29.8359 -3 42.5029s1 23.5 3 32.5s5.66699 13.5 11 13.5h113v36l-1 85c0 4.66699 6.66699 8 20 10s25.666 3 36.999 3c14.667 0 29.167 -1.16699 43.5 -3.5s21.5 -5.83301 21.5 -10.5c0 -44 0.333008 -83.667 1 -119h51
c16.667 0 29.834 -0.333008 39.501 -1s16.167 -1 19.5 -1c6.66699 0 10.834 -4.33301 12.501 -13s2.5 -19.334 2.5 -32.001c0 -19.333 -1 -35 -3 -47s-6 -18 -12 -18h-110v-15c0 -16.667 -0.333008 -29.834 -1 -39.501s-1 -16.167 -1 -19.5
c0 -6.66699 -4.33301 -10.834 -13 -12.501s-19.334 -2.5 -32.001 -2.5c-50 0 -75 5 -75 15v74h-29l-85 -1c-4.66699 0 -8 7.83301 -10 23.5zM432 156.002c2 -12 3.00195 -27.667 3.00195 -47c0 -12.667 -0.833008 -23.334 -2.5 -32.001s-5.83398 -13 -12.501 -13
c-3.33301 0 -9.83301 -0.333008 -19.5 -1s-22.834 -1 -39.501 -1l-286 1c-5.33301 0 -9 4.5 -11 13.5s-3 19.833 -3 32.5s1 26.834 3 42.501s5.33301 23.5 10 23.5l85 -1h104h157c6 0 10 -6 12 -18z" />
    <glyph glyph-name="acute" unicode="&#xb4;" horiz-adv-x="600" 
d="M254 771c19.333 0 37.3311 -1.5 53.998 -4.5s25 -7.16699 25 -12.5c0 -8 -8 -24 -24 -48l-75 -114c-10 -14.667 -32 -22 -66 -22c-11.333 0 -19.666 1.66699 -24.999 5s-8 9.33301 -8 18c0 3.33301 1 7.33301 3 12c8.66699 26 22.334 70 41.001 132
c7.33301 22.667 32.333 34 75 34z" />
    <glyph glyph-name="periodcentered" unicode="&#xb7;" horiz-adv-x="291" 
d="M69 271c-4 12 -6 30.001 -6 54.001l2 34c1.33301 21.333 2 36 2 44c0 13.333 2.66699 22 8 26s13 6 23 6h107c4 0 8.5 -3.16699 13.5 -9.5s7.5 -13.833 7.5 -22.5c0 -23.333 0.333008 -39.333 1 -48l1 -52c0 -10.667 -2.16699 -20.834 -6.5 -30.501
s-9.83301 -14.5 -16.5 -14.5l-23 -1c-25.333 -2.66699 -55.333 -4 -90 -4c-11.333 0 -19 6 -23 18z" />
    <glyph glyph-name="cedilla" unicode="&#xb8;" horiz-adv-x="600" 
d="M292 3c18.667 -17.333 27.9961 -41.002 27.9961 -71.002c0 -33.333 -11.333 -60.166 -34 -80.499s-49.334 -30.5 -80.001 -30.5c-23.333 0 -42.166 3.33301 -56.499 10s-27.833 16.334 -40.5 29.001c-7.33301 7.33301 -11 15 -11 23c0 4.66699 2.83301 11.667 8.5 21
s11.834 16.666 18.501 21.999s12.334 6 17.001 2c10.667 -10 19.167 -17 25.5 -21s14.833 -6 25.5 -6c24.667 0 37 12.667 37 38c0 16 -5.16699 29.833 -15.5 41.5s-25.166 20.167 -44.499 25.5l45 37c32.667 -9.33301 58.334 -22.666 77.001 -39.999z" />
    <glyph glyph-name="guillemotright" unicode="&#xbb;" horiz-adv-x="492" 
d="M224 341c5.33301 -11.333 11.6621 -22.6689 18.9951 -34.002c8 -13.333 15.5 -26.666 22.5 -39.999s10.5 -22.666 10.5 -27.999c0 -3.33301 -5.66699 -12.333 -17 -27c-33.333 -42 -60.666 -87 -81.999 -135c-3.33301 -7.33301 -8.66602 -12.166 -15.999 -14.499
s-20.666 -3.5 -39.999 -3.5c-14 0 -28.5 1.33301 -43.5 4s-22.5 6 -22.5 10c0 2 2.5 8.66699 7.5 20s9.5 20.333 13.5 27l53 89c4.66699 7.33301 8.33398 13.5 11.001 18.5s4 8.83301 4 11.5c0 3.33301 -14 34.333 -42 93c-12.667 24.667 -23.667 50.167 -33 76.5
s-14 43.166 -14 50.499c0 12.667 13 19 39 19c16 0 32.833 -1.5 50.5 -4.5s27.5 -7.5 29.5 -13.5c16.667 -44 33.334 -83.667 50.001 -119zM396.996 340.997c5.33301 -11.333 11.6621 -22.6699 18.9951 -34.0029c8 -13.333 15.5 -26.666 22.5 -39.999
s10.5 -22.666 10.5 -27.999c0 -3.33301 -5.66699 -12.333 -17 -27c-33.333 -42 -60.666 -87 -81.999 -135c-3.33301 -7.33301 -8.66602 -12.166 -15.999 -14.499s-20.666 -3.5 -39.999 -3.5c-13.333 0 -25.666 1.33301 -36.999 4s-17 6 -17 10c0 2 2.5 8.66699 7.5 20
s9.5 20.333 13.5 27c18.667 33.333 40 66.333 64 99c8 10 12 16.667 12 20c0 0.666992 -4 8 -12 22c-11.333 18.667 -24 42.334 -38 71.001c-12.667 24.667 -23.667 50.167 -33 76.5s-14 43.166 -14 50.499c0 12.667 13 19 39 19c14.667 0 29.167 -1.5 43.5 -4.5
s22.5 -7.5 24.5 -13.5c16.667 -44 33.334 -83.667 50.001 -119z" />
    <glyph glyph-name="questiondown" unicode="&#xbf;" horiz-adv-x="415" 
d="M313 486c4 -12 6 -30.002 6 -54.002c0 -5.33301 -0.666992 -15.333 -2 -30c-1.33301 -17.333 -2 -30 -2 -38c0 -13.333 -2.66699 -22 -8 -26s-13 -6 -23 -6h-107c-4 0 -8.5 3.16699 -13.5 9.5s-7.5 13.833 -7.5 22.5l-1 49c-0.666992 10.667 -1 24.334 -1 41.001
c0 10.667 2.16699 20.834 6.5 30.501s9.83301 14.5 16.5 14.5l23 1c25.333 2.66699 55.333 4 90 4c11.333 0 19 -6 23 -18zM276 184.998c-10.667 -18 -26.333 -36.999 -47 -56.999c-19.333 -19.333 -33.666 -36.666 -42.999 -51.999s-14 -35.333 -14 -60
s9 -43.334 27 -56.001s38.667 -19 62 -19c18.667 0 33.5 3 44.5 9s25.5 16.333 43.5 31c4 3.33301 11.167 -3.16699 21.5 -19.5s19.833 -35.833 28.5 -58.5s13 -40.334 13 -53.001c0 -7.33301 -8 -15.833 -24 -25.5s-37.167 -18 -63.5 -25s-53.833 -10.5 -82.5 -10.5
c-36 0 -69.667 7.33301 -101 22s-56.5 35.667 -75.5 63s-28.5 59.333 -28.5 96c0 50 5.33301 88.667 16 116s28.667 53 54 77c13.333 12 20.666 18.333 21.999 19c16 14 27.167 25.667 33.5 35s9.5 23 9.5 41c0 6 7.33301 10.167 22 12.5s30 3.5 46 3.5
c12.667 0 24.5 -1.16699 35.5 -3.5s16.5 -6.5 16.5 -12.5c0 -30.667 -5.33301 -55 -16 -73z" />
    <glyph glyph-name="Agrave" unicode="&#xc0;" horiz-adv-x="500" 
d="M436 519.5c12.667 -53 19.0029 -130.5 19.0029 -232.5v-136l-1 -62v-61c0 -14 -3.33301 -22.333 -10 -25c-5.33301 -2.66699 -15.666 -4 -30.999 -4l-25 1c-42.667 0 -64 3.66699 -64 11v143h-2c-60.667 0 -109.334 -0.333008 -146.001 -1v-2l-1 -62v-57
c0 -14 -3.33301 -22.333 -10 -25c-4.66699 -2.66699 -12.834 -4.66699 -24.501 -6s-22.167 -1.66602 -31.5 -0.999023c-42.667 0 -64 3.66699 -64 11v276c0 102.667 6.66699 177.667 20 225s29.666 84.666 48.999 111.999c18 26.667 37.667 47.667 59 63
s49.666 23 84.999 23c27.333 0 51 -5.66699 71 -17s39.333 -29.333 58 -54c20 -26.667 36.333 -66.5 49 -119.5zM324.003 284v3c0 95.333 -6.83301 164.333 -20.5 207s-30.834 64 -51.501 64c-48 0 -72 -90.333 -72 -271v-2h118c4.66699 -0.666992 13.334 -1 26.001 -1z
M313.003 795c2 -4.66699 2.99805 -8.66699 2.99805 -12c0 -8 -5.66699 -13.833 -17 -17.5s-24 -5.5 -38 -5.5c-19.333 0 -30 1.66699 -32 5l-87 131c-16 24 -24 40 -24 48c0 11.333 15.333 17 46 17c22.667 0 45.334 -2.66699 68.001 -8s36 -14 40 -26
c18.667 -62 32.334 -106 41.001 -132z" />
    <glyph glyph-name="Aacute" unicode="&#xc1;" horiz-adv-x="500" 
d="M436 519.5c12.667 -53 19.0029 -130.5 19.0029 -232.5v-136l-1 -62v-61c0 -14 -3.33301 -22.333 -10 -25c-5.33301 -2.66699 -15.666 -4 -30.999 -4l-25 1c-42.667 0 -64 3.66699 -64 11v143h-2c-60.667 0 -109.334 -0.333008 -146.001 -1v-2l-1 -62v-57
c0 -14 -3.33301 -22.333 -10 -25c-4.66699 -2.66699 -12.834 -4.66699 -24.501 -6s-22.167 -1.66602 -31.5 -0.999023c-42.667 0 -64 3.66699 -64 11v276c0 102.667 6.66699 177.667 20 225s29.666 84.666 48.999 111.999c18 26.667 37.667 47.667 59 63
s49.666 23 84.999 23c27.333 0 51 -5.66699 71 -17s39.333 -29.333 58 -54c20 -26.667 36.333 -66.5 49 -119.5zM324.003 284v3c0 95.333 -6.83301 164.333 -20.5 207s-30.834 64 -51.501 64c-48 0 -72 -90.333 -72 -271v-2h118c4.66699 -0.666992 13.334 -1 26.001 -1z
M312.003 961c19.333 0 37.3311 -1.5 53.998 -4.5s25 -7.16699 25 -12.5c0 -8 -8 -24 -24 -48l-75 -114c-10 -14.667 -32 -22 -66 -22c-11.333 0 -19.666 1.66699 -24.999 5s-8 9.33301 -8 18c0 3.33301 1 7.33301 3 12c8.66699 26 22.334 70 41.001 132
c7.33301 22.667 32.333 34 75 34z" />
    <glyph glyph-name="Acircumflex" unicode="&#xc2;" horiz-adv-x="500" 
d="M436 519.5c12.667 -53 19.0029 -130.5 19.0029 -232.5v-136l-1 -62v-61c0 -14 -3.33301 -22.333 -10 -25c-5.33301 -2.66699 -15.666 -4 -30.999 -4l-25 1c-42.667 0 -64 3.66699 -64 11v143h-2c-60.667 0 -109.334 -0.333008 -146.001 -1v-2l-1 -62v-57
c0 -14 -3.33301 -22.333 -10 -25c-4.66699 -2.66699 -12.834 -4.66699 -24.501 -6s-22.167 -1.66602 -31.5 -0.999023c-42.667 0 -64 3.66699 -64 11v276c0 102.667 6.66699 177.667 20 225s29.666 84.666 48.999 111.999c18 26.667 37.667 47.667 59 63
s49.666 23 84.999 23c27.333 0 51 -5.66699 71 -17s39.333 -29.333 58 -54c20 -26.667 36.333 -66.5 49 -119.5zM324.003 284v3c0 95.333 -6.83301 164.333 -20.5 207s-30.834 64 -51.501 64c-48 0 -72 -90.333 -72 -271v-2h118c4.66699 -0.666992 13.334 -1 26.001 -1z
M397.003 806c8 -10.667 12.001 -20.335 12.001 -29.002c0 -14 -17 -21 -51 -21c-24.667 0 -42.334 1.16699 -53.001 3.5s-17.667 7.83301 -21 16.5c-4.66699 10.667 -8.33398 20.334 -11.001 29.001l-8 20c-4 10 -7.33301 17.5 -10 22.5s-5 7.5 -7 7.5
c-3.33301 0 -13.333 -18 -30 -54l-10 -20c-3.33301 -6 -13 -11.167 -29 -15.5s-34.333 -6.5 -55 -6.5c-7.33301 0 -14.666 1.66699 -21.999 5s-11 8 -11 14c0 4.66699 2.33301 10.334 7 17.001l88 132c2.66699 4 11.167 7.5 25.5 10.5s28.5 4.5 42.5 4.5
c32 0 51.667 -5 59 -15z" />
    <glyph glyph-name="Atilde" unicode="&#xc3;" horiz-adv-x="500" 
d="M436 519.5c12.667 -53 19.0029 -130.5 19.0029 -232.5v-136l-1 -62v-61c0 -14 -3.33301 -22.333 -10 -25c-5.33301 -2.66699 -15.666 -4 -30.999 -4l-25 1c-42.667 0 -64 3.66699 -64 11v143h-2c-60.667 0 -109.334 -0.333008 -146.001 -1v-2l-1 -62v-57
c0 -14 -3.33301 -22.333 -10 -25c-4.66699 -2.66699 -12.834 -4.66699 -24.501 -6s-22.167 -1.66602 -31.5 -0.999023c-42.667 0 -64 3.66699 -64 11v276c0 102.667 6.66699 177.667 20 225s29.666 84.666 48.999 111.999c18 26.667 37.667 47.667 59 63
s49.666 23 84.999 23c27.333 0 51 -5.66699 71 -17s39.333 -29.333 58 -54c20 -26.667 36.333 -66.5 49 -119.5zM324.003 284v3c0 95.333 -6.83301 164.333 -20.5 207s-30.834 64 -51.501 64c-48 0 -72 -90.333 -72 -271v-2h118c4.66699 -0.666992 13.334 -1 26.001 -1z
M332.503 914c5.66699 3.33301 12.834 5.00098 21.501 5.00098c10 0 19.667 -1.66699 29 -5s14 -7.33301 14 -12c0 -35.333 -6 -66.666 -18 -93.999s-33.333 -41 -64 -41c-16 0 -29 2.5 -39 7.5s-21.667 13.167 -35 24.5c-2 1.33301 -5.83301 4.66602 -11.5 9.99902
s-11.167 9.33301 -16.5 12s-10 4 -14 4c-15.333 0 -23 -14.333 -23 -43c0 -4.66699 -2.33301 -8.16699 -7 -10.5s-10.667 -3.5 -18 -3.5c-10.667 0 -21.167 2 -31.5 6s-15.5 8.33301 -15.5 13c0 48.667 8 83.667 24 105s37.333 32 64 32c23.333 0 45.666 -10 66.999 -30
c10 -9.33301 18.333 -16.333 25 -21s13 -7 19 -7s11 3.16699 15 9.5s6 14.166 6 23.499c0 6.66699 2.83301 11.667 8.5 15z" />
    <glyph glyph-name="Adieresis" unicode="&#xc4;" horiz-adv-x="500" 
d="M436 519.5c12.667 -53 19.0029 -130.5 19.0029 -232.5v-136l-1 -62v-61c0 -14 -3.33301 -22.333 -10 -25c-5.33301 -2.66699 -15.666 -4 -30.999 -4l-25 1c-42.667 0 -64 3.66699 -64 11v143h-2c-60.667 0 -109.334 -0.333008 -146.001 -1v-2l-1 -62v-57
c0 -14 -3.33301 -22.333 -10 -25c-4.66699 -2.66699 -12.834 -4.66699 -24.501 -6s-22.167 -1.66602 -31.5 -0.999023c-42.667 0 -64 3.66699 -64 11v276c0 102.667 6.66699 177.667 20 225s29.666 84.666 48.999 111.999c18 26.667 37.667 47.667 59 63
s49.666 23 84.999 23c27.333 0 51 -5.66699 71 -17s39.333 -29.333 58 -54c20 -26.667 36.333 -66.5 49 -119.5zM324.003 284v3c0 95.333 -6.83301 164.333 -20.5 207s-30.834 64 -51.501 64c-48 0 -72 -90.333 -72 -271v-2h118c4.66699 -0.666992 13.334 -1 26.001 -1z
M114.503 767c-5.66699 1.33301 -10.5 6 -14.5 14c-4 7.33301 -6 22.666 -6 45.999c0 4.66699 0.666992 11.667 2 21s2 18.333 2 27c0 15.333 6.66699 23 20 23l11 -1c4 0 9 0.666992 15 2s13 2 21 2c4.66699 0 10.667 -0.833008 18 -2.5s14 -2.16699 20 -1.5
c6 0 9 -3.66699 9 -11c0 -4.66699 0.333008 -10.667 1 -18s1 -17.666 1 -30.999v-42c0 -18.667 -7.66699 -28 -23 -28c-8.66699 0 -16 -0.333008 -22 -1s-11.333 -1 -16 -1c-20 0 -32.833 0.666992 -38.5 2zM358.003 900c6 -0.666992 14.666 -0.999023 25.999 -0.999023
c15.333 0 23 -9.33301 23 -28c0 -15.333 -0.333008 -28 -1 -38l-1 -53c0 -7.33301 -3 -11 -9 -11c-6 0.666992 -12.667 0.166992 -20 -1.5s-13.333 -2.5 -18 -2.5l-52 1c-3.33301 0 -6.66602 2.33301 -9.99902 7s-5 10.667 -5 18c0 8.66699 -0.666992 17.667 -2 27
s-2 16.333 -2 21c0 23.333 2 38.666 6 45.999s8.16699 11.833 12.5 13.5s11.833 2.5 22.5 2.5z" />
    <glyph glyph-name="Aring" unicode="&#xc5;" horiz-adv-x="500" 
d="M436 519.5c12.667 -53 19.0029 -130.5 19.0029 -232.5v-136l-1 -62v-61c0 -14 -3.33301 -22.333 -10 -25c-5.33301 -2.66699 -15.666 -4 -30.999 -4l-25 1c-42.667 0 -64 3.66699 -64 11v143h-2c-60.667 0 -109.334 -0.333008 -146.001 -1v-2l-1 -62v-57
c0 -14 -3.33301 -22.333 -10 -25c-4.66699 -2.66699 -12.834 -4.66699 -24.501 -6s-22.167 -1.66602 -31.5 -0.999023c-42.667 0 -64 3.66699 -64 11v276c0 102.667 6.66699 177.667 20 225s29.666 84.666 48.999 111.999c18 26.667 37.667 47.667 59 63
s49.666 23 84.999 23c27.333 0 51 -5.66699 71 -17s39.333 -29.333 58 -54c20 -26.667 36.333 -66.5 49 -119.5zM324.003 284v3c0 95.333 -6.83301 164.333 -20.5 207s-30.834 64 -51.501 64c-48 0 -72 -90.333 -72 -271v-2h118c4.66699 -0.666992 13.334 -1 26.001 -1z
M324.003 940c21.333 -9.33301 38.333 -22 51 -38s19 -33.667 19 -53c0 -18 -6.5 -35.167 -19.5 -51.5s-30.167 -29.5 -51.5 -39.5s-44 -15 -68 -15c-27.333 0 -51.5 4.83301 -72.5 14.5s-37.333 22.667 -49 39s-17.5 33.833 -17.5 52.5c0 30 12.667 55 38 75s59 30 101 30
c24.667 0 47.667 -4.66699 69 -14zM212.503 873.5c-11.667 -7 -17.4971 -15.167 -17.4971 -24.5c0 -10 5.66699 -18.5 17 -25.5s25.666 -10.5 42.999 -10.5c18 0 32.5 3.5 43.5 10.5s16.5 15.5 16.5 25.5s-5.33301 18.333 -16 25s-25.334 10 -44.001 10
c-16.667 0 -30.834 -3.5 -42.501 -10.5z" />
    <glyph glyph-name="AE" unicode="&#xc6;" horiz-adv-x="694" 
d="M654 90l-3.00391 -27.0029c-0.666992 -9.33301 0 -17.333 2 -24s3 -11.667 3 -15c0 -10 -2.66699 -16.5 -8 -19.5s-13.666 -4.5 -24.999 -4.5l-74 1l-161 -1l-37 -1c-24.667 0 -37 5.33301 -37 16l2 198v15l-138 -1l-2 -76l-1 -62v-57c0 -14 -3.33301 -22.333 -10 -25
c-4.66699 -2.66699 -12.834 -4.66699 -24.501 -6s-22.167 -1.66602 -31.5 -0.999023c-42.667 0 -64 3.66699 -64 11v276c0 96.667 11 174.834 33 234.501s55 103.667 99 132s100 44.5 168 48.5c6 0.666992 17.667 1 35 1l138 -2c19.333 -0.666992 39 -1 59 -1l35 2l26 1
c6.66699 0 11.834 -1.66699 15.501 -5s5.5 -10 5.5 -20c0 -4.66699 -0.666992 -11.667 -2 -21l-3 -25c-0.666992 -14.667 -1 -36.667 -1 -66c0 -6.66699 -4.16699 -11.167 -12.5 -13.5s-21.833 -3.5 -40.5 -3.5l-48 1c-41.333 0 -76.333 -0.333008 -105 -1v-194
c30.667 -0.666992 64.334 -1 101.001 -1l56 -1c6.66699 0 11.834 -1.66699 15.501 -5s5.5 -10 5.5 -20l1 -25c0 -6.66699 -0.333008 -12.334 -1 -17.001c-0.666992 -10.667 -1 -20 -1 -28v-18c0 -5.33301 -2.83301 -8.66602 -8.5 -9.99902s-13.5 -2 -23.5 -2h-21l-80 1
l-43 -2v-81l53 -1l73 1l35 2l26 1c6.66699 0 11.834 -1.66699 15.501 -5s5.5 -10 5.5 -20c0 -5.33301 -0.666992 -16.666 -2 -33.999zM249.996 355.997c34 0 56.3311 -0.334961 66.998 -1.00195v35l-1 138v20c-31.333 -1.33301 -56.166 -8.16602 -74.499 -20.499
s-32.166 -32.166 -41.499 -59.499s-15.333 -64.333 -18 -111z" />
    <glyph glyph-name="Ccedilla" unicode="&#xc7;" horiz-adv-x="469" 
d="M407.5 29c-19 -15.333 -42.8359 -27.335 -71.5029 -36.002c12.667 -16.667 19 -37 19 -61c0 -33.333 -11.333 -60.166 -34 -80.499s-49.334 -30.5 -80.001 -30.5c-23.333 0 -42.166 3.33301 -56.499 10s-27.833 16.334 -40.5 29.001c-7.33301 7.33301 -11 15 -11 23
c0 4.66699 2.83301 11.667 8.5 21s11.834 16.666 18.501 21.999s12.334 6 17.001 2c10.667 -10 19.167 -17 25.5 -21s14.833 -6 25.5 -6c24.667 0 37 12.667 37 38c0 17.333 -6 32 -18 44c-22 2 -43.667 8.16699 -65 18.5s-39.666 22.166 -54.999 35.499
c-24.667 21.333 -45.667 52.666 -63 93.999s-26 93.333 -26 156c0 159.333 24.333 272.333 73 339c40.667 56 98.667 84 174 84c17.333 0 36.5 -3.5 57.5 -10.5s38.833 -15.5 53.5 -25.5s22 -18.333 22 -25c0 -13.333 -4 -30.333 -12 -51s-17 -39.167 -27 -55.5
s-18 -24.5 -24 -24.5c-2 0 -5.16699 1.5 -9.5 4.5l-9.5 6.5c-12.667 8.66699 -24.334 15.667 -35.001 21s-22 8 -34 8c-27.333 0 -49.833 -21.167 -67.5 -63.5s-26.5 -111.5 -26.5 -207.5c0 -41.333 7.83301 -77.166 23.5 -107.499s37.834 -45.5 66.501 -45.5
c14.667 0 31.5 5.33301 50.5 16s37.833 26.334 56.5 47.001c2.66699 3.33301 6 5 10 5c8 0 16.333 -8.16699 25 -24.5s16 -35.166 22 -56.499s9 -38.333 9 -51c0 -12 -9.5 -25.667 -28.5 -41z" />
    <glyph glyph-name="Egrave" unicode="&#xc8;" horiz-adv-x="441" 
d="M403 39c2 -6.66699 2.99609 -11.668 2.99609 -15.001c0 -10 -2.66699 -16.5 -8 -19.5s-13.666 -4.5 -24.999 -4.5l-74 1l-175 -1l-37 -1c-24.667 0 -37 5.33301 -37 16l2 198l1 177l-1 138v150c0 7.33301 1.5 12.833 4.5 16.5s8.83301 6 17.5 7s22.667 1.5 42 1.5l93 -1
c15.333 -0.666992 33.666 -1 54.999 -1c8.66699 -0.666992 25 -1 49 -1l35 2l26 1c6.66699 0 11.834 -1.66699 15.501 -5s5.5 -10 5.5 -20c0 -4.66699 -0.666992 -11.667 -2 -21l-3 -25c-0.666992 -14.667 -1 -36.667 -1 -66c0 -6.66699 -4.16699 -11.167 -12.5 -13.5
s-21.833 -3.5 -40.5 -3.5l-48 1c-41.333 0 -76.333 -0.333008 -105 -1v-18v-176c30.667 -0.666992 64.334 -1 101.001 -1l56 -1c6.66699 0 11.834 -1.66699 15.501 -5s5.5 -10 5.5 -20l1 -25c0 -6.66699 -0.333008 -12.334 -1 -17.001c-0.666992 -10.667 -1 -20 -1 -28v-18
c0 -5.33301 -2.83301 -8.66602 -8.5 -9.99902s-13.5 -2 -23.5 -2h-21l-80 1l-43 -2v-20v-61l53 -1l87 1l35 2l26 1c6.66699 0 11.834 -1.66699 15.501 -5s5.5 -10 5.5 -20c0 -5.33301 -0.666992 -16.666 -2 -33.999l-3 -27c-0.666992 -9.33301 0 -17.333 2 -24z
M276.996 794.999c2 -4.66699 2.99805 -8.66699 2.99805 -12c0 -8 -5.66699 -13.833 -17 -17.5s-24 -5.5 -38 -5.5c-19.333 0 -30 1.66699 -32 5l-87 131c-16 24 -24 40 -24 48c0 11.333 15.333 17 46 17c22.667 0 45.334 -2.66699 68.001 -8s36 -14 40 -26
c18.667 -62 32.334 -106 41.001 -132z" />
    <glyph glyph-name="Eacute" unicode="&#xc9;" horiz-adv-x="441" 
d="M403 39c2 -6.66699 2.99609 -11.668 2.99609 -15.001c0 -10 -2.66699 -16.5 -8 -19.5s-13.666 -4.5 -24.999 -4.5l-74 1l-175 -1l-37 -1c-24.667 0 -37 5.33301 -37 16l2 198l1 177l-1 138v150c0 7.33301 1.5 12.833 4.5 16.5s8.83301 6 17.5 7s22.667 1.5 42 1.5l93 -1
c15.333 -0.666992 33.666 -1 54.999 -1c8.66699 -0.666992 25 -1 49 -1l35 2l26 1c6.66699 0 11.834 -1.66699 15.501 -5s5.5 -10 5.5 -20c0 -4.66699 -0.666992 -11.667 -2 -21l-3 -25c-0.666992 -14.667 -1 -36.667 -1 -66c0 -6.66699 -4.16699 -11.167 -12.5 -13.5
s-21.833 -3.5 -40.5 -3.5l-48 1c-41.333 0 -76.333 -0.333008 -105 -1v-18v-176c30.667 -0.666992 64.334 -1 101.001 -1l56 -1c6.66699 0 11.834 -1.66699 15.501 -5s5.5 -10 5.5 -20l1 -25c0 -6.66699 -0.333008 -12.334 -1 -17.001c-0.666992 -10.667 -1 -20 -1 -28v-18
c0 -5.33301 -2.83301 -8.66602 -8.5 -9.99902s-13.5 -2 -23.5 -2h-21l-80 1l-43 -2v-20v-61l53 -1l87 1l35 2l26 1c6.66699 0 11.834 -1.66699 15.501 -5s5.5 -10 5.5 -20c0 -5.33301 -0.666992 -16.666 -2 -33.999l-3 -27c-0.666992 -9.33301 0 -17.333 2 -24z
M292.996 960.999c19.333 0 37.3311 -1.5 53.998 -4.5s25 -7.16699 25 -12.5c0 -8 -8 -24 -24 -48l-75 -114c-10 -14.667 -32 -22 -66 -22c-11.333 0 -19.666 1.66699 -24.999 5s-8 9.33301 -8 18c0 3.33301 1 7.33301 3 12c8.66699 26 22.334 70 41.001 132
c7.33301 22.667 32.333 34 75 34z" />
    <glyph glyph-name="Ecircumflex" unicode="&#xca;" horiz-adv-x="441" 
d="M403 39c2 -6.66699 2.99609 -11.668 2.99609 -15.001c0 -10 -2.66699 -16.5 -8 -19.5s-13.666 -4.5 -24.999 -4.5l-74 1l-175 -1l-37 -1c-24.667 0 -37 5.33301 -37 16l2 198l1 177l-1 138v150c0 7.33301 1.5 12.833 4.5 16.5s8.83301 6 17.5 7s22.667 1.5 42 1.5l93 -1
c15.333 -0.666992 33.666 -1 54.999 -1c8.66699 -0.666992 25 -1 49 -1l35 2l26 1c6.66699 0 11.834 -1.66699 15.501 -5s5.5 -10 5.5 -20c0 -4.66699 -0.666992 -11.667 -2 -21l-3 -25c-0.666992 -14.667 -1 -36.667 -1 -66c0 -6.66699 -4.16699 -11.167 -12.5 -13.5
s-21.833 -3.5 -40.5 -3.5l-48 1c-41.333 0 -76.333 -0.333008 -105 -1v-18v-176c30.667 -0.666992 64.334 -1 101.001 -1l56 -1c6.66699 0 11.834 -1.66699 15.501 -5s5.5 -10 5.5 -20l1 -25c0 -6.66699 -0.333008 -12.334 -1 -17.001c-0.666992 -10.667 -1 -20 -1 -28v-18
c0 -5.33301 -2.83301 -8.66602 -8.5 -9.99902s-13.5 -2 -23.5 -2h-21l-80 1l-43 -2v-20v-61l53 -1l87 1l35 2l26 1c6.66699 0 11.834 -1.66699 15.501 -5s5.5 -10 5.5 -20c0 -5.33301 -0.666992 -16.666 -2 -33.999l-3 -27c-0.666992 -9.33301 0 -17.333 2 -24z
M375.996 805.999c8 -10.667 12.001 -20.335 12.001 -29.002c0 -14 -17 -21 -51 -21c-24.667 0 -42.334 1.16699 -53.001 3.5s-17.667 7.83301 -21 16.5c-4.66699 10.667 -8.33398 20.334 -11.001 29.001l-8 20c-4 10 -7.33301 17.5 -10 22.5s-5 7.5 -7 7.5
c-3.33301 0 -13.333 -18 -30 -54l-10 -20c-3.33301 -6 -13 -11.167 -29 -15.5s-34.333 -6.5 -55 -6.5c-7.33301 0 -14.666 1.66699 -21.999 5s-11 8 -11 14c0 4.66699 2.33301 10.334 7 17.001l88 132c2.66699 4 11.167 7.5 25.5 10.5s28.5 4.5 42.5 4.5
c32 0 51.667 -5 59 -15z" />
    <glyph glyph-name="Edieresis" unicode="&#xcb;" horiz-adv-x="441" 
d="M403 39c2 -6.66699 2.99609 -11.668 2.99609 -15.001c0 -10 -2.66699 -16.5 -8 -19.5s-13.666 -4.5 -24.999 -4.5l-74 1l-175 -1l-37 -1c-24.667 0 -37 5.33301 -37 16l2 198l1 177l-1 138v150c0 7.33301 1.5 12.833 4.5 16.5s8.83301 6 17.5 7s22.667 1.5 42 1.5l93 -1
c15.333 -0.666992 33.666 -1 54.999 -1c8.66699 -0.666992 25 -1 49 -1l35 2l26 1c6.66699 0 11.834 -1.66699 15.501 -5s5.5 -10 5.5 -20c0 -4.66699 -0.666992 -11.667 -2 -21l-3 -25c-0.666992 -14.667 -1 -36.667 -1 -66c0 -6.66699 -4.16699 -11.167 -12.5 -13.5
s-21.833 -3.5 -40.5 -3.5l-48 1c-41.333 0 -76.333 -0.333008 -105 -1v-18v-176c30.667 -0.666992 64.334 -1 101.001 -1l56 -1c6.66699 0 11.834 -1.66699 15.501 -5s5.5 -10 5.5 -20l1 -25c0 -6.66699 -0.333008 -12.334 -1 -17.001c-0.666992 -10.667 -1 -20 -1 -28v-18
c0 -5.33301 -2.83301 -8.66602 -8.5 -9.99902s-13.5 -2 -23.5 -2h-21l-80 1l-43 -2v-20v-61l53 -1l87 1l35 2l26 1c6.66699 0 11.834 -1.66699 15.501 -5s5.5 -10 5.5 -20c0 -5.33301 -0.666992 -16.666 -2 -33.999l-3 -27c-0.666992 -9.33301 0 -17.333 2 -24z
M94.4961 766.999c-5.66699 1.33301 -10.5 6 -14.5 14c-4 7.33301 -6 22.666 -6 45.999c0 4.66699 0.666992 11.667 2 21s2 18.333 2 27c0 15.333 6.66699 23 20 23l11 -1c4 0 9 0.666992 15 2s13 2 21 2c4.66699 0 10.667 -0.833008 18 -2.5s14 -2.16699 20 -1.5
c6 0 9 -3.66699 9 -11c0 -4.66699 0.333008 -10.667 1 -18s1 -17.666 1 -30.999v-42c0 -18.667 -7.66699 -28 -23 -28c-8.66699 0 -16 -0.333008 -22 -1s-11.333 -1 -16 -1c-20 0 -32.833 0.666992 -38.5 2zM337.996 899.999c6 -0.666992 14.666 -0.999023 25.999 -0.999023
c15.333 0 23 -9.33301 23 -28c0 -15.333 -0.333008 -28 -1 -38l-1 -53c0 -7.33301 -3 -11 -9 -11c-6 0.666992 -12.667 0.166992 -20 -1.5s-13.333 -2.5 -18 -2.5l-52 1c-3.33301 0 -6.66602 2.33301 -9.99902 7s-5 10.667 -5 18c0 8.66699 -0.666992 17.667 -2 27
s-2 16.333 -2 21c0 23.333 2 38.666 6 45.999s8.16699 11.833 12.5 13.5s11.833 2.5 22.5 2.5z" />
    <glyph glyph-name="Igrave" unicode="&#xcc;" horiz-adv-x="256" 
d="M63 691c0 4 6.66797 6.99902 20.001 8.99902s28 3 44 3l25 1c15.333 0 25.666 -1.33301 30.999 -4c6.66699 -2.66699 10 -11 10 -25v-62l1 -62v-233l1 -111c0 -117.333 -0.666992 -181.666 -2 -192.999c-1.33301 -7.33301 -3 -11.833 -5 -13.5s-5.33301 -2.5 -10 -2.5
l-26 1c-5.33301 0.666992 -13 1 -23 1l-35 -1c-22 0 -33 5.33301 -33 16l1 64c0.666992 8.66699 1 19 1 31v103l1 57l-1 85v336zM190.001 794.999c2 -4.66699 2.99805 -8.66699 2.99805 -12c0 -8 -5.66699 -13.833 -17 -17.5s-24 -5.5 -38 -5.5c-19.333 0 -30 1.66699 -32 5
l-87 131c-16 24 -24 40 -24 48c0 11.333 15.333 17 46 17c22.667 0 45.334 -2.66699 68.001 -8s36 -14 40 -26c18.667 -62 32.334 -106 41.001 -132z" />
    <glyph glyph-name="Iacute" unicode="&#xcd;" horiz-adv-x="256" 
d="M63 691c0 4 6.66797 6.99902 20.001 8.99902s28 3 44 3l25 1c15.333 0 25.666 -1.33301 30.999 -4c6.66699 -2.66699 10 -11 10 -25v-62l1 -62v-233l1 -111c0 -117.333 -0.666992 -181.666 -2 -192.999c-1.33301 -7.33301 -3 -11.833 -5 -13.5s-5.33301 -2.5 -10 -2.5
l-26 1c-5.33301 0.666992 -13 1 -23 1l-35 -1c-22 0 -33 5.33301 -33 16l1 64c0.666992 8.66699 1 19 1 31v103l1 57l-1 85v336zM183.001 960.999c19.333 0 37.3311 -1.5 53.998 -4.5s25 -7.16699 25 -12.5c0 -8 -8 -24 -24 -48l-75 -114c-10 -14.667 -32 -22 -66 -22
c-11.333 0 -19.666 1.66699 -24.999 5s-8 9.33301 -8 18c0 3.33301 1 7.33301 3 12c8.66699 26 22.334 70 41.001 132c7.33301 22.667 32.333 34 75 34z" />
    <glyph glyph-name="Icircumflex" unicode="&#xce;" horiz-adv-x="256" 
d="M63 691c0 4 6.66797 6.99902 20.001 8.99902s28 3 44 3l25 1c15.333 0 25.666 -1.33301 30.999 -4c6.66699 -2.66699 10 -11 10 -25v-62l1 -62v-233l1 -111c0 -117.333 -0.666992 -181.666 -2 -192.999c-1.33301 -7.33301 -3 -11.833 -5 -13.5s-5.33301 -2.5 -10 -2.5
l-26 1c-5.33301 0.666992 -13 1 -23 1l-35 -1c-22 0 -33 5.33301 -33 16l1 64c0.666992 8.66699 1 19 1 31v103l1 57l-1 85v336zM275.001 805.999c8 -10.667 12.001 -20.335 12.001 -29.002c0 -14 -17 -21 -51 -21c-24.667 0 -42.334 1.16699 -53.001 3.5
s-17.667 7.83301 -21 16.5c-4.66699 10.667 -8.33398 20.334 -11.001 29.001l-8 20c-4 10 -7.33301 17.5 -10 22.5s-5 7.5 -7 7.5c-3.33301 0 -13.333 -18 -30 -54l-10 -20c-3.33301 -6 -13 -11.167 -29 -15.5s-34.333 -6.5 -55 -6.5c-7.33301 0 -14.666 1.66699 -21.999 5
s-11 8 -11 14c0 4.66699 2.33301 10.334 7 17.001l88 132c2.66699 4 11.167 7.5 25.5 10.5s28.5 4.5 42.5 4.5c32 0 51.667 -5 59 -15z" />
    <glyph glyph-name="Idieresis" unicode="&#xcf;" horiz-adv-x="256" 
d="M63 691c0 4 6.66797 6.99902 20.001 8.99902s28 3 44 3l25 1c15.333 0 25.666 -1.33301 30.999 -4c6.66699 -2.66699 10 -11 10 -25v-62l1 -62v-233l1 -111c0 -117.333 -0.666992 -181.666 -2 -192.999c-1.33301 -7.33301 -3 -11.833 -5 -13.5s-5.33301 -2.5 -10 -2.5
l-26 1c-5.33301 0.666992 -13 1 -23 1l-35 -1c-22 0 -33 5.33301 -33 16l1 64c0.666992 8.66699 1 19 1 31v103l1 57l-1 85v336zM-7.49902 766.999c-5.66699 1.33301 -10.5 6 -14.5 14c-4 7.33301 -6 22.666 -6 45.999c0 4.66699 0.666992 11.667 2 21s2 18.333 2 27
c0 15.333 6.66699 23 20 23l11 -1c4 0 9 0.666992 15 2s13 2 21 2c4.66699 0 10.667 -0.833008 18 -2.5s14 -2.16699 20 -1.5c6 0 9 -3.66699 9 -11c0 -4.66699 0.333008 -10.667 1 -18s1 -17.666 1 -30.999v-42c0 -18.667 -7.66699 -28 -23 -28
c-8.66699 0 -16 -0.333008 -22 -1s-11.333 -1 -16 -1c-20 0 -32.833 0.666992 -38.5 2zM236.001 899.999c6 -0.666992 14.666 -0.999023 25.999 -0.999023c15.333 0 23 -9.33301 23 -28c0 -15.333 -0.333008 -28 -1 -38l-1 -53c0 -7.33301 -3 -11 -9 -11
c-6 0.666992 -12.667 0.166992 -20 -1.5s-13.333 -2.5 -18 -2.5l-52 1c-3.33301 0 -6.66602 2.33301 -9.99902 7s-5 10.667 -5 18c0 8.66699 -0.666992 17.667 -2 27s-2 16.333 -2 21c0 23.333 2 38.666 6 45.999s8.16699 11.833 12.5 13.5s11.833 2.5 22.5 2.5z" />
    <glyph glyph-name="Eth" unicode="&#xd0;" horiz-adv-x="513" 
d="M430.5 572c11 -20.667 21.167 -54.333 30.5 -101s14 -108 14 -184c0 -56.667 -10.667 -108.167 -32 -154.5s-52 -83 -92 -110s-86.667 -40.5 -140 -40.5c-18 0 -33.833 1.16699 -47.5 3.5s-26.834 5 -39.501 8l-28 6.5c-6.66699 2 -11.5 4.33301 -14.5 7
s-4.5 7.66699 -4.5 15l2 191v88h-37c-11.333 0 -18.833 3.83301 -22.5 11.5s-5.5 22.834 -5.5 45.501c0 20.667 7.33301 31 22 31h44v1l-1 138v150c0 8.66699 1.83301 14.667 5.5 18s10.167 5.66602 19.5 6.99902c22.667 0.666992 40.334 2 53.001 4
c4.66699 0 13 0.5 25 1.5s25.333 1.5 40 1.5c33.333 0 64.833 -6 94.5 -18s53.167 -29.667 70.5 -53c18 -24 32.5 -46.333 43.5 -67zM310 176.501c22.667 28.333 34.002 65.168 34.002 110.501c0 67.333 -3.83301 120.5 -11.5 159.5s-20.334 67.333 -38.001 85
s-41.834 26.5 -72.501 26.5h-12v-166c10.667 0 29.334 0.666992 56.001 2c6 0.666992 10.833 -4.83301 14.5 -16.5s5.5 -23.834 5.5 -36.501c0 -22 -6.66699 -33.667 -20 -35c-26.667 -1.33301 -45.334 -2 -56.001 -2l1 -97v-73h11c36 0 65.333 14.167 88 42.5z" />
    <glyph glyph-name="Ntilde" unicode="&#xd1;" horiz-adv-x="512" 
d="M462 207c0 -117.333 -0.666016 -181.667 -1.99902 -193c-1.33301 -7.33301 -3 -11.833 -5 -13.5s-5.33301 -2.5 -10 -2.5c-11.333 0 -20 0.333008 -26 1s-10.333 1 -13 1h-37c-6 0 -12.833 6.5 -20.5 19.5s-16.167 30.5 -25.5 52.5l-12 25
c-6 9.33301 -49.333 107 -130 293c-0.666992 -23.333 -1 -47.333 -1 -72l1 -111c0 -15.333 0.333008 -30 1 -44l1 -115c0 -20 -0.333008 -31.333 -1 -34c-1.33301 -7.33301 -3 -11.833 -5 -13.5s-5.33301 -2.5 -10 -2.5l-26 1c-5.33301 0.666992 -13 1 -23 1l-35 -1
c-22 0 -33 5.33301 -33 16l1 64c0.666992 8.66699 1 19 1 31v103l1 57l-1 85v336c0 4 6.66699 7 20 9s28 3 44 3h6c4.66699 0 9.5 -0.5 14.5 -1.5s8.83301 -1.5 11.5 -1.5c10 0 18 -4.33301 24 -13c8 -12 27.5 -54 58.5 -126l89.5 -211l12 -29v34l-2 336c0 4 6.66699 7 20 9
s28 3 44 3l25 1c15.333 0 25.666 -1.33301 30.999 -4c6.66699 -2.66699 10 -11 10 -25v-62l1 -62v-233zM338.501 913.999c5.66699 3.33301 12.834 5.00098 21.501 5.00098c10 0 19.667 -1.66699 29 -5s14 -7.33301 14 -12c0 -35.333 -6 -66.666 -18 -93.999
s-33.333 -41 -64 -41c-16 0 -29 2.5 -39 7.5s-21.667 13.167 -35 24.5c-2 1.33301 -5.83301 4.66602 -11.5 9.99902s-11.167 9.33301 -16.5 12s-10 4 -14 4c-15.333 0 -23 -14.333 -23 -43c0 -4.66699 -2.33301 -8.16699 -7 -10.5s-10.667 -3.5 -18 -3.5
c-10.667 0 -21.167 2 -31.5 6s-15.5 8.33301 -15.5 13c0 48.667 8 83.667 24 105s37.333 32 64 32c23.333 0 45.666 -10 66.999 -30c10 -9.33301 18.333 -16.333 25 -21s13 -7 19 -7s11 3.16699 15 9.5s6 14.166 6 23.499c0 6.66699 2.83301 11.667 8.5 15z" />
    <glyph glyph-name="Ograve" unicode="&#xd2;" horiz-adv-x="520" 
d="M472 189c-6.66699 -36.667 -19 -70.9951 -37 -102.995c-13.333 -22.667 -27.333 -41.334 -42 -56.001s-34.667 -26.334 -60 -35.001s-57.666 -13 -96.999 -13c-14.667 0 -33 4.16699 -55 12.5s-40 18.833 -54 31.5c-24 20.667 -44.833 53.5 -62.5 98.5
s-26.5 99.167 -26.5 162.5c0 109.333 5.66699 185.333 17 228s22.166 70.667 32.499 84l19.5 25c17.333 26 38.5 46.833 63.5 62.5s57.5 23.5 97.5 23.5c35.333 0 63.833 -5.5 85.5 -16.5s41.834 -29.167 60.501 -54.5c14 -18.667 25.667 -39.334 35 -62.001
s17.166 -57.334 23.499 -104.001s9.5 -108.667 9.5 -186c0 -28.667 -3.33301 -61.334 -10 -98.001zM173 287.005c0 -44 6.83301 -80.501 20.5 -109.501s36.5 -43.5 68.5 -43.5c29.333 0 51.5 15.833 66.5 47.5s22.5 66.834 22.5 105.501c0 98 -7.66699 167.667 -23 209
s-37.333 62 -66 62c-59.333 0 -89 -90.333 -89 -271zM327 795.004c2 -4.66699 2.99805 -8.66699 2.99805 -12c0 -8 -5.66699 -13.833 -17 -17.5s-24 -5.5 -38 -5.5c-19.333 0 -30 1.66699 -32 5l-87 131c-16 24 -24 40 -24 48c0 11.333 15.333 17 46 17
c22.667 0 45.334 -2.66699 68.001 -8s36 -14 40 -26c18.667 -62 32.334 -106 41.001 -132z" />
    <glyph glyph-name="Oacute" unicode="&#xd3;" horiz-adv-x="520" 
d="M472 189c-6.66699 -36.667 -19 -70.9951 -37 -102.995c-13.333 -22.667 -27.333 -41.334 -42 -56.001s-34.667 -26.334 -60 -35.001s-57.666 -13 -96.999 -13c-14.667 0 -33 4.16699 -55 12.5s-40 18.833 -54 31.5c-24 20.667 -44.833 53.5 -62.5 98.5
s-26.5 99.167 -26.5 162.5c0 109.333 5.66699 185.333 17 228s22.166 70.667 32.499 84l19.5 25c17.333 26 38.5 46.833 63.5 62.5s57.5 23.5 97.5 23.5c35.333 0 63.833 -5.5 85.5 -16.5s41.834 -29.167 60.501 -54.5c14 -18.667 25.667 -39.334 35 -62.001
s17.166 -57.334 23.499 -104.001s9.5 -108.667 9.5 -186c0 -28.667 -3.33301 -61.334 -10 -98.001zM173 287.005c0 -44 6.83301 -80.501 20.5 -109.501s36.5 -43.5 68.5 -43.5c29.333 0 51.5 15.833 66.5 47.5s22.5 66.834 22.5 105.501c0 98 -7.66699 167.667 -23 209
s-37.333 62 -66 62c-59.333 0 -89 -90.333 -89 -271zM321 961.004c19.333 0 37.3311 -1.5 53.998 -4.5s25 -7.16699 25 -12.5c0 -8 -8 -24 -24 -48l-75 -114c-10 -14.667 -32 -22 -66 -22c-11.333 0 -19.666 1.66699 -24.999 5s-8 9.33301 -8 18c0 3.33301 1 7.33301 3 12
c8.66699 26 22.334 70 41.001 132c7.33301 22.667 32.333 34 75 34z" />
    <glyph glyph-name="Ocircumflex" unicode="&#xd4;" horiz-adv-x="520" 
d="M472 189c-6.66699 -36.667 -19 -70.9951 -37 -102.995c-13.333 -22.667 -27.333 -41.334 -42 -56.001s-34.667 -26.334 -60 -35.001s-57.666 -13 -96.999 -13c-14.667 0 -33 4.16699 -55 12.5s-40 18.833 -54 31.5c-24 20.667 -44.833 53.5 -62.5 98.5
s-26.5 99.167 -26.5 162.5c0 109.333 5.66699 185.333 17 228s22.166 70.667 32.499 84l19.5 25c17.333 26 38.5 46.833 63.5 62.5s57.5 23.5 97.5 23.5c35.333 0 63.833 -5.5 85.5 -16.5s41.834 -29.167 60.501 -54.5c14 -18.667 25.667 -39.334 35 -62.001
s17.166 -57.334 23.499 -104.001s9.5 -108.667 9.5 -186c0 -28.667 -3.33301 -61.334 -10 -98.001zM173 287.005c0 -44 6.83301 -80.501 20.5 -109.501s36.5 -43.5 68.5 -43.5c29.333 0 51.5 15.833 66.5 47.5s22.5 66.834 22.5 105.501c0 98 -7.66699 167.667 -23 209
s-37.333 62 -66 62c-59.333 0 -89 -90.333 -89 -271zM407 806.004c8 -10.667 12.001 -20.335 12.001 -29.002c0 -14 -17 -21 -51 -21c-24.667 0 -42.334 1.16699 -53.001 3.5s-17.667 7.83301 -21 16.5c-4.66699 10.667 -8.33398 20.334 -11.001 29.001l-8 20
c-4 10 -7.33301 17.5 -10 22.5s-5 7.5 -7 7.5c-3.33301 0 -13.333 -18 -30 -54l-10 -20c-3.33301 -6 -13 -11.167 -29 -15.5s-34.333 -6.5 -55 -6.5c-7.33301 0 -14.666 1.66699 -21.999 5s-11 8 -11 14c0 4.66699 2.33301 10.334 7 17.001l88 132
c2.66699 4 11.167 7.5 25.5 10.5s28.5 4.5 42.5 4.5c32 0 51.667 -5 59 -15z" />
    <glyph glyph-name="Otilde" unicode="&#xd5;" horiz-adv-x="520" 
d="M472 189c-6.66699 -36.667 -19 -70.9951 -37 -102.995c-13.333 -22.667 -27.333 -41.334 -42 -56.001s-34.667 -26.334 -60 -35.001s-57.666 -13 -96.999 -13c-14.667 0 -33 4.16699 -55 12.5s-40 18.833 -54 31.5c-24 20.667 -44.833 53.5 -62.5 98.5
s-26.5 99.167 -26.5 162.5c0 109.333 5.66699 185.333 17 228s22.166 70.667 32.499 84l19.5 25c17.333 26 38.5 46.833 63.5 62.5s57.5 23.5 97.5 23.5c35.333 0 63.833 -5.5 85.5 -16.5s41.834 -29.167 60.501 -54.5c14 -18.667 25.667 -39.334 35 -62.001
s17.166 -57.334 23.499 -104.001s9.5 -108.667 9.5 -186c0 -28.667 -3.33301 -61.334 -10 -98.001zM173 287.005c0 -44 6.83301 -80.501 20.5 -109.501s36.5 -43.5 68.5 -43.5c29.333 0 51.5 15.833 66.5 47.5s22.5 66.834 22.5 105.501c0 98 -7.66699 167.667 -23 209
s-37.333 62 -66 62c-59.333 0 -89 -90.333 -89 -271zM342.5 914.004c5.66699 3.33301 12.834 5.00098 21.501 5.00098c10 0 19.667 -1.66699 29 -5s14 -7.33301 14 -12c0 -35.333 -6 -66.666 -18 -93.999s-33.333 -41 -64 -41c-16 0 -29 2.5 -39 7.5
s-21.667 13.167 -35 24.5c-2 1.33301 -5.83301 4.66602 -11.5 9.99902s-11.167 9.33301 -16.5 12s-10 4 -14 4c-15.333 0 -23 -14.333 -23 -43c0 -4.66699 -2.33301 -8.16699 -7 -10.5s-10.667 -3.5 -18 -3.5c-10.667 0 -21.167 2 -31.5 6s-15.5 8.33301 -15.5 13
c0 48.667 8 83.667 24 105s37.333 32 64 32c23.333 0 45.666 -10 66.999 -30c10 -9.33301 18.333 -16.333 25 -21s13 -7 19 -7s11 3.16699 15 9.5s6 14.166 6 23.499c0 6.66699 2.83301 11.667 8.5 15z" />
    <glyph glyph-name="Odieresis" unicode="&#xd6;" horiz-adv-x="520" 
d="M472 189c-6.66699 -36.667 -19 -70.9951 -37 -102.995c-13.333 -22.667 -27.333 -41.334 -42 -56.001s-34.667 -26.334 -60 -35.001s-57.666 -13 -96.999 -13c-14.667 0 -33 4.16699 -55 12.5s-40 18.833 -54 31.5c-24 20.667 -44.833 53.5 -62.5 98.5
s-26.5 99.167 -26.5 162.5c0 109.333 5.66699 185.333 17 228s22.166 70.667 32.499 84l19.5 25c17.333 26 38.5 46.833 63.5 62.5s57.5 23.5 97.5 23.5c35.333 0 63.833 -5.5 85.5 -16.5s41.834 -29.167 60.501 -54.5c14 -18.667 25.667 -39.334 35 -62.001
s17.166 -57.334 23.499 -104.001s9.5 -108.667 9.5 -186c0 -28.667 -3.33301 -61.334 -10 -98.001zM173 287.005c0 -44 6.83301 -80.501 20.5 -109.501s36.5 -43.5 68.5 -43.5c29.333 0 51.5 15.833 66.5 47.5s22.5 66.834 22.5 105.501c0 98 -7.66699 167.667 -23 209
s-37.333 62 -66 62c-59.333 0 -89 -90.333 -89 -271zM124.5 767.004c-5.66699 1.33301 -10.5 6 -14.5 14c-4 7.33301 -6 22.666 -6 45.999c0 4.66699 0.666992 11.667 2 21s2 18.333 2 27c0 15.333 6.66699 23 20 23l11 -1c4 0 9 0.666992 15 2s13 2 21 2
c4.66699 0 10.667 -0.833008 18 -2.5s14 -2.16699 20 -1.5c6 0 9 -3.66699 9 -11c0 -4.66699 0.333008 -10.667 1 -18s1 -17.666 1 -30.999v-42c0 -18.667 -7.66699 -28 -23 -28c-8.66699 0 -16 -0.333008 -22 -1s-11.333 -1 -16 -1c-20 0 -32.833 0.666992 -38.5 2z
M368 900.004c6 -0.666992 14.666 -0.999023 25.999 -0.999023c15.333 0 23 -9.33301 23 -28c0 -15.333 -0.333008 -28 -1 -38l-1 -53c0 -7.33301 -3 -11 -9 -11c-6 0.666992 -12.667 0.166992 -20 -1.5s-13.333 -2.5 -18 -2.5l-52 1c-3.33301 0 -6.66602 2.33301 -9.99902 7
s-5 10.667 -5 18c0 8.66699 -0.666992 17.667 -2 27s-2 16.333 -2 21c0 23.333 2 38.666 6 45.999s8.16699 11.833 12.5 13.5s11.833 2.5 22.5 2.5z" />
    <glyph glyph-name="multiply" unicode="&#xd7;" horiz-adv-x="482" 
d="M371 246c14.667 -14.667 24.832 -25.5029 30.499 -32.5029s8.5 -12.5 8.5 -16.5c0 -5.33301 -2.16699 -11.666 -6.5 -18.999s-8.83301 -13.333 -13.5 -18c-14.667 -14 -26.667 -24.5 -36 -31.5s-16.333 -8.16699 -21 -3.5l-87 88l-45 -44
c-12.667 -12.667 -22.5 -23 -29.5 -31s-11.833 -13.333 -14.5 -16c-4 -4 -9.5 -3.83301 -16.5 0.5s-15.5 11.166 -25.5 20.499l-24 23.5c-13.333 13 -20 22.5 -20 28.5c0 4 2 8.66699 6 14s7 9 9 11c9.33301 10.667 25.666 26.334 48.999 47.001l30 28l-30 29l-61 59
c-3.33301 3.33301 -0.166016 11.333 9.50098 24s18.834 23.334 27.501 32.001s17 15.5 25 20.5s14 5.83301 18 2.5l91 -90l29 29c10.667 10.667 21 22.667 31 36c9.33301 12 15.333 19.333 18 22s6.33398 4 11.001 4c7.33301 0 15.666 -3.16699 24.999 -9.5
s16.333 -12.5 21 -18.5c8 -7.33301 15.167 -15.666 21.5 -24.999s9.5 -18 9.5 -26c0 -6 -2 -11 -6 -15l-79 -78z" />
    <glyph glyph-name="Oslash" unicode="&#xd8;" horiz-adv-x="559" 
d="M522 564l-25 -33.9971c12.667 -58.667 19 -139.667 19 -243c0 -28.667 -3.33301 -61.334 -10 -98.001s-19 -71 -37 -103c-13.333 -22.667 -27.333 -41.334 -42 -56.001s-34.667 -26.334 -60 -35.001s-57.666 -13 -96.999 -13c-14.667 0 -33 4.16699 -55 12.5
s-40 18.833 -54 31.5c-17.333 15.333 -33 36 -47 62l-76 -80c-5.33301 -5.33301 -9.83301 -3.33301 -13.5 6s-5.5 22 -5.5 38c0 21.333 1.5 41 4.5 59s7.83301 31 14.5 39l41 47c-4.66699 31.333 -7 61.333 -7 90c0 109.333 5.66699 185.333 17 228s22.166 70.667 32.499 84
l19.5 25c17.333 26 38.5 46.833 63.5 62.5s57.5 23.5 97.5 23.5c35.333 0 63.833 -5.5 85.5 -16.5s41.834 -29.167 60.501 -54.5l11 -15l16 18l36 40c5.33301 5.33301 9.66602 8 12.999 8c6 0 9 -7 9 -21l1 -53c0 -22.667 -4 -40 -12 -52zM208 337.003l55 60l79 91l16 19
c-14.667 34 -35.334 51 -62.001 51c-53.333 0 -82.666 -73.667 -87.999 -221zM381 387.003c-18 -22 -38 -45.001 -60 -69.001l-70 -78l-33 -37c14 -46 40 -69 78 -69c29.333 0 51.5 15.833 66.5 47.5s22.5 66.834 22.5 105.501c0 40.667 -1.33301 74 -4 100z" />
    <glyph glyph-name="Ugrave" unicode="&#xd9;" horiz-adv-x="495" 
d="M448 287c0 -30.667 -3.33398 -65.832 -10.001 -105.499s-19 -75.167 -37 -106.5c-18 -30.667 -39.167 -53.834 -63.5 -69.501s-54.833 -23.5 -91.5 -23.5c-19.333 0 -38.5 4 -57.5 12s-36.167 18.667 -51.5 32c-24 20.667 -44.833 53.5 -62.5 98.5
s-26.5 99.167 -26.5 162.5l-1 268v136c0 4 8 7.16699 24 9.5s34.333 3.5 55 3.5c24.667 0 40.334 -1.33301 47.001 -4s10 -11 10 -25l-1 -85l1 -303c0 -102 21 -153 63 -153c24.667 0 42.667 15.5 54 46.5s17 66.5 17 106.5l-1 268v130c0 6 8.66699 10.5 26 13.5
s36.333 4.5 57 4.5s33 -1 37 -3c6.66699 -2.66699 10 -11 10 -25l1 -84v-73zM296.999 795.002c2 -4.66699 2.99805 -8.66699 2.99805 -12c0 -8 -5.66699 -13.833 -17 -17.5s-24 -5.5 -38 -5.5c-19.333 0 -30 1.66699 -32 5l-87 131c-16 24 -24 40 -24 48
c0 11.333 15.333 17 46 17c22.667 0 45.334 -2.66699 68.001 -8s36 -14 40 -26c18.667 -62 32.334 -106 41.001 -132z" />
    <glyph glyph-name="Uacute" unicode="&#xda;" horiz-adv-x="495" 
d="M448 287c0 -30.667 -3.33398 -65.832 -10.001 -105.499s-19 -75.167 -37 -106.5c-18 -30.667 -39.167 -53.834 -63.5 -69.501s-54.833 -23.5 -91.5 -23.5c-19.333 0 -38.5 4 -57.5 12s-36.167 18.667 -51.5 32c-24 20.667 -44.833 53.5 -62.5 98.5
s-26.5 99.167 -26.5 162.5l-1 268v136c0 4 8 7.16699 24 9.5s34.333 3.5 55 3.5c24.667 0 40.334 -1.33301 47.001 -4s10 -11 10 -25l-1 -85l1 -303c0 -102 21 -153 63 -153c24.667 0 42.667 15.5 54 46.5s17 66.5 17 106.5l-1 268v130c0 6 8.66699 10.5 26 13.5
s36.333 4.5 57 4.5s33 -1 37 -3c6.66699 -2.66699 10 -11 10 -25l1 -84v-73zM317.999 961.002c19.333 0 37.3311 -1.5 53.998 -4.5s25 -7.16699 25 -12.5c0 -8 -8 -24 -24 -48l-75 -114c-10 -14.667 -32 -22 -66 -22c-11.333 0 -19.666 1.66699 -24.999 5s-8 9.33301 -8 18
c0 3.33301 1 7.33301 3 12c8.66699 26 22.334 70 41.001 132c7.33301 22.667 32.333 34 75 34z" />
    <glyph glyph-name="Ucircumflex" unicode="&#xdb;" horiz-adv-x="495" 
d="M448 287c0 -30.667 -3.33398 -65.832 -10.001 -105.499s-19 -75.167 -37 -106.5c-18 -30.667 -39.167 -53.834 -63.5 -69.501s-54.833 -23.5 -91.5 -23.5c-19.333 0 -38.5 4 -57.5 12s-36.167 18.667 -51.5 32c-24 20.667 -44.833 53.5 -62.5 98.5
s-26.5 99.167 -26.5 162.5l-1 268v136c0 4 8 7.16699 24 9.5s34.333 3.5 55 3.5c24.667 0 40.334 -1.33301 47.001 -4s10 -11 10 -25l-1 -85l1 -303c0 -102 21 -153 63 -153c24.667 0 42.667 15.5 54 46.5s17 66.5 17 106.5l-1 268v130c0 6 8.66699 10.5 26 13.5
s36.333 4.5 57 4.5s33 -1 37 -3c6.66699 -2.66699 10 -11 10 -25l1 -84v-73zM393.999 806.002c8 -10.667 12.001 -20.335 12.001 -29.002c0 -14 -17 -21 -51 -21c-24.667 0 -42.334 1.16699 -53.001 3.5s-17.667 7.83301 -21 16.5
c-4.66699 10.667 -8.33398 20.334 -11.001 29.001l-8 20c-4 10 -7.33301 17.5 -10 22.5s-5 7.5 -7 7.5c-3.33301 0 -13.333 -18 -30 -54l-10 -20c-3.33301 -6 -13 -11.167 -29 -15.5s-34.333 -6.5 -55 -6.5c-7.33301 0 -14.666 1.66699 -21.999 5s-11 8 -11 14
c0 4.66699 2.33301 10.334 7 17.001l88 132c2.66699 4 11.167 7.5 25.5 10.5s28.5 4.5 42.5 4.5c32 0 51.667 -5 59 -15z" />
    <glyph glyph-name="Udieresis" unicode="&#xdc;" horiz-adv-x="495" 
d="M448 287c0 -30.667 -3.33398 -65.832 -10.001 -105.499s-19 -75.167 -37 -106.5c-18 -30.667 -39.167 -53.834 -63.5 -69.501s-54.833 -23.5 -91.5 -23.5c-19.333 0 -38.5 4 -57.5 12s-36.167 18.667 -51.5 32c-24 20.667 -44.833 53.5 -62.5 98.5
s-26.5 99.167 -26.5 162.5l-1 268v136c0 4 8 7.16699 24 9.5s34.333 3.5 55 3.5c24.667 0 40.334 -1.33301 47.001 -4s10 -11 10 -25l-1 -85l1 -303c0 -102 21 -153 63 -153c24.667 0 42.667 15.5 54 46.5s17 66.5 17 106.5l-1 268v130c0 6 8.66699 10.5 26 13.5
s36.333 4.5 57 4.5s33 -1 37 -3c6.66699 -2.66699 10 -11 10 -25l1 -84v-73zM111.499 767.002c-5.66699 1.33301 -10.5 6 -14.5 14c-4 7.33301 -6 22.666 -6 45.999c0 4.66699 0.666992 11.667 2 21s2 18.333 2 27c0 15.333 6.66699 23 20 23l11 -1c4 0 9 0.666992 15 2
s13 2 21 2c4.66699 0 10.667 -0.833008 18 -2.5s14 -2.16699 20 -1.5c6 0 9 -3.66699 9 -11c0 -4.66699 0.333008 -10.667 1 -18s1 -17.666 1 -30.999v-42c0 -18.667 -7.66699 -28 -23 -28c-8.66699 0 -16 -0.333008 -22 -1s-11.333 -1 -16 -1
c-20 0 -32.833 0.666992 -38.5 2zM354.999 900.002c6 -0.666992 14.666 -0.999023 25.999 -0.999023c15.333 0 23 -9.33301 23 -28c0 -15.333 -0.333008 -28 -1 -38l-1 -53c0 -7.33301 -3 -11 -9 -11c-6 0.666992 -12.667 0.166992 -20 -1.5s-13.333 -2.5 -18 -2.5l-52 1
c-3.33301 0 -6.66602 2.33301 -9.99902 7s-5 10.667 -5 18c0 8.66699 -0.666992 17.667 -2 27s-2 16.333 -2 21c0 23.333 2 38.666 6 45.999s8.16699 11.833 12.5 13.5s11.833 2.5 22.5 2.5z" />
    <glyph glyph-name="Yacute" unicode="&#xdd;" horiz-adv-x="491" 
d="M445.5 503c0.333008 -8 0.499023 -23.335 0.499023 -46.002c0 -58.667 -14 -112 -42 -160c-13.333 -23.333 -26.833 -41.833 -40.5 -55.5s-30.5 -23.834 -50.5 -30.501v-76c0 -69.333 -0.666992 -109.666 -2 -120.999c-1.33301 -7.33301 -3 -11.833 -5 -13.5
s-5.33301 -2.5 -10 -2.5l-26 1c-5.33301 0.666992 -13 1 -23 1l-35 -1c-22 0 -33 5.33301 -33 16l1 64c0.666992 8.66699 1 19 1 31v104c-16.667 7.33301 -33 18 -49 32c-26 22.667 -46.833 49.834 -62.5 81.501s-23.5 74.834 -23.5 129.501
c0 34.667 -0.333008 57.667 -1 69v29v136c0 4 8 7.16699 24 9.5s34.333 3.5 55 3.5c24.667 0 40.334 -1.33301 47.001 -4s10 -11 10 -25l-1 -85l1 -123c0 -37.333 4.5 -68.833 13.5 -94.5s26.833 -38.5 53.5 -38.5c24 0 41.167 14.333 51.5 43s15.5 58.667 15.5 90l-1 88
v130c0 6 8.66699 10.5 26 13.5s36.333 4.5 57 4.5s33 -1 37 -3c6.66699 -2.66699 10 -11 10 -25l1 -84v-73c0 -2 0.166992 -7 0.5 -15zM312.999 960.998c19.333 0 37.3311 -1.5 53.998 -4.5s25 -7.16699 25 -12.5c0 -8 -8 -24 -24 -48l-75 -114c-10 -14.667 -32 -22 -66 -22
c-11.333 0 -19.666 1.66699 -24.999 5s-8 9.33301 -8 18c0 3.33301 1 7.33301 3 12c8.66699 26 22.334 70 41.001 132c7.33301 22.667 32.333 34 75 34z" />
    <glyph glyph-name="Thorn" unicode="&#xde;" horiz-adv-x="467" 
d="M304 597c37.333 -18 67.835 -46.333 91.502 -85s35.5 -87 35.5 -145c0 -50 -9.33301 -93.5 -28 -130.5s-43.834 -65.5 -75.501 -85.5s-66.834 -30 -105.501 -30c-12 0 -24.667 1 -38 3c0 -60 -0.666992 -96.667 -2 -110c-1.33301 -7.33301 -3 -11.833 -5 -13.5
s-5.33301 -2.5 -10 -2.5l-26 1c-5.33301 0.666992 -13 1 -23 1l-35 -1c-22 0 -33 5.33301 -33 16l1 64c0.666992 8.66699 1 19 1 31v103l1 57l-1 85v323c0 11.333 5.33301 18.333 16 21c8 1.33301 14.333 2 19 2l29 -1h27c15.333 0 25 -1 29 -3
c6.66699 -2.66699 10 -11 10 -25v-48h3c42 0 81.667 -9 119 -27zM278.002 274.5c14.667 14.333 22 39.166 22 74.499c0 38.667 -8.83301 68.834 -26.5 90.501s-43.167 32.5 -76.5 32.5c-5.33301 0 -10 -0.333008 -14 -1v-153c0 -26 0.333008 -46.667 1 -62
c12 -2 23 -3 33 -3c26 0 46.333 7.16699 61 21.5z" />
    <glyph glyph-name="germandbls" unicode="&#xdf;" horiz-adv-x="654" 
d="M584 245.5c12.667 -11.667 22.3379 -24.9971 29.0049 -39.9971s10 -33.833 10 -56.5c0 -27.333 -6.83301 -53.333 -20.5 -78s-32.167 -44.334 -55.5 -59.001s-49.333 -22 -78 -22c-34.667 0 -64.334 5.16699 -89.001 15.5s-48.334 26.5 -71.001 48.5
c-2 2 -3.66699 9.83301 -5 23.5s-2 24.5 -2 32.5c0 16 2.66699 30.667 8 44s12.333 20 21 20c5.33301 0 9.66602 -1.66699 12.999 -5c22 -18 41.833 -31.167 59.5 -39.5s35.834 -12.5 54.501 -12.5c10 0 17.333 3.33301 22 10s7 15 7 25s-5.5 19.833 -16.5 29.5
s-28.167 22.5 -51.5 38.5l-27 18c-54.667 39.333 -82 86.666 -82 141.999c0 20.667 4.5 39.5 13.5 56.5s21.167 31.167 36.5 42.5c12 8.66699 18.667 13.334 20 14.001c17.333 12 29.5 21.167 36.5 27.5s10.5 12.833 10.5 19.5c0 7.33301 -5.16699 12.666 -15.5 15.999
s-21.5 5 -33.5 5c-42.667 0 -76.167 -23.167 -100.5 -69.5s-36.5 -108.5 -36.5 -186.5c0 -85.333 0.666992 -138.666 2 -159.999c3.33301 -54 6.66602 -98 9.99902 -132c0 -3.33301 -0.833008 -6.33301 -2.5 -9s-4.16699 -4 -7.5 -4h-25
c-10.667 0 -18.334 -0.333008 -23.001 -1c-14.667 -2 -26.334 -3 -35.001 -3l-34 1c-5.33301 0 -9 2.66699 -11 8s-3.16699 10.5 -3.5 15.5s-0.5 8.16699 -0.5 9.5c-2.66699 26 -4 64.333 -4 115l1 135c0 10 0.666992 30.333 2 61h-59c-6 0 -9.83301 2.16699 -11.5 6.5
s-2.5 10.833 -2.5 19.5s0.666992 21 2 37l1 26c-1.33301 8 -2 13 -2 15c0 8.66699 3 15 9 19s15.667 6 29 6h48l4 24c2 12 8 29 18 51s20.333 40 31 54c21.333 28.667 50.166 54 86.499 76s74.5 33 114.5 33c54 0 97.333 -12.167 130 -36.5s49 -58.833 49 -103.5
c0 -34.667 -5.16699 -60.667 -15.5 -78s-26.166 -33 -47.499 -47l-21 -13c-10.667 -6.66699 -18.834 -14 -24.501 -22s-8.5 -17.333 -8.5 -28c0 -16.667 5.5 -30.334 16.5 -41.001s27.5 -23 49.5 -37l22 -14c24.667 -16.667 43.334 -30.834 56.001 -42.501z" />
    <glyph glyph-name="agrave" unicode="&#xe0;" horiz-adv-x="468" 
d="M76.5 346.5c27.667 52.333 64.5 92.666 110.5 120.999s94.667 42.5 146 42.5c20.667 0 35.167 -0.5 43.5 -1.5s17.833 -3.5 28.5 -7.5c7.33301 -2.66699 12.333 -9 15 -19s4 -29.667 4 -59l1 -110v-125l-1 -142c0 -12 -1.16699 -22.667 -3.5 -32s-5.5 -14 -9.5 -14
c-8 0 -16 -1 -24 -3c-13.333 -2.66699 -27.333 -4 -42 -4l-20 1c-4 0 -7.83301 2 -11.5 6s-5.5 8 -5.5 12l1 85c0 27.333 -1 39.333 -3 36c-2 -4 -11.333 -20.167 -28 -48.5s-36.5 -53.166 -59.5 -74.499s-44.833 -32 -65.5 -32c-37.333 0 -66.333 17.333 -87 52
s-31 80 -31 136c0 68 13.833 128.167 41.5 180.5zM240.5 354c-17 -12.667 -31.5 -29.332 -43.5 -49.999s-20 -42 -24 -64c-3.33301 -21.333 -5 -40.333 -5 -57c0 -15.333 1 -27.833 3 -37.5s5 -14.5 9 -14.5c10 0 22.333 6.33301 37 19s28.667 28 42 46l16.5 22.5
c9 12.333 16.167 23.833 21.5 34.5c1.33301 6.66699 2 29 2 67c0 34 -1.33301 51 -4 51c-19.333 1.33301 -37.5 -4.33398 -54.5 -17.001zM347 605.002c2 -4.66699 2.99805 -8.66699 2.99805 -12c0 -8 -5.66699 -13.833 -17 -17.5s-24 -5.5 -38 -5.5
c-19.333 0 -30 1.66699 -32 5l-87 131c-16 24 -24 40 -24 48c0 11.333 15.333 17 46 17c22.667 0 45.334 -2.66699 68.001 -8s36 -14 40 -26c18.667 -62 32.334 -106 41.001 -132z" />
    <glyph glyph-name="aacute" unicode="&#xe1;" horiz-adv-x="468" 
d="M76.5 346.5c27.667 52.333 64.5 92.666 110.5 120.999s94.667 42.5 146 42.5c20.667 0 35.167 -0.5 43.5 -1.5s17.833 -3.5 28.5 -7.5c7.33301 -2.66699 12.333 -9 15 -19s4 -29.667 4 -59l1 -110v-125l-1 -142c0 -12 -1.16699 -22.667 -3.5 -32s-5.5 -14 -9.5 -14
c-8 0 -16 -1 -24 -3c-13.333 -2.66699 -27.333 -4 -42 -4l-20 1c-4 0 -7.83301 2 -11.5 6s-5.5 8 -5.5 12l1 85c0 27.333 -1 39.333 -3 36c-2 -4 -11.333 -20.167 -28 -48.5s-36.5 -53.166 -59.5 -74.499s-44.833 -32 -65.5 -32c-37.333 0 -66.333 17.333 -87 52
s-31 80 -31 136c0 68 13.833 128.167 41.5 180.5zM240.5 354c-17 -12.667 -31.5 -29.332 -43.5 -49.999s-20 -42 -24 -64c-3.33301 -21.333 -5 -40.333 -5 -57c0 -15.333 1 -27.833 3 -37.5s5 -14.5 9 -14.5c10 0 22.333 6.33301 37 19s28.667 28 42 46l16.5 22.5
c9 12.333 16.167 23.833 21.5 34.5c1.33301 6.66699 2 29 2 67c0 34 -1.33301 51 -4 51c-19.333 1.33301 -37.5 -4.33398 -54.5 -17.001zM342 771.002c19.333 0 37.3311 -1.5 53.998 -4.5s25 -7.16699 25 -12.5c0 -8 -8 -24 -24 -48l-75 -114c-10 -14.667 -32 -22 -66 -22
c-11.333 0 -19.666 1.66699 -24.999 5s-8 9.33301 -8 18c0 3.33301 1 7.33301 3 12c8.66699 26 22.334 70 41.001 132c7.33301 22.667 32.333 34 75 34z" />
    <glyph glyph-name="acircumflex" unicode="&#xe2;" horiz-adv-x="468" 
d="M76.5 346.5c27.667 52.333 64.5 92.666 110.5 120.999s94.667 42.5 146 42.5c20.667 0 35.167 -0.5 43.5 -1.5s17.833 -3.5 28.5 -7.5c7.33301 -2.66699 12.333 -9 15 -19s4 -29.667 4 -59l1 -110v-125l-1 -142c0 -12 -1.16699 -22.667 -3.5 -32s-5.5 -14 -9.5 -14
c-8 0 -16 -1 -24 -3c-13.333 -2.66699 -27.333 -4 -42 -4l-20 1c-4 0 -7.83301 2 -11.5 6s-5.5 8 -5.5 12l1 85c0 27.333 -1 39.333 -3 36c-2 -4 -11.333 -20.167 -28 -48.5s-36.5 -53.166 -59.5 -74.499s-44.833 -32 -65.5 -32c-37.333 0 -66.333 17.333 -87 52
s-31 80 -31 136c0 68 13.833 128.167 41.5 180.5zM240.5 354c-17 -12.667 -31.5 -29.332 -43.5 -49.999s-20 -42 -24 -64c-3.33301 -21.333 -5 -40.333 -5 -57c0 -15.333 1 -27.833 3 -37.5s5 -14.5 9 -14.5c10 0 22.333 6.33301 37 19s28.667 28 42 46l16.5 22.5
c9 12.333 16.167 23.833 21.5 34.5c1.33301 6.66699 2 29 2 67c0 34 -1.33301 51 -4 51c-19.333 1.33301 -37.5 -4.33398 -54.5 -17.001zM399 616.002c8 -10.667 12.001 -20.335 12.001 -29.002c0 -14 -17 -21 -51 -21c-24.667 0 -42.334 1.16699 -53.001 3.5
s-17.667 7.83301 -21 16.5c-4.66699 10.667 -8.33398 20.334 -11.001 29.001l-8 20c-4 10 -7.33301 17.5 -10 22.5s-5 7.5 -7 7.5c-3.33301 0 -13.333 -18 -30 -54l-10 -20c-3.33301 -6 -13 -11.167 -29 -15.5s-34.333 -6.5 -55 -6.5c-7.33301 0 -14.666 1.66699 -21.999 5
s-11 8 -11 14c0 4.66699 2.33301 10.334 7 17.001l88 132c2.66699 4 11.167 7.5 25.5 10.5s28.5 4.5 42.5 4.5c32 0 51.667 -5 59 -15z" />
    <glyph glyph-name="atilde" unicode="&#xe3;" horiz-adv-x="468" 
d="M76.5 346.5c27.667 52.333 64.5 92.666 110.5 120.999s94.667 42.5 146 42.5c20.667 0 35.167 -0.5 43.5 -1.5s17.833 -3.5 28.5 -7.5c7.33301 -2.66699 12.333 -9 15 -19s4 -29.667 4 -59l1 -110v-125l-1 -142c0 -12 -1.16699 -22.667 -3.5 -32s-5.5 -14 -9.5 -14
c-8 0 -16 -1 -24 -3c-13.333 -2.66699 -27.333 -4 -42 -4l-20 1c-4 0 -7.83301 2 -11.5 6s-5.5 8 -5.5 12l1 85c0 27.333 -1 39.333 -3 36c-2 -4 -11.333 -20.167 -28 -48.5s-36.5 -53.166 -59.5 -74.499s-44.833 -32 -65.5 -32c-37.333 0 -66.333 17.333 -87 52
s-31 80 -31 136c0 68 13.833 128.167 41.5 180.5zM240.5 354c-17 -12.667 -31.5 -29.332 -43.5 -49.999s-20 -42 -24 -64c-3.33301 -21.333 -5 -40.333 -5 -57c0 -15.333 1 -27.833 3 -37.5s5 -14.5 9 -14.5c10 0 22.333 6.33301 37 19s28.667 28 42 46l16.5 22.5
c9 12.333 16.167 23.833 21.5 34.5c1.33301 6.66699 2 29 2 67c0 34 -1.33301 51 -4 51c-19.333 1.33301 -37.5 -4.33398 -54.5 -17.001zM343.5 724.002c5.66699 3.33301 12.834 5.00098 21.501 5.00098c10 0 19.667 -1.66699 29 -5s14 -7.33301 14 -12
c0 -35.333 -6 -66.666 -18 -93.999s-33.333 -41 -64 -41c-16 0 -29 2.5 -39 7.5s-21.667 13.167 -35 24.5c-2 1.33301 -5.83301 4.66602 -11.5 9.99902s-11.167 9.33301 -16.5 12s-10 4 -14 4c-15.333 0 -23 -14.333 -23 -43c0 -4.66699 -2.33301 -8.16699 -7 -10.5
s-10.667 -3.5 -18 -3.5c-10.667 0 -21.167 2 -31.5 6s-15.5 8.33301 -15.5 13c0 48.667 8 83.667 24 105s37.333 32 64 32c23.333 0 45.666 -10 66.999 -30c10 -9.33301 18.333 -16.333 25 -21s13 -7 19 -7s11 3.16699 15 9.5s6 14.166 6 23.499
c0 6.66699 2.83301 11.667 8.5 15z" />
    <glyph glyph-name="adieresis" unicode="&#xe4;" horiz-adv-x="468" 
d="M76.5 346.5c27.667 52.333 64.5 92.666 110.5 120.999s94.667 42.5 146 42.5c20.667 0 35.167 -0.5 43.5 -1.5s17.833 -3.5 28.5 -7.5c7.33301 -2.66699 12.333 -9 15 -19s4 -29.667 4 -59l1 -110v-125l-1 -142c0 -12 -1.16699 -22.667 -3.5 -32s-5.5 -14 -9.5 -14
c-8 0 -16 -1 -24 -3c-13.333 -2.66699 -27.333 -4 -42 -4l-20 1c-4 0 -7.83301 2 -11.5 6s-5.5 8 -5.5 12l1 85c0 27.333 -1 39.333 -3 36c-2 -4 -11.333 -20.167 -28 -48.5s-36.5 -53.166 -59.5 -74.499s-44.833 -32 -65.5 -32c-37.333 0 -66.333 17.333 -87 52
s-31 80 -31 136c0 68 13.833 128.167 41.5 180.5zM240.5 354c-17 -12.667 -31.5 -29.332 -43.5 -49.999s-20 -42 -24 -64c-3.33301 -21.333 -5 -40.333 -5 -57c0 -15.333 1 -27.833 3 -37.5s5 -14.5 9 -14.5c10 0 22.333 6.33301 37 19s28.667 28 42 46l16.5 22.5
c9 12.333 16.167 23.833 21.5 34.5c1.33301 6.66699 2 29 2 67c0 34 -1.33301 51 -4 51c-19.333 1.33301 -37.5 -4.33398 -54.5 -17.001zM123.5 577.002c-5.66699 1.33301 -10.5 6 -14.5 14c-4 7.33301 -6 22.666 -6 45.999c0 4.66699 0.666992 11.667 2 21s2 18.333 2 27
c0 15.333 6.66699 23 20 23l11 -1c4 0 9 0.666992 15 2s13 2 21 2c4.66699 0 10.667 -0.833008 18 -2.5s14 -2.16699 20 -1.5c6 0 9 -3.66699 9 -11c0 -4.66699 0.333008 -10.667 1 -18s1 -17.666 1 -30.999v-42c0 -18.667 -7.66699 -28 -23 -28
c-8.66699 0 -16 -0.333008 -22 -1s-11.333 -1 -16 -1c-20 0 -32.833 0.666992 -38.5 2zM367 710.002c6 -0.666992 14.666 -0.999023 25.999 -0.999023c15.333 0 23 -9.33301 23 -28c0 -15.333 -0.333008 -28 -1 -38l-1 -53c0 -7.33301 -3 -11 -9 -11
c-6 0.666992 -12.667 0.166992 -20 -1.5s-13.333 -2.5 -18 -2.5l-52 1c-3.33301 0 -6.66602 2.33301 -9.99902 7s-5 10.667 -5 18c0 8.66699 -0.666992 17.667 -2 27s-2 16.333 -2 21c0 23.333 2 38.666 6 45.999s8.16699 11.833 12.5 13.5s11.833 2.5 22.5 2.5z" />
    <glyph glyph-name="aring" unicode="&#xe5;" horiz-adv-x="468" 
d="M76.5 346.5c27.667 52.333 64.5 92.666 110.5 120.999s94.667 42.5 146 42.5c20.667 0 35.167 -0.5 43.5 -1.5s17.833 -3.5 28.5 -7.5c7.33301 -2.66699 12.333 -9 15 -19s4 -29.667 4 -59l1 -110v-125l-1 -142c0 -12 -1.16699 -22.667 -3.5 -32s-5.5 -14 -9.5 -14
c-8 0 -16 -1 -24 -3c-13.333 -2.66699 -27.333 -4 -42 -4l-20 1c-4 0 -7.83301 2 -11.5 6s-5.5 8 -5.5 12l1 85c0 27.333 -1 39.333 -3 36c-2 -4 -11.333 -20.167 -28 -48.5s-36.5 -53.166 -59.5 -74.499s-44.833 -32 -65.5 -32c-37.333 0 -66.333 17.333 -87 52
s-31 80 -31 136c0 68 13.833 128.167 41.5 180.5zM240.5 354c-17 -12.667 -31.5 -29.332 -43.5 -49.999s-20 -42 -24 -64c-3.33301 -21.333 -5 -40.333 -5 -57c0 -15.333 1 -27.833 3 -37.5s5 -14.5 9 -14.5c10 0 22.333 6.33301 37 19s28.667 28 42 46l16.5 22.5
c9 12.333 16.167 23.833 21.5 34.5c1.33301 6.66699 2 29 2 67c0 34 -1.33301 51 -4 51c-19.333 1.33301 -37.5 -4.33398 -54.5 -17.001zM337 750.002c21.333 -9.33301 38.333 -22 51 -38s19 -33.667 19 -53c0 -18 -6.5 -35.167 -19.5 -51.5s-30.167 -29.5 -51.5 -39.5
s-44 -15 -68 -15c-27.333 0 -51.5 4.83301 -72.5 14.5s-37.333 22.667 -49 39s-17.5 33.833 -17.5 52.5c0 30 12.667 55 38 75s59 30 101 30c24.667 0 47.667 -4.66699 69 -14zM225.5 683.502c-11.667 -7 -17.4971 -15.167 -17.4971 -24.5c0 -10 5.66699 -18.5 17 -25.5
s25.666 -10.5 42.999 -10.5c18 0 32.5 3.5 43.5 10.5s16.5 15.5 16.5 25.5s-5.33301 18.333 -16 25s-25.334 10 -44.001 10c-16.667 0 -30.834 -3.5 -42.501 -10.5z" />
    <glyph glyph-name="ae" unicode="&#xe6;" horiz-adv-x="722" 
d="M661 110c1.33301 -2.66699 4.50391 -8.3291 9.50391 -16.9961s7.5 -16.334 7.5 -23.001c0 -5.33301 -1.83301 -10.333 -5.5 -15s-9.16699 -10 -16.5 -16c-20 -18 -40.833 -30.667 -62.5 -38s-45.5 -11 -71.5 -11c-45.333 0 -84.166 12.5 -116.499 37.5
s-55.5 59.167 -69.5 102.5c-10.667 -17.333 -26.5 -37.833 -47.5 -61.5s-43.833 -44.667 -68.5 -63s-47 -27.5 -67 -27.5c-37.333 0 -66.333 17.333 -87 52s-31 80 -31 136c0 67.333 13.5 127.166 40.5 179.499s62.167 92.833 105.5 121.5s87.666 43 132.999 43
c22.667 0 42 -3 58 -9c6 -2.66699 10 -7.83398 12 -15.501s3.33301 -23.167 4 -46.5c20 22.667 43.5 40.167 70.5 52.5s56.5 18.5 88.5 18.5c44 0 78 -11.333 102 -34s36 -57 36 -103c0 -40 -12.333 -75 -37 -105s-56.334 -53.333 -95.001 -70s-78 -26.334 -118 -29.001
c6.66699 -17.333 17.167 -30.333 31.5 -39s30.833 -13 49.5 -13c19.333 0 35.666 3.5 48.999 10.5s24.666 14.667 33.999 23s14.666 12.5 15.999 12.5c5.33301 0 11.333 -4.33301 18 -13c12 -12.667 21.333 -26 28 -40zM299.004 313.005c0 38.667 -1.33301 58.001 -4 58.001
c-19.333 1.33301 -37.5 -4.33398 -54.5 -17.001s-31.5 -29.334 -43.5 -50.001s-20 -42 -24 -64c-3.33301 -21.333 -5 -40.333 -5 -57c0 -15.333 1 -27.833 3 -37.5s5 -14.5 9 -14.5c20.667 0 47 16.667 79 50c4.66699 4.66699 11 12.834 19 24.501s14.333 22.5 19 32.5
c1.33301 6.66699 2 31.667 2 75zM483.004 346.006c-13.333 -10 -25.167 -23.499 -35.5 -40.499s-17.166 -35.833 -20.499 -56.5c29.333 1.33301 54.166 6.33301 74.499 15s35.333 18.667 45 30s14.5 22.666 14.5 33.999c0 22 -13 33 -39 33c-12.667 0 -25.667 -5 -39 -15z
" />
    <glyph glyph-name="ccedilla" unicode="&#xe7;" horiz-adv-x="420" 
d="M392.5 58c-3 -4 -6.00098 -7.49805 -9.00098 -10.498l-8.5 -8.5c-13.333 -13.333 -25.5 -23.333 -36.5 -30s-22.5 -11.334 -34.5 -14.001c14 -17.333 21 -38.333 21 -63c0 -33.333 -11.333 -60.166 -34 -80.499s-49.334 -30.5 -80.001 -30.5
c-23.333 0 -42.166 3.33301 -56.499 10s-27.833 16.334 -40.5 29.001c-7.33301 7.33301 -11 15 -11 23c0 4.66699 2.83301 11.667 8.5 21s11.834 16.666 18.501 21.999s12.334 6 17.001 2c10.667 -10 19.167 -17 25.5 -21s14.833 -6 25.5 -6c24.667 0 37 12.667 37 38
c0 24 -11 42.667 -33 56c-42 8 -74.667 26.667 -98 56c-24.667 32 -42 63.667 -52 95s-15 70.333 -15 117c0 32 6.33301 62.833 19 92.5s29.5 55.834 50.5 78.501s42.833 39.667 65.5 51c35.333 16.667 73.666 25 114.999 25c16.667 0 35 -2 55 -6
c7.33301 -2 13.333 -6.16699 18 -12.5s7 -12.5 7 -18.5c0 -32 -3.33301 -62.167 -10 -90.5s-13 -42.5 -19 -42.5c-2.66699 0 -8.66699 1.83301 -18 5.5s-21 5.5 -35 5.5c-17.333 0 -35 -5 -53 -15s-33 -23.5 -45 -40.5s-18 -34.833 -18 -53.5
c0 -37.333 7.83301 -64.666 23.5 -81.999s33.167 -26 52.5 -26c16 0 29.833 2.66699 41.5 8s22 11.166 31 17.499s14.5 9.5 16.5 9.5c5.33301 0 11.333 -4.33301 18 -13l13 -20c6.66699 -10.667 11.667 -19.334 15 -26.001c1.33301 -2.66699 4.5 -8.33398 9.5 -17.001
s7.5 -16.334 7.5 -23.001c0 -4 -1.5 -8 -4.5 -12z" />
    <glyph glyph-name="egrave" unicode="&#xe8;" horiz-adv-x="459" 
d="M109 436c44.667 49.333 101.003 74.0029 169.003 74.0029c46.667 0 82.334 -11 107.001 -33s37 -54.333 37 -97c0 -44 -12.333 -81.833 -37 -113.5s-55.834 -56.334 -93.501 -74.001s-76.5 -28.167 -116.5 -31.5c7.33301 -14.667 17.833 -25.667 31.5 -33
s29.167 -11 46.5 -11c19.333 0 35.666 3.5 48.999 10.5s24.666 14.667 33.999 23s14.666 12.5 15.999 12.5c5.33301 0 11.333 -4.33301 18 -13c12 -12.667 21.333 -26 28 -40c1.33301 -2.66699 4.5 -8.33398 9.5 -17.001s7.5 -16.334 7.5 -23.001
c0 -5.33301 -1.83301 -10.333 -5.5 -15s-9.16699 -10 -16.5 -16c-20.667 -18.667 -42.667 -31.5 -66 -38.5s-52 -10.5 -86 -10.5c-40 0 -75.5 10.5 -106.5 31.5s-55 50.333 -72 88s-25.5 80.167 -25.5 127.5c0 80 24 146.333 72 199zM238.503 264.003
c20.333 8.66699 35.332 18.668 44.999 30.001s14.5 22.666 14.5 33.999c0 22 -13 33 -39 33c-12.667 0 -25.667 -5 -39 -15s-25.166 -23.5 -35.499 -40.5s-17.166 -35.833 -20.499 -56.5c29.333 1.33301 54.166 6.33301 74.499 15zM287.002 605.004
c2 -4.66699 2.99805 -8.66699 2.99805 -12c0 -8 -5.66699 -13.833 -17 -17.5s-24 -5.5 -38 -5.5c-19.333 0 -30 1.66699 -32 5l-87 131c-16 24 -24 40 -24 48c0 11.333 15.333 17 46 17c22.667 0 45.334 -2.66699 68.001 -8s36 -14 40 -26
c18.667 -62 32.334 -106 41.001 -132z" />
    <glyph glyph-name="eacute" unicode="&#xe9;" horiz-adv-x="459" 
d="M109 436c44.667 49.333 101.003 74.0029 169.003 74.0029c46.667 0 82.334 -11 107.001 -33s37 -54.333 37 -97c0 -44 -12.333 -81.833 -37 -113.5s-55.834 -56.334 -93.501 -74.001s-76.5 -28.167 -116.5 -31.5c7.33301 -14.667 17.833 -25.667 31.5 -33
s29.167 -11 46.5 -11c19.333 0 35.666 3.5 48.999 10.5s24.666 14.667 33.999 23s14.666 12.5 15.999 12.5c5.33301 0 11.333 -4.33301 18 -13c12 -12.667 21.333 -26 28 -40c1.33301 -2.66699 4.5 -8.33398 9.5 -17.001s7.5 -16.334 7.5 -23.001
c0 -5.33301 -1.83301 -10.333 -5.5 -15s-9.16699 -10 -16.5 -16c-20.667 -18.667 -42.667 -31.5 -66 -38.5s-52 -10.5 -86 -10.5c-40 0 -75.5 10.5 -106.5 31.5s-55 50.333 -72 88s-25.5 80.167 -25.5 127.5c0 80 24 146.333 72 199zM238.503 264.003
c20.333 8.66699 35.332 18.668 44.999 30.001s14.5 22.666 14.5 33.999c0 22 -13 33 -39 33c-12.667 0 -25.667 -5 -39 -15s-25.166 -23.5 -35.499 -40.5s-17.166 -35.833 -20.499 -56.5c29.333 1.33301 54.166 6.33301 74.499 15zM307.002 771.004
c19.333 0 37.3311 -1.5 53.998 -4.5s25 -7.16699 25 -12.5c0 -8 -8 -24 -24 -48l-75 -114c-10 -14.667 -32 -22 -66 -22c-11.333 0 -19.666 1.66699 -24.999 5s-8 9.33301 -8 18c0 3.33301 1 7.33301 3 12c8.66699 26 22.334 70 41.001 132c7.33301 22.667 32.333 34 75 34z
" />
    <glyph glyph-name="ecircumflex" unicode="&#xea;" horiz-adv-x="459" 
d="M109 436c44.667 49.333 101.003 74.0029 169.003 74.0029c46.667 0 82.334 -11 107.001 -33s37 -54.333 37 -97c0 -44 -12.333 -81.833 -37 -113.5s-55.834 -56.334 -93.501 -74.001s-76.5 -28.167 -116.5 -31.5c7.33301 -14.667 17.833 -25.667 31.5 -33
s29.167 -11 46.5 -11c19.333 0 35.666 3.5 48.999 10.5s24.666 14.667 33.999 23s14.666 12.5 15.999 12.5c5.33301 0 11.333 -4.33301 18 -13c12 -12.667 21.333 -26 28 -40c1.33301 -2.66699 4.5 -8.33398 9.5 -17.001s7.5 -16.334 7.5 -23.001
c0 -5.33301 -1.83301 -10.333 -5.5 -15s-9.16699 -10 -16.5 -16c-20.667 -18.667 -42.667 -31.5 -66 -38.5s-52 -10.5 -86 -10.5c-40 0 -75.5 10.5 -106.5 31.5s-55 50.333 -72 88s-25.5 80.167 -25.5 127.5c0 80 24 146.333 72 199zM238.503 264.003
c20.333 8.66699 35.332 18.668 44.999 30.001s14.5 22.666 14.5 33.999c0 22 -13 33 -39 33c-12.667 0 -25.667 -5 -39 -15s-25.166 -23.5 -35.499 -40.5s-17.166 -35.833 -20.499 -56.5c29.333 1.33301 54.166 6.33301 74.499 15zM388.002 616.004
c8 -10.667 12.001 -20.335 12.001 -29.002c0 -14 -17 -21 -51 -21c-24.667 0 -42.334 1.16699 -53.001 3.5s-17.667 7.83301 -21 16.5c-4.66699 10.667 -8.33398 20.334 -11.001 29.001l-8 20c-4 10 -7.33301 17.5 -10 22.5s-5 7.5 -7 7.5c-3.33301 0 -13.333 -18 -30 -54
l-10 -20c-3.33301 -6 -13 -11.167 -29 -15.5s-34.333 -6.5 -55 -6.5c-7.33301 0 -14.666 1.66699 -21.999 5s-11 8 -11 14c0 4.66699 2.33301 10.334 7 17.001l88 132c2.66699 4 11.167 7.5 25.5 10.5s28.5 4.5 42.5 4.5c32 0 51.667 -5 59 -15z" />
    <glyph glyph-name="edieresis" unicode="&#xeb;" horiz-adv-x="459" 
d="M109 436c44.667 49.333 101.003 74.0029 169.003 74.0029c46.667 0 82.334 -11 107.001 -33s37 -54.333 37 -97c0 -44 -12.333 -81.833 -37 -113.5s-55.834 -56.334 -93.501 -74.001s-76.5 -28.167 -116.5 -31.5c7.33301 -14.667 17.833 -25.667 31.5 -33
s29.167 -11 46.5 -11c19.333 0 35.666 3.5 48.999 10.5s24.666 14.667 33.999 23s14.666 12.5 15.999 12.5c5.33301 0 11.333 -4.33301 18 -13c12 -12.667 21.333 -26 28 -40c1.33301 -2.66699 4.5 -8.33398 9.5 -17.001s7.5 -16.334 7.5 -23.001
c0 -5.33301 -1.83301 -10.333 -5.5 -15s-9.16699 -10 -16.5 -16c-20.667 -18.667 -42.667 -31.5 -66 -38.5s-52 -10.5 -86 -10.5c-40 0 -75.5 10.5 -106.5 31.5s-55 50.333 -72 88s-25.5 80.167 -25.5 127.5c0 80 24 146.333 72 199zM238.503 264.003
c20.333 8.66699 35.332 18.668 44.999 30.001s14.5 22.666 14.5 33.999c0 22 -13 33 -39 33c-12.667 0 -25.667 -5 -39 -15s-25.166 -23.5 -35.499 -40.5s-17.166 -35.833 -20.499 -56.5c29.333 1.33301 54.166 6.33301 74.499 15zM115.502 577.004
c-5.66699 1.33301 -10.5 6 -14.5 14c-4 7.33301 -6 22.666 -6 45.999c0 4.66699 0.666992 11.667 2 21s2 18.333 2 27c0 15.333 6.66699 23 20 23l11 -1c4 0 9 0.666992 15 2s13 2 21 2c4.66699 0 10.667 -0.833008 18 -2.5s14 -2.16699 20 -1.5c6 0 9 -3.66699 9 -11
c0 -4.66699 0.333008 -10.667 1 -18s1 -17.666 1 -30.999v-42c0 -18.667 -7.66699 -28 -23 -28c-8.66699 0 -16 -0.333008 -22 -1s-11.333 -1 -16 -1c-20 0 -32.833 0.666992 -38.5 2zM359.002 710.004c6 -0.666992 14.666 -0.999023 25.999 -0.999023
c15.333 0 23 -9.33301 23 -28c0 -15.333 -0.333008 -28 -1 -38l-1 -53c0 -7.33301 -3 -11 -9 -11c-6 0.666992 -12.667 0.166992 -20 -1.5s-13.333 -2.5 -18 -2.5l-52 1c-3.33301 0 -6.66602 2.33301 -9.99902 7s-5 10.667 -5 18c0 8.66699 -0.666992 17.667 -2 27
s-2 16.333 -2 21c0 23.333 2 38.666 6 45.999s8.16699 11.833 12.5 13.5s11.833 2.5 22.5 2.5z" />
    <glyph glyph-name="igrave" unicode="&#xec;" horiz-adv-x="232" 
d="M93 510c11.333 0 20.001 -0.332031 26.001 -0.999023l33 -1c4.66699 0 10.5 -2.16699 17.5 -6.5s10.833 -9.83301 11.5 -16.5v-10v-39c-0.666992 -8.66699 -1 -30.334 -1 -65.001v-22c0.666992 -7.33301 1 -23 1 -47c0 -7.33301 0.666992 -19 2 -35l1 -35l2 -50
c2 -62 3 -95.667 3 -101v-72c0 -5.33301 -7 -9.5 -21 -12.5s-29.333 -4.5 -46 -4.5c-26.667 0 -44.834 1.5 -54.501 4.5s-14.5 7.16699 -14.5 12.5l2 181c0 18 -0.5 40.5 -1.5 67.5s-2.16699 49.5 -3.5 67.5c-3.33301 26.667 -5 59.667 -5 99
c0 10.667 -0.333008 18.667 -1 24l-1 24c0 18 4.33301 28.667 13 32c8 4 20.333 6 37 6zM165.001 605.001c2 -4.66699 2.99805 -8.66699 2.99805 -12c0 -8 -5.66699 -13.833 -17 -17.5s-24 -5.5 -38 -5.5c-19.333 0 -30 1.66699 -32 5l-87 131c-16 24 -24 40 -24 48
c0 11.333 15.333 17 46 17c22.667 0 45.334 -2.66699 68.001 -8s36 -14 40 -26c18.667 -62 32.334 -106 41.001 -132z" />
    <glyph glyph-name="iacute" unicode="&#xed;" horiz-adv-x="232" 
d="M93 510c11.333 0 20.001 -0.332031 26.001 -0.999023l33 -1c4.66699 0 10.5 -2.16699 17.5 -6.5s10.833 -9.83301 11.5 -16.5v-10v-39c-0.666992 -8.66699 -1 -30.334 -1 -65.001v-22c0.666992 -7.33301 1 -23 1 -47c0 -7.33301 0.666992 -19 2 -35l1 -35l2 -50
c2 -62 3 -95.667 3 -101v-72c0 -5.33301 -7 -9.5 -21 -12.5s-29.333 -4.5 -46 -4.5c-26.667 0 -44.834 1.5 -54.501 4.5s-14.5 7.16699 -14.5 12.5l2 181c0 18 -0.5 40.5 -1.5 67.5s-2.16699 49.5 -3.5 67.5c-3.33301 26.667 -5 59.667 -5 99
c0 10.667 -0.333008 18.667 -1 24l-1 24c0 18 4.33301 28.667 13 32c8 4 20.333 6 37 6zM164.001 771.001c19.333 0 37.3311 -1.5 53.998 -4.5s25 -7.16699 25 -12.5c0 -8 -8 -24 -24 -48l-75 -114c-10 -14.667 -32 -22 -66 -22c-11.333 0 -19.666 1.66699 -24.999 5
s-8 9.33301 -8 18c0 3.33301 1 7.33301 3 12c8.66699 26 22.334 70 41.001 132c7.33301 22.667 32.333 34 75 34z" />
    <glyph glyph-name="icircumflex" unicode="&#xee;" horiz-adv-x="232" 
d="M93 510c11.333 0 20.001 -0.332031 26.001 -0.999023l33 -1c4.66699 0 10.5 -2.16699 17.5 -6.5s10.833 -9.83301 11.5 -16.5v-10v-39c-0.666992 -8.66699 -1 -30.334 -1 -65.001v-22c0.666992 -7.33301 1 -23 1 -47c0 -7.33301 0.666992 -19 2 -35l1 -35l2 -50
c2 -62 3 -95.667 3 -101v-72c0 -5.33301 -7 -9.5 -21 -12.5s-29.333 -4.5 -46 -4.5c-26.667 0 -44.834 1.5 -54.501 4.5s-14.5 7.16699 -14.5 12.5l2 181c0 18 -0.5 40.5 -1.5 67.5s-2.16699 49.5 -3.5 67.5c-3.33301 26.667 -5 59.667 -5 99
c0 10.667 -0.333008 18.667 -1 24l-1 24c0 18 4.33301 28.667 13 32c8 4 20.333 6 37 6zM263.001 616.001c8 -10.667 12.001 -20.335 12.001 -29.002c0 -14 -17 -21 -51 -21c-24.667 0 -42.334 1.16699 -53.001 3.5s-17.667 7.83301 -21 16.5
c-4.66699 10.667 -8.33398 20.334 -11.001 29.001l-8 20c-4 10 -7.33301 17.5 -10 22.5s-5 7.5 -7 7.5c-3.33301 0 -13.333 -18 -30 -54l-10 -20c-3.33301 -6 -13 -11.167 -29 -15.5s-34.333 -6.5 -55 -6.5c-7.33301 0 -14.666 1.66699 -21.999 5s-11 8 -11 14
c0 4.66699 2.33301 10.334 7 17.001l88 132c2.66699 4 11.167 7.5 25.5 10.5s28.5 4.5 42.5 4.5c32 0 51.667 -5 59 -15z" />
    <glyph glyph-name="idieresis" unicode="&#xef;" horiz-adv-x="232" 
d="M93 510c11.333 0 20.001 -0.332031 26.001 -0.999023l33 -1c4.66699 0 10.5 -2.16699 17.5 -6.5s10.833 -9.83301 11.5 -16.5v-10v-39c-0.666992 -8.66699 -1 -30.334 -1 -65.001v-22c0.666992 -7.33301 1 -23 1 -47c0 -7.33301 0.666992 -19 2 -35l1 -35l2 -50
c2 -62 3 -95.667 3 -101v-72c0 -5.33301 -7 -9.5 -21 -12.5s-29.333 -4.5 -46 -4.5c-26.667 0 -44.834 1.5 -54.501 4.5s-14.5 7.16699 -14.5 12.5l2 181c0 18 -0.5 40.5 -1.5 67.5s-2.16699 49.5 -3.5 67.5c-3.33301 26.667 -5 59.667 -5 99
c0 10.667 -0.333008 18.667 -1 24l-1 24c0 18 4.33301 28.667 13 32c8 4 20.333 6 37 6zM-20.499 577.001c-5.66699 1.33301 -10.5 6 -14.5 14c-4 7.33301 -6 22.666 -6 45.999c0 4.66699 0.666992 11.667 2 21s2 18.333 2 27c0 15.333 6.66699 23 20 23l11 -1
c4 0 9 0.666992 15 2s13 2 21 2c4.66699 0 10.667 -0.833008 18 -2.5s14 -2.16699 20 -1.5c6 0 9 -3.66699 9 -11c0 -4.66699 0.333008 -10.667 1 -18s1 -17.666 1 -30.999v-42c0 -18.667 -7.66699 -28 -23 -28c-8.66699 0 -16 -0.333008 -22 -1s-11.333 -1 -16 -1
c-20 0 -32.833 0.666992 -38.5 2zM223.001 710.001c6 -0.666992 14.666 -0.999023 25.999 -0.999023c15.333 0 23 -9.33301 23 -28c0 -15.333 -0.333008 -28 -1 -38l-1 -53c0 -7.33301 -3 -11 -9 -11c-6 0.666992 -12.667 0.166992 -20 -1.5s-13.333 -2.5 -18 -2.5l-52 1
c-3.33301 0 -6.66602 2.33301 -9.99902 7s-5 10.667 -5 18c0 8.66699 -0.666992 17.667 -2 27s-2 16.333 -2 21c0 23.333 2 38.666 6 45.999s8.16699 11.833 12.5 13.5s11.833 2.5 22.5 2.5z" />
    <glyph glyph-name="eth" unicode="&#xf0;" horiz-adv-x="495" 
d="M437.5 479c13.667 -48.667 20.502 -97.999 20.502 -147.999c0 -116.667 -18.667 -204 -56 -262s-90.333 -87 -159 -87c-66.667 0 -117.667 24.333 -153 73s-53 112.334 -53 191.001c0 50 8.33301 91.167 25 123.5s38 55.833 64 70.5s53.667 22 83 22
c55.333 0 95.333 -15.333 120 -46c-7.33301 52.667 -23 94.334 -47 125.001l-58 -48c-2.66699 -2.66699 -6.33398 -4 -11.001 -4c-10 0 -20.167 5.66699 -30.5 17s-15.5 22.666 -15.5 33.999c0 5.33301 2 10 6 14l39 38c-30 12 -69 20.667 -117 26
c-4.66699 0.666992 -8.33398 2.66699 -11.001 6s-4 7.33301 -4 12c0 13.333 5.5 25.666 16.5 36.999s24.5 20.166 40.5 26.499s30.333 9.5 43 9.5c22 0 44.833 -4 68.5 -12s45.5 -18.667 65.5 -32l43 29c3.33301 2 6.33301 3 9 3c10.667 0 22.167 -7.16699 34.5 -21.5
s18.5 -27.5 18.5 -39.5c0 -6 -2.33301 -10.333 -7 -13l-34 -20c26 -34 45.833 -75.333 59.5 -124zM293.502 156.501c11 15 16.499 40.833 16.499 77.5c0 61.333 -24 92 -72 92c-20 0 -36 -10.167 -48 -30.5s-18 -44.5 -18 -72.5c0 -30 5.83301 -52.333 17.5 -67
s27.834 -22 48.501 -22c26 0 44.5 7.5 55.5 22.5z" />
    <glyph glyph-name="ntilde" unicode="&#xf1;" horiz-adv-x="466" 
d="M424 55c2.66699 -13.333 4.00391 -26.998 4.00391 -40.998c0 -5.33301 -2.66699 -9.5 -8 -12.5s-12.333 -4.5 -21 -4.5c11.333 0 1.5 0.666992 -29.5 2l-70.5 3c-4.66699 2 -8.33398 5.66699 -11.001 11s-3.66699 15.666 -3 30.999c0.666992 12.667 1 30.667 1 54
c0 31.333 -0.333008 55.333 -1 72l-1 99c0 22 -4.16699 42.333 -12.5 61s-18.833 28 -31.5 28c-16 0 -28.833 -5.66699 -38.5 -17s-15.834 -27.666 -18.501 -48.999l-1 -105c0 -102.667 0.333008 -161 1 -175c0 -6.66699 -3.33301 -10.667 -10 -12s-17.667 -2 -33 -2
c-4 0.666992 -9.5 0.5 -16.5 -0.5s-11.833 -1.5 -14.5 -1.5c-12 -1.33301 -20 -2 -24 -2h-9c-8.66699 0 -14.334 1.66699 -17.001 5c-5.33301 8.66699 -8 27 -8 55l-1 118c0 22.667 -0.666992 53.334 -2 92.001c-1.33301 30.667 -2 51 -2 61l-1 22
c-1.33301 13.333 -2 23 -2 29v79c0 12 0.5 20.167 1.5 24.5s3.16699 8.16602 6.5 11.499c4 4 10 6.5 18 7.5s20.667 1.5 38 1.5c27.333 0 45.666 -3 54.999 -9c4 -2.66699 6 -10.334 6 -23.001c0 -5.33301 -0.333008 -13.166 -1 -23.499s-0.666992 -19.833 0 -28.5
c0 -4.66699 1 -7.5 3 -8.5s5 -1.5 9 -1.5c10.667 34 24.834 59.833 42.501 77.5s38.167 26.5 61.5 26.5c24 0 45.167 -7.66699 63.5 -23s30.833 -30 37.5 -44c11.333 -27.333 19 -52.333 23 -75s6.33301 -45 7 -67c0 -16.667 0.666992 -36.334 2 -59.001
c1.33301 -34.667 1.66602 -60.667 0.999023 -78c0 -8.66699 0.666992 -22.334 2 -41.001l1 -33c0 -11.333 1.33301 -23 4 -35zM310.504 724.002c5.66699 3.33301 12.834 5.00098 21.501 5.00098c10 0 19.667 -1.66699 29 -5s14 -7.33301 14 -12
c0 -35.333 -6 -66.666 -18 -93.999s-33.333 -41 -64 -41c-16 0 -29 2.5 -39 7.5s-21.667 13.167 -35 24.5c-2 1.33301 -5.83301 4.66602 -11.5 9.99902s-11.167 9.33301 -16.5 12s-10 4 -14 4c-15.333 0 -23 -14.333 -23 -43c0 -4.66699 -2.33301 -8.16699 -7 -10.5
s-10.667 -3.5 -18 -3.5c-10.667 0 -21.167 2 -31.5 6s-15.5 8.33301 -15.5 13c0 48.667 8 83.667 24 105s37.333 32 64 32c23.333 0 45.666 -10 66.999 -30c10 -9.33301 18.333 -16.333 25 -21s13 -7 19 -7s11 3.16699 15 9.5s6 14.166 6 23.499
c0 6.66699 2.83301 11.667 8.5 15z" />
    <glyph glyph-name="ograve" unicode="&#xf2;" horiz-adv-x="478" 
d="M433 176.5c-5.33301 -25 -16.001 -55.166 -32.001 -90.499c-14.667 -32 -36.5 -57.333 -65.5 -76s-65.833 -28 -110.5 -28c-24 0 -45 4.33301 -63 13c-40.667 18.667 -71.667 49 -93 91s-32 98.667 -32 170c0 23.333 3.33301 47.5 10 72.5s13.667 44.833 21 59.5
c24.667 44 51 76.667 79 98s64.667 32 110 32c28 0 52.667 -5.16699 74 -15.5s37.333 -24.5 48 -42.5l23 -35.5c12.667 -19.667 22.334 -43.834 29.001 -72.501s10 -62 10 -100c0 -25.333 -2.66699 -50.5 -8 -75.5zM220.499 355.501
c-11.667 -7 -20.498 -16.832 -26.498 -29.499c-5.33301 -12 -10.333 -27 -15 -45s-7 -34 -7 -48c0 -66 21 -99 63 -99c23.333 0 41.666 11.167 54.999 33.5s20 54.166 20 95.499c0 68.667 -18.667 103 -56 103c-10.667 0 -21.834 -3.5 -33.501 -10.5zM304.001 605.002
c2 -4.66699 2.99805 -8.66699 2.99805 -12c0 -8 -5.66699 -13.833 -17 -17.5s-24 -5.5 -38 -5.5c-19.333 0 -30 1.66699 -32 5l-87 131c-16 24 -24 40 -24 48c0 11.333 15.333 17 46 17c22.667 0 45.334 -2.66699 68.001 -8s36 -14 40 -26
c18.667 -62 32.334 -106 41.001 -132z" />
    <glyph glyph-name="oacute" unicode="&#xf3;" horiz-adv-x="478" 
d="M433 176.5c-5.33301 -25 -16.001 -55.166 -32.001 -90.499c-14.667 -32 -36.5 -57.333 -65.5 -76s-65.833 -28 -110.5 -28c-24 0 -45 4.33301 -63 13c-40.667 18.667 -71.667 49 -93 91s-32 98.667 -32 170c0 23.333 3.33301 47.5 10 72.5s13.667 44.833 21 59.5
c24.667 44 51 76.667 79 98s64.667 32 110 32c28 0 52.667 -5.16699 74 -15.5s37.333 -24.5 48 -42.5l23 -35.5c12.667 -19.667 22.334 -43.834 29.001 -72.501s10 -62 10 -100c0 -25.333 -2.66699 -50.5 -8 -75.5zM220.499 355.501
c-11.667 -7 -20.498 -16.832 -26.498 -29.499c-5.33301 -12 -10.333 -27 -15 -45s-7 -34 -7 -48c0 -66 21 -99 63 -99c23.333 0 41.666 11.167 54.999 33.5s20 54.166 20 95.499c0 68.667 -18.667 103 -56 103c-10.667 0 -21.834 -3.5 -33.501 -10.5zM304.001 771.002
c19.333 0 37.3311 -1.5 53.998 -4.5s25 -7.16699 25 -12.5c0 -8 -8 -24 -24 -48l-75 -114c-10 -14.667 -32 -22 -66 -22c-11.333 0 -19.666 1.66699 -24.999 5s-8 9.33301 -8 18c0 3.33301 1 7.33301 3 12c8.66699 26 22.334 70 41.001 132c7.33301 22.667 32.333 34 75 34z
" />
    <glyph glyph-name="ocircumflex" unicode="&#xf4;" horiz-adv-x="478" 
d="M433 176.5c-5.33301 -25 -16.001 -55.166 -32.001 -90.499c-14.667 -32 -36.5 -57.333 -65.5 -76s-65.833 -28 -110.5 -28c-24 0 -45 4.33301 -63 13c-40.667 18.667 -71.667 49 -93 91s-32 98.667 -32 170c0 23.333 3.33301 47.5 10 72.5s13.667 44.833 21 59.5
c24.667 44 51 76.667 79 98s64.667 32 110 32c28 0 52.667 -5.16699 74 -15.5s37.333 -24.5 48 -42.5l23 -35.5c12.667 -19.667 22.334 -43.834 29.001 -72.501s10 -62 10 -100c0 -25.333 -2.66699 -50.5 -8 -75.5zM220.499 355.501
c-11.667 -7 -20.498 -16.832 -26.498 -29.499c-5.33301 -12 -10.333 -27 -15 -45s-7 -34 -7 -48c0 -66 21 -99 63 -99c23.333 0 41.666 11.167 54.999 33.5s20 54.166 20 95.499c0 68.667 -18.667 103 -56 103c-10.667 0 -21.834 -3.5 -33.501 -10.5zM390.001 616.002
c8 -10.667 12.001 -20.335 12.001 -29.002c0 -14 -17 -21 -51 -21c-24.667 0 -42.334 1.16699 -53.001 3.5s-17.667 7.83301 -21 16.5c-4.66699 10.667 -8.33398 20.334 -11.001 29.001l-8 20c-4 10 -7.33301 17.5 -10 22.5s-5 7.5 -7 7.5c-3.33301 0 -13.333 -18 -30 -54
l-10 -20c-3.33301 -6 -13 -11.167 -29 -15.5s-34.333 -6.5 -55 -6.5c-7.33301 0 -14.666 1.66699 -21.999 5s-11 8 -11 14c0 4.66699 2.33301 10.334 7 17.001l88 132c2.66699 4 11.167 7.5 25.5 10.5s28.5 4.5 42.5 4.5c32 0 51.667 -5 59 -15z" />
    <glyph glyph-name="otilde" unicode="&#xf5;" horiz-adv-x="478" 
d="M433 176.5c-5.33301 -25 -16.001 -55.166 -32.001 -90.499c-14.667 -32 -36.5 -57.333 -65.5 -76s-65.833 -28 -110.5 -28c-24 0 -45 4.33301 -63 13c-40.667 18.667 -71.667 49 -93 91s-32 98.667 -32 170c0 23.333 3.33301 47.5 10 72.5s13.667 44.833 21 59.5
c24.667 44 51 76.667 79 98s64.667 32 110 32c28 0 52.667 -5.16699 74 -15.5s37.333 -24.5 48 -42.5l23 -35.5c12.667 -19.667 22.334 -43.834 29.001 -72.501s10 -62 10 -100c0 -25.333 -2.66699 -50.5 -8 -75.5zM220.499 355.501
c-11.667 -7 -20.498 -16.832 -26.498 -29.499c-5.33301 -12 -10.333 -27 -15 -45s-7 -34 -7 -48c0 -66 21 -99 63 -99c23.333 0 41.666 11.167 54.999 33.5s20 54.166 20 95.499c0 68.667 -18.667 103 -56 103c-10.667 0 -21.834 -3.5 -33.501 -10.5zM321.501 724.002
c5.66699 3.33301 12.834 5.00098 21.501 5.00098c10 0 19.667 -1.66699 29 -5s14 -7.33301 14 -12c0 -35.333 -6 -66.666 -18 -93.999s-33.333 -41 -64 -41c-16 0 -29 2.5 -39 7.5s-21.667 13.167 -35 24.5c-2 1.33301 -5.83301 4.66602 -11.5 9.99902
s-11.167 9.33301 -16.5 12s-10 4 -14 4c-15.333 0 -23 -14.333 -23 -43c0 -4.66699 -2.33301 -8.16699 -7 -10.5s-10.667 -3.5 -18 -3.5c-10.667 0 -21.167 2 -31.5 6s-15.5 8.33301 -15.5 13c0 48.667 8 83.667 24 105s37.333 32 64 32c23.333 0 45.666 -10 66.999 -30
c10 -9.33301 18.333 -16.333 25 -21s13 -7 19 -7s11 3.16699 15 9.5s6 14.166 6 23.499c0 6.66699 2.83301 11.667 8.5 15z" />
    <glyph glyph-name="odieresis" unicode="&#xf6;" horiz-adv-x="478" 
d="M433 176.5c-5.33301 -25 -16.001 -55.166 -32.001 -90.499c-14.667 -32 -36.5 -57.333 -65.5 -76s-65.833 -28 -110.5 -28c-24 0 -45 4.33301 -63 13c-40.667 18.667 -71.667 49 -93 91s-32 98.667 -32 170c0 23.333 3.33301 47.5 10 72.5s13.667 44.833 21 59.5
c24.667 44 51 76.667 79 98s64.667 32 110 32c28 0 52.667 -5.16699 74 -15.5s37.333 -24.5 48 -42.5l23 -35.5c12.667 -19.667 22.334 -43.834 29.001 -72.501s10 -62 10 -100c0 -25.333 -2.66699 -50.5 -8 -75.5zM220.499 355.501
c-11.667 -7 -20.498 -16.832 -26.498 -29.499c-5.33301 -12 -10.333 -27 -15 -45s-7 -34 -7 -48c0 -66 21 -99 63 -99c23.333 0 41.666 11.167 54.999 33.5s20 54.166 20 95.499c0 68.667 -18.667 103 -56 103c-10.667 0 -21.834 -3.5 -33.501 -10.5zM102.501 577.002
c-5.66699 1.33301 -10.5 6 -14.5 14c-4 7.33301 -6 22.666 -6 45.999c0 4.66699 0.666992 11.667 2 21s2 18.333 2 27c0 15.333 6.66699 23 20 23l11 -1c4 0 9 0.666992 15 2s13 2 21 2c4.66699 0 10.667 -0.833008 18 -2.5s14 -2.16699 20 -1.5c6 0 9 -3.66699 9 -11
c0 -4.66699 0.333008 -10.667 1 -18s1 -17.666 1 -30.999v-42c0 -18.667 -7.66699 -28 -23 -28c-8.66699 0 -16 -0.333008 -22 -1s-11.333 -1 -16 -1c-20 0 -32.833 0.666992 -38.5 2zM346.001 710.002c6 -0.666992 14.666 -0.999023 25.999 -0.999023
c15.333 0 23 -9.33301 23 -28c0 -15.333 -0.333008 -28 -1 -38l-1 -53c0 -7.33301 -3 -11 -9 -11c-6 0.666992 -12.667 0.166992 -20 -1.5s-13.333 -2.5 -18 -2.5l-52 1c-3.33301 0 -6.66602 2.33301 -9.99902 7s-5 10.667 -5 18c0 8.66699 -0.666992 17.667 -2 27
s-2 16.333 -2 21c0 23.333 2 38.666 6 45.999s8.16699 11.833 12.5 13.5s11.833 2.5 22.5 2.5z" />
    <glyph glyph-name="divide" unicode="&#xf7;" horiz-adv-x="496" 
d="M225 436c-6.66699 0.666992 -14.668 1 -24.001 1c-15.333 0 -23 9 -23 27c0 14.667 0.333008 25.667 1 33l1 37c0 9.33301 1.83301 17 5.5 23s8.83398 9 15.501 9h87c10 0 17.667 -2 23 -6s8 -12.667 8 -26v-78c0 -8.66699 -1.83301 -14.5 -5.5 -17.5
s-11.5 -4.5 -23.5 -4.5c-22 0 -43.667 0.666992 -65 2zM63.999 268c-2 13.333 -3.00195 25.668 -3.00195 37.001c0 14.667 1.16699 29.167 3.5 43.5s5.83301 21.5 10.5 21.5l286 1c16.667 0 29.834 -0.333008 39.501 -1s16.167 -1 19.5 -1
c6.66699 0 10.834 -4.33301 12.501 -13s2.5 -19.334 2.5 -32.001c0 -50 -5 -75 -15 -75h-157h-104l-85 -1c-4.66699 0 -8 6.66699 -10 20zM183.497 62.502c-3.66699 3 -5.5 8.83301 -5.5 17.5v78c0 13.333 2.66699 22 8 26s13 6 23 6h87c6 0 11 -3 15 -9s6 -13.667 6 -23
l1 -37c0.666992 -7.33301 1 -18.333 1 -33c0 -18 -7.66699 -27 -23 -27c-9.33301 0 -17.333 -0.333008 -24 -1c-21.333 -1.33301 -43 -2 -65 -2c-12 0 -19.833 1.5 -23.5 4.5z" />
    <glyph glyph-name="oslash" unicode="&#xf8;" horiz-adv-x="528" 
d="M503.5 471.5c4.33301 -7 6.50098 -17.501 6.50098 -31.501c0 -17.333 -1.66699 -31 -5 -41s-9 -18.333 -17 -25l-31 -24c6 -30 9 -62.667 9 -98c0 -25.333 -2.66699 -50.5 -8 -75.5s-16 -55.167 -32 -90.5c-14.667 -32 -36.5 -57.333 -65.5 -76s-65.833 -28 -110.5 -28
c-24 0 -45 4.33301 -63 13c-40.667 18.667 -71.334 48.334 -92.001 89.001l-60 -48c-5.33301 -4.66699 -9.83301 -3.5 -13.5 3.5s-5.5 18.167 -5.5 33.5c0 20 1 33.5 3 40.5s7.33301 13.5 16 19.5l36 25c-6 29.333 -9 62 -9 98c0 23.333 3.33301 47.5 10 72.5
s13.667 44.833 21 59.5c24.667 44 51 76.667 79 98s64.667 32 110 32c28 0 52.667 -5.16699 74 -15.5s37.333 -24.5 48 -42.5l21 -33l63 48c6 4.66699 11.167 3.5 15.5 -3.5zM219.501 335.499c-15.667 -27 -24.501 -56.167 -26.501 -87.5l12 9l117 90
c-11.333 19.333 -25.666 29 -42.999 29c-24 0 -43.833 -13.5 -59.5 -40.5zM317.5 162.499c15 25.667 22.5 59.167 22.5 100.5v2l-136 -99c12 -28 30.667 -42 56 -42c23.333 0 42.5 12.833 57.5 38.5z" />
    <glyph glyph-name="ugrave" unicode="&#xf9;" horiz-adv-x="476" 
d="M383 499c4.66699 0.666992 11.335 1.00098 20.002 1.00098c12.667 0 21 -2.33301 25 -7c1.33301 -2 2 -18.667 2 -50l-1 -314c1.33301 -16 2 -27.667 2 -35l1 -39c0.666992 -8.66699 1 -22 1 -40c0 -4 -1.16699 -7.66699 -3.5 -11s-4.83301 -5 -7.5 -5h-50
c-6 0 -11.667 0.333008 -17 1s-10.666 1 -15.999 1c-4.66699 0 -8.66699 -0.333008 -12 -1c-9.33301 0 -14 4.33301 -14 13l-4 79v10c0 16 -1.66699 24 -5 24c-2 -5.33301 -5.5 -15.333 -10.5 -30s-10.667 -27.167 -17 -37.5s-14.833 -21.5 -25.5 -33.5
c-20.667 -23.333 -46.334 -35 -77.001 -35c-35.333 0 -61.666 12.833 -78.999 38.5s-32.333 64.834 -45 117.501c-2.66699 14 -5.33398 37.667 -8.00098 71s-4 62.333 -4 87l1 95c0.666992 11.333 1 26 1 44c0 10.667 0.666992 21.334 2 32.001s2.66602 16.667 3.99902 18
c9.33301 8 26.666 12 51.999 12c22 0 42 -1.66699 60 -5c4.66699 -0.666992 9.16699 -3.33398 13.5 -8.00098s6.5 -11.334 6.5 -20.001l-1 -69c-1.33301 -52 -2 -91.333 -2 -118c0 -38.667 3.33301 -72.667 10 -102s21.334 -44 44.001 -44c14.667 0 27.167 10.667 37.5 32
s18.5 48.666 24.5 81.999c1.33301 6 2.5 18.833 3.5 38.5s1.5 35.834 1.5 48.501v60c0 38 0.5 64.167 1.5 78.5s4.16699 21.166 9.5 20.499c11.333 -0.666992 28.666 -1 51.999 -1zM297.001 605.001c2 -4.66699 2.99805 -8.66699 2.99805 -12
c0 -8 -5.66699 -13.833 -17 -17.5s-24 -5.5 -38 -5.5c-19.333 0 -30 1.66699 -32 5l-87 131c-16 24 -24 40 -24 48c0 11.333 15.333 17 46 17c22.667 0 45.334 -2.66699 68.001 -8s36 -14 40 -26c18.667 -62 32.334 -106 41.001 -132z" />
    <glyph glyph-name="uacute" unicode="&#xfa;" horiz-adv-x="476" 
d="M383 499c4.66699 0.666992 11.335 1.00098 20.002 1.00098c12.667 0 21 -2.33301 25 -7c1.33301 -2 2 -18.667 2 -50l-1 -314c1.33301 -16 2 -27.667 2 -35l1 -39c0.666992 -8.66699 1 -22 1 -40c0 -4 -1.16699 -7.66699 -3.5 -11s-4.83301 -5 -7.5 -5h-50
c-6 0 -11.667 0.333008 -17 1s-10.666 1 -15.999 1c-4.66699 0 -8.66699 -0.333008 -12 -1c-9.33301 0 -14 4.33301 -14 13l-4 79v10c0 16 -1.66699 24 -5 24c-2 -5.33301 -5.5 -15.333 -10.5 -30s-10.667 -27.167 -17 -37.5s-14.833 -21.5 -25.5 -33.5
c-20.667 -23.333 -46.334 -35 -77.001 -35c-35.333 0 -61.666 12.833 -78.999 38.5s-32.333 64.834 -45 117.501c-2.66699 14 -5.33398 37.667 -8.00098 71s-4 62.333 -4 87l1 95c0.666992 11.333 1 26 1 44c0 10.667 0.666992 21.334 2 32.001s2.66602 16.667 3.99902 18
c9.33301 8 26.666 12 51.999 12c22 0 42 -1.66699 60 -5c4.66699 -0.666992 9.16699 -3.33398 13.5 -8.00098s6.5 -11.334 6.5 -20.001l-1 -69c-1.33301 -52 -2 -91.333 -2 -118c0 -38.667 3.33301 -72.667 10 -102s21.334 -44 44.001 -44c14.667 0 27.167 10.667 37.5 32
s18.5 48.666 24.5 81.999c1.33301 6 2.5 18.833 3.5 38.5s1.5 35.834 1.5 48.501v60c0 38 0.5 64.167 1.5 78.5s4.16699 21.166 9.5 20.499c11.333 -0.666992 28.666 -1 51.999 -1zM294.001 771.001c19.333 0 37.3311 -1.5 53.998 -4.5s25 -7.16699 25 -12.5
c0 -8 -8 -24 -24 -48l-75 -114c-10 -14.667 -32 -22 -66 -22c-11.333 0 -19.666 1.66699 -24.999 5s-8 9.33301 -8 18c0 3.33301 1 7.33301 3 12c8.66699 26 22.334 70 41.001 132c7.33301 22.667 32.333 34 75 34z" />
    <glyph glyph-name="ucircumflex" unicode="&#xfb;" horiz-adv-x="476" 
d="M383 499c4.66699 0.666992 11.335 1.00098 20.002 1.00098c12.667 0 21 -2.33301 25 -7c1.33301 -2 2 -18.667 2 -50l-1 -314c1.33301 -16 2 -27.667 2 -35l1 -39c0.666992 -8.66699 1 -22 1 -40c0 -4 -1.16699 -7.66699 -3.5 -11s-4.83301 -5 -7.5 -5h-50
c-6 0 -11.667 0.333008 -17 1s-10.666 1 -15.999 1c-4.66699 0 -8.66699 -0.333008 -12 -1c-9.33301 0 -14 4.33301 -14 13l-4 79v10c0 16 -1.66699 24 -5 24c-2 -5.33301 -5.5 -15.333 -10.5 -30s-10.667 -27.167 -17 -37.5s-14.833 -21.5 -25.5 -33.5
c-20.667 -23.333 -46.334 -35 -77.001 -35c-35.333 0 -61.666 12.833 -78.999 38.5s-32.333 64.834 -45 117.501c-2.66699 14 -5.33398 37.667 -8.00098 71s-4 62.333 -4 87l1 95c0.666992 11.333 1 26 1 44c0 10.667 0.666992 21.334 2 32.001s2.66602 16.667 3.99902 18
c9.33301 8 26.666 12 51.999 12c22 0 42 -1.66699 60 -5c4.66699 -0.666992 9.16699 -3.33398 13.5 -8.00098s6.5 -11.334 6.5 -20.001l-1 -69c-1.33301 -52 -2 -91.333 -2 -118c0 -38.667 3.33301 -72.667 10 -102s21.334 -44 44.001 -44c14.667 0 27.167 10.667 37.5 32
s18.5 48.666 24.5 81.999c1.33301 6 2.5 18.833 3.5 38.5s1.5 35.834 1.5 48.501v60c0 38 0.5 64.167 1.5 78.5s4.16699 21.166 9.5 20.499c11.333 -0.666992 28.666 -1 51.999 -1zM397.001 616.001c8 -10.667 12.001 -20.335 12.001 -29.002c0 -14 -17 -21 -51 -21
c-24.667 0 -42.334 1.16699 -53.001 3.5s-17.667 7.83301 -21 16.5c-4.66699 10.667 -8.33398 20.334 -11.001 29.001l-8 20c-4 10 -7.33301 17.5 -10 22.5s-5 7.5 -7 7.5c-3.33301 0 -13.333 -18 -30 -54l-10 -20c-3.33301 -6 -13 -11.167 -29 -15.5s-34.333 -6.5 -55 -6.5
c-7.33301 0 -14.666 1.66699 -21.999 5s-11 8 -11 14c0 4.66699 2.33301 10.334 7 17.001l88 132c2.66699 4 11.167 7.5 25.5 10.5s28.5 4.5 42.5 4.5c32 0 51.667 -5 59 -15z" />
    <glyph glyph-name="udieresis" unicode="&#xfc;" horiz-adv-x="476" 
d="M383 499c4.66699 0.666992 11.335 1.00098 20.002 1.00098c12.667 0 21 -2.33301 25 -7c1.33301 -2 2 -18.667 2 -50l-1 -314c1.33301 -16 2 -27.667 2 -35l1 -39c0.666992 -8.66699 1 -22 1 -40c0 -4 -1.16699 -7.66699 -3.5 -11s-4.83301 -5 -7.5 -5h-50
c-6 0 -11.667 0.333008 -17 1s-10.666 1 -15.999 1c-4.66699 0 -8.66699 -0.333008 -12 -1c-9.33301 0 -14 4.33301 -14 13l-4 79v10c0 16 -1.66699 24 -5 24c-2 -5.33301 -5.5 -15.333 -10.5 -30s-10.667 -27.167 -17 -37.5s-14.833 -21.5 -25.5 -33.5
c-20.667 -23.333 -46.334 -35 -77.001 -35c-35.333 0 -61.666 12.833 -78.999 38.5s-32.333 64.834 -45 117.501c-2.66699 14 -5.33398 37.667 -8.00098 71s-4 62.333 -4 87l1 95c0.666992 11.333 1 26 1 44c0 10.667 0.666992 21.334 2 32.001s2.66602 16.667 3.99902 18
c9.33301 8 26.666 12 51.999 12c22 0 42 -1.66699 60 -5c4.66699 -0.666992 9.16699 -3.33398 13.5 -8.00098s6.5 -11.334 6.5 -20.001l-1 -69c-1.33301 -52 -2 -91.333 -2 -118c0 -38.667 3.33301 -72.667 10 -102s21.334 -44 44.001 -44c14.667 0 27.167 10.667 37.5 32
s18.5 48.666 24.5 81.999c1.33301 6 2.5 18.833 3.5 38.5s1.5 35.834 1.5 48.501v60c0 38 0.5 64.167 1.5 78.5s4.16699 21.166 9.5 20.499c11.333 -0.666992 28.666 -1 51.999 -1zM99.501 577.001c-5.66699 1.33301 -10.5 6 -14.5 14c-4 7.33301 -6 22.666 -6 45.999
c0 4.66699 0.666992 11.667 2 21s2 18.333 2 27c0 15.333 6.66699 23 20 23l11 -1c4 0 9 0.666992 15 2s13 2 21 2c4.66699 0 10.667 -0.833008 18 -2.5s14 -2.16699 20 -1.5c6 0 9 -3.66699 9 -11c0 -4.66699 0.333008 -10.667 1 -18s1 -17.666 1 -30.999v-42
c0 -18.667 -7.66699 -28 -23 -28c-8.66699 0 -16 -0.333008 -22 -1s-11.333 -1 -16 -1c-20 0 -32.833 0.666992 -38.5 2zM343.001 710.001c6 -0.666992 14.666 -0.999023 25.999 -0.999023c15.333 0 23 -9.33301 23 -28c0 -15.333 -0.333008 -28 -1 -38l-1 -53
c0 -7.33301 -3 -11 -9 -11c-6 0.666992 -12.667 0.166992 -20 -1.5s-13.333 -2.5 -18 -2.5l-52 1c-3.33301 0 -6.66602 2.33301 -9.99902 7s-5 10.667 -5 18c0 8.66699 -0.666992 17.667 -2 27s-2 16.333 -2 21c0 23.333 2 38.666 6 45.999s8.16699 11.833 12.5 13.5
s11.833 2.5 22.5 2.5z" />
    <glyph glyph-name="yacute" unicode="&#xfd;" horiz-adv-x="473" 
d="M429 347l0.999023 -195.998c0 -74.667 -6.33301 -132.334 -19 -173.001s-30.667 -76 -54 -106c-20.667 -26 -43.167 -46.167 -67.5 -60.5s-56.833 -21.5 -97.5 -21.5c-21.333 0 -41.833 3.33301 -61.5 10s-35.5 14.334 -47.5 23.001c-6 4.66699 -9 14.667 -9 30
c0 10 5.16699 27.833 15.5 53.5s17.5 40.167 21.5 43.5c4.66699 3.33301 9 5 13 5c2 0 4.33301 -0.5 7 -1.5s4.66699 -1.5 6 -1.5c14 -4.66699 25.833 -7.83398 35.5 -9.50098s20.167 -2.5 31.5 -2.5c36.667 0 65.334 24.333 86.001 73c10.667 25.333 16 50 16 74v64v13
c0 8 -1.33301 12 -4 12c-2 -5.33301 -5.5 -15.333 -10.5 -30s-10.667 -27.167 -17 -37.5s-14.833 -21.5 -25.5 -33.5c-20.667 -23.333 -46.334 -35 -77.001 -35c-25.333 0 -48.166 9.33301 -68.499 28s-36.166 44.167 -47.499 76.5s-17 68.166 -17 107.499l-1 204
c0 5.33301 0.666992 12.5 2 21.5s2.66602 14.167 3.99902 15.5c9.33301 8 26.666 12 51.999 12c5.33301 0 14.666 -0.666992 27.999 -2c10 -2 20.667 -3 32 -3c4.66699 0 9.16699 -2.5 13.5 -7.5s6.5 -11.833 6.5 -20.5l-2 -56l-2 -69c0 -42 4 -78.833 12 -110.5
s22.333 -47.5 43 -47.5c14.667 0 27.167 10.667 37.5 32s18.5 48.666 24.5 81.999c3.33301 14.667 5 27 5 37v20c0 4.66699 -0.166992 10.334 -0.5 17.001s-0.166016 14.334 0.500977 23.001c0.666992 4.66699 1.33398 10.5 2.00098 17.5s1 15.167 1 24.5l-1 26
c0 23.333 3 34.666 9 33.999l28 -3l16 -1l47 1c17.333 0 27.333 -2 30 -6c1.33301 -2 2 -18.667 2 -50c0 -38.667 0.333008 -70.667 1 -96zM298.999 771.002c19.333 0 37.3311 -1.5 53.998 -4.5s25 -7.16699 25 -12.5c0 -8 -8 -24 -24 -48l-75 -114
c-10 -14.667 -32 -22 -66 -22c-11.333 0 -19.666 1.66699 -24.999 5s-8 9.33301 -8 18c0 3.33301 1 7.33301 3 12c8.66699 26 22.334 70 41.001 132c7.33301 22.667 32.333 34 75 34z" />
    <glyph glyph-name="thorn" unicode="&#xfe;" horiz-adv-x="478" 
d="M53 681c0 12.667 14.332 18.999 42.999 18.999h30.5c16.333 0 29 -1.5 38 -4.5s13.5 -8.16699 13.5 -15.5l-1 -113c0 -37.333 1 -56 3 -56c25.333 -2.66699 41.666 -5 48.999 -7c28.667 -9.33301 53.834 -20.166 75.501 -32.499s42.834 -29.166 63.501 -50.499
c23.333 -23.333 41.5 -54.5 54.5 -93.5s19.5 -80.833 19.5 -125.5c0 -30.667 -5 -62.5 -15 -95.5s-25.333 -60.667 -46 -83s-45.334 -33.5 -74.001 -33.5c-29.333 0 -54.5 10 -75.5 30s-38.5 50.667 -52.5 92c-1.33301 3.33301 -2 -11.334 -2 -44.001
c0 -16 0.333008 -35.667 1 -59s1.66699 -44.666 3 -63.999c2 -39.333 3 -83.333 3 -132c0 -8.66699 -25 -13 -75 -13c-12 0 -24.833 1 -38.5 3s-20.5 5 -20.5 9v137l2 114c0.666992 18.667 1.33398 42.5 2.00098 71.5s1 61.833 1 98.5v39
c-1.33301 49.333 -2 185.666 -2 408.999zM181.999 233.999c0 -7.33301 2.33008 -15.667 6.99707 -25c8.66699 -19.333 19.5 -35.833 32.5 -49.5s27.833 -20.5 44.5 -20.5c12.667 0 23.5 8 32.5 24s13.5 39 13.5 69c0 24.667 -5.66699 47.667 -17 69
s-26.666 38.333 -45.999 51s-40.666 19 -63.999 19c-2 0 -3 -5 -3 -15v-17c0.666992 -6 0.833984 -15 0.500977 -27s-0.5 -21.333 -0.5 -28v-23v-27z" />
    <glyph glyph-name="ydieresis" unicode="&#xff;" horiz-adv-x="473" 
d="M429 347l0.999023 -195.998c0 -74.667 -6.33301 -132.334 -19 -173.001s-30.667 -76 -54 -106c-20.667 -26 -43.167 -46.167 -67.5 -60.5s-56.833 -21.5 -97.5 -21.5c-21.333 0 -41.833 3.33301 -61.5 10s-35.5 14.334 -47.5 23.001c-6 4.66699 -9 14.667 -9 30
c0 10 5.16699 27.833 15.5 53.5s17.5 40.167 21.5 43.5c4.66699 3.33301 9 5 13 5c2 0 4.33301 -0.5 7 -1.5s4.66699 -1.5 6 -1.5c14 -4.66699 25.833 -7.83398 35.5 -9.50098s20.167 -2.5 31.5 -2.5c36.667 0 65.334 24.333 86.001 73c10.667 25.333 16 50 16 74v64v13
c0 8 -1.33301 12 -4 12c-2 -5.33301 -5.5 -15.333 -10.5 -30s-10.667 -27.167 -17 -37.5s-14.833 -21.5 -25.5 -33.5c-20.667 -23.333 -46.334 -35 -77.001 -35c-25.333 0 -48.166 9.33301 -68.499 28s-36.166 44.167 -47.499 76.5s-17 68.166 -17 107.499l-1 204
c0 5.33301 0.666992 12.5 2 21.5s2.66602 14.167 3.99902 15.5c9.33301 8 26.666 12 51.999 12c5.33301 0 14.666 -0.666992 27.999 -2c10 -2 20.667 -3 32 -3c4.66699 0 9.16699 -2.5 13.5 -7.5s6.5 -11.833 6.5 -20.5l-2 -56l-2 -69c0 -42 4 -78.833 12 -110.5
s22.333 -47.5 43 -47.5c14.667 0 27.167 10.667 37.5 32s18.5 48.666 24.5 81.999c3.33301 14.667 5 27 5 37v20c0 4.66699 -0.166992 10.334 -0.5 17.001s-0.166016 14.334 0.500977 23.001c0.666992 4.66699 1.33398 10.5 2.00098 17.5s1 15.167 1 24.5l-1 26
c0 23.333 3 34.666 9 33.999l28 -3l16 -1l47 1c17.333 0 27.333 -2 30 -6c1.33301 -2 2 -18.667 2 -50c0 -38.667 0.333008 -70.667 1 -96zM103.499 577.002c-5.66699 1.33301 -10.5 6 -14.5 14c-4 7.33301 -6 22.666 -6 45.999c0 4.66699 0.666992 11.667 2 21
s2 18.333 2 27c0 15.333 6.66699 23 20 23l11 -1c4 0 9 0.666992 15 2s13 2 21 2c4.66699 0 10.667 -0.833008 18 -2.5s14 -2.16699 20 -1.5c6 0 9 -3.66699 9 -11c0 -4.66699 0.333008 -10.667 1 -18s1 -17.666 1 -30.999v-42c0 -18.667 -7.66699 -28 -23 -28
c-8.66699 0 -16 -0.333008 -22 -1s-11.333 -1 -16 -1c-20 0 -32.833 0.666992 -38.5 2zM346.999 710.002c6 -0.666992 14.666 -0.999023 25.999 -0.999023c15.333 0 23 -9.33301 23 -28c0 -15.333 -0.333008 -28 -1 -38l-1 -53c0 -7.33301 -3 -11 -9 -11
c-6 0.666992 -12.667 0.166992 -20 -1.5s-13.333 -2.5 -18 -2.5l-52 1c-3.33301 0 -6.66602 2.33301 -9.99902 7s-5 10.667 -5 18c0 8.66699 -0.666992 17.667 -2 27s-2 16.333 -2 21c0 23.333 2 38.666 6 45.999s8.16699 11.833 12.5 13.5s11.833 2.5 22.5 2.5z" />
    <glyph glyph-name="Amacron" unicode="&#x100;" horiz-adv-x="500" 
d="M436 519.5c12.667 -53 19.0029 -130.5 19.0029 -232.5v-136l-1 -62v-61c0 -14 -3.33301 -22.333 -10 -25c-5.33301 -2.66699 -15.666 -4 -30.999 -4l-25 1c-42.667 0 -64 3.66699 -64 11v143h-2c-60.667 0 -109.334 -0.333008 -146.001 -1v-2l-1 -62v-57
c0 -14 -3.33301 -22.333 -10 -25c-4.66699 -2.66699 -12.834 -4.66699 -24.501 -6s-22.167 -1.66602 -31.5 -0.999023c-42.667 0 -64 3.66699 -64 11v276c0 102.667 6.66699 177.667 20 225s29.666 84.666 48.999 111.999c18 26.667 37.667 47.667 59 63
s49.666 23 84.999 23c27.333 0 51 -5.66699 71 -17s39.333 -29.333 58 -54c20 -26.667 36.333 -66.5 49 -119.5zM324.003 284v3c0 95.333 -6.83301 164.333 -20.5 207s-30.834 64 -51.501 64c-48 0 -72 -90.333 -72 -271v-2h118c4.66699 -0.666992 13.334 -1 26.001 -1z
M132.003 777c-5.33301 3.33301 -8.00098 10.333 -8.00098 21c0 4 -0.333008 10.167 -1 18.5s-1 18.5 -1 30.5c0 12.667 2.16699 20.667 6.5 24s12.5 5 24.5 5h106h75h33c6 0 9 -3.66699 9 -11l1 -32c0.666992 -6.66699 1 -17 1 -31c0 -8 -2.16699 -14.667 -6.5 -20
s-9.83301 -8 -16.5 -8l-198 -2c-11.333 0 -19.666 1.66699 -24.999 5z" />
    <glyph glyph-name="amacron" unicode="&#x101;" horiz-adv-x="468" 
d="M76.5 346.5c27.667 52.333 64.5 92.666 110.5 120.999s94.667 42.5 146 42.5c20.667 0 35.167 -0.5 43.5 -1.5s17.833 -3.5 28.5 -7.5c7.33301 -2.66699 12.333 -9 15 -19s4 -29.667 4 -59l1 -110v-125l-1 -142c0 -12 -1.16699 -22.667 -3.5 -32s-5.5 -14 -9.5 -14
c-8 0 -16 -1 -24 -3c-13.333 -2.66699 -27.333 -4 -42 -4l-20 1c-4 0 -7.83301 2 -11.5 6s-5.5 8 -5.5 12l1 85c0 27.333 -1 39.333 -3 36c-2 -4 -11.333 -20.167 -28 -48.5s-36.5 -53.166 -59.5 -74.499s-44.833 -32 -65.5 -32c-37.333 0 -66.333 17.333 -87 52
s-31 80 -31 136c0 68 13.833 128.167 41.5 180.5zM240.5 354c-17 -12.667 -31.5 -29.332 -43.5 -49.999s-20 -42 -24 -64c-3.33301 -21.333 -5 -40.333 -5 -57c0 -15.333 1 -27.833 3 -37.5s5 -14.5 9 -14.5c10 0 22.333 6.33301 37 19s28.667 28 42 46l16.5 22.5
c9 12.333 16.167 23.833 21.5 34.5c1.33301 6.66699 2 29 2 67c0 34 -1.33301 51 -4 51c-19.333 1.33301 -37.5 -4.33398 -54.5 -17.001zM150 587.002c-5.33301 3.33301 -8.00098 10.333 -8.00098 21c0 4 -0.333008 10.167 -1 18.5s-1 18.5 -1 30.5
c0 12.667 2.16699 20.667 6.5 24s12.5 5 24.5 5h106h75h33c6 0 9 -3.66699 9 -11l1 -32c0.666992 -6.66699 1 -17 1 -31c0 -8 -2.16699 -14.667 -6.5 -20s-9.83301 -8 -16.5 -8l-198 -2c-11.333 0 -19.666 1.66699 -24.999 5z" />
    <glyph glyph-name="Abreve" unicode="&#x102;" horiz-adv-x="500" 
d="M436 519.5c12.667 -53 19.0029 -130.5 19.0029 -232.5v-136l-1 -62v-61c0 -14 -3.33301 -22.333 -10 -25c-5.33301 -2.66699 -15.666 -4 -30.999 -4l-25 1c-42.667 0 -64 3.66699 -64 11v143h-2c-60.667 0 -109.334 -0.333008 -146.001 -1v-2l-1 -62v-57
c0 -14 -3.33301 -22.333 -10 -25c-4.66699 -2.66699 -12.834 -4.66699 -24.501 -6s-22.167 -1.66602 -31.5 -0.999023c-42.667 0 -64 3.66699 -64 11v276c0 102.667 6.66699 177.667 20 225s29.666 84.666 48.999 111.999c18 26.667 37.667 47.667 59 63
s49.666 23 84.999 23c27.333 0 51 -5.66699 71 -17s39.333 -29.333 58 -54c20 -26.667 36.333 -66.5 49 -119.5zM324.003 284v3c0 95.333 -6.83301 164.333 -20.5 207s-30.834 64 -51.501 64c-48 0 -72 -90.333 -72 -271v-2h118c4.66699 -0.666992 13.334 -1 26.001 -1z
M336.503 934.5c7.66699 3 16.1689 4.49902 25.502 4.49902c8.66699 0 16 -1.5 22 -4.5s9 -7.83301 9 -14.5c0 -49.333 -12.167 -89.333 -36.5 -120s-58.833 -46 -103.5 -46c-26.667 0 -50.667 7.83301 -72 23.5s-38 36.334 -50 62.001s-18 52.5 -18 80.5
c0 6.66699 3.16699 11.5 9.5 14.5s14.166 4.5 23.499 4.5s18 -1.5 26 -4.5s13.333 -7.16699 16 -12.5c8 -18.667 16.667 -33.167 26 -43.5s22.333 -15.5 39 -15.5c19.333 0 34.166 5.5 44.499 16.5s18.5 25.167 24.5 42.5c2 5.33301 6.83301 9.5 14.5 12.5z" />
    <glyph glyph-name="abreve" unicode="&#x103;" horiz-adv-x="468" 
d="M76.5 346.5c27.667 52.333 64.5 92.666 110.5 120.999s94.667 42.5 146 42.5c20.667 0 35.167 -0.5 43.5 -1.5s17.833 -3.5 28.5 -7.5c7.33301 -2.66699 12.333 -9 15 -19s4 -29.667 4 -59l1 -110v-125l-1 -142c0 -12 -1.16699 -22.667 -3.5 -32s-5.5 -14 -9.5 -14
c-8 0 -16 -1 -24 -3c-13.333 -2.66699 -27.333 -4 -42 -4l-20 1c-4 0 -7.83301 2 -11.5 6s-5.5 8 -5.5 12l1 85c0 27.333 -1 39.333 -3 36c-2 -4 -11.333 -20.167 -28 -48.5s-36.5 -53.166 -59.5 -74.499s-44.833 -32 -65.5 -32c-37.333 0 -66.333 17.333 -87 52
s-31 80 -31 136c0 68 13.833 128.167 41.5 180.5zM240.5 354c-17 -12.667 -31.5 -29.332 -43.5 -49.999s-20 -42 -24 -64c-3.33301 -21.333 -5 -40.333 -5 -57c0 -15.333 1 -27.833 3 -37.5s5 -14.5 9 -14.5c10 0 22.333 6.33301 37 19s28.667 28 42 46l16.5 22.5
c9 12.333 16.167 23.833 21.5 34.5c1.33301 6.66699 2 29 2 67c0 34 -1.33301 51 -4 51c-19.333 1.33301 -37.5 -4.33398 -54.5 -17.001zM361.5 744.502c7.66699 3 16.1689 4.49902 25.502 4.49902c8.66699 0 16 -1.5 22 -4.5s9 -7.83301 9 -14.5
c0 -49.333 -12.167 -89.333 -36.5 -120s-58.833 -46 -103.5 -46c-26.667 0 -50.667 7.83301 -72 23.5s-38 36.334 -50 62.001s-18 52.5 -18 80.5c0 6.66699 3.16699 11.5 9.5 14.5s14.166 4.5 23.499 4.5s18 -1.5 26 -4.5s13.333 -7.16699 16 -12.5
c8 -18.667 16.667 -33.167 26 -43.5s22.333 -15.5 39 -15.5c19.333 0 34.166 5.5 44.499 16.5s18.5 25.167 24.5 42.5c2 5.33301 6.83301 9.5 14.5 12.5z" />
    <glyph glyph-name="Aogonek" unicode="&#x104;" horiz-adv-x="500" 
d="M475 -83c6.66699 0 12.0068 -5.50195 16.0068 -16.502s6 -21.5 6 -31.5c0 -8 -1.5 -16.167 -4.5 -24.5s-7.83301 -14.166 -14.5 -17.499c-17.333 -10 -36 -15 -56 -15c-34.667 0 -61.167 10 -79.5 30s-27.5 42.333 -27.5 67c0 30.667 9.66699 61.667 29 93
c-13.333 2.66699 -20 5.66699 -20 9v143h-2c-60.667 0 -109.334 -0.333008 -146.001 -1v-2l-1 -62v-57c0 -14 -3.33301 -22.333 -10 -25c-4.66699 -2.66699 -12.834 -4.66699 -24.501 -6s-22.167 -1.66602 -31.5 -0.999023c-42.667 0 -64 3.66699 -64 11v276
c0 102.667 6.66699 177.667 20 225s29.666 84.666 48.999 111.999c18 26.667 37.667 47.667 59 63s49.666 23 84.999 23c27.333 0 51 -5.66699 71 -17s39.333 -29.333 58 -54c20 -26.667 36.333 -66.5 49 -119.5s19 -130.5 19 -232.5v-136l-1 -62v-61
c0 -14 -3.33301 -22.333 -10 -25c-2.66699 -1.33301 -9.33398 -2.66602 -20.001 -3.99902c-12.667 -21.333 -19 -43.333 -19 -66c0 -13.333 2.5 -23 7.5 -29s11.167 -9 18.5 -9s13.166 1.5 17.499 4.5s10.166 7.5 17.499 13.5c2.66699 2.66699 5.66699 4 9 4z
M324.007 286.998c0 95.333 -6.83301 164.333 -20.5 207s-30.834 64 -51.501 64c-48 0 -72 -90.333 -72 -271v-2h118c4.66699 -0.666992 13.334 -1 26.001 -1v3z" />
    <glyph glyph-name="aogonek" unicode="&#x105;" horiz-adv-x="468" 
d="M447 -83c6.66699 0 12.002 -5.5 16.002 -16.5s6 -21.5 6 -31.5c0 -8 -1.5 -16.167 -4.5 -24.5s-7.83301 -14.166 -14.5 -17.499c-17.333 -10 -36 -15 -56 -15c-34.667 0 -61.167 10 -79.5 30s-27.5 42.333 -27.5 67c0 30 9 60 27 90c-4 5.33301 -6 9.66602 -6 12.999
l1 85c0 27.333 -1 39.333 -3 36c-2 -4 -11.333 -20.167 -28 -48.5s-36.5 -53.166 -59.5 -74.499s-44.833 -32 -65.5 -32c-37.333 0 -66.333 17.333 -87 52s-31 80 -31 136c0 68 13.833 128.167 41.5 180.5s64.5 92.666 110.5 120.999s94.667 42.5 146 42.5
c20.667 0 35.167 -0.5 43.5 -1.5s17.833 -3.5 28.5 -7.5c7.33301 -2.66699 12.333 -9 15 -19s4 -29.667 4 -59l1 -110v-125l-1 -142c0 -12 -1.16699 -22.667 -3.5 -32s-5.5 -14 -9.5 -14c-7.33301 0 -12.333 -0.333008 -15 -1c-12.667 -22 -19 -44 -19 -66
c0 -13.333 2.5 -23 7.5 -29s11.167 -9 18.5 -9s13.166 1.5 17.499 4.5s10.166 7.5 17.499 13.5c2.66699 2.66699 5.66699 4 9 4zM299.002 320c0 34 -1.33301 51.002 -4 51.002c-19.333 1.33301 -37.5 -4.33398 -54.5 -17.001s-31.5 -29.334 -43.5 -50.001s-20 -42 -24 -64
c-3.33301 -21.333 -5 -40.333 -5 -57c0 -15.333 1 -27.833 3 -37.5s5 -14.5 9 -14.5c10 0 22.333 6.33301 37 19s28.667 28 42 46l16.5 22.5c9 12.333 16.167 23.833 21.5 34.5c1.33301 6.66699 2 29 2 67z" />
    </font>
</defs>
</svg>
