<svg width="184" height="62" viewBox="0 0 184 62" fill="none" xmlns="http://www.w3.org/2000/svg">
<rect x="0.685724" y="0.685724" width="182.367" height="59.7138" rx="29.8569" stroke="#0094FF" stroke-width="1.37145"/>
<path d="M41.5069 30.419C41.5069 28.9336 41.8419 27.6011 42.5117 26.4216C43.1816 25.2274 44.0918 24.2954 45.2423 23.6255C46.4073 22.9556 47.6961 22.6207 49.1087 22.6207C50.7688 22.6207 52.2178 23.0212 53.4556 23.8221C54.6935 24.6231 55.5963 25.759 56.1643 27.2298H53.7833C53.361 26.3123 52.7493 25.606 51.9484 25.1109C51.162 24.6158 50.2154 24.3682 49.1087 24.3682C48.0456 24.3682 47.0917 24.6158 46.2471 25.1109C45.4024 25.606 44.7398 26.3123 44.2593 27.2298C43.7787 28.1327 43.5384 29.1958 43.5384 30.419C43.5384 31.6277 43.7787 32.6908 44.2593 33.6083C44.7398 34.5111 45.4024 35.2102 46.2471 35.7053C47.0917 36.2004 48.0456 36.448 49.1087 36.448C50.2154 36.448 51.162 36.2077 51.9484 35.7271C52.7493 35.232 53.361 34.5257 53.7833 33.6083H56.1643C55.5963 35.0645 54.6935 36.1931 53.4556 36.9941C52.2178 37.7805 50.7688 38.1737 49.1087 38.1737C47.6961 38.1737 46.4073 37.846 45.2423 37.1907C44.0918 36.5208 43.1816 35.5961 42.5117 34.4165C41.8419 33.2369 41.5069 31.9044 41.5069 30.419ZM70.8536 22.8173V38.0426H68.8658V31.1399H61.1111V38.0426H59.1233V22.8173H61.1111V29.5016H68.8658V22.8173H70.8536ZM83.2475 34.6568H76.6069L75.3836 38.0426H73.2866L78.7913 22.9047H81.085L86.5678 38.0426H84.4708L83.2475 34.6568ZM82.6796 33.0403L79.9272 25.3512L77.1749 33.0403H82.6796ZM96.9837 38.0426L93.3576 31.817H90.9547V38.0426H88.9669V22.8173H93.8818C95.0323 22.8173 96.0007 23.0139 96.7871 23.4071C97.588 23.8003 98.1851 24.3318 98.5783 25.0017C98.9715 25.6716 99.1681 26.4361 99.1681 27.2953C99.1681 28.3438 98.8623 29.2686 98.2506 30.0695C97.6536 30.8705 96.7507 31.402 95.542 31.6641L99.3647 38.0426H96.9837ZM90.9547 30.2224H93.8818C94.9595 30.2224 95.7677 29.9603 96.3065 29.436C96.8453 28.8972 97.1147 28.1836 97.1147 27.2953C97.1147 26.3924 96.8453 25.6934 96.3065 25.1983C95.7823 24.7032 94.974 24.4556 93.8818 24.4556H90.9547V30.2224ZM111.628 22.8173V24.4338H107.478V38.0426H105.49V24.4338H101.318V22.8173H111.628Z" fill="white"/>
<path d="M141.211 30.8996H136.559V35.6179H134.702V30.8996H130.071V29.2176H134.702V24.4774H136.559V29.2176H141.211V30.8996Z" fill="white"/>
</svg>
