<svg width="111" height="61" viewBox="0 0 111 61" fill="none" xmlns="http://www.w3.org/2000/svg">
<rect x="0.945307" y="0.889338" width="109.262" height="58.5652" rx="29.2826" stroke="#0094FF" stroke-width="1.37145"/>
<path fill-rule="evenodd" clip-rule="evenodd" d="M71.1626 12.7878C71.646 12.5743 72.1751 12.5006 72.6948 12.5745C73.2146 12.6484 73.706 12.8672 74.1178 13.208C74.5297 13.5489 74.8469 13.9993 75.0366 14.5125C75.2263 15.0257 75.2814 15.5829 75.1963 16.126L70.7596 44.3696C70.3292 47.094 67.4809 48.6564 65.1002 47.2993C63.1087 46.164 60.1509 44.4148 57.4904 42.5896C56.1602 41.676 52.0854 38.7505 52.5862 36.6687C53.0165 34.8887 59.8633 28.1999 63.7758 24.2232C65.3115 22.6608 64.6111 21.7596 62.7977 23.1967C58.2944 26.7649 51.0642 32.191 48.6737 33.7185C46.5649 35.0653 45.4655 35.2952 44.1509 35.0653C41.7525 34.6465 39.5283 33.9977 37.7129 33.2073C35.2598 32.1397 35.3791 28.6003 37.7109 27.5696L71.1626 12.7878Z" fill="white"/>
</svg>
